<svg width="20" height="20" viewBox="0 0 20 20" fill="none" xmlns="http://www.w3.org/2000/svg">
<path d="M17.7358 15.3533C17.4459 16.0229 17.1028 16.6393 16.7053 17.206C16.1635 17.9785 15.7198 18.5133 15.3779 18.8103C14.8479 19.2977 14.28 19.5473 13.6719 19.5615C13.2353 19.5615 12.7088 19.4373 12.096 19.1853C11.4811 18.9345 10.9161 18.8103 10.3994 18.8103C9.85758 18.8103 9.27645 18.9345 8.65485 19.1853C8.03231 19.4373 7.5308 19.5686 7.14736 19.5816C6.56421 19.6065 5.98296 19.3497 5.40277 18.8103C5.03246 18.4873 4.56928 17.9336 4.01441 17.1492C3.41908 16.3116 2.92964 15.3403 2.5462 14.2329C2.13555 13.0368 1.92969 11.8785 1.92969 10.7572C1.92969 9.47271 2.20724 8.36487 2.76318 7.4365C3.20009 6.6908 3.78134 6.10256 4.50883 5.67073C5.23631 5.23891 6.02236 5.01885 6.86886 5.00477C7.33204 5.00477 7.93944 5.14805 8.69425 5.42962C9.44693 5.71214 9.93023 5.85541 10.1421 5.85541C10.3005 5.85541 10.8374 5.68789 11.7476 5.3539C12.6083 5.04417 13.3347 4.91592 13.9298 4.96644C15.5423 5.09658 16.7538 5.73226 17.5595 6.87749C16.1173 7.75132 15.4039 8.97522 15.4181 10.5453C15.4311 11.7683 15.8748 12.786 16.7467 13.594C17.1419 13.969 17.5832 14.2589 18.0742 14.4648C17.9677 14.7736 17.8553 15.0693 17.7358 15.3533ZM14.0374 0.800068C14.0374 1.75862 13.6873 2.65362 12.9892 3.48202C12.1469 4.46682 11.128 5.03589 10.0231 4.94609C10.009 4.83109 10.0009 4.71006 10.0009 4.58288C10.0009 3.66267 10.4015 2.67787 11.1128 1.87266C11.468 1.46497 11.9197 1.12597 12.4675 0.855555C13.0141 0.58917 13.5311 0.441853 14.0173 0.416626C14.0315 0.544769 14.0374 0.672921 14.0374 0.800056V0.800068Z" fill="white"/>
</svg>
