<svg width="19" height="18" viewBox="0 0 19 18" fill="none" xmlns="http://www.w3.org/2000/svg">
<path fill-rule="evenodd" clip-rule="evenodd" d="M18.1398 9.20415C18.1398 8.56598 18.0825 7.95236 17.9762 7.36328H9.5V10.8446H14.3435C14.1349 11.9695 13.5008 12.9227 12.5477 13.5609V15.819H15.4562C17.158 14.2522 18.1398 11.945 18.1398 9.20415Z" fill="#4285F4"/>
<path fill-rule="evenodd" clip-rule="evenodd" d="M9.49957 17.9999C11.9295 17.9999 13.9667 17.194 15.4558 15.8195L12.5472 13.5614C11.7413 14.1014 10.7104 14.4204 9.49957 14.4204C7.15553 14.4204 5.17149 12.8373 4.46378 10.7101H1.45703V13.0418C2.93791 15.9831 5.98147 17.9999 9.49957 17.9999Z" fill="#34A853"/>
<path fill-rule="evenodd" clip-rule="evenodd" d="M4.464 10.7103C4.284 10.1703 4.18173 9.59351 4.18173 9.00034C4.18173 8.40717 4.284 7.83037 4.464 7.29038V4.95862H1.45725C0.847719 6.17359 0.5 7.5481 0.5 9.00034C0.5 10.4526 0.847719 11.8271 1.45725 13.0421L4.464 10.7103Z" fill="#FBBC05"/>
<path fill-rule="evenodd" clip-rule="evenodd" d="M9.49957 3.57946C10.8209 3.57946 12.0072 4.03354 12.9399 4.92534L15.5212 2.34404C13.9626 0.891797 11.9254 0 9.49957 0C5.98147 0 2.93791 2.01677 1.45703 4.95806L4.46378 7.28983C5.17149 5.1626 7.15553 3.57946 9.49957 3.57946Z" fill="#EA4335"/>
</svg>
