<svg width="113" height="101" viewBox="0 0 113 101" fill="none" xmlns="http://www.w3.org/2000/svg">
<path fill-rule="evenodd" clip-rule="evenodd" d="M18.2314 12.4406C11.8372 10.6661 5.21512 14.4111 3.44061 20.8054C1.6661 27.1996 5.41114 33.8217 11.8054 35.5962L14.9021 36.4556C15.8744 36.7254 16.3284 37.8447 16.0585 38.8169L10.1717 60.0293C8.97366 64.3465 11.5022 68.8175 15.8193 70.0156L89.6855 90.5147C94.0027 91.7128 98.4737 89.1842 99.6718 84.8671L105.559 63.6547C106.757 59.3375 104.228 54.8665 99.911 53.6684L58.7952 42.2581C56.1505 41.5242 55.1952 38.0165 55.9292 35.3718C57.7037 28.9776 53.9587 22.3555 47.5644 20.581L18.2314 12.4406Z" fill="#FEE425"/>
<path d="M24.9233 54.3612L25.704 51.6756L33.9072 54.0602L31.1465 63.5574L28.3877 62.7554L29.4026 59.2642C27.6053 61.2571 25.0475 62.314 21.9957 61.4269C17.6011 60.1494 14.671 55.5644 16.3104 49.9247C17.964 44.2361 23.1288 41.3157 28.1093 42.7635C32.3818 44.0055 35.3726 48.2904 34.215 52.4551L30.5772 51.3976C31.1995 48.9837 29.7258 46.6755 27.1867 45.9374C23.8663 44.9722 21.0025 47.264 20.0231 50.6332C19.1076 53.7827 19.8492 57.3344 23.316 58.3422C25.8063 59.066 28.0742 58.0043 29.1958 55.6032L24.9233 54.3612Z" fill="#121411"/>
<path d="M31.366 63.6212L42.5417 47.6737L46.6921 48.8802L47.504 68.3123L43.915 67.269L43.8188 63.1371L37.2269 61.2209L34.9305 64.6574L31.366 63.6212ZM38.7706 58.916L43.7512 60.3638L43.5075 51.8202L38.7706 58.916Z" fill="#121411"/>
<path d="M47.7513 68.3842L52.8966 50.6838L57.633 52.0606L58.2975 67.0811L66.9176 54.733L71.6784 56.1169L66.5331 73.8174L63.2616 72.8664L67.3423 58.8281L58.4937 71.5069L55.7593 70.712L55.0792 55.2898L50.9985 69.3281L47.7513 68.3842Z" fill="#121411"/>
<path d="M67.946 74.2546L73.0913 56.5541L86.0065 60.3084L85.2188 63.0184L75.8681 60.3003L74.4487 65.1832L82.4322 67.5039L81.6444 70.2139L73.6609 67.8932L72.2983 72.5807L81.649 75.2989L80.8612 78.0089L67.946 74.2546Z" fill="#121411"/>
<path d="M96.9737 77.5559C95.9446 81.096 92.0369 81.787 88.3747 80.7225C83.2233 79.225 81.8518 75.199 83.0447 71.733L86.773 72.8432C86.1164 74.3734 86.0863 77.1183 89.3334 78.0622C91.3354 78.6441 92.9621 78.0579 93.3666 76.6663C94.5092 72.7355 83.5307 71.6095 85.4398 65.042C86.4688 61.5019 89.9575 60.795 93.5708 61.8453C97.5504 63.0022 99.8706 65.7683 98.3252 70.7205L94.5236 69.5889C95.5076 66.7506 94.8552 65.0782 92.6335 64.4324C90.6803 63.8647 89.245 64.6124 88.8547 65.9552C87.6411 70.1301 98.7763 71.3547 96.9737 77.5559Z" fill="#121411"/>
<path d="M18.7463 29.5025L14.8477 28.376L17.1806 20.302L21.01 21.4085C22.4749 21.8317 23.2615 22.9588 22.9115 24.1699C22.6449 25.0927 21.7693 25.6145 20.7074 25.5701C21.7762 26.0664 22.2714 27.0343 21.9747 28.0609C21.6015 29.3527 20.2804 29.9458 18.7463 29.5025ZM18.1966 21.9328L17.58 24.0666L19.9907 24.7632C20.6828 24.9631 21.289 24.6384 21.4756 23.9925C21.6489 23.3927 21.3339 22.8393 20.7111 22.6593L18.1966 21.9328ZM17.2334 25.2662L16.5802 27.5269L19.1754 28.2768C19.8675 28.4768 20.4376 28.1041 20.6242 27.4582C20.8142 26.8007 20.44 26.1927 19.7018 25.9794L17.2334 25.2662Z" fill="#121411"/>
<path d="M27.9367 32.158L22.181 30.495L24.514 22.4209L30.1658 24.054L29.8059 25.2997L25.5266 24.0632L24.9267 26.1394L28.8023 27.2592L28.4523 28.4703L24.5768 27.3505L23.9135 29.6459L28.2966 30.9123L27.9367 32.158Z" fill="#121411"/>
<path d="M32.0198 33.5253C29.8974 32.912 28.7853 31.4409 29.1448 29.8077L30.5635 30.2176C30.4371 31.1309 31.0845 31.9178 32.3764 32.2911C33.426 32.5944 34.0963 32.3506 34.2929 31.6701C34.4763 31.0357 34.0536 30.6387 33.3392 30.1698L32.1376 29.3977C31.2751 28.836 29.9187 27.9942 30.3753 26.414C30.7586 25.0875 32.1343 24.4353 33.9221 24.9519C35.8714 25.5151 36.8139 26.9247 36.4244 28.6617L35.0172 28.2551C35.2228 27.3273 34.7305 26.5226 33.5194 26.1727C32.6312 25.9161 31.9479 26.1185 31.7679 26.7414C31.5646 27.445 32.2182 27.8213 32.9292 28.3017L34.0419 29.0356C35.0805 29.7231 36.1601 30.485 35.7201 32.0075C35.2969 33.4724 33.8653 34.0585 32.0198 33.5253Z" fill="#121411"/>
<path d="M39.1505 35.3982L37.7664 34.9983L39.7394 28.1699L37.0404 27.39L37.4003 26.1443L44.171 28.1007L43.8111 29.3464L41.1235 28.5698L39.1505 35.3982Z" fill="#121411"/>
</svg>
