<svg width="85" height="30" viewBox="0 0 85 30" fill="none" xmlns="http://www.w3.org/2000/svg">
<path d="M7.32812 7.34972H10.2595L8.7938 3.67578L7.32812 7.34972Z" fill="#F9F9F9"/>
<path d="M23.4531 19.8398V21.3094H28.5823V23.5138H23.4531V25.7181H29.3151L31.5133 22.779L29.3151 19.8398H23.4531Z" fill="#F9F9F9"/>
<path d="M62.2782 3.67578L60.8125 7.34972H63.7439L62.2782 3.67578Z" fill="#F9F9F9"/>
<path d="M37.3673 26.4533V19.1055L33.7031 22.7794L37.3673 26.4533Z" fill="#F9F9F9"/>
<path d="M43.9673 21.3094C43.8298 20.5746 43.3264 19.8398 42.5017 19.8398H39.5703V22.0442H42.5017C43.3258 22.0444 43.9673 22.044 43.9673 21.3094Z" fill="#F9F9F9"/>
<path d="M53.4923 22.0437C53.7723 21.9129 54.2252 21.6996 54.2252 21.3089C54.3652 20.7873 53.7723 19.9699 53.4923 19.8393C53.2132 19.7087 53.1787 19.8393 52.7595 19.8393H49.8281V22.0437H52.7595C53.1787 22.0437 53.213 22.1743 53.4923 22.0437Z" fill="#F9F9F9"/>
<path d="M73.2742 0V1.46957L72.5415 0H65.9468V1.46957L65.2141 0H56.4212C54.9369 0 53.8365 0.200468 52.7574 0.734787V0H46.8955V0V0.734787C46.2209 0.20066 45.0442 0 43.9645 0H21.9823L20.5168 3.67394L19.0513 0H14.6548H12.4566V1.46957L11.7239 0V0H5.86194L2.93097 6.61308L0 13.2262V13.2262V13.2262H6.59468H7.32742V13.2262L8.06017 11.0218H9.52565L10.2584 13.2262H18.3186V13.2262V11.7566L19.0513 13.2262H22.715L23.4478 11.7566V13.2262V13.2262H26.3787H42.4991V13.2262V9.55223V9.55223C42.7686 9.55223 42.4991 9.88604 42.4991 10.287V13.2262H52.7574V12.4914C53.5671 12.8927 54.8016 13.2262 56.4212 13.2262H60.0849L60.8176 11.0218H63.0158L63.7486 13.2262H71.8087V11.7566V11.0218L72.5415 13.2262H73.2742V13.2262H79.1362V0H73.2742V0ZM27.1115 11.0218H25.646H24.9132V10.287V3.67394V4.40872V4.40872L21.9823 11.0218V11.0218H21.2495H19.784L16.8531 3.67394V11.0218H11.7239L10.9911 9.55223H6.59468L5.86194 11.0218H2.93097L7.32742 2.20436H10.2584L14.6548 11.0218V2.20436H15.3876H17.5858H18.3186V2.20436L19.784 5.8783L21.2495 8.08266V8.08266L23.4478 2.20436H27.1115V11.0218V11.0218ZM36.6371 3.67394H31.5079V5.8783H36.6371V7.34787H31.5079V9.55223H36.6371V11.0218H29.3097V2.20436H36.6371V3.67394ZM46.1628 7.34787C46.1663 7.35095 46.1585 7.34499 46.1628 7.34787C46.2138 7.40128 46.1255 7.29657 46.1628 7.34787C46.4213 7.68333 46.885 8.08581 46.8955 8.81745C46.8963 8.83013 46.8947 8.80476 46.8955 8.81745C46.8955 8.82475 46.8955 8.80995 46.8955 8.81745C46.8955 8.82167 46.8955 8.81341 46.8955 8.81745C46.8986 8.89103 46.8955 9.47096 46.8955 9.55223V11.0218H44.6973V10.287C44.6973 9.7527 45.1027 8.61698 44.6973 8.08266C44.5698 7.95643 44.105 8.14183 43.9645 8.08266C43.7623 7.95297 43.1352 8.08266 42.4991 8.08266H40.3008V11.0218H38.1026V2.20436H43.2318C44.4455 2.20436 45.4878 1.80357 46.1628 2.20436C46.824 2.59746 46.8804 3.3764 46.8955 4.40872C46.8643 5.8305 46.0928 6.35006 45.43 6.61308C45.43 6.61308 45.7591 6.93191 46.1628 7.34787ZM50.5592 11.0218H48.361V2.20436H50.5592V11.0218ZM76.9379 11.0218H74.007L69.6105 4.40872V10.287V10.287V11.0218H67.4123V11.0218H65.2141L64.4813 9.55223H59.3521L58.6194 11.0218H56.4212C55.3423 11.0218 53.5667 11.0886 52.7574 10.287C51.9478 9.48545 52.0247 8.34957 52.0247 6.61308C52.0247 5.27719 51.8129 4.00759 52.7574 2.93915C53.4317 2.137 54.9371 2.20436 56.4212 2.20436H58.6194V3.67394H56.4212C55.6115 3.67394 55.4966 4.00717 54.9557 4.40872C54.5516 4.80932 54.2229 5.67798 54.2229 6.61308C54.2229 7.68211 54.4165 8.28313 54.9557 8.81745C55.3615 9.21881 55.7466 9.55223 56.4212 9.55223H57.1539L60.0849 2.20436H61.5504H63.7486L67.4123 11.0218V10.287V7.34787V7.34787V2.20436H71.076L74.7397 8.81745V2.20436H76.9379V11.0218V11.0218V11.0218Z" fill="#F9F9F9"/>
<path d="M44.6939 5.87936C44.7341 5.83863 44.663 5.1975 44.6939 5.14457C44.8186 4.95744 44.7709 4.86981 44.6939 4.40978C44.6907 4.36755 44.7034 4.44751 44.6939 4.40978C44.6913 4.39927 44.6969 4.42029 44.6939 4.40978V4.40978C44.6254 4.18625 44.1354 3.75833 43.9611 3.675C43.6852 3.54493 43.6408 3.675 43.2282 3.675H40.2969V5.87936H43.2282C43.6408 5.87936 43.6854 6.01018 43.9611 5.87936C44.0024 5.85946 44.6585 5.90995 44.6939 5.87936V5.87936C44.6939 5.87936 44.6753 5.89963 44.6939 5.87936Z" fill="#F9F9F9"/>
<path d="M85.0015 24.2471C85.0015 23.2891 84.6715 22.727 84.2687 22.0428V16.1645V16.1645V15.4297C84.2687 15.4297 78.512 15.4297 77.6741 15.4297C76.8365 15.4297 76.2086 16.1645 76.2086 16.1645V15.4297H69.6139C68.6732 15.4297 67.9536 15.6175 67.4157 16.1645V15.4297H56.4245V16.1645V16.1645C55.6193 15.4807 54.1646 15.4297 53.4936 15.4297H46.1662V16.1645V16.1645C45.4947 15.4807 43.3087 15.4297 42.5024 15.4297H34.4423L32.9768 17.634L30.7786 15.4297V15.4297H29.3131H19.0547V16.1645V16.8993V29.3906H30.7786L32.9768 27.1863L34.4423 29.3906V29.3906H41.7697V29.3906V29.3906V29.3906V27.9211V26.4515H42.5024C43.4418 26.4515 44.4933 26.1279 45.4334 25.7167V29.3906V29.3906H52.0281V29.3906V25.7167V25.7167C52.4316 25.7167 52.7608 26.0409 52.7608 26.4515V29.3906V29.3906H71.0794C72.2891 29.3906 73.3389 29.2032 74.0104 28.6559V29.3906V29.3906H79.8723C81.0803 29.3906 81.9974 29.2036 82.8033 28.6559C84.0398 27.8998 84.8856 26.578 85.0015 24.9819C85.0069 24.9347 84.9972 25.0294 85.0015 24.9819V24.9819C85.0065 24.8933 85.0015 24.3365 85.0015 24.2471ZM42.5024 23.5123H40.3042V24.2471V24.9819V25.7167V27.1863H35.9078L32.9768 24.2471V24.2471V24.2471L30.0458 27.1863H21.2529V17.634H30.0458L32.244 20.5732L32.9768 21.308V20.5732L35.9078 17.634H43.2352C44.6166 17.634 45.5799 18.4061 46.1662 19.8384C46.2367 20.122 46.8989 20.215 46.8989 20.5732C46.8989 23.3104 44.5163 23.5123 42.5024 23.5123ZM56.4245 23.5123C56.6928 23.922 56.4245 24.8951 56.4245 25.7167V27.1863H54.2263V26.4515C54.2263 25.9031 53.8971 24.6583 53.4936 24.2471C53.2257 23.8375 52.8334 23.5123 52.0281 23.5123H49.8299V27.1863H47.6316V17.634H52.7608C53.8346 17.634 54.2863 17.9586 54.9591 18.3688C55.6301 18.7798 56.4245 19.4782 56.4245 20.5732C56.4245 22.0784 55.6309 22.5034 54.9591 22.7776C55.6309 23.0502 56.2903 23.2386 56.4245 23.5123ZM65.2174 19.8384H60.0883V21.308H65.2174V23.5123H60.0883V24.9819H65.2174V27.1863H57.89V17.634H65.2174V19.8384ZM71.0794 27.1863H66.6829V24.9819H71.0794C71.4815 24.9819 71.5429 25.2559 71.8121 24.9819C71.9466 24.8447 72.5449 24.5211 72.5449 24.2471C72.5449 23.9727 71.9466 23.6495 71.8121 23.5123C71.6773 23.3755 71.4821 23.5123 71.0794 23.5123C68.9303 23.3753 66.6829 23.584 66.6829 20.5732C66.6829 19.2044 67.1962 17.634 69.6139 17.634H74.0104V19.8384H69.6139C69.2112 19.8384 69.15 19.7014 68.8812 19.8384C68.6133 19.9756 68.8812 20.2998 68.8812 20.5732C68.8812 20.984 69.3452 21.1722 69.6139 21.308C69.8832 21.4452 70.0784 21.308 70.3466 21.308H71.0794C72.2883 21.308 73.4732 21.4952 74.0104 22.0428C74.4135 22.4536 74.7431 23.2893 74.7431 24.2471C74.7431 26.2995 73.3625 27.1863 71.0794 27.1863ZM82.8033 26.4515C82.2667 26.9997 81.2159 27.1863 79.8723 27.1863H75.4758V24.9819H79.8723C80.2754 24.9819 80.3367 25.2559 80.605 24.9819C80.7389 24.8447 81.3378 24.5211 81.3378 24.2471C81.3378 23.9727 80.7389 23.6495 80.605 23.5123C80.4706 23.3755 80.2754 23.5123 79.8723 23.5123C77.724 23.3753 75.4758 23.5838 75.4758 20.5732C75.4758 19.2723 75.8729 17.983 77.6741 17.634C77.8894 17.6037 78.1576 17.634 78.4068 17.634H82.8033V19.8384H79.8723H79.1396H78.4068C78.0037 19.8384 77.9424 19.7014 77.6741 19.8384C77.5389 19.9756 77.6741 20.2998 77.6741 20.5732C77.6741 20.984 77.2706 21.1722 77.6741 21.308C77.9424 21.4452 78.8707 21.308 79.1396 21.308V21.308H79.8723C80.4593 21.308 80.9316 21.1625 81.3378 21.308C81.7098 21.4452 83.2606 22.0469 83.536 23.5123C83.56 23.6659 83.536 24.0698 83.536 24.2471C83.536 25.0685 83.3402 25.9047 82.8033 26.4515Z" fill="#F9F9F9"/>
</svg>
