<svg width="142" height="116" viewBox="0 0 142 116" fill="none" xmlns="http://www.w3.org/2000/svg">
<path d="M30.7936 86.3337C22.7683 86.3337 15.215 85.1934 9.47931 83.1185C3.34231 80.9064 0 77.8906 0 74.6224C0 71.3543 3.30454 68.3914 9.35657 66.2105C15.0498 64.1356 22.5747 62.9922 30.6 62.9922C38.6253 62.9922 46.1786 64.1356 51.9001 66.2074C58.0041 68.4039 61.37 71.4134 61.3794 74.6847C61.3889 77.956 58.0749 80.9376 52.0182 83.1278C46.3485 85.1903 38.8095 86.3337 30.7936 86.3337Z" fill="#121411"/>
<path d="M94.3116 91.5217C87.7557 91.5217 81.5854 90.2969 76.8999 88.0683C71.8866 85.6924 69.1562 82.4532 69.1562 78.9429C69.1562 75.4326 71.8557 72.2503 76.7996 69.9079C81.4505 67.6793 87.5976 66.4512 94.1535 66.4512C100.709 66.4512 106.88 67.6793 111.554 69.9046C116.54 72.2637 119.289 75.4962 119.297 79.0098C119.305 82.5235 116.598 85.7259 111.65 88.0783C107.018 90.2936 100.86 91.5217 94.3116 91.5217Z" fill="#121411"/>
<path d="M65.5634 62.6416V70.5357C65.5634 74.0743 63.2281 77.6061 58.5845 80.3042C49.2397 85.7274 34.0344 85.7274 24.6286 80.3042C19.907 77.5756 17.5446 73.993 17.5547 70.4137V62.5195C17.5547 66.0988 19.9036 69.6815 24.6252 72.4067C34.031 77.8299 49.2363 77.8299 58.5811 72.4067C63.2281 69.7086 65.5533 66.1768 65.5634 62.6416Z" fill="#F7C800"/>
<g opacity="0.15">
<path d="M17.5625 62.5527C17.5625 66.1185 19.9351 69.6876 24.633 72.4094C34.0388 77.8325 49.2407 77.8325 58.5855 72.4094C63.2325 69.6978 65.5576 66.1761 65.5644 62.6375V65.6372C65.5068 69.1317 63.1918 72.6093 58.5923 75.2701C49.2474 80.6933 34.0456 80.6933 24.6397 75.2701C19.925 72.5517 17.5625 68.9928 17.5625 65.4169" fill="#544A00"/>
</g>
<path d="M58.4729 52.7231C67.8787 58.1463 67.9296 66.959 58.5814 72.3822C49.2332 77.8054 34.0313 77.8054 24.6255 72.3822C15.2196 66.959 15.1858 58.1463 24.534 52.7231C33.8822 47.3 49.084 47.3169 58.4729 52.7231Z" fill="#FEE425"/>
<path d="M41.6331 75.2866C35.8709 75.2866 30.4478 74.0461 26.3295 71.7887C21.9232 69.3821 19.5234 66.1011 19.5234 62.5455C19.5234 58.99 21.8961 55.7666 26.2414 53.3939C30.3291 51.1365 35.732 49.8926 41.4941 49.8926C47.2562 49.8926 52.6794 51.1365 56.7875 53.3905C61.1701 55.7801 63.5868 59.0544 63.5936 62.6133C63.6003 66.1723 61.2209 69.416 56.8722 71.7988C52.8014 74.0427 47.3884 75.2866 41.6331 75.2866Z" fill="#141414"/>
<path d="M55.3712 70.55C47.8262 74.9563 35.4681 74.9563 27.8417 70.55C20.2154 66.1437 20.1883 59.0054 27.7604 54.6194C35.3325 50.2334 47.6635 50.2131 55.2898 54.6194C62.9162 59.0257 62.9433 66.1708 55.3712 70.55Z" fill="#F7C800"/>
<g opacity="0.4">
<path d="M55.3654 70.5478C47.8204 74.9541 35.4623 74.9541 27.8359 70.5478L55.2908 54.6172C62.9104 59.0032 62.9375 66.1686 55.3654 70.5478Z" fill="white"/>
</g>
<path d="M42.214 54.6495L44.268 55.8358C46.3424 57.0323 48.1219 58.239 47.1491 59.6829L41.5361 56.4527L38.5262 56.7917L45.5526 60.859C44.268 61.6081 41.1904 62.1369 37.6144 60.0727L35.8892 59.0762L34.1945 60.0523L32.5234 69.0447L35.6147 70.8275L37.367 61.5369C40.4718 63.1537 44.8646 63.8011 48.1422 62.3572L50.3521 63.6316L53.362 63.2927L49.9285 61.2793C50.4522 60.8866 50.8052 60.3079 50.9148 59.6626L54.0602 61.4793L57.0701 61.1404L45.2408 54.3105L42.214 54.6495Z" fill="#544A00"/>
<path d="M55.4051 54.4187C51.6767 52.2664 46.7416 51.0801 41.5082 51.0801C36.2749 51.0801 31.3398 52.2664 27.6418 54.4187C23.9439 56.5711 21.8594 59.4657 21.8594 62.5535C21.8594 65.6413 23.9439 68.5834 27.7232 70.7696C31.4516 72.9219 36.3901 74.1083 41.6404 74.1083C46.8907 74.1083 51.8089 72.9219 55.4967 70.7696C59.1844 68.6173 61.2825 65.7125 61.2757 62.6145C61.269 59.5165 59.181 56.5812 55.4051 54.4187ZM55.2424 70.3493C51.6292 72.461 46.7958 73.6236 41.6303 73.6236C36.4647 73.6236 31.6177 72.4508 27.9571 70.3493C24.2964 68.2478 22.3373 65.4888 22.3373 62.5535C22.3373 59.6182 24.3032 56.9066 27.8757 54.839C31.5025 52.7274 36.3494 51.5682 41.4981 51.5682C46.6467 51.5682 51.5106 52.7308 55.1611 54.839C58.8116 56.9473 60.7673 59.6724 60.7673 62.6077C60.7673 65.543 58.8184 68.2716 55.2424 70.3493Z" fill="#544A00"/>
<path d="M65.7994 62.6432C65.7994 62.6432 65.7994 62.6161 65.7994 62.606C65.7994 58.786 63.2336 55.2067 58.5866 52.5256C54.0142 49.8852 47.9402 48.4277 41.49 48.4277C35.0398 48.4277 28.9658 49.8886 24.407 52.5392C19.8481 55.1898 17.2891 58.7589 17.2891 62.5517V62.5788V70.412C17.2891 74.2421 19.838 77.8281 24.4849 80.5126C29.0709 83.1598 35.1517 84.6207 41.6086 84.6207C48.0656 84.6207 54.1294 83.1598 58.6849 80.5126C63.2404 77.8654 65.7757 74.3133 65.7825 70.5374V62.6399L65.7994 62.6432ZM20.6786 76.974C18.7838 74.981 17.7771 72.7405 17.7839 70.412V65.3718C18.3937 67.0396 19.3836 68.5424 20.6752 69.7612L20.6786 76.974ZM25.4781 80.516C25.2272 80.3804 24.9764 80.2449 24.7324 80.1025C23.4419 79.3687 22.2437 78.4835 21.1632 77.4655V70.2154C22.19 71.1298 23.3088 71.9352 24.5019 72.6185C24.8205 72.8015 25.1459 72.9778 25.4781 73.1507V80.516ZM30.281 82.4955C28.7977 82.0372 27.3546 81.4579 25.9662 80.7635V73.3981C27.3568 74.0775 28.7997 74.6442 30.281 75.0928V82.4955ZM35.7991 83.736C34.0973 83.493 32.4152 83.1283 30.7657 82.6446V75.2352C32.416 75.7135 34.0979 76.0748 35.7991 76.3164V83.736ZM41.3104 84.1428C39.6295 84.132 37.9509 84.0188 36.2838 83.8038V76.3775C37.9508 76.5925 39.6295 76.7057 41.3104 76.7164V84.1428ZM46.8217 83.8038C45.1559 84.0206 43.4783 84.1338 41.7985 84.1428V76.7198C43.4778 76.7146 45.1554 76.6071 46.8217 76.3978V83.8038ZM52.3398 82.6649C50.6914 83.1449 49.0103 83.504 47.3098 83.7394V76.3334C49.0093 76.0988 50.6902 75.7443 52.3398 75.2725V82.6649ZM57.1427 80.794C55.754 81.487 54.3109 82.0651 52.8278 82.5226V75.1301C54.3081 74.6787 55.7508 74.112 57.1427 73.4354V80.794ZM61.9456 77.5095C60.8855 78.5078 59.7101 79.376 58.4442 80.0957C58.1765 80.2516 57.9087 80.4008 57.6308 80.5465V73.1981C57.9968 73.0117 58.3561 72.8185 58.7018 72.6151C59.8608 71.9508 60.9479 71.1681 61.9456 70.2798V77.5095ZM65.3012 70.5408C65.3012 72.8388 64.2843 75.0488 62.4303 77.0181V69.8324C63.6859 68.6469 64.657 67.1926 65.2707 65.5785C65.2707 65.548 65.2978 65.5175 65.3079 65.487L65.3012 70.5408ZM59.1289 71.7915C58.9086 71.9304 58.6883 72.066 58.451 72.2016C58.2137 72.3372 57.9833 72.4626 57.746 72.5914C53.3397 74.964 47.6623 76.2419 41.6188 76.2419C35.2466 76.2419 29.2506 74.8081 24.7392 72.2016C20.2277 69.5951 17.8009 66.1853 17.7941 62.5517C17.7873 58.9182 20.2277 55.5321 24.6544 52.9595C29.1387 50.353 35.1212 48.9158 41.4934 48.9158C47.8656 48.9158 53.8447 50.3496 58.3493 52.9493C62.854 55.5491 65.3079 58.969 65.3147 62.606C65.3181 66.0293 63.1421 69.2663 59.1289 71.7847V71.7915Z" fill="#544A00"/>
<path d="M65.5757 52.1181V60.0122C65.5757 63.5509 63.2437 67.0793 58.6001 69.7807C49.2519 75.2039 34.05 75.2039 24.6408 69.7807C19.9193 67.0522 17.5602 63.4695 17.5703 59.8902V51.9961C17.5703 55.5754 19.9193 59.1581 24.6408 61.8832C34.05 67.3064 49.2519 67.3064 58.6001 61.8832C63.2437 59.1852 65.5655 55.6534 65.5757 52.1181Z" fill="#F7C800"/>
<g opacity="0.15">
<path d="M17.5703 52.0469C17.5703 55.6092 19.943 59.1817 24.6408 61.9001C34.0432 67.3233 49.2451 67.3233 58.5933 61.9001C63.2369 59.1885 65.5621 55.6668 65.5722 52.1316V55.1313C65.518 58.6225 63.1996 62.1035 58.6035 64.7642C49.2552 70.1874 34.0534 70.1874 24.651 64.7642C19.943 62.0526 17.5805 58.4801 17.5805 54.911" fill="#544A00"/>
</g>
<path d="M58.4807 42.2158C67.8899 47.639 67.9374 56.4517 58.5926 61.8749C49.2477 67.298 34.0425 67.298 24.6333 61.8749C15.2241 56.4517 15.1969 47.639 24.5418 42.2158C33.8866 36.7926 49.0918 36.7926 58.4807 42.2158Z" fill="#FEE425"/>
<path opacity="0.15" d="M41.6521 64.7657C35.89 64.7657 30.4668 63.5217 26.3452 61.2677C21.9388 58.8612 19.5391 55.5801 19.5391 52.0246C19.5391 48.469 21.9117 45.2456 26.2604 42.873C30.3278 40.6189 35.751 39.375 41.5131 39.375C47.2752 39.375 52.6984 40.6189 56.8065 42.873C61.1891 45.2456 63.6092 48.5368 63.616 52.0957C63.6227 55.6547 61.2433 58.8984 56.8946 61.2813C52.8204 63.5217 47.4074 64.7657 41.6521 64.7657Z" fill="#544A00"/>
<path d="M55.379 60.0292C47.834 64.4355 35.4759 64.4355 27.8495 60.0292C20.2232 55.6228 20.1961 48.4812 27.7682 44.0986C35.3403 39.716 47.6747 39.6923 55.2976 44.0986C62.9206 48.5049 62.9511 55.65 55.379 60.0292Z" fill="#F7C800"/>
<g opacity="0.4">
<path d="M55.3732 60.0282C47.8282 64.4346 35.4701 64.4346 27.8438 60.0282L55.2986 44.0977C62.9182 48.4803 62.9453 55.649 55.3732 60.0282Z" fill="white"/>
</g>
<path d="M55.416 43.8914C51.6876 41.7357 46.7525 40.5527 41.5191 40.5527C36.2858 40.5527 31.3507 41.7357 27.6528 43.8914C23.9548 46.0471 21.8906 48.9349 21.8906 52.0262C21.8906 55.1174 23.9718 58.0561 27.751 60.2389C31.4795 62.3946 36.418 63.5775 41.6683 63.5775C46.9186 63.5775 51.8367 62.3946 55.5245 60.2389C59.2529 58.0798 61.3104 55.1852 61.307 52.0872C61.3036 48.9892 59.1919 46.0573 55.416 43.8914ZM55.2533 59.822C51.6402 61.9336 46.8067 63.0962 41.6412 63.0962C36.4756 63.0962 31.6218 61.9336 27.968 59.822C24.3141 57.7103 22.3516 54.9615 22.3516 52.0262C22.3516 49.0909 24.3175 46.3793 27.8866 44.3117C31.5134 42.2 36.3603 41.0374 41.509 41.0374C46.6576 41.0374 51.5215 42.2 55.1754 44.3117C58.8293 46.4233 60.7884 49.1519 60.7918 52.0872C60.7952 55.0225 58.8293 57.751 55.2533 59.8186V59.822Z" fill="#544A00"/>
<path d="M65.815 52.1203V52.0864C65.815 48.2665 63.2492 44.6872 58.6056 42.0061C54.0298 39.3623 47.9592 37.9082 41.509 37.9082C35.0588 37.9082 28.9679 39.3691 24.4226 42.0163C19.8773 44.6635 17.3047 48.2394 17.3047 52.0322C17.3047 52.0322 17.3047 52.0492 17.3047 52.0593V59.8924C17.3047 63.7225 19.8502 67.3086 24.4972 69.9931C29.0865 72.6403 35.1639 74.1012 41.6243 74.1012C48.0846 74.1012 54.145 72.6403 58.7005 69.9931C63.256 67.3459 65.7879 63.7937 65.7981 60.0178V52.1203H65.815ZM20.6908 66.4545C18.7961 64.4615 17.7894 62.221 17.7962 59.8924V54.8523C18.4044 56.5249 19.393 58.0334 20.684 59.2586L20.6908 66.4545ZM25.4937 69.9829C25.2429 69.8474 24.992 69.7118 24.7446 69.5694C23.4559 68.8452 22.2588 67.969 21.1789 66.9595V59.6958C22.2036 60.6118 23.3227 61.4162 24.5175 62.0956C24.8327 62.282 25.1615 62.4583 25.4937 62.6277V69.9829ZM30.2966 71.9624C28.8134 71.5038 27.3704 70.9245 25.9818 70.2304V62.8718C27.3731 63.5497 28.8158 64.1164 30.2966 64.5665V71.9624ZM35.8147 73.203C34.1125 72.9608 32.4303 72.5949 30.7813 72.1081V64.7157C32.4313 65.1944 34.1133 65.5546 35.8147 65.7935V73.203ZM41.326 73.6063C39.6451 73.5973 37.9663 73.4841 36.2994 73.2673V65.8579C37.9665 66.073 39.6451 66.1862 41.326 66.1969V73.6063ZM46.8373 73.2673C45.1717 73.4857 43.4939 73.5989 41.8141 73.6063V66.2003C43.4938 66.1894 45.1713 66.0762 46.8373 65.8613V73.2673ZM52.352 72.1285C50.7044 72.6068 49.0245 72.9659 47.3254 73.203V65.8139C49.0238 65.5789 50.7035 65.2244 52.352 64.7529V72.1285ZM57.1583 70.2575C55.7691 70.9494 54.3261 71.5275 52.8435 71.9861V64.6106C54.3241 64.16 55.7668 63.5933 57.1583 62.9159V70.2575ZM61.9612 66.9731C60.8999 67.9699 59.7247 68.838 58.4598 69.5593C58.1921 69.7152 57.9209 69.8643 57.6464 70.01V62.6786C58.009 62.4922 58.3683 62.299 58.7175 62.0956C59.8762 61.4296 60.9632 60.6459 61.9612 59.7568V66.9731ZM65.3168 60.0043C65.3168 62.3024 64.2999 64.5123 62.4459 66.4782V59.306C63.7004 58.1197 64.6713 56.6657 65.2863 55.0522C65.2863 55.0217 65.31 54.9912 65.3236 54.9607L65.3168 60.0043ZM59.1445 61.2652C58.9242 61.4041 58.7005 61.5397 58.4666 61.6753C58.2328 61.8109 58.0023 61.9363 57.765 62.0651C53.3587 64.4377 47.6779 65.7156 41.6344 65.7156C35.2656 65.7156 29.2696 64.2818 24.7548 61.6753C20.24 59.0688 17.8165 55.6657 17.8097 52.0458C17.8029 48.4258 20.24 45.0261 24.67 42.4535C29.1543 39.847 35.1334 38.4099 41.509 38.4099C47.8846 38.4099 53.8603 39.8402 58.3616 42.44C62.8628 45.0397 65.3236 48.4631 65.3303 52.1C65.3337 55.5098 63.1441 58.7468 59.1445 61.2652Z" fill="#544A00"/>
<path d="M61.6689 52.2612H69.563C73.1016 52.2612 76.6301 49.9292 79.3315 45.2856C84.7547 35.9374 84.7547 20.7356 79.3315 11.3264C76.6199 6.60481 73.0203 4.24572 69.441 4.25589H61.5469C65.1262 4.25589 68.7089 6.60481 71.434 11.3298C76.8572 20.7356 76.8572 35.9374 71.434 45.2856C68.736 49.9292 65.2041 52.251 61.6689 52.2612Z" fill="#F7C800"/>
<g opacity="0.15">
<path d="M61.5859 4.25195C65.1483 4.25195 68.7039 6.62459 71.4392 11.3224C76.8624 20.7249 76.8624 35.9267 71.4392 45.2749C68.7276 49.9185 65.2059 52.2437 61.6707 52.2539H64.6704C68.1615 52.1996 71.6426 49.8812 74.3033 45.2851C79.7265 35.9369 79.7265 20.735 74.3033 11.3326C71.5849 6.62459 68.0192 4.25195 64.4501 4.25195" fill="#544A00"/>
</g>
<path d="M51.7809 11.2337C57.204 1.88883 66.0167 1.93967 71.4399 11.3286C76.8631 20.7174 76.8631 35.9362 71.4399 45.2845C66.0167 54.6327 57.204 54.5818 51.7809 45.1726C46.3577 35.7634 46.3509 20.5819 51.7809 11.2337Z" fill="#FEE425"/>
<path opacity="0.15" d="M74.3282 28.3396C74.3282 22.5775 73.0842 17.1543 70.8302 13.0327C68.4237 8.62632 65.1426 6.22656 61.5871 6.22656C58.0315 6.22656 54.8081 8.5992 52.4355 12.9479C50.1814 17.0153 48.9375 22.4385 48.9375 28.2006C48.9375 33.9627 50.1814 39.3859 52.4355 43.494C54.8081 47.8766 58.0993 50.2967 61.6582 50.3035C65.2172 50.3102 68.4609 47.9308 70.8438 43.5821C73.074 39.5046 74.3282 34.0814 74.3282 28.3396Z" fill="#544A00"/>
<path d="M69.5858 42.0684C73.9922 34.5234 73.9922 22.1653 69.5858 14.539C65.1795 6.91265 58.0378 6.88554 53.6552 14.4577C49.2726 22.0298 49.2489 34.3641 53.6552 41.9905C58.0616 49.6168 65.2032 49.6405 69.5858 42.0684Z" fill="#F7C800"/>
<g opacity="0.4">
<path d="M69.5868 42.0685C73.9932 34.5235 73.9932 22.1654 69.5868 14.5391L53.6562 41.9939C58.0355 49.6135 65.2042 49.6406 69.5868 42.0685Z" fill="white"/>
</g>
<path d="M61.636 47.9786C64.734 47.9786 67.6286 45.9449 69.7877 42.1961C71.9434 38.5118 73.1264 33.5902 73.1264 28.3399C73.1264 23.0896 71.9536 18.1511 69.7877 14.4227C67.6049 10.6434 64.6865 8.56226 61.575 8.56226C58.4634 8.56226 55.5959 10.6129 53.4402 14.3413C51.2845 18.0698 50.1016 22.9642 50.1016 28.2077C50.1016 33.4513 51.2845 38.3762 53.4402 42.1046C55.5959 45.8331 58.5177 47.9786 61.636 47.9786ZM61.636 47.4905C58.7007 47.4905 55.9383 45.4907 53.8605 41.8741C51.7827 38.2576 50.5998 33.3631 50.5998 28.2009C50.5998 23.0388 51.7624 18.2053 53.8741 14.5786C55.9417 11.0095 58.6804 9.04356 61.5885 9.04356C64.4967 9.04356 67.2863 11.04 69.3844 14.6599C71.4825 18.2799 72.6315 23.1676 72.6315 28.3196C72.6315 33.4716 71.4689 38.322 69.3572 41.9318C67.2456 45.5416 64.5543 47.4871 61.636 47.4837V47.4905Z" fill="#544A00"/>
<path d="M61.6731 52.507L69.5706 52.49C73.3465 52.49 76.8919 49.9615 79.5458 45.3925C82.1998 40.8234 83.6539 34.7596 83.6539 28.3196C83.6539 21.8796 82.193 15.7785 79.5458 11.1925C76.8614 6.54554 73.2753 3.98986 69.4452 4.00003L61.6121 4.01698H61.5849C57.7921 4.01698 54.2331 6.53537 51.569 11.118C48.9049 15.7005 47.4609 21.744 47.4609 28.2044C47.4609 34.6647 48.9184 40.7251 51.5588 45.3009C54.2399 49.9445 57.8192 52.507 61.6392 52.5104H61.6731V52.507ZM68.791 7.37935C67.5706 6.09055 66.0682 5.10208 64.4016 4.4915H69.4418C71.7703 4.4915 74.0108 5.4914 76.0038 7.38613L68.791 7.37935ZM72.1805 12.1823C72.011 11.8433 71.8415 11.5213 71.6483 11.2061C70.969 10.0113 70.1645 8.89215 69.2486 7.86744H76.4953C77.5115 8.94698 78.3935 10.1454 79.1222 11.4366C79.2645 11.6806 79.4001 11.9314 79.5357 12.1823H72.1805ZM74.126 16.9852C73.6759 15.5044 73.1092 14.0616 72.4313 12.6703H79.7899C80.484 14.0589 81.0633 15.502 81.5219 16.9852H74.126ZM75.3463 22.5032C75.1072 20.8031 74.747 19.1221 74.2684 17.4732H81.6609C82.1476 19.1222 82.5135 20.8045 82.7557 22.5066L75.3463 22.5032ZM75.753 28.0146C75.7423 26.3337 75.6291 24.655 75.4141 22.9879H82.8031C83.0199 24.6549 83.1331 26.3336 83.1421 28.0146H75.753ZM75.4141 33.5259C75.629 31.8599 75.7421 30.1824 75.753 28.5026H83.159C83.1516 30.1825 83.0384 31.8602 82.8201 33.5259H75.4141ZM74.2921 39.0406C74.7639 37.3922 75.1184 35.7124 75.353 34.0139H82.7523C82.5168 35.7134 82.1577 37.3934 81.6778 39.0406H74.2921ZM72.4618 43.8469C73.1393 42.4554 73.706 41.0126 74.1565 39.532H81.549C81.0904 41.0147 80.5123 42.4577 79.8204 43.8469H72.4618ZM69.3096 48.6565C70.1994 47.6592 70.9832 46.5721 71.6483 45.4128C71.8517 45.0738 72.0449 44.7044 72.2313 44.3417H79.573C79.4272 44.6163 79.2781 44.8874 79.1222 45.1552C78.4017 46.4206 77.5336 47.5959 76.536 48.6565H69.3096ZM64.4999 52.0121L64.5914 51.9748C66.2049 51.3599 67.6589 50.389 68.8452 49.1345H76.0309C74.0616 50.9987 71.8517 51.9986 69.5536 52.0054L64.4999 52.0121ZM61.6256 52.0121C57.9887 52.0121 54.5585 49.531 51.9656 45.0433C49.3726 40.5557 47.9355 34.5563 47.9355 28.1908C47.9355 21.8253 49.3726 15.8361 51.9791 11.3518C54.5517 6.92177 57.9582 4.48812 61.5714 4.4915C65.1846 4.49489 68.6283 6.96583 71.2145 11.44C73.8007 15.9141 75.2547 21.9474 75.2547 28.3196C75.2547 34.3665 73.9633 40.054 71.6043 44.4502C71.4755 44.6874 71.3467 44.9247 71.2145 45.1518C71.0823 45.3789 70.9433 45.606 70.8043 45.8297C68.2995 49.8327 65.0626 52.0223 61.6392 52.0189L61.6256 52.0121Z" fill="#544A00"/>
<path d="M108.951 84.996C101.406 89.4023 89.0449 89.4023 81.4186 84.996C73.7922 80.5897 73.7685 73.448 81.3372 69.0654C88.906 64.6828 101.244 64.6591 108.87 69.0654C116.496 73.4717 116.52 80.6168 108.951 84.996Z" fill="#F7C800"/>
<g opacity="0.4">
<path d="M108.955 84.997C101.41 89.4033 89.0482 89.4033 81.4219 84.997L108.877 69.0664C116.5 73.449 116.523 80.6178 108.955 84.997Z" fill="white"/>
</g>
<path d="M95.7921 69.0966L97.8461 70.283C99.9171 71.4795 101.697 72.6861 100.724 74.13L95.1142 70.8897L92.1043 71.2286L99.1308 75.296C97.8428 76.0451 94.7651 76.5739 91.1926 74.5097L89.4673 73.5131L87.7726 74.4893L86.1016 83.4816L89.1928 85.2645L90.9282 75.9536C94.0364 77.5704 98.4291 78.2178 101.707 76.7704L103.917 78.0483L106.927 77.7093L103.473 75.7163C103.998 75.3247 104.353 74.7457 104.462 74.0995L107.604 75.9129L110.614 75.574L98.7884 68.7441L95.7921 69.0966Z" fill="#544A00"/>
<path d="M108.999 68.8582C105.27 66.7025 100.335 65.5195 95.102 65.5195C89.8686 65.5195 84.9335 66.7025 81.2356 68.8582C77.5377 71.0139 75.4531 73.9017 75.4531 76.993C75.4531 80.0842 77.5343 83.0228 81.3135 85.2057C85.042 87.3614 89.9839 88.5443 95.2308 88.5443C100.478 88.5443 105.399 87.3614 109.09 85.2057C112.782 83.05 114.873 80.152 114.869 77.0506C114.866 73.9492 112.771 71.0241 108.999 68.8582ZM108.833 84.7888C105.223 86.9004 100.386 88.063 95.2206 88.063C90.055 88.063 85.2013 86.9004 81.5474 84.7888C77.8935 82.6771 75.931 79.9282 75.931 76.993C75.931 74.0577 77.8969 71.3461 81.4695 69.2785C85.042 67.2109 89.9432 66.0042 95.0918 66.0042C100.24 66.0042 105.101 67.1668 108.755 69.2785C112.409 71.3901 114.368 74.1187 114.371 77.054C114.375 79.9893 112.409 82.7178 108.833 84.7854V84.7888Z" fill="#544A00"/>
<path d="M119.154 66.5673V74.4614C119.154 77.9967 116.818 81.5285 112.175 84.2266C102.83 89.6498 87.6282 89.6498 78.2189 84.2266C73.4974 81.515 71.1383 77.9187 71.1485 74.3394V66.4453C71.1485 70.0246 73.4974 73.6073 78.2189 76.3324C87.6282 81.7556 102.83 81.7556 112.175 76.3324C116.818 73.6412 119.144 70.1026 119.154 66.5673Z" fill="#F7C800"/>
<g opacity="0.15">
<path d="M71.1562 66.4785C71.1562 70.0409 73.5289 73.5964 78.2301 76.3318C87.6326 81.7549 102.834 81.7549 112.183 76.3318C116.826 73.6202 119.151 70.0985 119.158 66.5633V69.563C119.101 73.0541 116.786 76.5317 112.189 79.1959C102.841 84.6191 87.6393 84.6191 78.2369 79.1959C73.5255 76.4843 71.163 72.9118 71.163 69.3392" fill="#544A00"/>
</g>
<path d="M112.067 56.6618C121.472 62.085 121.523 70.8977 112.175 76.3208C102.827 81.744 87.6284 81.744 78.2192 76.3208C68.81 70.8977 68.7829 62.085 78.1277 56.6618C87.4725 51.2386 102.678 51.242 112.067 56.6618Z" fill="#FEE425"/>
<path opacity="0.15" d="M95.2268 79.2129C89.4647 79.2129 84.0415 77.969 79.9233 75.715C75.5169 73.3084 73.1172 70.024 73.1172 66.4718C73.1172 62.9197 75.4898 59.6929 79.8385 57.3202C83.9059 55.0662 89.3291 53.8223 95.0912 53.8223C100.853 53.8223 106.277 55.0662 110.385 57.3202C114.767 59.6929 117.187 62.9841 117.191 66.543C117.194 70.102 114.818 73.3457 110.473 75.7251C106.399 77.969 100.982 79.2129 95.2268 79.2129Z" fill="#544A00"/>
<path d="M108.965 74.4745C101.42 78.8808 89.0618 78.8808 81.4355 74.4745C73.8091 70.0682 73.782 62.9265 81.3541 58.5439C88.9262 54.1613 101.257 54.1376 108.884 58.5439C116.51 62.9502 116.523 70.0919 108.965 74.4745Z" fill="#F7C800"/>
<g opacity="0.4">
<path d="M108.959 74.4755C101.414 78.8818 89.056 78.8818 81.4297 74.4755L108.885 58.5449C116.518 62.9275 116.518 70.0929 108.959 74.4755Z" fill="white"/>
</g>
<path d="M95.8077 58.5738L97.8652 59.7602C99.9361 60.9567 101.716 62.1599 100.743 63.6072L95.1298 60.3669L92.12 60.7058L99.1498 64.7732C97.8618 65.5189 94.7841 66.0477 91.2116 63.9869L89.4829 62.97L87.7882 63.9496L86.1172 72.9419L89.2084 74.7248L90.9472 65.4138C94.052 67.0272 98.4448 67.678 101.726 66.2307L103.949 67.539L106.959 67.2001L103.505 65.2037C104.03 64.8124 104.384 64.2349 104.495 63.5903L107.637 65.4037L110.647 65.0647L98.8176 58.2383L95.8077 58.5738Z" fill="#544A00"/>
<path d="M109.01 58.3347C105.282 56.1824 100.346 54.9961 95.113 54.9961C89.8797 54.9961 84.9446 56.1824 81.2467 58.3347C77.5487 60.4871 75.4642 63.3817 75.4845 66.4695C75.5049 69.5573 77.5657 72.4994 81.3449 74.6822C85.0734 76.8346 90.0119 78.0209 95.2622 78.0209C100.513 78.0209 105.431 76.8346 109.118 74.6822C112.806 72.5299 114.904 69.6285 114.901 66.5271C114.897 63.4257 112.799 60.504 109.01 58.3347ZM108.847 74.2653C105.234 76.377 100.401 77.5396 95.2351 77.5396C90.0695 77.5396 85.2124 76.377 81.5619 74.2653C77.9114 72.1537 75.9455 69.4048 75.9421 66.4695C75.9387 63.5342 77.908 60.8192 81.4805 58.755C85.1073 56.6434 89.9542 55.4808 95.1029 55.4808C100.252 55.4808 105.115 56.6434 108.766 58.755C112.416 60.8667 114.382 63.5952 114.386 66.5271C114.389 69.459 112.423 72.1977 108.847 74.2653Z" fill="#544A00"/>
<path d="M119.401 66.5666V66.5225C119.401 62.7059 116.835 59.1266 112.192 56.4456C107.616 53.8018 101.542 52.3477 95.095 52.3477C88.6482 52.3477 82.5539 53.8051 78.0086 56.4557C73.4632 59.1063 70.8906 62.6788 70.8906 66.4717V66.5225V74.3556C70.8906 78.1857 73.4361 81.7718 78.0831 84.4529C82.6725 87.1035 88.7498 88.5609 95.2068 88.5609C101.664 88.5609 107.728 87.1035 112.283 84.4529C116.839 81.8023 119.374 78.2569 119.384 74.4776V66.5835L119.401 66.5666ZM74.2767 80.9007C72.382 78.9077 71.3753 76.6672 71.3821 74.3387V69.2985C71.9916 70.9646 72.9802 72.4662 74.2699 73.6845L74.2767 80.9007ZM79.0762 84.4292C78.8254 84.2902 78.5746 84.158 78.3306 84.0156C77.0412 83.2842 75.8431 82.4024 74.7614 81.3888V74.1387C75.7864 75.0553 76.9055 75.8608 78.1001 76.5418C78.4187 76.7249 78.7441 76.9011 79.0762 77.074V84.4292ZM83.8791 86.4086C82.4008 85.9489 80.9623 85.3697 79.5779 84.6766V77.318C80.9682 77.9954 82.4099 78.5621 83.8893 79.0128L83.8791 86.4086ZM89.4074 87.6458C87.7064 87.4048 86.0253 87.04 84.3774 86.5544V79.1619C86.0265 79.6394 87.7074 79.9996 89.4074 80.2398V87.6458ZM94.9187 88.0525C93.239 88.0418 91.5614 87.9286 89.8955 87.7136V80.3042C91.5615 80.5191 93.239 80.6323 94.9187 80.6431V88.0525ZM100.43 87.7136C98.7654 87.9303 97.0889 88.0435 95.4102 88.0525V80.6465C97.0888 80.6357 98.7652 80.5225 100.43 80.3075V87.7136ZM105.948 86.5747C104.301 87.053 102.621 87.4121 100.921 87.6492V80.2567C102.62 80.0245 104.3 79.6711 105.948 79.1992V86.5747ZM110.751 84.7037C109.363 85.3971 107.92 85.9741 106.436 86.429V79.0636C107.918 78.6157 109.361 78.049 110.751 77.3689V84.7037ZM115.554 81.4159C114.495 82.4165 113.319 83.2859 112.053 84.0055C111.788 84.1614 111.517 84.3105 111.242 84.4563V77.1248C111.605 76.935 111.964 76.7452 112.314 76.5418C113.472 75.8767 114.558 75.0929 115.554 74.2031V81.4159ZM118.91 74.4505C118.91 76.7486 117.893 78.9585 116.042 80.9244V73.7523C117.295 72.565 118.266 71.1113 118.882 69.4985C118.882 69.4646 118.906 69.4375 118.916 69.4036L118.91 74.4505ZM112.741 75.7012C112.52 75.8368 112.297 75.9758 112.063 76.108C111.829 76.2402 111.595 76.3724 111.358 76.5012C106.951 78.8568 101.274 80.1516 95.2305 80.1516C88.8583 80.1516 82.8657 78.7179 78.3509 76.1114C73.8361 73.5048 71.4058 70.1018 71.4024 66.4683C71.3991 62.8347 73.8327 59.4486 78.2594 56.8726C82.7471 54.2661 88.7261 52.8324 95.1017 52.8324C101.477 52.8324 107.45 54.2627 111.954 56.8625C116.459 59.4622 118.896 62.8924 118.913 66.5225C118.92 69.9527 116.727 73.193 112.73 75.7114L112.741 75.7012Z" fill="#544A00"/>
<path d="M119.173 56.0425V63.94C119.173 67.4752 116.837 71.0071 112.194 73.7051C102.846 79.1283 87.6438 79.1283 78.238 73.7051C73.5164 70.9935 71.1539 67.3972 71.1641 63.8179V55.9238C71.1641 59.4997 73.5164 63.0824 78.238 65.811C87.6438 71.2341 102.846 71.2341 112.194 65.811C116.837 63.1129 119.163 59.5811 119.173 56.0425Z" fill="#F7C800"/>
<g opacity="0.15">
<path d="M71.1562 55.9609C71.1562 59.5233 73.5289 63.0789 78.2267 65.8142C87.6326 71.2374 102.834 71.2374 112.179 65.8142C116.823 63.1026 119.151 59.5809 119.158 56.0457V59.0454C119.101 62.5365 116.786 66.0142 112.186 68.6783C102.841 74.1015 87.6393 74.1015 78.2335 68.6783C73.5255 65.9667 71.163 62.3942 71.163 58.8217" fill="#544A00"/>
</g>
<path d="M112.079 46.1423C121.488 51.5655 121.539 60.3781 112.191 65.8013C102.843 71.2245 87.6407 71.2245 78.2349 65.8013C68.829 60.3781 68.7951 51.5655 78.1433 46.1423C87.4915 40.7191 102.69 40.7225 112.079 46.1423Z" fill="#FEE425"/>
<path d="M95.2424 68.6936C89.4803 68.6936 84.0571 67.4497 79.9389 65.1923C75.5495 62.7959 73.1328 59.5047 73.1328 55.9525C73.1328 52.4004 75.5054 49.1736 79.8542 46.8009C83.9419 44.5469 89.3447 43.303 95.1069 43.303C100.869 43.303 106.292 44.5435 110.4 46.8009C114.783 49.1736 117.2 52.4648 117.206 56.0237C117.213 59.5827 114.834 62.8264 110.485 65.2058C106.411 67.4497 100.998 68.6936 95.2424 68.6936Z" fill="#141414"/>
<path d="M108.981 63.955C101.436 68.3613 89.0775 68.3613 81.4511 63.955C73.8248 59.5486 73.7976 52.407 81.3698 48.0244C88.9419 43.6418 101.273 43.618 108.899 48.0244C116.526 52.4307 116.553 59.5724 108.981 63.955Z" fill="#F7C800"/>
<g opacity="0.4">
<path d="M108.983 63.9521C101.438 68.3584 89.0795 68.3584 81.4531 63.9521L108.908 48.0215C116.528 52.4041 116.555 59.5695 108.983 63.9521Z" fill="white"/>
</g>
<path d="M95.8176 48.0542L97.8784 49.2371C99.9494 50.4336 101.729 51.6403 100.756 53.0876L95.1465 49.8472L92.1366 50.1862L99.163 54.2536C97.8784 54.9993 94.8008 55.528 91.2249 53.4638L89.4996 52.4673L87.8049 53.4469L86.1406 62.4561L89.2318 64.2424L90.9673 54.9315C94.0754 56.5449 98.4682 57.1923 101.746 55.7483L103.956 57.0228L106.966 56.6838L103.512 54.6874C104.037 54.2966 104.391 53.7189 104.501 53.074L107.644 54.8874L110.653 54.5485L98.8275 47.7051L95.8176 48.0542Z" fill="#544A00"/>
<path d="M109.015 47.8133C105.286 45.6609 100.351 44.4746 95.1176 44.4746C89.8842 44.4746 84.9492 45.6609 81.2512 47.8133C77.5533 49.9656 75.4688 52.8602 75.4688 55.948C75.4688 59.0359 77.5397 61.9813 81.3224 64.1506C85.0508 66.3029 89.9893 67.4892 95.2396 67.4892C100.49 67.4892 105.408 66.3029 109.096 64.1506C112.784 61.9983 114.882 59.0935 114.858 55.9955C114.834 52.8975 112.79 49.9825 109.015 47.8133ZM108.852 63.7439C105.239 65.8521 100.405 67.0147 95.2396 67.0147C90.0741 67.0147 85.2169 65.8521 81.5664 63.7439C77.916 61.6356 75.9467 58.8799 75.9467 55.948C75.9467 53.0161 77.9126 50.3011 81.4851 48.2369C85.1085 46.1253 89.9588 44.9627 95.1074 44.9627C100.256 44.9627 105.117 46.1253 108.77 48.2369C112.424 50.3486 114.383 53.0771 114.387 56.0158C114.39 58.9545 112.428 61.6729 108.852 63.7439Z" fill="#544A00"/>
<path d="M119.409 56.0461C119.409 56.0461 119.409 56.0224 119.409 56.0088C119.409 52.1923 116.843 48.613 112.196 45.9319C107.62 43.2881 101.55 41.834 95.0994 41.834C88.6492 41.834 82.5752 43.2915 78.0164 45.942C73.4575 48.5926 70.8984 52.1618 70.8984 55.958V55.9851L70.9018 63.8114C70.9018 67.6382 73.4473 71.2276 78.0977 73.9087C82.6837 76.5559 88.7644 78.0168 95.2214 78.0168C101.678 78.0168 107.742 76.5559 112.298 73.9087C116.853 71.2615 119.388 67.7127 119.395 63.9334V56.0393L119.409 56.0461ZM74.2879 70.3803C72.3932 68.3872 71.3865 66.1434 71.3899 63.8182V58.778C72.0007 60.4443 72.9905 61.9459 74.2812 63.164L74.2879 70.3803ZM79.0874 73.9053C78.8366 73.7697 78.5858 73.6376 78.3418 73.4952C77.0513 72.7654 75.853 71.8835 74.7726 70.8683V63.6182C75.7964 64.5364 76.9156 65.342 78.1113 66.0214C78.4299 66.2044 78.7553 66.3807 79.0874 66.5535V73.9053ZM83.8904 75.8882C82.4073 75.4279 80.9643 74.8475 79.5755 74.1528V66.7976C80.9668 67.4755 82.4096 68.0422 83.8904 68.4923V75.8882ZM89.405 77.1253C87.703 76.8843 86.0207 76.5195 84.3717 76.0339V68.6414C86.022 69.1186 87.704 69.4788 89.405 69.7193V77.1253ZM94.9164 77.5321C93.2355 77.5213 91.5568 77.4081 89.8897 77.1931V69.7837C91.557 69.9971 93.2355 70.1103 94.9164 70.1226V77.5321ZM100.428 77.1931C98.7617 77.4081 97.0842 77.5213 95.4044 77.5321V70.126C97.0842 70.1153 98.7617 70.0021 100.428 69.7871V77.1931ZM105.946 76.0509C104.302 76.5347 102.626 76.8983 100.929 77.1389V69.7362C102.629 69.5016 104.31 69.1471 105.959 68.6753L105.946 76.0509ZM110.759 74.1934C109.37 74.8848 107.927 75.4618 106.444 75.9187V68.533C107.925 68.0922 109.368 67.5334 110.759 66.862V74.1934ZM115.562 70.9056C114.501 71.9044 113.326 72.7736 112.06 73.4952C111.793 73.6511 111.525 73.8002 111.247 73.946V66.6044C111.613 66.4146 111.972 66.2214 112.318 66.0214C113.477 65.3559 114.564 64.5721 115.562 63.6826V70.9056ZM118.917 63.9368C118.917 66.2349 117.9 68.4449 116.046 70.4141V63.2318C117.304 62.0465 118.277 60.5924 118.894 58.978C118.894 58.9441 118.921 58.917 118.931 58.8831L118.917 63.9368ZM112.745 65.1909C112.525 65.3265 112.304 65.4655 112.067 65.5977C111.83 65.7299 111.599 65.8621 111.362 65.9909C106.956 68.3466 101.278 69.6413 95.235 69.6413C88.8627 69.6413 82.8667 68.2042 78.3553 65.6011C73.8439 62.9979 71.4103 59.5915 71.4035 55.9546C71.3967 52.3177 73.8337 48.935 78.2638 46.3623C82.7481 43.7558 88.7305 42.3221 95.1028 42.3221C101.475 42.3221 107.454 43.7524 111.955 46.3522C116.457 48.9519 118.917 52.3719 118.924 56.0088C118.927 59.4322 116.738 62.6692 112.738 65.1909H112.745Z" fill="#544A00"/>
<path d="M119.177 45.5087V53.4062C119.177 56.9415 116.842 60.4733 112.202 63.1714C102.853 68.5945 87.6516 68.5945 78.2424 63.1714C73.5208 60.4598 71.1617 56.8635 71.1719 53.2842V45.3867C71.1719 48.966 73.5208 52.5487 78.2424 55.2772C87.6516 60.7004 102.853 60.7004 112.202 55.2772C116.859 52.5894 119.167 49.0609 119.177 45.5087Z" fill="#F7C800"/>
<g opacity="0.15">
<path d="M71.1719 45.4336C71.1719 48.9993 73.5445 52.5685 78.2423 55.2902C87.6448 60.7134 102.847 60.7134 112.195 55.2902C116.838 52.5786 119.164 49.057 119.17 45.5217V48.518C119.113 52.0126 116.798 55.4902 112.202 58.151C102.853 63.5741 87.6516 63.5741 78.2491 58.151C73.5377 55.4394 71.1787 51.8702 71.1787 48.2977" fill="#544A00"/>
</g>
<path d="M112.09 35.6221C121.499 41.0453 121.547 49.8579 112.202 55.2811C102.857 60.7043 87.6519 60.7043 78.2427 55.2811C68.8334 49.8579 68.8063 41.0453 78.1511 35.6221C87.496 30.1989 102.701 30.1989 112.09 35.6221Z" fill="#FEE425"/>
<path opacity="0.15" d="M95.2526 58.168C89.4905 58.168 84.0673 56.9274 79.9491 54.67C75.5597 52.2669 73.1328 48.9825 73.1328 45.4269C73.1328 41.8713 75.5054 38.6479 79.8542 36.2753C83.9385 34.0179 89.3447 32.7773 95.1069 32.7773C100.869 32.7773 106.292 34.0179 110.4 36.2753C114.783 38.6479 117.203 41.9357 117.206 45.4947C117.21 49.0537 114.824 52.2872 110.495 54.6599C106.424 56.9241 101.011 58.168 95.2526 58.168Z" fill="#544A00"/>
<path d="M108.988 53.4315C101.443 57.8379 89.0853 57.8379 81.4589 53.4315C73.8326 49.0252 73.8055 41.8835 81.3776 37.5009C88.9497 33.1183 101.281 33.0946 108.907 37.5009C116.533 41.9073 116.56 49.0489 108.988 53.4315Z" fill="#F7C800"/>
<g opacity="0.4">
<path d="M108.983 53.4325C101.438 57.8389 89.0795 57.8389 81.4531 53.4325L108.908 37.502C116.517 41.8846 116.555 49.0499 108.983 53.4325Z" fill="white"/>
</g>
<path d="M95.8468 37.5293L97.8805 38.7292C99.9515 39.9257 101.731 41.1323 100.758 42.5797L95.1689 39.3257L92.159 39.6647L99.1888 43.7321C97.9008 44.4778 94.8232 45.0065 91.2506 42.9423L89.522 41.9458L87.8273 42.922L86.1562 51.9482L89.2441 53.7345L90.9829 44.4235C94.091 46.0369 98.4804 46.6843 101.761 45.2404L103.971 46.5149L106.981 46.1759L103.527 44.1524C104.052 43.7616 104.407 43.1839 104.517 42.539L107.659 44.3524L110.669 44.0134L98.8431 37.1836L95.8468 37.5293Z" fill="#544A00"/>
<path d="M109.025 37.2918C105.297 35.1394 100.362 33.9531 95.1285 33.9531C89.8952 33.9531 84.9601 35.1394 81.2621 37.2918C77.5642 39.4441 75.5 42.3387 75.5 45.4265C75.5 48.5144 77.5405 51.4564 81.3333 53.6427C85.0617 55.795 90.0002 56.9813 95.2505 56.9813C100.501 56.9813 105.419 55.795 109.107 53.6427C112.795 51.4903 114.893 48.5855 114.889 45.4876C114.886 42.3896 112.791 39.461 109.025 37.2918ZM108.863 53.2224C105.25 55.3306 100.416 56.4932 95.2505 56.4932C90.085 56.4932 85.2312 55.3306 81.5774 53.219C77.9235 51.1073 75.961 48.3584 75.961 45.4232C75.961 42.4879 77.9269 39.7763 81.496 37.7087C85.1228 35.6004 89.9697 34.4378 95.1184 34.4378C100.267 34.4378 105.131 35.6004 108.785 37.7121C112.439 39.8237 114.398 42.5489 114.401 45.4842C114.405 48.4195 112.452 51.1514 108.863 53.2224Z" fill="#544A00"/>
<path d="M119.423 45.5266V45.4893C119.423 41.6693 116.857 38.09 112.214 35.409C107.638 32.7685 101.567 31.3145 95.1172 31.3145C88.667 31.3145 82.5761 32.7719 78.0307 35.4225C73.4854 38.0731 70.9128 41.6422 70.9298 45.4384V45.4656V53.2987C70.9298 57.1254 73.4753 60.7149 78.1223 63.396C82.7116 66.0431 88.789 67.504 95.246 67.504C101.703 67.504 107.77 66.0431 112.326 63.396C116.881 60.7488 119.413 57.2 119.423 53.4207L119.44 45.5266H119.423ZM74.2989 59.8607C72.4042 57.8643 71.3975 55.6239 71.4043 53.2987V48.2585C72.015 49.924 73.0035 51.4253 74.2921 52.6445L74.2989 59.8607ZM79.0984 63.3858C78.8476 63.2502 78.5968 63.118 78.3528 62.9723C77.064 62.2428 75.867 61.362 74.787 60.3488V53.0987C75.8101 54.0161 76.9282 54.8217 78.1223 55.5018C78.4409 55.6849 78.7697 55.8611 79.0984 56.034V63.3858ZM83.9047 65.3686C82.4169 64.9096 80.9692 64.3292 79.5764 63.6332V56.278C80.9683 56.9545 82.4109 57.5212 83.8912 57.9728L83.9047 65.3686ZM89.4059 66.6058C87.7096 66.3603 86.0331 65.9933 84.3894 65.5076V58.1185C86.0342 58.5958 87.7105 58.9571 89.4059 59.1998V66.6058ZM94.9172 67.0125C93.2375 67 91.5601 66.8869 89.894 66.6736V59.2608C91.5599 59.4757 93.2374 59.5889 94.9172 59.5997V67.0125ZM100.428 66.6736C98.7638 66.8904 97.0873 67.0036 95.4086 67.0125V59.6065C97.0873 59.5957 98.7637 59.4826 100.428 59.2676V66.6736ZM105.947 65.5347C104.303 66.0176 102.626 66.3801 100.93 66.6194V59.2167C102.629 58.9818 104.308 58.6272 105.957 58.1558L105.947 65.5347ZM110.76 63.6739C109.372 64.3652 107.93 64.9422 106.448 65.3991V58.0135C107.928 57.5635 109.37 56.9968 110.76 56.3187V63.6739ZM115.566 60.3861C114.505 61.3848 113.328 62.253 112.061 62.9723C111.797 63.1282 111.526 63.2773 111.251 63.4231V56.0848C111.614 55.895 111.973 55.7018 112.322 55.5018C113.48 54.8347 114.567 54.051 115.566 53.1631V60.3861ZM118.922 53.4173C118.922 55.7154 117.905 57.9253 116.051 59.8946V52.7089C117.305 51.522 118.277 50.0682 118.894 48.4551L118.928 48.3636L118.922 53.4173ZM112.753 54.6612C112.532 54.8002 112.309 54.9392 112.075 55.0714C111.841 55.2036 111.61 55.3358 111.373 55.4646C106.967 57.8372 101.286 59.115 95.2426 59.115C88.8703 59.115 82.8777 57.6779 78.3629 55.0714C73.8481 52.4649 71.4179 49.0618 71.4145 45.4283C71.4111 41.7947 73.8447 38.4087 78.2714 35.836C82.7591 33.2295 88.7381 31.7924 95.1138 31.7924C101.489 31.7924 107.465 33.2261 111.966 35.8259C116.468 38.4256 118.928 41.8456 118.932 45.4825C118.942 48.8991 116.749 52.1496 112.753 54.6612Z" fill="#544A00"/>
<path d="M119.193 35.0009V42.8984C119.193 46.4337 116.857 49.9655 112.214 52.6636C102.869 58.0867 87.6638 58.0867 78.258 52.6636C73.5364 49.935 71.1774 46.3523 71.1875 42.7764V34.8789C71.1875 38.4582 73.5364 42.0409 78.258 44.766C87.6672 50.1892 102.869 50.1892 112.214 44.766C116.861 42.068 119.183 38.5362 119.193 35.0009Z" fill="#F7C800"/>
<g opacity="0.15">
<path d="M71.1875 34.9141C71.1875 38.4798 73.5601 42.032 78.258 44.7707C87.6638 50.1939 102.866 50.1939 112.21 44.7707C116.857 42.0591 119.183 38.5374 119.189 35.0022V37.9985C119.132 41.4931 116.817 44.9707 112.217 47.6314C102.872 53.0546 87.6706 53.0546 78.2648 47.6314C73.5568 44.9198 71.1943 41.3473 71.1943 37.7782" fill="#544A00"/>
</g>
<path d="M112.115 25.0974C121.521 30.5205 121.571 39.3332 112.223 44.7564C102.875 50.1796 87.6766 50.1796 78.2674 44.7564C68.8582 39.3332 68.8276 30.5205 78.1758 25.0974C87.5241 19.6742 102.716 19.6776 112.115 25.0974Z" fill="#FEE425"/>
<path d="M95.2659 47.6465C89.5037 47.6465 84.0806 46.406 79.9623 44.1486C75.573 41.742 73.1562 38.461 73.1562 34.9054C73.1562 31.3499 75.5289 28.1265 79.8742 25.7538C83.9619 23.4964 89.3648 22.2559 95.1269 22.2559C100.889 22.2559 106.305 23.4761 110.417 25.7436C114.799 28.1163 117.22 31.4041 117.223 34.963C117.226 38.522 114.85 41.7691 110.502 44.1486C106.434 46.4026 101.021 47.6465 95.2659 47.6465Z" fill="#141414"/>
<path d="M109.004 42.912C101.459 47.3183 89.1009 47.3183 81.4745 42.912C73.8482 38.5057 73.8211 31.364 81.3932 26.9814C88.9653 22.5988 101.296 22.5751 108.923 26.9814C116.549 31.3877 116.576 38.5294 109.004 42.912Z" fill="#F7C800"/>
<g opacity="0.4">
<path d="M108.998 42.9111C101.453 47.3174 89.0951 47.3174 81.4688 42.9111L108.924 26.9805C116.543 31.3631 116.57 38.5285 108.998 42.9111Z" fill="white"/>
</g>
<path d="M95.8468 27.0079L97.9008 28.1943C99.9752 29.3908 101.755 30.5974 100.782 32.0413L95.1689 28.8044L92.159 29.1433L99.1854 33.2107C97.9008 33.9598 94.8232 34.4886 91.2473 32.4244L89.522 31.4278L87.8273 32.404L86.1562 41.3963L89.2475 43.1792L90.9863 33.8683C94.091 35.4851 98.4838 36.1325 101.761 34.6885L103.971 35.963L106.981 35.624L103.541 33.6446C104.065 33.2518 104.418 32.6731 104.527 32.0278L107.673 33.8445L110.683 33.5056L98.8533 26.6758L95.8468 27.0079Z" fill="#544A00"/>
<path d="M109.046 26.7722C105.317 24.6199 100.382 23.4336 95.1489 23.4336C89.9155 23.4336 84.9804 24.6199 81.2825 26.7722C77.5845 28.9246 75.5 31.8192 75.5 34.907C75.5 37.9948 77.5845 40.9369 81.3638 43.1231C85.0923 45.2755 90.0307 46.4618 95.2811 46.4618C100.531 46.4618 105.45 45.2755 109.137 43.1231C112.825 40.9708 114.913 38.0525 114.906 34.968C114.899 31.8836 112.822 28.9415 109.046 26.7722ZM108.883 42.7028C105.27 44.8145 100.436 45.9771 95.2709 45.9771C90.1053 45.9771 85.2482 44.8145 81.5977 42.7028C77.9472 40.5912 75.9779 37.8423 75.9779 34.907C75.9779 31.9717 77.9438 29.2601 81.5163 27.1925C85.1431 25.0809 89.9901 23.9217 95.1387 23.9217C100.287 23.9217 105.151 25.0843 108.802 27.1925C112.452 29.3008 114.415 32.0327 114.421 34.968C114.428 37.9033 112.459 40.6319 108.883 42.6994V42.7028Z" fill="#544A00"/>
<path d="M119.434 35.0007C119.434 35.0007 119.434 34.9736 119.434 34.9634C119.434 31.1434 116.868 27.5641 112.224 24.883C107.648 22.2426 101.574 20.7852 95.1241 20.7852C88.6739 20.7852 82.6 22.246 78.0411 24.8966C73.4823 27.5472 70.9232 31.1163 70.9232 34.9092V34.9363L70.9062 42.7694C70.9062 46.5995 73.4551 50.1856 78.1021 52.8701C82.6881 55.5172 88.7689 56.9781 95.2258 56.9781C101.683 56.9781 107.747 55.5172 112.302 52.8701C116.858 50.2229 119.393 46.6741 119.403 42.8948V35.0007H119.434ZM74.3127 49.3348C72.418 47.3418 71.4113 45.1013 71.4181 42.7728V37.7326C72.0293 39.3995 73.0203 40.9012 74.3127 42.1186V49.3348ZM79.1122 52.8633C78.8614 52.7277 78.6106 52.5921 78.3665 52.4498C77.0768 51.7202 75.8786 50.8395 74.7974 49.8263V42.5762C75.8241 43.4906 76.943 44.296 78.136 44.9793C78.4546 45.1624 78.78 45.3386 79.1122 45.5115V52.8633ZM83.9151 54.8461C82.4323 54.3852 80.9893 53.8049 79.6003 53.1107V45.7555C80.9916 46.4335 82.4343 47.0002 83.9151 47.4503V54.8461ZM89.4332 56.0833C87.7316 55.8425 86.0495 55.48 84.3998 54.9987V47.596C86.0501 48.0743 87.7321 48.4356 89.4332 48.6773V56.0833ZM94.9445 56.49C93.2637 56.4775 91.5852 56.3643 89.9179 56.1511V48.7383C91.585 48.9533 93.2636 49.0665 94.9445 49.0772V56.49ZM100.456 56.1511C98.79 56.3679 97.1124 56.4811 95.4326 56.49V49.0806C97.112 49.0754 98.7895 48.9679 100.456 48.7586V56.1511ZM105.974 55.0122C104.321 55.4946 102.635 55.8571 100.93 56.0968V48.6942C102.63 48.4596 104.311 48.1051 105.96 47.6333L105.974 55.0122ZM110.777 53.1412C109.388 53.8343 107.945 54.4124 106.462 54.8698V47.4909C107.943 47.041 109.386 46.4743 110.777 45.7962V53.1412ZM115.58 49.8568C114.52 50.8551 113.344 51.7233 112.078 52.443C111.811 52.5989 111.543 52.748 111.265 52.8938V45.5589C111.631 45.3725 111.99 45.1793 112.336 44.9759C113.496 44.3127 114.583 43.53 115.58 42.6406V49.8568ZM118.935 42.888C118.935 45.1861 117.918 47.396 116.064 49.3653V42.1864C117.316 40.9999 118.284 39.5457 118.895 37.9326C118.895 37.9021 118.922 37.8716 118.932 37.8411L118.935 42.888ZM112.763 44.1523C112.543 44.2913 112.322 44.4268 112.085 44.5624C111.848 44.698 111.617 44.8234 111.38 44.9522C106.974 47.3248 101.296 48.6027 95.2529 48.6027C88.8807 48.6027 82.8881 47.1689 78.3733 44.5624C73.8585 41.9559 71.4418 38.5461 71.4418 34.9125C71.4418 31.279 73.8754 27.8929 78.3021 25.3203C82.7864 22.7138 88.7689 21.2766 95.1411 21.2766C101.513 21.2766 107.492 22.7104 111.997 25.3101C116.502 27.9099 118.956 31.3299 118.962 34.9668C118.952 38.3902 116.763 41.6271 112.763 44.1523Z" fill="#544A00"/>
<path d="M119.208 24.4931V32.3872C119.208 35.9259 116.877 39.4543 112.233 42.1557C102.885 47.5789 87.6829 47.5789 78.2736 42.1557C73.5521 39.4441 71.193 35.8445 71.2032 32.2652V24.3711C71.2032 27.9504 73.5521 31.5331 78.277 34.2582C87.6828 39.6814 102.885 39.6814 112.233 34.2582C116.866 31.5466 119.198 28.0148 119.208 24.4931Z" fill="#F7C800"/>
<g opacity="0.15">
<path d="M71.2031 24.3926C71.2031 27.9583 73.5758 31.5105 78.2736 34.2492C87.676 39.6724 102.878 39.6724 112.226 34.2492C116.87 31.5376 119.195 28.0126 119.205 24.4773V27.477C119.151 30.9682 116.832 34.4492 112.236 37.1099C102.888 42.5331 87.6862 42.5331 78.2838 37.1099C73.5758 34.3983 71.2133 30.8258 71.2133 27.2567" fill="#544A00"/>
</g>
<path d="M112.118 14.5759C121.527 19.9991 121.575 28.8117 112.23 34.2349C102.885 39.6581 87.6797 39.6581 78.2739 34.2349C68.8681 28.8117 68.8342 19.9991 78.1824 14.5759C87.5306 9.1527 102.729 9.15609 112.118 14.5759Z" fill="#FEE425"/>
<path opacity="0.15" d="M95.2849 37.125C89.5228 37.125 84.0996 35.8811 79.978 33.6271C75.5886 31.2205 73.1719 27.9395 73.1719 24.3839C73.1719 20.8284 75.5445 17.605 79.8932 15.2323C83.9776 12.9783 89.3838 11.7344 95.1459 11.7344C100.908 11.7344 106.321 12.9681 110.422 15.2188C114.805 17.5914 117.225 20.8826 117.232 24.4416C117.239 28.0005 114.859 31.2443 110.51 33.6271C106.453 35.8811 101.04 37.125 95.2849 37.125Z" fill="#544A00"/>
<path d="M109.015 32.3886C101.467 36.7949 89.1087 36.7949 81.4824 32.3886C73.856 27.9822 73.8289 20.8406 81.401 16.458C88.9731 12.0754 101.307 12.0516 108.934 16.458C116.56 20.8643 116.584 28.0093 109.015 32.3886Z" fill="#F7C800"/>
<g opacity="0.4">
<path d="M109.009 32.3876C101.461 36.794 89.1029 36.794 81.4766 32.3876L108.931 16.457C116.554 20.8396 116.578 28.0084 109.009 32.3876Z" fill="white"/>
</g>
<path d="M109.064 16.2508C105.336 14.095 100.398 12.9121 95.1676 12.9121C89.9376 12.9121 84.9991 14.0984 81.3012 16.2508C77.6033 18.4031 75.5391 21.2977 75.5391 24.3855C75.5391 27.4733 77.6202 30.4154 81.3995 32.5983C85.1279 34.754 90.0664 35.9403 95.3167 35.9403C100.567 35.9403 105.485 34.754 109.173 32.5983C112.901 30.4392 114.959 27.5445 114.955 24.4635C114.952 21.3824 112.827 18.42 109.064 16.2508ZM108.898 32.1813C105.289 34.293 100.452 35.4556 95.2862 35.4556C90.1206 35.4556 85.2669 34.293 81.613 32.1813C77.9592 30.0697 75.9966 27.3208 75.9966 24.3855C75.9966 21.4502 77.9625 18.7386 81.5351 16.6711C85.1076 14.6035 90.0088 13.3968 95.154 13.3968C100.299 13.3968 105.167 14.5594 108.82 16.6711C112.474 18.7827 114.433 21.5112 114.437 24.4465C114.44 27.3818 112.454 30.1104 108.888 32.178L108.898 32.1813Z" fill="#544A00"/>
<path d="M119.454 24.4937V24.4598C119.454 20.6398 116.889 17.0605 112.245 14.3794C107.669 11.7255 101.616 10.2578 95.1484 10.2578C88.6813 10.2578 82.6073 11.7187 78.062 14.3659C73.5167 17.0131 70.9441 20.589 70.961 24.3818C70.961 24.3818 70.961 24.4021 70.961 24.4089V32.242C70.961 36.0722 73.5065 39.6582 78.1535 42.3427C82.7429 44.9899 88.8202 46.4508 95.2806 46.4508C101.741 46.4508 107.801 44.9899 112.357 42.3427C116.912 39.6955 119.444 36.1433 119.454 32.3674L119.471 24.4699L119.454 24.4937ZM74.3302 38.8143C72.4354 36.8212 71.4288 34.5808 71.4356 32.2522L71.4491 27.2053C72.0574 28.8779 73.046 30.3864 74.337 31.6116L74.3302 38.8143ZM79.1331 42.3427C78.8823 42.2071 78.6314 42.0715 78.3874 41.9292C77.0971 41.2005 75.8988 40.3198 74.8183 39.3057V32.0556C75.843 32.9716 76.9621 33.776 78.1569 34.4554C78.4721 34.6418 78.8009 34.818 79.1331 34.9875V42.3427ZM83.936 44.3222C82.4528 43.8636 81.0097 43.2843 79.6212 42.5901V35.2316C81.0124 35.9095 82.4552 36.4762 83.936 36.9263V44.3222ZM89.4541 45.5627C87.7519 45.3206 86.0696 44.9547 84.4207 44.4679V37.0754C86.0706 37.5542 87.7527 37.9144 89.4541 38.1533V45.5627ZM94.9654 45.9695C93.2845 45.9587 91.6059 45.8456 89.9388 45.6305V38.2177C91.6059 38.4327 93.2845 38.5459 94.9654 38.5567V45.9695ZM100.477 45.6305C98.8109 45.8472 97.1333 45.9604 95.4535 45.9695V38.56C97.1332 38.5492 98.8107 38.436 100.477 38.2211V45.6305ZM105.995 44.4916C104.346 44.9712 102.665 45.3303 100.965 45.5661V38.1736C102.664 37.9387 104.345 37.5842 105.995 37.1127V44.4916ZM110.798 42.6206C109.408 43.3125 107.965 43.8906 106.483 44.3493V36.9704C107.963 36.5189 109.406 35.9523 110.798 35.2756V42.6206ZM115.601 39.3362C114.54 40.3339 113.365 41.202 112.099 41.9224C111.831 42.0783 111.56 42.2275 111.286 42.3732V35.0384C111.648 34.8519 112.008 34.6587 112.357 34.4554C113.516 33.7902 114.603 33.0064 115.601 32.1166V39.3362ZM118.956 32.3674C118.956 34.6655 117.939 36.8755 116.085 38.8448V31.659C117.34 30.4727 118.311 29.0187 118.926 27.4052C118.926 27.3747 118.949 27.3442 118.963 27.3137L118.956 32.3674ZM112.801 33.6249C112.581 33.7639 112.357 33.8995 112.123 34.0351C111.889 34.1707 111.659 34.2961 111.421 34.4249C107.015 36.7975 101.338 38.0753 95.2908 38.0753C88.9219 38.0753 82.9259 36.6416 78.4111 34.0351C73.8963 31.4286 71.4491 28.0255 71.4491 24.392C71.4491 20.7584 73.8794 17.3757 78.3094 14.7997C82.7937 12.1932 88.7728 10.7561 95.1484 10.7561C101.524 10.7561 107.5 12.1864 112.001 14.7862C116.502 17.3859 118.963 20.8093 118.97 24.4462C118.973 27.8832 116.784 31.1066 112.801 33.6249Z" fill="#544A00"/>
<path d="M64.2783 52.7227L72.1758 52.7396C75.711 52.7396 79.2429 55.0716 81.9409 59.7152C87.3641 69.0634 87.3641 84.2652 81.9409 93.6711C79.2293 98.396 75.6331 100.755 72.0538 100.745H64.1562C67.7355 100.745 71.3182 98.396 74.0468 93.6711C79.47 84.2652 79.47 69.0634 74.0468 59.7152C71.3454 55.0648 67.8169 52.7396 64.2783 52.7227Z" fill="#F7C800"/>
<g opacity="0.15">
<path d="M64.1797 100.734C67.7454 100.734 71.2976 98.3617 74.0363 93.6639C79.4595 84.2581 79.4595 69.0596 74.0363 59.7114C71.3247 55.0678 67.8031 52.7392 64.2678 52.7324H67.2641C70.7587 52.79 74.2363 55.1051 76.897 59.7046C82.3202 69.0528 82.3202 84.2513 76.897 93.6571C74.1855 98.3651 70.6163 100.728 67.0438 100.728" fill="#544A00"/>
</g>
<path d="M54.3799 59.8193C59.8031 50.4101 68.6157 50.3626 74.0389 59.7074C79.4621 69.0522 79.4621 84.2575 74.0389 93.6633C68.6157 103.069 59.8031 103.103 54.3799 93.7548C48.9567 84.4066 48.9567 69.2082 54.3799 59.8193Z" fill="#FEE425"/>
<path opacity="0.15" d="M76.9297 76.65C76.9297 82.4121 75.6892 87.8353 73.4318 91.9569C71.0252 96.3429 67.7442 98.763 64.1886 98.763C60.6331 98.763 57.4097 96.3903 55.037 92.0416C52.7796 87.9573 51.5391 82.5511 51.5391 76.7889C51.5391 71.0268 52.7796 65.6036 55.037 61.4956C57.4097 57.113 60.6975 54.6962 64.2564 54.6895C67.8154 54.6827 71.0625 57.0621 73.4419 61.4108C75.6892 65.4816 76.9297 70.8946 76.9297 76.65Z" fill="#544A00"/>
<path d="M72.1874 62.9205C76.5937 70.4655 76.5937 82.827 72.1874 90.4534C67.7811 98.0797 60.6394 98.1034 56.2568 90.5313C51.8742 82.9592 51.8505 70.6282 56.2568 63.0019C60.6631 55.3755 67.8048 55.3484 72.1874 62.9205Z" fill="#F7C800"/>
<g opacity="0.4">
<path d="M72.1884 62.921C76.5947 70.466 76.5947 82.8274 72.1884 90.4538L56.2578 62.9989C60.6404 55.376 67.8058 55.3488 72.1884 62.921Z" fill="white"/>
</g>
<path d="M56.0496 62.8917C53.8973 66.6201 52.7109 71.5552 52.7109 76.7886C52.7109 82.022 53.8973 86.9571 56.0496 90.655C58.2019 94.3529 61.1101 96.4476 64.1844 96.4476C67.2586 96.4476 70.2143 94.3665 72.4005 90.5872C74.5528 86.8588 75.7391 81.9169 75.7391 76.6666C75.7391 71.4162 74.5528 66.4981 72.4005 62.8103C70.2481 59.1226 67.3434 57.0279 64.2454 57.0313C61.1474 57.0346 58.2189 59.109 56.0496 62.8917ZM71.9802 63.0578C74.0884 66.6676 75.251 71.5044 75.251 76.6666C75.251 81.8288 74.0884 86.6893 71.9768 90.3431C69.8651 93.997 67.1163 95.9595 64.181 95.9595C61.2457 95.9595 58.5341 93.9936 56.4665 90.4211C54.3989 86.8486 53.1956 81.9474 53.1956 76.7988C53.1956 71.6501 54.3582 66.7896 56.4699 63.1357C58.5815 59.4819 61.3067 57.5227 64.242 57.5193C67.1773 57.516 69.9228 59.4717 71.9802 63.0476V63.0578Z" fill="#544A00"/>
<path d="M64.2824 52.4883H64.2452C60.4252 52.4883 56.8459 55.0541 54.1648 59.6977C51.5244 64.2735 50.0703 70.3441 50.0703 76.7943C50.0703 83.2445 51.5278 89.3354 54.1784 93.8807C56.829 98.426 60.3981 100.999 64.1943 100.982H64.2214L72.0545 100.999C75.8813 100.999 79.4707 98.4531 82.1518 93.8028C84.799 89.2168 86.2599 83.136 86.2599 76.6791C86.2599 70.2221 84.799 64.1583 82.1518 59.6028C79.5046 55.0473 75.9558 52.5154 72.1766 52.5052L64.2824 52.4883ZM78.6166 97.6091C76.6202 99.5073 74.3797 100.514 72.0545 100.507H67.0144C68.6807 99.8964 70.1822 98.9066 71.4004 97.6159L78.6166 97.6091ZM82.1417 92.8096C82.0061 93.0605 81.8739 93.3113 81.7281 93.5553C80.9995 94.8456 80.1187 96.0439 79.1047 97.1245H71.8546C72.7727 96.1007 73.5784 94.9814 74.2577 93.7858C74.4407 93.4706 74.617 93.1418 74.7899 92.8096H82.1417ZM84.1245 88.0067C83.6648 89.49 83.0844 90.9331 82.3891 92.3215H75.0339C75.7104 90.9296 76.277 89.487 76.7286 88.0067H84.1245ZM85.3617 82.4886C85.119 84.1904 84.7543 85.8726 84.2702 87.522H76.8744C77.3527 85.8717 77.714 84.1898 77.9556 82.4886H85.3617ZM85.7684 76.9773C85.756 78.6581 85.6429 80.3367 85.4295 82.0039H78.0166C78.2317 80.3369 78.3449 78.6582 78.3556 76.9773H85.7684ZM85.4295 71.466C85.6462 73.1318 85.7594 74.8094 85.7684 76.4892H78.3624C78.3515 74.8095 78.2383 73.132 78.0234 71.466H85.4295ZM84.2974 65.9412C84.7781 67.5895 85.1383 69.2706 85.3752 70.9712H77.9726C77.7376 69.2716 77.3831 67.5908 76.9117 65.9412H84.2974ZM82.4298 61.1383C83.122 62.5296 83.7001 63.9749 84.1584 65.4598H76.7693C76.3193 63.979 75.7527 62.5363 75.0746 61.145L82.4298 61.1383ZM79.142 56.3354C80.1408 57.3962 81.0091 58.5728 81.7281 59.8401C81.884 60.1079 82.0332 60.379 82.1789 60.6536H74.8373C74.6509 60.2875 74.4577 59.9316 74.2577 59.5825C73.5914 58.4239 72.8077 57.337 71.919 56.3387L79.142 56.3354ZM72.1732 52.9798C74.4712 52.9798 76.6812 53.9966 78.6505 55.8507H71.4648C70.2786 54.5975 68.8244 53.6288 67.211 53.017L67.1194 52.9798H72.1732ZM73.4239 59.1622C73.5629 59.3825 73.7018 59.6062 73.834 59.8401C73.9662 60.074 74.0984 60.3044 74.2272 60.5417C76.5829 64.948 77.8777 70.6254 77.8777 76.6723C77.8777 83.0411 76.4405 89.0371 73.834 93.5485C71.2275 98.06 67.8245 100.494 64.1909 100.5C60.5574 100.507 57.1713 98.0701 54.5987 93.6401C51.9922 89.1558 50.555 83.1733 50.555 76.8011C50.555 70.4288 51.9888 64.4498 54.5885 59.9485C57.1882 55.4473 60.6082 52.9865 64.2452 52.9798C67.6685 52.9696 70.9055 55.1592 73.4239 59.1622Z" fill="#544A00"/>
<path d="M101.677 25.3323C102.471 24.7569 102.841 24.0347 102.722 23.282C102.603 22.5346 102.012 21.8296 101.045 21.2717C98.3948 19.7413 94.5121 20.1429 91.8548 21.6771C91.0557 22.1384 90.3852 22.6791 89.9358 23.2611C89.4865 23.8431 89.247 24.4827 89.3492 25.1286C89.4633 25.8496 89.993 26.5183 90.9821 27.0894C92.9723 28.2385 95.6696 28.3344 97.9732 27.3619L98.3363 27.2086L97.995 27.0116L94.9759 25.2685L96.6671 24.292L102.636 27.7383L95.661 31.7655L93.9137 30.7567L96.328 29.3629L96.1914 29.0009C93.5527 29.5306 90.7077 29.3431 88.3942 28.0074C86.9346 27.1647 86.0786 26.0936 85.9023 24.9813C85.6773 23.5617 86.5488 21.9578 88.9837 20.552C91.1573 19.2971 93.7893 18.6558 96.3579 18.6055C98.9275 18.5552 101.418 19.0966 103.311 20.1897C104.9 21.1067 105.814 22.2956 105.998 23.4515C106.183 24.62 105.629 25.8201 104.125 26.7454L101.677 25.3323Z" fill="#141414" stroke="#141414" stroke-width="0.392075"/>
<path d="M89.0352 20.0736L88.9414 19.4815C91.0921 18.2705 93.676 17.651 96.1988 17.6016C98.732 17.552 101.188 18.0774 103.071 19.1396L103.153 19.6557C101.236 18.651 98.8191 18.1656 96.3502 18.2139C93.8217 18.2634 91.2242 18.873 89.0352 20.0736Z" fill="#141414" stroke="#141414" stroke-width="0.392075" stroke-linejoin="round"/>
<path d="M88.6661 20.2816C87.1065 21.2047 86.1354 22.2448 85.7144 23.3058C85.8167 22.1164 86.6868 20.8449 88.5732 19.6949L88.6661 20.2816Z" fill="#141414" stroke="#141414" stroke-width="0.392075" stroke-linejoin="round"/>
<path d="M100.687 21.0814C98.1384 19.8191 94.6254 20.1827 92.0979 21.5381L92.0039 20.9449C94.5411 19.5324 98.1449 19.192 100.605 20.5599L100.687 21.0814Z" fill="#141414" stroke="#141414" stroke-width="0.392075" stroke-linejoin="round"/>
<path d="M89.9324 23.2623C89.7816 23.4576 89.6545 23.6593 89.5559 23.8656C89.5451 23.4211 89.7281 22.9581 90.0837 22.4976C90.4479 22.0258 90.9843 21.5695 91.6421 21.161L91.7348 21.7467C90.9871 22.1927 90.3597 22.7088 89.9324 23.2623Z" fill="#141414" stroke="#141414" stroke-width="0.392075" stroke-linejoin="round"/>
<path d="M103.518 19.4059C104.521 20.0532 105.213 20.8139 105.578 21.594C105.1 20.9709 104.431 20.3933 103.596 19.8995L103.518 19.4059Z" fill="#141414" stroke="#141414" stroke-width="0.392075" stroke-linejoin="round"/>
<path d="M101.05 20.8367C101.631 21.2401 101.981 21.6833 102.121 22.1148C101.863 21.8297 101.529 21.5627 101.127 21.3217L101.05 20.8367Z" fill="#141414" stroke="#141414" stroke-width="0.392075" stroke-linejoin="round"/>
<path d="M94.7378 24.9572L94.6444 24.3677L96.364 23.3749L96.4574 23.9644L94.7378 24.9572Z" fill="#141414" stroke="#141414" stroke-width="0.392075" stroke-linejoin="round"/>
<path d="M90.8258 26.5233C90.2448 26.1211 89.9251 25.6999 89.7951 25.287C90.0387 25.5512 90.3556 25.8024 90.7488 26.0376L90.8258 26.5233Z" fill="#141414" stroke="#141414" stroke-width="0.392075" stroke-linejoin="round"/>
<path d="M88.0412 27.7885C87.1186 27.19 86.4781 26.4933 86.1436 25.7571C86.5892 26.3269 87.2048 26.8468 87.9631 27.2954L88.0412 27.7885Z" fill="#141414" stroke="#141414" stroke-width="0.392075" stroke-linejoin="round"/>
<path d="M102.347 23.4387C102.394 23.9695 102.125 24.5249 101.453 25.0121L101.362 24.4368C101.812 24.1417 102.144 23.8033 102.347 23.4387Z" fill="#141414" stroke="#141414" stroke-width="0.392075" stroke-linejoin="round"/>
<path d="M94.6876 24.6409L97.5638 26.3015L97.644 26.8075L94.7678 25.1469L94.6876 24.6409Z" fill="#141414" stroke="#141414" stroke-width="0.392075" stroke-linejoin="round"/>
<path d="M102.69 26.8582L102.77 27.3642L96.8459 23.9438L96.7657 23.4378L102.69 26.8582Z" fill="#141414" stroke="#141414" stroke-width="0.392075" stroke-linejoin="round"/>
<path d="M106.027 24.0704C105.963 24.9952 105.414 25.9062 104.275 26.6519L104.183 26.0697C105.106 25.4996 105.717 24.8122 106.027 24.0704Z" fill="#141414" stroke="#141414" stroke-width="0.392075" stroke-linejoin="round"/>
<path d="M91.2676 26.7964L91.1851 26.2752C93.0647 27.2082 95.4754 27.2709 97.5914 26.4518L97.6877 27.0596C95.5481 27.9143 93.0918 27.8115 91.2676 26.7964Z" fill="#141414" stroke="#141414" stroke-width="0.392075" stroke-linejoin="round"/>
<path d="M101.406 24.7171L103.79 26.0935L103.87 26.5995L101.487 25.2231L101.406 24.7171Z" fill="#141414" stroke="#141414" stroke-width="0.392075" stroke-linejoin="round"/>
<path d="M88.3967 27.5356C90.6855 28.723 93.3972 28.888 95.9125 28.4188L96.0102 29.0357C93.4548 29.5144 90.7231 29.3159 88.4786 28.0525L88.3967 27.5356Z" fill="#141414" stroke="#141414" stroke-width="0.392075" stroke-linejoin="round"/>
<path d="M93.6753 30.445L93.5819 29.8555L95.9265 28.5018L96.0199 29.0914L93.6753 30.445Z" fill="#141414" stroke="#141414" stroke-width="0.392075" stroke-linejoin="round"/>
<path d="M95.8159 31.6798L95.7225 31.0903L102.726 27.0468L102.82 27.6363L95.8159 31.6798Z" fill="#141414" stroke="#141414" stroke-width="0.392075" stroke-linejoin="round"/>
<path d="M93.6251 30.1272L95.3275 31.1101L95.4077 31.6162L93.7053 30.6333L93.6251 30.1272Z" fill="#141414" stroke="#141414" stroke-width="0.392075" stroke-linejoin="round"/>
<path d="M94.4271 24.2659L96.5104 23.0631L102.872 26.7358L95.5044 30.9893L93.365 29.7542L96.0733 28.1905C93.4032 28.7265 90.5061 28.5409 88.1396 27.1746C84.7318 25.2071 84.3541 21.9055 88.729 19.3797C93.1419 16.8319 99.3906 16.7875 103.253 19.0174C106.566 20.9302 107.152 24.0897 103.97 25.9704L101.149 24.3417C102.949 23.2374 102.76 21.5756 100.791 20.4389C98.216 18.9523 94.4098 19.3353 91.7962 20.8443C89.353 22.2549 88.2351 24.365 90.9235 25.9171C92.8546 27.032 95.4866 27.1301 97.7403 26.1788L94.4271 24.2659Z" fill="white"/>
<path d="M46.7866 53.2347C47.482 52.7311 47.8525 52.115 47.8526 51.4588C47.8527 50.6124 47.2378 49.7993 46.1548 49.174C43.5041 47.6436 39.6215 48.0452 36.9642 49.5794C36.2265 50.0054 35.5989 50.4985 35.1535 51.029C34.7089 51.5586 34.4353 52.1387 34.4352 52.7331C34.4351 53.5628 34.9643 54.341 36.0915 54.9918C38.0817 56.1408 40.7789 56.2367 43.0826 55.2643L43.4457 55.111L43.1043 54.9139L40.0852 53.1708L41.7765 52.1944L47.7456 55.6407L40.7704 59.6679L39.0231 58.6591L41.4374 57.2652L41.3008 56.9032C38.6621 57.4329 35.8171 57.2455 33.5036 55.9098C31.8544 54.9576 30.9775 53.7163 30.9773 52.4486C30.9771 51.1462 31.9025 49.7191 34.0931 48.4544C36.2666 47.1994 38.8986 46.5581 41.4673 46.5078C44.0369 46.4575 46.5275 46.9989 48.4208 48.0921C50.2101 49.1251 51.1413 50.4998 51.1415 51.7875C51.1416 52.8097 50.5561 53.8346 49.2341 54.6477L46.7866 53.2347Z" fill="#141414" stroke="#141414" stroke-width="0.392075"/>
<path d="M34.1882 47.9494V47.3808C36.3426 46.1628 38.9343 45.5398 41.4644 45.4903C43.9899 45.4408 46.4391 45.9629 48.3199 47.0187V47.5887C46.3933 46.5624 43.9515 46.0663 41.4567 46.1151C38.9461 46.1643 36.3675 46.7656 34.1882 47.9494Z" fill="#141414" stroke="#141414" stroke-width="0.392075" stroke-linejoin="round"/>
<path d="M45.861 49.0143C43.3229 47.7245 39.8022 48.0711 37.2585 49.4166V48.8461C39.7907 47.428 43.3954 47.0809 45.861 48.441V49.0143Z" fill="#141414" stroke="#141414" stroke-width="0.392075" stroke-linejoin="round"/>
<path d="M48.7195 47.2517C49.9993 48.061 50.7861 49.0519 51.0483 50.039C50.5789 49.2122 49.7845 48.4416 48.7195 47.8088V47.2517Z" fill="#141414" stroke="#141414" stroke-width="0.392075" stroke-linejoin="round"/>
<path d="M33.799 48.1738C32.4797 48.9515 31.5792 49.8121 31.0744 50.6996C31.3466 49.6701 32.2033 48.5983 33.799 47.6147V48.1738Z" fill="#141414" stroke="#141414" stroke-width="0.392075" stroke-linejoin="round"/>
<path d="M46.2507 48.6787C47.005 49.1844 47.3894 49.7549 47.4499 50.2907C47.1775 49.9052 46.7718 49.5458 46.2507 49.2311V48.6787Z" fill="#141414" stroke="#141414" stroke-width="0.392075" stroke-linejoin="round"/>
<path d="M35.1473 51.0291C35.0354 51.1623 34.9344 51.2987 34.8458 51.4378C34.9134 51.0523 35.1187 50.656 35.4475 50.2643C35.7978 49.8471 36.2806 49.4447 36.8599 49.0796V49.6369C36.1646 50.0495 35.5728 50.5222 35.1473 51.0291Z" fill="#141414" stroke="#141414" stroke-width="0.392075" stroke-linejoin="round"/>
<path d="M47.4621 51.5747C47.4234 52.0165 47.1599 52.4701 46.6179 52.8784V52.3393C46.9736 52.1087 47.2567 51.8512 47.4621 51.5747Z" fill="#141414" stroke="#141414" stroke-width="0.392075" stroke-linejoin="round"/>
<path d="M39.8914 52.8313V52.2672L41.5826 51.2907V51.8548L39.8914 52.8313Z" fill="#141414" stroke="#141414" stroke-width="0.392075" stroke-linejoin="round"/>
<path d="M49.4304 53.9701C50.1756 53.513 50.7202 52.9795 51.068 52.4014C50.8879 53.1606 50.3632 53.8972 49.4304 54.5214V53.9701Z" fill="#141414" stroke="#141414" stroke-width="0.392075" stroke-linejoin="round"/>
<path d="M35.9872 54.4704C35.2301 53.965 34.892 53.4278 34.8312 52.9088C35.0884 53.2677 35.4713 53.6066 35.9872 53.9176V54.4704Z" fill="#141414" stroke="#141414" stroke-width="0.392075" stroke-linejoin="round"/>
<path d="M47.9465 54.737V55.3011L41.9773 51.8548V51.2907L47.9465 54.737Z" fill="#141414" stroke="#141414" stroke-width="0.392075" stroke-linejoin="round"/>
<path d="M46.6179 52.57L49.0467 53.9723V54.5364L46.6179 53.1341V52.57Z" fill="#141414" stroke="#141414" stroke-width="0.392075" stroke-linejoin="round"/>
<path d="M39.8914 52.4938L42.8124 54.1803V54.7444L39.8914 53.058V52.4938Z" fill="#141414" stroke="#141414" stroke-width="0.392075" stroke-linejoin="round"/>
<path d="M33.2096 55.7336C32.0364 54.989 31.3069 54.0888 31.0658 53.146C31.5083 53.9093 32.2423 54.6016 33.2096 55.1769V55.7336Z" fill="#141414" stroke="#141414" stroke-width="0.392075" stroke-linejoin="round"/>
<path d="M36.3835 54.7071V54.134C38.2596 55.0893 40.6798 55.1672 42.8082 54.3563V54.952C40.6703 55.8134 38.2122 55.7168 36.3835 54.7071Z" fill="#141414" stroke="#141414" stroke-width="0.392075" stroke-linejoin="round"/>
<path d="M33.6023 55.3948C35.8933 56.6053 38.6162 56.7812 41.144 56.3157V56.9337C38.5872 57.4177 35.8516 57.2245 33.6023 55.9653V55.3948Z" fill="#141414" stroke="#141414" stroke-width="0.392075" stroke-linejoin="round"/>
<path d="M40.9695 59.5539V58.9898L47.9447 54.9626V55.5267L40.9695 59.5539Z" fill="#141414" stroke="#141414" stroke-width="0.392075" stroke-linejoin="round"/>
<path d="M38.8289 58.321V57.7569L41.1451 56.4196V56.9837L38.8289 58.321Z" fill="#141414" stroke="#141414" stroke-width="0.392075" stroke-linejoin="round"/>
<path d="M38.8289 57.9821L40.5761 58.9909V59.555L38.8289 58.5462V57.9821Z" fill="#141414" stroke="#141414" stroke-width="0.392075" stroke-linejoin="round"/>
<path d="M39.6928 52.1546L41.7761 50.9518L48.1373 54.6245L40.77 58.878L38.6306 57.6428L41.3389 56.0792C38.6688 56.6152 35.7717 56.4296 33.4052 55.0633C29.9974 53.0958 29.6197 49.7942 33.9947 47.2683C38.4075 44.7206 44.6563 44.6762 48.5185 46.906C51.8316 48.8189 52.4176 51.9783 49.2358 53.8591L46.4149 52.2304C48.2142 51.126 48.0253 49.4643 46.0564 48.3275C43.4816 46.841 39.6754 47.224 37.0618 48.733C34.6186 50.1435 33.5008 52.2536 36.1891 53.8058C38.1202 54.9207 40.7523 55.0188 43.0059 54.0674L39.6928 52.1546Z" fill="white"/>
<path d="M55.3448 29.7368C54.9218 27.8691 54.9855 25.9392 55.6647 24.3528L57.6976 26.3388C56.8371 28.3724 57.4505 31.0113 59.0953 32.6182C59.7193 33.2278 60.3798 33.5878 61.0447 33.7173C61.7105 33.847 62.3672 33.7428 62.9765 33.4457C63.9069 32.9922 64.7222 32.0925 65.3159 30.8929C66.587 28.3245 66.7883 24.7275 64.4825 22.4749C63.3503 21.3688 62.0808 21.056 60.9466 21.609C60.4329 21.8594 59.9617 22.2817 59.5531 22.862L59.4571 22.9984L59.5764 23.115L62.2111 25.6889L61.327 27.4755L56.3676 22.6306L59.9582 15.3757L61.4303 16.8138L60.1064 19.489L60.3952 19.736C60.6072 19.5862 60.8244 19.4565 61.0459 19.3485C61.7595 19.0002 62.5195 18.8754 63.3011 19.0306C64.0841 19.1861 64.904 19.6258 65.7294 20.4322C68.4816 23.1208 69.6189 28.2517 67.4146 32.7055C66.5522 34.448 65.4157 35.6136 64.1804 36.2163C62.2444 37.161 60.0127 36.7462 58.1083 34.8858C56.7708 33.5792 55.7903 31.7032 55.3448 29.7368Z" fill="#141414" stroke="#141414" stroke-width="0.392075"/>
<path d="M57.0965 35.2347C55.809 33.9332 54.8653 32.101 54.4308 30.1828C53.9907 28.2401 54.0774 26.2301 54.8354 24.6094L55.2116 24.4259C54.5801 26.0598 54.5457 27.9842 54.9623 29.8236C55.4003 31.7572 56.341 33.6164 57.6394 34.9699L57.0965 35.2347Z" fill="#141414" stroke="#141414" stroke-width="0.392075" stroke-linejoin="round"/>
<mask id="path-128-inside-1_3038_70574" fill="white">
<path d="M57.0547 35.4692C59.0071 37.3765 61.3261 37.8232 63.3498 36.8357L64.2621 36.3908C62.2388 37.3772 59.9205 36.9303 57.9686 35.0234L57.0547 35.4692Z"/>
</mask>
<path d="M57.0547 35.4692C59.0071 37.3765 61.3261 37.8232 63.3498 36.8357L64.2621 36.3908C62.2388 37.3772 59.9205 36.9303 57.9686 35.0234L57.0547 35.4692Z" fill="#141414"/>
<path d="M64.348 36.567C64.3486 36.5667 64.3492 36.5664 64.3497 36.5662L64.1778 36.2138C64.1772 36.2141 64.1767 36.2143 64.1762 36.2146L64.348 36.567ZM63.3498 36.8357L63.1779 36.4833L63.1779 36.4834L63.3498 36.8357ZM57.0547 35.4692L56.8828 35.1168C56.7682 35.1727 56.6879 35.2808 56.6676 35.4067C56.6473 35.5326 56.6895 35.6605 56.7807 35.7497L57.0547 35.4692ZM57.9686 35.0234L58.2426 34.743C58.1241 34.6272 57.9456 34.5984 57.7967 34.671L57.9686 35.0234ZM64.2621 36.3908L64.434 36.7432C64.6286 36.6483 64.7094 36.4136 64.6145 36.2189C64.5196 36.0243 64.2849 35.9435 64.0903 36.0384L64.2621 36.3908ZM63.1779 36.4834C61.3295 37.3853 59.185 37.0023 57.3287 35.1887L56.7807 35.7497C58.8291 37.7508 61.3227 38.2611 63.5217 37.1881L63.1779 36.4834ZM57.2266 35.8216L58.1405 35.3758L57.7967 34.671L56.8828 35.1168L57.2266 35.8216ZM57.6946 35.3039C59.7425 37.3045 62.2353 37.8151 64.4339 36.7432L64.0903 36.0384C62.2423 36.9393 60.0985 36.556 58.2426 34.743L57.6946 35.3039ZM64.0902 36.0384L63.1779 36.4833L63.5217 37.1881L64.434 36.7432L64.0902 36.0384Z" fill="#141414" mask="url(#path-128-inside-1_3038_70574)"/>
<path d="M58.9054 32.4199L58.3608 32.6855C56.8793 31.1579 56.3627 28.7213 57.1701 26.8838L57.5678 26.6898C56.9403 28.584 57.4949 30.8963 58.9054 32.4199Z" fill="#141414" stroke="#141414" stroke-width="0.392075" stroke-linejoin="round"/>
<path d="M57.5954 26.2396L57.0557 26.5028L55.0235 24.5176L55.5632 24.2543L57.5954 26.2396Z" fill="#141414" stroke="#141414" stroke-width="0.392075" stroke-linejoin="round"/>
<path d="M61.0466 33.7179C61.1296 33.734 61.2124 33.7466 61.295 33.7555C60.939 33.8403 60.5743 33.8502 60.2077 33.7788C59.6998 33.6798 59.1778 33.4227 58.6639 32.9748L59.1977 32.7144C59.7919 33.2662 60.4174 33.5953 61.0466 33.7179Z" fill="#141414" stroke="#141414" stroke-width="0.392075" stroke-linejoin="round"/>
<path d="M60.5033 28.0138L55.547 23.1718L56.0867 22.9086L61.0431 27.7506L60.5033 28.0138Z" fill="#141414" stroke="#141414" stroke-width="0.392075" stroke-linejoin="round"/>
<path d="M64.3796 31.3995L64.6807 31.2526C64.3994 31.7185 64.0833 32.116 63.7436 32.4369C63.9755 32.1247 64.1886 31.7773 64.3796 31.3995Z" fill="#141414" stroke="#141414" stroke-width="0.392075" stroke-linejoin="round"/>
<path d="M59.1303 15.6395L59.4676 15.475L55.9788 22.5244L55.6416 22.6889L59.1303 15.6395Z" fill="#141414" stroke="#141414" stroke-width="0.392075" stroke-linejoin="round"/>
<path d="M61.2366 27.6576L60.8994 27.8221L61.6818 26.2411L62.0191 26.0766L61.2366 27.6576Z" fill="#141414" stroke="#141414" stroke-width="0.392075" stroke-linejoin="round"/>
<path d="M66.8212 33.3838L67.135 33.2308C66.7274 33.9513 66.2694 34.5583 65.7762 35.053C66.1565 34.5662 66.5071 34.0094 66.8212 33.3838Z" fill="#141414" stroke="#141414" stroke-width="0.392075" stroke-linejoin="round"/>
<path d="M62.1113 25.5938L61.5716 25.857L59.1329 23.4746L59.6726 23.2114L62.1113 25.5938Z" fill="#141414" stroke="#141414" stroke-width="0.392075" stroke-linejoin="round"/>
<mask id="path-139-inside-2_3038_70574" fill="white">
<path d="M58.7969 23.4206C59.1907 22.8612 59.6381 22.4639 60.116 22.2309L61.0291 21.7856C60.5514 22.0186 60.1044 22.4158 59.7108 22.9748L58.7969 23.4206Z"/>
</mask>
<path d="M58.7969 23.4206C59.1907 22.8612 59.6381 22.4639 60.116 22.2309L61.0291 21.7856C60.5514 22.0186 60.1044 22.4158 59.7108 22.9748L58.7969 23.4206Z" fill="#141414"/>
<path d="M61.115 21.9618C61.1153 21.9616 61.1155 21.9615 61.1159 21.9614L60.944 21.609C60.9437 21.6091 60.9434 21.6092 60.9431 21.6094L61.115 21.9618ZM60.116 22.2309L60.2878 22.5833L60.2879 22.5833L60.116 22.2309ZM58.7969 23.4206L58.4763 23.1948C58.3733 23.3411 58.3824 23.5386 58.4984 23.6748C58.6144 23.811 58.8079 23.8514 58.9687 23.773L58.7969 23.4206ZM59.7108 22.9748L59.8827 23.3272C59.9421 23.2982 59.9933 23.2546 60.0314 23.2005L59.7108 22.9748ZM61.0291 21.7856L61.201 22.1379C61.3956 22.043 61.4764 21.8083 61.3814 21.6137C61.2865 21.4191 61.0518 21.3383 60.8572 21.4332L61.0291 21.7856ZM59.9442 21.8785C59.3946 22.1464 58.8996 22.5936 58.4763 23.1948L59.1175 23.6463C59.4818 23.1288 59.8815 22.7814 60.2878 22.5833L59.9442 21.8785ZM58.9687 23.773L59.8827 23.3272L59.5389 22.6224L58.625 23.0682L58.9687 23.773ZM60.0314 23.2005C60.3955 22.6833 60.795 22.3361 61.201 22.1379L60.8571 21.4332C60.3079 21.7012 59.8133 22.1482 59.3902 22.7491L60.0314 23.2005ZM60.8572 21.4332L59.9441 21.8785L60.2879 22.5833L61.2009 22.138L60.8572 21.4332Z" fill="#141414" mask="url(#path-139-inside-2_3038_70574)"/>
<mask id="path-141-inside-3_3038_70574" fill="white">
<path d="M60.0451 19.6176C59.8135 19.7306 59.5872 19.8659 59.3672 20.0213L60.2811 19.5755C60.5011 19.4201 60.7274 19.2849 60.959 19.1719L60.0451 19.6176Z"/>
</mask>
<path d="M60.0451 19.6176C59.8135 19.7306 59.5872 19.8659 59.3672 20.0213L60.2811 19.5755C60.5011 19.4201 60.7274 19.2849 60.959 19.1719L60.0451 19.6176Z" fill="#141414"/>
<path d="M59.3672 20.0213L59.1409 19.7011C58.9741 19.819 58.9257 20.0452 59.0298 20.221C59.1338 20.3968 59.3554 20.4632 59.5391 20.3737L59.3672 20.0213ZM60.0451 19.6176L59.8732 19.2652L59.8731 19.2653L60.0451 19.6176ZM60.959 19.1719L61.1309 19.5242C61.3255 19.4293 61.4063 19.1946 61.3114 19C61.2164 18.8054 60.9817 18.7246 60.7871 18.8195L60.959 19.1719ZM60.2811 19.5755L60.453 19.9279C60.472 19.9187 60.4901 19.9079 60.5074 19.8958L60.2811 19.5755ZM59.5934 20.3415C59.7975 20.1973 60.0057 20.0731 60.217 19.97L59.8731 19.2653C59.6212 19.3882 59.3769 19.5344 59.1409 19.7011L59.5934 20.3415ZM60.2169 19.97L61.1309 19.5243L60.7871 18.8195L59.8732 19.2652L60.2169 19.97ZM60.787 18.8195C60.5351 18.9424 60.2908 19.0886 60.0549 19.2553L60.5074 19.8958C60.7115 19.7516 60.9196 19.6273 61.1309 19.5242L60.787 18.8195ZM60.1092 19.2231L59.1953 19.6689L59.5391 20.3737L60.453 19.9279L60.1092 19.2231Z" fill="#141414" mask="url(#path-141-inside-3_3038_70574)"/>
<path d="M64.9919 30.6594L64.6296 30.8361C65.6542 28.3949 65.7223 25.2311 63.7594 23.1183L64.3037 22.8528C66.3206 24.9287 66.1776 28.2153 64.9919 30.6594Z" fill="#141414" stroke="#141414" stroke-width="0.392075" stroke-linejoin="round"/>
<path d="M61.5138 21.8101C62.2957 21.5957 63.1579 21.8269 64.0007 22.5634L63.4667 22.8239C62.8397 22.2414 62.1736 21.8994 61.5138 21.8101Z" fill="#141414" stroke="#141414" stroke-width="0.392075" stroke-linejoin="round"/>
<path d="M60.1351 19.4276L59.7978 19.5921L60.9004 17.3644L61.2376 17.1999L60.1351 19.4276Z" fill="#141414" stroke="#141414" stroke-width="0.392075" stroke-linejoin="round"/>
<path d="M61.3371 16.7189L60.7974 16.9821L59.3282 15.5468L59.8679 15.2836L61.3371 16.7189Z" fill="#141414" stroke="#141414" stroke-width="0.392075" stroke-linejoin="round"/>
<path d="M67.088 32.8207C68.9967 28.4472 67.9169 23.5455 65.2847 20.7951L65.8277 20.5303C68.4967 23.2317 69.5834 28.26 67.4447 32.6468L67.088 32.8207Z" fill="#141414" stroke="#141414" stroke-width="0.392075" stroke-linejoin="round"/>
<path d="M63.302 19.0294C64.0204 19.1721 64.7699 19.554 65.5263 20.239L64.9904 20.5003C64.1555 19.7126 63.3048 19.2577 62.4654 19.0908C62.3059 19.0591 62.1473 19.0379 61.9899 19.0267C62.4172 18.9435 62.8561 18.9409 63.302 19.0294Z" fill="#141414" stroke="#141414" stroke-width="0.392075" stroke-linejoin="round"/>
<path d="M61.5366 26.0939L60.4696 28.2499L55.2154 23.1169L58.9888 15.4925L60.7558 17.2188L59.3687 20.0216C61.0095 18.8623 62.9983 18.828 64.953 20.7376C67.7678 23.4874 68.9177 28.7105 66.6769 33.2381C64.4168 37.8049 60.248 38.588 57.0579 35.4716C54.3213 32.7982 53.0706 27.8255 54.6884 24.463L57.0184 26.7392C56.1147 28.7058 56.6926 31.3348 58.3189 32.9236C60.4456 35.0012 62.8882 33.9564 64.2268 31.2516C65.4781 28.7232 65.6526 25.23 63.4321 23.0607C61.8371 21.5025 60.0494 21.6461 58.8001 23.4204L61.5366 26.0939Z" fill="white"/>
<path d="M65.5741 70.3665C65.1871 69.9165 64.7543 69.62 64.2989 69.486C63.7654 69.3291 63.2199 69.4009 62.7138 69.6813C62.1884 69.9724 61.7106 70.4847 61.3199 71.1896C59.8327 73.8724 60.4592 77.6545 62.2208 80.1704C62.8368 81.05 63.5579 81.7542 64.3124 82.1413C65.0723 82.5312 65.8776 82.6032 66.6242 82.1895C67.1216 81.9138 67.5747 81.4319 67.9666 80.7249C69.0829 78.7111 69.046 76.0616 67.8965 73.8586L67.7279 73.5355L67.5512 73.8542L65.8486 76.9259L64.719 75.3127L68.0686 69.2698L72.6979 75.8811L71.7117 77.6601L70.0979 75.3554L69.7482 75.5194C70.4431 78.0668 70.3906 80.8544 69.0973 83.1875C68.5202 84.2286 67.8037 84.986 67.0167 85.4224C66.1428 85.9069 65.1715 86.0021 64.1759 85.6376C63.1749 85.271 62.1347 84.4338 61.149 83.0261C58.2656 78.908 57.9095 72.8802 60.0321 69.0508C60.6587 67.9205 61.4491 67.1049 62.2911 66.638C63.0876 66.1963 63.9307 66.0657 64.7383 66.272C65.5181 66.4712 66.2837 66.9895 66.9507 67.8831L65.5741 70.3665Z" fill="#141414" stroke="#141414" stroke-width="0.392075"/>
<path d="M65.2975 86.2522C64.6558 86.4171 63.9782 86.385 63.289 86.1327C62.3308 85.7818 61.3367 84.9996 60.3888 83.6985L60.9327 83.397C61.9193 84.763 62.981 85.6186 64.043 86.0076C64.4652 86.1623 64.8853 86.2424 65.2975 86.2522Z" fill="#141414" stroke="#141414" stroke-width="0.392075" stroke-linejoin="round"/>
<path d="M60.1661 83.3751C57.3868 79.2793 57.0543 73.3807 59.1223 69.5941L59.4008 69.4397C57.5632 73.3559 57.9991 79.0515 60.7112 83.0729L60.1661 83.3751Z" fill="#141414" stroke="#141414" stroke-width="0.392075" stroke-linejoin="round"/>
<path d="M64.3125 82.142C64.6362 82.308 64.9681 82.4164 65.3002 82.4542C64.7625 82.6587 64.186 82.5857 63.6022 82.2861C62.9714 81.9625 62.3424 81.3778 61.78 80.6162L62.3237 80.3148C62.9164 81.1273 63.5995 81.7762 64.3125 82.142Z" fill="#141414" stroke="#141414" stroke-width="0.392075" stroke-linejoin="round"/>
<path d="M62.0943 79.9912L61.549 80.2935C59.9369 77.8838 59.4083 74.3876 60.7426 71.9221L61.0389 71.7578C59.9484 74.3202 60.5442 77.6545 62.0943 79.9912Z" fill="#141414" stroke="#141414" stroke-width="0.392075" stroke-linejoin="round"/>
<path d="M68.5196 83.9206L68.7037 83.8185C68.5301 84.0699 68.3471 84.2995 68.1562 84.5064C68.2828 84.3212 68.4041 84.1257 68.5196 83.9206Z" fill="#141414" stroke="#141414" stroke-width="0.392075" stroke-linejoin="round"/>
<path d="M67.1874 81.1904C67.1007 81.2972 67.0127 81.3931 66.9236 81.4788C66.9665 81.4105 67.0087 81.3397 67.0503 81.2663L67.1874 81.1904Z" fill="#141414" stroke="#141414" stroke-width="0.392075" stroke-linejoin="round"/>
<path d="M65.0407 77.5307L63.887 75.8831L64.4316 75.5813L65.5852 77.2289L65.0407 77.5307Z" fill="#141414" stroke="#141414" stroke-width="0.392075" stroke-linejoin="round"/>
<path d="M61.2124 71.2156C61.2984 71.1097 61.3864 71.0131 61.4759 70.9257C61.432 70.9952 61.3891 71.067 61.3472 71.1409L61.2124 71.2156Z" fill="#141414" stroke="#141414" stroke-width="0.392075" stroke-linejoin="round"/>
<path d="M59.527 68.9154C59.7135 68.6423 59.9105 68.3928 60.1157 68.1678C59.9755 68.3707 59.8415 68.5855 59.7142 68.8117L59.527 68.9154Z" fill="#141414" stroke="#141414" stroke-width="0.392075" stroke-linejoin="round"/>
<path d="M65.7217 77.151L65.4795 77.2853L66.9755 74.5864L67.2177 74.4521L65.7217 77.151Z" fill="#141414" stroke="#141414" stroke-width="0.392075" stroke-linejoin="round"/>
<path d="M67.0961 74.5221L67.6421 74.2195C68.6384 76.2625 68.6424 78.6588 67.653 80.4859L67.3574 80.6498C68.1568 78.7773 68.0604 76.4866 67.0961 74.5221Z" fill="#141414" stroke="#141414" stroke-width="0.392075" stroke-linejoin="round"/>
<path d="M63.1306 69.9185C63.4819 69.7784 63.8406 69.7602 64.1906 69.8632C64.5693 69.9746 64.9523 70.2323 65.3095 70.6588L64.7688 70.9586C64.3614 70.4534 63.8996 70.1236 63.412 69.9801C63.3185 69.9526 63.2246 69.9321 63.1306 69.9185Z" fill="#141414" stroke="#141414" stroke-width="0.392075" stroke-linejoin="round"/>
<path d="M69.1276 83.1414L68.8458 83.2976C69.8909 81.0272 69.8989 78.4339 69.2803 76.061L69.8152 75.7644C70.4374 78.2274 70.3544 80.8922 69.1276 83.1414Z" fill="#141414" stroke="#141414" stroke-width="0.392075" stroke-linejoin="round"/>
<path d="M67.3069 69.5395L67.5491 69.4052L64.3467 75.1825L64.1045 75.3168L67.3069 69.5395Z" fill="#141414" stroke="#141414" stroke-width="0.392075" stroke-linejoin="round"/>
<path d="M64.7363 66.272C65.4934 66.4654 66.2369 66.9595 66.89 67.8057L66.3472 68.1066C65.6432 67.1766 64.8164 66.6082 63.9446 66.3853C63.6916 66.3206 63.4364 66.2855 63.1811 66.2786C63.6998 66.1458 64.2252 66.1415 64.7363 66.272Z" fill="#141414" stroke="#141414" stroke-width="0.392075" stroke-linejoin="round"/>
<path d="M65.4639 70.5738L65.2217 70.7081L66.4421 68.5063L66.6844 68.372L65.4639 70.5738Z" fill="#141414" stroke="#141414" stroke-width="0.392075" stroke-linejoin="round"/>
<path d="M70.8999 78.2684L69.3323 76.0296L69.8769 75.7277L71.4445 77.9665L70.8999 78.2684Z" fill="#141414" stroke="#141414" stroke-width="0.392075" stroke-linejoin="round"/>
<path d="M71.5889 77.8855L71.3467 78.0198L72.1856 76.5063L72.4278 76.372L71.5889 77.8855Z" fill="#141414" stroke="#141414" stroke-width="0.392075" stroke-linejoin="round"/>
<path d="M72.6474 75.805L72.1029 76.1069L67.4495 69.4612L67.9941 69.1594L72.6474 75.805Z" fill="#141414" stroke="#141414" stroke-width="0.392075" stroke-linejoin="round"/>
<path d="M64.9751 77.7892L63.5953 75.8187L67.1564 69.3943L72.0358 76.3629L70.8382 78.5234L69.0444 75.9617C69.7486 78.5431 69.7006 81.3865 68.3758 83.7765C66.4681 87.2181 62.9931 87.7706 60.0956 83.6324C57.1729 79.4584 56.8057 73.3502 58.9678 69.4497C60.8225 66.1037 64.1364 65.3554 66.29 68.3625L64.7108 71.2114C63.4497 69.5132 61.7007 69.79 60.5984 71.7785C59.157 74.3789 59.7575 78.0797 61.4885 80.5518C63.1066 82.8628 65.3972 83.8389 66.9022 81.1238C67.9832 79.1736 67.9522 76.5943 66.8298 74.4432L64.9751 77.7892Z" fill="white"/>
</svg>
