<svg width="142" height="116" viewBox="0 0 142 116" fill="none" xmlns="http://www.w3.org/2000/svg">
<path d="M70.6665 75.9995C62.4035 75.9995 54.6266 74.2205 48.721 70.9834C42.4022 67.5324 38.9609 62.8273 38.9609 57.7286C38.9609 52.6298 42.3633 48.0074 48.5946 44.605C54.4565 41.3678 62.2043 39.584 70.4673 39.584C78.7303 39.584 86.5072 41.3678 92.3982 44.6001C98.683 48.0268 102.149 52.7221 102.158 57.8258C102.168 62.9294 98.7559 67.581 92.5197 70.998C86.6822 74.2157 78.9198 75.9995 70.6665 75.9995Z" fill="#212121"/>
<path d="M89.8862 67.6736C79.5597 73.7043 62.6457 73.7043 52.2079 67.6736C41.77 61.6428 41.7329 51.873 52.0965 45.8701C62.4602 39.8671 79.337 39.8393 89.7749 45.8701C100.213 51.9008 100.25 61.6799 89.8862 67.6736Z" fill="#F7C800"/>
<g opacity="0.4">
<path d="M89.8971 67.6729C79.5706 73.7036 62.6566 73.7036 52.2188 67.6729L89.795 45.8694C100.224 51.8723 100.261 61.6792 89.8971 67.6729Z" fill="white"/>
</g>
<path d="M71.8802 45.9092L74.6915 47.5329C77.5306 49.1705 79.9661 50.822 78.6347 52.7982L70.9524 48.3772L66.8329 48.8411L76.4497 54.4079C74.6915 55.4332 70.4792 56.1569 65.585 53.3317L63.2238 51.9678L60.9042 53.3039L58.6172 65.6112L62.848 68.0514L65.2464 55.3358C69.4957 57.5486 75.5079 58.4346 79.9939 56.4584L83.0186 58.2027L87.138 57.7388L82.4387 54.9832C83.1555 54.4457 83.6387 53.6536 83.7886 52.7704L88.0937 55.2569L92.2131 54.793L76.0229 45.4453L71.8802 45.9092Z" fill="#544A00"/>
<path d="M89.9439 45.5968C84.8409 42.651 78.0865 41.0273 70.9238 41.0273C63.7611 41.0273 57.0067 42.651 51.9455 45.5968C46.8843 48.5426 44.0312 52.5043 44.0312 56.7305C44.0312 60.9567 46.8843 64.9834 52.0568 67.9755C57.1597 70.9213 63.9188 72.545 71.1047 72.545C78.2906 72.545 85.0218 70.9213 90.0691 67.9755C95.1164 65.0298 97.988 61.0541 97.9787 56.814C97.9694 52.5739 95.1118 48.5565 89.9439 45.5968ZM89.7212 67.4003C84.776 70.2904 78.1607 71.8816 71.0908 71.8816C64.0209 71.8816 57.3871 70.2765 52.3769 67.4003C47.3667 64.5241 44.6854 60.7479 44.6854 56.7305C44.6854 52.7131 47.376 49.0019 52.2656 46.172C57.2293 43.2819 63.8632 41.6954 70.9099 41.6954C77.9566 41.6954 84.6136 43.2866 89.6099 46.172C94.6061 49.0575 97.2828 52.7873 97.2828 56.8047C97.2828 60.8221 94.6154 64.5566 89.7212 67.4003Z" fill="#544A00"/>
<path d="M103.859 42.4522V53.2565C103.859 58.0997 100.667 62.9289 94.3119 66.6262C81.5174 74.0487 60.7113 74.0487 47.8333 66.6262C41.3712 62.8918 38.1424 57.9883 38.1563 53.0895V42.2852C38.1563 47.184 41.3712 52.0875 47.8333 55.8173C60.7113 63.2397 81.5174 63.2397 94.3119 55.8173C100.667 52.1246 103.845 47.2907 103.859 42.4522Z" fill="#F7C800"/>
<g opacity="0.15">
<path d="M38.1641 42.3496C38.1641 47.2252 41.4114 52.1148 47.8411 55.8353C60.7098 63.2578 81.5159 63.2578 94.3104 55.8353C100.666 52.1241 103.848 47.3041 103.862 42.4656V46.5711C103.788 51.3494 100.615 56.1136 94.3243 59.7553C81.5298 67.1778 60.7237 67.1778 47.855 59.7553C41.4114 56.0441 38.178 51.1545 38.178 46.2696" fill="#544A00"/>
</g>
<path d="M94.1543 28.8969C107.032 36.3194 107.097 48.3809 94.3074 55.8034C81.5175 63.2259 60.7068 63.2259 47.8288 55.8034C34.9508 48.3809 34.9137 36.3194 47.7035 28.8969C60.4934 21.4745 81.3041 21.4745 94.1543 28.8969Z" fill="#FEE425"/>
<path opacity="0.15" d="M71.1167 59.7589C63.2303 59.7589 55.8078 58.0564 50.1668 54.9714C44.136 51.6777 40.8516 47.1871 40.8516 42.3207C40.8516 37.4544 44.0989 33.0426 50.0508 29.7953C55.6176 26.7103 63.0401 25.0078 70.9265 25.0078C78.8129 25.0078 86.2353 26.7103 91.8579 29.7953C97.8561 33.0426 101.168 37.5471 101.178 42.4181C101.187 47.2891 97.9304 51.7287 91.9785 54.99C86.4023 58.0564 78.9938 59.7589 71.1167 59.7589Z" fill="#544A00"/>
<path d="M89.9096 53.2734C79.5831 59.3041 62.6692 59.3041 52.2313 53.2734C41.7935 47.2426 41.7564 37.4682 52.12 31.4699C62.4836 25.4716 79.3651 25.4391 89.7983 31.4699C100.232 37.5006 100.273 47.2797 89.9096 53.2734Z" fill="#F7C800"/>
<g opacity="0.4">
<path d="M89.9127 53.2742C79.5862 59.305 62.6722 59.305 52.2344 53.2742L89.8106 31.4707C100.239 37.469 100.276 47.2806 89.9127 53.2742Z" fill="white"/>
</g>
<path d="M89.9629 31.1886C84.86 28.2382 78.1055 26.6191 70.9428 26.6191C63.7801 26.6191 57.0257 28.2382 51.9645 31.1886C46.9033 34.139 44.0781 38.0915 44.0781 42.3223C44.0781 46.5531 46.9265 50.5752 52.099 53.5627C57.202 56.5131 63.9611 58.1322 71.1469 58.1322C78.3328 58.1322 85.0641 56.5131 90.1114 53.5627C95.2143 50.6076 98.0302 46.6459 98.0256 42.4058C98.0209 38.1657 95.1308 34.153 89.9629 31.1886ZM89.7402 52.9921C84.795 55.8822 78.1797 57.4734 71.1098 57.4734C64.0399 57.4734 57.3968 55.8822 52.3959 52.9921C47.395 50.102 44.709 46.3397 44.709 42.3223C44.709 38.3049 47.3997 34.5937 52.2846 31.7638C57.2484 28.8737 63.8822 27.2825 70.9289 27.2825C77.9756 27.2825 84.6326 28.8737 89.6335 31.7638C94.6344 34.654 97.3158 38.3884 97.3204 42.4058C97.3251 46.4232 94.6344 50.1576 89.7402 52.9875V52.9921Z" fill="#544A00"/>
<path d="M104.191 42.4515V42.4051C104.191 37.1769 100.679 32.2781 94.3236 28.6086C88.0609 24.9902 79.7524 23 70.9243 23C62.0962 23 53.7598 24.9994 47.5389 28.6225C41.3179 32.2456 37.7969 37.1398 37.7969 42.3309C37.7969 42.3309 37.7969 42.3541 37.7969 42.368V53.0888C37.7969 58.331 41.2808 63.2391 47.6409 66.9132C53.9222 70.5363 62.24 72.5357 71.082 72.5357C79.924 72.5357 88.2186 70.5363 94.4535 66.9132C100.688 63.2901 104.154 58.4284 104.168 53.2605V42.4515H104.191ZM42.4313 62.07C39.8381 59.3423 38.4603 56.2759 38.4695 53.0888V46.1906C39.302 48.4799 40.6551 50.5444 42.422 52.2213L42.4313 62.07ZM49.0048 66.8993C48.6615 66.7137 48.3182 66.5282 47.9796 66.3333C46.2158 65.3421 44.5773 64.1429 43.0993 62.7612V52.8198C44.5018 54.0734 46.0335 55.1744 47.6688 56.1042C48.1002 56.3594 48.5502 56.6006 49.0048 56.8325V66.8993ZM55.5783 69.6085C53.5484 68.9808 51.5733 68.188 49.6728 67.2379V57.1666C51.577 58.0944 53.5517 58.87 55.5783 59.4861V69.6085ZM63.1307 71.3064C60.801 70.975 58.4986 70.4742 56.2417 69.808V59.6902C58.5 60.3454 60.8021 60.8384 63.1307 61.1654V71.3064ZM70.6738 71.8584C68.3732 71.8461 66.0755 71.6911 63.7941 71.3945V61.2536C66.0757 61.5479 68.3732 61.7028 70.6738 61.7175V71.8584ZM78.2169 71.3945C75.9372 71.6934 73.641 71.8483 71.3418 71.8584V61.7221C73.6408 61.7073 75.9367 61.5523 78.2169 61.2582V71.3945ZM85.7646 69.8358C83.5096 70.4904 81.2104 70.9819 78.8849 71.3064V61.1932C81.2094 60.8717 83.5084 60.3865 85.7646 59.7412V69.8358ZM92.3427 67.275C90.4414 68.222 88.4665 69.0132 86.4372 69.6409V59.5464C88.4637 58.9297 90.4383 58.1541 92.3427 57.2269V67.275ZM98.9163 62.7798C97.4638 64.1441 95.8552 65.3322 94.1241 66.3194C93.7577 66.5328 93.3865 66.7369 93.0108 66.9364V56.9021C93.5071 56.647 93.9989 56.3826 94.4767 56.1042C96.0627 55.1927 97.5504 54.12 98.9163 52.9033V62.7798ZM103.509 53.2419C103.509 56.3872 102.117 59.4118 99.5797 62.1025V52.2863C101.297 50.6626 102.626 48.6725 103.467 46.4643C103.467 46.4225 103.5 46.3808 103.518 46.339L103.509 53.2419ZM95.0612 54.9677C94.7597 55.1579 94.4535 55.3434 94.1334 55.529C93.8133 55.7145 93.4979 55.8862 93.1731 56.0625C87.1424 59.3098 79.3673 61.0587 71.0959 61.0587C62.3792 61.0587 54.1727 59.0964 47.9935 55.529C41.8143 51.9616 38.4974 47.304 38.4881 42.3495C38.4788 37.395 41.8143 32.742 47.8775 29.221C54.015 25.6535 62.1982 23.6866 70.9243 23.6866C79.6503 23.6866 87.829 25.6443 93.9896 29.2024C100.15 32.7606 103.518 37.446 103.527 42.4237C103.532 47.0906 100.535 51.5208 95.0612 54.9677Z" fill="#544A00"/>
<path d="M78.2097 43.973C79.1457 43.2848 79.6476 42.4436 79.6478 41.545C79.648 40.3735 78.7972 39.2538 77.3115 38.3961C73.6739 36.2959 68.3501 36.8479 64.7075 38.951C63.6961 39.5349 62.8347 40.2116 62.2227 40.9405C61.6118 41.6682 61.2338 42.4677 61.2337 43.2891C61.2336 44.4371 61.9663 45.5091 63.5132 46.4022C66.2446 47.9792 69.9446 48.1102 73.1038 46.7765L73.6474 46.547L73.1364 46.252L69.0421 43.8881L71.3065 42.5808L79.4259 47.2685L69.9295 52.7513L67.5884 51.3996L70.8549 49.5137L70.6504 48.9718C67.0431 49.696 63.1559 49.4392 59.9964 47.615C57.7432 46.3142 56.5515 44.6221 56.5513 42.8996C56.551 41.1302 57.8084 39.1837 60.8031 37.4547C63.7738 35.7396 67.3718 34.8627 70.8838 34.7939C74.3973 34.7252 77.8012 35.4655 80.3878 36.9588C82.8326 38.3703 84.0986 40.245 84.0988 41.9948C84.099 43.3796 83.3081 44.7719 81.513 45.8802L78.2097 43.973Z" fill="#141414" stroke="#141414" stroke-width="0.58692"/>
<path d="M60.9497 36.7016V35.9803C63.8917 34.3204 67.4293 33.4709 70.8837 33.4033C74.3311 33.3358 77.6731 34.0473 80.2409 35.4848V36.2084C77.6052 34.8146 74.274 34.1416 70.8722 34.2082C67.4468 34.2753 63.9286 35.0925 60.9497 36.7016Z" fill="#141414" stroke="#141414" stroke-width="0.58692" stroke-linejoin="round"/>
<path d="M76.8686 38.1613C73.401 36.4194 68.6168 36.8892 65.145 38.7111V37.9867C68.6001 36.0575 73.508 35.5868 76.8686 37.4324V38.1613Z" fill="#141414" stroke="#141414" stroke-width="0.58692" stroke-linejoin="round"/>
<path d="M80.8247 35.8338C82.4674 36.8819 83.5053 38.1479 83.9067 39.4173C83.2534 38.35 82.2044 37.3581 80.8247 36.5361V35.8338Z" fill="#141414" stroke="#141414" stroke-width="0.58692" stroke-linejoin="round"/>
<path d="M60.3629 37.0338C58.6467 38.0474 57.4468 39.1649 56.7386 40.3208C57.1589 38.9869 58.3049 37.6049 60.3629 36.3281V37.0338Z" fill="#141414" stroke="#141414" stroke-width="0.58692" stroke-linejoin="round"/>
<path d="M77.4497 37.7877C78.4063 38.4391 78.9122 39.1648 79.0269 39.8503C78.6552 39.3531 78.1222 38.89 77.4497 38.4822V37.7877Z" fill="#141414" stroke="#141414" stroke-width="0.58692" stroke-linejoin="round"/>
<path d="M62.219 40.9416C62.0947 41.0895 61.9802 41.2405 61.8764 41.394C61.9883 40.9121 62.2566 40.4178 62.6685 39.9272C63.1381 39.3679 63.7831 38.8274 64.5571 38.3353V39.038C63.6091 39.602 62.8011 40.2482 62.219 40.9416Z" fill="#141414" stroke="#141414" stroke-width="0.58692" stroke-linejoin="round"/>
<path d="M79.0447 41.7901C78.9676 42.3467 78.6238 42.9166 77.9497 43.4362V42.7629C78.4021 42.468 78.7691 42.1409 79.0447 41.7901Z" fill="#141414" stroke="#141414" stroke-width="0.58692" stroke-linejoin="round"/>
<path d="M68.7466 43.3812V42.6672L71.011 41.3599V42.0738L68.7466 43.3812Z" fill="#141414" stroke="#141414" stroke-width="0.58692" stroke-linejoin="round"/>
<path d="M83.9592 42.9855C83.6842 43.9505 82.9922 44.8848 81.8091 45.6867V44.9934C82.7654 44.4047 83.481 43.7234 83.9592 42.9855Z" fill="#141414" stroke="#141414" stroke-width="0.58692" stroke-linejoin="round"/>
<path d="M61.8446 43.625C62.1954 44.0869 62.699 44.5231 63.3627 44.9248V45.62C62.4055 44.9709 61.9551 44.2868 61.8446 43.625Z" fill="#141414" stroke="#141414" stroke-width="0.58692" stroke-linejoin="round"/>
<path d="M79.7176 46.0476V46.7616L71.5981 42.0738V41.3599L79.7176 46.0476Z" fill="#141414" stroke="#141414" stroke-width="0.58692" stroke-linejoin="round"/>
<path d="M77.9497 43.1118L81.2236 45.002V45.716L77.9497 43.8258V43.1118Z" fill="#141414" stroke="#141414" stroke-width="0.58692" stroke-linejoin="round"/>
<path d="M68.7466 43.0063L72.6942 45.2855V45.9995L68.7466 43.7203V43.0063Z" fill="#141414" stroke="#141414" stroke-width="0.58692" stroke-linejoin="round"/>
<path d="M59.5562 47.3492C58.0508 46.3846 57.0903 45.2332 56.7219 44.0261C57.3357 45.0089 58.3037 45.9003 59.5562 46.6473V47.3492Z" fill="#141414" stroke="#141414" stroke-width="0.58692" stroke-linejoin="round"/>
<path d="M63.9575 45.9781V45.2495C66.5169 46.5379 69.8035 46.6424 72.7004 45.5492V46.3111C69.7893 47.4788 66.4471 47.3468 63.9575 45.9781Z" fill="#141414" stroke="#141414" stroke-width="0.58692" stroke-linejoin="round"/>
<path d="M60.1372 46.9749C63.2624 48.6128 66.9673 48.8524 70.4089 48.224V49.0188C66.9243 49.6746 63.2007 49.4093 60.1372 47.6994V46.9749Z" fill="#141414" stroke="#141414" stroke-width="0.58692" stroke-linejoin="round"/>
<path d="M70.2231 52.584V51.87L79.7196 46.3872V47.1012L70.2231 52.584Z" fill="#141414" stroke="#141414" stroke-width="0.58692" stroke-linejoin="round"/>
<path d="M67.2935 50.8926V50.1787L70.4133 48.3774V49.0914L67.2935 50.8926Z" fill="#141414" stroke="#141414" stroke-width="0.58692" stroke-linejoin="round"/>
<path d="M67.2935 50.5181L69.6346 51.8697V52.5837L67.2935 51.232V50.5181Z" fill="#141414" stroke="#141414" stroke-width="0.58692" stroke-linejoin="round"/>
<path d="M68.4537 42.498L71.305 40.8518L80.0114 45.8784L69.9281 51.7001L67 50.0096L70.7068 47.8695C67.0523 48.6031 63.0872 48.3491 59.8482 46.4791C55.1841 43.7862 54.6672 39.2675 60.655 35.8105C66.6946 32.3235 75.2471 32.2627 80.5331 35.3146C85.0676 37.9326 85.8697 42.2568 81.5149 44.8309L77.654 42.6018C80.1166 41.0903 79.8581 38.816 77.1633 37.2601C73.6393 35.2255 68.4299 35.7498 64.8528 37.815C61.509 39.7456 59.979 42.6336 63.6585 44.7579C66.3015 46.2839 69.9038 46.4182 72.9883 45.1161L68.4537 42.498Z" fill="white"/>
</svg>
