<svg width="142" height="116" viewBox="0 0 142 116" fill="none" xmlns="http://www.w3.org/2000/svg">
<path d="M28.0915 93.7853C21.031 93.7853 14.3859 92.7821 9.33968 90.9566C3.94049 89.0106 1 86.3573 1 83.482C1 80.6068 3.90726 78.0001 9.2317 76.0814C14.2405 74.2559 20.8607 73.25 27.9212 73.25C34.9817 73.25 41.6269 74.2559 46.6606 76.0787C52.0307 78.0111 54.992 80.6588 55.0003 83.5368C55.0086 86.4149 52.093 89.038 46.7644 90.9649C41.7764 92.7794 35.1437 93.7853 28.0915 93.7853Z" fill="#121411"/>
<path d="M85.4905 108.998C79.7227 108.998 74.2943 107.92 70.1721 105.96C65.7615 103.869 63.3594 101.02 63.3594 97.9314C63.3594 94.8431 65.7343 92.0434 70.0839 89.9826C74.1756 88.0219 79.5836 86.9414 85.3514 86.9414C91.1191 86.9414 96.5475 88.0219 100.66 89.9796C105.046 92.0551 107.465 94.899 107.472 97.9902C107.479 101.081 105.097 103.899 100.744 105.968C96.6697 107.917 91.2514 108.998 85.4905 108.998Z" fill="#121411"/>
<path d="M58.6745 72.9413V79.8864C58.6745 82.9996 56.6199 86.1068 52.5346 88.4805C44.3132 93.2517 30.936 93.2517 22.661 88.4805C18.507 86.08 16.4286 82.928 16.4375 79.7791V72.834C16.4375 75.983 18.5041 79.1349 22.658 81.5325C30.933 86.3037 44.3102 86.3037 52.5316 81.5325C56.6199 79.1588 58.6656 76.0516 58.6745 72.9413Z" fill="#F7C800"/>
<g opacity="0.15">
<path d="M16.4531 72.8633C16.4531 76.0003 18.5405 79.1404 22.6736 81.5349C30.9486 86.3061 44.3229 86.3061 52.5442 81.5349C56.6325 79.1493 58.6782 76.051 58.6841 72.9378V75.5769C58.6335 78.6513 56.5968 81.7109 52.5502 84.0517C44.3288 88.8229 30.9546 88.8229 22.6795 84.0517C18.5316 81.6602 16.4531 78.5291 16.4531 75.3831" fill="#544A00"/>
</g>
<path d="M52.4433 64.2173C60.7183 68.9885 60.7631 76.7417 52.5387 81.5129C44.3144 86.2841 30.9401 86.2841 22.6651 81.5129C14.3901 76.7417 14.3602 68.9885 22.5846 64.2173C30.8089 59.4461 44.1832 59.4611 52.4433 64.2173Z" fill="#FEE425"/>
<path d="M37.6312 84.0677C32.5619 84.0677 27.7907 82.9763 24.1675 80.9903C20.2909 78.873 18.1797 75.9865 18.1797 72.8584C18.1797 69.7302 20.2671 66.8944 24.09 64.807C27.6863 62.821 32.4396 61.7266 37.509 61.7266C42.5784 61.7266 47.3496 62.821 50.9637 64.804C54.8195 66.9063 56.9456 69.7869 56.9516 72.918C56.9576 76.0491 54.8642 78.9029 51.0383 80.9992C47.4569 82.9733 42.6947 84.0677 37.6312 84.0677Z" fill="#141414"/>
<path d="M49.7073 79.8966C43.0694 83.7732 32.1971 83.7732 25.4876 79.8966C18.7781 76.02 18.7542 69.7399 25.416 65.8812C32.0778 62.0225 42.9263 62.0046 49.6358 65.8812C56.3453 69.7578 56.3691 76.0439 49.7073 79.8966Z" fill="#F7C800"/>
<g opacity="0.4">
<path d="M49.712 79.8982C43.074 83.7748 32.2017 83.7748 25.4922 79.8982L49.6464 65.8828C56.3499 69.7415 56.3737 76.0455 49.712 79.8982Z" fill="white"/>
</g>
<path d="M38.1349 65.9076L39.942 66.9513C41.767 68.0039 43.3325 69.0655 42.4767 70.3358L37.5385 67.494L34.8905 67.7922L41.0722 71.3706C39.942 72.0296 37.2343 72.4948 34.0883 70.6788L32.5705 69.8021L31.0795 70.6609L29.6094 78.5721L32.329 80.1406L33.8706 71.967C36.6022 73.3894 40.4668 73.959 43.3504 72.6886L45.2947 73.8099L47.9427 73.5117L44.9219 71.7404C45.3827 71.3948 45.6933 70.8857 45.7897 70.3179L48.557 71.9163L51.205 71.6181L40.7978 65.6094L38.1349 65.9076Z" fill="#544A00"/>
<path d="M49.7394 65.7068C46.4592 63.8132 42.1174 62.7695 37.5132 62.7695C32.909 62.7695 28.5672 63.8132 25.3138 65.7068C22.0605 67.6004 20.2266 70.147 20.2266 72.8636C20.2266 75.5802 22.0605 78.1686 25.3854 80.0919C28.6656 81.9855 33.0104 83.0292 37.6295 83.0292C42.2486 83.0292 46.5755 81.9855 49.8199 80.0919C53.0643 78.1984 54.9102 75.6428 54.9042 72.9173C54.8982 70.1917 53.0613 67.6093 49.7394 65.7068ZM49.5962 79.7222C46.4174 81.58 42.1651 82.6028 37.6205 82.6028C33.076 82.6028 28.8117 81.571 25.5912 79.7222C22.3706 77.8733 20.647 75.446 20.647 72.8636C20.647 70.2812 22.3766 67.8956 25.5196 66.0766C28.7103 64.2188 32.9746 63.1989 37.5042 63.1989C42.0339 63.1989 46.3131 64.2218 49.5247 66.0766C52.7363 67.9314 54.4569 70.3289 54.4569 72.9113C54.4569 75.4937 52.7422 77.8942 49.5962 79.7222Z" fill="#544A00"/>
<path d="M58.8971 72.944C58.8971 72.944 58.8971 72.9201 58.8971 72.9112C58.8971 69.5505 56.6397 66.4015 52.5514 64.0427C48.5287 61.7198 43.1849 60.4375 37.5102 60.4375C31.8355 60.4375 26.4917 61.7227 22.4809 64.0547C18.4702 66.3866 16.2188 69.5266 16.2188 72.8635V72.8873V79.7787C16.2188 83.1484 18.4612 86.3033 22.5495 88.6651C26.5842 90.994 31.9339 92.2792 37.6146 92.2792C43.2953 92.2792 48.6301 90.994 52.6379 88.6651C56.6457 86.3361 58.8762 83.211 58.8822 79.8891V72.941L58.8971 72.944ZM19.2007 85.5519C17.5338 83.7985 16.6482 81.8274 16.6541 79.7787V75.3445C17.1906 76.8118 18.0615 78.134 19.1978 79.2062L19.2007 85.5519ZM23.4233 88.6681C23.2026 88.5488 22.9819 88.4295 22.7672 88.3043C21.6319 87.6587 20.5777 86.8799 19.6272 85.9843V79.6058C20.5304 80.4103 21.5148 81.1188 22.5644 81.72C22.8447 81.881 23.131 82.0361 23.4233 82.1882V88.6681ZM27.6487 90.4095C26.3438 90.0063 25.0742 89.4967 23.8527 88.8857V82.4059C25.0761 83.0036 26.3455 83.5022 27.6487 83.8969V90.4095ZM32.5034 91.501C31.0063 91.2872 29.5264 90.9663 28.0752 90.5407V84.0221C29.5271 84.4429 31.0068 84.7608 32.5034 84.9734V91.501ZM37.3522 91.8588C35.8734 91.8493 34.3965 91.7497 32.9299 91.5606V85.027C34.3965 85.2162 35.8734 85.3158 37.3522 85.3252V91.8588ZM42.2009 91.5606C40.7354 91.7513 39.2594 91.8509 37.7816 91.8588V85.3282C39.2591 85.3237 40.7349 85.2291 42.2009 85.0449V91.5606ZM47.0556 90.5586C45.6054 90.9809 44.1264 91.2968 42.6303 91.5039V84.9883C44.1255 84.7819 45.6043 84.47 47.0556 84.0549V90.5586ZM51.2811 88.9126C50.0593 89.5223 48.7897 90.0309 47.485 90.4334V83.9297C48.7873 83.5325 50.0565 83.034 51.2811 82.4387V88.9126ZM55.5065 86.023C54.5739 86.9013 53.5398 87.6651 52.4261 88.2983C52.1906 88.4355 51.955 88.5667 51.7105 88.6949V82.2299C52.0325 82.0659 52.3486 81.8959 52.6528 81.717C53.6724 81.1326 54.6288 80.444 55.5065 79.6624V86.023ZM58.4587 79.892C58.4587 81.9138 57.5641 83.8581 55.933 85.5906V79.2688C57.0376 78.2259 57.892 76.9464 58.4319 75.5264C58.4319 75.4996 58.4557 75.4727 58.4647 75.4459L58.4587 79.892ZM53.0285 80.9924C52.8347 81.1147 52.6408 81.2339 52.4321 81.3532C52.2234 81.4725 52.0206 81.5828 51.8119 81.6961C47.9353 83.7835 42.9404 84.9078 37.6235 84.9078C32.0174 84.9078 26.7422 83.6464 22.7732 81.3532C18.8041 79.0601 16.669 76.0602 16.6631 72.8635C16.6571 69.6668 18.8041 66.6878 22.6986 64.4244C26.6438 62.1313 31.907 60.8669 37.5132 60.8669C43.1193 60.8669 48.3796 62.1283 52.3426 64.4155C56.3057 66.7027 58.4647 69.7115 58.4706 72.9112C58.4736 75.923 56.5592 78.7708 53.0285 80.9864V80.9924Z" fill="#544A00"/>
<path d="M58.6872 63.6855V70.6306C58.6872 73.7438 56.6356 76.848 52.5502 79.2247C44.3259 83.9959 30.9516 83.9959 22.6736 79.2247C18.5197 76.8242 16.4442 73.6722 16.4532 70.5232V63.5781C16.4532 66.7271 18.5197 69.8791 22.6736 72.2766C30.9516 77.0478 44.3259 77.0478 52.5502 72.2766C56.6356 69.9029 58.6782 66.7957 58.6872 63.6855Z" fill="#F7C800"/>
<g opacity="0.15">
<path d="M16.4609 63.6191C16.4609 66.7532 18.5483 69.8962 22.6814 72.2878C30.9534 77.059 44.3277 77.059 52.552 72.2878C56.6374 69.9022 58.683 66.8039 58.692 63.6937V66.3328C58.6442 69.4042 56.6046 72.4667 52.561 74.8076C44.3366 79.5788 30.9624 79.5788 22.6903 74.8076C18.5483 72.422 16.4699 69.279 16.4699 66.1389" fill="#544A00"/>
</g>
<path d="M52.4433 54.9729C60.7213 59.7441 60.7631 67.4973 52.5417 72.2685C44.3203 77.0397 30.9431 77.0397 22.6651 72.2685C14.3871 67.4973 14.3632 59.7441 22.5846 54.9729C30.8059 50.2017 44.1832 50.2017 52.4433 54.9729Z" fill="#FEE425"/>
<path opacity="0.15" d="M37.642 74.8108C32.5726 74.8108 27.8015 73.7164 24.1753 71.7334C20.2988 69.6161 18.1875 66.7296 18.1875 63.6015C18.1875 60.4734 20.2749 57.6375 24.1008 55.5501C27.6792 53.5671 32.4504 52.4727 37.5198 52.4727C42.5892 52.4727 47.3604 53.5671 50.9745 55.5501C54.8303 57.6375 56.9594 60.533 56.9654 63.6641C56.9713 66.7952 54.878 69.649 51.0521 71.7453C47.4677 73.7164 42.7055 74.8108 37.642 74.8108Z" fill="#544A00"/>
<path d="M49.7152 70.6416C43.0772 74.5182 32.2049 74.5182 25.4954 70.6416C18.7859 66.765 18.762 60.4819 25.4238 56.6262C32.0856 52.7705 42.9371 52.7496 49.6436 56.6262C56.3501 60.5028 56.3769 66.7888 49.7152 70.6416Z" fill="#F7C800"/>
<g opacity="0.4">
<path d="M49.712 70.6443C43.074 74.5209 32.2017 74.5209 25.4922 70.6443L49.6463 56.6289C56.3499 60.4846 56.3737 66.7915 49.712 70.6443Z" fill="white"/>
</g>
<path d="M49.7527 56.447C46.4725 54.5505 42.1307 53.5098 37.5265 53.5098C32.9223 53.5098 28.5806 54.5505 25.3272 56.447C22.0738 58.3436 20.2578 60.8842 20.2578 63.6038C20.2578 66.3234 22.0888 68.9088 25.4137 70.8292C28.6939 72.7258 33.0386 73.7665 37.6578 73.7665C42.2769 73.7665 46.6037 72.7258 49.8482 70.8292C53.1283 68.9297 54.9384 66.383 54.9354 63.6575C54.9325 60.932 53.0747 58.3525 49.7527 56.447ZM49.6096 70.4624C46.4308 72.3202 42.1785 73.343 37.6339 73.343C33.0893 73.343 28.8191 72.3202 25.6045 70.4624C22.3899 68.6046 20.6634 66.1862 20.6634 63.6038C20.6634 61.0214 22.3929 58.6358 25.533 56.8168C28.7237 54.959 32.9879 53.9362 37.5176 53.9362C42.0472 53.9362 46.3264 54.959 49.541 56.8168C52.7556 58.6746 54.4792 61.0751 54.4822 63.6575C54.4852 66.2399 52.7556 68.6404 49.6096 70.4594V70.4624Z" fill="#544A00"/>
<path d="M58.8971 63.6852V63.6553C58.8971 60.2946 56.6397 57.1456 52.5544 54.7869C48.5287 52.4609 43.1879 51.1816 37.5132 51.1816C31.8384 51.1816 26.4798 52.4669 22.4809 54.7958C18.4821 57.1248 16.2188 60.2708 16.2188 63.6076C16.2188 63.6076 16.2188 63.6225 16.2188 63.6315V70.5229C16.2188 73.8925 18.4582 77.0475 22.5465 79.4092C26.5842 81.7382 31.9309 83.0234 37.6146 83.0234C43.2982 83.0234 48.6301 81.7382 52.6379 79.4092C56.6457 77.0803 58.8732 73.9551 58.8822 70.6332V63.6852H58.8971ZM19.1978 76.296C17.5308 74.5426 16.6452 72.5715 16.6511 70.5229V66.0886C17.1863 67.5602 18.056 68.8873 19.1918 69.9652L19.1978 76.296ZM23.4233 79.4003C23.2026 79.281 22.9819 79.1617 22.7642 79.0365C21.6305 78.3993 20.5772 77.6284 19.6272 76.7403V70.3499C20.5287 71.1558 21.5133 71.8635 22.5644 72.4612C22.8418 72.6252 23.131 72.7802 23.4233 72.9293V79.4003ZM27.6487 81.1418C26.3439 80.7383 25.0743 80.2287 23.8527 79.618V73.144C25.0767 73.7405 26.346 74.239 27.6487 74.635V81.1418ZM32.5034 82.2332C31.0059 82.0201 29.5259 81.6982 28.0752 81.27V74.7662C29.5268 75.1874 31.0066 75.5043 32.5034 75.7145V82.2332ZM37.3522 82.588C35.8733 82.5801 34.3964 82.4805 32.9299 82.2898V75.7712C34.3965 75.9604 35.8734 76.06 37.3522 76.0694V82.588ZM42.2009 82.2898C40.7355 82.4819 39.2595 82.5815 37.7816 82.588V76.0724C39.2594 76.0628 40.7352 75.9632 42.2009 75.7742V82.2898ZM47.0526 81.2879C45.6031 81.7087 44.1252 82.0246 42.6303 82.2332V75.7324C44.1245 75.5257 45.6023 75.2138 47.0526 74.799V81.2879ZM51.2811 79.6418C50.0589 80.2505 48.7894 80.7591 47.485 81.1626V74.6738C48.7876 74.2774 50.0569 73.7788 51.2811 73.1828V79.6418ZM55.5065 76.7523C54.5729 77.6293 53.5389 78.393 52.4261 79.0275C52.1906 79.1647 51.952 79.2959 51.7105 79.4241V72.9741C52.0295 72.8101 52.3456 72.6401 52.6528 72.4612C53.6722 71.8752 54.6286 71.1857 55.5065 70.4036V76.7523ZM58.4587 70.6213C58.4587 72.6431 57.5641 74.5873 55.933 76.3169V70.007C57.0367 68.9632 57.8909 67.684 58.4319 66.2646C58.4319 66.2377 58.4527 66.2109 58.4647 66.1841L58.4587 70.6213ZM53.0285 71.7306C52.8347 71.8528 52.6379 71.9721 52.4321 72.0914C52.2263 72.2107 52.0236 72.321 51.8148 72.4343C47.9382 74.5217 42.9404 75.6459 37.6235 75.6459C32.0203 75.6459 26.7452 74.3846 22.7732 72.0914C18.8012 69.7982 16.669 66.8043 16.6631 63.6195C16.6571 60.4348 18.8012 57.4438 22.6986 55.1805C26.6438 52.8873 31.904 51.623 37.5132 51.623C43.1223 51.623 48.3796 52.8814 52.3397 55.1686C56.2998 57.4558 58.4647 60.4676 58.4706 63.6673C58.4736 66.6671 56.5473 69.515 53.0285 71.7306Z" fill="#544A00"/>
<path d="M55.2558 63.8102H62.2009C65.3141 63.8102 68.4183 61.7586 70.795 57.6733C75.5662 49.4489 75.5662 36.0747 70.795 27.7966C68.4094 23.6427 65.2425 21.5673 62.0935 21.5762H55.1484C58.2974 21.5762 61.4494 23.6427 63.8469 27.7996C68.6181 36.0747 68.6181 49.4489 63.8469 57.6733C61.4733 61.7586 58.366 63.8013 55.2558 63.8102Z" fill="#F7C800"/>
<g opacity="0.15">
<path d="M55.1797 21.5762C58.3138 21.5762 61.4419 23.6636 63.8484 27.7966C68.6195 36.0687 68.6195 49.4429 63.8484 57.6673C61.4628 61.7526 58.3645 63.7982 55.2542 63.8072H57.8933C60.9648 63.7595 64.0273 61.7198 66.3681 57.6762C71.1393 49.4519 71.1393 36.0776 66.3681 27.8056C63.9766 23.6636 60.8395 21.5762 57.6995 21.5762" fill="#544A00"/>
</g>
<path d="M46.5572 27.7151C51.3284 19.4937 59.0816 19.5384 63.8528 27.7986C68.624 36.0587 68.624 49.4479 63.8528 57.6722C59.0816 65.8966 51.3284 65.8518 46.5572 57.5738C41.786 49.2958 41.78 35.9394 46.5572 27.7151Z" fill="#FEE425"/>
<path opacity="0.15" d="M66.385 42.7651C66.385 37.6957 65.2906 32.9245 63.3076 29.2984C61.1904 25.4218 58.3038 23.3105 55.1757 23.3105C52.0476 23.3105 49.2117 25.3979 47.1243 29.2238C45.1413 32.8022 44.0469 37.5734 44.0469 42.6428C44.0469 47.7122 45.1413 52.4834 47.1243 56.0976C49.2117 59.9533 52.1072 62.0825 55.2383 62.0884C58.3694 62.0944 61.2232 60.001 63.3195 56.1751C65.2817 52.5878 66.385 47.8166 66.385 42.7651Z" fill="#544A00"/>
<path d="M62.2197 54.8421C66.0963 48.2042 66.0963 37.3318 62.2197 30.6223C58.3431 23.9128 52.06 23.889 48.2043 30.5508C44.3486 37.2126 44.3277 48.064 48.2043 54.7735C52.0809 61.483 58.364 61.5039 62.2197 54.8421Z" fill="#F7C800"/>
<g opacity="0.4">
<path d="M62.2107 54.8428C66.0873 48.2049 66.0873 37.3325 62.2107 30.623L48.1953 54.7772C52.0481 61.4807 58.355 61.5046 62.2107 54.8428Z" fill="white"/>
</g>
<path d="M55.218 60.0448C57.9436 60.0448 60.4902 58.2556 62.3897 54.9575C64.2863 51.7161 65.327 47.3862 65.327 42.7671C65.327 38.148 64.2952 33.8033 62.3897 30.5231C60.4693 27.1981 57.9018 25.3672 55.1644 25.3672C52.4269 25.3672 49.9041 27.1713 48.0076 30.4515C46.111 33.7317 45.0703 38.0377 45.0703 42.6508C45.0703 47.264 46.111 51.5968 48.0076 54.877C49.9041 58.1572 52.4746 60.0448 55.218 60.0448ZM55.218 59.6154C52.6356 59.6154 50.2053 57.856 48.3773 54.6742C46.5494 51.4925 45.5087 47.1864 45.5087 42.6449C45.5087 38.1033 46.5315 33.851 48.3893 30.6602C50.2083 27.5202 52.6177 25.7906 55.1763 25.7906C57.7348 25.7906 60.189 27.547 62.0349 30.7318C63.8807 33.9166 64.8916 38.2166 64.8916 42.7492C64.8916 47.2819 63.8688 51.5491 62.011 54.7249C60.1532 57.9008 57.7855 59.6124 55.218 59.6094V59.6154Z" fill="#544A00"/>
<path d="M55.2535 64.0269L62.2016 64.012C65.5235 64.012 68.6427 61.7875 70.9776 57.7677C73.3125 53.748 74.5918 48.4132 74.5918 42.7474C74.5918 37.0816 73.3065 31.714 70.9776 27.6794C68.6158 23.5911 65.4609 21.3426 62.0912 21.3516L55.1998 21.3665H55.176C51.8391 21.3665 48.708 23.5821 46.3642 27.6138C44.0203 31.6454 42.75 36.9623 42.75 42.646C42.75 48.3297 44.0323 53.6615 46.3552 57.6872C48.714 61.7725 51.863 64.0269 55.2237 64.0299H55.2535V64.0269ZM61.5157 24.3246C60.442 23.1908 59.1202 22.3211 57.654 21.784H62.0882C64.1369 21.784 66.108 22.6637 67.8614 24.3306L61.5157 24.3246ZM64.4977 28.5501C64.3486 28.2519 64.1995 27.9686 64.0295 27.6913C63.4318 26.6402 62.7241 25.6556 61.9183 24.754H68.2938C69.1878 25.7038 69.9638 26.7581 70.6048 27.8941C70.7301 28.1088 70.8493 28.3295 70.9686 28.5501H64.4977ZM66.2094 32.7756C65.8134 31.4729 65.3148 30.2035 64.7184 28.9795H71.1923C71.803 30.2012 72.3126 31.4708 72.7161 32.7756H66.2094ZM67.2829 37.6303C67.0726 36.1345 66.7557 34.6557 66.3346 33.205H72.8383C73.2666 34.6557 73.5885 36.1358 73.8015 37.6333L67.2829 37.6303ZM67.6407 42.479C67.6313 41.0002 67.5317 39.5234 67.3425 38.0567H73.8433C74.034 39.5233 74.1335 41.0002 74.1415 42.479H67.6407ZM67.3425 47.3278C67.5316 45.8621 67.6312 44.3862 67.6407 42.9084H74.1564C74.1499 44.3863 74.0503 45.8624 73.8582 47.3278H67.3425ZM66.3555 52.1795C66.7705 50.7292 67.0824 49.2514 67.2888 47.7572H73.7985C73.5914 49.2523 73.2755 50.7303 72.8532 52.1795H66.3555ZM64.7452 56.4079C65.3412 55.1837 65.8398 53.9144 66.2362 52.6119H72.7399C72.3364 53.9162 71.8278 55.1858 71.2191 56.4079H64.7452ZM61.9719 60.6394C62.7548 59.7619 63.4443 58.8056 64.0295 57.7856C64.2084 57.4874 64.3784 57.1624 64.5424 56.8433H71.0014C70.8732 57.0848 70.742 57.3234 70.6048 57.559C69.971 58.6722 69.2073 59.7063 68.3296 60.6394H61.9719ZM57.7405 63.5916L57.821 63.5588C59.2405 63.0177 60.5197 62.1636 61.5634 61.0598H67.8852C66.1527 62.6999 64.2084 63.5796 62.1866 63.5856L57.7405 63.5916ZM55.2118 63.5916C52.0121 63.5916 48.9943 61.4087 46.7131 57.4606C44.4318 53.5124 43.1675 48.2343 43.1675 42.6341C43.1675 37.0339 44.4318 31.7647 46.725 27.8195C48.9883 23.9221 51.9852 21.781 55.164 21.784C58.3429 21.787 61.3726 23.9608 63.6478 27.8971C65.9231 31.8333 67.2024 37.1413 67.2024 42.7474C67.2024 48.0673 66.0662 53.0711 63.9908 56.9387C63.8774 57.1475 63.7641 57.3562 63.6478 57.556C63.5315 57.7558 63.4093 57.9556 63.287 58.1524C61.0833 61.6741 58.2355 63.6005 55.2237 63.5975L55.2118 63.5916Z" fill="#544A00"/>
<path d="M105.643 87.5644V94.5124C105.643 97.6227 103.589 100.73 99.5033 103.104C91.279 107.875 77.9047 107.875 69.6297 103.104C65.4758 100.718 63.3973 97.5541 63.4063 94.4051V87.457C63.4063 90.606 65.4758 93.758 69.6297 96.1585C77.9047 100.93 91.282 100.93 99.5033 96.1585C103.589 93.7818 105.634 90.6776 105.643 87.5644Z" fill="#F7C800"/>
<g opacity="0.15">
<path d="M63.3984 87.4766C63.3984 90.6136 65.4858 93.7566 69.6189 96.1482C77.8939 100.919 91.2682 100.919 99.4895 96.1482C103.578 93.7626 105.623 90.6643 105.629 87.5541V90.1902C105.579 93.2646 103.542 96.3241 99.4955 98.668C91.2741 103.439 77.8999 103.439 69.6248 98.668C65.4858 96.2824 63.3984 93.1424 63.3984 90.0053" fill="#544A00"/>
</g>
<path d="M99.4091 78.8538C107.687 83.625 107.732 91.3782 99.5075 96.1494C91.2831 100.921 77.9089 100.921 69.6338 96.1494C61.3588 91.3782 61.329 83.625 69.5533 78.8538C77.7777 74.0826 91.146 74.0826 99.4091 78.8538Z" fill="#FEE425"/>
<path opacity="0.15" d="M84.6 98.6888C79.5306 98.6888 74.7594 97.5974 71.1363 95.6114C67.2895 93.4971 65.1484 90.6076 65.1484 87.4765C65.1484 84.3454 67.2358 81.5125 71.0588 79.4251C74.655 77.4421 79.4083 76.3477 84.4777 76.3477C89.5471 76.3477 94.3183 77.4391 97.9325 79.4251C101.788 81.5125 103.914 84.408 103.92 87.5361C103.926 90.6642 101.833 93.524 98.007 95.6173C94.4257 97.5974 89.6545 98.6888 84.6 98.6888Z" fill="#544A00"/>
<path d="M96.6839 94.5244C90.046 98.401 79.1736 98.401 72.4641 94.5244C65.7546 90.6478 65.7308 84.3647 72.3926 80.509C79.0543 76.6533 89.9028 76.6324 96.6123 80.509C103.322 84.3856 103.346 90.6687 96.6839 94.5244Z" fill="#F7C800"/>
<g opacity="0.4">
<path d="M96.6807 94.5232C90.0428 98.3998 79.1704 98.3998 72.4609 94.5232L96.6151 80.5078C103.319 84.3635 103.342 90.6675 96.6807 94.5232Z" fill="white"/>
</g>
<path d="M85.1037 80.5344L86.9107 81.5781C88.7357 82.6308 90.3013 83.6924 89.4454 84.9657L84.5073 82.1119L81.8592 82.4101L88.0409 85.9885C86.9107 86.6445 84.2031 87.1097 81.0571 85.2937L79.5392 84.417L78.0482 85.2758L76.5781 93.187L79.2977 94.7585L80.8364 86.5849C83.5709 88.0043 87.4356 88.5739 90.3192 87.3036L92.2634 88.4248L94.9114 88.1266L91.8758 86.3732C92.3359 86.0284 92.6464 85.5204 92.7435 84.9537L95.5078 86.5491L98.1559 86.2509L87.7517 80.2422L85.1037 80.5344Z" fill="#544A00"/>
<path d="M96.7159 80.322C93.4357 78.4285 89.094 77.3848 84.4897 77.3848C79.8855 77.3848 75.5438 78.4285 72.2904 80.322C69.037 82.2156 67.2031 84.7622 67.2031 87.4788C67.2031 90.1954 69.0371 92.7838 72.362 94.7072C75.6422 96.6007 79.9869 97.6444 84.6061 97.6444C89.2252 97.6444 93.552 96.6007 96.7965 94.7072C100.041 92.8136 101.881 90.261 101.881 87.5355C101.881 84.8099 100.038 82.2335 96.7159 80.322ZM96.5728 94.3374C93.394 96.1922 89.1417 97.215 84.5971 97.215C80.0525 97.215 75.7793 96.1922 72.5677 94.3374C69.3561 92.4826 67.6236 90.0582 67.6236 87.4788C67.6236 84.8994 69.3531 82.5108 72.4962 80.6918C75.6869 78.837 79.9512 77.8142 84.4808 77.8142C89.0105 77.8142 93.2866 78.831 96.5132 80.6978C99.7397 82.5645 101.451 84.9531 101.454 87.5355C101.457 90.1179 99.7188 92.5184 96.5728 94.3374Z" fill="#544A00"/>
<path d="M105.857 87.568C105.857 87.568 105.857 87.5471 105.857 87.5352C105.857 84.1745 103.6 81.0255 99.5116 78.6667C95.4889 76.3437 90.1452 75.0645 84.4704 75.0645C78.7957 75.0645 73.4519 76.3467 69.4412 78.6786C65.4304 81.0106 63.179 84.1506 63.179 87.4904V87.5143L63.1641 94.4057C63.1641 97.7724 65.4035 100.93 69.4948 103.289C73.5295 105.618 78.8792 106.903 84.5599 106.903C90.2406 106.903 95.5754 105.618 99.5832 103.289C103.591 100.96 105.822 97.838 105.827 94.513L105.842 87.568H105.857ZM66.161 100.179C64.494 98.4224 63.6084 96.4513 63.6143 94.4057V89.9714C64.1517 91.4374 65.0225 92.7584 66.158 93.8302L66.161 100.179ZM70.3835 103.283C70.1628 103.164 69.9421 103.048 69.7274 102.922C68.5926 102.275 67.5386 101.495 66.5874 100.599V94.2297C67.4892 95.0361 68.4737 95.7448 69.5247 96.344C69.805 96.505 70.0912 96.6601 70.3835 96.8121V103.283ZM74.609 105.028C73.3044 104.622 72.0349 104.111 70.8129 103.501V97.0209C72.0369 97.6173 73.3062 98.1159 74.609 98.5119V105.028ZM79.4636 106.116C77.9684 105.901 76.4905 105.579 75.0414 105.153V98.6461C76.4932 99.0669 77.973 99.3847 79.4696 99.5973L79.4636 106.116ZM84.3124 106.474C82.8336 106.464 81.3568 106.365 79.8901 106.176V99.654C81.3569 99.8417 82.8336 99.9413 84.3124 99.9522V106.474ZM89.1611 106.176C87.6954 106.365 86.2196 106.464 84.7418 106.474V99.9552C86.2196 99.9457 87.6954 99.8461 89.1611 99.657V106.176ZM94.0158 105.171C92.5657 105.594 91.0867 105.911 89.5905 106.119V99.6122C91.0858 99.4058 92.5646 99.0939 94.0158 98.6789V105.171ZM98.2413 103.528C97.0192 104.136 95.7497 104.643 94.4452 105.045V98.5536C95.748 98.1578 97.0173 97.6592 98.2413 97.0626V103.528ZM102.467 100.635C101.534 101.514 100.5 102.279 99.3864 102.913C99.1508 103.048 98.9152 103.179 98.6707 103.31V96.8569C98.9927 96.6899 99.3088 96.5199 99.613 96.344C100.633 95.7585 101.589 95.069 102.467 94.2864V100.635ZM105.419 94.5041C105.419 96.5259 104.524 98.4701 102.893 100.203V93.8898C103.997 92.8453 104.852 91.565 105.392 90.1444C105.405 90.1183 105.416 90.0914 105.425 90.0639L105.419 94.5041ZM99.9887 95.6044C99.7949 95.7267 99.6011 95.849 99.3923 95.9653C99.1836 96.0816 98.9808 96.1979 98.7721 96.3112C94.8955 98.3837 89.9006 99.5228 84.5837 99.5228C78.9776 99.5228 73.7024 98.2584 69.7334 95.9653C65.7644 93.6721 63.6293 90.6841 63.6233 87.4785C63.6173 84.2729 65.7614 81.3028 69.6589 79.0395C73.604 76.7463 78.8673 75.4849 84.4734 75.4849C90.0796 75.4849 95.3398 76.7433 99.3029 79.0305C103.266 81.3177 105.425 84.3265 105.431 87.5262C105.434 90.547 103.507 93.3948 99.9887 95.6104V95.6044Z" fill="#544A00"/>
<path d="M105.648 78.3066V85.2546C105.648 88.3648 103.596 91.4721 99.5111 93.8457C91.2868 98.6169 77.9126 98.6169 69.6345 93.8457C65.4806 91.4601 63.4051 88.2963 63.4141 85.1473V78.1992C63.4141 81.3482 65.4806 84.5002 69.6345 86.8977C77.9126 91.6689 91.2868 91.6689 99.5111 86.8977C103.596 84.524 105.639 81.4198 105.648 78.3066Z" fill="#F7C800"/>
<g opacity="0.15">
<path d="M63.3984 78.2324C63.3984 81.3695 65.4858 84.5095 69.6189 86.9041C77.8909 91.6753 91.2652 91.6753 99.4895 86.9041C103.575 84.5185 105.621 81.4202 105.629 78.31V80.946C105.582 84.0205 103.542 87.08 99.4985 89.4209C91.2741 94.1921 77.8999 94.1921 69.6278 89.4209C65.4858 87.0263 63.3984 83.8982 63.3984 80.7492" fill="#544A00"/>
</g>
<path d="M99.4199 69.5862C107.698 74.3574 107.74 82.1106 99.5183 86.8818C91.2969 91.653 77.9197 91.653 69.6417 86.8818C61.3636 82.1106 61.3398 74.3574 69.5611 69.5862C77.7825 64.815 91.1597 64.815 99.4199 69.5862Z" fill="#FEE425"/>
<path opacity="0.15" d="M84.6078 89.4338C79.5384 89.4338 74.7672 88.3424 71.1441 86.3564C67.2675 84.2392 65.1562 81.3526 65.1562 78.2245C65.1562 75.0964 67.2436 72.2605 71.0695 70.1731C74.6628 68.1871 79.4191 67.0957 84.4885 67.0957C89.5579 67.0957 94.3291 68.1871 97.9433 70.1731C101.799 72.2605 103.928 75.1531 103.934 78.2842C103.94 81.4153 101.847 84.272 98.0208 86.3654C94.4245 88.3394 89.6742 89.4338 84.6078 89.4338Z" fill="#544A00"/>
<path d="M96.6839 85.2685C90.046 89.1451 79.1736 89.1451 72.4641 85.2685C65.7546 81.3919 65.7308 75.1089 72.3926 71.2531C79.0543 67.3974 89.9058 67.3765 96.6123 71.2531C103.319 75.1297 103.346 81.4128 96.6839 85.2685Z" fill="#F7C800"/>
<g opacity="0.4">
<path d="M96.6807 85.2693C90.0428 89.1459 79.1704 89.1459 72.4609 85.2693L96.6151 71.2539C103.319 75.1096 103.342 81.4136 96.6807 85.2693Z" fill="white"/>
</g>
<path d="M85.1115 71.2764L86.9186 72.3201C88.7405 73.3727 90.3061 74.4343 89.4503 75.7047L84.5151 72.8658L81.867 73.164L88.0487 76.7424C86.9156 77.4014 84.2079 77.8666 81.0649 76.0506L79.5441 75.1739L78.0531 76.0327L76.5859 83.9439L79.3055 85.5154L80.8442 77.3388C83.5787 78.7582 87.4434 79.3278 90.327 78.0575L92.2712 79.1787L94.9192 78.8805L91.8806 77.1271C92.3423 76.7832 92.654 76.275 92.7513 75.7076L95.5156 77.303L98.1637 77.0048L87.7595 70.9961L85.1115 71.2764Z" fill="#544A00"/>
<path d="M96.7215 71.0759C93.4413 69.1824 89.0995 68.1387 84.4953 68.1387C79.8911 68.1387 75.5493 69.1824 72.296 71.0759C69.0426 72.9695 67.2266 75.5161 67.2266 78.2327C67.2266 80.9493 69.0575 83.5377 72.3824 85.4611C75.6626 87.3547 80.0074 88.3984 84.6265 88.3984C89.2456 88.3984 93.5725 87.3547 96.8169 85.4611C100.097 83.5616 101.907 81.0119 101.904 78.2864C101.901 75.5609 100.043 72.9755 96.7215 71.0759ZM96.5783 85.0913C93.3995 86.9461 89.1472 87.9689 84.6027 87.9689C80.0581 87.9689 75.7879 86.9461 72.5733 85.0883C69.3587 83.2306 67.6321 80.8122 67.6321 78.2297C67.6321 75.6473 69.3617 73.2617 72.5017 71.4427C75.6924 69.5879 79.9567 68.5651 84.4863 68.5651C89.016 68.5651 93.2952 69.5849 96.5098 71.4368C99.7243 73.2886 101.448 75.695 101.451 78.2775C101.454 80.8599 99.7244 83.2604 96.5783 85.0913Z" fill="#544A00"/>
<path d="M105.867 78.3121V78.2793C105.867 74.9186 103.609 71.7696 99.5239 69.4108C95.4982 67.0879 90.1575 65.8086 84.4827 65.8086C78.808 65.8086 73.4493 67.0909 69.4505 69.4228C65.4516 71.7547 63.1883 74.8947 63.2032 78.2316C63.2032 78.2316 63.2032 78.2495 63.2032 78.2555V85.1468C63.2032 88.5165 65.4427 91.6715 69.531 94.0332C73.5477 96.3621 78.9153 97.6474 84.5811 97.6474C90.2469 97.6474 95.6145 96.3621 99.6104 94.0392C103.606 91.7162 105.846 88.5881 105.855 85.2631L105.87 78.3181L105.867 78.3121ZM66.1673 90.923C64.5004 89.1666 63.6147 87.1955 63.6207 85.1468V80.7126C64.1572 82.1792 65.0269 83.5011 66.1613 84.5743L66.1673 90.923ZM70.3928 94.0392C70.1721 93.9199 69.9515 93.8006 69.7338 93.6753C68.5994 93.0298 67.5462 92.251 66.5967 91.3554V84.9739C67.4989 85.7798 68.4834 86.4884 69.534 87.0881C69.8113 87.2491 70.1006 87.4042 70.3928 87.5563V94.0392ZM74.6183 95.7836C73.3134 95.3792 72.0437 94.8686 70.8222 94.2568V87.777C72.0468 88.3721 73.316 88.8706 74.6183 89.268V95.7836ZM79.473 96.872C77.9733 96.6543 76.4914 96.3284 75.0387 95.8969V89.3902C76.4906 89.811 77.9704 90.1289 79.467 90.3415L79.473 96.872ZM84.3217 97.2299C82.843 97.219 81.3662 97.1194 79.8994 96.9317V90.3952C81.3661 90.5843 82.8429 90.6839 84.3217 90.6934V97.2299ZM89.1704 96.9317C87.7049 97.1223 86.229 97.2219 84.7511 97.2299V90.6963C86.2289 90.6868 87.7047 90.5872 89.1704 90.3981V96.9317ZM94.0221 95.9297C92.5727 96.3515 91.0948 96.6685 89.5998 96.878V90.3564C91.094 90.1497 92.5718 89.8378 94.0221 89.423V95.9297ZM98.2506 94.2837C97.0284 94.8924 95.7589 95.401 94.4545 95.8045V89.2978C95.7571 88.9014 97.0264 88.4028 98.2506 87.8068V94.2837ZM102.473 91.3852C101.539 92.2622 100.505 93.0259 99.3927 93.6604C99.1571 93.7976 98.9186 93.9288 98.677 94.057V87.598C98.9961 87.434 99.3122 87.2641 99.6193 87.0881C100.638 86.5012 101.594 85.8117 102.473 85.0305V91.3852ZM105.425 85.2542C105.425 87.276 104.531 89.2202 102.9 90.9528V84.631C104.003 83.5872 104.857 82.308 105.398 80.8885C105.398 80.8617 105.419 80.8349 105.431 80.808L105.425 85.2542ZM99.9951 86.3546C99.8012 86.4768 99.6044 86.5961 99.3987 86.7154C99.1929 86.8347 98.9901 86.948 98.7814 87.0583C94.9048 89.1457 89.907 90.2699 84.5901 90.2699C78.9869 90.2699 73.7118 89.0085 69.7397 86.7154C65.7677 84.4222 63.6296 81.4283 63.6266 78.2316C63.6237 75.0349 65.7647 72.0559 69.6622 69.7925C73.6074 67.4994 78.8676 66.235 84.4768 66.235C90.0859 66.235 95.3431 67.4964 99.3032 69.7836C103.263 72.0708 105.428 75.0796 105.431 78.2793C105.455 81.2911 103.517 84.1389 99.998 86.3546H99.9951Z" fill="#544A00"/>
<path d="M105.669 69.0527V75.9977C105.669 79.1109 103.614 82.2182 99.529 84.5918C91.3076 89.363 77.9334 89.363 69.6554 84.5918C65.5015 82.1913 63.4141 79.0394 63.4141 75.8904V68.9453C63.4141 72.0943 65.5015 75.2522 69.6554 77.6378C77.9334 82.409 91.3076 82.409 99.529 77.6378C103.614 75.2701 105.66 72.1629 105.669 69.0527Z" fill="#F7C800"/>
<g opacity="0.15">
<path d="M63.4297 68.9863C63.4297 72.1234 65.5171 75.2634 69.6501 77.658C77.9252 82.4292 91.2994 82.4292 99.5208 77.658C103.609 75.2724 105.655 72.1711 105.661 69.0609V71.6999C105.61 74.7744 103.573 77.8339 99.5267 80.1748C91.3054 84.946 77.9311 84.946 69.6561 80.1748C65.5141 77.7892 63.4356 74.6462 63.4356 71.5061" fill="#544A00"/>
</g>
<path d="M99.4288 60.3401C107.704 65.1113 107.749 72.8645 99.5242 77.6357C91.2999 82.4069 77.9286 82.4069 69.6506 77.6357C61.3726 72.8645 61.3457 65.1113 69.5701 60.3401C77.7944 55.5689 91.1687 55.5689 99.4288 60.3401Z" fill="#FEE425"/>
<path opacity="0.15" d="M84.6156 80.179C79.5462 80.179 74.775 79.0846 71.1519 77.1016C67.2753 74.9844 65.1641 72.0978 65.1641 68.9697C65.1641 65.8416 67.2515 63.0057 71.0744 60.9183C74.6707 58.9323 79.424 57.8379 84.4934 57.8379C89.5628 57.8379 94.3339 58.9323 97.9481 60.9153C101.804 63.0176 103.933 65.8982 103.936 69.0293C103.939 72.1604 101.849 75.0142 98.0227 77.1105C94.4413 79.0846 89.679 80.179 84.6156 80.179Z" fill="#544A00"/>
<path d="M96.6995 76.0079C90.0616 79.8845 79.1892 79.8845 72.4798 76.0079C65.7703 72.1313 65.7464 65.8512 72.4082 61.9925C79.07 58.1338 89.9185 58.1159 96.628 61.9925C103.337 65.8691 103.37 72.1552 96.6995 76.0079Z" fill="#F7C800"/>
<g opacity="0.4">
<path d="M96.712 76.0115C90.074 79.8881 79.2017 79.8881 72.4922 76.0115L96.6464 61.9961C103.35 65.8548 103.383 72.1587 96.712 76.0115Z" fill="white"/>
</g>
<path d="M85.1193 62.02L86.9264 63.0637C88.7513 64.1164 90.3169 65.178 89.4611 66.4483L84.5229 63.5975L81.8749 63.8957L88.0565 67.4741C86.9264 68.1331 84.2187 68.5983 81.0727 66.7823L79.5549 65.9056L78.0639 66.7644L76.5938 74.6756L79.3133 76.2441L80.8431 68.0526C83.5746 69.475 87.4393 70.0446 90.3258 68.7743L92.2701 69.8955L94.9181 69.5973L91.8795 67.8439C92.34 67.4976 92.6513 66.989 92.7502 66.4215L95.5145 68.0198L98.1625 67.7216L87.7554 61.7129L85.1193 62.02Z" fill="#544A00"/>
<path d="M96.7286 61.8123C93.4484 59.9187 89.1066 58.875 84.5024 58.875C79.8982 58.875 75.5564 59.9187 72.3031 61.8123C69.0497 63.7058 67.2158 66.2525 67.2188 68.9691C67.2217 71.6857 69.0497 74.274 72.3746 76.1974C75.6548 78.091 79.9996 79.1347 84.6187 79.1347C89.2378 79.1347 93.5647 78.091 96.8091 76.1974C100.054 74.3039 101.899 71.7483 101.893 69.0227C101.887 66.2972 100.051 63.7207 96.7286 61.8123ZM96.5854 75.8276C93.4066 77.6854 89.1543 78.7083 84.6097 78.7083C80.0652 78.7083 75.792 77.6854 72.5804 75.8276C69.3688 73.9699 67.6362 71.5515 67.6362 68.9691C67.6362 66.3866 69.3658 64.001 72.5088 62.182C75.6996 60.3242 79.9638 59.3014 84.4935 59.3014C89.0231 59.3014 93.3023 60.3242 96.5139 62.182C99.7255 64.0398 101.452 66.4403 101.458 69.0227C101.464 71.6051 99.7315 74.0057 96.5854 75.8247V75.8276Z" fill="#544A00"/>
<path d="M105.874 69.0553C105.874 69.0553 105.874 69.0315 105.874 69.0225C105.874 65.6618 103.616 62.5128 99.5309 60.1541C95.5052 57.8311 90.1615 56.5488 84.4897 56.5488C78.818 56.5488 73.4564 57.8341 69.4575 60.166C65.4587 62.4979 63.1953 65.638 63.1953 68.9748V68.9897V75.8811C63.1953 79.2508 65.4378 82.4057 69.5261 84.7675C73.5607 87.0964 78.9104 88.3816 84.5911 88.3816C90.2718 88.3816 95.6066 87.0964 99.6144 84.7675C103.622 82.4385 105.853 79.3134 105.862 75.9914V69.0434L105.874 69.0553ZM66.1773 81.6632C64.5104 79.9098 63.6247 77.9387 63.6307 75.8901V71.4558C64.1663 72.9279 65.0371 74.2551 66.1743 75.3324L66.1773 81.6632ZM70.3998 84.7675C70.1792 84.6482 69.9585 84.5289 69.7438 84.4037C68.6103 83.7657 67.5563 82.996 66.6037 82.1105V75.7171C67.507 76.5216 68.4914 77.2301 69.541 77.8313C69.8213 77.9924 70.1076 78.1474 70.3998 78.2965V84.7675ZM74.6253 86.5089C73.3204 86.1057 72.0508 85.5961 70.8292 84.9851V78.5112C72.0527 79.1089 73.3221 79.6075 74.6253 80.0022V86.5089ZM79.48 87.6004C77.9834 87.3873 76.5044 87.0654 75.0547 86.6372V80.1334C76.5055 80.5545 77.9843 80.8724 79.48 81.0847V87.6004ZM84.3287 87.9582C82.8499 87.9487 81.3731 87.8491 79.9064 87.66V81.1384C81.3731 81.3275 82.8499 81.427 84.3287 81.4366V87.9582ZM89.1774 87.66C87.7119 87.8507 86.236 87.9503 84.7581 87.9582V81.4395C86.2359 81.4301 87.7118 81.3305 89.1774 81.1413V87.66ZM94.0321 86.658C92.582 87.0806 91.103 87.3965 89.6068 87.6033V81.0996C91.1021 80.8932 92.5809 80.5813 94.0321 80.1662V86.658ZM98.2576 85.012C97.0359 85.6217 95.7663 86.1303 94.4615 86.5328V80.041C95.7639 79.6438 97.0331 79.1453 98.2576 78.55V85.012ZM102.471 82.1284C101.539 83.0066 100.504 83.7705 99.3908 84.4037C99.1552 84.5408 98.9196 84.672 98.6751 84.8003V78.3412C98.9972 78.1772 99.3132 78.0073 99.6174 77.8284C100.637 77.2439 101.593 76.5553 102.471 75.7738V82.1284ZM105.423 75.9974C105.423 78.0192 104.529 79.9635 102.901 81.696V75.3742C104.003 74.3303 104.857 73.0511 105.397 71.6318C105.397 71.6049 105.42 71.5781 105.429 71.5512L105.423 75.9974ZM99.9961 77.0978C99.8023 77.22 99.6055 77.3393 99.3997 77.4586C99.194 77.5779 98.9882 77.6882 98.7795 77.8015C94.9029 79.8889 89.908 81.0131 84.5911 81.0131C78.985 81.0131 73.7128 79.7517 69.7408 77.4586C65.7688 75.1654 63.6456 72.1715 63.6426 68.9897C63.6396 65.8079 65.7926 62.7991 69.6692 60.5358C73.6144 58.2426 78.8776 56.9782 84.4868 56.9782C90.0959 56.9782 95.3502 58.2396 99.3132 60.5268C103.276 62.814 105.453 65.8228 105.453 69.0225C105.453 72.0343 103.524 74.8821 100.008 77.0978H99.9961Z" fill="#544A00"/>
<path d="M105.671 59.7939L105.656 66.739C105.656 69.8522 103.604 72.9565 99.519 75.3301C91.2946 80.1013 77.9204 80.1013 69.6453 75.3301C65.4884 72.9445 63.413 69.7776 63.4219 66.6287V59.6836C63.4219 62.8326 65.4884 65.9846 69.6453 68.3821C77.9204 73.1533 91.2946 73.1533 99.519 68.3821C103.616 66.0054 105.662 62.9041 105.671 59.7939Z" fill="#F7C800"/>
<g opacity="0.15">
<path d="M63.4453 59.7207C63.4453 62.8548 65.5327 65.9829 69.6658 68.3894C77.9408 73.1606 91.3121 73.1606 99.5364 68.3894C103.622 66.0038 105.67 62.9055 105.676 59.7953V62.4343C105.626 65.5058 103.589 68.5683 99.5424 70.9091C91.318 75.6803 77.9468 75.6803 69.6717 70.9091C65.5297 68.5236 63.4513 65.3805 63.4513 62.2375" fill="#544A00"/>
</g>
<path d="M99.4358 51.0979C107.714 55.8691 107.756 63.6223 99.5342 68.3935C91.3129 73.1647 77.9357 73.1647 69.6696 68.3935C61.4035 63.6223 61.3647 55.8691 69.5891 51.0979C77.8134 46.3267 91.1757 46.3267 99.4358 51.0979Z" fill="#FEE425"/>
<path opacity="0.15" d="M84.6264 70.9202C79.557 70.9202 74.7858 69.8258 71.1597 67.8427C67.301 65.7255 65.1719 62.8389 65.1719 59.7108C65.1719 56.5827 67.2593 53.7468 71.0852 51.6594C74.6785 49.6764 79.4348 48.582 84.5042 48.582C89.5735 48.582 94.3447 49.6764 97.9589 51.6594C101.815 53.7618 103.941 56.6424 103.947 59.7735C103.953 62.9046 101.859 65.7583 98.0335 67.8547C94.4521 69.8258 89.6898 70.9202 84.6264 70.9202Z" fill="#544A00"/>
<path d="M96.7092 66.7548C90.0713 70.6314 79.1959 70.6314 72.4864 66.7548C65.777 62.8783 65.7561 56.5952 72.4149 52.7395C79.0737 48.8837 89.9281 48.8629 96.6376 52.7395C103.347 56.6161 103.368 62.9021 96.7092 66.7548Z" fill="#F7C800"/>
<g opacity="0.4">
<path d="M96.7228 66.7517C90.0848 70.6283 79.2095 70.6283 72.5 66.7517L96.6542 52.7363C103.361 56.592 103.382 62.899 96.7228 66.7517Z" fill="white"/>
</g>
<path d="M85.1271 52.7652L86.9342 53.8089C88.7562 54.8615 90.3217 55.9231 89.4659 57.1935L84.5307 54.3427L81.8827 54.6409L88.0644 58.2193C86.9312 58.8783 84.2235 59.3435 81.0805 57.5275L79.5627 56.6507L78.0717 57.5096L76.6016 65.4208L79.3211 66.9893L80.8479 58.7978C83.5824 60.2202 87.4471 60.7898 90.3307 59.5164L92.2749 60.6407L94.9229 60.3425L91.8843 58.589C92.3466 58.2445 92.6584 57.7351 92.755 57.1666L95.5193 58.762L98.1673 58.4638L87.7632 52.4551L85.1271 52.7652Z" fill="#544A00"/>
<path d="M96.7472 52.5564C93.467 50.6599 89.1252 49.6191 84.521 49.6191C79.9168 49.6191 75.575 50.6599 72.3217 52.5564C69.0683 54.453 67.2344 56.9936 67.2344 59.7132C67.2344 62.4328 69.0653 65.0182 72.3902 66.9386C75.6704 68.8351 80.0182 69.8758 84.6343 69.8758C89.2505 69.8758 93.5803 68.8351 96.8277 66.9386C100.075 65.042 101.915 62.4924 101.912 59.7639C101.909 57.0354 100.066 54.4619 96.7472 52.5564ZM96.6011 66.5718C93.4252 68.4296 89.1699 69.4524 84.6254 69.4524C80.0808 69.4524 75.8106 68.4296 72.596 66.5718C69.3814 64.714 67.6548 62.2956 67.6548 59.7132C67.6548 57.1308 69.3844 54.7452 72.5274 52.9262C75.6704 51.1072 79.9824 50.0456 84.5121 50.0456C89.0417 50.0456 93.3179 51.0684 96.5325 52.9262C99.7471 54.784 101.471 57.1845 101.474 59.7669C101.477 62.3493 99.7471 64.7498 96.6011 66.5688V66.5718Z" fill="#544A00"/>
<path d="M105.89 59.7945V59.7617C105.89 56.404 103.633 53.255 99.5473 50.8962C95.5216 48.5703 90.1809 47.291 84.5062 47.291C78.8314 47.291 73.4728 48.5763 69.4739 50.9052C65.4751 53.2341 63.2117 56.3801 63.2266 59.717C63.2266 59.717 63.2266 59.7319 63.2266 59.7408V66.6322C63.2266 70.0019 65.4661 73.1568 69.5544 75.5186C73.5801 77.8475 78.9179 79.1268 84.6105 79.1268C90.3032 79.1268 95.626 77.8416 99.6338 75.5126C103.642 73.1837 105.869 70.0586 105.878 66.7366V59.7886L105.89 59.7945ZM66.1937 72.4054C64.5238 70.652 63.6381 68.6809 63.6441 66.6322V62.198C64.1807 63.6644 65.0516 64.9856 66.1878 66.0567L66.1937 72.4054ZM70.4162 75.5096C70.1956 75.3874 69.9749 75.2711 69.7602 75.1458C68.6242 74.5048 67.5699 73.7288 66.6201 72.8348V66.4593C67.5217 67.2651 68.5063 67.9728 69.5574 68.5705C69.8347 68.7345 70.124 68.8896 70.4162 69.0387V75.5096ZM74.6417 77.2511C73.3369 76.8477 72.0673 76.338 70.8456 75.7273V69.2534C72.0696 69.8499 73.339 70.3484 74.6417 70.7444V77.2511ZM79.4964 78.3425C77.9989 78.1295 76.5189 77.8076 75.0681 77.3794V70.8756C76.5197 71.2968 77.9996 71.6137 79.4964 71.8239V78.3425ZM84.3451 78.6974C82.8663 78.6895 81.3893 78.5899 79.9228 78.3992V71.8806C81.3895 72.0697 82.8663 72.1693 84.3451 72.1788V78.6974ZM89.1939 78.3992C87.7285 78.5913 86.2524 78.6909 84.7745 78.6974V72.1817C86.2523 72.1722 87.7282 72.0726 89.1939 71.8835V78.3992ZM94.0485 77.3972C92.5979 77.8177 91.1191 78.1336 89.6233 78.3425V71.8418C91.1185 71.6351 92.5972 71.3232 94.0485 70.9084V77.3972ZM98.274 75.7512C97.0519 76.3599 95.7823 76.8685 94.4779 77.272V70.7772C95.7807 70.3813 97.0501 69.8828 98.274 69.2862V75.7512ZM102.5 72.8646C101.566 73.7423 100.532 74.5061 99.4191 75.1399C99.1835 75.277 98.945 75.4082 98.7034 75.5365V69.0834C99.0255 68.9194 99.3386 68.7495 99.6458 68.5705C100.666 67.9853 101.622 67.2958 102.5 66.513V72.8646ZM105.452 66.7336C105.452 68.7554 104.557 70.6997 102.926 72.4292V66.1164C104.031 65.0734 104.885 63.794 105.425 62.374C105.425 62.3471 105.446 62.3203 105.458 62.2934L105.452 66.7336ZM100.021 67.834C99.8276 67.9562 99.6308 68.0755 99.4251 68.1948C99.2193 68.3141 99.0166 68.4244 98.8078 68.5377C94.9312 70.6251 89.9364 71.7493 84.6165 71.7493C79.0133 71.7493 73.7382 70.488 69.7691 68.1948C65.8001 65.9016 63.659 62.9077 63.6531 59.711C63.6471 56.5143 65.7911 53.5353 69.6886 51.272C73.6338 48.9758 78.897 47.7145 84.5032 47.7145C90.1093 47.7145 95.3696 48.9729 99.3297 51.2601C103.29 53.5472 105.458 56.565 105.458 59.7647C105.458 62.7765 103.54 65.6243 100.021 67.8399V67.834Z" fill="#544A00"/>
<path d="M105.679 50.539V57.4841C105.679 60.5943 103.625 63.7015 99.5394 66.0752C91.3181 70.8464 77.9438 70.8464 69.6658 66.0752C65.5119 63.6896 63.4364 60.5257 63.4453 57.3767V50.4316C63.4453 53.5806 65.5119 56.7326 69.6658 59.1301C77.9438 63.9013 91.3181 63.9013 99.5394 59.1301C103.625 56.7624 105.67 53.6492 105.679 50.539Z" fill="#F7C800"/>
<g opacity="0.15">
<path d="M63.4609 50.4609C63.4609 53.595 65.5483 56.7231 69.6844 59.1296C77.9564 63.9008 91.3307 63.9008 99.555 59.1296C103.64 56.744 105.686 53.6457 105.692 50.5355V53.1746C105.641 56.246 103.605 59.3055 99.561 61.6494C91.3366 66.4206 77.9624 66.4206 69.6903 61.6494C65.5454 59.2638 63.4669 56.1208 63.4669 52.9777" fill="#544A00"/>
</g>
<path d="M99.4433 41.8273C107.718 46.5985 107.763 54.3517 99.5387 59.1229C91.3144 63.894 77.9431 63.894 69.6651 59.1229C61.3871 54.3517 61.3632 46.5985 69.5846 41.8273C77.8059 37.0561 91.1832 37.0591 99.4433 41.8273Z" fill="#FEE425"/>
<path opacity="0.15" d="M84.6312 61.6663C79.5619 61.6663 74.7907 60.5719 71.1675 58.5888C67.2909 56.4716 65.1797 53.5821 65.1797 50.4569C65.1797 47.3318 67.2671 44.4929 71.093 42.4055C74.6714 40.4225 79.4426 39.3281 84.512 39.3281C89.5814 39.3281 94.3526 40.4225 97.9667 42.4055C101.822 44.4929 103.952 47.3885 103.955 50.5196C103.958 53.6506 101.867 56.5044 98.0443 58.5978C94.4599 60.5719 89.6947 61.6663 84.6312 61.6663Z" fill="#544A00"/>
<path d="M96.723 57.497C90.0851 61.3736 79.2127 61.3736 72.5032 57.497C65.7937 53.6204 65.7698 47.3374 72.4316 43.4817C79.0934 39.6259 89.9419 39.6051 96.6514 43.4817C103.361 47.3582 103.373 53.6413 96.723 57.497Z" fill="#F7C800"/>
<g opacity="0.4">
<path d="M96.7198 57.4978C90.0818 61.3744 79.2095 61.3744 72.5 57.4978L96.6542 43.4824C103.37 47.3381 103.37 53.6421 96.7198 57.4978Z" fill="white"/>
</g>
<path d="M85.1427 43.5081L86.9528 44.5518C88.7748 45.6045 90.3403 46.6631 89.4845 47.9364L84.5463 45.0856L81.8983 45.3838L88.083 48.9622C86.9498 49.6182 84.2421 50.0834 81.0991 48.2704L79.5783 47.3758L78.0873 48.2376L76.6172 56.1488L79.3368 57.7173L80.8665 49.5258C83.598 50.9452 87.4627 51.5177 90.3493 50.2444L92.3055 51.3955L94.9535 51.0973L91.9148 49.3409C92.376 48.9966 92.6877 48.4886 92.7856 47.9215L95.5499 49.5168L98.1979 49.2186L87.7907 43.2129L85.1427 43.5081Z" fill="#544A00"/>
<path d="M96.7607 43.2966C93.4805 41.4031 89.1387 40.3594 84.5345 40.3594C79.9303 40.3594 75.5885 41.4031 72.3351 43.2966C69.0818 45.1902 67.2479 47.7368 67.2658 50.4534C67.2836 53.17 69.0967 55.7584 72.4216 57.6788C75.7018 59.5724 80.0466 60.6161 84.6657 60.6161C89.2848 60.6161 93.6117 59.5724 96.8561 57.6788C100.101 55.7852 101.946 53.2326 101.943 50.5041C101.94 47.7756 100.095 45.2051 96.7607 43.2966ZM96.6175 57.312C93.4387 59.1698 89.1864 60.1926 84.6418 60.1926C80.0973 60.1926 75.8241 59.1698 72.6125 57.312C69.4009 55.4542 67.6713 53.0358 67.6683 50.4534C67.6653 47.871 69.3979 45.4824 72.5409 43.6664C75.7316 41.8086 79.9959 40.7858 84.5255 40.7858C89.0552 40.7858 93.3344 41.8086 96.546 43.6664C99.7576 45.5242 101.487 47.9247 101.49 50.5041C101.493 53.0835 99.7635 55.493 96.6175 57.312Z" fill="#544A00"/>
<path d="M105.905 50.5388V50.5C105.905 47.1423 103.648 43.9933 99.5622 41.6345C95.5365 39.3086 90.1928 38.0293 84.521 38.0293C78.8492 38.0293 73.4876 39.3116 69.4888 41.6435C65.4899 43.9754 63.2266 47.1184 63.2266 50.4553V50.5V57.3914C63.2266 60.7611 65.466 63.916 69.5544 66.2748C73.592 68.6067 78.9387 69.8889 84.6194 69.8889C90.3001 69.8889 95.6349 68.6067 99.6427 66.2748C103.65 63.9428 105.881 60.8237 105.89 57.4988V50.5537L105.905 50.5388ZM66.2056 63.1496C64.5386 61.3962 63.653 59.4251 63.659 57.3765V52.9423C64.1952 54.4081 65.065 55.7291 66.1996 56.801L66.2056 63.1496ZM70.4281 66.2539C70.2074 66.1316 69.9868 66.0153 69.772 65.8901C68.6377 65.2465 67.5837 64.4708 66.632 63.579V57.2006C67.5338 58.0069 68.5183 58.7156 69.5693 59.3148C69.8496 59.4758 70.1358 59.6309 70.4281 59.783V66.2539ZM74.6536 67.9954C73.3529 67.591 72.0874 67.0813 70.8694 66.4716V59.9977C72.0926 60.5936 73.3609 61.0921 74.6625 61.4887L74.6536 67.9954ZM79.5172 69.0838C78.0207 68.8718 76.5417 68.5508 75.0919 68.1236V61.6199C76.5428 62.04 78.0216 62.3568 79.5172 62.5681V69.0838ZM84.3659 69.4416C82.8881 69.4322 81.4123 69.3326 79.9466 69.1434V62.6248C81.4123 62.8139 82.8881 62.9135 84.3659 62.923V69.4416ZM89.2147 69.1434C87.7501 69.3341 86.2752 69.4337 84.7983 69.4416V62.926C86.2751 62.9165 87.75 62.8169 89.2147 62.6278V69.1434ZM94.0693 68.1415C92.6198 68.5623 91.1419 68.8782 89.647 69.0868V62.5831C91.1414 62.3788 92.6193 62.0678 94.0693 61.6527V68.1415ZM98.2948 66.4954C97.0736 67.1054 95.8039 67.6131 94.4987 68.0133V61.5334C95.8022 61.1393 97.0717 60.6407 98.2948 60.0424V66.4954ZM102.52 63.6029C101.589 64.4832 100.554 65.2481 99.4399 65.8811C99.2073 66.0183 98.9688 66.1495 98.7272 66.2778V59.8277C99.0463 59.6607 99.3624 59.4937 99.6695 59.3148C100.689 58.7296 101.644 58.04 102.52 57.2572V63.6029ZM105.472 57.4749C105.472 59.4967 104.578 61.4409 102.95 63.1705V56.8606C104.053 55.8161 104.907 54.5371 105.449 53.1182C105.449 53.0884 105.47 53.0645 105.478 53.0347L105.472 57.4749ZM100.045 58.5753C99.8514 58.6945 99.6546 58.8168 99.4489 58.9331C99.2431 59.0494 99.0374 59.1657 98.8286 59.279C94.952 61.3515 89.9572 62.4906 84.6403 62.4906C79.0341 62.4906 73.762 61.2292 69.7899 58.9361C65.8179 56.6429 63.6798 53.649 63.6768 50.4523C63.6739 47.2556 65.8149 44.2766 69.7094 42.0103C73.6576 39.7171 78.9178 38.4557 84.527 38.4557C90.1361 38.4557 95.3904 39.7141 99.3534 42.0013C103.317 44.2885 105.461 47.3063 105.475 50.5C105.481 53.5178 103.552 56.3686 100.036 58.5842L100.045 58.5753Z" fill="#544A00"/>
<path d="M105.698 41.2802V48.2282C105.698 51.3384 103.643 54.4457 99.558 56.8193C91.3337 61.5905 77.9594 61.5905 69.6844 56.8193C65.5305 54.4337 63.452 51.2698 63.461 48.1209V41.1758C63.461 44.3218 65.5305 47.4738 69.6844 49.8743C77.9594 54.6455 91.3337 54.6455 99.558 49.8743C103.643 47.5006 105.689 44.3934 105.698 41.2802Z" fill="#F7C800"/>
<g opacity="0.15">
<path d="M63.4609 41.2051C63.4609 44.3392 65.5483 47.4673 69.6814 49.8737C77.9564 54.6449 91.3307 54.6449 99.552 49.8737C103.637 47.4881 105.686 44.3898 105.692 41.2796V43.9187C105.641 46.9901 103.605 50.0497 99.558 52.3935C91.3366 57.1647 77.9624 57.1647 69.6873 52.3935C65.5454 50.0079 63.4669 46.8649 63.4669 43.7219" fill="#544A00"/>
</g>
<path d="M99.456 32.5695C107.734 37.3407 107.779 45.0938 99.5544 49.865C91.33 54.6362 77.9558 54.6362 69.6807 49.865C61.4057 45.0938 61.3759 37.3407 69.6002 32.5695C77.8245 27.7983 91.1958 27.8013 99.456 32.5695Z" fill="#FEE425"/>
<path d="M84.6469 52.4084C79.5775 52.4084 74.8063 51.3141 71.1832 49.328C67.3215 47.2198 65.1953 44.3243 65.1953 41.1991C65.1953 38.074 67.2827 35.2351 71.1086 33.1477C74.7049 31.1647 79.4582 30.0703 84.5276 30.0703C89.597 30.0703 94.3682 31.1617 97.9824 33.1477C101.838 35.2351 103.964 38.1306 103.97 41.2617C103.976 44.3928 101.883 47.2466 98.0569 49.34C94.4726 51.3141 89.7103 52.4084 84.6469 52.4084Z" fill="#141414"/>
<path d="M96.7308 48.2412C90.0929 52.1178 79.2205 52.1178 72.511 48.2412C65.8015 44.3646 65.7777 38.0815 72.4394 34.2258C79.1012 30.3701 89.9497 30.3492 96.6592 34.2258C103.369 38.1024 103.393 44.3855 96.7308 48.2412Z" fill="#F7C800"/>
<g opacity="0.4">
<path d="M96.7276 48.24C90.0897 52.1166 79.2173 52.1166 72.5078 48.24L96.662 34.2246C103.366 38.0803 103.389 44.3843 96.7276 48.24Z" fill="white"/>
</g>
<path d="M85.1464 34.2525L86.9595 35.2932C88.7815 36.3458 90.347 37.4074 89.4912 38.6807L84.556 35.8299L81.908 36.1281L88.0896 39.7065C86.9595 40.3626 84.2518 40.8278 81.1058 39.0117L79.588 38.135L78.097 38.9968L76.6328 46.923L79.3524 48.4945L80.8792 40.3029C83.6137 41.7224 87.4783 42.2919 90.3619 41.0216L92.3062 42.1428L94.9542 41.8446L91.9155 40.0882C92.3772 39.7444 92.689 39.2362 92.7863 38.6688L95.5506 40.2642L98.1986 39.966L87.7944 33.9453L85.1464 34.2525Z" fill="#544A00"/>
<path d="M96.7706 34.0408C93.4904 32.1472 89.1486 31.1035 84.5444 31.1035C79.9402 31.1035 75.5985 32.1472 72.3451 34.0408C69.0917 35.9344 67.2578 38.481 67.2578 41.1976C67.2578 43.9142 69.0798 46.5055 72.4077 48.414C75.6879 50.3076 80.0327 51.3513 84.6518 51.3513C89.2709 51.3513 93.5978 50.3076 96.8422 48.414C100.087 46.5204 101.932 43.9649 101.912 41.2393C101.891 38.5138 100.093 35.9493 96.7706 34.0408ZM96.6275 48.0562C93.4487 49.911 89.1964 50.9338 84.6518 50.9338C80.1072 50.9338 75.834 49.911 72.6224 48.0562C69.4108 46.2014 67.6783 43.777 67.6783 41.1976C67.6783 38.6181 69.4078 36.2296 72.5509 34.4135C75.7386 32.5557 80.0058 31.5329 84.5355 31.5329C89.0651 31.5329 93.3413 32.5557 96.5559 34.4135C99.7705 36.2713 101.494 38.6718 101.497 41.2572C101.5 43.8426 99.7735 46.2342 96.6275 48.0562Z" fill="#544A00"/>
<path d="M105.913 41.2848C105.913 41.2848 105.913 41.2639 105.913 41.252C105.913 37.8942 103.655 34.7452 99.567 32.3865C95.5413 30.0605 90.2006 28.7812 84.5258 28.7812C78.8511 28.7812 73.5073 30.0635 69.4966 32.3954C65.4858 34.7273 63.2344 37.8674 63.2344 41.2072V41.2311L63.2374 48.1165C63.2374 51.4832 65.4768 54.6411 69.5681 56.9999C73.6028 59.3288 78.9525 60.6141 84.6332 60.6141C90.3139 60.6141 95.6487 59.3288 99.6565 56.9999C103.664 54.6709 105.895 51.5488 105.901 48.2239V41.2788L105.913 41.2848ZM66.2164 53.8956C64.5494 52.1422 63.6638 50.1681 63.6668 48.1225V43.6882C64.2041 45.1542 65.0749 46.4752 66.2104 47.5469L66.2164 53.8956ZM70.4389 56.9969C70.2182 56.8776 69.9975 56.7613 69.7828 56.6361C68.6475 55.994 67.5933 55.2181 66.6428 54.325V47.9465C67.5435 48.7543 68.5282 49.4631 69.5801 50.0608C69.8604 50.2218 70.1466 50.3769 70.4389 50.5289V56.9969ZM74.6644 58.7414C73.3596 58.3364 72.0901 57.8258 70.8683 57.2146V50.7436C72.0923 51.3401 73.3616 51.8386 74.6644 52.2346V58.7414ZM79.5161 59.8298C78.0186 59.6177 76.5386 59.2968 75.0878 58.8696V52.3659C76.5398 52.7856 78.0195 53.1025 79.5161 53.3141V59.8298ZM84.3648 60.1876C82.886 60.1781 81.4092 60.0785 79.9425 59.8894V53.3708C81.4093 53.5585 82.8861 53.6581 84.3648 53.669V60.1876ZM89.2135 59.8894C87.7478 60.0786 86.272 60.1782 84.7942 60.1876V53.672C86.272 53.6625 87.7478 53.5629 89.2135 53.3738V59.8894ZM94.0682 58.8845C92.6222 59.3102 91.1472 59.6301 89.6549 59.8417V53.329C91.1501 53.1226 92.6289 52.8107 94.0801 52.3957L94.0682 58.8845ZM98.3026 57.2504C97.0806 57.8586 95.8111 58.3662 94.5066 58.7682V52.2704C95.8092 51.8826 97.0786 51.391 98.3026 50.8003V57.2504ZM102.528 54.3578C101.595 55.2365 100.561 56.0013 99.4477 56.6361C99.2122 56.7732 98.9766 56.9044 98.7321 57.0327V50.5737C99.0541 50.4067 99.3702 50.2367 99.6744 50.0608C100.694 49.4753 101.65 48.7857 102.528 48.0032V54.3578ZM105.48 48.2268C105.48 50.2486 104.586 52.1929 102.955 53.9254V47.6066C104.061 46.5638 104.917 45.2845 105.459 43.8642C105.459 43.8344 105.483 43.8105 105.492 43.7807L105.48 48.2268ZM100.05 49.3302C99.8563 49.4495 99.6624 49.5717 99.4537 49.688C99.245 49.8043 99.0422 49.9206 98.8334 50.0339C94.9568 52.1064 89.962 53.2455 84.6451 53.2455C79.039 53.2455 73.7638 51.9812 69.7948 49.691C65.8257 47.4008 63.6847 44.4039 63.6787 41.2042C63.6727 38.0046 65.8168 35.0285 69.7143 32.7652C73.6594 30.472 78.9227 29.2107 84.5288 29.2107C90.135 29.2107 95.3952 30.4691 99.3553 32.7563C103.315 35.0434 105.48 38.0523 105.486 41.252C105.489 44.2638 103.563 47.1116 100.044 49.3302H100.05Z" fill="#544A00"/>
<path d="M105.711 32.0136V38.9617C105.711 42.0719 103.656 45.1791 99.5737 47.5528C91.3493 52.324 77.9751 52.324 69.697 47.5528C65.5431 45.1672 63.4676 42.0033 63.4766 38.8543V31.9062C63.4766 35.0552 65.5431 38.2072 69.697 40.6077C77.9751 45.3789 91.3493 45.3789 99.5737 40.6077C103.671 38.243 105.702 35.1387 105.711 32.0136Z" fill="#F7C800"/>
<g opacity="0.15">
<path d="M63.4688 31.9492C63.4688 35.0863 65.5561 38.2263 69.6892 40.6209C77.9612 45.3921 91.3355 45.3921 99.5598 40.6209C103.645 38.2353 105.691 35.137 105.697 32.0267V34.6628C105.646 37.7373 103.609 40.7968 99.5658 43.1377C91.3415 47.9089 77.9672 47.9089 69.6952 43.1377C65.5502 40.7521 63.4747 37.612 63.4747 34.469" fill="#544A00"/>
</g>
<path d="M99.4746 23.3147C107.753 28.0859 107.794 35.8391 99.573 40.6103C91.3516 45.3815 77.9744 45.3815 69.6963 40.6103C61.4183 35.8391 61.3945 28.0859 69.6158 23.3147C77.8372 18.5435 91.2144 18.5435 99.4746 23.3147Z" fill="#FEE425"/>
<path opacity="0.15" d="M84.6558 43.1506C79.5864 43.1506 74.8152 42.0592 71.1921 40.0732C67.3304 37.959 65.1953 35.0694 65.1953 31.9413C65.1953 28.8132 67.2827 25.9773 71.1086 23.8899C74.7019 21.9039 79.4582 20.8125 84.5276 20.8125C89.597 20.8125 94.3682 21.9039 97.9824 23.8899C101.838 25.9773 103.967 28.8699 103.97 32.0009C103.973 35.132 101.874 37.9769 98.0659 40.0643C94.4845 42.0562 89.7222 43.1506 84.6558 43.1506Z" fill="#544A00"/>
<path d="M96.7386 38.9853C90.1007 42.8619 79.2283 42.8619 72.5188 38.9853C65.8093 35.1087 65.7855 28.8257 72.4473 24.9699C79.109 21.1142 89.9575 21.0933 96.667 24.9699C103.377 28.8465 103.4 35.1296 96.7386 38.9853Z" fill="#F7C800"/>
<g opacity="0.4">
<path d="M96.7276 38.9861C90.0897 42.8627 79.2173 42.8627 72.5078 38.9861L96.662 24.9707C103.357 28.8264 103.389 35.1304 96.7276 38.9861Z" fill="white"/>
</g>
<path d="M85.174 24.9936L86.9632 26.0492C88.7852 27.1019 90.3507 28.1635 89.4949 29.4368L84.5776 26.5741L81.9295 26.8723L88.1142 30.4507C86.981 31.1067 84.2734 31.5719 81.1304 29.7559L79.6096 28.8792L78.1186 29.738L76.6484 37.679L79.365 39.2505L80.8948 31.059C83.6293 32.4784 87.491 33.048 90.3775 31.7777L92.3218 32.8989L94.9698 32.6007L91.9312 30.8204C92.3928 30.4766 92.7046 29.9684 92.8019 29.401L95.5662 30.9964L98.2142 30.6982L87.81 24.6895L85.174 24.9936Z" fill="#544A00"/>
<path d="M96.7762 24.7849C93.496 22.8914 89.1542 21.8477 84.55 21.8477C79.9458 21.8477 75.604 22.8914 72.3506 24.7849C69.0973 26.6785 67.2812 29.2251 67.2812 31.9417C67.2812 34.6583 69.0764 37.2467 72.4133 39.1701C75.6935 41.0636 80.0382 42.1073 84.6573 42.1073C89.2765 42.1073 93.6033 41.0636 96.8477 39.1701C100.092 37.2765 101.938 34.7209 101.935 31.9954C101.932 29.2698 100.089 26.6934 96.7762 24.7849ZM96.633 38.8003C93.4542 40.6551 89.2019 41.6779 84.6573 41.6779C80.1128 41.6779 75.8426 40.6551 72.628 38.7973C69.4134 36.9395 67.6868 34.5211 67.6868 31.9387C67.6868 29.3563 69.4164 26.9707 72.5564 25.1517C75.7471 23.2969 80.0114 22.2741 84.541 22.2741C89.0707 22.2741 93.3499 23.2969 96.5644 25.1547C99.779 27.0125 101.503 29.41 101.506 31.9924C101.509 34.5748 99.791 36.9783 96.633 38.8003Z" fill="#544A00"/>
<path d="M105.921 32.0269V31.9941C105.921 28.6334 103.664 25.4844 99.5786 23.1257C95.5529 20.8027 90.2121 19.5234 84.5374 19.5234C78.8627 19.5234 73.504 20.8057 69.5052 23.1376C65.5063 25.4695 63.243 28.6096 63.2579 31.9494V31.9733V38.8647C63.2579 42.2313 65.4974 45.3893 69.5857 47.748C73.6233 50.077 78.97 51.3622 84.6507 51.3622C90.3314 51.3622 95.6692 50.077 99.677 47.748C103.685 45.4191 105.912 42.2969 105.921 38.972L105.936 32.0269H105.921ZM66.222 44.6378C64.555 42.8814 63.6694 40.9103 63.6754 38.8647V34.4304C64.2126 35.8957 65.0823 37.2165 66.216 38.2891L66.222 44.6378ZM70.4445 47.7391C70.2238 47.6198 70.0032 47.5035 69.7885 47.3753C68.6547 46.7335 67.6015 45.9586 66.6514 45.0672V38.6887C67.5515 39.4958 68.5352 40.2046 69.5857 40.803C69.866 40.964 70.1552 41.1191 70.4445 41.2711V47.7391ZM74.673 49.4835C73.364 49.0797 72.0904 48.5691 70.865 47.9568V41.4858C72.0895 42.081 73.3588 42.5795 74.661 42.9768L74.673 49.4835ZM79.5127 50.572C78.0204 50.356 76.5455 50.0331 75.0994 49.6058V43.1051C76.5464 43.525 78.0212 43.8429 79.5127 44.0563V50.572ZM84.3615 50.9298C82.8837 50.9188 81.408 50.8192 79.9422 50.6316V44.11C81.4078 44.2991 82.8837 44.3986 84.3615 44.4082V50.9298ZM89.2102 50.6316C87.7457 50.8224 86.2707 50.922 84.7939 50.9298V44.4142C86.2707 44.4047 87.7455 44.3051 89.2102 44.116V50.6316ZM94.0649 49.6297C92.6189 50.0545 91.1439 50.3734 89.6515 50.5839V44.0712C91.1458 43.8645 92.6235 43.5526 94.0738 43.1379L94.0649 49.6297ZM98.2993 47.9925C97.0783 48.6008 95.8097 49.1084 94.5062 49.5104V43.0126C95.808 42.6167 97.0764 42.1182 98.2993 41.5216V47.9925ZM102.528 45.1C101.594 45.9786 100.559 46.7425 99.4444 47.3753C99.2118 47.5124 98.9733 47.6437 98.7317 47.7719V41.3159C99.0508 41.1489 99.3669 40.9789 99.674 40.803C100.693 40.216 101.649 39.5266 102.528 38.7454V45.1ZM105.48 38.969C105.48 40.9908 104.585 42.9351 102.954 44.6676V38.3458C104.058 37.3016 104.913 36.0226 105.456 34.6034L105.486 34.5229L105.48 38.969ZM100.053 40.0634C99.8589 40.1857 99.6621 40.3079 99.4563 40.4242C99.2506 40.5405 99.0478 40.6568 98.8391 40.7702C94.9625 42.8576 89.9646 43.9818 84.6477 43.9818C79.0416 43.9818 73.7694 42.7174 69.7974 40.4242C65.8254 38.1311 63.6873 35.1372 63.6843 31.9405C63.6813 28.7438 65.8224 25.7648 69.7169 23.5014C73.665 21.2083 78.9253 19.9439 84.5344 19.9439C90.1436 19.9439 95.4008 21.2053 99.3609 23.4925C103.321 25.7797 105.486 28.7885 105.489 31.9882C105.498 34.994 103.569 37.8538 100.053 40.0634Z" fill="#544A00"/>
<path d="M105.718 22.7695V29.7175C105.718 32.8277 103.664 35.935 99.5785 38.3086C91.3571 43.0798 77.9799 43.0798 69.7048 38.3086C65.5509 35.9081 63.4755 32.7562 63.4844 29.6102V22.6621C63.4844 25.8111 65.5509 28.9631 69.7048 31.3606C77.9829 36.1318 91.3571 36.1318 99.5785 31.3606C103.667 28.9869 105.709 25.8797 105.718 22.7695Z" fill="#F7C800"/>
<g opacity="0.15">
<path d="M63.4766 22.6914C63.4766 25.8285 65.564 28.9536 69.697 31.3631C77.972 36.1342 91.3463 36.1342 99.5677 31.3631C103.656 28.9775 105.702 25.8792 105.708 22.7689V25.405C105.657 28.4795 103.62 31.539 99.5736 33.8799C91.3523 38.651 77.978 38.651 69.703 33.8799C65.561 31.4943 63.4825 28.3512 63.4825 25.2112" fill="#544A00"/>
</g>
<path d="M99.4913 14.0538C107.766 18.825 107.811 26.5782 99.5867 31.3494C91.3624 36.1206 77.9911 36.1206 69.7131 31.3494C61.4351 26.5782 61.4082 18.825 69.6326 14.0538C77.8569 9.28265 91.2222 9.28563 99.4913 14.0538Z" fill="#FEE425"/>
<path d="M84.6781 33.8928C79.6087 33.8928 74.8375 32.8014 71.2144 30.8154C67.3527 28.6982 65.2266 25.8116 65.2266 22.6835C65.2266 19.5554 67.314 16.7195 71.1369 14.6321C74.7332 12.6461 79.4865 11.5547 84.5559 11.5547C89.6253 11.5547 94.3905 12.6282 98.0076 14.6232C101.863 16.7106 103.993 19.6031 103.995 22.7342C103.998 25.8653 101.908 28.722 98.0822 30.8154C94.5038 32.7984 89.7415 33.8928 84.6781 33.8928Z" fill="#141414"/>
<path d="M96.7542 29.7275C90.1163 33.6041 79.2439 33.6041 72.5344 29.7275C65.825 25.8509 65.8011 19.5678 72.4629 15.7121C79.1247 11.8564 89.9732 11.8355 96.6827 15.7121C103.392 19.5887 103.416 25.8718 96.7542 29.7275Z" fill="#F7C800"/>
<g opacity="0.4">
<path d="M96.7432 29.7302C90.1053 33.6068 79.2329 33.6068 72.5234 29.7302L96.6776 15.7148C103.381 19.5706 103.405 25.8745 96.7432 29.7302Z" fill="white"/>
</g>
<path d="M85.174 15.7375L86.9811 16.7812C88.806 17.8339 90.3716 18.8955 89.5157 20.1658L84.5776 17.318L81.9295 17.6162L88.1112 21.1946C86.9811 21.8536 84.2734 22.3188 81.1274 20.5028L79.6096 19.6261L78.1186 20.4849L76.6484 28.3961L79.368 29.9647L80.8978 21.7731C83.6293 23.1955 87.494 23.7651 90.3775 22.4948L92.3218 23.616L94.9698 23.3178L91.9431 21.5763C92.4038 21.2308 92.7144 20.7217 92.8108 20.1539L95.5781 21.7522L98.2262 21.454L87.819 15.4453L85.174 15.7375Z" fill="#544A00"/>
<path d="M96.7862 15.5291C93.5061 13.6355 89.1643 12.5918 84.5601 12.5918C79.9559 12.5918 75.6141 13.6355 72.3607 15.5291C69.1074 17.4226 67.2734 19.9693 67.2734 22.6859C67.2734 25.4025 69.1074 27.9908 72.4323 29.9142C75.7125 31.8078 80.0573 32.8515 84.6764 32.8515C89.2955 32.8515 93.6224 31.8078 96.8668 29.9142C100.111 28.0206 101.948 25.4531 101.942 22.7395C101.936 20.0259 100.108 17.4375 96.7862 15.5291ZM96.6431 29.5444C93.4643 31.4022 89.212 32.4251 84.6674 32.4251C80.1229 32.4251 75.8497 31.4022 72.638 29.5444C69.4264 27.6867 67.6939 25.2683 67.6939 22.6859C67.6939 20.1034 69.4235 17.7178 72.5665 15.8988C75.7572 14.041 80.0215 13.0212 84.5511 13.0212C89.0808 13.0212 93.3599 14.044 96.5715 15.8988C99.7832 17.7536 101.51 20.1571 101.516 22.7395C101.522 25.3219 99.7891 27.7224 96.6431 29.5415V29.5444Z" fill="#544A00"/>
<path d="M105.935 22.7682C105.935 22.7682 105.935 22.7444 105.935 22.7354C105.935 19.3747 103.678 16.2257 99.5927 13.867C95.567 11.544 90.2233 10.2617 84.5485 10.2617C78.8738 10.2617 73.5301 11.547 69.5193 13.8789C65.5085 16.2108 63.2571 19.3508 63.2571 22.6877V22.7116L63.2422 29.6029C63.2422 32.9726 65.4846 36.1276 69.573 38.4893C73.6076 40.8182 78.9573 42.1035 84.638 42.1035C90.3187 42.1035 95.6535 40.8182 99.6613 38.4893C103.669 36.1604 105.9 33.0382 105.909 29.7133V22.7682H105.935ZM66.2391 35.3791C64.5722 33.6257 63.6865 31.6546 63.6925 29.6059V25.1717C64.2302 26.6382 65.1021 27.9594 66.2391 29.0304V35.3791ZM70.4616 38.4833C70.2409 38.364 70.0203 38.2448 69.8056 38.1195C68.6709 37.4777 67.6167 36.7029 66.6655 35.8115V29.433C67.5688 30.2375 68.5532 30.946 69.6028 31.5472C69.8831 31.7082 70.1694 31.8633 70.4616 32.0154V38.4833ZM74.6871 40.2278C73.3825 39.8223 72.113 39.3117 70.891 38.701V32.2301C72.115 32.8266 73.3843 33.3251 74.6871 33.7211V40.2278ZM79.5418 41.3162C78.0448 41.1044 76.5649 40.7855 75.1135 40.362V33.8493C76.5654 34.2701 78.0452 34.588 79.5418 34.8006V41.3162ZM84.3905 41.6741C82.9118 41.6631 81.435 41.5635 79.9682 41.3759V34.8542C81.4349 35.0434 82.9117 35.143 84.3905 35.1524V41.6741ZM89.2392 41.3759C87.7737 41.5666 86.2978 41.6662 84.8199 41.6741V35.1554C86.2974 35.1509 87.7733 35.0563 89.2392 34.8721V41.3759ZM94.0939 40.3739C92.6397 40.7983 91.1568 41.1172 89.6567 41.3282V34.8155C91.152 34.6091 92.6307 34.2972 94.082 33.8821L94.0939 40.3739ZM98.3194 38.7279C97.0977 39.3376 95.8281 39.8462 94.5233 40.2487V33.7569C95.8261 33.361 97.0954 32.8624 98.3194 32.2659V38.7279ZM102.545 35.8383C101.612 36.7166 100.578 37.4804 99.4645 38.1136C99.2289 38.2507 98.9933 38.3819 98.7488 38.5102V32.0571C99.0709 31.8931 99.387 31.7231 99.6911 31.5442C100.711 30.9608 101.668 30.2721 102.545 29.4896V35.8383ZM105.497 29.7073C105.497 31.7291 104.602 33.6734 102.971 35.4059V29.09C104.073 28.0462 104.924 26.7668 105.461 25.3476C105.461 25.3208 105.485 25.294 105.494 25.2671L105.497 29.7073ZM100.067 30.8196C99.873 30.9419 99.6792 31.0611 99.4705 31.1804C99.2617 31.2997 99.0589 31.41 98.8502 31.5234C94.9736 33.6107 89.9788 34.735 84.6619 34.735C79.0557 34.735 73.7835 33.4736 69.8115 31.1804C65.8395 28.8873 63.7133 25.8874 63.7133 22.6907C63.7133 19.494 65.8544 16.515 69.7489 14.2516C73.6941 11.9585 78.9573 10.6941 84.5635 10.6941C90.1696 10.6941 95.4299 11.9555 99.3929 14.2427C103.356 16.5299 105.515 19.5387 105.521 22.7384C105.512 25.7502 103.586 28.598 100.067 30.8196Z" fill="#544A00"/>
<path d="M105.726 13.5253V20.4704C105.726 23.5836 103.675 26.6879 99.5893 29.0645C91.3649 33.8357 77.9907 33.8357 69.7127 29.0645C65.5587 26.6789 63.4833 23.512 63.4922 20.363V13.418C63.4922 16.567 65.5587 19.7189 69.7156 22.1165C77.9907 26.8876 91.3649 26.8876 99.5893 22.1165C103.666 19.7309 105.717 16.6236 105.726 13.5253Z" fill="#F7C800"/>
<g opacity="0.15">
<path d="M63.5 13.4336C63.5 16.5707 65.5874 19.6958 69.7204 22.1052C77.9925 26.8764 91.3668 26.8764 99.5911 22.1052C103.676 19.7196 105.722 16.6184 105.731 13.5081V16.1472C105.683 19.2187 103.644 22.2812 99.6 24.622C91.3757 29.3932 78.0014 29.3932 69.7294 24.622C65.5874 22.2364 63.509 19.0934 63.509 15.9534" fill="#544A00"/>
</g>
<path d="M99.4872 4.79993C107.765 9.57113 107.807 17.3243 99.5856 22.0955C91.3642 26.8667 77.987 26.8667 69.712 22.0955C61.4369 17.3243 61.4071 9.57113 69.6315 4.79993C77.8558 0.0287397 91.2271 0.0317217 99.4872 4.79993Z" fill="#FEE425"/>
<path opacity="0.15" d="M84.6889 24.6389C79.6195 24.6389 74.8483 23.5445 71.2222 21.5615C67.3605 19.4443 65.2344 16.5577 65.2344 13.4296C65.2344 10.3015 67.3218 7.4656 71.1477 5.3782C74.741 3.39517 79.4973 2.30078 84.5667 2.30078C89.636 2.30078 94.3983 3.38623 98.0065 5.36627C101.862 7.45367 103.991 10.3492 103.997 13.4803C104.003 16.6114 101.91 19.4651 98.084 21.5615C94.5146 23.5445 89.7523 24.6389 84.6889 24.6389Z" fill="#544A00"/>
<path d="M96.7572 20.4697C90.1163 24.3463 79.2439 24.3463 72.5344 20.4697C65.825 16.5931 65.8011 10.31 72.4629 6.45431C79.1247 2.59859 89.9761 2.57772 96.6856 6.45431C103.395 10.3309 103.416 16.617 96.7572 20.4697Z" fill="#F7C800"/>
<g opacity="0.4">
<path d="M96.754 20.4685C90.1131 24.3451 79.2407 24.3451 72.5312 20.4685L96.6854 6.45312C103.392 10.3088 103.413 16.6158 96.754 20.4685Z" fill="white"/>
</g>
<path d="M96.7996 6.2732C93.5194 4.37665 89.1746 3.33594 84.5734 3.33594C79.9722 3.33594 75.6274 4.37964 72.3741 6.2732C69.1207 8.16677 67.3047 10.7134 67.3047 13.43C67.3047 16.1466 69.1356 18.735 72.4606 20.6554C75.7408 22.5519 80.0855 23.5956 84.7046 23.5956C89.3237 23.5956 93.6506 22.5519 96.895 20.6554C100.175 18.7558 101.985 16.2092 101.982 13.4986C101.979 10.7879 100.11 8.18168 96.7996 6.2732ZM96.6535 20.2886C93.4777 22.1464 89.2224 23.1692 84.6778 23.1692C80.1332 23.1692 75.863 22.1464 72.6484 20.2886C69.4338 18.4308 67.7073 16.0124 67.7073 13.43C67.7073 10.8476 69.4368 8.46199 72.5798 6.64297C75.7229 4.82395 80.0348 3.76236 84.5615 3.76236C89.0882 3.76236 93.3703 4.78519 96.5849 6.64297C99.7995 8.50075 101.523 10.9013 101.526 13.4837C101.529 16.0661 99.7816 18.4666 96.6445 20.2856L96.6535 20.2886Z" fill="#544A00"/>
<path d="M105.945 13.5244V13.4946C105.945 10.1339 103.687 6.98487 99.602 4.62611C95.5763 2.2912 90.2505 1 84.5608 1C78.8712 1 73.5275 2.28524 69.5286 4.61418C65.5298 6.94312 63.2664 10.0891 63.2813 13.426C63.2813 13.426 63.2813 13.4439 63.2813 13.4498V20.3412C63.2813 23.7109 65.5208 26.8658 69.6091 29.2276C73.6467 31.5565 78.9935 32.8418 84.6771 32.8418C90.3608 32.8418 95.6926 31.5565 99.7004 29.2276C103.708 26.8986 105.936 23.7735 105.945 20.4516L105.96 13.5035L105.945 13.5244ZM66.2454 26.1233C64.5785 24.3699 63.6928 22.3988 63.6988 20.3502L63.7107 15.91C64.2459 17.3816 65.1156 18.7087 66.2514 19.7866L66.2454 26.1233ZM70.4709 29.2276C70.2503 29.1083 70.0296 28.989 69.8149 28.8638C68.6797 28.2227 67.6255 27.4478 66.6748 26.5557V20.1772C67.5764 20.9831 68.561 21.6908 69.6121 22.2885C69.8894 22.4525 70.1787 22.6075 70.4709 22.7566V29.2276ZM74.6964 30.9691C73.3916 30.5656 72.122 30.056 70.9003 29.4453V22.9713C72.1243 23.5678 73.3937 24.0663 74.6964 24.4623V30.9691ZM79.5511 32.0605C78.0536 31.8474 76.5735 31.5255 75.1228 31.0973V24.5936C76.5744 25.0147 78.0543 25.3316 79.5511 25.5418V32.0605ZM84.3998 32.4183C82.921 32.4089 81.4442 32.3093 79.9775 32.1201V25.5985C81.4442 25.7877 82.921 25.8873 84.3998 25.8967V32.4183ZM89.2485 32.1201C87.783 32.3108 86.3071 32.4103 84.8292 32.4183V25.8997C86.307 25.8901 87.7829 25.7905 89.2485 25.6015V32.1201ZM94.1032 31.1182C92.653 31.5401 91.174 31.856 89.6779 32.0635V25.5597C91.1731 25.353 92.6519 25.0411 94.1032 24.6264V31.1182ZM98.3287 29.4721C97.1065 30.0808 95.837 30.5894 94.5326 30.9929V24.5011C95.835 24.1039 97.1042 23.6054 98.3287 23.0101V29.4721ZM102.554 26.5825C101.621 27.4602 100.587 28.224 99.4738 28.8578C99.2382 28.995 98.9997 29.1262 98.7581 29.2544V22.8014C99.0772 22.6374 99.3933 22.4674 99.7004 22.2885C100.72 21.7033 101.677 21.0137 102.554 20.2309V26.5825ZM105.506 20.4516C105.506 22.4734 104.612 24.4176 102.981 26.1502V19.8283C104.084 18.7846 104.939 17.5054 105.48 16.0859C105.48 16.0591 105.5 16.0322 105.512 16.0054L105.506 20.4516ZM100.091 21.5579C99.8972 21.6801 99.7004 21.7994 99.4947 21.9187C99.2889 22.038 99.0861 22.1483 98.8774 22.2616C95.0008 24.349 90.006 25.4732 84.6861 25.4732C79.0829 25.4732 73.8078 24.2119 69.8358 21.9187C65.8637 19.6255 63.7107 16.6316 63.7107 13.4349C63.7107 10.2382 65.8488 7.26219 69.7463 4.99588C73.6915 2.70272 78.9517 1.43835 84.5608 1.43835C90.17 1.43835 95.4272 2.69676 99.3873 4.98395C103.347 7.27114 105.512 10.283 105.518 13.4826C105.521 16.5064 103.595 19.3423 100.091 21.5579Z" fill="#544A00"/>
<path d="M57.5605 64.2168L64.5085 64.2317C67.6187 64.2317 70.726 66.2833 73.0997 70.3687C77.8708 78.593 77.8708 91.9673 73.0997 100.242C70.7141 104.399 67.5502 106.475 64.4012 106.466H57.4531C60.6021 106.466 63.7541 104.399 66.1546 100.242C70.9258 91.9673 70.9258 78.593 66.1546 70.3687C63.7779 66.2774 60.6737 64.2317 57.5605 64.2168Z" fill="#F7C800"/>
<g opacity="0.15">
<path d="M57.4688 106.456C60.6058 106.456 63.7309 104.368 66.1404 100.235C70.9116 91.9602 70.9116 78.5889 66.1404 70.3645C63.7548 66.2792 60.6565 64.2306 57.5463 64.2246H60.1824C63.2568 64.2753 66.3163 66.312 68.6572 70.3586C73.4284 78.5829 73.4284 91.9542 68.6572 100.229C66.2716 104.371 63.1316 106.45 59.9885 106.45" fill="#544A00"/>
</g>
<path d="M48.8518 70.4631C53.623 62.1851 61.3762 62.1434 66.1474 70.3647C70.9186 78.5861 70.9186 91.9633 66.1474 100.238C61.3762 108.513 53.623 108.543 48.8518 100.319C44.0806 92.0945 44.0806 78.7233 48.8518 70.4631Z" fill="#FEE425"/>
<path opacity="0.15" d="M68.6819 85.2696C68.6819 90.339 67.5905 95.1102 65.6045 98.7363C63.4872 102.595 60.6007 104.724 57.4726 104.724C54.3444 104.724 51.5086 102.637 49.4212 98.8108C47.4352 95.2175 46.3438 90.4612 46.3438 85.3918C46.3438 80.3225 47.4352 75.5513 49.4212 71.9371C51.5086 68.0814 54.4011 65.9552 57.5322 65.9492C60.6633 65.9433 63.52 68.0366 65.6134 71.8625C67.5905 75.4439 68.6819 80.2062 68.6819 85.2696Z" fill="#544A00"/>
<path d="M64.5166 73.1894C68.3932 79.8274 68.3932 90.7027 64.5166 97.4122C60.64 104.122 54.3569 104.143 50.5012 97.4808C46.6455 90.819 46.6246 79.9705 50.5012 73.261C54.3778 66.5515 60.6608 66.5277 64.5166 73.1894Z" fill="#F7C800"/>
<g opacity="0.4">
<path d="M64.5232 73.1918C68.3998 79.8297 68.3998 90.705 64.5232 97.4145L50.5078 73.2604C54.3635 66.5538 60.6675 66.53 64.5232 73.1918Z" fill="white"/>
</g>
<path d="M50.3123 73.1637C48.4187 76.4439 47.375 80.7857 47.375 85.3899C47.375 89.9941 48.4187 94.3359 50.3123 97.5892C52.2058 100.843 54.7644 102.685 57.4691 102.685C60.1737 102.685 62.774 100.855 64.6974 97.5296C66.591 94.2494 67.6347 89.9016 67.6347 85.2825C67.6347 80.6634 66.591 76.3365 64.6974 73.0921C62.8038 69.8477 60.2483 68.0048 57.5227 68.0078C54.7972 68.0108 52.2207 69.8358 50.3123 73.1637ZM64.3276 73.3098C66.1824 76.4856 67.2053 80.7409 67.2053 85.2825C67.2053 89.8241 66.1824 94.1003 64.3247 97.3149C62.4669 100.529 60.0485 102.256 57.4661 102.256C54.8837 102.256 52.4981 100.526 50.6791 97.3835C48.86 94.2404 47.8014 89.9285 47.8014 85.3988C47.8014 80.8692 48.8242 76.593 50.682 73.3784C52.5398 70.1638 54.9373 68.4402 57.5198 68.4372C60.1022 68.4342 62.5176 70.1549 64.3276 73.3009V73.3098Z" fill="#544A00"/>
<path d="M57.5582 64.0117H57.5254C54.1647 64.0117 51.0157 66.2691 48.6569 70.3544C46.334 74.3801 45.0547 79.7209 45.0547 85.3956C45.0547 91.0703 46.3369 96.429 48.6689 100.428C51.0008 104.427 54.1408 106.69 57.4807 106.675H57.5045L64.3959 106.69C67.7626 106.69 70.9205 104.451 73.2793 100.359C75.6082 96.3246 76.8935 90.9749 76.8935 85.2942C76.8935 79.6135 75.6082 74.2787 73.2793 70.2709C70.9503 66.2631 67.8282 64.0356 64.5033 64.0266L57.5582 64.0117ZM70.1691 103.708C68.4127 105.378 66.4416 106.264 64.3959 106.258H59.9617C61.4277 105.72 62.7487 104.849 63.8204 103.714L70.1691 103.708ZM73.2703 99.4855C73.1511 99.7062 73.0348 99.9269 72.9065 100.142C72.2655 101.277 71.4906 102.331 70.5985 103.282H64.22C65.0277 102.381 65.7365 101.396 66.3342 100.344C66.4952 100.067 66.6503 99.7778 66.8024 99.4855H73.2703ZM75.0148 95.2601C74.6104 96.565 74.0997 97.8346 73.488 99.0561H67.0171C67.6123 97.8316 68.1108 96.5623 68.5081 95.2601H75.0148ZM76.1032 90.4054C75.8898 91.9026 75.5689 93.3825 75.143 94.8336H68.6363C69.0571 93.3817 69.375 91.902 69.5876 90.4054H76.1032ZM76.4611 85.5566C76.4502 87.0354 76.3506 88.5121 76.1629 89.9789H69.6412C69.8304 88.5123 69.93 87.0354 69.9394 85.5566H76.4611ZM76.1629 80.7079C76.3535 82.1734 76.4531 83.6494 76.4611 85.1272H69.9454C69.9359 83.6494 69.8363 82.1736 69.6472 80.7079H76.1629ZM75.1669 75.8473C75.5898 77.2974 75.9067 78.7764 76.1152 80.2725H69.6025C69.3958 78.7773 69.0839 77.2986 68.6691 75.8473H75.1669ZM73.5238 71.6218C74.1328 72.8459 74.6414 74.1174 75.0446 75.4238H68.5439C68.148 74.121 67.6494 72.8517 67.0529 71.6277L73.5238 71.6218ZM70.6313 67.3963C71.5101 68.3296 72.2739 69.3647 72.9065 70.4797C73.0437 70.7152 73.1749 70.9538 73.3031 71.1953H66.8441C66.6801 70.8733 66.5101 70.5602 66.3342 70.253C65.748 69.2338 65.0585 68.2775 64.2766 67.3993L70.6313 67.3963ZM64.5003 64.4441C66.5221 64.4441 68.4663 65.3387 70.1989 66.9699H63.877C62.8335 65.8673 61.5541 65.0151 60.1346 64.4769L60.0541 64.4441H64.5003ZM65.6006 69.8833C65.7229 70.0771 65.8452 70.2739 65.9615 70.4797C66.0778 70.6854 66.1941 70.8882 66.3074 71.0969C68.3799 74.9735 69.519 79.9684 69.519 85.2883C69.519 90.8914 68.2546 96.1666 65.9615 100.136C63.6683 104.105 60.6744 106.246 57.4777 106.252C54.281 106.258 51.302 104.114 49.0386 100.216C46.7455 96.2709 45.4811 91.0077 45.4811 85.4016C45.4811 79.7954 46.7425 74.5352 49.0297 70.5751C51.3169 66.615 54.3257 64.4501 57.5254 64.4441C60.5372 64.4352 63.385 66.3615 65.6006 69.8833Z" fill="#544A00"/>
<path d="M90.1164 14.2571C90.7998 13.7508 91.1205 13.1163 91.0154 12.4519C90.9097 11.7845 90.3826 11.1592 89.5293 10.6665C87.1882 9.31488 83.7631 9.67043 81.42 11.0232C80.7153 11.4301 80.1227 11.9076 79.7249 12.4228C79.3271 12.938 79.1128 13.5071 79.2041 14.0838C79.306 14.7279 79.7787 15.3213 80.6523 15.8257C82.4103 16.8407 84.7911 16.9248 86.8238 16.0667L87.1869 15.9134L86.8455 15.7164L84.2248 14.2033L85.6655 13.3714L90.8699 16.3762L84.7804 19.892L83.2903 19.0317L85.379 17.8258L85.2424 17.4638C82.9247 17.9291 80.428 17.7639 78.399 16.5925C77.1183 15.8531 76.3718 14.9158 76.2182 13.9469C76.0225 12.7122 76.779 11.309 78.9176 10.0742C80.8259 8.97246 83.1375 8.40905 85.394 8.36487C87.6514 8.32068 89.8381 8.79638 91.4993 9.75548C92.893 10.5601 93.6913 11.6009 93.851 12.6084C94.0116 13.6216 93.5349 14.6658 92.2262 15.4751L90.1164 14.2571Z" fill="#141414" stroke="#141414" stroke-width="0.392075"/>
<path d="M78.9614 9.59657L78.8867 9.12491C80.7721 8.06697 83.0356 7.52534 85.2462 7.48206C87.4673 7.43858 89.6197 7.89835 91.2707 8.82659L91.3335 9.22314C89.6493 8.35167 87.5358 7.93141 85.3785 7.97365C83.1621 8.01704 80.8849 8.54883 78.9614 9.59657Z" fill="#141414" stroke="#141414" stroke-width="0.392075" stroke-linejoin="round"/>
<path d="M76.0765 12.3165C76.2272 11.3337 76.9816 10.2917 78.5306 9.33992L78.6044 9.80549C77.3124 10.5728 76.4778 11.4333 76.0765 12.3165Z" fill="#141414" stroke="#141414" stroke-width="0.392075" stroke-linejoin="round"/>
<path d="M89.1654 10.4824C86.9278 9.39647 83.8699 9.71393 81.657 10.889L81.5821 10.4161C83.8047 9.18499 86.9511 8.89044 89.1016 10.0799L89.1654 10.4824Z" fill="#141414" stroke="#141414" stroke-width="0.392075" stroke-linejoin="round"/>
<path d="M79.4323 12.867C79.4505 12.5138 79.6069 12.147 79.8902 11.78C80.203 11.3749 80.6617 10.982 81.2249 10.6285L81.2985 11.0929C80.645 11.4844 80.0955 11.9374 79.7198 12.4239C79.6088 12.5678 79.5121 12.7158 79.4323 12.867Z" fill="#141414" stroke="#141414" stroke-width="0.392075" stroke-linejoin="round"/>
<path d="M91.7212 9.09341C92.4908 9.59834 93.0462 10.1791 93.3781 10.7781C92.9708 10.2972 92.4327 9.8515 91.78 9.46439L91.7212 9.09341Z" fill="#141414" stroke="#141414" stroke-width="0.392075" stroke-linejoin="round"/>
<path d="M89.551 10.356C89.9836 10.666 90.2612 11.0002 90.3983 11.3281C90.1842 11.1093 89.9192 10.904 89.6082 10.7167L89.551 10.356Z" fill="#141414" stroke="#141414" stroke-width="0.392075" stroke-linejoin="round"/>
<path d="M83.9843 13.8911L83.91 13.4223L85.3792 12.5741L85.4534 13.0429L83.9843 13.8911Z" fill="#141414" stroke="#141414" stroke-width="0.392075" stroke-linejoin="round"/>
<path d="M80.4806 15.2581C80.0488 14.95 79.7918 14.6311 79.6654 14.3177C79.8678 14.5207 80.12 14.7143 80.4234 14.8966L80.4806 15.2581Z" fill="#141414" stroke="#141414" stroke-width="0.392075" stroke-linejoin="round"/>
<path d="M78.0388 16.373C77.3307 15.9057 76.8182 15.3725 76.5142 14.8097C76.8926 15.2487 77.3872 15.6507 77.9801 16.0027L78.0388 16.373Z" fill="#141414" stroke="#141414" stroke-width="0.392075" stroke-linejoin="round"/>
<path d="M90.6449 12.6754C90.6531 13.1003 90.4261 13.5427 89.8948 13.9381L89.8231 13.4852C90.1871 13.2445 90.4636 12.9706 90.6449 12.6754Z" fill="#141414" stroke="#141414" stroke-width="0.392075" stroke-linejoin="round"/>
<path d="M83.9532 13.6975L86.4311 15.1282L86.4922 15.5135L84.0143 14.0828L83.9532 13.6975Z" fill="#141414" stroke="#141414" stroke-width="0.392075" stroke-linejoin="round"/>
<path d="M90.9409 15.6159L91.0019 16.0012L85.8424 13.0223L85.7814 12.637L90.9409 15.6159Z" fill="#141414" stroke="#141414" stroke-width="0.392075" stroke-linejoin="round"/>
<path d="M93.8582 13.292C93.759 14.0391 93.2899 14.7707 92.3731 15.3804L92.3002 14.9198C93.0524 14.4522 93.5701 13.8948 93.8582 13.292Z" fill="#141414" stroke="#141414" stroke-width="0.392075" stroke-linejoin="round"/>
<path d="M80.936 15.5329L80.8722 15.1306C82.5183 15.9315 84.6141 15.9831 86.4593 15.2773L86.5365 15.7646C84.668 16.5051 82.528 16.4143 80.936 15.5329Z" fill="#141414" stroke="#141414" stroke-width="0.392075" stroke-linejoin="round"/>
<path d="M89.8673 13.7639L91.9122 14.9445L91.9732 15.3298L89.9283 14.1492L89.8673 13.7639Z" fill="#141414" stroke="#141414" stroke-width="0.392075" stroke-linejoin="round"/>
<path d="M78.4121 16.2431C80.4156 17.2678 82.7796 17.4107 84.9743 17.0055L85.0528 17.5017C82.8187 17.9161 80.4352 17.74 78.4751 16.6407L78.4121 16.2431Z" fill="#141414" stroke="#141414" stroke-width="0.392075" stroke-linejoin="round"/>
<path d="M83.0389 18.7222L82.9647 18.2534L84.9837 17.0878L85.0579 17.5566L83.0389 18.7222Z" fill="#141414" stroke="#141414" stroke-width="0.392075" stroke-linejoin="round"/>
<path d="M84.9374 19.8055L84.8631 19.3368L90.981 15.8046L91.0553 16.2734L84.9374 19.8055Z" fill="#141414" stroke="#141414" stroke-width="0.392075" stroke-linejoin="round"/>
<path d="M83.0079 18.5257L84.4532 19.3601L84.5142 19.7454L83.0689 18.911L83.0079 18.5257Z" fill="#141414" stroke="#141414" stroke-width="0.392075" stroke-linejoin="round"/>
<path d="M83.6919 13.3206L85.5248 12.2624L91.1212 15.4936L84.6396 19.2357L82.7575 18.1491L85.1402 16.7734C82.7911 17.2449 80.2423 17.0817 78.1603 15.8796C75.1621 14.1487 74.8299 11.244 78.6789 9.02181C82.5612 6.78036 88.0587 6.74131 91.4566 8.70307C94.3714 10.3859 94.887 13.1656 92.0877 14.8202L89.6059 13.3873C91.1889 12.4157 91.0227 10.9538 89.2905 9.95366C87.0252 8.64582 83.6766 8.98281 81.3772 10.3104C79.2278 11.5513 78.2443 13.4078 80.6095 14.7733C82.3084 15.7542 84.624 15.8405 86.6068 15.0035L83.6919 13.3206Z" fill="white"/>
<path d="M41.9602 64.6653C42.5573 64.2232 42.8784 63.6831 42.8785 63.1053C42.8786 62.3484 42.3291 61.6267 41.373 61.0747C39.0319 59.7231 35.6069 60.0786 33.2637 61.4314C32.6131 61.8071 32.0586 62.2426 31.6645 62.712C31.2712 63.1805 31.0271 63.6961 31.0271 64.2264C31.027 64.968 31.5004 65.6591 32.496 66.2339C34.254 67.2489 36.6348 67.333 38.6675 66.4749L39.0306 66.3216L38.6893 66.1246L36.0685 64.6115L37.5093 63.7796L42.7137 66.7844L36.6242 70.3002L35.1341 69.4399L37.2227 68.234L37.0861 67.872C34.7685 68.3373 32.2718 68.1721 30.2428 67.0007C28.7956 66.1652 28.0321 65.0795 28.032 63.976C28.0318 62.8425 28.8374 61.5933 30.7614 60.4824C32.6697 59.3807 34.9813 58.8173 37.2377 58.7731C39.4952 58.7289 41.6819 59.2046 43.3431 60.1637C44.9134 61.0703 45.7247 62.2733 45.7249 63.3944C45.725 64.2804 45.2196 65.1723 44.0699 65.8833L41.9602 64.6653Z" fill="#141414" stroke="#141414" stroke-width="0.392075"/>
<path d="M30.8601 59.9789V59.532C32.7492 58.4671 35.0204 57.922 37.2384 57.8785C39.4518 57.8352 41.597 58.2917 43.2457 59.2135V59.662C41.5519 58.7692 39.4138 58.3384 37.2307 58.3811C35.0321 58.4242 32.7738 58.9478 30.8601 59.9789Z" fill="#141414" stroke="#141414" stroke-width="0.392075" stroke-linejoin="round"/>
<path d="M41.0922 60.919C38.8651 59.8062 35.7998 60.1068 33.571 61.2722V60.8231C35.7888 59.5865 38.9361 59.2852 41.0922 60.4669V60.919Z" fill="#141414" stroke="#141414" stroke-width="0.392075" stroke-linejoin="round"/>
<path d="M43.6414 59.4502C44.6646 60.1057 45.3196 60.8927 45.5889 61.684C45.1668 61.0175 44.5046 60.3988 43.6414 59.8839V59.4502Z" fill="#141414" stroke="#141414" stroke-width="0.392075" stroke-linejoin="round"/>
<path d="M30.4673 60.2001C29.3912 60.8362 28.6304 61.5363 28.1711 62.2613C28.4543 61.4266 29.1822 60.5636 30.4673 59.7639V60.2001Z" fill="#141414" stroke="#141414" stroke-width="0.392075" stroke-linejoin="round"/>
<path d="M41.4695 60.7062C42.0618 61.1125 42.3808 61.5626 42.4631 61.9889C42.2251 61.6786 41.8895 61.3896 41.4695 61.1344V60.7062Z" fill="#141414" stroke="#141414" stroke-width="0.392075" stroke-linejoin="round"/>
<path d="M31.668 62.7124C31.5971 62.7969 31.531 62.8829 31.4704 62.9702C31.5471 62.6743 31.7153 62.3712 31.9683 62.0699C32.2672 61.7138 32.6772 61.3694 33.1692 61.0553V61.4893C32.5609 61.8517 32.0421 62.2668 31.668 62.7124Z" fill="#141414" stroke="#141414" stroke-width="0.392075" stroke-linejoin="round"/>
<path d="M42.4826 63.2887C42.4267 63.6322 42.211 63.9834 41.7976 64.3055V63.8917C42.0781 63.7085 42.3076 63.5059 42.4826 63.2887Z" fill="#141414" stroke="#141414" stroke-width="0.392075" stroke-linejoin="round"/>
<path d="M35.8757 64.2734V63.8315L37.3165 62.9997V63.4416L35.8757 64.2734Z" fill="#141414" stroke="#141414" stroke-width="0.392075" stroke-linejoin="round"/>
<path d="M44.2742 65.3272C44.8699 64.96 45.3205 64.5366 45.6276 64.0781C45.4434 64.6765 45.007 65.2552 44.2742 65.7548V65.3272Z" fill="#141414" stroke="#141414" stroke-width="0.392075" stroke-linejoin="round"/>
<path d="M32.4015 65.7122C31.8096 65.3079 31.5241 64.8833 31.4456 64.4724C31.6702 64.7604 31.9875 65.0325 32.4015 65.2835V65.7122Z" fill="#141414" stroke="#141414" stroke-width="0.392075" stroke-linejoin="round"/>
<path d="M42.9161 66.0045V66.4463L37.7117 63.4416V62.9997L42.9161 66.0045Z" fill="#141414" stroke="#141414" stroke-width="0.392075" stroke-linejoin="round"/>
<path d="M41.7976 64.1247L43.8873 65.3312V65.7731L41.7976 64.5666V64.1247Z" fill="#141414" stroke="#141414" stroke-width="0.392075" stroke-linejoin="round"/>
<path d="M35.8757 64.0581L38.3985 65.5146V65.9564L35.8757 64.4999V64.0581Z" fill="#141414" stroke="#141414" stroke-width="0.392075" stroke-linejoin="round"/>
<path d="M29.9487 66.8221C29.0111 66.2187 28.4055 65.5026 28.1585 64.7515C28.5545 65.3645 29.1652 65.9207 29.9487 66.3887V66.8221Z" fill="#141414" stroke="#141414" stroke-width="0.392075" stroke-linejoin="round"/>
<path d="M32.7898 65.948V65.496C34.4325 66.3187 36.5375 66.3852 38.395 65.6873V66.1614C36.5281 66.9087 34.3862 66.8239 32.7898 65.948Z" fill="#141414" stroke="#141414" stroke-width="0.392075" stroke-linejoin="round"/>
<path d="M30.3445 66.6067C32.3503 67.654 34.7254 67.8077 36.9323 67.4062V67.9021C34.6968 68.3218 32.3093 68.151 30.3445 67.0558V66.6067Z" fill="#141414" stroke="#141414" stroke-width="0.392075" stroke-linejoin="round"/>
<path d="M36.8289 70.1859V69.744L42.9184 66.2282V66.6701L36.8289 70.1859Z" fill="#141414" stroke="#141414" stroke-width="0.392075" stroke-linejoin="round"/>
<path d="M34.946 69.1006V68.6588L36.9367 67.5095V67.9513L34.946 69.1006Z" fill="#141414" stroke="#141414" stroke-width="0.392075" stroke-linejoin="round"/>
<path d="M34.946 68.8825L36.4361 69.7428V70.1847L34.946 69.3244V68.8825Z" fill="#141414" stroke="#141414" stroke-width="0.392075" stroke-linejoin="round"/>
<path d="M35.6763 63.7171L37.5091 62.6589L43.1056 65.89L36.624 69.6322L34.7419 68.5455L37.1246 67.1699C34.7755 67.6414 32.2267 67.4782 30.1446 66.2761C27.1465 64.5452 26.8143 61.6405 30.6632 59.4183C34.5455 57.1768 40.0431 57.1378 43.4409 59.0996C46.3558 60.7824 46.8713 63.562 44.0721 65.2167L41.5903 63.7838C43.1732 62.8122 43.0071 61.3503 41.2749 60.3501C39.0096 59.0423 35.661 59.3793 33.3616 60.7068C31.2122 61.9478 30.2287 63.8042 32.5939 65.1698C34.2928 66.1507 36.6084 66.237 38.5911 65.4L35.6763 63.7171Z" fill="white"/>
<path d="M49.4764 43.989C49.1077 42.3617 49.1605 40.6824 49.7429 39.2985L51.4953 41.0104C50.7433 42.8072 51.2871 45.1302 52.7365 46.546C53.2881 47.0849 53.8732 47.4043 54.4634 47.5193C55.0547 47.6345 55.6376 47.5418 56.1779 47.2784C57.0024 46.8764 57.7229 46.0802 58.2468 45.0217C59.3675 42.7573 59.5478 39.5803 57.5089 37.5885C56.508 36.6107 55.3808 36.3302 54.3714 36.8223C53.9151 37.0448 53.4977 37.4192 53.1365 37.9323L53.0404 38.0687L53.1598 38.1854L55.4654 40.4378L54.7096 41.9652L50.3819 37.7374L53.5188 31.3991L54.7785 32.6297L53.6213 34.9679L53.9101 35.215C54.0957 35.0839 54.2857 34.9704 54.4793 34.8759C55.103 34.5716 55.7665 34.4628 56.4485 34.5982C57.132 34.734 57.8493 35.118 58.573 35.825C60.9868 38.1831 61.9858 42.686 60.051 46.5955C59.294 48.125 58.2975 49.146 57.2164 49.6736C55.5236 50.4995 53.5707 50.1384 51.901 48.5073C50.7281 47.3614 49.8674 45.7152 49.4764 43.989Z" fill="#141414" stroke="#141414" stroke-width="0.392075"/>
<path d="M50.9988 48.8028C49.8757 47.6621 49.0518 46.0597 48.6717 44.3817C48.286 42.6792 48.3616 40.9197 49.0225 39.5011L49.2924 39.3695C48.7553 40.8002 48.7307 42.4754 49.0933 44.0761C49.477 45.7697 50.2981 47.3992 51.4322 48.5914L50.9988 48.8028Z" fill="#141414" stroke="#141414" stroke-width="0.392075" stroke-linejoin="round"/>
<mask id="path-160-inside-1_3038_70297" fill="white">
<path d="M50.9609 49.0406C52.6786 50.7186 54.7188 51.1116 56.4992 50.2429L57.3019 49.8514C55.5218 50.7192 53.4822 50.326 51.765 48.6484L50.9609 49.0406Z"/>
</mask>
<path d="M50.9609 49.0406C52.6786 50.7186 54.7188 51.1116 56.4992 50.2429L57.3019 49.8514C55.5218 50.7192 53.4822 50.326 51.765 48.6484L50.9609 49.0406Z" fill="#141414"/>
<path d="M57.3877 50.0276C57.3882 50.0274 57.3888 50.0271 57.3893 50.0269L57.2173 49.6745C57.2169 49.6747 57.2165 49.6749 57.216 49.6752L57.3877 50.0276ZM56.4992 50.2429L56.3274 49.8905L56.3273 49.8905L56.4992 50.2429ZM50.9609 49.0406L50.7891 48.6882C50.6744 48.7441 50.5942 48.8523 50.5739 48.9782C50.5536 49.104 50.5957 49.2319 50.687 49.3211L50.9609 49.0406ZM51.765 48.6484L52.039 48.368C51.9205 48.2522 51.742 48.2234 51.5931 48.296L51.765 48.6484ZM57.3019 49.8514L57.4737 50.2038C57.6683 50.1089 57.7492 49.8742 57.6543 49.6795C57.5594 49.4849 57.3247 49.4041 57.13 49.499L57.3019 49.8514ZM56.3273 49.8905C54.7222 50.6737 52.8566 50.3444 51.2349 48.7601L50.687 49.3211C52.5007 51.0929 54.7155 51.5495 56.6712 50.5952L56.3273 49.8905ZM51.1328 49.393L51.9369 49.0008L51.5931 48.296L50.7891 48.6882L51.1328 49.393ZM51.491 48.9289C53.3042 50.7002 55.5183 51.1571 57.4737 50.2038L57.13 49.499C55.5253 50.2813 53.6602 49.9518 52.039 48.368L51.491 48.9289ZM57.13 49.499L56.3274 49.8905L56.6711 50.5953L57.4737 50.2038L57.13 49.499Z" fill="#141414" mask="url(#path-160-inside-1_3038_70297)"/>
<path d="M52.5419 46.3479L52.1066 46.5602C50.8203 45.2238 50.373 43.1031 51.072 41.502L51.3643 41.3595C50.8399 43.015 51.3244 45.0157 52.5419 46.3479Z" fill="#141414" stroke="#141414" stroke-width="0.392075" stroke-linejoin="round"/>
<path d="M51.3851 40.9112L50.9553 41.1209L49.2032 39.4093L49.633 39.1996L51.3851 40.9112Z" fill="#141414" stroke="#141414" stroke-width="0.392075" stroke-linejoin="round"/>
<path d="M54.4643 47.5217C54.4921 47.5271 54.5199 47.5321 54.5477 47.5366C54.2804 47.5836 54.0084 47.5822 53.7353 47.529C53.302 47.4446 52.8558 47.2277 52.415 46.8504L52.8381 46.644C53.3599 47.1253 53.9099 47.4137 54.4643 47.5217Z" fill="#141414" stroke="#141414" stroke-width="0.392075" stroke-linejoin="round"/>
<path d="M53.9967 42.4486L49.672 38.2237L50.1018 38.0141L54.4265 42.239L53.9967 42.4486Z" fill="#141414" stroke="#141414" stroke-width="0.392075" stroke-linejoin="round"/>
<path d="M57.4137 45.4748L57.5988 45.3845C57.4198 45.6722 57.2255 45.9286 57.0196 46.1513C57.1604 45.9407 57.2922 45.7147 57.4137 45.4748Z" fill="#141414" stroke="#141414" stroke-width="0.392075" stroke-linejoin="round"/>
<path d="M52.8017 31.6094L53.0291 31.4985L49.994 37.6312L49.7666 37.7421L52.8017 31.6094Z" fill="#141414" stroke="#141414" stroke-width="0.392075" stroke-linejoin="round"/>
<path d="M54.619 42.1484L54.3916 42.2593L55.0457 40.9375L55.2731 40.8266L54.619 42.1484Z" fill="#141414" stroke="#141414" stroke-width="0.392075" stroke-linejoin="round"/>
<path d="M59.57 47.2228L59.7702 47.1252C59.5012 47.5914 59.2079 48.0021 58.8961 48.3577C59.1371 48.0135 59.3626 47.6351 59.57 47.2228Z" fill="#141414" stroke="#141414" stroke-width="0.392075" stroke-linejoin="round"/>
<path d="M55.3678 40.3427L54.938 40.5524L52.8282 38.4913L53.258 38.2817L55.3678 40.3427Z" fill="#141414" stroke="#141414" stroke-width="0.392075" stroke-linejoin="round"/>
<mask id="path-171-inside-2_3038_70297" fill="white">
<path d="M52.4922 38.4388C52.8387 37.9467 53.2322 37.5972 53.6527 37.3922L54.456 37.0004C54.0358 37.2054 53.6425 37.5548 53.2962 38.0466L52.4922 38.4388Z"/>
</mask>
<path d="M52.4922 38.4388C52.8387 37.9467 53.2322 37.5972 53.6527 37.3922L54.456 37.0004C54.0358 37.2054 53.6425 37.5548 53.2962 38.0466L52.4922 38.4388Z" fill="#141414"/>
<path d="M54.542 37.1766C54.5422 37.1764 54.5424 37.1763 54.5427 37.1762L54.3709 36.8238C54.3706 36.8239 54.3703 36.8241 54.37 36.8242L54.542 37.1766ZM53.6527 37.3922L53.8245 37.7446L53.8246 37.7446L53.6527 37.3922ZM52.4922 38.4388L52.1716 38.2131C52.0686 38.3594 52.0777 38.5568 52.1937 38.693C52.3097 38.8292 52.5033 38.8696 52.6641 38.7912L52.4922 38.4388ZM53.2962 38.0466L53.4681 38.399C53.5276 38.37 53.5787 38.3264 53.6168 38.2723L53.2962 38.0466ZM54.456 37.0004L54.628 37.3527C54.8225 37.2578 54.9033 37.0231 54.8084 36.8285C54.7135 36.6339 54.4787 36.5531 54.2841 36.648L54.456 37.0004ZM53.4809 37.0397C52.9888 37.2797 52.5476 37.6791 52.1716 38.2131L52.8128 38.6645C53.1298 38.2142 53.4757 37.9146 53.8245 37.7446L53.4809 37.0397ZM52.6641 38.7912L53.4681 38.399L53.1244 37.6942L52.3203 38.0864L52.6641 38.7912ZM53.6168 38.2723C53.9337 37.8224 54.2793 37.5228 54.628 37.3527L54.2841 36.648C53.7923 36.888 53.3514 37.2873 52.9757 37.8209L53.6168 38.2723ZM54.2841 36.648L53.4808 37.0398L53.8246 37.7446L54.6279 37.3528L54.2841 36.648Z" fill="#141414" mask="url(#path-171-inside-2_3038_70297)"/>
<mask id="path-173-inside-3_3038_70297" fill="white">
<path d="M53.5886 35.0914C53.3848 35.1908 53.1857 35.3098 52.9922 35.4465L53.7962 35.0544C53.9898 34.9176 54.1889 34.7986 54.3926 34.6992L53.5886 35.0914Z"/>
</mask>
<path d="M53.5886 35.0914C53.3848 35.1908 53.1857 35.3098 52.9922 35.4465L53.7962 35.0544C53.9898 34.9176 54.1889 34.7986 54.3926 34.6992L53.5886 35.0914Z" fill="#141414"/>
<path d="M52.9922 35.4465L52.7659 35.1263C52.5991 35.2442 52.5507 35.4704 52.6548 35.6462C52.7588 35.822 52.9804 35.8885 53.1641 35.7989L52.9922 35.4465ZM53.5886 35.0914L53.4167 34.739L53.4166 34.739L53.5886 35.0914ZM54.3926 34.6992L54.5646 35.0516C54.7592 34.9566 54.8399 34.7219 54.745 34.5273C54.6501 34.3327 54.4154 34.2519 54.2207 34.3468L54.3926 34.6992ZM53.7962 35.0544L53.9681 35.4067C53.9871 35.3975 54.0053 35.3867 54.0225 35.3746L53.7962 35.0544ZM53.2184 35.7667C53.3961 35.6412 53.577 35.5333 53.7605 35.4437L53.4166 34.739C53.1926 34.8484 52.9754 34.9783 52.7659 35.1263L53.2184 35.7667ZM53.7604 35.4438L54.5645 35.0516L54.2207 34.3468L53.4167 34.739L53.7604 35.4438ZM54.2207 34.3469C53.9966 34.4562 53.7795 34.5861 53.57 34.7341L54.0225 35.3746C54.2001 35.2491 54.3811 35.1411 54.5646 35.0516L54.2207 34.3469ZM53.6244 34.702L52.8203 35.0941L53.1641 35.7989L53.9681 35.4067L53.6244 34.702Z" fill="#141414" mask="url(#path-173-inside-3_3038_70297)"/>
<path d="M57.9192 44.7879L57.6638 44.9125C58.5407 42.7766 58.5895 40.0295 56.8914 38.1784L57.3264 37.9662C59.0767 39.7813 58.9545 42.6481 57.9192 44.7879Z" fill="#141414" stroke="#141414" stroke-width="0.392075" stroke-linejoin="round"/>
<path d="M54.997 37.0168C55.6371 36.8834 56.3354 37.0883 57.0227 37.6786L56.5994 37.8851C56.0852 37.4106 55.5403 37.1178 54.997 37.0168Z" fill="#141414" stroke="#141414" stroke-width="0.392075" stroke-linejoin="round"/>
<path d="M53.6502 34.9088L53.4228 35.0197L54.3586 33.1289L54.586 33.018L53.6502 34.9088Z" fill="#141414" stroke="#141414" stroke-width="0.392075" stroke-linejoin="round"/>
<path d="M54.6789 32.5348L54.2491 32.7445L52.9923 31.5167L53.4221 31.3071L54.6789 32.5348Z" fill="#141414" stroke="#141414" stroke-width="0.392075" stroke-linejoin="round"/>
<path d="M59.8236 46.66C61.4662 42.8311 60.5241 38.5551 58.2294 36.1363L58.663 35.9249C60.9938 38.2956 61.9423 42.6961 60.0728 46.5385L59.8236 46.66Z" fill="#141414" stroke="#141414" stroke-width="0.392075" stroke-linejoin="round"/>
<path d="M56.4451 34.6011C57.0641 34.724 57.7108 35.0506 58.3649 35.6363L57.9394 35.8438C57.2062 35.1553 56.458 34.756 55.7183 34.6089C55.6374 34.5928 55.5569 34.5798 55.4766 34.5697C55.7936 34.5273 56.1172 34.536 56.4451 34.6011Z" fill="#141414" stroke="#141414" stroke-width="0.392075" stroke-linejoin="round"/>
<path d="M54.8991 40.7898L53.9603 42.6866L49.3378 38.1708L52.6575 31.463L54.2121 32.9817L52.9918 35.4476C54.4353 34.4277 56.185 34.3975 57.9047 36.0775C60.3811 38.4967 61.3928 43.0919 59.4214 47.0752C57.433 51.093 53.7653 51.7819 50.9588 49.0402C48.5512 46.6882 47.4509 42.3133 48.8742 39.355L50.924 41.3576C50.129 43.0878 50.6374 45.4007 52.0682 46.7985C53.9392 48.6263 56.0881 47.7071 57.2658 45.3275C58.3667 43.103 58.5202 40.0299 56.5667 38.1214C55.1634 36.7505 53.5906 36.8768 52.4915 38.4378L54.8991 40.7898Z" fill="white"/>
<path d="M58.4431 79.7007C58.1059 79.3163 57.7293 79.0612 57.3322 78.9443C56.8563 78.8043 56.3698 78.8686 55.9195 79.1181C55.4524 79.3769 55.0292 79.8314 54.684 80.4542C53.3701 82.8245 53.9244 86.1617 55.4779 88.3803C56.0212 89.1561 56.6582 89.7788 57.3266 90.1217C58.0003 90.4674 58.7174 90.5324 59.3827 90.1637C59.8252 89.9185 60.2266 89.4907 60.5728 88.8661C61.5592 87.0867 61.5261 84.7473 60.5115 82.8029L60.3429 82.4798L60.1662 82.7986L58.6866 85.4679L57.7228 84.0916L60.6443 78.8211L64.6869 84.5946L63.8448 86.1139L62.4467 84.1171L62.0969 84.2812C62.7071 86.5182 62.6604 88.964 61.5264 91.0098C61.0203 91.9228 60.3927 92.5855 59.7051 92.9667C58.9422 93.3898 58.0947 93.4729 57.2254 93.1546C56.3506 92.8342 55.439 92.1015 54.5736 90.8656C52.0415 87.2494 51.7296 81.9559 53.5923 78.5955C54.1419 77.604 54.8344 76.8901 55.5705 76.4819C56.2666 76.0959 57.0023 75.9823 57.7062 76.1622C58.3826 76.3349 59.0484 76.7834 59.6305 77.5587L58.4431 79.7007Z" fill="#141414" stroke="#141414" stroke-width="0.392075"/>
<path d="M57.1001 93.523C57.4153 93.6384 57.7292 93.707 58.0387 93.7308C57.5288 93.8296 56.9951 93.7872 56.453 93.5887C55.6209 93.284 54.7554 92.6062 53.9281 91.477L54.365 91.2348C55.2314 92.4293 56.1645 93.1802 57.1001 93.523Z" fill="#141414" stroke="#141414" stroke-width="0.392075" stroke-linejoin="round"/>
<path d="M53.7002 91.1536C51.2721 87.5598 50.9837 82.3954 52.7919 79.0777L52.9677 78.9803C51.3858 82.4245 51.776 87.3901 54.1385 90.9107L53.7002 91.1536Z" fill="#141414" stroke="#141414" stroke-width="0.392075" stroke-linejoin="round"/>
<path d="M58.1085 90.3851C58.2118 90.3531 58.3136 90.3096 58.4134 90.2543C58.4135 90.2542 58.4135 90.2542 58.4135 90.2542L55.0318 88.6057C55.07 88.66 55.1086 88.7133 55.1476 88.7657M58.1085 90.3851C57.8462 90.343 57.5849 90.2523 57.3299 90.1215C56.7033 89.8 56.1042 89.2326 55.5842 88.5237M58.1085 90.3851C57.6695 90.5211 57.2019 90.4503 56.7264 90.2063C56.1816 89.9268 55.6368 89.4233 55.1476 88.7657M58.1085 90.3851C58.239 90.406 58.3698 90.415 58.5003 90.4109L54.9746 88.8615L55.1476 88.7657M55.5842 88.5237L55.7368 88.439L55.6418 88.2676L55.4812 88.38C55.5152 88.4285 55.5495 88.4764 55.5842 88.5237ZM55.5842 88.5237L55.1476 88.7657" fill="#141414" stroke="#141414" stroke-width="0.392075" stroke-linejoin="round"/>
<path d="M55.3538 88.2L54.9153 88.443C53.5113 86.3309 53.0545 83.2795 54.2157 81.1265L54.411 81.0182C53.487 83.265 54.0098 86.1594 55.3538 88.2Z" fill="#141414" stroke="#141414" stroke-width="0.392075" stroke-linejoin="round"/>
<path d="M61.0649 91.6836L61.1314 91.6467C61.0669 91.7369 61.0009 91.8237 60.9336 91.907C60.9783 91.8341 61.0221 91.7596 61.0649 91.6836Z" fill="#141414" stroke="#141414" stroke-width="0.392075" stroke-linejoin="round"/>
<mask id="path-188-inside-4_3038_70297" fill="white">
<path d="M59.6215 89.2052C59.2875 89.8077 58.9096 90.2037 58.5082 90.4262L59.2902 89.9927C59.6918 89.7702 60.0699 89.3742 60.404 88.7715L59.6215 89.2052Z"/>
</mask>
<path d="M59.6215 89.2052C59.2875 89.8077 58.9096 90.2037 58.5082 90.4262L59.2902 89.9927C59.6918 89.7702 60.0699 89.3742 60.404 88.7715L59.6215 89.2052Z" fill="#141414"/>
<path d="M58.6029 90.5978C58.6029 90.5978 58.6029 90.5978 58.603 90.5978C58.6031 90.5977 58.6032 90.5977 58.6033 90.5976L58.4131 90.2548C58.4112 90.2558 58.4149 90.2538 58.4127 90.255L58.6029 90.5978ZM58.5082 90.4262L58.3181 90.0833C58.1287 90.1883 58.0603 90.4269 58.1653 90.6163C58.2703 90.8057 58.5089 90.8741 58.6983 90.7691L58.5082 90.4262ZM59.6215 89.2052L59.4315 88.8623C59.3672 88.8979 59.3142 88.9509 59.2786 89.0151L59.6215 89.2052ZM60.404 88.7715L60.7469 88.9616C60.8317 88.8086 60.8049 88.6179 60.6812 88.4942C60.5575 88.3706 60.3669 88.3438 60.2139 88.4286L60.404 88.7715ZM59.2902 89.9927L59.1002 89.6498L59.1002 89.6498L59.2902 89.9927ZM58.6983 90.7691C59.1817 90.501 59.6062 90.0415 59.9645 89.3953L59.2786 89.0151C58.9689 89.5739 58.6374 89.9063 58.3181 90.0833L58.6983 90.7691ZM59.8116 89.5481L60.5941 89.1144L60.2139 88.4286L59.4315 88.8623L59.8116 89.5481ZM60.0611 88.5814C59.7512 89.1404 59.4196 89.4728 59.1002 89.6498L59.4803 90.3356C59.9639 90.0676 60.3885 89.608 60.7469 88.9616L60.0611 88.5814ZM59.1002 89.6498L58.3181 90.0833L58.6983 90.7691L59.4803 90.3356L59.1002 89.6498Z" fill="#141414" mask="url(#path-188-inside-4_3038_70297)"/>
<path d="M57.992 86.0138L57.0042 84.6031L57.4418 84.3605L58.4296 85.7713L57.992 86.0138Z" fill="#141414" stroke="#141414" stroke-width="0.392075" stroke-linejoin="round"/>
<path d="M54.7087 80.4064C54.7089 80.4062 54.7092 80.4059 54.7094 80.4057C54.7093 80.4058 54.7092 80.406 54.7091 80.4062L54.7087 80.4064Z" fill="#141414" stroke="#141414" stroke-width="0.392075" stroke-linejoin="round"/>
<path d="M53.2088 78.3971C53.2807 78.2952 53.3543 78.1973 53.4294 78.1034C53.3782 78.1864 53.3281 78.2713 53.2792 78.3581L53.2088 78.3971Z" fill="#141414" stroke="#141414" stroke-width="0.392075" stroke-linejoin="round"/>
<path d="M58.5679 85.6921L58.4326 85.7671L59.7056 83.4705L59.841 83.3955L58.5679 85.6921Z" fill="#141414" stroke="#141414" stroke-width="0.392075" stroke-linejoin="round"/>
<path d="M59.8224 83.4064L60.2614 83.163C61.1231 84.9472 61.1234 87.0334 60.2639 88.6261L60.0693 88.734C60.7442 87.098 60.6537 85.1138 59.8224 83.4064Z" fill="#141414" stroke="#141414" stroke-width="0.392075" stroke-linejoin="round"/>
<path d="M56.552 79.3788C56.4978 79.3628 56.4434 79.3495 56.389 79.3388C56.6669 79.2457 56.9485 79.2402 57.2237 79.3212C57.545 79.4157 57.8716 79.6324 58.1782 79.9918L57.7449 80.232C57.3872 79.7934 56.9816 79.5052 56.552 79.3788Z" fill="#141414" stroke="#141414" stroke-width="0.392075" stroke-linejoin="round"/>
<path d="M61.5597 90.9598L61.3802 91.0593C62.2704 89.0769 62.2735 86.8236 61.7388 84.7596L62.1667 84.5224C62.7043 86.6747 62.6274 88.9978 61.5597 90.9598Z" fill="#141414" stroke="#141414" stroke-width="0.392075" stroke-linejoin="round"/>
<path d="M59.9959 79.0291L60.1312 78.9541L57.357 83.959L57.2217 84.034L59.9959 79.0291Z" fill="#141414" stroke="#141414" stroke-width="0.392075" stroke-linejoin="round"/>
<path d="M57.7085 76.1622C58.3621 76.3291 59.0058 76.7535 59.5736 77.4814L59.138 77.7228C58.5187 76.9108 57.7916 76.4125 57.0237 76.2161C56.8555 76.1731 56.6861 76.1448 56.5165 76.1308C56.9155 76.0529 57.3169 76.0621 57.7085 76.1622Z" fill="#141414" stroke="#141414" stroke-width="0.392075" stroke-linejoin="round"/>
<path d="M58.3335 79.9052L58.1982 79.9802L59.2288 78.1209L59.3642 78.0459L58.3335 79.9052Z" fill="#141414" stroke="#141414" stroke-width="0.392075" stroke-linejoin="round"/>
<path d="M63.1452 86.6589L61.7933 84.7281L62.2309 84.4855L63.5829 86.4163L63.1452 86.6589Z" fill="#141414" stroke="#141414" stroke-width="0.392075" stroke-linejoin="round"/>
<path d="M63.7242 86.3387L63.5888 86.4137L64.2838 85.1599L64.4191 85.0849L63.7242 86.3387Z" fill="#141414" stroke="#141414" stroke-width="0.392075" stroke-linejoin="round"/>
<path d="M64.6335 84.5161L64.1959 84.7586L60.1292 78.9508L60.5668 78.7082L64.6335 84.5161Z" fill="#141414" stroke="#141414" stroke-width="0.392075" stroke-linejoin="round"/>
<path d="M57.918 86.2728L56.7041 84.5392L59.8371 78.8872L64.1299 85.0179L63.0763 86.9188L61.4982 84.665C62.1177 86.9361 62.0755 89.4376 60.91 91.5403C59.2316 94.5681 56.1744 95.0542 53.6252 91.4135C51.0539 87.7414 50.7308 82.3675 52.633 78.9359C54.2647 75.9921 57.1802 75.3338 59.0749 77.9794L57.6856 80.4858C56.5761 78.9918 55.0373 79.2353 54.0676 80.9847C52.7995 83.2725 53.3278 86.5284 54.8507 88.7033C56.2742 90.7364 58.2895 91.5952 59.6135 89.2065C60.5646 87.4907 60.5373 85.2215 59.5498 83.3291L57.918 86.2728Z" fill="white"/>
</svg>
