<svg width="102" height="86" viewBox="0 0 102 86" fill="none" xmlns="http://www.w3.org/2000/svg">
<path d="M21.1174 73.2345C15.6139 73.2345 10.4341 72.4525 6.50065 71.0296C2.29206 69.5126 0 67.4445 0 65.2032C0 62.962 2.26616 60.9302 6.41648 59.4346C10.3208 58.0117 15.4811 57.2275 20.9847 57.2275C26.4882 57.2275 31.668 58.0117 35.5917 59.4325C39.7776 60.9387 42.0859 63.0026 42.0924 65.246C42.0988 67.4893 39.8262 69.534 35.6727 71.036C31.7846 72.4504 26.6145 73.2345 21.1174 73.2345Z" fill="#121411"/>
<path d="M65.868 85.0916C61.3722 85.0916 57.1408 84.2517 53.9276 82.7234C50.4896 81.094 48.6172 78.8727 48.6172 76.4654C48.6172 74.0582 50.4684 71.8758 53.8588 70.2695C57.0482 68.7411 61.2637 67.8989 65.7596 67.8989C70.2554 67.8989 74.4868 68.7411 77.6921 70.2672C81.1116 71.885 82.9972 74.1018 83.0025 76.5113C83.0078 78.9209 81.1513 81.117 77.7582 82.7302C74.582 84.2494 70.3586 85.0916 65.868 85.0916Z" fill="#121411"/>
<path d="M44.9622 56.987V62.4006C44.9622 64.8273 43.3606 67.2493 40.1762 69.0995C33.7678 72.8186 23.3404 72.8186 16.8901 69.0995C13.6522 67.2284 12.0321 64.7715 12.0391 62.3169V56.9033C12.0391 59.3579 13.6499 61.8148 16.8878 63.6837C23.3381 67.4027 33.7654 67.4027 40.1739 63.6837C43.3606 61.8334 44.9552 59.4114 44.9622 56.987Z" fill="#F7C800"/>
<g opacity="0.15">
<path d="M12.0391 56.9263C12.0391 59.3716 13.6662 61.8192 16.8878 63.6857C23.3381 67.4047 33.7631 67.4047 40.1715 63.6857C43.3583 61.8261 44.9528 59.4111 44.9575 56.9844V59.0415C44.918 61.438 43.3304 63.8228 40.1762 65.6475C33.7677 69.3666 23.3427 69.3666 16.8924 65.6475C13.6592 63.7833 12.0391 61.3427 12.0391 58.8904" fill="#544A00"/>
</g>
<path d="M40.0972 50.1853C46.5475 53.9044 46.5823 59.9479 40.1716 63.667C33.7608 67.386 23.3358 67.386 16.8856 63.667C10.4353 59.9479 10.4121 53.9044 16.8228 50.1853C23.2336 46.4663 33.6586 46.4779 40.0972 50.1853Z" fill="#FEE425"/>
<path d="M28.5528 65.6597C24.6013 65.6597 20.8822 64.8089 18.0581 63.2609C15.0363 61.6105 13.3906 59.3605 13.3906 56.9222C13.3906 54.4839 15.0177 52.2733 17.9976 50.6462C20.8009 49.0982 24.506 48.2451 28.4575 48.2451C32.409 48.2451 36.1281 49.0982 38.9453 50.6439C41.9508 52.2826 43.6081 54.528 43.6127 56.9687C43.6174 59.4093 41.9856 61.6338 39.0034 63.2678C36.2118 64.8066 32.4997 65.6597 28.5528 65.6597Z" fill="#141414"/>
<path d="M37.9716 62.4085C32.7975 65.4303 24.3226 65.4303 19.0927 62.4085C13.8628 59.3868 13.8442 54.4915 19.0369 51.4837C24.2297 48.4759 32.6859 48.462 37.9159 51.4837C43.1458 54.5055 43.1644 59.4054 37.9716 62.4085Z" fill="#F7C800"/>
<g opacity="0.4">
<path d="M37.9727 62.4096C32.7985 65.4314 24.3237 65.4314 19.0938 62.4096L37.9215 51.4849C43.1468 54.4927 43.1654 59.4065 37.9727 62.4096Z" fill="white"/>
</g>
<path d="M28.9424 51.5049L30.351 52.3184C31.7735 53.139 32.9939 53.9665 32.3267 54.9567L28.4775 52.7415L26.4134 52.9739L31.2319 55.7632C30.351 56.2769 28.2404 56.6395 25.7882 55.224L24.605 54.5406L23.4428 55.21L22.2969 61.3767L24.4167 62.5994L25.6185 56.2281C27.7476 57.3369 30.7601 57.7808 33.0078 56.7906L34.5233 57.6646L36.5874 57.4322L34.2328 56.0515C34.5919 55.7821 34.834 55.3853 34.9092 54.9427L37.0662 56.1886L39.1303 55.9562L31.0181 51.2725L28.9424 51.5049Z" fill="#544A00"/>
<path d="M37.997 51.3477C35.4401 49.8717 32.0557 49.0581 28.4668 49.0581C24.8779 49.0581 21.4936 49.8717 18.9576 51.3477C16.4217 52.8237 14.9922 54.8087 14.9922 56.9263C14.9922 59.0438 16.4217 61.0614 19.0134 62.5607C21.5703 64.0367 24.957 64.8502 28.5575 64.8502C32.158 64.8502 35.5308 64.0367 38.0597 62.5607C40.5887 61.0847 42.0275 59.0926 42.0229 56.9681C42.0182 54.8436 40.5864 52.8306 37.997 51.3477ZM37.8854 62.2724C35.4076 63.7205 32.0929 64.5178 28.5505 64.5178C25.0081 64.5178 21.6842 63.7136 19.1738 62.2724C16.6634 60.8313 15.3199 58.9392 15.3199 56.9263C15.3199 54.9133 16.6681 53.0538 19.118 51.6359C21.6052 50.1878 24.9291 49.3928 28.4599 49.3928C31.9907 49.3928 35.3262 50.1901 37.8296 51.6359C40.333 53.0817 41.6742 54.9505 41.6742 56.9635C41.6742 58.9764 40.3377 60.8476 37.8854 62.2724Z" fill="#544A00"/>
<path d="M45.1265 56.9884C45.1265 56.9884 45.1265 56.9698 45.1265 56.9628C45.1265 54.3432 43.3669 51.8886 40.1801 50.05C37.0445 48.2392 32.8791 47.2397 28.4557 47.2397C24.0324 47.2397 19.867 48.2416 16.7407 50.0593C13.6143 51.877 11.8594 54.3246 11.8594 56.9256V56.9442V62.3159C11.8594 64.9425 13.6073 67.4018 16.7941 69.2427C19.9391 71.0581 24.1091 72.0599 28.5371 72.0599C32.9651 72.0599 37.1235 71.0581 40.2475 69.2427C43.3715 67.4273 45.1102 64.9913 45.1148 62.4019V56.986L45.1265 56.9884ZM14.1838 66.816C12.8844 65.4492 12.1941 63.9128 12.1987 62.3159V58.8595C12.6169 60.0033 13.2958 61.0339 14.1815 61.8696L14.1838 66.816ZM17.4752 69.245C17.3032 69.152 17.1312 69.0591 16.9638 68.9614C16.0788 68.4582 15.2571 67.8511 14.5162 67.153V62.1811C15.2203 62.8082 15.9876 63.3605 16.8057 63.8291C17.0242 63.9546 17.2474 64.0755 17.4752 64.1941V69.245ZM20.7689 70.6025C19.7517 70.2882 18.762 69.8909 17.8099 69.4147V64.3637C18.7636 64.8296 19.7531 65.2183 20.7689 65.526V70.6025ZM24.553 71.4532C23.386 71.2866 22.2325 71.0364 21.1013 70.7048V65.6236C22.233 65.9516 23.3864 66.1993 24.553 66.3651V71.4532ZM28.3325 71.7322C27.1798 71.7247 26.0287 71.6471 24.8854 71.4997V66.4069C26.0287 66.5544 27.1798 66.632 28.3325 66.6394V71.7322ZM32.112 71.4997C30.9697 71.6484 29.8192 71.726 28.6673 71.7322V66.6417C29.8189 66.6381 30.9693 66.5644 32.112 66.4209V71.4997ZM35.8962 70.7187C34.7658 71.0478 33.6129 71.2941 32.4468 71.4555V66.3767C33.6123 66.2158 34.765 65.9727 35.8962 65.6491V70.7187ZM39.1899 69.4356C38.2376 69.9109 37.248 70.3074 36.2309 70.6211V65.5515C37.2461 65.2419 38.2354 64.8533 39.1899 64.3893V69.4356ZM42.4836 67.1833C41.7566 67.8678 40.9505 68.4632 40.0825 68.9568C39.8988 69.0637 39.7152 69.166 39.5246 69.2659V64.2266C39.7757 64.0988 40.022 63.9663 40.2591 63.8268C41.0539 63.3712 41.7994 62.8345 42.4836 62.2253V67.1833ZM44.7848 62.4043C44.7848 63.9802 44.0874 65.4957 42.816 66.8462V61.9185C43.6771 61.1055 44.343 60.1082 44.7639 59.0013C44.7639 58.9804 44.7825 58.9595 44.7894 58.9385L44.7848 62.4043ZM40.552 63.262C40.4009 63.3573 40.2498 63.4502 40.0871 63.5432C39.9244 63.6362 39.7664 63.7222 39.6036 63.8105C36.5819 65.4376 32.6885 66.3139 28.5441 66.3139C24.1741 66.3139 20.0623 65.3307 16.9684 63.5432C13.8746 61.7557 12.2104 59.4174 12.2057 56.9256C12.2011 54.4338 13.8746 52.1117 16.9103 50.3475C19.9855 48.56 24.0881 47.5745 28.4581 47.5745C32.828 47.5745 36.9282 48.5577 40.0174 50.3405C43.1065 52.1234 44.7894 54.4687 44.7941 56.9628C44.7964 59.3105 43.3041 61.5303 40.552 63.2573V63.262Z" fill="#544A00"/>
<path d="M44.9676 49.7712V55.1848C44.9676 57.6115 43.3684 60.0312 40.184 61.8837C33.7732 65.6028 23.3482 65.6028 16.8956 61.8837C13.6577 60.0126 12.0399 57.5557 12.0469 55.1011V49.6875C12.0469 52.1421 13.6577 54.599 16.8956 56.4678C23.3482 60.1869 33.7732 60.1869 40.184 56.4678C43.3684 54.6176 44.9607 52.1956 44.9676 49.7712Z" fill="#F7C800"/>
<g opacity="0.15">
<path d="M12.0469 49.7202C12.0469 52.1632 13.674 54.6131 16.8956 56.4773C23.3436 60.1964 33.7686 60.1964 40.1793 56.4773C43.3638 54.6178 44.9583 52.2027 44.9653 49.7783V51.8354C44.9281 54.2296 43.3382 56.6168 40.1863 58.4414C33.7755 62.1605 23.3505 62.1605 16.9026 58.4414C13.674 56.5819 12.0538 54.132 12.0538 51.6844" fill="#544A00"/>
</g>
<path d="M40.105 42.9792C46.5576 46.6983 46.5902 52.7418 40.1817 56.4609C33.7733 60.1799 23.346 60.1799 16.8934 56.4609C10.4408 52.7418 10.4222 46.6983 16.8306 42.9792C23.239 39.2602 33.6664 39.2602 40.105 42.9792Z" fill="#FEE425"/>
<path opacity="0.15" d="M28.5629 58.444C24.6114 58.444 20.8924 57.5909 18.0659 56.0452C15.0441 54.3948 13.3984 52.1448 13.3984 49.7065C13.3984 47.2682 15.0255 45.0576 18.0078 43.4305C20.7971 41.8848 24.5161 41.0317 28.4676 41.0317C32.4192 41.0317 36.1382 41.8848 38.9554 43.4305C41.9609 45.0576 43.6205 47.3146 43.6252 49.7553C43.6298 52.1959 41.9981 54.4204 39.0159 56.0545C36.2219 57.5909 32.5098 58.444 28.5629 58.444Z" fill="#544A00"/>
<path d="M37.9795 55.1947C32.8053 58.2165 24.3305 58.2165 19.1005 55.1947C13.8706 52.173 13.852 47.2755 19.0447 44.27C24.2375 41.2645 32.696 41.2482 37.9237 44.27C43.1513 47.2917 43.1722 52.1916 37.9795 55.1947Z" fill="#F7C800"/>
<g opacity="0.4">
<path d="M37.9805 55.1933C32.8063 58.2151 24.3315 58.2151 19.1016 55.1933L37.9294 44.2686C43.1547 47.274 43.1732 52.1902 37.9805 55.1933Z" fill="white"/>
</g>
<path d="M38.0065 44.127C35.4496 42.6486 32.0652 41.8374 28.4763 41.8374C24.8874 41.8374 21.5031 42.6486 18.9671 44.127C16.4312 45.6053 15.0156 47.5857 15.0156 49.7056C15.0156 51.8254 16.4428 53.8407 19.0345 55.3376C21.5914 56.816 24.9781 57.6272 28.5786 57.6272C32.1791 57.6272 35.5519 56.816 38.0808 55.3376C40.6377 53.857 42.0486 51.8719 42.0463 49.7474C42.044 47.6229 40.5959 45.6123 38.0065 44.127ZM37.8949 55.0517C35.4171 56.4998 32.1024 57.2971 28.56 57.2971C25.0176 57.2971 21.689 56.4998 19.1833 55.0517C16.6776 53.6036 15.3317 51.7185 15.3317 49.7056C15.3317 47.6926 16.6799 45.8331 19.1275 44.4152C21.6146 42.9671 24.9386 42.1698 28.4694 42.1698C32.0002 42.1698 35.3357 42.9671 37.8414 44.4152C40.3471 45.8633 41.6907 47.7345 41.693 49.7474C41.6953 51.7603 40.3471 53.6315 37.8949 55.0494V55.0517Z" fill="#544A00"/>
<path d="M45.1343 49.7717V49.7484C45.1343 47.1288 43.3747 44.6742 40.1902 42.8356C37.0523 41.0226 32.8892 40.0254 28.4659 40.0254C24.0425 40.0254 19.8655 41.0272 16.7485 42.8426C13.6314 44.658 11.8672 47.1102 11.8672 49.7112C11.8672 49.7112 11.8672 49.7229 11.8672 49.7298V55.1016C11.8672 57.7282 13.6128 60.1874 16.7996 62.0283C19.9469 63.8437 24.1146 64.8455 28.5449 64.8455C32.9752 64.8455 37.1313 63.8437 40.2553 62.0283C43.3793 60.213 45.1157 57.777 45.1227 55.1876V49.7717H45.1343ZM14.1893 59.6017C12.8899 58.2349 12.1996 56.6985 12.2042 55.1016V51.6452C12.6213 52.7922 13.2993 53.8267 14.1846 54.6669L14.1893 59.6017ZM17.483 62.0214C17.311 61.9284 17.139 61.8354 16.9693 61.7378C16.0855 61.2412 15.2646 60.6403 14.524 59.948V54.9668C15.2267 55.5949 15.9942 56.1466 16.8136 56.6124C17.0297 56.7403 17.2552 56.8612 17.483 56.9774V62.0214ZM20.7767 63.3788C19.7596 63.0644 18.7699 62.6671 17.8177 62.1911V57.1447C18.7718 57.6097 19.7612 57.9983 20.7767 58.307V63.3788ZM24.5608 64.2296C23.3935 64.0635 22.2399 63.8126 21.1091 63.4788V58.4092C22.2406 58.7375 23.3941 58.9846 24.5608 59.1484V64.2296ZM28.3403 64.5062C27.1876 64.5 26.0364 64.4224 24.8932 64.2737V59.1926C26.0365 59.34 27.1877 59.4176 28.3403 59.425V64.5062ZM32.1199 64.2737C30.9776 64.4235 29.8271 64.5011 28.6751 64.5062V59.4273C29.827 59.4199 30.9774 59.3423 32.1199 59.1949V64.2737ZM35.9017 63.4927C34.7718 63.8207 33.6198 64.067 32.4546 64.2296V59.1623C33.6193 59.0012 34.7712 58.7581 35.9017 58.4348V63.4927ZM39.1977 62.2097C38.245 62.6841 37.2555 63.0806 36.2387 63.3951V58.3372C37.2541 58.0282 38.2435 57.6396 39.1977 57.175V62.2097ZM42.4914 59.9573C41.7636 60.6409 40.9577 61.2362 40.0903 61.7308C39.9067 61.8377 39.7207 61.94 39.5324 62.04V57.0122C39.7811 56.8844 40.0275 56.7519 40.2669 56.6124C41.0616 56.1557 41.807 55.6183 42.4914 55.0086V59.9573ZM44.7926 55.1783C44.7926 56.7542 44.0953 58.2698 42.8238 59.6179V54.6995C43.6841 53.8859 44.3499 52.8888 44.7717 51.7823C44.7717 51.7614 44.7879 51.7405 44.7972 51.7195L44.7926 55.1783ZM40.5598 56.043C40.4087 56.1383 40.2553 56.2312 40.0949 56.3242C39.9346 56.4172 39.7765 56.5032 39.6138 56.5915C36.592 58.2186 32.6963 59.0949 28.5519 59.0949C24.1843 59.0949 20.0724 58.1117 16.9763 56.3242C13.8801 54.5367 12.2182 52.203 12.2135 49.7205C12.2089 47.2381 13.8801 44.9067 16.9182 43.1424C19.9934 41.355 24.0936 40.3694 28.4659 40.3694C32.8381 40.3694 36.9361 41.3503 40.0229 43.1331C43.1097 44.916 44.7972 47.2636 44.8019 49.7577C44.8042 52.0961 43.3026 54.3159 40.5598 56.043Z" fill="#544A00"/>
<path d="M42.2946 49.869H47.7082C50.1349 49.869 52.5546 48.2698 54.4072 45.0854C58.1262 38.6746 58.1262 28.2496 54.4072 21.797C52.5476 18.5591 50.0791 16.9413 47.6245 16.9483H42.2109C44.6655 16.9483 47.1224 18.5591 48.9913 21.7993C52.7103 28.2496 52.7103 38.6746 48.9913 45.0854C47.141 48.2698 44.719 49.862 42.2946 49.869Z" fill="#F7C800"/>
<g opacity="0.15">
<path d="M42.2344 16.9473C44.6773 16.9473 47.1157 18.5744 48.9915 21.796C52.7105 28.2439 52.7105 38.669 48.9915 45.0797C47.1319 48.2642 44.7169 49.8587 42.2925 49.8657H44.3496C46.7437 49.8285 49.1309 48.2386 50.9556 45.0867C54.6747 38.6759 54.6747 28.2509 50.9556 21.803C49.0914 18.5744 46.6461 16.9473 44.1985 16.9473" fill="#544A00"/>
</g>
<path d="M35.5098 21.7344C39.2289 15.326 45.2724 15.3608 48.9914 21.7995C52.7105 28.2381 52.7105 38.6748 48.9914 45.0855C45.2724 51.4963 39.2289 51.4614 35.5098 45.0088C31.7907 38.5562 31.7861 28.1451 35.5098 21.7344Z" fill="#FEE425"/>
<path opacity="0.15" d="M50.9747 33.4648C50.9747 29.5133 50.1217 25.7942 48.5759 22.9677C46.9256 19.946 44.6755 18.3003 42.2372 18.3003C39.7989 18.3003 37.5884 19.9274 35.9613 22.9096C34.4156 25.6989 33.5625 29.418 33.5625 33.3695C33.5625 37.321 34.4156 41.0401 35.9613 43.8573C37.5884 46.8628 39.8454 48.5224 42.286 48.527C44.7267 48.5317 46.9512 46.8999 48.5852 43.9177C50.1147 41.1214 50.9747 37.4024 50.9747 33.4648Z" fill="#544A00"/>
<path d="M47.7162 42.8789C50.738 37.7047 50.738 29.2299 47.7162 23.9999C44.6945 18.77 39.7969 18.7514 36.7915 23.9441C33.786 29.1369 33.7697 37.5955 36.7915 42.8254C39.8132 48.0553 44.7108 48.0716 47.7162 42.8789Z" fill="#F7C800"/>
<g opacity="0.4">
<path d="M47.7216 42.8784C50.7434 37.7043 50.7434 29.2295 47.7216 23.9995L36.7969 42.8273C39.8 48.0526 44.7162 48.0712 47.7216 42.8784Z" fill="white"/>
</g>
<path d="M42.2694 46.933C44.3939 46.933 46.3789 45.5384 47.8596 42.9676C49.3379 40.4409 50.1492 37.0659 50.1492 33.4653C50.1492 29.8648 49.3449 26.4781 47.8596 23.9213C46.3627 21.3295 44.3614 19.9023 42.2275 19.9023C40.0937 19.9023 38.1273 21.3086 36.6489 23.8655C35.1706 26.4223 34.3594 29.7788 34.3594 33.3747C34.3594 36.9706 35.1706 40.3479 36.6489 42.9048C38.1273 45.4617 40.1309 46.933 42.2694 46.933ZM42.2694 46.5983C40.2564 46.5983 38.362 45.2269 36.9372 42.7467C35.5123 40.2666 34.7011 36.9101 34.7011 33.37C34.7011 29.8299 35.4983 26.5153 36.9465 24.0282C38.3644 21.5806 40.2425 20.2324 42.2368 20.2324C44.2312 20.2324 46.1442 21.6015 47.583 24.084C49.0218 26.5665 49.8098 29.9183 49.8098 33.4514C49.8098 36.9845 49.0125 40.3107 47.5644 42.7863C46.1163 45.2618 44.2707 46.596 42.2694 46.5936V46.5983Z" fill="#544A00"/>
<path d="M42.2932 50.0382L47.7091 50.0266C50.2985 50.0266 52.7298 48.2926 54.5498 45.1593C56.3699 42.026 57.367 37.8676 57.367 33.4512C57.367 29.0348 56.3652 24.8508 54.5498 21.7059C52.7089 18.5191 50.2497 16.7665 47.6231 16.7735L42.2513 16.7851H42.2327C39.6317 16.7851 37.1911 18.5121 35.3641 21.6547C33.5371 24.7974 32.5469 28.9418 32.5469 33.3721C32.5469 37.8025 33.5464 41.9585 35.3571 45.0965C37.1957 48.281 39.6503 50.0382 42.2699 50.0406H42.2932V50.0382ZM47.1744 19.0909C46.3375 18.2071 45.3072 17.5292 44.1643 17.1105H47.6207C49.2176 17.1105 50.7541 17.7962 52.1208 19.0956L47.1744 19.0909ZM49.4989 22.3846C49.3826 22.1522 49.2664 21.9313 49.1339 21.7152C48.668 20.8958 48.1164 20.1283 47.4882 19.4256H52.4579C53.1547 20.1659 53.7596 20.9878 54.2593 21.8732C54.3569 22.0406 54.4499 22.2126 54.5429 22.3846H49.4989ZM50.8331 25.6783C50.5244 24.6628 50.1358 23.6734 49.6709 22.7193H54.7172C55.1932 23.6716 55.5905 24.6612 55.905 25.6783H50.8331ZM51.6699 29.4625C51.5059 28.2965 51.2589 27.1438 50.9307 26.013H56.0003C56.3341 27.1438 56.585 28.2975 56.7511 29.4648L51.6699 29.4625ZM51.9488 33.242C51.9415 32.0893 51.8638 30.9381 51.7164 29.7949H56.7836C56.9322 30.938 57.0099 32.0892 57.016 33.242H51.9488ZM51.7164 37.0215C51.8637 35.879 51.9414 34.7286 51.9488 33.5767H57.0277C57.0226 34.7287 56.945 35.8792 56.7952 37.0215H51.7164ZM50.947 40.8033C51.2705 39.6729 51.5136 38.521 51.6745 37.3562H56.7487C56.5873 38.5216 56.341 39.6737 56.0119 40.8033H50.947ZM49.6918 44.0993C50.1564 43.1451 50.545 42.1557 50.854 41.1404H55.9236C55.609 42.1571 55.2126 43.1467 54.7381 44.0993H49.6918ZM47.5301 47.3977C48.1403 46.7137 48.6778 45.9682 49.1339 45.1732C49.2734 44.9408 49.4059 44.6874 49.5337 44.4387H54.5684C54.4685 44.627 54.3662 44.8129 54.2593 44.9966C53.7652 45.8643 53.1699 46.6703 52.4857 47.3977H47.5301ZM44.2317 49.6989L44.2945 49.6733C45.4009 49.2516 46.3981 48.5858 47.2116 47.7254H52.1394C50.7889 49.0039 49.2734 49.6896 47.6974 49.6942L44.2317 49.6989ZM42.2606 49.6989C39.7665 49.6989 37.4142 47.9974 35.636 44.9199C33.8578 41.8423 32.8723 37.7281 32.8723 33.3628C32.8723 28.9976 33.8578 24.8903 35.6453 21.8151C37.4096 18.7771 39.7456 17.1082 42.2234 17.1105C44.7013 17.1128 47.0629 18.8073 48.8364 21.8756C50.6099 24.9438 51.6071 29.0813 51.6071 33.4512C51.6071 37.5979 50.7215 41.4983 49.1037 44.5131C49.0154 44.6758 48.9271 44.8385 48.8364 44.9942C48.7458 45.15 48.6505 45.3057 48.5552 45.4591C46.8374 48.2043 44.6176 49.7058 42.2699 49.7035L42.2606 49.6989Z" fill="#544A00"/>
<path d="M81.5637 68.3845V73.8004C81.5637 76.2247 79.9622 78.6468 76.7777 80.497C70.367 84.2161 59.942 84.2161 53.4917 80.497C50.2538 78.6375 48.6337 76.1713 48.6406 73.7167V68.3008C48.6406 70.7554 50.2538 73.2123 53.4917 75.0834C59.942 78.8025 70.3693 78.8025 76.7777 75.0834C79.9622 73.2309 81.5567 70.8112 81.5637 68.3845Z" fill="#F7C800"/>
<g opacity="0.15">
<path d="M48.6406 68.3164C48.6406 70.7617 50.2677 73.2116 53.4894 75.0758C59.9396 78.7949 70.3646 78.7949 76.7731 75.0758C79.9598 73.2163 81.5544 70.8012 81.559 68.3768V70.4316C81.5195 72.8281 79.932 75.213 76.7777 77.04C70.3693 80.759 59.9443 80.759 53.494 77.04C50.2677 75.1804 48.6406 72.7328 48.6406 70.2875" fill="#544A00"/>
</g>
<path d="M76.7043 61.594C83.1568 65.3131 83.1917 71.3566 76.781 75.0756C70.3702 78.7947 59.9452 78.7947 53.4949 75.0756C47.0447 71.3566 47.0214 65.3131 53.4322 61.594C59.8429 57.8749 70.2633 57.8749 76.7043 61.594Z" fill="#FEE425"/>
<path opacity="0.15" d="M65.1622 77.0562C61.2107 77.0562 57.4916 76.2054 54.6674 74.6574C51.6689 73.0093 50 70.757 50 68.3163C50 65.8757 51.6271 63.6675 54.607 62.0404C57.4103 60.4947 61.1154 59.6416 65.0669 59.6416C69.0184 59.6416 72.7375 60.4923 75.5547 62.0404C78.5601 63.6675 80.2174 65.9245 80.2221 68.3628C80.2267 70.8011 78.595 73.0303 75.6128 74.662C72.8211 76.2054 69.1021 77.0562 65.1622 77.0562Z" fill="#544A00"/>
<path d="M74.581 73.809C69.4069 76.8308 60.932 76.8308 55.7021 73.809C50.4721 70.7873 50.4535 65.8897 55.6463 62.8842C60.839 59.8788 69.2953 59.8625 74.5252 62.8842C79.7552 65.906 79.7738 70.8035 74.581 73.809Z" fill="#F7C800"/>
<g opacity="0.4">
<path d="M74.5742 73.8105C69.4001 76.8323 60.9253 76.8323 55.6953 73.8105L74.5231 62.8857C79.7484 65.8912 79.767 70.805 74.5742 73.8105Z" fill="white"/>
</g>
<path d="M65.5518 62.9026L66.9604 63.7161C68.3829 64.5367 69.6032 65.3642 68.9361 66.3567L65.0869 64.1322L63.0228 64.3647L67.8413 67.154C66.9604 67.6653 64.8498 68.0279 62.3975 66.6124L61.2144 65.929L60.0522 66.5984L58.9062 72.7651L61.0261 73.9901L62.2255 67.6188C64.357 68.7253 67.3695 69.1692 69.6172 68.179L71.1327 69.053L73.1968 68.8206L70.8305 67.4538C71.1892 67.1851 71.4312 66.7891 71.5069 66.3474L73.6617 67.5909L75.7257 67.3585L67.6158 62.6748L65.5518 62.9026Z" fill="#544A00"/>
<path d="M74.6063 62.7378C72.0495 61.2618 68.6651 60.4482 65.0762 60.4482C61.4873 60.4482 58.103 61.2618 55.567 62.7378C53.0311 64.2138 51.6016 66.1989 51.6016 68.3164C51.6016 70.4339 53.0311 72.4515 55.6228 73.9508C58.1797 75.4268 61.5663 76.2403 65.1669 76.2403C68.7674 76.2403 72.1401 75.4268 74.6691 73.9508C77.1981 72.4748 78.6322 70.4851 78.6322 68.3606C78.6322 66.236 77.1957 64.2277 74.6063 62.7378ZM74.4948 73.6626C72.0169 75.1084 68.7023 75.9056 65.1599 75.9056C61.6175 75.9056 58.2866 75.1084 55.7832 73.6626C53.2798 72.2168 51.9293 70.327 51.9293 68.3164C51.9293 66.3058 53.2775 64.4439 55.7274 63.026C58.2145 61.5802 61.5385 60.783 65.0692 60.783C68.6 60.783 71.9333 61.5756 74.4483 63.0307C76.9633 64.4858 78.2975 66.3476 78.2998 68.3606C78.3022 70.3735 76.947 72.2447 74.4948 73.6626Z" fill="#544A00"/>
<path d="M81.7318 68.3859C81.7318 68.3859 81.7318 68.3697 81.7318 68.3604C81.7318 65.7408 79.9723 63.2862 76.7855 61.4476C73.6498 59.6368 69.4845 58.6396 65.0611 58.6396C60.6377 58.6396 56.4724 59.6391 53.346 61.4568C50.2197 63.2745 48.4647 65.7222 48.4647 68.3255V68.3441L48.4531 73.7158C48.4531 76.3401 50.1988 78.8017 53.3879 80.6403C56.5328 82.4557 60.7028 83.4575 65.1308 83.4575C69.5589 83.4575 73.7172 82.4557 76.8413 80.6403C79.9653 78.8249 81.7039 76.3912 81.7086 73.7995L81.7202 68.3859H81.7318ZM50.7892 78.2159C49.4898 76.8468 48.7995 75.3104 48.8041 73.7158V70.2594C49.223 71.4021 49.9018 72.4318 50.7868 73.2672L50.7892 78.2159ZM54.0805 80.6356C53.9085 80.5427 53.7365 80.452 53.5692 80.3544C52.6846 79.8496 51.863 79.2418 51.1216 78.5437V73.5787C51.8245 74.2073 52.5919 74.7597 53.4111 75.2267C53.6296 75.3522 53.8528 75.4731 54.0805 75.5916V80.6356ZM57.3742 81.9954C56.3574 81.6794 55.3678 81.2814 54.4153 80.8053V75.7544C55.3694 76.2193 56.3588 76.6079 57.3742 76.9166V81.9954ZM61.1584 82.8438C59.9929 82.6764 58.8409 82.4255 57.7113 82.093V77.0212C58.843 77.3492 59.9965 77.5969 61.1631 77.7627L61.1584 82.8438ZM64.9379 83.1228C63.7852 83.1153 62.634 83.0377 61.4908 82.8903V77.8068C62.6342 77.9532 63.7853 78.0308 64.9379 78.0393V83.1228ZM68.7174 82.8903C67.575 83.0378 66.4245 83.1155 65.2726 83.1228V78.0416C66.4245 78.0342 67.5749 77.9566 68.7174 77.8091V82.8903ZM72.5016 82.107C71.3712 82.4369 70.2184 82.6839 69.0521 82.8462V77.7743C70.2177 77.6134 71.3703 77.3703 72.5016 77.0467V82.107ZM75.7953 80.8262C74.8427 81.3003 73.8531 81.696 72.8363 82.0094V76.9491C73.8518 76.6405 74.8412 76.2519 75.7953 75.7869V80.8262ZM79.089 78.5715C78.3617 79.2565 77.5557 79.8526 76.6879 80.3474C76.5042 80.452 76.3206 80.5543 76.13 80.6566V75.6265C76.381 75.4963 76.6274 75.3639 76.8645 75.2267C77.6594 74.7703 78.4049 74.2328 79.089 73.6229V78.5715ZM81.3901 73.7925C81.3901 75.3685 80.6928 76.884 79.4214 78.2345V73.3137C80.2821 72.4995 80.9479 71.5016 81.3692 70.3942C81.3791 70.3739 81.3877 70.353 81.3948 70.3315L81.3901 73.7925ZM77.1574 74.6503C77.0063 74.7456 76.8552 74.8409 76.6925 74.9315C76.5298 75.0222 76.3717 75.1128 76.209 75.2011C73.1873 76.8166 69.2939 77.7045 65.1494 77.7045C60.7795 77.7045 56.6676 76.719 53.5738 74.9315C50.48 73.144 48.8157 70.815 48.8111 68.3162C48.8064 65.8175 50.4777 63.5023 53.5157 61.7381C56.5909 59.9506 60.6935 58.9674 65.0634 58.9674C69.4333 58.9674 73.5336 59.9483 76.6228 61.7311C79.7119 63.514 81.3948 65.8593 81.3994 68.3534C81.4018 70.708 79.9002 72.9279 77.1574 74.6549V74.6503Z" fill="#544A00"/>
<path d="M81.5692 61.1691V66.585C81.5692 69.0094 79.97 71.4314 76.7855 73.2817C70.3748 77.0007 59.9498 77.0007 53.4972 73.2817C50.2593 71.4221 48.6415 68.9559 48.6485 66.5013V61.0854C48.6485 63.54 50.2593 65.9969 53.4972 67.8658C59.9498 71.5848 70.3748 71.5848 76.7855 67.8658C79.97 66.0155 81.5622 63.5958 81.5692 61.1691Z" fill="#F7C800"/>
<g opacity="0.15">
<path d="M48.6406 61.1104C48.6406 63.5556 50.2677 66.0033 53.4894 67.8698C59.9373 71.5888 70.3623 71.5888 76.7731 67.8698C79.9575 66.0102 81.5521 63.5952 81.559 61.1708V63.2256C81.5219 65.6221 79.932 68.0069 76.78 69.8316C70.3693 73.5506 59.9443 73.5506 53.4963 69.8316C50.2677 67.9651 48.6406 65.5267 48.6406 63.0722" fill="#544A00"/>
</g>
<path d="M76.7144 54.3704C83.167 58.0894 83.1995 64.1329 76.7911 67.852C70.3827 71.5711 59.9553 71.5711 53.5027 67.852C47.0502 64.1329 47.0316 58.0894 53.44 54.3704C59.8484 50.6513 70.2758 50.6513 76.7144 54.3704Z" fill="#FEE425"/>
<path opacity="0.15" d="M65.1622 69.8419C61.2107 69.8419 57.4916 68.9912 54.6674 67.4431C51.6457 65.7928 50 63.5427 50 61.1044C50 58.6661 51.6271 56.4556 54.6093 54.8285C57.4102 53.2804 61.1177 52.4297 65.0692 52.4297C69.0207 52.4297 72.7398 53.2804 75.557 54.8285C78.5625 56.4556 80.2221 58.7103 80.2268 61.1509C80.2314 63.5916 78.5997 65.8183 75.6174 67.4501C72.8142 68.9888 69.1114 69.8419 65.1622 69.8419Z" fill="#544A00"/>
<path d="M74.581 66.5946C69.4069 69.6164 60.932 69.6164 55.7021 66.5946C50.4721 63.5729 50.4535 58.6754 55.6463 55.6699C60.839 52.6644 69.2976 52.6481 74.5252 55.6699C79.7528 58.6916 79.7738 63.5892 74.581 66.5946Z" fill="#F7C800"/>
<g opacity="0.4">
<path d="M74.5821 66.5937C69.4079 69.6155 60.9331 69.6155 55.7031 66.5937L74.5309 55.6689C79.7562 58.6744 79.7748 63.5882 74.5821 66.5937Z" fill="white"/>
</g>
<path d="M65.5596 55.6877L66.9682 56.5013C68.3884 57.3218 69.6087 58.1493 68.9416 59.1395L65.0947 56.9266L63.0306 57.1591L67.8491 59.9484C66.9659 60.4621 64.8553 60.8247 62.4053 59.4091L61.2199 58.7257L60.0577 59.3952L58.9141 65.5619L61.0339 66.7868L62.2333 60.4133C64.3648 61.5197 67.3773 61.9637 69.625 60.9735L71.1405 61.8474L73.2046 61.615L70.836 60.2482C71.1959 59.9802 71.4389 59.5841 71.5147 59.1418L73.6695 60.3854L75.7336 60.1529L67.6237 55.4692L65.5596 55.6877Z" fill="#544A00"/>
<path d="M74.608 55.5322C72.0512 54.0562 68.6668 53.2427 65.0779 53.2427C61.489 53.2427 58.1046 54.0562 55.5687 55.5322C53.0328 57.0082 51.6172 58.9933 51.6172 61.1108C51.6172 63.2284 53.0444 65.246 55.6361 66.7452C58.193 68.2212 61.5796 69.0348 65.1802 69.0348C68.7807 69.0348 72.1534 68.2212 74.6824 66.7452C77.2393 65.2646 78.6502 63.2772 78.6479 61.1527C78.6455 59.0282 77.1974 57.0129 74.608 55.5322ZM74.4964 66.457C72.0186 67.9028 68.704 68.7001 65.1616 68.7001C61.6192 68.7001 58.2906 67.9028 55.7849 66.4547C53.2791 65.0066 51.9333 63.1215 51.9333 61.1085C51.9333 59.0956 53.2815 57.236 55.7291 55.8181C58.2162 54.3723 61.5401 53.5751 65.0709 53.5751C68.6017 53.5751 71.9373 54.37 74.443 55.8135C76.9487 57.2569 78.2922 59.1328 78.2945 61.1457C78.2969 63.1586 76.9487 65.0298 74.4964 66.457Z" fill="#544A00"/>
<path d="M81.7399 61.1716V61.146C81.7399 58.5264 79.9803 56.0718 76.7959 54.2332C73.6579 52.4225 69.4949 51.4253 65.0715 51.4253C60.6481 51.4253 56.4711 52.4248 53.3541 54.2425C50.237 56.0602 48.4728 58.5078 48.4844 61.1088C48.4844 61.1088 48.4844 61.1228 48.4844 61.1274V66.4992C48.4844 69.1257 50.2301 71.585 53.4168 73.4259C56.5478 75.2413 60.7318 76.2431 65.1482 76.2431C69.5646 76.2431 73.7485 75.2413 76.8633 73.4306C79.978 71.6199 81.7236 69.1815 81.7306 66.5898L81.7422 61.1762L81.7399 61.1716ZM50.7949 71.0016C49.4956 69.6325 48.8052 68.096 48.8099 66.4992V63.0427C49.228 64.1859 49.906 65.2164 50.7903 66.0529L50.7949 71.0016ZM54.0886 73.4306C53.9166 73.3376 53.7446 73.2446 53.5749 73.147C52.6906 72.6438 51.8697 72.0367 51.1296 71.3386V66.3643C51.8329 66.9925 52.6003 67.5449 53.4192 68.0124C53.6353 68.1379 53.8608 68.2587 54.0886 68.3773V73.4306ZM57.3823 74.7904C56.3651 74.4751 55.3755 74.0771 54.4233 73.6003V68.5493C55.3779 69.0132 56.3672 69.4018 57.3823 69.7115V74.7904ZM61.1665 75.6388C59.9975 75.469 58.8424 75.215 57.7101 74.8787V69.8068C58.8418 70.1348 59.9952 70.3826 61.1618 70.5483L61.1665 75.6388ZM64.946 75.9177C63.7933 75.9092 62.6422 75.8316 61.4989 75.6853V70.5901C62.6421 70.7376 63.7933 70.8152 64.946 70.8226V75.9177ZM68.7255 75.6853C67.5831 75.8339 66.4327 75.9115 65.2807 75.9177V70.8249C66.4326 70.8175 67.583 70.7398 68.7255 70.5925V75.6853ZM72.5073 74.9043C71.3775 75.2331 70.2255 75.4801 69.0602 75.6434V70.5599C70.2249 70.3988 71.3768 70.1557 72.5073 69.8324V74.9043ZM75.8033 73.6212C74.8507 74.0957 73.8611 74.4921 72.8443 74.8066V69.7348C73.8597 69.4258 74.8491 69.0372 75.8033 68.5725V73.6212ZM79.0947 71.3618C78.3669 72.0455 77.561 72.6408 76.6936 73.1354C76.51 73.2423 76.324 73.3446 76.1357 73.4445V68.4098C76.3844 68.282 76.6308 68.1495 76.8702 68.0124C77.6644 67.5548 78.4097 67.0174 79.0947 66.4085V71.3618ZM81.3959 66.5828C81.3959 68.1588 80.6986 69.6743 79.4271 71.0248V66.097C80.2874 65.2835 80.9532 64.2863 81.375 63.1799C81.375 63.159 81.3912 63.138 81.4005 63.1171L81.3959 66.5828ZM77.1631 67.4405C77.012 67.5359 76.8586 67.6288 76.6982 67.7218C76.5378 67.8148 76.3798 67.9031 76.2171 67.9891C73.1953 69.6162 69.2996 70.4925 65.1552 70.4925C60.7876 70.4925 56.6757 69.5093 53.5796 67.7218C50.4834 65.9343 48.8168 63.6006 48.8145 61.1088C48.8122 58.617 50.4811 56.295 53.5191 54.5307C56.5943 52.7432 60.6946 51.7577 65.0668 51.7577C69.4391 51.7577 73.537 52.7409 76.6238 54.5237C79.7107 56.3066 81.3982 58.6519 81.4005 61.146C81.4191 63.4937 79.9083 65.7135 77.1654 67.4405H77.1631Z" fill="#544A00"/>
<path d="M81.5855 53.9533V59.3669C81.5855 61.7936 79.9839 64.2156 76.7995 66.0659C70.3911 69.7849 59.966 69.7849 53.5134 66.0659C50.2755 64.1947 48.6484 61.7378 48.6484 59.2832V53.8696C48.6484 56.3242 50.2755 58.7858 53.5134 60.6453C59.966 64.3644 70.3911 64.3644 76.7995 60.6453C79.9839 58.7997 81.5785 56.3777 81.5855 53.9533Z" fill="#F7C800"/>
<g opacity="0.15">
<path d="M48.6641 53.9043C48.6641 56.3496 50.2912 58.7972 53.5128 60.6637C59.9631 64.3828 70.3881 64.3828 76.7965 60.6637C79.9833 58.8042 81.5778 56.3868 81.5825 53.9624V56.0195C81.543 58.416 79.9554 60.8008 76.8012 62.6255C70.3927 66.3446 59.9677 66.3446 53.5175 62.6255C50.2888 60.766 48.6687 58.316 48.6687 55.8684" fill="#544A00"/>
</g>
<path d="M76.7231 47.1638C83.1733 50.8829 83.2082 56.9264 76.7975 60.6454C70.3867 64.3645 59.964 64.3645 53.5114 60.6454C47.0588 56.9264 47.0379 50.8829 53.4487 47.1638C59.8594 43.4447 70.2844 43.4447 76.7231 47.1638Z" fill="#FEE425"/>
<path opacity="0.15" d="M65.1778 62.626C61.2263 62.626 57.5072 61.7729 54.6831 60.2272C51.6613 58.5768 50.0156 56.3268 50.0156 53.8885C50.0156 51.4502 51.6427 49.2396 54.6226 47.6125C57.4259 46.0645 61.131 45.2114 65.0825 45.2114C69.034 45.2114 72.7531 46.0645 75.5703 47.6102C78.5758 49.2489 80.2354 51.4943 80.2377 53.935C80.2401 56.3756 78.6106 58.6001 75.6284 60.2341C72.8368 61.7729 69.1247 62.626 65.1778 62.626Z" fill="#544A00"/>
<path d="M74.5888 59.3763C69.4147 62.398 60.9398 62.398 55.7099 59.3763C50.4799 56.3545 50.4614 51.4593 55.6541 48.4515C60.8469 45.4437 69.3031 45.4298 74.533 48.4515C79.763 51.4733 79.7886 56.3731 74.5888 59.3763Z" fill="#F7C800"/>
<g opacity="0.4">
<path d="M74.5899 59.3769C69.4157 62.3987 60.9409 62.3987 55.7109 59.3769L74.5387 48.4521C79.764 51.4599 79.7896 56.3738 74.5899 59.3769Z" fill="white"/>
</g>
<path d="M65.5752 48.4728L66.9838 49.2864C68.4063 50.1069 69.6267 50.9344 68.9596 51.9246L65.1103 49.7024L63.0462 49.9349L67.8648 52.7242C66.9838 53.2379 64.8732 53.6005 62.421 52.1849L61.2378 51.5015L60.0756 52.171L58.9297 58.3376L61.0496 59.5603L62.242 53.1751C64.3712 54.2839 67.3836 54.7278 69.6336 53.7376L71.1492 54.6116L73.2132 54.3792L70.8447 53.0124C71.2036 52.7425 71.4463 52.3461 71.5234 51.9037L73.6781 53.1495L75.7422 52.9171L67.63 48.2334L65.5752 48.4728Z" fill="#544A00"/>
<path d="M74.6196 48.3101C72.0628 46.8341 68.6784 46.0205 65.0895 46.0205C61.5006 46.0205 58.1163 46.8341 55.5803 48.3101C53.0444 49.7861 51.6149 51.7711 51.6172 53.8887C51.6195 56.0062 53.0444 58.0238 55.6361 59.5231C58.193 60.9991 61.5797 61.8126 65.1802 61.8126C68.7807 61.8126 72.1534 60.9991 74.6824 59.5231C77.2114 58.0471 78.6502 56.055 78.6455 53.9305C78.6409 51.806 77.209 49.7977 74.6196 48.3101ZM74.5081 59.2348C72.0302 60.6829 68.7156 61.4802 65.1732 61.4802C61.6308 61.4802 58.2999 60.6829 55.7965 59.2348C53.2931 57.7867 51.9426 55.9016 51.9426 53.8887C51.9426 51.8757 53.2908 50.0162 55.7407 48.5983C58.2278 47.1502 61.5518 46.3529 65.0826 46.3529C68.6133 46.3529 71.9489 47.1502 74.4523 48.5983C76.9557 50.0464 78.3015 51.9176 78.3062 53.9305C78.3108 55.9435 76.9603 57.8146 74.5081 59.2325V59.2348Z" fill="#544A00"/>
<path d="M81.7515 53.9556C81.7515 53.9556 81.7515 53.937 81.7515 53.9301C81.7515 51.3105 79.9919 48.8559 76.8074 47.0173C73.6695 45.2065 69.5041 44.207 65.0831 44.207C60.662 44.207 56.4827 45.2089 53.3657 47.0266C50.2486 48.8442 48.4844 51.2919 48.4844 53.8929V53.9045V59.2762C48.4844 61.9028 50.2323 64.3621 53.4191 66.203C56.5641 68.0184 60.7341 69.0202 65.1621 69.0202C69.5901 69.0202 73.7485 68.0184 76.8725 66.203C79.9965 64.3876 81.7352 61.9517 81.7422 59.3622V53.9463L81.7515 53.9556ZM50.8088 63.7833C49.5094 62.4165 48.8191 60.8801 48.8237 59.2832V55.8268C49.2412 56.9743 49.92 58.0088 50.8065 58.8485L50.8088 63.7833ZM54.1002 66.203C53.9282 66.11 53.7562 66.0171 53.5888 65.9194C52.7053 65.4222 51.8837 64.8222 51.1412 64.132V59.1484C51.8453 59.7755 52.6126 60.3278 53.4307 60.7964C53.6492 60.9219 53.8724 61.0428 54.1002 61.159V66.203ZM57.3939 67.5605C56.3767 67.2462 55.3871 66.8489 54.4349 66.3727V61.3264C55.3886 61.7923 56.3781 62.1809 57.3939 62.4886V67.5605ZM61.178 68.4112C60.0115 68.2452 58.8586 67.9942 57.7286 67.6604V62.5909C58.8595 62.9191 60.0122 63.1669 61.178 63.3324V68.4112ZM64.9575 68.6901C63.8048 68.6827 62.6537 68.6051 61.5104 68.4577V63.3742C62.6537 63.5216 63.8048 63.5992 64.9575 63.6066V68.6901ZM68.737 68.4577C67.5947 68.6064 66.4442 68.684 65.2923 68.6901V63.609C66.4442 63.6016 67.5946 63.524 68.737 63.3765V68.4577ZM72.5212 67.6767C71.3909 68.006 70.238 68.2523 69.0718 68.4135V63.344C70.2373 63.1831 71.39 62.94 72.5212 62.6164V67.6767ZM75.8149 66.3936C74.8626 66.8689 73.873 67.2654 72.8559 67.5791V62.5188C73.8711 62.2092 74.8604 61.8206 75.8149 61.3566V66.3936ZM79.0993 64.1459C78.3723 64.8305 77.5663 65.4259 76.6982 65.9194C76.5146 66.0264 76.3309 66.1286 76.1403 66.2286V61.1939C76.3914 61.066 76.6377 60.9336 76.8748 60.7941C77.6696 60.3385 78.4151 59.8018 79.0993 59.1926V64.1459ZM81.4005 59.3669C81.4005 60.9429 80.7032 62.4584 79.434 63.8089V58.8811C80.2937 58.0674 80.9587 57.0703 81.3796 55.9639C81.3796 55.943 81.3982 55.9221 81.4051 55.9012L81.4005 59.3669ZM77.17 60.2246C77.019 60.3199 76.8655 60.4129 76.7052 60.5059C76.5448 60.5988 76.3844 60.6848 76.2217 60.7732C73.1999 62.4003 69.3065 63.2766 65.1621 63.2766C60.7922 63.2766 56.6826 62.2933 53.5865 60.5059C50.4903 58.7184 48.8354 56.3847 48.833 53.9045C48.8307 51.4244 50.5089 49.079 53.5307 47.3148C56.6059 45.5273 60.7085 44.5417 65.0807 44.5417C69.453 44.5417 73.5486 45.525 76.6377 47.3078C79.7269 49.0906 81.4237 51.436 81.4237 53.9301C81.4237 56.2777 79.9198 58.4976 77.1793 60.2246H77.17Z" fill="#544A00"/>
<path d="M81.5886 46.7388L81.577 52.1524C81.577 54.5791 79.9778 56.9988 76.7934 58.8491C70.3826 62.5681 59.9576 62.5681 53.5073 58.8491C50.2671 56.9895 48.6493 54.521 48.6563 52.0664V46.6528C48.6563 49.1074 50.2671 51.5643 53.5073 53.4332C59.9576 57.1522 70.3826 57.1522 76.7934 53.4332C79.9871 51.5806 81.5817 49.1632 81.5886 46.7388Z" fill="#F7C800"/>
<g opacity="0.15">
<path d="M48.6719 46.6792C48.6719 49.1222 50.299 51.5605 53.5206 53.4363C59.9709 57.1554 70.3936 57.1554 76.8043 53.4363C79.9888 51.5768 81.5857 49.1617 81.5903 46.7373V48.7944C81.5508 51.1886 79.9632 53.5757 76.809 55.4004C70.3982 59.1195 59.9755 59.1195 53.5253 55.4004C50.2966 53.5409 48.6765 51.0909 48.6765 48.641" fill="#544A00"/>
</g>
<path d="M76.7259 39.9582C83.1785 43.6773 83.2111 49.7208 76.8026 53.4399C70.3942 57.159 59.9669 57.159 53.5236 53.4399C47.0803 49.7208 47.0501 43.6773 53.4608 39.9582C59.8716 36.2392 70.2873 36.2392 76.7259 39.9582Z" fill="#FEE425"/>
<path opacity="0.15" d="M65.188 55.4117C61.2364 55.4117 57.5174 54.5587 54.6909 53.0129C51.6831 51.3626 50.0234 49.1126 50.0234 46.6742C50.0234 44.2359 51.6505 42.0254 54.6328 40.3983C57.4337 38.8526 61.1411 37.9995 65.0926 37.9995C69.0442 37.9995 72.7632 38.8526 75.5804 40.3983C78.5859 42.037 80.2432 44.2824 80.2479 46.7231C80.2525 49.1637 78.6208 51.3882 75.6385 53.0222C72.8469 54.5587 69.1348 55.4117 65.188 55.4117Z" fill="#544A00"/>
<path d="M74.6059 52.162C69.4317 55.1838 60.9546 55.1838 55.7246 52.162C50.4947 49.1403 50.4784 44.2427 55.6689 41.2373C60.8593 38.2318 69.3202 38.2155 74.5501 41.2373C79.7801 44.259 79.7963 49.1589 74.6059 52.162Z" fill="#F7C800"/>
<g opacity="0.4">
<path d="M74.6078 52.1606C69.4337 55.1824 60.9565 55.1824 55.7266 52.1606L74.5544 41.2358C79.782 44.2413 79.7983 49.1575 74.6078 52.1606Z" fill="white"/>
</g>
<path d="M65.5752 41.2569L66.9838 42.0704C68.404 42.8909 69.6243 43.7184 68.9572 44.7086L65.1103 42.4865L63.0462 42.7189L67.8648 45.5082C66.9815 46.0219 64.8709 46.3845 62.421 44.969L61.2378 44.2856L60.0756 44.955L58.9297 51.1217L61.0496 52.3444L62.2397 45.9592C64.3712 47.0679 67.3836 47.5119 69.6313 46.5194L71.1468 47.3957L73.2109 47.1632L70.8423 45.7965C71.2027 45.5279 71.4458 45.1308 71.5211 44.6877L73.6758 45.9313L75.7399 45.6988L67.63 41.0151L65.5752 41.2569Z" fill="#544A00"/>
<path d="M74.6298 41.0942C72.0729 39.6159 68.6886 38.8047 65.0997 38.8047C61.5108 38.8047 58.1264 39.6159 55.5905 41.0942C53.0545 42.5726 51.625 44.553 51.625 46.6728C51.625 48.7927 53.0522 50.808 55.6439 52.3049C58.2008 53.7832 61.5898 54.5945 65.188 54.5945C68.7862 54.5945 72.1612 53.7832 74.6925 52.3049C77.2238 50.8266 78.658 48.8392 78.6557 46.7124C78.6533 44.5855 77.2169 42.5795 74.6298 41.0942ZM74.5159 52.019C72.0404 53.4671 68.7234 54.2644 65.181 54.2644C61.6386 54.2644 58.31 53.4671 55.8043 52.019C53.2986 50.5709 51.9527 48.6858 51.9527 46.6728C51.9527 44.6599 53.3009 42.8004 55.7508 41.3825C58.2008 39.9646 61.5619 39.1371 65.0927 39.1371C68.6235 39.1371 71.9567 39.9344 74.4624 41.3825C76.9681 42.8306 78.3117 44.7017 78.314 46.7147C78.3163 48.7276 76.9681 50.5988 74.5159 52.0167V52.019Z" fill="#544A00"/>
<path d="M81.7555 46.739V46.7134C81.7555 44.0961 79.9959 41.6415 76.8115 39.8029C73.6735 37.9899 69.5105 36.9927 65.0871 36.9927C60.6637 36.9927 56.4868 37.9945 53.3697 39.8099C50.2527 41.6252 48.4884 44.0775 48.5001 46.6785C48.5001 46.6785 48.5001 46.6902 48.5001 46.6971V52.0689C48.5001 54.6955 50.2457 57.1547 53.4325 58.9956C56.5704 60.811 60.7311 61.8082 65.1685 61.8082C69.6058 61.8082 73.7549 60.8064 76.8789 58.991C80.0029 57.1756 81.7393 54.7396 81.7462 52.1502V46.7343L81.7555 46.739ZM50.8129 56.5689C49.5112 55.2022 48.8208 53.6657 48.8255 52.0689V48.6124C49.2437 49.7555 49.9226 50.7853 50.8082 51.6202L50.8129 56.5689ZM54.1042 58.9887C53.9322 58.8934 53.7602 58.8027 53.5929 58.7051C52.7074 58.2054 51.8856 57.6005 51.1452 56.9037V51.934C51.848 52.5622 52.6155 53.1138 53.4348 53.5797C53.651 53.7076 53.8764 53.8284 54.1042 53.9447V58.9887ZM57.3979 60.3461C56.3808 60.0316 55.3912 59.6344 54.4389 59.1583V54.112C55.393 54.5769 56.3825 54.9656 57.3979 55.2742V60.3461ZM61.1821 61.1969C60.0148 61.0308 58.8611 60.7799 57.7303 60.4461V55.3765C58.8618 55.7048 60.0154 55.9518 61.1821 56.1157V61.1969ZM64.9616 61.4735C63.8089 61.4673 62.6576 61.3897 61.5145 61.241V56.1598C62.6577 56.3073 63.8089 56.3849 64.9616 56.3923V61.4735ZM68.7411 61.241C67.5989 61.3908 66.4483 61.4684 65.2963 61.4735V56.3946C66.4482 56.3872 67.5986 56.3095 68.7411 56.1622V61.241ZM72.5252 60.46C71.3945 60.7878 70.2418 61.034 69.0758 61.1969V56.1296C70.2413 55.9685 71.394 55.7254 72.5252 55.4021V60.46ZM75.819 59.1769C74.8663 59.6514 73.8767 60.0479 72.86 60.3624V55.2998C73.8755 54.9912 74.8649 54.6026 75.819 54.1376V59.1769ZM79.1127 56.9269C78.3853 57.611 77.5793 58.2064 76.7115 58.7004C76.5279 58.8074 76.3419 58.9096 76.1537 59.0096V53.9795C76.4047 53.8517 76.6488 53.7192 76.8882 53.5797C77.6832 53.1236 78.4287 52.5861 79.1127 51.9759V56.9269ZM81.4138 52.1479C81.4138 53.7238 80.7165 55.2394 79.4451 56.5875V51.6667C80.3061 50.8538 80.9721 49.8565 81.3929 48.7496C81.3929 48.7287 81.4092 48.7077 81.4185 48.6868L81.4138 52.1479ZM77.1811 53.0056C77.03 53.1009 76.8766 53.1939 76.7162 53.2869C76.5558 53.3798 76.3977 53.4658 76.235 53.5542C73.2133 55.1813 69.3199 56.0576 65.1731 56.0576C60.8055 56.0576 56.6936 55.0743 53.5998 53.2869C50.506 51.4994 48.8371 49.1657 48.8324 46.6739C48.8278 44.1821 50.4991 41.86 53.5371 40.0958C56.6123 38.306 60.7149 37.3227 65.0848 37.3227C69.4547 37.3227 73.555 38.3036 76.6418 40.0865C79.7286 41.8693 81.4185 44.2216 81.4185 46.7157C81.4185 49.0634 79.9239 51.2832 77.1811 53.0102V53.0056Z" fill="#544A00"/>
<path d="M81.6005 39.5231V44.9367C81.6005 47.3611 79.9989 49.7831 76.8145 51.6334C70.4061 55.3524 59.981 55.3524 53.5284 51.6334C50.2905 49.7738 48.6727 47.3076 48.6797 44.853V39.4395C48.6797 41.894 50.2905 44.351 53.5284 46.2198C59.981 49.9389 70.4061 49.9389 76.8145 46.2198C79.9989 44.3742 81.5935 41.9475 81.6005 39.5231Z" fill="#F7C800"/>
<g opacity="0.15">
<path d="M48.6797 39.4629C48.6797 41.9059 50.3068 44.3442 53.5308 46.22C59.9787 49.939 70.4037 49.939 76.8145 46.22C79.9989 44.3604 81.5935 41.9454 81.5981 39.521V41.5781C81.5586 43.9723 79.971 46.3571 76.8191 48.1841C70.4084 51.9032 59.9833 51.9032 53.5354 48.1841C50.3045 46.3246 48.6843 43.8746 48.6843 41.4247" fill="#544A00"/>
</g>
<path d="M76.7378 32.7313C83.1881 36.4504 83.223 42.4939 76.8122 46.2129C70.4015 49.932 59.9788 49.932 53.5262 46.2129C47.0736 42.4939 47.055 36.4504 53.4634 32.7313C59.8718 29.0122 70.2992 29.0146 76.7378 32.7313Z" fill="#FEE425"/>
<path opacity="0.15" d="M65.1934 48.1959C61.2419 48.1959 57.5229 47.3429 54.6987 45.7971C51.6769 44.1468 50.0312 41.8944 50.0312 39.4584C50.0312 37.0224 51.6583 34.8096 54.6406 33.1825C57.4299 31.6368 61.1489 30.7837 65.1005 30.7837C69.052 30.7837 72.771 31.6368 75.5882 33.1825C78.5937 34.8096 80.2533 37.0666 80.2557 39.5072C80.258 41.9479 78.6286 44.1723 75.6487 45.8041C72.8547 47.3429 69.1403 48.1959 65.1934 48.1959Z" fill="#544A00"/>
<path d="M74.6123 44.9462C69.4381 47.968 60.9633 47.968 55.7333 44.9462C50.5034 41.9245 50.4848 37.0269 55.6775 34.0214C60.8703 31.016 69.3265 30.9997 74.5565 34.0214C79.7864 37.0432 79.7957 41.9407 74.6123 44.9462Z" fill="#F7C800"/>
<g opacity="0.4">
<path d="M74.6133 44.9463C69.4392 47.968 60.9643 47.968 55.7344 44.9463L74.5622 34.0215C79.7968 37.027 79.7968 41.9408 74.6133 44.9463Z" fill="white"/>
</g>
<path d="M65.583 34.0426L66.9939 34.8562C68.4142 35.6767 69.6345 36.5019 68.9674 37.4944L65.1181 35.2722L63.054 35.5047L67.8749 38.294C66.9916 38.8054 64.881 39.168 62.4311 37.7547L61.2456 37.0574L60.0834 37.7291L58.9375 43.8958L61.0574 45.1185L62.2498 38.7333C64.379 39.8397 67.3914 40.286 69.6414 39.2935L71.1663 40.1907L73.2304 39.9583L70.8618 38.5892C71.2213 38.3208 71.4642 37.9248 71.5405 37.4828L73.6952 38.7263L75.7593 38.4939L67.6471 33.8125L65.583 34.0426Z" fill="#544A00"/>
<path d="M74.6394 33.8774C72.0825 32.4014 68.6982 31.5879 65.1093 31.5879C61.5203 31.5879 58.136 32.4014 55.6001 33.8774C53.0641 35.3534 51.6346 37.3385 51.6485 39.456C51.6625 41.5736 53.0757 43.5912 55.6675 45.0881C58.2243 46.5641 61.611 47.3777 65.2115 47.3777C68.8121 47.3777 72.1848 46.5641 74.7138 45.0881C77.2427 43.6121 78.6815 41.6224 78.6792 39.4956C78.6769 37.3687 77.2381 35.3651 74.6394 33.8774ZM74.5278 44.8022C72.05 46.2503 68.7353 47.0476 65.1929 47.0476C61.6505 47.0476 58.3196 46.2503 55.8162 44.8022C53.3128 43.3541 51.9647 41.469 51.9623 39.456C51.96 37.4431 53.3105 35.5812 55.7604 34.1657C58.2476 32.7176 61.5715 31.9203 65.1023 31.9203C68.6331 31.9203 71.9686 32.7176 74.472 34.1657C76.9754 35.6138 78.3236 37.4849 78.3259 39.4956C78.3282 41.5062 76.9801 43.3843 74.5278 44.8022Z" fill="#544A00"/>
<path d="M81.7671 39.5229V39.4927C81.7671 36.8754 80.0075 34.4208 76.8231 32.5822C73.6851 30.7692 69.5197 29.772 65.0987 29.772C60.6776 29.772 56.4983 30.7715 53.3813 32.5892C50.2642 34.4069 48.5 36.8568 48.5 39.4578V39.4927V44.8644C48.5 47.491 50.2456 49.9503 53.4324 51.7889C56.5797 53.6066 60.7474 54.6061 65.1754 54.6061C69.6034 54.6061 73.7618 53.6066 76.8858 51.7889C80.0098 49.9712 81.7485 47.5398 81.7555 44.9481V39.5345L81.7671 39.5229ZM50.8221 49.3529C49.5227 47.9861 48.8324 46.4497 48.837 44.8528V41.3964C49.255 42.539 49.933 43.5687 50.8174 44.4042L50.8221 49.3529ZM54.1135 51.7726C53.9415 51.6773 53.7695 51.5866 53.6021 51.489C52.7179 50.9874 51.8963 50.3827 51.1545 49.6876V44.7157C51.8574 45.3442 52.6249 45.8966 53.444 46.3637C53.6625 46.4892 53.8857 46.6101 54.1135 46.7286V51.7726ZM57.4072 53.1301C56.3934 52.8148 55.4069 52.4176 54.4575 51.9423V46.896C55.411 47.3605 56.3996 47.7491 57.4142 48.0582L57.4072 53.1301ZM61.1983 53.9785C60.0318 53.8132 58.879 53.563 57.7489 53.23V48.1605C58.8798 48.4879 60.0325 48.7349 61.1983 48.8996V53.9785ZM64.9778 54.2574C63.8259 54.2501 62.6755 54.1724 61.533 54.025V48.9438C62.6755 49.0912 63.8259 49.1688 64.9778 49.1762V54.2574ZM68.7573 54.025C67.6157 54.1736 66.466 54.2512 65.3148 54.2574V49.1786C66.466 49.1712 67.6156 49.0935 68.7573 48.9461V54.025ZM72.5415 53.244C71.4116 53.572 70.2596 53.8182 69.0944 53.9808V48.9112C70.2592 48.752 71.4112 48.5096 72.5415 48.186V53.244ZM75.8352 51.9609C74.8832 52.4364 73.8935 52.8321 72.8762 53.144V48.093C73.8922 47.7859 74.8817 47.3972 75.8352 46.9308V51.9609ZM79.1289 49.7062C78.4027 50.3924 77.5965 50.9886 76.7278 51.482C76.5464 51.589 76.3605 51.6913 76.1722 51.7912V46.7635C76.4209 46.6333 76.6673 46.5031 76.9067 46.3637C77.701 45.9075 78.4458 45.37 79.1289 44.7598V49.7062ZM81.4301 44.9295C81.4301 46.5055 80.7327 48.021 79.4636 49.3692V44.4507C80.3232 43.6365 80.9889 42.6396 81.4115 41.5335C81.4115 41.5103 81.4277 41.4917 81.4347 41.4685L81.4301 44.9295ZM77.1996 45.7872C77.0485 45.8802 76.8951 45.9755 76.7347 46.0662C76.5743 46.1568 76.414 46.2475 76.2512 46.3358C73.2295 47.9513 69.3361 48.8392 65.1917 48.8392C60.8217 48.8392 56.7122 47.856 53.616 46.0685C50.5199 44.281 48.8533 41.9473 48.851 39.4555C48.8487 36.9637 50.5176 34.6416 53.5533 32.8751C56.6308 31.0876 60.7311 30.1044 65.1033 30.1044C69.4756 30.1044 73.5712 31.0853 76.6603 32.8681C79.7495 34.6509 81.4208 37.0032 81.4324 39.4927C81.437 41.845 79.9331 44.0672 77.1926 45.7942L77.1996 45.7872Z" fill="#544A00"/>
<path d="M81.6106 32.3065V37.7224C81.6106 40.1467 80.0091 42.5688 76.8246 44.419C70.4139 48.1381 59.9889 48.1381 53.5386 44.419C50.3007 42.5595 48.6805 40.0933 48.6875 37.6387V32.2251C48.6875 34.6774 50.3007 37.1343 53.5386 39.0054C59.9889 42.7245 70.4139 42.7245 76.8246 39.0054C80.0091 37.1552 81.6036 34.7331 81.6106 32.3065Z" fill="#F7C800"/>
<g opacity="0.15">
<path d="M48.6875 32.249C48.6875 34.692 50.3146 37.1303 53.5362 39.0061C59.9865 42.7252 70.4115 42.7252 76.8199 39.0061C80.0044 37.1466 81.6013 34.7315 81.6059 32.3071V34.3642C81.5664 36.7584 79.9788 39.1433 76.8246 40.9702C70.4162 44.6893 59.9912 44.6893 53.5409 40.9702C50.3123 39.1107 48.6921 36.6608 48.6921 34.2108" fill="#544A00"/>
</g>
<path d="M76.7433 25.5169C83.1959 29.236 83.2308 35.2795 76.82 38.9986C70.4093 42.7177 59.9843 42.7177 53.534 38.9986C47.0837 35.2795 47.0605 29.236 53.4712 25.5169C59.882 21.7979 70.3047 21.8002 76.7433 25.5169Z" fill="#FEE425"/>
<path d="M65.2013 40.9816C61.2497 40.9816 57.5307 40.1285 54.7065 38.5804C51.6964 36.9371 50.0391 34.6801 50.0391 32.2441C50.0391 29.8081 51.6662 27.5952 54.6484 25.9681C57.4516 24.4224 61.1568 23.5693 65.1083 23.5693C69.0598 23.5693 72.7789 24.4201 75.5961 25.9681C78.6015 27.5952 80.2588 29.8522 80.2635 32.2929C80.2681 34.7335 78.6364 36.958 75.6542 38.5897C72.8602 40.1285 69.1481 40.9816 65.2013 40.9816Z" fill="#141414"/>
<path d="M74.6201 37.7319C69.4459 40.7536 60.9711 40.7536 55.7411 37.7319C50.5112 34.7101 50.4926 29.8126 55.6854 26.8071C60.8781 23.8016 69.3343 23.7853 74.5643 26.8071C79.7942 29.8288 79.8128 34.7264 74.6201 37.7319Z" fill="#F7C800"/>
<g opacity="0.4">
<path d="M74.6211 37.7319C69.447 40.7536 60.9721 40.7536 55.7422 37.7319L74.57 26.8071C79.7953 29.8126 79.8139 34.7264 74.6211 37.7319Z" fill="white"/>
</g>
<path d="M65.5972 26.8273L67.0104 27.6385C68.4306 28.459 69.6509 29.2865 68.9838 30.2791L65.1369 28.0569L63.0728 28.2894L67.8914 31.0787C67.0104 31.59 64.8998 31.9527 62.4476 30.5371L61.2644 29.8537L60.1022 30.5255L58.9609 36.7038L61.0808 37.9287L62.2709 31.5436C64.4024 32.65 67.4149 33.0939 69.6626 32.1037L71.1781 32.9777L73.2422 32.7453L70.8736 31.3762C71.2335 31.1082 71.4765 30.712 71.5523 30.2698L73.7071 31.5133L75.7711 31.2809L67.6612 26.5879L65.5972 26.8273Z" fill="#544A00"/>
<path d="M74.6454 26.6631C72.0885 25.1871 68.7042 24.3735 65.1153 24.3735C61.5264 24.3735 58.142 25.1871 55.6061 26.6631C53.0701 28.1391 51.6406 30.1242 51.6406 32.2417C51.6406 34.3592 53.0608 36.3792 55.6549 37.8668C58.2118 39.3428 61.5984 40.1563 65.199 40.1563C68.7995 40.1563 72.1722 39.3428 74.7012 37.8668C77.2302 36.3908 78.669 34.3988 78.6527 32.2742C78.6364 30.1497 77.2348 28.1507 74.6454 26.6631ZM74.5338 37.5879C72.056 39.0337 68.7414 39.8309 65.199 39.8309C61.6565 39.8309 58.3257 39.0337 55.8223 37.5879C53.3189 36.1421 51.9684 34.2523 51.9684 32.2417C51.9684 30.2311 53.3165 28.3692 55.7665 26.9536C58.2513 25.5055 61.5775 24.7083 65.1083 24.7083C68.6391 24.7083 71.9723 25.5055 74.478 26.9536C76.9838 28.4018 78.3273 30.2729 78.3296 32.2882C78.3319 34.3035 76.9861 36.1676 74.5338 37.5879Z" fill="#544A00"/>
<path d="M81.7749 32.3093C81.7749 32.3093 81.7749 32.293 81.7749 32.2837C81.7749 29.6664 80.0153 27.2118 76.8285 25.3732C73.6906 23.5602 69.5275 22.563 65.1042 22.563C60.6808 22.563 56.5154 23.5625 53.3891 25.3802C50.2627 27.1979 48.5078 29.6455 48.5078 32.2488V32.2674L48.5101 37.6345C48.5101 40.2588 50.2558 42.7204 53.4449 44.559C56.5898 46.3743 60.7598 47.3762 65.1878 47.3762C69.6159 47.3762 73.7743 46.3743 76.8983 44.559C80.0223 42.7436 81.761 40.3099 81.7656 37.7182V32.3046L81.7749 32.3093ZM50.8322 42.1392C49.5329 40.7725 48.8425 39.2337 48.8449 37.6392V34.1828C49.2637 35.3255 49.9425 36.3552 50.8276 37.1906L50.8322 42.1392ZM54.1236 44.5566C53.9516 44.4637 53.7796 44.373 53.6122 44.2754C52.7273 43.7749 51.9055 43.1701 51.1646 42.474V37.502C51.8667 38.1317 52.6342 38.6842 53.4542 39.15C53.6727 39.2756 53.8958 39.3964 54.1236 39.515V44.5566ZM57.4173 45.9164C56.4003 45.6008 55.4107 45.2028 54.4583 44.7263V39.6823C55.4124 40.1472 56.4019 40.5359 57.4173 40.8445V45.9164ZM61.1991 46.7648C60.0319 46.5996 58.8783 46.3494 57.7474 46.0164V40.9468C58.8792 41.274 60.0326 41.521 61.1991 41.686V46.7648ZM64.9787 47.0438C63.826 47.0364 62.6748 46.9587 61.5315 46.8113V41.7301C62.6749 41.8765 63.826 41.9541 64.9787 41.9626V47.0438ZM68.7582 46.8113C67.6157 46.9588 66.4653 47.0364 65.3134 47.0438V41.9649C66.4653 41.9575 67.6157 41.8799 68.7582 41.7325V46.8113ZM72.5423 46.028C71.4152 46.3598 70.2655 46.6092 69.1022 46.7741V41.6976C70.2677 41.5367 71.4204 41.2936 72.5516 40.9701L72.5423 46.028ZM75.843 44.7542C74.8904 45.2283 73.9008 45.624 72.884 45.9373V40.8724C73.8994 40.5702 74.8889 40.1869 75.843 39.7265V44.7542ZM79.1367 42.4995C78.4094 43.1844 77.6034 43.7806 76.7356 44.2754C76.5519 44.3823 76.3683 44.4846 76.1777 44.5845V39.5498C76.4287 39.4197 76.6751 39.2872 76.9122 39.15C77.7071 38.6937 78.4526 38.1562 79.1367 37.5462V42.4995ZM81.4379 37.7205C81.4379 39.2965 80.7405 40.812 79.4691 42.1625V37.237C80.3314 36.4242 80.9989 35.427 81.4216 34.3199C81.4216 34.2967 81.4402 34.2781 81.4472 34.2548L81.4379 37.7205ZM77.2051 38.5806C77.054 38.6735 76.9029 38.7688 76.7402 38.8595C76.5775 38.9501 76.4194 39.0408 76.2567 39.1291C73.235 40.7446 69.3416 41.6325 65.1971 41.6325C60.8272 41.6325 56.7153 40.647 53.6215 38.8618C50.5277 37.0767 48.8588 34.7406 48.8542 32.2465C48.8495 29.7524 50.5208 27.4326 53.5588 25.6684C56.634 23.8809 60.7366 22.8977 65.1065 22.8977C69.4764 22.8977 73.5767 23.8786 76.6635 25.6614C79.7503 27.4443 81.4379 29.7896 81.4425 32.2837C81.4448 34.6314 79.9433 36.8512 77.2004 38.5806H77.2051Z" fill="#544A00"/>
<path d="M81.6161 25.0817V30.4976C81.6161 32.922 80.0146 35.344 76.8324 37.1943C70.4217 40.9133 59.9967 40.9133 53.5441 37.1943C50.3062 35.3347 48.6884 32.8685 48.6953 30.4139V24.998C48.6953 27.4526 50.3062 29.9095 53.5441 31.7807C59.9967 35.4998 70.4217 35.4998 76.8324 31.7807C80.0262 29.9374 81.6091 27.5177 81.6161 25.0817Z" fill="#F7C800"/>
<g opacity="0.15">
<path d="M48.6953 25.0317C48.6953 27.477 50.3224 29.9246 53.544 31.7911C59.992 35.5102 70.417 35.5102 76.8278 31.7911C80.0122 29.9316 81.6068 27.5165 81.6114 25.0922V27.147C81.5719 29.5434 79.9843 31.9283 76.8324 33.753C70.4217 37.472 59.9966 37.472 53.5487 33.753C50.3178 31.8934 48.7 29.4458 48.7 26.9959" fill="#544A00"/>
</g>
<path d="M76.7535 18.3025C83.206 22.0216 83.2386 28.065 76.8302 31.7841C70.4217 35.5032 59.9944 35.5032 53.5418 31.7841C47.0892 28.065 47.0706 22.0216 53.479 18.3025C59.8875 14.5834 70.3148 14.5834 76.7535 18.3025Z" fill="#FEE425"/>
<path opacity="0.15" d="M65.2082 33.7648C61.2567 33.7648 57.5376 32.914 54.7135 31.366C51.7033 29.7179 50.0391 27.4656 50.0391 25.0273C50.0391 22.589 51.6662 20.3784 54.6484 18.7513C57.4493 17.2033 61.1568 16.3525 65.1083 16.3525C69.0598 16.3525 72.7789 17.2033 75.5961 18.7513C78.6015 20.3784 80.2612 22.6331 80.2635 25.0738C80.2658 27.5144 78.6294 29.7319 75.6611 31.359C72.8695 32.9117 69.1574 33.7648 65.2082 33.7648Z" fill="#544A00"/>
<path d="M74.6279 30.5165C69.4537 33.5383 60.9789 33.5383 55.749 30.5165C50.519 27.4948 50.5004 22.5972 55.6932 19.5918C60.8859 16.5863 69.3422 16.57 74.5721 19.5918C79.802 22.6135 79.8206 27.5111 74.6279 30.5165Z" fill="#F7C800"/>
<g opacity="0.4">
<path d="M74.6211 30.5161C69.447 33.5378 60.9721 33.5378 55.7422 30.5161L74.57 19.5913C79.7883 22.5968 79.8139 27.5106 74.6211 30.5161Z" fill="white"/>
</g>
<path d="M65.6143 19.6106L67.0089 20.4335C68.4291 21.254 69.6495 22.0815 68.9823 23.074L65.1494 20.8426L63.0853 21.075L67.9061 23.8643C67.0229 24.3757 64.9123 24.7383 62.4624 23.3227L61.2769 22.6393L60.1147 23.3088L58.9688 29.4987L61.0863 30.7237L62.2787 24.3385C64.4102 25.4449 67.4203 25.8889 69.6704 24.8987L71.1859 25.7727L73.25 25.5402L70.8814 24.1525C71.2413 23.8845 71.4843 23.4884 71.5601 23.0461L73.7149 24.2897L75.779 24.0572L67.669 19.3735L65.6143 19.6106Z" fill="#544A00"/>
<path d="M74.6549 19.4473C72.098 17.9713 68.7137 17.1577 65.1248 17.1577C61.5359 17.1577 58.1515 17.9713 55.6156 19.4473C53.0796 20.9233 51.6641 22.9083 51.6641 25.0259C51.6641 27.1434 53.0634 29.161 55.6644 30.6603C58.2213 32.1363 61.6079 32.9498 65.2085 32.9498C68.809 32.9498 72.1817 32.1363 74.7107 30.6603C77.2396 29.1843 78.6785 27.1922 78.6761 25.0677C78.6738 22.9432 77.2373 20.9349 74.6549 19.4473ZM74.5433 30.372C72.0655 31.8178 68.7509 32.6151 65.2085 32.6151C61.666 32.6151 58.3375 31.8178 55.8317 30.3697C53.326 28.9216 51.9802 27.0365 51.9802 25.0235C51.9802 23.0106 53.3284 21.1511 55.776 19.7332C58.2631 18.2874 61.587 17.4901 65.1178 17.4901C68.6486 17.4901 71.9841 18.2874 74.4899 19.7355C76.9956 21.1836 78.3391 23.0524 78.3414 25.0654C78.3437 27.0783 77.0049 28.9518 74.5433 30.372Z" fill="#544A00"/>
<path d="M81.779 25.0944V25.0689C81.779 22.4492 80.0194 19.9947 76.8349 18.156C73.697 16.3453 69.5339 15.3481 65.1105 15.3481C60.6872 15.3481 56.5102 16.3476 53.3932 18.1653C50.2761 19.983 48.5119 22.4306 48.5235 25.034V25.0526V30.4243C48.5235 33.0486 50.2691 35.5102 53.4559 37.3488C56.6032 39.1641 60.7709 40.166 65.1989 40.166C69.6269 40.166 73.7876 39.1641 76.9116 37.3488C80.0356 35.5334 81.772 33.0997 81.779 30.508L81.7906 25.0944H81.779ZM50.834 34.9244C49.5346 33.5553 48.8443 32.0189 48.8489 30.4243V26.9679C49.2677 28.1101 49.9456 29.1396 50.8293 29.9757L50.834 34.9244ZM54.1253 37.3418C53.9533 37.2488 53.7813 37.1582 53.614 37.0582C52.7302 36.5579 51.9093 35.954 51.1687 35.2591V30.2872C51.8703 30.9163 52.6371 31.4688 53.4559 31.9352C53.6744 32.0607 53.8999 32.1816 54.1253 32.3001V37.3418ZM57.4214 38.7016C56.401 38.3868 55.4083 37.9888 54.4531 37.5115V32.4675C55.4076 32.9314 56.397 33.32 57.4121 33.6297L57.4214 38.7016ZM61.1939 39.55C60.0306 39.3816 58.881 39.13 57.7538 38.7969V33.7297C58.8817 34.057 60.0313 34.3048 61.1939 34.4711V39.55ZM64.9734 39.8289C63.8215 39.8204 62.6712 39.7427 61.5286 39.5965V34.513C62.6711 34.6604 63.8215 34.738 64.9734 34.7454V39.8289ZM68.7529 39.5965C67.6113 39.7452 66.4616 39.8228 65.3104 39.8289V34.7501C66.4616 34.7427 67.6112 34.6651 68.7529 34.5176V39.5965ZM72.5371 38.8155C71.4099 39.1466 70.2602 39.3952 69.0969 39.5593V34.4828C70.2616 34.3216 71.4135 34.0785 72.544 33.7552L72.5371 38.8155ZM75.8377 37.5394C74.886 38.0135 73.8972 38.4092 72.8811 38.7225V33.6576C73.8958 33.349 74.8845 32.9604 75.8377 32.4954V37.5394ZM79.1338 35.2847C78.4062 35.9696 77.5993 36.565 76.7303 37.0582C76.549 37.1651 76.3631 37.2674 76.1748 37.3674V32.335C76.4235 32.2048 76.6699 32.0723 76.9093 31.9352C77.7034 31.4777 78.4488 30.9403 79.1338 30.3314V35.2847ZM81.4349 30.5057C81.4349 32.0816 80.7376 33.5972 79.4662 34.9476V30.0199C80.3266 29.2059 80.9931 28.209 81.4163 27.1027L81.4396 27.04L81.4349 30.5057ZM77.2045 31.3587C77.0534 31.454 76.9 31.5493 76.7396 31.64C76.5792 31.7307 76.4212 31.8213 76.2585 31.9096C73.2367 33.5367 69.341 34.413 65.1966 34.413C60.8266 34.413 56.7171 33.4275 53.6209 31.64C50.5248 29.8525 48.8582 27.5188 48.8559 25.027C48.8536 22.5352 50.5225 20.2132 53.5582 18.4489C56.6357 16.6614 60.736 15.6759 65.1082 15.6759C69.4805 15.6759 73.5784 16.6591 76.6652 18.4419C79.7521 20.2248 81.4396 22.5701 81.4419 25.0642C81.4489 27.4072 79.945 29.6364 77.2045 31.3587Z" fill="#544A00"/>
<path d="M81.6239 17.8762V23.2921C81.6239 25.7164 80.0224 28.1385 76.8379 29.9887C70.4295 33.7078 60.0021 33.7078 53.5519 29.9887C50.314 28.1176 48.6962 25.6606 48.7031 23.2084V17.7925C48.7031 20.2471 50.314 22.704 53.5519 24.5728C60.0045 28.2919 70.4295 28.2919 76.8379 24.5728C80.0247 22.7226 81.6169 20.3005 81.6239 17.8762Z" fill="#F7C800"/>
<g opacity="0.15">
<path d="M48.7031 17.8174C48.7031 20.2627 50.3302 22.6987 53.5519 24.5768C60.0021 28.2959 70.4271 28.2959 76.8356 24.5768C80.0223 22.7173 81.6169 20.3022 81.6215 17.8778V19.9326C81.582 22.3291 79.9945 24.7139 76.8402 26.5386C70.4318 30.2577 60.0068 30.2577 53.5565 26.5386C50.3279 24.6791 48.7078 22.2291 48.7078 19.7815" fill="#544A00"/>
</g>
<path d="M76.77 11.0843C83.2202 14.8034 83.2551 20.8469 76.8443 24.566C70.4336 28.285 60.0109 28.285 53.5583 24.566C47.1057 20.8469 47.0848 14.8034 53.4955 11.0843C59.9063 7.36526 70.3243 7.36758 76.77 11.0843Z" fill="#FEE425"/>
<path d="M65.2169 26.5489C61.2654 26.5489 57.5463 25.6982 54.7221 24.1501C51.712 22.4998 50.0547 20.2498 50.0547 17.8115C50.0547 15.3731 51.6818 13.1626 54.6617 11.5355C57.4649 9.98746 61.1701 9.13672 65.1216 9.13672C69.0731 9.13672 72.7875 9.97351 75.607 11.5285C78.6125 13.1556 80.2721 15.4103 80.2745 17.851C80.2768 20.2916 78.6474 22.5184 75.6651 24.1501C72.8758 25.6959 69.1637 26.5489 65.2169 26.5489Z" fill="#141414"/>
<path d="M74.6357 23.3017C69.4615 26.3234 60.9867 26.3234 55.7568 23.3017C50.5268 20.2799 50.5082 15.3824 55.701 12.3769C60.8937 9.37144 69.35 9.35517 74.5799 12.3769C79.8099 15.3987 79.8285 20.2962 74.6357 23.3017Z" fill="#F7C800"/>
<g opacity="0.4">
<path d="M74.6289 23.3012C69.4548 26.323 60.9799 26.323 55.75 23.3012L74.5778 12.3765C79.8031 15.3819 79.8217 20.2958 74.6289 23.3012Z" fill="white"/>
</g>
<path d="M65.6143 12.3958L67.0229 13.2093C68.4454 14.0298 69.6657 14.8573 68.9986 15.8475L65.1494 13.6277L63.0853 13.8601L67.9038 16.6494C67.0229 17.1631 64.9123 17.5258 62.46 16.1102L61.2769 15.4268L60.1147 16.0962L58.9688 22.2629L61.0886 23.4856L62.281 17.1004C64.4102 18.2091 67.4227 18.6531 69.6704 17.6629L71.1859 18.5369L73.25 18.3044L70.8907 16.947C71.2498 16.6777 71.4919 16.2808 71.5671 15.8382L73.7242 17.0841L75.7882 16.8517L67.676 12.168L65.6143 12.3958Z" fill="#544A00"/>
<path d="M74.661 12.2329C72.1042 10.7569 68.7198 9.94336 65.1309 9.94336C61.542 9.94336 58.1576 10.7569 55.6217 12.2329C53.0858 13.7089 51.6562 15.694 51.6562 17.8115C51.6562 19.9291 53.0858 21.9467 55.6775 23.4459C58.2344 24.9219 61.621 25.7355 65.2216 25.7355C68.8221 25.7355 72.1948 24.9219 74.7238 23.4459C77.2528 21.9699 78.6846 19.9686 78.6799 17.8534C78.6753 15.7381 77.2504 13.7205 74.661 12.2329ZM74.5495 23.1577C72.0716 24.6058 68.757 25.4031 65.2146 25.4031C61.6722 25.4031 58.3413 24.6058 55.8379 23.1577C53.3345 21.7096 51.984 19.8245 51.984 17.8115C51.984 15.7986 53.3322 13.939 55.7821 12.5211C58.2692 11.073 61.5931 10.2781 65.1239 10.2781C68.6547 10.2781 71.9903 11.0754 74.4937 12.5211C76.9971 13.9669 78.3429 15.8404 78.3476 17.8534C78.3522 19.8663 77.0017 21.7375 74.5495 23.1554V23.1577Z" fill="#544A00"/>
<path d="M81.7865 17.8761C81.7865 17.8761 81.7865 17.8575 81.7865 17.8505C81.7865 15.2309 80.0269 12.7763 76.8425 10.9377C73.7045 9.12694 69.5392 8.12744 65.1158 8.12744C60.6924 8.12744 56.5271 9.12927 53.4007 10.947C50.2744 12.7647 48.5194 15.2123 48.5194 17.8133V17.8319L48.5078 23.2036C48.5078 25.8302 50.2558 28.2895 53.4426 30.1304C56.5875 31.9458 60.7575 32.9476 65.1855 32.9476C69.6135 32.9476 73.7719 31.9458 76.8959 30.1304C80.02 28.315 81.7586 25.8814 81.7656 23.2896V17.8761H81.7865ZM50.8439 27.706C49.5445 26.3393 48.8541 24.8028 48.8588 23.2059V19.7495C49.278 20.8927 49.9576 21.9225 50.8439 22.7573V27.706ZM54.1352 30.1257C53.9632 30.0328 53.7912 29.9398 53.6239 29.8422C52.7394 29.3419 51.9177 28.7379 51.1762 28.0431V23.0711C51.8803 23.6982 52.6476 24.2505 53.4658 24.7191C53.6843 24.8447 53.9074 24.9655 54.1352 25.0841V30.1257ZM57.4289 31.4855C56.4121 31.1695 55.4225 30.7715 54.47 30.2954V25.2514C55.424 25.7164 56.4135 26.105 57.4289 26.4136V31.4855ZM61.2131 32.3339C60.0462 32.1688 58.8927 31.9202 57.7613 31.5901V26.5136C58.8931 26.8416 60.0465 27.0894 61.2131 27.2551V32.3339ZM64.9926 32.6129C63.8399 32.6043 62.6888 32.5267 61.5455 32.3804V27.2969C62.6887 27.4444 63.8399 27.522 64.9926 27.5294V32.6129ZM68.7721 32.3804C67.6298 32.5291 66.4793 32.6067 65.3273 32.6129V27.5317C66.479 27.5282 67.6294 27.4544 68.7721 27.3109V32.3804ZM72.5563 31.5994C71.4227 31.9302 70.2668 32.1788 69.0975 32.3432V27.2667C70.263 27.1058 71.4157 26.8627 72.547 26.5392L72.5563 31.5994ZM75.85 30.3163C74.8976 30.7916 73.908 31.1881 72.891 31.5018V26.4415C73.9065 26.133 74.8959 25.7443 75.85 25.2793V30.3163ZM79.1437 28.064C78.4167 28.7486 77.6106 29.344 76.7425 29.8375C76.5589 29.9444 76.3753 30.0467 76.1847 30.1467V25.1166C76.4357 24.9888 76.6821 24.8563 76.9192 24.7168C77.7145 24.262 78.4601 23.7253 79.1437 23.1153V28.064ZM81.4448 23.285C81.4448 24.8609 80.7475 26.3765 79.4761 27.7269V22.8038C80.3346 21.9902 80.9981 20.9929 81.4169 19.8867C81.4169 19.8658 81.4355 19.8448 81.4425 19.8239L81.4448 23.285ZM77.2121 24.152C77.061 24.2473 76.9099 24.3403 76.7472 24.4332C76.5845 24.5262 76.4264 24.6122 76.2637 24.7006C73.242 26.3276 69.3486 27.204 65.2041 27.204C60.8342 27.204 56.7246 26.2207 53.6285 24.4332C50.5324 22.6458 48.8751 20.3074 48.8751 17.8156C48.8751 15.3238 50.544 13.0017 53.5797 11.2375C56.6549 9.45004 60.7575 8.46448 65.1274 8.46448C69.4973 8.46448 73.5976 9.44771 76.6867 11.2305C79.7759 13.0134 81.4588 15.3587 81.4634 17.8528C81.4565 20.2005 79.9549 22.4203 77.2121 24.152Z" fill="#544A00"/>
<path d="M81.6317 10.6706V16.0842C81.6317 18.5109 80.0325 20.9306 76.848 22.7831C70.4373 26.5022 60.0123 26.5022 53.5597 22.7831C50.3218 20.9236 48.704 18.4551 48.711 16.0005V10.5869C48.711 13.0415 50.3218 15.4984 53.562 17.3672C60.0123 21.0863 70.4373 21.0863 76.848 17.3672C80.0255 15.5077 81.6247 13.0857 81.6317 10.6706Z" fill="#F7C800"/>
<g opacity="0.15">
<path d="M48.7109 10.6006C48.7109 13.0459 50.338 15.4819 53.5597 17.36C60.0076 21.0791 70.4326 21.0791 76.8434 17.36C80.0278 15.5005 81.6224 13.0831 81.6294 10.6587V12.7158C81.5922 15.11 80.0023 17.4971 76.8504 19.3218C70.4396 23.0409 60.0146 23.0409 53.5666 19.3218C50.338 17.4623 48.7179 15.0123 48.7179 12.5647" fill="#544A00"/>
</g>
<path d="M76.7668 3.86997C83.2194 7.58905 83.2519 13.6325 76.8435 17.3516C70.435 21.0707 60.0077 21.0707 53.5574 17.3516C47.1072 13.6325 47.0839 7.58905 53.4947 3.86997C59.9054 0.150904 70.3281 0.153228 76.7668 3.86997Z" fill="#FEE425"/>
<path opacity="0.15" d="M65.227 19.3346C61.2755 19.3346 57.5564 18.4815 54.7299 16.9358C51.7198 15.2854 50.0625 13.0354 50.0625 10.5971C50.0625 8.15878 51.6896 5.94826 54.6718 4.32116C57.4727 2.77542 61.1802 1.92236 65.1317 1.92236C69.0832 1.92236 72.7953 2.76845 75.6079 4.31187C78.6133 5.93896 80.273 8.19597 80.2776 10.6366C80.2823 13.0772 78.6505 15.3017 75.6683 16.9358C72.886 18.4815 69.1739 19.3346 65.227 19.3346Z" fill="#544A00"/>
<path d="M74.6458 16.0849C69.4694 19.1066 60.9945 19.1066 55.7646 16.0849C50.5346 13.0631 50.516 8.16559 55.7088 5.16011C60.9015 2.15464 69.3601 2.13837 74.59 5.16011C79.82 8.18186 79.8363 13.0817 74.6458 16.0849Z" fill="#F7C800"/>
<g opacity="0.4">
<path d="M74.6391 16.0844C69.4626 19.1062 60.9878 19.1062 55.7578 16.0844L74.5856 5.15967C79.8132 8.16514 79.8295 13.0813 74.6391 16.0844Z" fill="white"/>
</g>
<path d="M74.6783 5.01856C72.1215 3.54023 68.7348 2.729 65.1482 2.729C61.5616 2.729 58.175 3.54255 55.639 5.01856C53.1031 6.49456 51.6875 8.47962 51.6875 10.5972C51.6875 12.7147 53.1147 14.7323 55.7064 16.2292C58.2633 17.7076 61.65 18.5211 65.2505 18.5211C68.851 18.5211 72.2237 17.7076 74.7527 16.2292C77.3096 14.7486 78.7205 12.7635 78.7182 10.6506C78.7158 8.53773 77.2584 6.50619 74.6783 5.01856ZM74.5644 15.9433C72.0889 17.3914 68.772 18.1887 65.2296 18.1887C61.6872 18.1887 58.3586 17.3914 55.8529 15.9433C53.3471 14.4952 52.0013 12.6101 52.0013 10.5972C52.0013 8.58422 53.3495 6.72468 55.7994 5.30678C58.2493 3.88889 61.6104 3.0614 65.1389 3.0614C68.6674 3.0614 72.0052 3.85867 74.511 5.30678C77.0167 6.7549 78.3602 8.62606 78.3625 10.639C78.3649 12.652 77.0028 14.5231 74.5575 15.941L74.5644 15.9433Z" fill="#544A00"/>
<path d="M81.8024 10.6708V10.6475C81.8024 8.0279 80.0428 5.57331 76.8584 3.7347C73.7204 1.91468 69.569 0.908203 65.134 0.908203C60.699 0.908203 56.5336 1.91003 53.4166 3.7254C50.2995 5.54077 48.5353 7.99303 48.5469 10.5941C48.5469 10.5941 48.5469 10.608 48.5469 10.6127V15.9844C48.5469 18.611 50.2926 21.0702 53.4794 22.9112C56.6266 24.7265 60.7943 25.7284 65.2246 25.7284C69.655 25.7284 73.811 24.7265 76.9351 22.9112C80.0591 21.0958 81.7954 18.6598 81.8024 16.0704L81.814 10.6545L81.8024 10.6708ZM50.8574 20.4914C49.5581 19.1247 48.8677 17.5882 48.8724 15.9914L48.8816 12.5303C49.2988 13.6774 49.9767 14.7118 50.8621 15.552L50.8574 20.4914ZM54.1511 22.9112C53.9791 22.8182 53.8071 22.7252 53.6397 22.6276C52.7549 22.1279 51.9331 21.5239 51.1921 20.8285V15.8565C51.8948 16.4847 52.6623 17.0363 53.4817 17.5022C53.6978 17.6301 53.9233 17.7509 54.1511 17.8672V22.9112ZM57.4448 24.2686C56.4277 23.9541 55.4381 23.5569 54.4858 23.0808V18.0345C55.4399 18.4994 56.4293 18.8881 57.4448 19.1967V24.2686ZM61.229 25.1194C60.0617 24.9533 58.908 24.7024 57.7772 24.3686V19.299C58.9087 19.6273 60.0622 19.8743 61.229 20.0382V25.1194ZM65.0085 25.3983C63.8558 25.3909 62.7046 25.3133 61.5614 25.1658V20.0823C62.7046 20.2298 63.8558 20.3074 65.0085 20.3148V25.3983ZM68.788 25.1658C67.6456 25.3144 66.4952 25.3921 65.3432 25.3983V20.3171C66.4951 20.3097 67.6455 20.232 68.788 20.0847V25.1658ZM72.5721 24.3848C71.4417 24.7137 70.2888 24.96 69.1227 25.1217V20.0521C70.2882 19.891 71.4409 19.6479 72.5721 19.3246V24.3848ZM75.8658 23.1018C74.9132 23.5762 73.9236 23.9727 72.9068 24.2872V19.227C73.922 18.9174 74.9113 18.5288 75.8658 18.0647V23.1018ZM79.1595 20.8494C78.4322 21.5335 77.6262 22.1289 76.7584 22.6229C76.5748 22.7299 76.3888 22.8321 76.2006 22.9321V17.902C76.4493 17.7742 76.6957 17.6417 76.9351 17.5022C77.7301 17.0461 78.4756 16.5086 79.1595 15.8984V20.8494ZM81.4607 16.0704C81.4607 17.6463 80.7634 19.1619 79.4919 20.5124V15.5846C80.3523 14.771 81.0181 13.7739 81.4398 12.6674C81.4398 12.6465 81.4561 12.6256 81.4654 12.6047L81.4607 16.0704ZM77.2396 16.9328C77.0885 17.0281 76.9351 17.121 76.7747 17.214C76.6143 17.307 76.4562 17.393 76.2935 17.4813C73.2718 19.1084 69.3784 19.9847 65.2316 19.9847C60.864 19.9847 56.7521 19.0015 53.656 17.214C50.5599 15.4265 48.8816 13.0928 48.8816 10.601C48.8816 8.10925 50.5483 5.78948 53.5863 4.02293C56.6615 2.23545 60.7618 1.24989 65.134 1.24989C69.5062 1.24989 73.6042 2.2308 76.691 4.01363C79.7778 5.79646 81.4654 8.14412 81.47 10.6382C81.4723 12.9952 79.9708 15.2057 77.2396 16.9328Z" fill="#544A00"/>
<path d="M69.7084 11.2384C70.2236 10.8437 70.4686 10.3502 70.3862 9.83007C70.3021 9.29812 69.8831 8.80478 69.2143 8.41866C67.3787 7.35886 64.698 7.63864 62.8654 8.69671C62.3141 9.01502 61.8489 9.3894 61.536 9.79474C61.2231 10.2 61.0519 10.6512 61.1246 11.1109C61.2059 11.6243 61.5821 12.0929 62.267 12.4884C63.6457 13.2844 65.5108 13.3496 67.1023 12.6778L67.4369 12.5365L67.1224 12.3549L65.1213 11.1996L66.1887 10.5833L70.1898 12.8934L65.4987 15.6017L64.3929 14.9633L65.9792 14.0474L65.8533 13.7139C64.0512 14.0756 62.1125 13.9466 60.5385 13.0379C59.5442 12.4638 58.97 11.7393 58.8521 10.9954C58.7022 10.0498 59.2798 8.96522 60.9427 8.00517C62.4255 7.14905 64.2226 6.71084 65.9775 6.67648C67.7334 6.6421 69.4326 7.0122 70.7221 7.75671C71.8042 8.38147 72.4189 9.18669 72.5416 9.9608C72.664 10.7331 72.3045 11.5333 71.3021 12.1586L69.7084 11.2384Z" fill="#141414" stroke="#141414" stroke-width="0.361269"/>
<path d="M60.9892 7.56471L60.9402 7.25508C62.4019 6.43922 64.1547 6.02105 65.8673 5.98751C67.5896 5.9538 69.2573 6.30922 70.5374 7.02541L70.5757 7.26709C69.266 6.60222 67.6337 6.28247 65.9694 6.31506C64.2512 6.34869 62.4857 6.75801 60.9892 7.56471Z" fill="#141414" stroke="#141414" stroke-width="0.361269" stroke-linejoin="round"/>
<path d="M58.7855 9.52344C58.9672 8.83716 59.5358 8.11873 60.6064 7.45299L60.6544 7.75598C59.747 8.29765 59.1274 8.90023 58.7855 9.52344Z" fill="#141414" stroke="#141414" stroke-width="0.361269" stroke-linejoin="round"/>
<path d="M68.8865 8.2498C67.1488 7.43151 64.8033 7.67603 63.091 8.57192L63.0418 8.26098C64.763 7.3149 67.1872 7.09102 68.8473 8.00174L68.8865 8.2498Z" fill="#141414" stroke="#141414" stroke-width="0.361269" stroke-linejoin="round"/>
<path d="M61.3771 10.0256C61.4175 9.79847 61.5304 9.56383 61.7129 9.32742C61.9476 9.02346 62.2898 8.72739 62.7104 8.459L62.7582 8.76067C62.2538 9.06489 61.8285 9.41661 61.5361 9.79538C61.478 9.87062 61.4248 9.94744 61.3771 10.0256Z" fill="#141414" stroke="#141414" stroke-width="0.361269" stroke-linejoin="round"/>
<path d="M70.9434 7.27459C71.4031 7.58391 71.7597 7.92783 72.0109 8.28463C71.726 7.99628 71.3793 7.72785 70.9773 7.48826L70.9434 7.27459Z" fill="#141414" stroke="#141414" stroke-width="0.361269" stroke-linejoin="round"/>
<path d="M69.2579 8.26216C69.5007 8.44485 69.6741 8.6366 69.7842 8.82685C69.6415 8.69831 69.4761 8.57675 69.2898 8.46378L69.2579 8.26216Z" fill="#141414" stroke="#141414" stroke-width="0.361269" stroke-linejoin="round"/>
<path d="M64.8948 10.9123L64.8463 10.6057L65.9398 9.97437L65.9884 10.2809L64.8948 10.9123Z" fill="#141414" stroke="#141414" stroke-width="0.361269" stroke-linejoin="round"/>
<path d="M62.1087 11.9579C61.8672 11.7769 61.7035 11.5924 61.6013 11.4102C61.7368 11.5304 61.8952 11.6457 62.0767 11.7556L62.1087 11.9579Z" fill="#141414" stroke="#141414" stroke-width="0.361269" stroke-linejoin="round"/>
<path d="M60.2056 12.8311C59.7825 12.5442 59.4541 12.2272 59.2241 11.8938C59.4876 12.1567 59.806 12.3998 60.1719 12.6182L60.2056 12.8311Z" fill="#141414" stroke="#141414" stroke-width="0.361269" stroke-linejoin="round"/>
<path d="M69.4547 10.6505C69.6995 10.4864 69.894 10.3024 70.0335 10.1043C70.0071 10.3847 69.8429 10.6741 69.5005 10.94L69.4547 10.6505Z" fill="#141414" stroke="#141414" stroke-width="0.361269" stroke-linejoin="round"/>
<path d="M64.8861 10.857L66.7556 11.9364L66.7919 12.166L64.9225 11.0866L64.8861 10.857Z" fill="#141414" stroke="#141414" stroke-width="0.361269" stroke-linejoin="round"/>
<path d="M70.2756 12.3185L70.3119 12.5481L66.3521 10.2619L66.3158 10.0323L70.2756 12.3185Z" fill="#141414" stroke="#141414" stroke-width="0.361269" stroke-linejoin="round"/>
<path d="M71.3927 11.7714C71.9067 11.449 72.2806 11.072 72.5161 10.6637C72.3966 11.1649 72.0526 11.652 71.4398 12.0692L71.3927 11.7714Z" fill="#141414" stroke="#141414" stroke-width="0.361269" stroke-linejoin="round"/>
<path d="M62.5238 12.2173L62.4846 11.9695C63.7582 12.5709 65.3626 12.6071 66.7817 12.074L66.833 12.3979C65.393 12.9618 63.7496 12.8905 62.5238 12.2173Z" fill="#141414" stroke="#141414" stroke-width="0.361269" stroke-linejoin="round"/>
<path d="M69.4955 10.9098L71.0274 11.7942L71.0637 12.0238L69.5318 11.1394L69.4955 10.9098Z" fill="#141414" stroke="#141414" stroke-width="0.361269" stroke-linejoin="round"/>
<path d="M60.5714 12.8371C62.1208 13.6127 63.9381 13.7215 65.6274 13.4145L65.68 13.7463C63.9551 14.0614 62.1205 13.9226 60.6098 13.08L60.5714 12.8371Z" fill="#141414" stroke="#141414" stroke-width="0.361269" stroke-linejoin="round"/>
<path d="M64.1683 14.6758L64.1197 14.3693L65.6419 13.4905L65.6904 13.797L64.1683 14.6758Z" fill="#141414" stroke="#141414" stroke-width="0.361269" stroke-linejoin="round"/>
<path d="M65.637 15.5215L65.5885 15.2149L70.3056 12.4915L70.3542 12.798L65.637 15.5215Z" fill="#141414" stroke="#141414" stroke-width="0.361269" stroke-linejoin="round"/>
<path d="M64.1595 14.6207L65.224 15.2353L65.2604 15.4649L64.1959 14.8503L64.1595 14.6207Z" fill="#141414" stroke="#141414" stroke-width="0.361269" stroke-linejoin="round"/>
<path d="M64.6499 10.5114L66.0786 9.68658L70.441 12.2052L65.3887 15.1222L63.9215 14.2751L65.7788 13.2028C63.9477 13.5704 61.961 13.4431 60.3381 12.5061C58.0011 11.1569 57.7421 8.89275 60.7423 7.16057C63.7685 5.4134 68.0538 5.38296 70.7023 6.91212C72.9744 8.2239 73.3763 10.3906 71.1943 11.6803L69.2598 10.5634C70.4937 9.80607 70.3642 8.66651 69.0139 7.88694C67.2482 6.8675 64.638 7.13018 62.8457 8.16498C61.1702 9.1323 60.4036 10.5793 62.2472 11.6438C63.5715 12.4083 65.3765 12.4756 66.922 11.8232L64.6499 10.5114Z" fill="white"/>
<path d="M32.1772 50.53C32.6259 50.1864 32.8704 49.7677 32.8705 49.317C32.8706 48.7126 32.4321 48.1426 31.683 47.7102C29.8474 46.6504 27.1668 46.9301 25.3342 47.9882C24.8251 48.2821 24.39 48.6235 24.0802 48.9926C23.771 49.3608 23.5768 49.7688 23.5768 50.1909C23.5767 50.7829 23.9551 51.3292 24.7357 51.7799C26.1145 52.5759 27.9795 52.6411 29.5711 51.9693L29.9057 51.828L29.5911 51.6464L27.59 50.4911L28.6574 49.8748L32.6585 52.1849L27.9675 54.8932L26.8616 54.2548L28.448 53.3389L28.3221 53.0054C26.52 53.3671 24.5812 53.2381 23.0072 52.3294C21.8836 51.6807 21.298 50.842 21.2978 49.9958C21.2977 49.1267 21.9155 48.1603 23.4114 47.2967C24.8943 46.4406 26.6914 46.0023 28.4463 45.968C30.2021 45.9336 31.9013 46.3037 33.1908 47.0482C34.4103 47.7523 35.0334 48.6824 35.0335 49.5425C35.0336 50.2173 34.6511 50.9009 33.7708 51.4501L32.1772 50.53Z" fill="#141414" stroke="#141414" stroke-width="0.361269"/>
<path d="M23.5009 46.8336V46.548C24.9661 45.7257 26.726 45.3044 28.4455 45.2707C30.1606 45.2371 31.8217 45.5895 33.0997 46.2998V46.5871C31.7809 45.9031 30.1262 45.5738 28.4384 45.6068C26.7365 45.6402 24.9882 46.0421 23.5009 46.8336Z" fill="#141414" stroke="#141414" stroke-width="0.361269" stroke-linejoin="round"/>
<path d="M31.4095 47.5669C29.6808 46.7247 27.3288 46.9542 25.6025 47.8412V47.5533C27.3193 46.6022 29.7442 46.3721 31.4095 47.2758V47.5669Z" fill="#141414" stroke="#141414" stroke-width="0.361269" stroke-linejoin="round"/>
<path d="M33.4619 46.5162C34.1317 46.9541 34.5903 47.4637 34.8321 47.9829C34.5041 47.5422 34.0404 47.1345 33.4619 46.7874V46.5162Z" fill="#141414" stroke="#141414" stroke-width="0.361269" stroke-linejoin="round"/>
<path d="M23.1405 47.0371C22.4094 47.4711 21.8639 47.9441 21.4984 48.4362C21.7597 47.8755 22.2869 47.3023 23.1405 46.7633V47.0371Z" fill="#141414" stroke="#141414" stroke-width="0.361269" stroke-linejoin="round"/>
<path d="M31.7666 47.4982C32.1412 47.7648 32.3632 48.0523 32.4542 48.3285C32.2766 48.1242 32.045 47.9338 31.7666 47.7631V47.4982Z" fill="#141414" stroke="#141414" stroke-width="0.361269" stroke-linejoin="round"/>
<path d="M24.0728 48.993C24.0549 49.0143 24.0375 49.0356 24.0204 49.0572C24.0903 48.8829 24.2004 48.7055 24.3495 48.528C24.5716 48.2634 24.8738 48.0064 25.2364 47.7703V48.0418C24.7662 48.3234 24.3641 48.646 24.0728 48.993Z" fill="#141414" stroke="#141414" stroke-width="0.361269" stroke-linejoin="round"/>
<path d="M32.4707 49.5635C32.4086 49.776 32.2633 49.9917 32.0166 50.1949V49.9453C32.1945 49.8277 32.3465 49.6998 32.4707 49.5635Z" fill="#141414" stroke="#141414" stroke-width="0.361269" stroke-linejoin="round"/>
<path d="M27.4072 50.1785V49.8984L28.4746 49.2821V49.5623L27.4072 50.1785Z" fill="#141414" stroke="#141414" stroke-width="0.361269" stroke-linejoin="round"/>
<path d="M33.9463 51.3292V51.0645C34.3361 50.8223 34.6467 50.5489 34.8782 50.2537C34.7148 50.6351 34.4115 51.0027 33.9463 51.3292Z" fill="#141414" stroke="#141414" stroke-width="0.361269" stroke-linejoin="round"/>
<path d="M24.638 51.0289V51.2942C24.2659 51.0305 24.0625 50.7582 23.978 50.4933C24.1455 50.6827 24.3651 50.862 24.638 51.0289Z" fill="#141414" stroke="#141414" stroke-width="0.361269" stroke-linejoin="round"/>
<path d="M32.838 51.5921V51.8723L28.8369 49.5623V49.2821L32.838 51.5921Z" fill="#141414" stroke="#141414" stroke-width="0.361269" stroke-linejoin="round"/>
<path d="M32.0166 50.1595L33.5898 51.0679V51.348L32.0166 50.4397V50.1595Z" fill="#141414" stroke="#141414" stroke-width="0.361269" stroke-linejoin="round"/>
<path d="M27.4072 50.1068L29.318 51.21V51.4902L27.4072 50.387V50.1068Z" fill="#141414" stroke="#141414" stroke-width="0.361269" stroke-linejoin="round"/>
<path d="M22.7363 52.1629C22.1225 51.7594 21.7 51.2942 21.4787 50.8057C21.7845 51.2092 22.211 51.5765 22.7363 51.8921V52.1629Z" fill="#141414" stroke="#141414" stroke-width="0.361269" stroke-linejoin="round"/>
<path d="M25.0009 51.5178V51.2268C26.2718 51.8475 27.8845 51.8971 29.3144 51.3711V51.6818C27.8759 52.2518 26.2308 52.186 25.0009 51.5178Z" fill="#141414" stroke="#141414" stroke-width="0.361269" stroke-linejoin="round"/>
<path d="M23.0947 52.0921C24.6465 52.8879 26.4738 53.0064 28.1742 52.7029V53.033C26.448 53.3529 24.6097 53.2189 23.0947 52.38V52.0921Z" fill="#141414" stroke="#141414" stroke-width="0.361269" stroke-linejoin="round"/>
<path d="M28.1494 54.7892V54.509L32.8404 51.8007V52.0808L28.1494 54.7892Z" fill="#141414" stroke="#141414" stroke-width="0.361269" stroke-linejoin="round"/>
<path d="M26.6806 53.9421V53.6619L28.1766 52.7982V53.0784L26.6806 53.9421Z" fill="#141414" stroke="#141414" stroke-width="0.361269" stroke-linejoin="round"/>
<path d="M26.6806 53.8705L27.7865 54.5089V54.7891L26.6806 54.1507V53.8705Z" fill="#141414" stroke="#141414" stroke-width="0.361269" stroke-linejoin="round"/>
<path d="M27.2281 49.7941L28.6567 48.9693L33.0191 51.4879L27.9668 54.4049L26.4997 53.5578L28.357 52.4855C26.5259 52.8531 24.5391 52.7258 22.9162 51.7889C20.5792 50.4396 20.3202 48.1755 23.3204 46.4433C26.3466 44.6961 30.6319 44.6657 33.2805 46.1948C35.5525 47.5066 35.9544 49.6733 33.7724 50.963L31.8379 49.8461C33.0718 49.0888 32.9423 47.9492 31.592 47.1697C29.8263 46.1502 27.2161 46.4129 25.4238 47.4477C23.7483 48.415 22.9817 49.8621 24.8254 50.9265C26.1497 51.6911 27.9546 51.7583 29.5001 51.1059L27.2281 49.7941Z" fill="white"/>
<path d="M38.0025 34.4104C37.7195 33.1609 37.7567 31.8738 38.1931 30.809L39.5162 32.1015C38.936 33.5112 39.3648 35.3234 40.4972 36.4297C40.9302 36.8527 41.391 37.1049 41.8574 37.1957C42.3247 37.2868 42.7853 37.2134 43.2113 37.0057C43.8611 36.6889 44.4266 36.0627 44.8367 35.2339C45.7131 33.4632 45.8575 30.972 44.2561 29.4076C43.4702 28.6398 42.5792 28.415 41.7788 28.8053C41.418 28.9811 41.0893 29.2766 40.8056 29.6795L40.7171 29.8052L40.8271 29.9127L42.6099 31.6543L42.0466 32.7924L38.7152 29.5378L41.1344 24.6496L42.0744 25.568L41.1814 27.3725L41.4475 27.6001C41.5911 27.4987 41.7379 27.411 41.8874 27.3381C42.3687 27.1032 42.8796 27.0197 43.4047 27.1239C43.931 27.2285 44.4855 27.5246 45.0466 28.0728C46.9193 29.9022 47.6962 33.3991 46.1932 36.436C45.6052 37.6241 44.8324 38.4147 43.9964 38.8226C42.6894 39.4604 41.1795 39.1834 39.8848 37.9186C38.9749 37.0297 38.3063 35.7515 38.0025 34.4104Z" fill="#141414" stroke="#141414" stroke-width="0.361269"/>
<path d="M39.1702 38.1343C38.306 37.2503 37.6713 36.0125 37.3775 34.7158C37.0787 33.3966 37.1369 32.0355 37.6449 30.9383L37.7843 30.8703C37.3866 31.9773 37.3739 33.2624 37.6519 34.4899C37.949 35.8012 38.5815 37.064 39.456 37.9949L39.1702 38.1343Z" fill="#141414" stroke="#141414" stroke-width="0.361269" stroke-linejoin="round"/>
<path d="M41.971 39.4578C41.1206 39.4588 40.2483 39.1116 39.4481 38.3997L39.7257 38.2644C40.4251 38.919 41.1941 39.3184 41.971 39.4578Z" fill="#141414" stroke="#141414" stroke-width="0.361269" stroke-linejoin="round"/>
<path d="M40.3221 36.2458L40.0343 36.3862C39.052 35.3536 38.7117 33.7276 39.2433 32.4978L39.4043 32.4193C39.0266 33.6962 39.4002 35.2173 40.3221 36.2458Z" fill="#141414" stroke="#141414" stroke-width="0.361269" stroke-linejoin="round"/>
<path d="M39.4228 32.0091L39.1409 32.1466L37.8174 30.8537L38.0994 30.7162L39.4228 32.0091Z" fill="#141414" stroke="#141414" stroke-width="0.361269" stroke-linejoin="round"/>
<path d="M40.5936 36.5169C40.9679 36.8585 41.3614 37.0752 41.7602 37.1729C41.6089 37.1846 41.4562 37.176 41.3031 37.1461C40.9814 37.0835 40.6491 36.9253 40.3193 36.6508L40.5936 36.5169Z" fill="#141414" stroke="#141414" stroke-width="0.361269" stroke-linejoin="round"/>
<path d="M41.5056 33.1818L38.1768 29.9299L38.4587 29.7924L41.7875 33.0443L41.5056 33.1818Z" fill="#141414" stroke="#141414" stroke-width="0.361269" stroke-linejoin="round"/>
<path d="M44.1845 35.5951L44.2317 35.5721C44.1835 35.6458 44.134 35.7167 44.0833 35.7846C44.118 35.7227 44.1518 35.6595 44.1845 35.5951Z" fill="#141414" stroke="#141414" stroke-width="0.361269" stroke-linejoin="round"/>
<path d="M40.5894 24.7877L40.6848 24.7412L38.3594 29.44L38.264 29.4865L40.5894 24.7877Z" fill="#141414" stroke="#141414" stroke-width="0.361269" stroke-linejoin="round"/>
<path d="M41.9609 32.9594L41.8655 33.0059L42.335 32.0572L42.4304 32.0107L41.9609 32.9594Z" fill="#141414" stroke="#141414" stroke-width="0.361269" stroke-linejoin="round"/>
<path d="M45.8668 36.9573L45.9316 36.9257C45.8394 37.0807 45.7437 37.2275 45.6448 37.3661C45.7214 37.2349 45.7955 37.0986 45.8668 36.9573Z" fill="#141414" stroke="#141414" stroke-width="0.361269" stroke-linejoin="round"/>
<path d="M42.5219 31.5661L42.24 31.7036L40.6378 30.1384L40.9197 30.0009L42.5219 31.5661Z" fill="#141414" stroke="#141414" stroke-width="0.361269" stroke-linejoin="round"/>
<mask id="path-162-inside-1_3380_187224" fill="white">
<path d="M40.3281 30.0888C40.5982 29.7052 40.905 29.4328 41.2327 29.273L41.8589 28.9676C41.5314 29.1274 41.2248 29.3998 40.9549 29.7831L40.3281 30.0888Z"/>
</mask>
<path d="M40.3281 30.0888C40.5982 29.7052 40.905 29.4328 41.2327 29.273L41.8589 28.9676C41.5314 29.1274 41.2248 29.3998 40.9549 29.7831L40.3281 30.0888Z" fill="#141414"/>
<path d="M41.9381 29.1299C41.9383 29.1298 41.9385 29.1297 41.9386 29.1297L41.7803 28.8049C41.7801 28.805 41.7799 28.8051 41.7797 28.8052L41.9381 29.1299ZM41.2327 29.273L41.3911 29.5977L41.3911 29.5977L41.2327 29.273ZM40.3281 30.0888L40.0327 29.8808C39.9378 30.0156 39.9462 30.1976 40.0531 30.3231C40.16 30.4486 40.3383 30.4858 40.4865 30.4135L40.3281 30.0888ZM40.9549 29.7831L41.1132 30.1078C41.168 30.0811 41.2152 30.0409 41.2503 29.9911L40.9549 29.7831ZM41.8589 28.9676L42.0173 29.2923C42.1966 29.2048 42.2711 28.9885 42.1836 28.8092C42.0961 28.6299 41.8798 28.5554 41.7005 28.6429L41.8589 28.9676ZM41.0744 28.9482C40.6806 29.1402 40.33 29.4587 40.0327 29.8808L40.6235 30.2968C40.8665 29.9517 41.1293 29.7253 41.3911 29.5977L41.0744 28.9482ZM40.4865 30.4135L41.1132 30.1078L40.7965 29.4584L40.1698 29.7641L40.4865 30.4135ZM41.2503 29.9911C41.4931 29.6463 41.7558 29.4199 42.0173 29.2923L41.7005 28.6429C41.307 28.8349 40.9565 29.1532 40.6595 29.5751L41.2503 29.9911ZM41.7005 28.6429L41.0744 28.9483L41.3911 29.5977L42.0173 29.2923L41.7005 28.6429Z" fill="#141414" mask="url(#path-162-inside-1_3380_187224)"/>
<mask id="path-164-inside-2_3380_187224" fill="white">
<path d="M41.1836 27.481C41.0248 27.5585 40.8696 27.6512 40.7188 27.7578L41.3455 27.4521C41.4964 27.3455 41.6515 27.2528 41.8104 27.1753L41.1836 27.481Z"/>
</mask>
<path d="M41.1836 27.481C41.0248 27.5585 40.8696 27.6512 40.7188 27.7578L41.3455 27.4521C41.4964 27.3455 41.6515 27.2528 41.8104 27.1753L41.1836 27.481Z" fill="#141414"/>
<path d="M40.7188 27.7578L40.5103 27.4627C40.3565 27.5714 40.312 27.7798 40.4079 27.9418C40.5037 28.1038 40.7079 28.165 40.8771 28.0825L40.7188 27.7578ZM41.1836 27.481L41.0252 27.1563L41.0252 27.1563L41.1836 27.481ZM41.8104 27.1753L41.9688 27.5C42.1481 27.4125 42.2225 27.1962 42.1351 27.0169C42.0476 26.8376 41.8313 26.7631 41.652 26.8506L41.8104 27.1753ZM41.3455 27.4521L41.5039 27.7768C41.5213 27.7683 41.5381 27.7584 41.554 27.7472L41.3455 27.4521ZM40.9272 28.0529C41.0634 27.9566 41.2019 27.874 41.342 27.8057L41.0252 27.1563C40.8476 27.2429 40.6758 27.3458 40.5103 27.4627L40.9272 28.0529ZM41.342 27.8057L41.9687 27.5L41.652 26.8506L41.0252 27.1563L41.342 27.8057ZM41.6519 26.8506C41.4744 26.9372 41.3026 27.0401 41.137 27.1571L41.554 27.7472C41.6902 27.6509 41.8287 27.5683 41.9688 27.5L41.6519 26.8506ZM41.1871 27.1274L40.5604 27.4331L40.8771 28.0825L41.5039 27.7768L41.1871 27.1274Z" fill="#141414" mask="url(#path-164-inside-2_3380_187224)"/>
<path d="M44.5445 35.0186L44.4191 35.0797C45.0745 33.429 45.1001 31.3296 43.8097 29.896L44.0972 29.7558C45.4333 31.1574 45.3421 33.363 44.5445 35.0186Z" fill="#141414" stroke="#141414" stroke-width="0.361269" stroke-linejoin="round"/>
<path d="M42.4343 28.9864C42.8737 28.9409 43.3455 29.0993 43.8141 29.491L43.5394 29.625C43.1847 29.301 42.8105 29.086 42.4343 28.9864Z" fill="#141414" stroke="#141414" stroke-width="0.361269" stroke-linejoin="round"/>
<path d="M41.2109 27.317L41.1155 27.3635L41.8046 25.9713L41.9 25.9248L41.2109 27.317Z" fill="#141414" stroke="#141414" stroke-width="0.361269" stroke-linejoin="round"/>
<path d="M41.982 25.4805L41.7001 25.618L40.7628 24.7023L41.0447 24.5648L41.982 25.4805Z" fill="#141414" stroke="#141414" stroke-width="0.361269" stroke-linejoin="round"/>
<path d="M46.1021 36.4387C47.3403 33.4763 46.615 30.1856 44.8511 28.3017L45.137 28.1622C46.9333 30.0031 47.6638 33.4057 46.2209 36.3807L46.1021 36.4387Z" fill="#141414" stroke="#141414" stroke-width="0.361269" stroke-linejoin="round"/>
<path d="M43.403 27.1238C43.8699 27.2165 44.359 27.4601 44.8552 27.8966L44.5782 28.0317C44.0175 27.5089 43.4442 27.2004 42.8756 27.0811C43.0493 27.0747 43.2254 27.0885 43.403 27.1238Z" fill="#141414" stroke="#141414" stroke-width="0.361269" stroke-linejoin="round"/>
<path d="M42.2061 31.9229L41.4743 33.4015L37.8711 29.8814L40.4588 24.6528L41.6706 25.8366L40.7193 27.7587C41.8446 26.9637 43.2085 26.9402 44.5489 28.2497C46.4792 30.1355 47.2678 33.7173 45.7312 36.8223C44.1812 39.9541 41.3223 40.4911 39.1347 38.3539C37.258 36.5206 36.4003 33.1105 37.5097 30.8045L39.1076 32.3655C38.4879 33.7141 38.8842 35.517 39.9995 36.6066C41.4579 38.0314 43.1329 37.3148 44.0509 35.4599C44.909 33.726 45.0287 31.3305 43.5059 29.8429C42.4121 28.7743 41.1861 28.8727 40.3294 30.0896L42.2061 31.9229Z" fill="white"/>
<path d="M43.2127 49.0776L48.8865 49.0898C51.4264 49.0898 53.9638 50.7652 55.9022 54.1013C59.7984 60.8175 59.7984 71.7391 55.9022 78.4966C53.9541 81.8912 51.3704 83.586 48.7989 83.5787H43.125C45.6965 83.5787 48.2705 81.8912 50.2307 78.4966C54.127 71.7391 54.127 60.8175 50.2307 54.1013C48.2899 50.7603 45.755 49.0898 43.2127 49.0776Z" fill="#9EC9FF"/>
<g opacity="0.15">
<path d="M43.1484 83.569C45.7102 83.569 48.2622 81.8644 50.2298 78.4893C54.1261 71.7318 54.1261 60.8126 50.2298 54.0965C48.2817 50.7603 45.7516 49.0874 43.2118 49.0825H45.3644C47.875 49.1239 50.3735 50.7871 52.2851 54.0916C56.1813 60.8077 56.1813 71.7269 52.2851 78.4844C50.337 81.8668 47.7728 83.5641 45.2061 83.5641" fill="#6B9AD4"/>
</g>
<path d="M36.094 54.1774C39.9903 47.4174 46.3216 47.3833 50.2179 54.097C54.1141 60.8107 54.1141 71.7347 50.2179 78.4922C46.3216 85.2498 39.9903 85.2741 36.094 78.558C32.1978 71.8419 32.1978 60.9227 36.094 54.1774Z" fill="#BFDBFF"/>
<path opacity="0.15" d="M52.2885 66.2646C52.2885 70.4043 51.3972 74.3006 49.7754 77.2617C48.0465 80.4128 45.6893 82.1514 43.1348 82.1514C40.5804 82.1514 38.2645 80.4468 36.5599 77.3226C34.9381 74.3882 34.0469 70.5042 34.0469 66.3644C34.0469 62.2247 34.9381 58.3285 36.5599 55.3771C38.2645 52.2284 40.6266 50.4922 43.1835 50.4873C45.7404 50.4824 48.0733 52.1919 49.7827 55.3162C51.3972 58.2408 52.2885 62.1297 52.2885 66.2646Z" fill="#6B9AD4"/>
<path d="M48.8912 56.4029C52.0568 61.8235 52.0568 70.7045 48.8912 76.1836C45.7255 81.6626 40.5946 81.6797 37.446 76.2396C34.2974 70.7995 34.2803 61.9404 37.446 56.4614C40.6117 50.9823 45.7425 50.9628 48.8912 56.4029Z" fill="#9EC9FF"/>
<g opacity="0.4">
<path d="M48.8905 56.4008C52.0562 61.8214 52.0562 70.7024 48.8905 76.1814L37.4453 56.4568C40.5939 50.9802 45.7418 50.9607 48.8905 56.4008Z" fill="white"/>
</g>
<path d="M37.2971 56.3803C35.7507 59.0589 34.8984 62.6045 34.8984 66.3644C34.8984 70.1242 35.7507 73.6698 37.2971 76.3265C38.8434 78.9833 40.9327 80.4882 43.1414 80.4882C45.3501 80.4882 47.4735 78.993 49.0442 76.2778C50.5905 73.5992 51.4428 70.0487 51.4428 66.2767C51.4428 62.5047 50.5905 58.9713 49.0442 56.3218C47.4979 53.6724 45.4109 52.1675 43.1852 52.1699C40.9595 52.1724 38.8555 53.6627 37.2971 56.3803ZM48.7422 56.4996C50.2569 59.093 51.0921 62.568 51.0921 66.2767C51.0921 69.9854 50.2569 73.4774 48.7398 76.1025C47.2227 78.7276 45.2478 80.1375 43.139 80.1375C41.0301 80.1375 39.082 78.7251 37.5966 76.1585C36.1111 73.5919 35.2467 70.0706 35.2467 66.3717C35.2467 62.6727 36.0819 59.1807 37.599 56.5556C39.1161 53.9305 41.074 52.523 43.1828 52.5206C45.2916 52.5182 47.2641 53.9232 48.7422 56.4923V56.4996Z" fill="#6B9AD4"/>
<path d="M43.2105 48.9082H43.1838C40.4394 48.9082 37.8678 50.7516 35.9417 54.0877C34.0447 57.3752 33 61.7365 33 66.3706C33 71.0047 34.0471 75.3806 35.9514 78.6461C37.8557 81.9117 40.4199 83.7599 43.1472 83.7478H43.1667L48.7943 83.7599C51.5436 83.7599 54.1224 81.9311 56.0486 78.5901C57.9504 75.2954 59 70.9267 59 66.2878C59 61.6489 57.9504 57.2924 56.0486 54.0196C54.1468 50.7467 51.5972 48.9277 48.882 48.9204L43.2105 48.9082ZM53.5088 81.3248C52.0745 82.6885 50.4648 83.4117 48.7943 83.4068H45.1733C46.3704 82.968 47.4492 82.2569 48.3243 81.3297L53.5088 81.3248ZM56.0413 77.8766C55.9439 78.0568 55.8489 78.237 55.7442 78.4124C55.2207 79.3394 54.5879 80.2003 53.8594 80.9766H48.6506C49.3103 80.2411 49.8891 79.4369 50.3772 78.578C50.5087 78.3515 50.6353 78.1153 50.7595 77.8766H56.0413ZM57.4659 74.426C57.1356 75.4917 56.7186 76.5284 56.2191 77.526H50.9348C51.4208 76.526 51.8279 75.4895 52.1524 74.426H57.4659ZM58.3547 70.4616C58.1804 71.6843 57.9183 72.8928 57.5706 74.0778H52.2571C52.6007 72.8922 52.8603 71.6838 53.0339 70.4616H58.3547ZM58.6469 66.5021C58.638 67.7097 58.5567 68.9156 58.4034 70.1134H53.0777C53.2322 68.9157 53.3136 67.7097 53.3213 66.5021H58.6469ZM58.4034 62.5426C58.5591 63.7393 58.6404 64.9446 58.6469 66.1514H53.3261C53.3183 64.9446 53.237 63.7394 53.0826 62.5426H58.4034ZM57.5901 58.5733C57.9354 59.7575 58.1942 60.9653 58.3644 62.187H53.0461C52.8773 60.966 52.6226 59.7584 52.2839 58.5733H57.5901ZM56.2483 55.1227C56.7456 56.1223 57.161 57.1606 57.4902 58.2275H52.1816C51.8583 57.1636 51.4512 56.1271 50.964 55.1276L56.2483 55.1227ZM53.8862 51.6721C54.6038 52.4342 55.2276 53.2795 55.7442 54.19C55.8562 54.3824 55.9634 54.5772 56.0681 54.7745H50.7936C50.6596 54.5115 50.5208 54.2558 50.3772 54.005C49.8985 53.1726 49.3354 52.3917 48.6969 51.6745L53.8862 51.6721ZM48.8796 49.2613C50.5306 49.2613 52.1183 49.9918 53.5331 51.3239H48.3706C47.5184 50.4235 46.4737 49.7276 45.3145 49.2881L45.2488 49.2613H48.8796ZM49.7781 53.703C49.878 53.8613 49.9778 54.022 50.0728 54.19C50.1677 54.358 50.2627 54.5236 50.3552 54.6941C52.0477 57.8598 52.9779 61.9386 52.9779 66.2829C52.9779 70.8586 51.9454 75.1663 50.0728 78.4075C48.2001 81.6487 45.7553 83.3971 43.1448 83.402C40.5343 83.4068 38.1016 81.656 36.2533 78.4732C34.3807 75.2516 33.3482 70.9535 33.3482 66.3755C33.3482 61.7974 34.3783 57.5018 36.246 54.2679C38.1138 51.0341 40.5709 49.2662 43.1838 49.2613C45.6433 49.254 47.9688 50.8271 49.7781 53.703Z" fill="#6B9AD4"/>
<path d="M41.7098 66.2503C42.6821 66.3698 44.0798 63.505 45.3528 63.6613C45.7041 63.7045 46.0458 63.9777 46.3666 64.6071C47.3444 66.5263 46.8981 69.3087 45.9213 71.3114C45.2047 72.7807 44.4404 73.3391 43.7419 73.2533C43.1011 73.1747 42.5155 72.5541 42.0727 71.5976L43.0758 69.5681C43.2947 70.1162 43.6756 70.6715 44.1221 70.7264C44.4634 70.7683 44.8431 70.518 45.2183 69.7488C45.7523 68.654 45.8407 67.3902 45.4563 66.6358C45.3166 66.3616 45.1576 66.2342 44.9826 66.2127C44.0668 66.1002 42.7149 68.8899 41.4182 68.7307C41.0372 68.6839 40.6609 68.3825 40.3019 67.6779C39.324 65.7587 39.6932 63.2428 40.6569 61.2669C41.2461 60.0589 41.9091 59.3582 42.6132 59.4447C43.1777 59.5139 43.7686 60.0891 44.3692 61.3142L43.3466 63.3838C42.9393 62.5 42.5607 62.0435 42.2054 61.9999C41.9007 61.9624 41.6133 62.2288 41.3397 62.7898C40.8187 63.8579 40.8159 65.0544 41.1868 65.7823C41.3416 66.0862 41.5174 66.2267 41.7098 66.2503Z" fill="black"/>
<path d="M39.8366 61.1641C38.8728 63.14 38.5037 65.6559 39.4816 67.5751L40.3007 67.6756C39.3228 65.7565 39.692 63.2406 40.6557 61.2646L39.8366 61.1641Z" fill="black"/>
<path d="M41.8001 59.3431C41.0959 59.2567 40.4329 59.9574 39.8438 61.1653L40.6629 61.2659C41.252 60.0579 41.915 59.3572 42.6192 59.4437L41.8001 59.3431Z" fill="black"/>
<path d="M40.37 65.6815C39.999 64.9536 40.0019 63.7571 40.5228 62.689L41.3419 62.7895C40.821 63.8576 40.8181 65.0542 41.1891 65.7821L40.37 65.6815Z" fill="black"/>
<path d="M39.4844 67.5762C39.8434 68.2808 40.2196 68.5822 40.6007 68.629L41.4198 68.7296C41.0388 68.6828 40.6625 68.3813 40.3035 67.6767L39.4844 67.5762Z" fill="black"/>
<path d="M40.5234 62.6903C40.797 62.1293 41.0845 61.863 41.3892 61.9004L42.2083 62.001C41.9036 61.9636 41.6161 62.2299 41.3425 62.7909L40.5234 62.6903Z" fill="black"/>
<path d="M40.898 66.1501C40.7056 66.1265 40.5298 65.986 40.375 65.6821L41.1941 65.7827C41.3489 66.0866 41.5247 66.2271 41.7171 66.2507L40.898 66.1501Z" fill="black"/>
<path d="M41.3906 61.8989C41.7458 61.9426 42.1245 62.399 42.5318 63.2828L43.3509 63.3834C42.9436 62.4996 42.565 62.0431 42.2097 61.9995L41.3906 61.8989Z" fill="black"/>
<path d="M43.5529 61.2138C42.9523 59.9887 42.3614 59.4136 41.797 59.3442L42.616 59.4448C43.1805 59.5141 43.7714 60.0892 44.372 61.3144L43.5529 61.2138Z" fill="black"/>
<path d="M42.2609 69.4668L41.2578 71.4963L42.0769 71.5969L43.08 69.5674L42.2609 69.4668Z" fill="black"/>
<path d="M40.6016 68.6317C41.8982 68.7909 43.2502 66.0011 44.166 66.1137L44.985 66.2142C44.0692 66.1019 42.7173 68.8914 41.4207 68.7322L40.6016 68.6317Z" fill="black"/>
<path d="M44.5336 63.5584C43.2607 63.4021 41.8631 66.2667 40.8907 66.1474L41.7097 66.248C42.682 66.3675 44.0797 63.5027 45.3527 63.659L44.5336 63.5584Z" fill="black"/>
<path d="M42.5312 63.281L43.5538 61.2114L44.3729 61.312L43.3504 63.3816L42.5312 63.281Z" fill="black"/>
<path d="M41.2578 71.4966C41.7006 72.4531 42.2861 73.0737 42.9269 73.1524L43.7459 73.2529C43.1051 73.1742 42.5197 72.5536 42.0769 71.5972L41.2578 71.4966Z" fill="black"/>
<path d="M43.3042 70.6252C42.8576 70.5703 42.4767 70.015 42.2578 69.4668L43.0769 69.5674C43.2958 70.1155 43.6767 70.6708 44.1233 70.7257L43.3042 70.6252Z" fill="black"/>
<path d="M44.4009 69.646C44.0257 70.4151 43.6461 70.6655 43.3048 70.6236L44.1238 70.7242C44.4651 70.7661 44.8448 70.5158 45.22 69.7466L44.4009 69.646Z" fill="black"/>
<path d="M44.1641 66.1118C44.339 66.1333 44.4981 66.2607 44.6378 66.5349L45.4569 66.6355C45.3172 66.3613 45.1581 66.2339 44.9832 66.2124L44.1641 66.1118Z" fill="black"/>
<path d="M42.9219 73.1505C43.6204 73.2362 44.3847 72.6778 45.1013 71.2085L45.9204 71.3091C45.2038 72.7784 44.4395 73.3368 43.741 73.251L42.9219 73.1505Z" fill="black"/>
<path d="M44.6442 66.5352C45.0286 67.2896 44.9402 68.5533 44.4062 69.6481L45.2254 69.7487C45.7593 68.6539 45.8477 67.3902 45.4633 66.6357L44.6442 66.5352Z" fill="black"/>
<path d="M45.545 64.5068C45.2243 63.8774 44.8825 63.6042 44.5312 63.561L45.3504 63.6616C45.7016 63.7047 46.0434 63.9779 46.3641 64.6074L45.545 64.5068Z" fill="black"/>
<path d="M45.1016 71.2096C46.0783 69.207 46.5247 66.4245 45.5468 64.5054L46.3659 64.6059C47.3438 66.5251 46.8974 69.3075 45.9207 71.3102L45.1016 71.2096Z" fill="black"/>
<path d="M45.5462 64.5055C46.5241 66.4247 46.0778 69.2071 45.101 71.2098C43.727 74.0269 42.178 73.4954 41.2524 71.496L42.2555 69.4665C42.6417 70.4336 43.5319 71.4229 44.398 69.6472C44.932 68.5524 45.0204 67.2887 44.636 66.5342C43.5502 64.4033 41.2957 71.1367 39.4816 67.5763C38.5037 65.6571 38.8728 63.1413 39.8366 61.1653C40.898 58.989 42.1992 58.4592 43.5489 61.2127L42.5263 63.2822C41.7696 61.6403 41.1119 61.4732 40.5194 62.6882C39.9984 63.7563 39.9956 64.9528 40.3665 65.6808C41.5197 67.9441 43.8333 61.1437 45.5462 64.5055Z" fill="white"/>
</svg>
