<svg width="142" height="116" viewBox="0 0 142 116" fill="none" xmlns="http://www.w3.org/2000/svg">
<path d="M50.1262 64.2644C40.9676 64.2644 32.3479 62.9631 25.8022 60.5951C18.7986 58.0708 14.9844 54.6291 14.9844 50.8994C14.9844 47.1698 18.7555 43.7885 25.6621 41.2997C32.1593 38.9318 40.7468 37.627 49.9053 37.627C59.0638 37.627 67.6836 38.9318 74.2131 41.2962C81.1789 43.8028 85.0201 47.2373 85.0309 50.9705C85.0417 54.7038 81.2597 58.1063 74.3477 60.6058C67.8775 62.9595 59.2739 64.2644 50.1262 64.2644Z" fill="#121411"/>
<path d="M89.7956 37.2271V46.2359C89.7956 50.2742 87.1305 54.3048 81.8312 57.3838C71.1668 63.5728 53.8146 63.5728 43.0806 57.3838C37.6923 54.27 34.9962 50.1814 35.0078 46.0967V37.0879C35.0078 41.1726 37.6884 45.2612 43.0767 48.3711C53.8107 54.5601 71.163 54.5601 81.8273 48.3711C87.1305 45.2921 89.784 41.2616 89.7956 37.2271Z" fill="#F7C800"/>
<g opacity="0.15">
<path d="M35.0234 37.123C35.0234 41.1923 37.7311 45.2654 43.0923 48.3715C53.8263 54.5604 71.1747 54.5604 81.839 48.3715C87.1422 45.277 89.7957 41.258 89.8034 37.2197V40.643C89.7377 44.631 87.0958 48.5997 81.8468 51.6362C71.1824 57.8251 53.834 57.8251 43.1 51.6362C37.7195 48.5339 35.0234 44.4724 35.0234 40.3916" fill="#544A00"/>
</g>
<path d="M81.7128 25.9079C92.4468 32.0969 92.5048 42.1539 81.8366 48.3429C71.1683 54.5318 53.8199 54.5318 43.0859 48.3429C32.352 42.1539 32.3133 32.0969 42.9815 25.9079C53.6497 19.7189 70.9981 19.7383 81.7128 25.9079Z" fill="#FEE425"/>
<path d="M62.505 51.6595C55.9293 51.6595 49.7403 50.2438 45.0406 47.6676C40.0121 44.9213 37.2734 41.1769 37.2734 37.1193C37.2734 33.0617 39.9811 29.3831 44.94 26.6754C49.6049 24.0993 55.7707 22.6797 62.3465 22.6797C68.9222 22.6797 75.1112 24.0993 79.7993 26.6716C84.8008 29.3986 87.5587 33.1352 87.5665 37.1967C87.5742 41.2582 84.8588 44.9599 79.896 47.6792C75.2504 50.2399 69.0731 51.6595 62.505 51.6595Z" fill="#141414"/>
<path d="M78.1705 46.2494C69.5601 51.2779 55.4571 51.2779 46.7538 46.2494C38.0506 41.2209 38.0197 33.0747 46.661 28.0693C55.3023 23.064 69.3745 23.0408 78.0777 28.0693C86.7809 33.0979 86.8119 41.2518 78.1705 46.2494Z" fill="#F7C800"/>
<g opacity="0.4">
<path d="M78.1667 46.2504C69.5563 51.2789 55.4532 51.2789 46.75 46.2504L78.0816 28.0703C86.7771 33.0756 86.808 41.2528 78.1667 46.2504Z" fill="white"/>
</g>
<path d="M63.1526 28.1036L65.4967 29.4574C67.864 30.8229 69.8947 32.1999 68.7846 33.8477L62.379 30.1614L58.9442 30.5482L66.9627 35.19C65.4967 36.0448 61.9845 36.6482 57.9036 34.2926L55.9348 33.1553L54.0007 34.2694L52.0938 44.5314L55.6215 46.566L57.6213 35.9636C61.1644 37.8087 66.1775 38.5475 69.9179 36.8997L72.44 38.3541L75.8748 37.9673L71.9564 35.6696C72.5541 35.2214 72.957 34.561 73.0821 33.8245L76.6717 35.8978L80.1065 35.511L66.6069 27.7168L63.1526 28.1036Z" fill="#544A00"/>
<path d="M78.2123 27.8433C73.9574 25.387 68.3254 24.0332 62.3531 24.0332C56.3807 24.0332 50.7488 25.387 46.5287 27.8433C42.3086 30.2995 39.9297 33.6029 39.9297 37.1267C39.9297 40.6506 42.3086 44.0081 46.6215 46.503C50.8764 48.9592 56.5122 50.3131 62.5039 50.3131C68.4956 50.3131 74.1082 48.9592 78.3167 46.503C82.5252 44.0467 84.9195 40.7318 84.9118 37.1963C84.9041 33.6609 82.5213 30.3111 78.2123 27.8433ZM78.0266 46.0233C73.9032 48.4332 68.3873 49.7599 62.4923 49.7599C56.5973 49.7599 51.0659 48.4216 46.8884 46.0233C42.7108 43.6251 40.4751 40.4765 40.4751 37.1267C40.4751 33.7769 42.7186 30.6825 46.7956 28.3229C50.9344 25.9131 56.4658 24.5902 62.3415 24.5902C68.2171 24.5902 73.7678 25.917 77.9338 28.3229C82.0997 30.7289 84.3316 33.8388 84.3316 37.1886C84.3316 40.5384 82.1074 43.6522 78.0266 46.0233Z" fill="#544A00"/>
<path d="M90.0712 37.2287C90.0712 37.2287 90.0712 37.1977 90.0712 37.1861C90.0712 32.8268 87.143 28.7421 81.8399 25.6824C76.6218 22.6691 69.6902 21.0059 62.3292 21.0059C54.9682 21.0059 48.0365 22.673 42.8339 25.6979C37.6314 28.7227 34.7109 32.7958 34.7109 37.1242V37.1552V46.0943C34.7109 50.4653 37.6197 54.5577 42.9229 57.6213C48.1564 60.6423 55.0958 62.3094 62.4645 62.3094C69.8333 62.3094 76.7533 60.6423 81.952 57.6213C87.1508 54.6003 90.0441 50.5465 90.0518 46.2375V37.2248L90.0712 37.2287ZM38.579 53.583C36.4168 51.3085 35.2679 48.7517 35.2757 46.0943V40.3425C35.9716 42.2458 37.1012 43.9608 38.5752 45.3517L38.579 53.583ZM44.0563 57.6252C43.77 57.4704 43.4838 57.3157 43.2053 57.1532C41.7326 56.3159 40.3652 55.3056 39.1322 54.1439V45.87C40.3039 46.9136 41.5807 47.8327 42.9423 48.6125C43.3059 48.8214 43.6772 49.0225 44.0563 49.2198V57.6252ZM49.5374 59.8841C47.8447 59.3611 46.1978 58.7 44.6133 57.9075V49.5021C46.2003 50.2775 47.8469 50.9242 49.5374 51.4362V59.8841ZM55.8346 61.2998C53.8926 61.0225 51.973 60.6063 50.0905 60.0543V51.5987C51.9738 52.1445 53.8933 52.5568 55.8346 52.8326V61.2998ZM62.1242 61.764C60.2059 61.7517 58.2903 61.6225 56.3878 61.3772V52.9022C58.2903 53.1476 60.2059 53.2768 62.1242 53.289V61.764ZM68.4137 61.3772C66.5127 61.6246 64.5982 61.7538 62.6812 61.764V53.2929C64.5977 53.287 66.5121 53.1643 68.4137 52.9254V61.3772ZM74.7109 60.0775C72.8299 60.6252 70.9114 61.035 68.9707 61.3037V52.8519C70.9103 52.5842 72.8285 52.1796 74.7109 51.6412V60.0775ZM80.192 57.9423C78.6073 58.7332 76.9604 59.393 75.268 59.9151V51.4787C76.9573 50.9635 78.6037 50.3169 80.192 49.5447V57.9423ZM85.6731 54.1941C84.4634 55.3334 83.122 56.3242 81.6774 57.1455C81.3718 57.3234 81.0662 57.4936 80.7491 57.66V49.2739C81.1668 49.0612 81.5768 48.8407 81.9714 48.6086C83.294 47.8505 84.5346 46.9573 85.6731 45.9435V54.1941ZM89.5026 46.2413C89.5026 48.8639 88.3421 51.3859 86.2263 53.6333V45.4329C87.6592 44.0801 88.7674 42.4204 89.4677 40.5784C89.4677 40.5436 89.4987 40.5088 89.5103 40.474L89.5026 46.2413ZM82.4588 47.6687C82.2073 47.8273 81.9559 47.982 81.6851 48.1367C81.4144 48.2914 81.1513 48.4345 80.8806 48.5815C75.852 51.2892 69.373 52.7475 62.4762 52.7475C55.2041 52.7475 48.3615 51.1113 43.213 48.1367C38.0646 45.1621 35.295 41.2708 35.2873 37.1242C35.2795 32.9776 38.0646 29.1134 43.1163 26.1775C48.2338 23.2029 55.061 21.5629 62.333 21.5629C69.6051 21.5629 76.4284 23.1991 81.5691 26.1659C86.7098 29.1327 89.5103 33.0356 89.518 37.1861C89.5219 41.0929 87.0386 44.7869 82.4588 47.6609V47.6687Z" fill="#544A00"/>
<path d="M89.8152 25.2174V34.2262C89.8152 38.2645 87.1539 42.2912 81.8546 45.374C71.1864 51.563 53.838 51.563 43.1001 45.374C37.7119 42.2602 35.0197 38.1716 35.0313 34.0869V25.0781C35.0313 29.1628 37.7119 33.2514 43.1001 36.3614C53.838 42.5503 71.1864 42.5503 81.8546 36.3614C87.1539 33.2824 89.8036 29.2518 89.8152 25.2174Z" fill="#F7C800"/>
<g opacity="0.15">
<path d="M35.0391 25.1328C35.0391 29.1982 37.7467 33.2752 43.1079 36.3774C53.838 42.5663 71.1864 42.5663 81.8547 36.3774C87.154 33.2829 89.8075 29.2639 89.8191 25.2295V28.6528C89.7572 32.6369 87.1114 36.6095 81.8663 39.6459C71.198 45.8349 53.8496 45.8349 43.1195 39.6459C37.7467 36.5514 35.0507 32.4745 35.0507 28.4014" fill="#544A00"/>
</g>
<path d="M81.7206 13.9171C92.4584 20.1061 92.5126 30.1631 81.8482 36.3521C71.1839 42.541 53.8316 42.541 43.0937 36.3521C32.3559 30.1631 32.325 20.1061 42.9893 13.9171C53.6537 7.72815 71.0059 7.72815 81.7206 13.9171Z" fill="#FEE425"/>
<path opacity="0.15" d="M62.5167 39.6517C55.941 39.6517 49.752 38.2321 45.0484 35.6598C40.0199 32.9135 37.2812 29.1692 37.2812 25.1115C37.2812 21.0539 39.9889 17.3753 44.9517 14.6677C49.5934 12.0954 55.7824 10.6758 62.3581 10.6758C68.9339 10.6758 75.1229 12.0954 79.811 14.6677C84.8125 17.3753 87.5743 21.1313 87.582 25.1928C87.5897 29.2543 84.8743 32.956 79.9116 35.6753C75.2621 38.2321 69.0848 39.6517 62.5167 39.6517Z" fill="#544A00"/>
<path d="M78.1862 34.2421C69.5758 39.2706 55.4727 39.2706 46.7695 34.2421C38.0662 29.2136 38.0353 21.0635 46.6766 16.062C55.318 11.0606 69.394 11.0335 78.0933 16.062C86.7927 21.0906 86.8275 29.2445 78.1862 34.2421Z" fill="#F7C800"/>
<g opacity="0.4">
<path d="M78.1823 34.2426C69.5719 39.2711 55.4688 39.2711 46.7656 34.2426L78.0972 16.0625C86.7927 21.064 86.8237 29.245 78.1823 34.2426Z" fill="white"/>
</g>
<path d="M78.2281 15.8257C73.9732 13.3656 68.3413 12.0156 62.3689 12.0156C56.3966 12.0156 50.7646 13.3656 46.5445 15.8257C42.3244 18.2858 39.9688 21.5814 39.9688 25.1091C39.9688 28.6368 42.3438 31.9905 46.6567 34.4815C50.9116 36.9417 56.5474 38.2916 62.5391 38.2916C68.5308 38.2916 74.1434 36.9417 78.3519 34.4815C82.6068 32.0176 84.9547 28.7142 84.9509 25.1788C84.947 21.6433 82.5372 18.2974 78.2281 15.8257ZM78.0424 34.0058C73.919 36.4156 68.4031 37.7424 62.5082 37.7424C56.6132 37.7424 51.0741 36.4156 46.9043 34.0058C42.7344 31.5959 40.4948 28.4589 40.4948 25.1091C40.4948 21.7594 42.7383 18.6649 46.8114 16.3053C50.9503 13.8955 56.4817 12.5688 62.3573 12.5688C68.2329 12.5688 73.7837 13.8955 77.9535 16.3053C82.1233 18.7152 84.3591 21.829 84.3629 25.1788C84.3668 28.5285 82.1233 31.6424 78.0424 34.0019V34.0058Z" fill="#544A00"/>
<path d="M90.0946 25.2189V25.1803C90.0946 20.8209 87.1665 16.7362 81.8672 13.6765C76.6452 10.6594 69.7175 9 62.3565 9C54.9955 9 48.0445 10.6672 42.8574 13.6881C37.6703 16.7091 34.7344 20.79 34.7344 25.1184C34.7344 25.1184 34.7344 25.1377 34.7344 25.1493V34.0885C34.7344 38.4594 37.6393 42.5519 42.9425 45.6154C48.1799 48.6364 55.1154 50.3036 62.488 50.3036C69.8606 50.3036 76.7767 48.6364 81.9755 45.6154C87.1742 42.5944 90.0637 38.5407 90.0753 34.2316V25.2189H90.0946ZM38.5986 41.5771C36.4363 39.3027 35.2875 36.7459 35.2952 34.0885V28.3366C35.9894 30.2455 37.1176 31.9669 38.5909 33.3652L38.5986 41.5771ZM44.0797 45.6038C43.7935 45.4491 43.5072 45.2944 43.2249 45.1319C41.7542 44.3055 40.388 43.3055 39.1556 42.1535V33.8641C40.325 34.9094 41.6022 35.8275 42.9657 36.6028C43.3254 36.8155 43.7006 37.0166 44.0797 37.21V45.6038ZM49.5608 47.8628C47.8682 47.3395 46.2214 46.6784 44.6367 45.8862V37.4886C46.2244 38.2622 47.8709 38.9089 49.5608 39.4226V47.8628ZM55.8581 49.2785C53.9155 49.0022 51.9957 48.5846 50.1139 48.0291V39.5928C51.9969 40.1392 53.9165 40.5502 55.8581 40.8229V49.2785ZM62.1476 49.7388C60.2293 49.7285 58.3135 49.5994 56.4112 49.352V40.8963C58.3137 41.1418 60.2294 41.2709 62.1476 41.2832V49.7388ZM68.4371 49.352C66.5363 49.6012 64.6217 49.7304 62.7046 49.7388V41.287C64.6215 41.2746 66.5359 41.1455 68.4371 40.9002V49.352ZM74.7305 48.0523C72.8503 48.5982 70.9332 49.008 68.9941 49.2785V40.8461C70.9324 40.5779 72.8492 40.1734 74.7305 39.6353V48.0523ZM80.2155 45.9171C78.6301 46.7067 76.9834 47.3665 75.2914 47.8899V39.4729C76.9811 38.9587 78.6275 38.312 80.2155 37.5388V45.9171ZM85.6966 42.169C84.4854 43.3066 83.1442 44.2972 81.7008 45.1203C81.3952 45.2982 81.0858 45.4684 80.7725 45.6348V37.2681C81.1864 37.0553 81.5964 36.8348 81.9948 36.6028C83.3172 35.8427 84.5577 34.9483 85.6966 33.9338V42.169ZM89.526 34.2161C89.526 36.8387 88.3656 39.3607 86.2497 41.6042V33.4193C87.6814 32.0654 88.7894 30.4061 89.4912 28.5648C89.4912 28.53 89.5183 28.4952 89.5337 28.4604L89.526 34.2161ZM82.4822 35.6551C82.2308 35.8137 81.9755 35.9684 81.7086 36.1231C81.4417 36.2778 81.1786 36.421 80.9079 36.5679C75.8793 39.2756 69.3964 40.7339 62.4996 40.7339C55.2314 40.7339 48.3888 39.0977 43.2365 36.1231C38.0841 33.1485 35.3185 29.265 35.3107 25.1338C35.303 21.0027 38.0841 17.123 43.1398 14.1871C48.2572 11.2126 55.0806 9.57248 62.3565 9.57248C69.6324 9.57248 76.4518 11.2048 81.5887 14.1717C86.7255 17.1385 89.5337 21.0453 89.5415 25.1957C89.5453 29.087 87.0465 32.7811 82.4822 35.6551Z" fill="#544A00"/>
<path d="M88.3502 25.9082L97.3629 25.9275C101.397 25.9275 105.428 28.5888 108.507 33.8881C114.696 44.5563 114.696 61.9047 108.507 72.6387C105.412 78.0308 101.308 80.723 97.2236 80.7114H88.2109C92.2956 80.7114 96.3842 78.0308 99.498 72.6387C105.687 61.9047 105.687 44.5563 99.498 33.8881C96.4152 28.5811 92.3885 25.9275 88.3502 25.9082Z" fill="#F7C800"/>
<g opacity="0.15">
<path d="M88.25 80.696C92.3192 80.696 96.373 77.9884 99.4984 72.6272C105.687 61.8932 105.687 44.5486 99.4984 33.8804C96.404 28.5811 92.385 25.9238 88.3506 25.916H91.77C95.758 25.9818 99.7266 28.6237 102.763 33.8727C108.952 44.5409 108.952 61.8855 102.763 72.6194C99.6686 77.9922 95.5955 80.6883 91.5185 80.6883" fill="#544A00"/>
</g>
<path d="M77.0558 34.0058C83.2447 23.268 93.3018 23.2138 99.4908 33.8782C105.68 44.5425 105.68 61.8948 99.4908 72.6288C93.3018 83.3627 83.2447 83.4014 77.0558 72.7332C70.8668 62.065 70.8668 44.7204 77.0558 34.0058Z" fill="#FEE425"/>
<path opacity="0.15" d="M102.781 53.2138C102.781 59.7895 101.365 65.9785 98.7887 70.6821C96.0424 75.6874 92.2981 78.4493 88.2404 78.4493C84.1828 78.4493 80.5042 75.7416 77.7966 70.7788C75.2204 66.1178 73.8047 59.9481 73.8047 53.3724C73.8047 46.7966 75.2204 40.6076 77.7966 35.9195C80.5042 30.9181 84.2563 28.1601 88.3178 28.1524C92.3793 28.1446 96.0849 30.86 98.8003 35.8228C101.365 40.4684 102.781 46.6457 102.781 53.2138Z" fill="#544A00"/>
<path d="M97.371 37.5438C102.4 46.1542 102.4 60.2612 97.371 68.9644C92.3425 77.6676 84.1924 77.6947 79.1909 69.0533C74.1895 60.412 74.1624 46.3399 79.1909 37.6366C84.2195 28.9334 92.3696 28.9025 97.371 37.5438Z" fill="#F7C800"/>
<g opacity="0.4">
<path d="M97.3754 37.5462C102.404 46.1566 102.404 60.2636 97.3754 68.9668L79.1953 37.6352C84.1968 28.9359 92.3739 28.9049 97.3754 37.5462Z" fill="white"/>
</g>
<path d="M78.9585 37.5102C76.5023 41.7651 75.1484 47.3971 75.1484 53.3694C75.1484 59.3418 76.5023 64.9737 78.9585 69.1938C81.4148 73.4139 84.7336 75.8044 88.242 75.8044C91.7503 75.8044 95.1233 73.4294 97.6182 69.1165C100.074 64.8615 101.428 59.2219 101.428 53.2302C101.428 47.2385 100.074 41.6259 97.6182 37.4174C95.162 33.2089 91.847 30.8184 88.3116 30.8223C84.7761 30.8261 81.4341 33.1934 78.9585 37.5102ZM97.1386 37.6997C99.5445 41.8193 100.871 47.3391 100.871 53.2302C100.871 59.1213 99.5445 64.6681 97.1347 68.8379C94.7249 73.0078 91.5879 75.2474 88.2381 75.2474C84.8883 75.2474 81.7938 73.0039 79.4343 68.9269C77.0748 64.8499 75.7016 59.2567 75.7016 53.381C75.7016 47.5054 77.0283 41.9585 79.4382 37.7887C81.848 33.6189 84.9579 31.3831 88.3077 31.3793C91.6575 31.3754 94.7906 33.6073 97.1386 37.6881V37.6997Z" fill="#544A00"/>
<path d="M88.3518 25.6387H88.3092C83.9499 25.6387 79.8651 28.5668 76.8055 33.8661C73.7922 39.088 72.1328 46.0158 72.1328 53.3768C72.1328 60.7378 73.7961 67.6888 76.821 72.8759C79.8458 78.063 83.9189 80.9989 88.2512 80.9796H88.2821L97.2213 80.9989C101.588 80.9989 105.685 78.094 108.744 72.7869C111.765 67.5534 113.433 60.614 113.433 53.2453C113.433 45.8766 111.765 38.9565 108.744 33.7578C105.723 28.5591 101.673 25.6696 97.3606 25.658L88.3518 25.6387ZM104.71 77.1308C102.432 79.2969 99.8748 80.4458 97.2213 80.438H91.4694C93.371 79.741 95.0846 78.6114 96.4748 77.1385L104.71 77.1308ZM108.733 71.6536C108.578 71.9398 108.427 72.2261 108.261 72.5046C107.429 73.9771 106.424 75.3445 105.267 76.5777H96.9931C98.0409 75.4094 98.9603 74.132 99.7356 72.7676C99.9444 72.4079 100.146 72.0326 100.343 71.6536H108.733ZM110.996 66.1725C110.471 67.8652 109.809 69.512 109.015 71.0966H100.621C101.393 69.5081 102.04 67.8617 102.555 66.1725H110.996ZM112.407 59.8752C112.131 61.8173 111.714 63.737 111.162 65.6193H102.722C103.268 63.736 103.68 61.8166 103.956 59.8752H112.407ZM112.872 53.5857C112.858 55.5038 112.728 57.4194 112.485 59.3221H104.025C104.271 57.4196 104.4 55.5039 104.412 53.5857H112.872ZM112.485 47.2962C112.732 49.1972 112.861 51.1117 112.872 53.0287H104.42C104.407 51.1118 104.278 49.1974 104.033 47.2962H112.485ZM111.193 40.9912C111.741 42.8722 112.153 44.7907 112.423 46.7314H103.975C103.707 44.7919 103.302 42.8737 102.764 40.9912H111.193ZM109.062 35.5101C109.852 37.0979 110.511 38.7472 111.034 40.4419H102.602C102.088 38.752 101.442 37.1055 100.668 35.5178L109.062 35.5101ZM105.31 30.029C106.449 31.2396 107.44 32.5823 108.261 34.0286C108.439 34.3342 108.609 34.6436 108.775 34.9569H100.397C100.184 34.5392 99.9638 34.133 99.7356 33.7346C98.9752 32.4124 98.0808 31.172 97.0666 30.0328L105.31 30.029ZM97.3567 26.1996C99.9793 26.1996 102.501 27.36 104.749 29.4758H96.5483C95.1946 28.0457 93.5351 26.9402 91.6938 26.2421L91.5894 26.1996H97.3567ZM98.784 33.255C98.9426 33.5064 99.1012 33.7617 99.2521 34.0286C99.4029 34.2955 99.5538 34.5585 99.7008 34.8293C102.389 39.8578 103.867 46.3369 103.867 53.2376C103.867 60.5057 102.227 67.3484 99.2521 72.4968C96.2775 77.6453 92.3939 80.4226 88.2473 80.4303C84.1007 80.438 80.2365 77.6569 77.3006 72.6013C74.326 67.4838 72.686 60.6566 72.686 53.3845C72.686 46.1125 74.3222 39.2892 77.289 34.1524C80.2558 29.0155 84.1587 26.2073 88.3092 26.1996C92.216 26.1879 95.91 28.6867 98.784 33.255Z" fill="#544A00"/>
<path d="M68.4284 26.486C69.2089 25.9122 69.6275 25.2107 69.6276 24.4614C69.6278 23.4847 68.9185 22.5513 67.6797 21.836C64.6467 20.085 60.2078 20.5452 57.1706 22.2987C56.3273 22.7856 55.609 23.3498 55.0988 23.9576C54.5894 24.5643 54.2743 25.2309 54.2742 25.9157C54.2741 26.8728 54.8849 27.7666 56.1747 28.5112C58.4522 29.8261 61.5372 29.9354 64.1714 28.8233L64.6242 28.6322L64.1985 28.3864L60.7842 26.4152L62.6728 25.3248L69.4434 29.2338L61.5246 33.8057L59.5721 32.6784L62.2962 31.1057L62.1258 30.6543C59.1179 31.2581 55.8767 31.044 53.2421 29.5229C51.3634 28.4382 50.3697 27.0273 50.3694 25.5909C50.3692 24.1155 51.4177 22.4924 53.9148 21.0507C56.3918 19.6206 59.392 18.8894 62.3204 18.8321C65.25 18.7747 68.0883 19.392 70.245 20.6372C72.2836 21.8142 73.3393 23.3774 73.3395 24.8365C73.3396 25.9913 72.68 27.1523 71.1831 28.0765L68.4284 26.486Z" fill="#141414" stroke="#141414" stroke-width="0.488895"/>
<path d="M54.0413 20.4247V19.8227C56.4944 18.4386 59.4442 17.7303 62.3246 17.6739C65.1992 17.6176 67.9859 18.2109 70.1271 19.4095V20.0134C67.9294 18.8512 65.1517 18.29 62.315 18.3455C59.4588 18.4014 56.5252 19.0829 54.0413 20.4247Z" fill="#141414" stroke="#141414" stroke-width="0.488895" stroke-linejoin="round"/>
<path d="M67.3171 21.6401C64.4257 20.1875 60.4362 20.5793 57.5413 22.0985V21.494C60.4223 19.8853 64.5148 19.4928 67.3171 21.0318V21.6401Z" fill="#141414" stroke="#141414" stroke-width="0.488895" stroke-linejoin="round"/>
<path d="M70.6194 19.6998C71.9902 20.5743 72.8561 21.6309 73.1904 22.6901C72.6457 21.7995 71.7706 20.9719 70.6194 20.286V19.6998Z" fill="#141414" stroke="#141414" stroke-width="0.488895" stroke-linejoin="round"/>
<path d="M53.5482 20.7017C52.1163 21.5474 51.1154 22.4798 50.5251 23.4442C50.8751 22.3312 51.8309 21.178 53.5482 20.1127V20.7017Z" fill="#141414" stroke="#141414" stroke-width="0.488895" stroke-linejoin="round"/>
<path d="M67.8069 21.33C68.6053 21.8736 69.0274 22.4793 69.1227 23.0513C68.8128 22.6364 68.3681 22.25 67.8069 21.9097V21.33Z" fill="#141414" stroke="#141414" stroke-width="0.488895" stroke-linejoin="round"/>
<path d="M55.0958 23.9592C54.9919 24.0829 54.8961 24.2091 54.8094 24.3374C54.9026 23.9352 55.1264 23.5226 55.4702 23.1131C55.8618 22.6466 56.3998 22.1958 57.0453 21.7854V22.3719C56.2548 22.8422 55.5812 23.381 55.0958 23.9592Z" fill="#141414" stroke="#141414" stroke-width="0.488895" stroke-linejoin="round"/>
<path d="M69.1268 24.6658C69.0628 25.1304 68.7759 25.6061 68.2132 26.0397V25.4777C68.5908 25.2316 68.897 24.9586 69.1268 24.6658Z" fill="#141414" stroke="#141414" stroke-width="0.488895" stroke-linejoin="round"/>
<path d="M60.5413 25.9944V25.3985L62.4299 24.3082V24.9041L60.5413 25.9944Z" fill="#141414" stroke="#141414" stroke-width="0.488895" stroke-linejoin="round"/>
<path d="M73.2257 25.664C72.9966 26.4694 72.4193 27.2491 71.4319 27.9182V27.3396C72.23 26.8484 72.827 26.2798 73.2257 25.664Z" fill="#141414" stroke="#141414" stroke-width="0.488895" stroke-linejoin="round"/>
<path d="M56.0495 27.8594C55.2506 27.3178 54.8749 26.7468 54.783 26.1945C55.0755 26.5799 55.4957 26.944 56.0495 27.2791V27.8594Z" fill="#141414" stroke="#141414" stroke-width="0.488895" stroke-linejoin="round"/>
<path d="M69.6947 28.2172V28.8131L62.9241 24.9041V24.3082L69.6947 28.2172Z" fill="#141414" stroke="#141414" stroke-width="0.488895" stroke-linejoin="round"/>
<path d="M68.2132 25.7671L70.9435 27.3435V27.9394L68.2132 26.363V25.7671Z" fill="#141414" stroke="#141414" stroke-width="0.488895" stroke-linejoin="round"/>
<path d="M60.5413 25.6793L63.8334 27.5799V28.1758L60.5413 26.2752V25.6793Z" fill="#141414" stroke="#141414" stroke-width="0.488895" stroke-linejoin="round"/>
<path d="M52.8755 29.3011C51.6193 28.4963 50.818 27.5354 50.5112 26.5281C51.0229 27.3481 51.8304 28.092 52.8755 28.7153V29.3011Z" fill="#141414" stroke="#141414" stroke-width="0.488895" stroke-linejoin="round"/>
<path d="M56.5413 28.1582V27.5502C58.6754 28.6247 61.4161 28.7118 63.8318 27.8001V28.4359C61.4042 29.4097 58.6173 29.2996 56.5413 28.1582Z" fill="#141414" stroke="#141414" stroke-width="0.488895" stroke-linejoin="round"/>
<path d="M53.3694 28.9897C55.9754 30.3555 59.0648 30.5553 61.9346 30.0313V30.6945C59.029 31.2414 55.924 31.0202 53.3694 29.5943V28.9897Z" fill="#141414" stroke="#141414" stroke-width="0.488895" stroke-linejoin="round"/>
<path d="M61.7757 33.6654V33.0695L69.6944 28.4976V29.0935L61.7757 33.6654Z" fill="#141414" stroke="#141414" stroke-width="0.488895" stroke-linejoin="round"/>
<path d="M59.3304 32.2558V31.6599L61.9322 30.1578V30.7537L59.3304 32.2558Z" fill="#141414" stroke="#141414" stroke-width="0.488895" stroke-linejoin="round"/>
<path d="M59.3304 31.941L61.2829 33.0683V33.6642L59.3304 32.5369V31.941Z" fill="#141414" stroke="#141414" stroke-width="0.488895" stroke-linejoin="round"/>
<path d="M60.2948 25.2551L62.6723 23.8825L69.9318 28.0737L61.5242 32.9279L59.0827 31.5183L62.1734 29.7339C59.1263 30.3456 55.8201 30.1338 53.1194 28.5746C49.2304 26.3292 48.7994 22.5615 53.7921 19.6789C58.8281 16.7714 65.9592 16.7208 70.3667 19.2655C74.1477 21.4484 74.8165 25.054 71.1854 27.2003L67.9662 25.3416C70.0195 24.0813 69.804 22.185 67.557 20.8877C64.6186 19.1912 60.275 19.6283 57.2923 21.3504C54.5042 22.9601 53.2285 25.3681 56.2965 27.1394C58.5002 28.4118 61.5039 28.5238 64.0758 27.4381L60.2948 25.2551Z" fill="white"/>
<path d="M89.8304 46.0065C89.3916 45.5031 88.9013 45.1698 88.3847 45.0178C87.7702 44.837 87.1419 44.9199 86.5599 45.2424C85.956 45.577 85.4082 46.165 84.961 46.9717C83.2591 50.0421 83.9768 54.3669 85.9904 57.2426C86.6944 58.2481 87.5197 59.0545 88.3848 59.4984C89.2565 59.9456 90.1831 60.0293 91.0426 59.553C91.6146 59.236 92.134 58.6827 92.5825 57.8736C93.8602 55.5687 93.8175 52.5377 92.5028 50.0181L92.2926 49.6152L92.0723 50.0126L90.1453 53.489L88.8827 51.6858L92.6829 44.83L97.9394 52.337L96.8363 54.3269L95.0137 51.7239L94.5776 51.9284C95.3696 54.8319 95.3092 58.0073 93.8367 60.6638C93.1795 61.8494 92.3643 62.7105 91.4704 63.2062C90.4782 63.7563 89.376 63.8644 88.2456 63.4504C87.1085 63.034 85.9245 62.082 84.8012 60.4777C81.5147 55.7841 81.1095 48.9136 83.5277 44.5511C84.2413 43.2638 85.1408 42.3361 86.0976 41.8056C87.0025 41.3038 87.9593 41.156 88.8751 41.3899C89.7565 41.6151 90.6234 42.2 91.3804 43.2101L89.8304 46.0065Z" fill="#141414" stroke="#141414" stroke-width="0.488895"/>
<path d="M88.0768 63.9085C88.5093 64.067 88.94 64.1571 89.364 64.1825C88.6793 64.3292 87.9609 64.2797 87.2306 64.0122C86.1467 63.6153 85.0202 62.7318 83.9443 61.2606L84.5284 60.9368C85.6529 62.4893 86.8637 63.4641 88.0768 63.9085Z" fill="#141414" stroke="#141414" stroke-width="0.488895" stroke-linejoin="round"/>
<path d="M83.6609 60.8582C80.5041 56.1926 80.1283 49.4831 82.4785 45.1738L82.7353 45.0315C80.669 49.4997 81.1723 55.9596 84.2466 60.5336L83.6609 60.8582Z" fill="#141414" stroke="#141414" stroke-width="0.488895" stroke-linejoin="round"/>
<path d="M88.381 59.4976C88.7244 59.6738 89.0763 59.7935 89.4293 59.8449C88.8454 60.0392 88.2222 59.9499 87.5892 59.6252C86.8783 59.2604 86.1681 58.6028 85.5311 57.7445L86.1149 57.4209C86.79 58.3429 87.5679 59.0804 88.381 59.4976Z" fill="#141414" stroke="#141414" stroke-width="0.488895" stroke-linejoin="round"/>
<path d="M85.8355 57.016L85.2495 57.3409C83.4223 54.5978 82.8263 50.6294 84.3379 47.8299L84.6184 47.6745C83.4052 50.5921 84.0839 54.3628 85.8355 57.016Z" fill="#141414" stroke="#141414" stroke-width="0.488895" stroke-linejoin="round"/>
<path d="M93.2112 61.5258L93.3379 61.4556C93.2161 61.6278 93.0904 61.7906 92.9611 61.9438C93.0469 61.8088 93.1303 61.6694 93.2112 61.5258Z" fill="#141414" stroke="#141414" stroke-width="0.488895" stroke-linejoin="round"/>
<path d="M91.5301 58.4966L91.5844 58.4666C91.5499 58.5067 91.5153 58.5454 91.4805 58.5826C91.4971 58.5543 91.5137 58.5256 91.5301 58.4966Z" fill="#141414" stroke="#141414" stroke-width="0.488895" stroke-linejoin="round"/>
<path d="M89.2267 54.1901L87.9341 52.344L88.5191 52.0197L89.8117 53.8658L89.2267 54.1901Z" fill="#141414" stroke="#141414" stroke-width="0.488895" stroke-linejoin="round"/>
<path d="M85.0406 46.8269C85.0243 46.8546 85.0081 46.8826 84.992 46.9109L84.9403 46.9395C84.9735 46.9008 85.0069 46.8633 85.0406 46.8269Z" fill="#141414" stroke="#141414" stroke-width="0.488895" stroke-linejoin="round"/>
<path d="M83.0013 44.3232C83.1342 44.1329 83.2715 43.953 83.4128 43.7838C83.3165 43.9343 83.2229 44.0899 83.1324 44.2506L83.0013 44.3232Z" fill="#141414" stroke="#141414" stroke-width="0.488895" stroke-linejoin="round"/>
<path d="M89.9836 53.7676L89.7755 53.8829L91.4449 50.8713L91.6529 50.756L89.9836 53.7676Z" fill="#141414" stroke="#141414" stroke-width="0.488895" stroke-linejoin="round"/>
<path d="M91.5976 50.7913L92.1844 50.4661C93.3083 52.7859 93.31 55.5013 92.1906 57.5734L91.9109 57.7284C92.7981 55.6014 92.683 53.0148 91.5976 50.7913Z" fill="#141414" stroke="#141414" stroke-width="0.488895" stroke-linejoin="round"/>
<path d="M87.1235 45.5216C87.4971 45.3886 87.8766 45.3774 88.2473 45.4865C88.669 45.6105 89.097 45.8958 89.498 46.3686L88.9182 46.69C88.4539 46.1187 87.9275 45.744 87.3704 45.5801C87.2883 45.5559 87.206 45.5364 87.1235 45.5216Z" fill="#141414" stroke="#141414" stroke-width="0.488895" stroke-linejoin="round"/>
<path d="M93.8659 60.6019L93.6046 60.7468C94.7714 58.169 94.7771 55.2344 94.0795 52.5472L94.6524 52.2297C95.3539 55.0276 95.2557 58.05 93.8659 60.6019Z" fill="#141414" stroke="#141414" stroke-width="0.488895" stroke-linejoin="round"/>
<path d="M91.8219 45.1115L92.0299 44.9962L88.4132 51.5208L88.2052 51.6362L91.8219 45.1115Z" fill="#141414" stroke="#141414" stroke-width="0.488895" stroke-linejoin="round"/>
<path d="M88.872 41.3899C89.725 41.6078 90.5643 42.1626 91.3037 43.1137L90.7212 43.4366C89.9178 42.3807 88.9745 41.7336 87.9788 41.479C87.7377 41.4174 87.4949 41.3791 87.2518 41.3634C87.7936 41.2469 88.3397 41.254 88.872 41.3899Z" fill="#141414" stroke="#141414" stroke-width="0.488895" stroke-linejoin="round"/>
<path d="M89.6867 46.2628L89.4787 46.3781L90.8335 43.9338L91.0416 43.8185L89.6867 46.2628Z" fill="#141414" stroke="#141414" stroke-width="0.488895" stroke-linejoin="round"/>
<path d="M95.9179 55.0288L94.1528 52.508L94.7378 52.1838L96.5029 54.7045L95.9179 55.0288Z" fill="#141414" stroke="#141414" stroke-width="0.488895" stroke-linejoin="round"/>
<path d="M96.6789 54.6062L96.4708 54.7215L97.3903 53.0627L97.5983 52.9474L96.6789 54.6062Z" fill="#141414" stroke="#141414" stroke-width="0.488895" stroke-linejoin="round"/>
<path d="M97.8681 52.2395L97.2831 52.5638L91.9966 45.0139L92.5816 44.6896L97.8681 52.2395Z" fill="#141414" stroke="#141414" stroke-width="0.488895" stroke-linejoin="round"/>
<path d="M89.1538 54.5111L87.5792 52.2623L91.6431 44.9308L97.2116 52.8834L95.8448 55.349L93.7978 52.4256C94.6013 55.3714 94.5467 58.6163 93.0348 61.3438C90.8577 65.2714 86.892 65.9019 83.5853 61.1794C80.2499 56.416 79.8309 49.4453 82.2982 44.994C84.4149 41.1755 88.1967 40.3215 90.6544 43.7533L88.8522 47.0045C87.4131 45.0665 85.4171 45.3824 84.1592 47.6517C82.5142 50.6192 83.1995 54.8426 85.1749 57.6638C87.0215 60.3011 89.6356 61.415 91.3531 58.3166C92.5868 56.0909 92.5513 53.1474 91.2704 50.6926L89.1538 54.5111Z" fill="white"/>
</svg>
