<svg width="142" height="116" viewBox="0 0 142 116" fill="none" xmlns="http://www.w3.org/2000/svg">
<path d="M78.3287 92.0778C71.465 92.0778 65.005 90.7956 60.0995 88.4623C54.8507 85.9748 51.9922 82.5835 51.9922 78.9084C51.9922 75.2333 54.8184 71.9015 59.9945 69.4491C64.8637 67.1158 71.2995 65.8301 78.1632 65.8301C85.0269 65.8301 91.4869 67.1158 96.3804 69.4456C101.601 71.9155 104.48 75.2999 104.488 78.9785C104.496 82.6571 101.661 86.0099 96.4813 88.4728C91.6323 90.792 85.1844 92.0778 78.3287 92.0778Z" fill="#121411"/>
<path d="M93.6544 85.2484C85.7551 89.8617 72.8131 89.8617 64.8287 85.2484C56.8442 80.6352 56.8194 73.1582 64.7435 68.5698C72.6677 63.9814 85.5847 63.9565 93.5692 68.5698C101.554 73.183 101.578 80.6636 93.6544 85.2484Z" fill="#F7C800"/>
<g opacity="0.4">
<path d="M93.6538 85.2451C85.7545 89.8583 72.8126 89.8583 64.8281 85.2451L93.5722 68.5664C101.553 73.1548 101.578 80.6602 93.6538 85.2451Z" fill="white"/>
</g>
<path d="M79.8643 68.6015L82.0148 69.8435C84.183 71.0962 86.0461 72.3595 85.0276 73.8712L79.1546 70.4787L76.0034 70.8336L83.3598 75.092C82.0113 75.8762 78.7891 76.4298 75.0488 74.2687L73.2426 73.2254L71.4682 74.2474L69.7188 83.6619L72.9551 85.5285L74.772 75.7804C78.0261 77.4731 82.6252 78.1509 86.0567 76.6356L88.3704 77.9735L91.5217 77.6186L87.9056 75.532C88.4558 75.122 88.8268 74.5158 88.9418 73.8393L92.2314 75.7378L95.3826 75.3829L83.0013 68.2324L79.8643 68.6015Z" fill="#544A00"/>
<path d="M93.6835 68.3528C89.78 66.0959 84.6131 64.8574 79.134 64.8574C73.6549 64.8574 68.4881 66.0959 64.6165 68.3528C60.7449 70.6098 58.5625 73.6332 58.5625 76.8696C58.5625 80.106 60.7414 83.1826 64.6981 85.468C68.6016 87.7249 73.7756 88.9634 79.2689 88.9634C84.7622 88.9634 89.9148 87.7249 93.7793 85.468C97.6438 83.211 99.8333 80.1769 99.8297 76.9299C99.8262 73.6829 97.6331 70.6204 93.6835 68.3528ZM93.5096 85.0315C89.7303 87.2423 84.6664 88.4595 79.2582 88.4595C73.8501 88.4595 68.7684 87.2423 64.943 85.0315C61.1175 82.8207 59.0629 79.9427 59.0629 76.8696C59.0629 73.7965 61.1211 70.9576 64.8614 68.7929C68.6016 66.6282 73.733 65.3649 79.1234 65.3649C84.5138 65.3649 89.6025 66.5821 93.428 68.7929C97.2534 71.0037 99.3045 73.8604 99.3081 76.9335C99.3116 80.0066 97.2534 82.8633 93.5096 85.0279V85.0315Z" fill="#544A00"/>
<path d="M104.322 65.9539V74.2187C104.322 77.92 101.877 81.6177 97.0154 84.4424C87.2318 90.1202 71.3161 90.1202 61.465 84.4424C56.5217 81.6035 54.0519 77.8383 54.0625 74.091V65.8262C54.0625 69.5735 56.5217 73.3245 61.465 76.1776C71.3161 81.8554 87.2318 81.8554 97.0154 76.1776C101.877 73.36 104.311 69.6552 104.322 65.9539Z" fill="#F7C800"/>
<g opacity="0.15">
<path d="M54.0781 65.8613C54.0781 69.591 56.5622 73.3135 61.4842 76.1773C71.3281 81.8551 87.2438 81.8551 97.031 76.1773C101.893 73.3383 104.327 69.6513 104.334 65.95V69.0906C104.274 72.7457 101.85 76.3866 97.0381 79.1759C87.2509 84.8537 71.3352 84.8537 61.4913 79.1759C56.5586 76.3369 54.0852 72.5967 54.0852 68.8564" fill="#544A00"/>
</g>
<path d="M96.9103 55.5852C106.758 61.263 106.811 70.4895 97.0238 76.1673C87.2367 81.8452 71.3245 81.8452 61.4735 76.1673C51.6224 70.4895 51.594 61.263 61.3777 55.5852C71.1613 49.9073 87.0805 49.9109 96.9103 55.5852Z" fill="#FEE425"/>
<path opacity="0.15" d="M79.2807 79.1923C73.2479 79.1923 67.5701 77.8899 63.2585 75.5301C58.6453 73.0106 56.1328 69.5719 56.1328 65.8529C56.1328 62.134 58.6169 58.7556 63.1698 56.2716C67.4282 53.9117 73.106 52.6094 79.1387 52.6094C85.1714 52.6094 90.8493 53.9117 95.1502 56.2716C99.7386 58.7556 102.272 62.2014 102.276 65.9275C102.279 69.6535 99.7919 73.0496 95.2425 75.5407C90.977 77.8899 85.3063 79.1923 79.2807 79.1923Z" fill="#544A00"/>
<path d="M93.66 74.2328C85.7607 78.846 72.8223 78.846 64.8378 74.2328C56.8534 69.6195 56.825 62.1425 64.7527 57.5541C72.6803 52.9657 85.5903 52.9409 93.5748 57.5541C101.559 62.1674 101.573 69.6444 93.66 74.2328Z" fill="#F7C800"/>
<g opacity="0.4">
<path d="M93.6581 74.2333C85.7588 78.8466 72.8204 78.8466 64.8359 74.2333L93.58 57.5547C101.572 62.1431 101.572 69.6449 93.6581 74.2333Z" fill="white"/>
</g>
<path d="M79.88 57.5857L82.034 58.8277C84.2022 60.0804 86.0653 61.3402 85.0468 62.8554L79.1702 59.4629L76.019 59.8178L83.3789 64.0762C82.0304 64.8569 78.8083 65.4105 75.068 63.2529L73.2582 62.1883L71.4839 63.2139L69.7344 72.6284L72.9707 74.495L74.7912 64.7469C78.0418 66.436 82.6408 67.1174 86.0759 65.6021L88.4038 66.9719L91.555 66.617L87.9389 64.5269C88.4878 64.1172 88.8587 63.5126 88.9752 62.8377L92.2647 64.7362L95.416 64.3814L83.0312 57.2344L79.88 57.5857Z" fill="#544A00"/>
<path d="M93.7014 57.3333C89.7979 55.0799 84.6311 53.8379 79.1519 53.8379C73.6728 53.8379 68.506 55.0799 64.6344 57.3333C60.7628 59.5867 58.5804 62.6172 58.6017 65.8501C58.623 69.0829 60.7806 72.1631 64.7373 74.4484C68.6408 76.7018 73.8112 77.9439 79.3081 77.9439C84.8049 77.9439 89.954 76.7018 93.815 74.4484C97.6759 72.1951 99.8725 69.1574 99.869 65.9104C99.8654 62.6634 97.6688 59.6044 93.7014 57.3333ZM93.5311 74.012C89.7482 76.2228 84.6878 77.44 79.2797 77.44C73.8716 77.44 68.7863 76.2228 64.9644 74.012C61.1425 71.8011 59.0843 68.9232 59.0808 65.8501C59.0772 62.7769 61.139 59.9345 64.8793 57.7733C68.6763 55.5625 73.7509 54.3453 79.1413 54.3453C84.5317 54.3453 89.624 55.5625 93.4459 57.7733C97.2678 59.9841 99.326 62.8408 99.3296 65.9104C99.3331 68.98 97.2749 71.8473 93.5311 74.012Z" fill="#544A00"/>
<path d="M104.585 65.953V65.9069C104.585 61.9111 101.899 58.1637 97.0372 55.3567C92.2465 52.5888 85.8873 51.0664 79.1378 51.0664C72.3883 51.0664 66.0078 52.5923 61.249 55.3674C56.4903 58.1424 53.7969 61.8827 53.7969 65.8536V65.9069V74.1078C53.7969 78.1178 56.4619 81.8722 61.3271 84.6792C66.132 87.4543 72.4947 88.9802 79.2549 88.9802C86.0151 88.9802 92.3636 87.4543 97.133 84.6792C101.902 81.9042 104.557 78.1923 104.567 74.2355V65.9707L104.585 65.953ZM57.342 80.9602C55.3583 78.8736 54.3043 76.528 54.3114 74.09V68.8132C54.9495 70.5576 55.9846 72.1297 57.3349 73.4052L57.342 80.9602ZM62.3669 84.6544C62.1043 84.5089 61.8417 84.3705 61.5862 84.2214C60.2363 83.4556 58.9819 82.5324 57.8494 81.4712V73.8807C58.9226 74.8403 60.0942 75.6837 61.3449 76.3967C61.6784 76.5883 62.0191 76.7728 62.3669 76.9538V84.6544ZM67.3953 86.7268C65.8475 86.2455 64.3415 85.6391 62.8921 84.9134V77.2093C64.3477 77.9185 65.857 78.5118 67.4059 78.9836L67.3953 86.7268ZM73.1831 88.0221C71.4023 87.7697 69.6422 87.3878 67.917 86.8794V79.1398C69.6435 79.6397 71.4033 80.0168 73.1831 80.2682V88.0221ZM78.9533 88.4479C77.1946 88.4367 75.4383 88.3182 73.6942 88.093V80.3357C75.4384 80.5607 77.1946 80.6792 78.9533 80.6905V88.4479ZM84.7234 88.093C82.9805 88.3199 81.2253 88.4384 79.4678 88.4479V80.6941C81.2252 80.6828 82.9804 80.5643 84.7234 80.3392V88.093ZM90.5006 86.9007C88.7756 87.4014 87.0168 87.7774 85.2379 88.0256V80.286C87.0163 80.0429 88.775 79.6729 90.5006 79.1788V86.9007ZM95.529 84.9418C94.0757 85.6677 92.5647 86.2719 91.0116 86.7481V79.0369C92.5627 78.5679 94.0734 77.9746 95.529 77.2625V84.9418ZM100.557 81.4996C99.4487 82.5472 98.218 83.4574 96.8917 84.2108C96.6149 84.374 96.331 84.5302 96.0436 84.6828V77.007C96.4233 76.8083 96.7994 76.6096 97.1649 76.3967C98.3776 75.7003 99.5145 74.8797 100.557 73.9481V81.4996ZM104.071 74.2072C104.071 76.6131 103.006 78.9269 101.068 80.9851V73.4761C102.381 72.2331 103.397 70.7111 104.042 69.0226C104.042 68.9871 104.067 68.9587 104.078 68.9232L104.071 74.2072ZM97.6121 75.5166C97.3814 75.6586 97.1472 75.804 96.9023 75.9424C96.6575 76.0808 96.4126 76.2192 96.1642 76.3541C91.551 78.8204 85.607 80.176 79.2797 80.176C72.6083 80.176 66.3343 78.6749 61.6075 75.946C56.8807 73.2171 54.3363 69.6542 54.3327 65.8501C54.3292 62.0459 56.8771 58.5008 61.5116 55.8039C66.21 53.0749 72.4699 51.5739 79.1449 51.5739C85.8199 51.5739 92.0726 53.0714 96.7888 55.7932C101.505 58.515 104.056 62.1063 104.074 65.9069C104.081 69.4981 101.785 72.8906 97.6014 75.5273L97.6121 75.5166Z" fill="#544A00"/>
<path d="M104.341 54.9348V63.2031C104.341 66.9043 101.896 70.602 97.0346 73.4268C87.2474 79.1046 71.3317 79.1046 61.4842 73.4268C56.5409 70.5878 54.0675 66.8227 54.0782 63.0754V54.8105C54.0782 58.5544 56.5409 62.3053 61.4842 65.162C71.3317 70.8398 87.2474 70.8398 97.0346 65.162C101.896 62.3372 104.331 58.6395 104.341 54.9348Z" fill="#F7C800"/>
<g opacity="0.15">
<path d="M54.0781 54.8477C54.0781 58.5773 56.5622 62.2998 61.4806 65.1636C71.3281 70.8414 87.2438 70.8414 97.0274 65.1636C101.889 62.3247 104.327 58.6376 104.334 54.9364V58.0769C104.274 61.732 101.85 65.373 97.0345 68.1622C87.2509 73.84 71.3352 73.84 61.4877 68.1622C56.5586 65.3233 54.0852 61.583 54.0852 57.8427" fill="#544A00"/>
</g>
<path d="M96.9224 44.5695C106.773 50.2474 106.827 59.4739 97.0395 65.1517C87.2523 70.8296 71.3366 70.8296 61.4891 65.1517C51.6416 59.4739 51.6061 50.2474 61.3933 44.5695C71.1805 38.8917 87.0926 38.8953 96.9224 44.5695Z" fill="#FEE425"/>
<path d="M79.2885 68.1786C73.2558 68.1786 67.5779 66.8763 63.2663 64.5129C58.6708 62.004 56.1406 58.5582 56.1406 54.8393C56.1406 51.1203 58.6247 47.742 63.1776 45.2579C67.4573 42.8981 73.1138 41.5957 79.1465 41.5957C85.1792 41.5957 90.8571 42.8945 95.158 45.2579C99.7464 47.742 102.277 51.1877 102.284 54.9138C102.291 58.6399 99.7997 62.0359 95.2467 64.5271C90.9813 66.8763 85.3141 68.1786 79.2885 68.1786Z" fill="#141414"/>
<path d="M93.6756 63.2172C85.7763 67.8304 72.8379 67.8304 64.8535 63.2172C56.869 58.6039 56.8406 51.1269 64.7683 46.5385C72.696 41.9501 85.606 41.9253 93.5904 46.5385C101.575 51.1518 101.603 58.6288 93.6756 63.2172Z" fill="#F7C800"/>
<g opacity="0.4">
<path d="M93.6737 63.2177C85.7744 67.831 72.836 67.831 64.8516 63.2177L93.5956 46.5391C101.573 51.1275 101.601 58.6293 93.6737 63.2177Z" fill="white"/>
</g>
<path d="M79.897 46.5706L82.0546 47.8091C84.2228 49.0617 86.0859 50.3251 85.0674 51.8403L79.1944 48.4478L76.0432 48.8027L83.3995 53.0611C82.0546 53.8418 78.8324 54.3954 75.0886 52.2342L73.2823 51.1909L71.508 52.2165L69.7656 61.6488L73.002 63.5189L74.8189 53.7708C78.073 55.46 82.6721 56.1378 86.1036 54.626L88.4173 55.9603L91.5685 55.6055L87.9525 53.5153C88.5019 53.1061 88.8729 52.5013 88.9887 51.8261L92.2783 53.7247L95.4295 53.3698L83.0482 46.2051L79.897 46.5706Z" fill="#544A00"/>
<path d="M93.7147 46.3196C89.8112 44.0662 84.6444 42.8242 79.1653 42.8242C73.6862 42.8242 68.5193 44.0662 64.6478 46.3196C60.7762 48.573 58.5938 51.6036 58.5938 54.8364C58.5938 58.0692 60.762 61.153 64.7223 63.4241C68.6258 65.6775 73.7962 66.9196 79.293 66.9196C84.7899 66.9196 89.939 65.6775 93.7999 63.4241C97.6608 61.1707 99.8574 58.1295 99.8326 54.8861C99.8078 51.6426 97.6679 48.5908 93.7147 46.3196ZM93.5444 62.9983C89.7615 65.2056 84.7012 66.4227 79.293 66.4227C73.8849 66.4227 68.7997 65.2056 64.9778 62.9983C61.1559 60.791 59.0941 57.906 59.0941 54.8364C59.0941 51.7668 61.1523 48.9243 64.8926 46.7632C68.6861 44.5524 73.7642 43.3352 79.1546 43.3352C84.545 43.3352 89.6338 44.5524 93.4592 46.7632C97.2847 48.974 99.3358 51.8307 99.3393 54.9074C99.3429 57.9841 97.2882 60.8301 93.5444 62.9983Z" fill="#544A00"/>
<path d="M104.601 54.9381C104.601 54.9381 104.601 54.9132 104.601 54.899C104.601 50.9033 101.914 47.1559 97.0492 44.3489C92.2586 41.581 85.9029 40.0586 79.1499 40.0586C72.3968 40.0586 66.0376 41.5845 61.2647 44.3596C56.4917 47.1346 53.8125 50.8713 53.8125 54.8458V54.8742L53.8161 63.068C53.8161 67.0745 56.4811 70.8325 61.3498 73.6395C66.1512 76.411 72.5174 77.9404 79.2776 77.9404C86.0378 77.9404 92.3863 76.411 97.1557 73.6395C101.925 70.868 104.579 67.1525 104.587 63.1958V54.931L104.601 54.9381ZM57.3611 69.9453C55.3775 67.8587 54.3235 65.5095 54.3271 63.0751V57.7983C54.9665 59.5428 56.0028 61.1149 57.3541 62.3902L57.3611 69.9453ZM62.386 73.6359C62.1234 73.494 61.8608 73.3556 61.6053 73.2065C60.2543 72.4425 58.9998 71.5192 57.8686 70.4563V62.8658C58.9404 63.827 60.1123 64.6705 61.364 65.3818C61.6976 65.5734 62.0383 65.7579 62.386 65.9389V73.6359ZM67.4145 75.7119C65.8618 75.23 64.351 74.6223 62.897 73.895V66.1944C64.3537 66.9042 65.8642 67.4975 67.4145 67.9687V75.7119ZM73.1881 77.0071C71.4061 76.7548 69.6449 76.3729 67.9184 75.8645V68.1249C69.6463 68.6244 71.4072 69.0015 73.1881 69.2533V77.0071ZM78.9582 77.433C77.1984 77.4216 75.441 77.3031 73.6956 77.0781V69.3208C75.4411 69.5442 77.1985 69.6627 78.9582 69.6756V77.433ZM84.7283 77.0781C82.9841 77.3032 81.2279 77.4217 79.4692 77.433V69.6792C81.2279 69.6679 82.9841 69.5494 84.7283 69.3243V77.0781ZM90.5055 75.8822C88.7848 76.3888 87.0295 76.7695 85.2535 77.0213V69.2711C87.0329 69.0254 88.7927 68.6543 90.5197 68.1603L90.5055 75.8822ZM95.5446 73.9375C94.0904 74.6613 92.5796 75.2654 91.0272 75.7438V68.0113C92.5773 67.5498 94.088 66.9648 95.5446 66.2618V73.9375ZM100.573 70.4954C99.4628 71.541 98.2322 72.4511 96.9073 73.2065C96.627 73.3698 96.3466 73.5259 96.0556 73.6785V65.9921C96.4389 65.7934 96.815 65.5911 97.177 65.3818C98.3905 64.685 99.5286 63.8644 100.573 62.9332V70.4954ZM104.086 63.1993C104.086 65.6053 103.022 67.919 101.081 69.9808V62.4612C102.397 61.2203 103.416 59.6978 104.061 58.0077C104.061 57.9722 104.09 57.9438 104.1 57.9083L104.086 63.1993ZM97.6241 64.5123C97.3935 64.6543 97.1628 64.7998 96.9144 64.9382C96.666 65.0766 96.4247 65.215 96.1763 65.3498C91.563 67.8161 85.6191 69.1717 79.2918 69.1717C72.6203 69.1717 66.3428 67.6671 61.6195 64.9417C56.8963 62.2164 54.3483 58.65 54.3413 54.8423C54.3342 51.0346 56.8856 47.493 61.5237 44.7996C66.2186 42.0707 72.4819 40.5696 79.1534 40.5696C85.8249 40.5696 92.0847 42.0671 96.7973 44.7889C101.51 47.5108 104.086 51.0913 104.093 54.899C104.097 58.4832 101.804 61.8721 97.617 64.5123H97.6241Z" fill="#544A00"/>
<path d="M104.353 43.9051V52.1734C104.353 55.8747 101.908 59.5724 97.0502 62.3971C87.263 68.0749 71.3473 68.0749 61.4963 62.3971C56.553 59.5582 54.0831 55.7931 54.0938 52.0457V43.7773C54.0938 47.5247 56.553 51.2756 61.4963 54.1323C71.3473 59.8101 87.263 59.8101 97.0502 54.1323C101.926 51.3182 104.343 47.6241 104.353 43.9051Z" fill="#F7C800"/>
<g opacity="0.15">
<path d="M54.0938 43.8281C54.0938 47.5613 56.5778 51.298 61.4962 54.1476C71.3402 59.8254 87.2559 59.8254 97.0431 54.1476C101.905 51.3087 104.339 47.6216 104.346 43.9204V47.0574C104.286 50.7161 101.862 54.357 97.0501 57.1427C87.263 62.8205 71.3473 62.8205 61.5033 57.1427C56.5707 54.3037 54.1008 50.567 54.1008 46.8267" fill="#544A00"/>
</g>
<path d="M96.9259 33.5553C106.777 39.2331 106.827 48.4596 97.043 54.1374C87.2594 59.8153 71.3402 59.8153 61.4891 54.1374C51.6381 48.4596 51.6097 39.2331 61.3933 33.5553C71.1769 27.8774 87.0962 27.8774 96.9259 33.5553Z" fill="#FEE425"/>
<path opacity="0.15" d="M79.2991 57.1611C73.2664 57.1611 67.5886 55.8622 63.277 53.4988C58.6815 50.9829 56.1406 47.5442 56.1406 43.8217C56.1406 40.0991 58.6247 36.7244 63.1776 34.2403C67.4537 31.8769 73.1138 30.5781 79.1465 30.5781C85.1792 30.5781 90.8571 31.8769 95.158 34.2403C99.7464 36.7244 102.28 40.1666 102.284 43.8927C102.287 47.6187 99.789 51.0041 95.2574 53.4882C90.9955 55.8587 85.3283 57.1611 79.2991 57.1611Z" fill="#544A00"/>
<path d="M93.6756 52.2035C85.7763 56.8167 72.8379 56.8167 64.8535 52.2035C56.869 47.5903 56.8406 40.1132 64.7683 35.5248C72.696 30.9364 85.606 30.9116 93.5904 35.5248C101.575 40.1381 101.603 47.6151 93.6756 52.2035Z" fill="#F7C800"/>
<g opacity="0.4">
<path d="M93.6737 52.2021C85.7744 56.8153 72.836 56.8153 64.8516 52.2021L93.5956 35.5234C101.562 40.1118 101.601 47.6137 93.6737 52.2021Z" fill="white"/>
</g>
<path d="M79.9268 35.5534L82.056 36.8096C84.2243 38.0623 86.0873 39.3256 85.0688 40.8409L79.2171 37.4341L76.0659 37.789L83.4258 42.0474C82.0773 42.8281 78.8551 43.3817 75.1149 41.2206L73.3051 40.1773L71.5307 41.1993L69.7812 50.6493L73.0141 52.5195L74.8345 42.7713C78.0886 44.4605 82.6841 45.1383 86.1192 43.6265L88.4329 44.9608L91.5842 44.606L87.9681 42.4874C88.5175 42.0782 88.8885 41.4735 89.0043 40.7983L92.2939 42.6968L95.4451 42.3419L83.0638 35.1914L79.9268 35.5534Z" fill="#544A00"/>
<path d="M93.7169 35.304C89.8134 33.0506 84.6465 31.8086 79.1674 31.8086C73.6883 31.8086 68.5215 33.0506 64.6499 35.304C60.7783 37.5574 58.6172 40.5879 58.6172 43.8208C58.6172 47.0536 60.7535 50.1338 64.7244 52.4227C68.6279 54.6761 73.7983 55.9181 79.2952 55.9181C84.792 55.9181 89.9411 54.6761 93.802 52.4227C97.663 50.1693 99.8596 47.1281 99.856 43.8846C99.8525 40.6412 97.6594 37.5751 93.7169 35.304ZM93.5465 51.9827C89.7637 54.1899 84.7033 55.4071 79.2952 55.4071C73.887 55.4071 68.8054 54.1899 64.9799 51.9791C61.1545 49.7683 59.0998 46.8904 59.0998 43.8172C59.0998 40.7441 61.158 37.9052 64.8948 35.7405C68.6918 33.5332 73.7664 32.316 79.1568 32.316C84.5472 32.316 89.6395 33.5332 93.4649 35.744C97.2904 37.9549 99.3415 40.808 99.345 43.8811C99.3486 46.9542 97.3046 49.8144 93.5465 51.9827Z" fill="#544A00"/>
<path d="M104.607 43.9244V43.8854C104.607 39.886 101.92 36.1387 97.0586 33.3317C92.2679 30.5673 85.9123 29.0449 79.1592 29.0449C72.4061 29.0449 66.0292 30.5708 61.2704 33.3459C56.5117 36.1209 53.8183 39.8577 53.836 43.8321V43.8605V52.0615C53.836 56.0679 56.5011 59.8259 61.3663 62.6329C66.1711 65.4044 72.5339 66.9338 79.294 66.9338C86.0542 66.9338 92.4063 65.4044 97.1757 62.6329C101.945 59.8614 104.596 56.146 104.607 52.1892L104.624 43.9244H104.607ZM57.3634 58.9316C55.3797 56.8415 54.3257 54.4958 54.3328 52.0615V46.7846C54.9722 48.5284 56.0071 50.1002 57.3563 51.3766L57.3634 58.9316ZM62.3883 62.6222C62.1257 62.4803 61.8631 62.3419 61.6076 62.1893C60.2583 61.4255 59.0051 60.5035 57.8744 59.4426V51.8521C58.9456 52.8126 60.1161 53.656 61.3663 54.3681C61.6998 54.5597 62.044 54.7442 62.3883 54.9252V62.6222ZM67.4202 64.6982C65.8625 64.2176 64.3469 63.61 62.8886 62.8813V55.1807C64.3459 55.889 65.8563 56.4822 67.4061 56.955L67.4202 64.6982ZM73.1797 65.9935C71.4038 65.7364 69.6486 65.3522 67.9277 64.8437V57.1076C69.6497 57.6074 71.4047 57.9856 73.1797 58.2397V65.9935ZM78.9498 66.4193C77.1913 66.4062 75.4351 66.2877 73.6907 66.0644V58.3035C75.4349 58.5285 77.1912 58.647 78.9498 58.6584V66.4193ZM84.7199 66.0644C82.9771 66.2914 81.2219 66.4099 79.4644 66.4193V58.6655C81.2218 58.6542 82.9769 58.5357 84.7199 58.3106V66.0644ZM90.4971 64.8721C88.7763 65.3776 87.021 65.7571 85.2451 66.0077V58.2574C87.0233 58.0114 88.7819 57.6403 90.5078 57.1467L90.4971 64.8721ZM95.5362 62.9239C94.0832 63.6477 92.5735 64.2518 91.0223 64.7301V56.9976C92.5715 56.5265 94.0809 55.9332 95.5362 55.2233V62.9239ZM100.568 59.4817C99.4574 60.5273 98.2255 61.4363 96.8989 62.1893C96.6221 62.3525 96.3382 62.5087 96.0508 62.6613V54.9784C96.4305 54.7797 96.8066 54.5775 97.1721 54.3681C98.3845 53.6696 99.5224 52.8492 100.568 51.9195V59.4817ZM104.081 52.1857C104.081 54.5916 103.017 56.9054 101.076 58.9671V51.444C102.389 50.2013 103.407 48.6793 104.053 46.9904L104.088 46.8946L104.081 52.1857ZM97.6228 53.488C97.3921 53.6335 97.1579 53.779 96.9131 53.9174C96.6682 54.0558 96.4269 54.1942 96.1785 54.329C91.5653 56.8131 85.6177 58.1509 79.2905 58.1509C72.619 58.1509 66.345 56.6463 61.6182 53.9174C56.8914 51.1885 54.347 47.6256 54.3435 43.8215C54.3399 40.0173 56.8879 36.4722 61.5224 33.7788C66.2208 31.0499 72.4806 29.5453 79.1556 29.5453C85.8306 29.5453 92.0869 31.0464 96.7995 33.7682C101.512 36.49 104.088 40.0706 104.092 43.8783C104.103 47.4553 101.807 50.8585 97.6228 53.488Z" fill="#544A00"/>
<path d="M104.369 32.9051V41.1734C104.369 44.8747 101.924 48.5724 97.0623 51.3971C87.2786 57.0749 71.3594 57.0749 61.5119 51.3971C56.5686 48.5404 54.0988 44.7895 54.1094 41.0457V32.7773C54.1094 36.5247 56.5686 40.2756 61.5119 43.1288C71.3629 48.8066 87.2786 48.8066 97.0623 43.1288C101.927 40.304 104.358 36.6063 104.369 32.9051Z" fill="#F7C800"/>
<g opacity="0.15">
<path d="M54.1094 32.8125C54.1094 36.5457 56.5934 40.2647 61.5119 43.132C71.3594 48.8098 87.2751 48.8098 97.0587 43.132C101.924 40.2931 104.358 36.606 104.365 32.9048V36.0418C104.305 39.7004 101.881 43.3413 97.0658 46.127C87.2821 51.8049 71.3665 51.8049 61.519 46.127C56.5899 43.2881 54.1165 39.5478 54.1165 35.8111" fill="#544A00"/>
</g>
<path d="M96.9585 22.5363C106.806 28.2142 106.859 37.4407 97.0721 43.1185C87.2849 48.7964 71.3727 48.7964 61.5217 43.1185C51.6706 37.4407 51.6387 28.2142 61.4259 22.5363C71.2131 16.8585 87.1181 16.8621 96.9585 22.5363Z" fill="#FEE425"/>
<path d="M79.3197 46.1454C73.287 46.1454 67.6092 44.8466 63.2976 42.4832C58.7021 39.9637 56.1719 36.5286 56.1719 32.8061C56.1719 29.0835 58.6559 25.7088 63.2053 23.2247C67.485 20.8613 73.1415 19.5625 79.1742 19.5625C85.2069 19.5625 90.8777 20.84 95.1822 23.2141C99.7706 25.6981 102.304 29.1403 102.308 32.8664C102.311 36.5925 99.8238 39.9921 95.2709 42.4832C91.0125 44.8431 85.3453 46.1454 79.3197 46.1454Z" fill="#141414"/>
<path d="M93.699 41.1859C85.7997 45.7992 72.8614 45.7992 64.8769 41.1859C56.8924 36.5727 56.8641 29.0957 64.7917 24.5073C72.7194 19.9189 85.6294 19.894 93.6139 24.5073C101.598 29.1205 101.627 36.5975 93.699 41.1859Z" fill="#F7C800"/>
<g opacity="0.4">
<path d="M93.6971 41.1865C85.7978 45.7997 72.8595 45.7997 64.875 41.1865L93.6191 24.5078C101.596 29.0962 101.625 36.5981 93.6971 41.1865Z" fill="white"/>
</g>
<path d="M79.9268 24.5372L82.0773 25.7792C84.2491 27.0319 86.1121 28.2952 85.0937 29.807L79.2171 26.418L76.0659 26.7729L83.4223 31.0312C82.0773 31.8155 78.8551 32.3691 75.1113 30.208L73.3051 29.1647L71.5307 30.1867L69.7812 39.6012L73.0176 41.4678L74.8381 31.7197C78.0886 33.4124 82.6877 34.0902 86.1192 32.5785L88.4329 33.9128L91.5842 33.5579L87.9823 31.4855C88.5306 31.0743 88.9002 30.4684 89.0149 29.7928L92.3081 31.6948L95.4593 31.34L83.0745 24.1895L79.9268 24.5372Z" fill="#544A00"/>
<path d="M93.7382 24.2884C89.8347 22.035 84.6678 20.793 79.1887 20.793C73.7096 20.793 68.5428 22.035 64.6712 24.2884C60.7996 26.5418 58.6172 29.5723 58.6172 32.8051C58.6172 36.038 60.7996 39.1182 64.7564 41.4071C68.6599 43.6605 73.8302 44.9025 79.3271 44.9025C84.824 44.9025 89.9731 43.6605 93.834 41.4071C97.6949 39.1537 99.8809 36.0983 99.8738 32.869C99.8667 29.6398 97.6914 26.5595 93.7382 24.2884ZM93.5678 40.967C89.785 43.1778 84.7246 44.395 79.3165 44.395C73.9083 44.395 68.8231 43.1778 65.0012 40.967C61.1793 38.7562 59.1175 35.8783 59.1175 32.8051C59.1175 29.732 61.1758 26.8931 64.916 24.7284C68.7131 22.5176 73.7877 21.304 79.1781 21.304C84.5685 21.304 89.6608 22.5212 93.4827 24.7284C97.3046 26.9357 99.3592 29.7959 99.3663 32.869C99.3734 35.9422 97.3117 38.7988 93.5678 40.9635V40.967Z" fill="#544A00"/>
<path d="M104.619 32.9045C104.619 32.9045 104.619 32.8761 104.619 32.8655C104.619 28.8662 101.932 25.1188 97.0705 22.3118C92.2799 19.5474 85.9207 18.0215 79.1676 18.0215C72.4145 18.0215 66.0553 19.551 61.2824 22.326C56.5095 25.101 53.8302 28.8378 53.8302 32.8087V32.8371L53.8125 41.038C53.8125 45.048 56.4811 48.8025 61.3463 51.613C66.1476 54.3845 72.5139 55.914 79.2741 55.914C86.0342 55.914 92.3828 54.3845 97.1522 51.613C101.922 48.8415 104.576 45.1261 104.587 41.1693V32.9045H104.619ZM57.3789 47.9118C55.3952 45.8252 54.3412 43.4795 54.3483 41.0416V35.7647C54.9883 37.5099 56.0259 39.0821 57.3789 40.3567V47.9118ZM62.4038 51.6059C62.1412 51.464 61.8786 51.322 61.6231 51.173C60.2728 50.4092 59.0183 49.4871 57.8863 48.4263V40.8358C58.9613 41.7931 60.1327 42.6363 61.3818 43.3517C61.7153 43.5434 62.056 43.7279 62.4038 43.9089V51.6059ZM67.4322 53.6819C65.8798 53.1993 64.369 52.5917 62.9148 51.865V44.1644C64.3714 44.8742 65.8819 45.4675 67.4322 45.9387V53.6819ZM73.2094 54.9771C71.428 54.725 69.6669 54.3455 67.9397 53.8416V46.0913C69.6675 46.592 71.4284 46.9703 73.2094 47.2233V54.9771ZM78.9795 55.403C77.2198 55.3899 75.4624 55.2714 73.7169 55.0481V47.2872C75.4623 47.5123 77.2197 47.6308 78.9795 47.6421V55.403ZM84.7496 55.0481C83.0056 55.2751 81.2492 55.3936 79.4905 55.403V47.6456C81.2488 47.6402 83.0051 47.5276 84.7496 47.3085V55.0481ZM90.5268 53.8557C88.7963 54.3608 87.0316 54.7403 85.2464 54.9913V47.2411C87.0258 46.9954 88.7856 46.6243 90.5126 46.1303L90.5268 53.8557ZM95.5553 51.8969C94.1014 52.6225 92.5905 53.2278 91.0378 53.7067V45.9813C92.5882 45.5102 94.0987 44.9169 95.5553 44.207V51.8969ZM100.584 48.4583C99.4738 49.5034 98.2432 50.4124 96.918 51.1659C96.6376 51.3291 96.3573 51.4852 96.0663 51.6378V43.9586C96.4495 43.7634 96.8257 43.5611 97.1876 43.3482C98.4018 42.6539 99.54 41.8344 100.584 40.9032V48.4583ZM104.097 41.1622C104.097 43.5682 103.032 45.8819 101.091 47.9437V40.4277C102.402 39.1854 103.415 37.663 104.054 35.9741C104.054 35.9422 104.083 35.9102 104.093 35.8783L104.097 41.1622ZM97.6348 42.4859C97.4041 42.6314 97.1735 42.7733 96.925 42.9153C96.6766 43.0572 96.4353 43.1885 96.1869 43.3234C91.5737 45.8074 85.6297 47.1453 79.3025 47.1453C72.631 47.1453 66.357 45.6442 61.6302 42.9153C56.9034 40.1864 54.3732 36.6164 54.3732 32.8123C54.3732 29.0081 56.9211 25.463 61.5557 22.7696C66.2505 20.0407 72.5139 18.536 79.1853 18.536C85.8568 18.536 92.1166 20.0371 96.8328 22.7589C101.549 25.4807 104.118 29.0613 104.125 32.869C104.115 36.4532 101.822 39.8421 97.6348 42.4859Z" fill="#544A00"/>
<path d="M104.385 21.9051V30.1699C104.385 33.8747 101.943 37.5688 97.0814 40.3971C87.2943 46.0749 71.3786 46.0749 61.5275 40.3971C56.5843 37.5582 54.1144 33.7895 54.125 30.0421V21.7773C54.125 25.5247 56.5842 29.2756 61.5311 32.1288C71.3786 37.8066 87.2943 37.8066 97.0814 32.1288C101.932 29.2898 104.374 25.5921 104.385 21.9051Z" fill="#F7C800"/>
<g opacity="0.15">
<path d="M54.1172 21.7949C54.1172 25.5281 56.6012 29.2471 61.5197 32.1144C71.3636 37.7922 87.2793 37.7922 97.0665 32.1144C101.928 29.2755 104.363 25.5849 104.373 21.8836V25.0242C104.316 28.6793 101.889 32.3238 97.0771 35.1095C87.29 40.7873 71.3743 40.7873 61.5303 35.1095C56.6012 32.2705 54.1278 28.5303 54.1278 24.7935" fill="#544A00"/>
</g>
<path d="M96.9614 11.5227C106.812 17.2005 106.862 26.427 97.0785 32.1048C87.2949 37.7827 71.3757 37.7827 61.5282 32.1048C51.6807 26.427 51.6452 17.2005 61.4324 11.5227C71.2195 5.84483 87.1317 5.84838 96.9614 11.5227Z" fill="#FEE425"/>
<path opacity="0.15" d="M79.3389 35.1298C73.3062 35.1298 67.6283 33.8274 63.3132 31.4676C58.7177 28.9481 56.1875 25.513 56.1875 21.7904C56.1875 18.0679 58.6715 14.6931 63.2245 12.2091C67.5006 9.84923 73.1607 8.54688 79.1934 8.54688C85.2261 8.54688 90.8933 9.83858 95.1872 12.1949C99.7756 14.6789 102.309 18.1247 102.316 21.8508C102.323 25.5768 99.8323 28.9729 95.2794 31.4676C91.0317 33.8274 85.3645 35.1298 79.3389 35.1298Z" fill="#544A00"/>
<path d="M93.7104 30.1703C85.8076 34.7835 72.8692 34.7835 64.8847 30.1703C56.9003 25.557 56.8719 18.08 64.7995 13.4916C72.7272 8.90324 85.6408 8.8784 93.6252 13.4916C101.61 18.1049 101.635 25.5854 93.7104 30.1703Z" fill="#F7C800"/>
<g opacity="0.4">
<path d="M93.7085 30.1689C85.8057 34.7821 72.8673 34.7821 64.8828 30.1689L93.6269 13.4902C101.608 18.0786 101.633 25.584 93.7085 30.1689Z" fill="white"/>
</g>
<path d="M93.7638 13.2747C89.8602 11.0178 84.6899 9.7793 79.2143 9.7793C73.7387 9.7793 68.5683 11.0213 64.6968 13.2747C60.8252 15.5281 58.6641 18.5587 58.6641 21.7915C58.6641 25.0243 60.8429 28.1045 64.7997 30.3899C68.7032 32.6468 73.8736 33.8888 79.3704 33.8888C84.8673 33.8888 90.0164 32.6468 93.8773 30.3899C97.7808 28.1294 99.9349 25.0988 99.9313 21.8731C99.9278 18.6474 97.7028 15.5459 93.7638 13.2747ZM93.5899 29.9534C89.8106 32.1642 84.7466 33.3814 79.3385 33.3814C73.9304 33.3814 68.8487 32.1642 65.0232 29.9534C61.1978 27.7426 59.1431 24.8646 59.1431 21.7915C59.1431 18.7183 61.2013 15.8794 64.9416 13.7147C68.6819 11.5501 73.8132 10.2868 79.2001 10.2868C84.5869 10.2868 89.6828 11.5039 93.5083 13.7147C97.3337 15.9256 99.3848 18.7822 99.3884 21.8554C99.3919 24.9285 97.3124 27.7851 93.5792 29.9498L93.5899 29.9534Z" fill="#544A00"/>
<path d="M104.638 21.9043V21.8688C104.638 17.8695 101.951 14.1221 97.0898 11.3152C92.2991 8.53657 85.9613 7 79.1904 7C72.4196 7 66.0604 8.52947 61.3017 11.301C56.543 14.0725 53.8495 17.8163 53.8673 21.7872C53.8673 21.7872 53.8673 21.8085 53.8673 21.8156V30.0165C53.8673 34.0265 56.5323 37.781 61.3975 40.5915C66.2024 43.363 72.5651 44.8925 79.3288 44.8925C86.0926 44.8925 92.4375 43.363 97.2069 40.5915C101.976 37.82 104.627 34.101 104.638 30.1478L104.656 21.8795L104.638 21.9043ZM57.3946 36.8974C55.4109 34.8108 54.357 32.4651 54.3641 30.0272L54.3783 24.7432C55.0151 26.4945 56.0501 28.0737 57.4017 29.3565L57.3946 36.8974ZM62.4231 40.5915C62.1605 40.4496 61.8979 40.3076 61.6424 40.1586C60.2915 39.3957 59.0369 38.4736 57.9056 37.4119V29.8214C58.9785 30.7803 60.1502 31.6225 61.4011 32.3338C61.7311 32.529 62.0753 32.7135 62.4231 32.8909V40.5915ZM67.4515 42.6639C65.8987 42.1838 64.3878 41.5773 62.9341 40.8506V33.1464C64.3907 33.8562 65.9012 34.4495 67.4515 34.9208V42.6639ZM73.2287 43.9627C71.4466 43.7092 69.6854 43.3261 67.959 42.8165V35.0769C69.6864 35.5781 71.4475 35.9553 73.2287 36.2054V43.9627ZM78.9988 44.3886C77.239 44.3774 75.4815 44.2588 73.7362 44.0337V36.2728C75.4815 36.498 77.239 36.6165 78.9988 36.6277V44.3886ZM84.7689 44.0337C83.0249 44.2606 81.2685 44.3791 79.5098 44.3886V36.6312C81.2684 36.6199 83.0247 36.5014 84.7689 36.2764V44.0337ZM90.5461 42.8414C88.8203 43.3434 87.0603 43.7194 85.2799 43.9663V36.2267C87.0592 35.9807 88.819 35.6095 90.5461 35.1159V42.8414ZM95.5746 40.8825C94.1201 41.6069 92.6094 42.2121 91.0571 42.6923V34.9669C92.6069 34.4942 94.1173 33.901 95.5746 33.1926V40.8825ZM100.603 37.4439C99.4926 38.4883 98.262 39.3972 96.9372 40.1515C96.6569 40.3147 96.373 40.4709 96.0856 40.6235V32.9442C96.4653 32.749 96.8414 32.5467 97.2069 32.3338C98.4207 31.6374 99.5588 30.8168 100.603 29.8852V37.4439ZM104.116 30.1478C104.116 32.5538 103.052 34.8675 101.11 36.9293V29.4062C102.424 28.1641 103.44 26.6418 104.084 24.9526C104.084 24.9207 104.109 24.8887 104.123 24.8568L104.116 30.1478ZM97.6718 31.4644C97.4411 31.6099 97.2069 31.7518 96.9621 31.8938C96.7172 32.0357 96.4759 32.167 96.2275 32.3019C91.6143 34.7859 85.6703 36.1238 79.3395 36.1238C72.6716 36.1238 66.394 34.6227 61.6672 31.8938C56.9404 29.1649 54.3783 25.602 54.3783 21.7979C54.3783 17.9937 56.9227 14.4522 61.5607 11.7552C66.2556 9.02628 72.5154 7.52165 79.1904 7.52165C85.8655 7.52165 92.1217 9.01918 96.8343 11.741C101.547 14.4628 104.123 18.0469 104.13 21.8546C104.134 25.453 101.841 28.8277 97.6718 31.4644Z" fill="#544A00"/>
<path d="M46.8778 51.459L55.1461 51.4767C58.8473 51.4767 62.545 53.9182 65.3698 58.7798C71.0476 68.567 71.0476 84.4827 65.3698 94.3302C62.5308 99.277 58.7657 101.747 55.0183 101.736H46.75C50.4974 101.736 54.2483 99.277 57.105 94.3302C62.7828 84.4827 62.7828 68.567 57.105 58.7798C54.2767 53.9111 50.5825 51.4767 46.8778 51.459Z" fill="#F7C800"/>
<g opacity="0.15">
<path d="M46.7891 101.723C50.5222 101.723 54.2412 99.2387 57.1085 94.3203C62.7864 84.4728 62.7864 68.5606 57.1085 58.7735C54.2696 53.9118 50.5826 51.4739 46.8813 51.4668H50.0183C53.677 51.5271 57.3179 53.9509 60.1036 58.7664C65.7814 68.5535 65.7814 84.4657 60.1036 94.3132C57.2647 99.2423 53.5279 101.716 49.7877 101.716" fill="#544A00"/>
</g>
<path d="M36.5162 58.8885C42.194 49.0374 51.4205 48.9878 57.0984 58.7714C62.7762 68.555 62.7762 84.4743 57.0984 94.3218C51.4205 104.169 42.194 104.205 36.5162 94.4176C30.8384 84.6304 30.8384 68.7182 36.5162 58.8885Z" fill="#FEE425"/>
<path opacity="0.15" d="M60.1142 76.5093C60.1142 82.542 58.8154 88.2198 56.452 92.535C53.9324 97.127 50.4973 99.6607 46.7748 99.6607C43.0523 99.6607 39.6775 97.1766 37.1935 92.6237C34.8301 88.3476 33.5312 82.6875 33.5312 76.6548C33.5312 70.6221 34.8301 64.9443 37.1935 60.6433C39.6775 56.0549 43.1197 53.5247 46.8458 53.5176C50.5719 53.5105 53.9715 56.0017 56.4626 60.5546C58.8154 64.8165 60.1142 70.4837 60.1142 76.5093Z" fill="#544A00"/>
<path d="M55.1527 62.1355C59.766 70.0348 59.766 82.9767 55.1527 90.9612C50.5395 98.9456 43.0625 98.9705 38.4741 91.0428C33.8857 83.1151 33.8608 70.2051 38.4741 62.2206C43.0873 54.2362 50.5643 54.2078 55.1527 62.1355Z" fill="#F7C800"/>
<g opacity="0.4">
<path d="M55.1552 62.1379C59.7685 70.0372 59.7685 82.9791 55.1552 90.9636L38.4766 62.2195C43.065 54.2386 50.5668 54.2102 55.1552 62.1379Z" fill="white"/>
</g>
<path d="M38.261 62.1044C36.0077 66.0079 34.7656 71.1747 34.7656 76.6538C34.7656 82.133 36.0077 87.2998 38.261 91.1714C40.5144 95.0429 43.5592 97.236 46.7778 97.236C49.9964 97.236 53.0909 95.0571 55.3797 91.1004C57.6331 87.1969 58.8752 82.0229 58.8752 76.5261C58.8752 71.0292 57.6331 65.8801 55.3797 62.0192C53.1263 58.1583 50.0851 55.9652 46.8417 55.9688C43.5982 55.9723 40.5322 58.1441 38.261 62.1044ZM54.9397 62.2783C57.147 66.0576 58.3641 71.1215 58.3641 76.5261C58.3641 81.9307 57.147 87.0194 54.9361 90.8449C52.7253 94.6703 49.8474 96.725 46.7743 96.725C43.7011 96.725 40.8622 94.6668 38.6975 90.9265C36.5329 87.1862 35.2731 82.0549 35.2731 76.6645C35.2731 71.2741 36.4903 66.1853 38.7011 62.3599C40.9119 58.5344 43.765 56.4833 46.8381 56.4798C49.9113 56.4762 52.7857 58.5238 54.9397 62.2676V62.2783Z" fill="#544A00"/>
<path d="M46.8795 51.2129H46.8405C42.8411 51.2129 39.0938 53.8992 36.2868 58.7609C33.5224 63.5515 32 69.9072 32 76.6603C32 83.4133 33.5259 89.7903 36.301 94.549C39.076 99.3077 42.8127 102.001 46.7872 101.983H46.8156L55.0165 102.001C59.023 102.001 62.781 99.3361 65.588 94.4674C68.3595 89.6661 69.8889 83.2998 69.8889 76.5396C69.8889 69.7794 68.3595 63.4309 65.588 58.6615C62.8165 53.8921 59.101 51.2413 55.1443 51.2306L46.8795 51.2129ZM61.8867 98.4525C59.7966 100.44 57.4509 101.494 55.0165 101.487H49.7397C51.4843 100.847 53.0563 99.8109 54.3317 98.4596L61.8867 98.4525ZM65.5773 93.4276C65.4354 93.6902 65.297 93.9528 65.1444 94.2083C64.3815 95.5592 63.4594 96.8138 62.3977 97.9451H54.8072C55.7684 96.8733 56.6119 95.7014 57.3232 94.4496C57.5148 94.1196 57.6993 93.7754 57.8803 93.4276H65.5773ZM67.6533 88.3992C67.172 89.9521 66.5643 91.4629 65.8364 92.9166H58.1358C58.8441 91.4593 59.4373 89.9489 59.9101 88.3992H67.6533ZM68.9485 82.622C68.6945 84.4037 68.3126 86.1648 67.8059 87.8917H60.0627C60.5635 86.1639 60.9417 84.403 61.1947 82.622H68.9485ZM69.3744 76.8519C69.3614 78.6116 69.2429 80.369 69.0195 82.1145H61.2586C61.4838 80.3692 61.6023 78.6117 61.6135 76.8519H69.3744ZM69.0195 71.0818C69.2464 72.8258 69.3649 74.5822 69.3744 76.3409H61.6206C61.6092 74.5823 61.4907 72.826 61.2657 71.0818H69.0195ZM67.8343 65.2975C68.3375 67.0232 68.7147 68.7833 68.9627 70.5637H61.2125C60.9665 68.7844 60.5953 67.0246 60.1018 65.2975H67.8343ZM65.879 60.269C66.6037 61.7257 67.209 63.2389 67.6888 64.7936H59.9527C59.4816 63.2432 58.8883 61.7327 58.1784 60.2761L65.879 60.269ZM62.4368 55.2406C63.4826 56.3512 64.3916 57.5831 65.1444 58.9099C65.3076 59.1903 65.4638 59.4741 65.6164 59.7616H57.93C57.7348 59.3783 57.5325 59.0057 57.3232 58.6402C56.6256 57.4272 55.8051 56.2892 54.8746 55.2442L62.4368 55.2406ZM55.1407 51.7274C57.5467 51.7274 59.8605 52.792 61.9222 54.7332H54.3991C53.1572 53.4211 51.6347 52.4069 49.9455 51.7665L49.8497 51.7274H55.1407ZM56.4502 58.2002C56.5957 58.4308 56.7412 58.6651 56.8796 58.9099C57.018 59.1548 57.1564 59.3961 57.2912 59.6445C59.7575 64.2577 61.1131 70.2017 61.1131 76.5325C61.1131 83.2004 59.6085 89.478 56.8796 94.2012C54.1507 98.9245 50.5878 101.472 46.7837 101.48C42.9795 101.487 39.4344 98.9351 36.741 94.297C34.0121 89.6022 32.5075 83.3388 32.5075 76.6674C32.5075 69.9959 34.0085 63.7361 36.7304 59.0235C39.4522 54.3109 43.0328 51.7345 46.8405 51.7274C50.4246 51.7168 53.8136 54.0092 56.4502 58.2002Z" fill="#544A00"/>
<path d="M86.0291 22.7814C86.8667 22.179 87.2548 21.4226 87.1302 20.6354C87.007 19.8568 86.3905 19.1207 85.3799 18.5372C82.6083 16.9371 78.547 17.3566 75.7669 18.9617C74.931 19.4443 74.2301 20.0096 73.7605 20.6177C73.291 21.2258 73.0416 21.8929 73.1481 22.5658C73.267 23.3169 73.819 24.0151 74.8533 24.6123C76.9342 25.8136 79.755 25.9142 82.1644 24.897L82.5276 24.7437L82.1862 24.5467L79.0115 22.7138L80.8006 21.6808L87.0685 25.2996L79.7473 29.5265L77.8995 28.4597L80.4409 26.9924L80.3043 26.6305C77.5403 27.1853 74.5593 26.9891 72.1347 25.5893C70.6051 24.7062 69.7064 23.5828 69.5212 22.4145C69.2848 20.9227 70.2011 19.2405 72.7518 17.7678C75.029 16.4531 77.7861 15.7814 80.4767 15.7287C83.1683 15.676 85.7775 16.243 87.7616 17.3885C89.4258 18.3494 90.3858 19.5961 90.5783 20.81C90.7731 22.0392 90.1895 23.3002 88.6085 24.2707L86.0291 22.7814Z" fill="#141414" stroke="#141414" stroke-width="0.392075"/>
<path d="M72.8082 17.2895L72.707 16.6504C74.9613 15.3796 77.6704 14.7297 80.3151 14.6779C82.9702 14.6259 85.5453 15.177 87.5191 16.2916L87.6082 16.8543C85.6001 15.7976 83.0646 15.2867 80.474 15.3374C77.8236 15.3893 75.101 16.0292 72.8082 17.2895Z" fill="#141414" stroke="#141414" stroke-width="0.392075" stroke-linejoin="round"/>
<path d="M72.4417 17.4967C70.7781 18.4802 69.7549 19.5899 69.3274 20.7195C69.4096 19.45 70.3239 18.0894 72.3413 16.8627L72.4417 17.4967Z" fill="#141414" stroke="#141414" stroke-width="0.392075" stroke-linejoin="round"/>
<path d="M85.0234 18.3497C82.3529 17.0184 78.6619 17.4001 76.0116 18.8259L75.9102 18.1858C78.5701 16.7025 82.3526 16.3442 84.9334 17.7817L85.0234 18.3497Z" fill="#141414" stroke="#141414" stroke-width="0.392075" stroke-linejoin="round"/>
<path d="M73.7635 20.6178C73.5976 20.8327 73.4592 21.0549 73.3542 21.2822C73.3311 20.8024 73.5241 20.3022 73.9073 19.8059C74.2917 19.3081 74.8584 18.8271 75.553 18.3971L75.6533 19.0301C74.8688 19.4974 74.211 20.0382 73.7635 20.6178Z" fill="#141414" stroke="#141414" stroke-width="0.392075" stroke-linejoin="round"/>
<path d="M87.9474 16.5556C89.0402 17.2573 89.785 18.0878 90.16 18.9374C89.6567 18.2599 88.9382 17.6316 88.0331 17.097L87.9474 16.5556Z" fill="#141414" stroke="#141414" stroke-width="0.392075" stroke-linejoin="round"/>
<path d="M85.3706 18.0523C86.0079 18.4914 86.3853 18.9767 86.5254 19.4481C86.2518 19.1377 85.8922 18.8471 85.4551 18.5856L85.3706 18.0523Z" fill="#141414" stroke="#141414" stroke-width="0.392075" stroke-linejoin="round"/>
<path d="M78.7687 22.4007L78.6678 21.764L80.4853 20.7147L80.5861 21.3514L78.7687 22.4007Z" fill="#141414" stroke="#141414" stroke-width="0.392075" stroke-linejoin="round"/>
<path d="M74.6023 23.5138L74.6869 24.0478C74.0479 23.6096 73.7048 23.1488 73.5748 22.6974C73.8334 22.985 74.1746 23.2584 74.6023 23.5138Z" fill="#141414" stroke="#141414" stroke-width="0.392075" stroke-linejoin="round"/>
<path d="M71.7719 25.3717C70.7664 24.7231 70.0774 23.9631 69.7337 23.16C70.2033 23.78 70.8646 24.3452 71.6862 24.8308L71.7719 25.3717Z" fill="#141414" stroke="#141414" stroke-width="0.392075" stroke-linejoin="round"/>
<path d="M86.7538 20.7679C86.8156 21.3399 86.5315 21.9393 85.8046 22.4619L85.706 21.839C86.1895 21.5228 86.5422 21.1593 86.7538 20.7679Z" fill="#141414" stroke="#141414" stroke-width="0.392075" stroke-linejoin="round"/>
<path d="M78.711 22.0393L81.7429 23.7898L81.8305 24.3429L78.7987 22.5925L78.711 22.0393Z" fill="#141414" stroke="#141414" stroke-width="0.392075" stroke-linejoin="round"/>
<path d="M87.1138 24.3705L87.2014 24.9237L80.9783 21.3308L80.8907 20.7776L87.1138 24.3705Z" fill="#141414" stroke="#141414" stroke-width="0.392075" stroke-linejoin="round"/>
<path d="M90.6122 21.4035C90.5633 22.3974 89.9841 23.3784 88.7593 24.1767L88.6596 23.5471C89.6483 22.9373 90.2954 22.1992 90.6122 21.4035Z" fill="#141414" stroke="#141414" stroke-width="0.392075" stroke-linejoin="round"/>
<path d="M75.1345 24.3182L75.0445 23.7504C77.0154 24.7352 79.5492 24.8022 81.7709 23.9389L81.8746 24.5937C79.6292 25.493 77.0493 25.3856 75.1345 24.3182Z" fill="#141414" stroke="#141414" stroke-width="0.392075" stroke-linejoin="round"/>
<path d="M85.7501 22.1175L88.2666 23.5703L88.3542 24.1235L85.8377 22.6707L85.7501 22.1175Z" fill="#141414" stroke="#141414" stroke-width="0.392075" stroke-linejoin="round"/>
<path d="M72.1312 25.0732C74.5313 26.3243 77.3788 26.4979 80.0194 26.0037L80.1246 26.6678C77.4437 27.1716 74.5761 26.9643 72.2204 25.6368L72.1312 25.0732Z" fill="#141414" stroke="#141414" stroke-width="0.392075" stroke-linejoin="round"/>
<path d="M77.6593 28.1476L77.5585 27.511L80.0302 26.0839L80.1311 26.7206L77.6593 28.1476Z" fill="#141414" stroke="#141414" stroke-width="0.392075" stroke-linejoin="round"/>
<path d="M79.8937 29.4404L79.7928 28.8037L87.1424 24.5604L87.2432 25.1971L79.8937 29.4404Z" fill="#141414" stroke="#141414" stroke-width="0.392075" stroke-linejoin="round"/>
<path d="M77.6017 27.7835L79.4046 28.8244L79.4922 29.3776L77.6893 28.3367L77.6017 27.7835Z" fill="#141414" stroke="#141414" stroke-width="0.392075" stroke-linejoin="round"/>
<path d="M78.4483 21.6636L80.6295 20.4044L87.2894 24.2495L79.5761 28.7027L77.3363 27.4096L80.1718 25.7725C77.3763 26.3337 74.3432 26.1394 71.8655 24.7089C68.2977 22.649 67.9023 19.1924 72.4827 16.5479C77.1027 13.8806 83.6449 13.8341 87.6885 16.1686C91.1572 18.1713 91.7707 21.4791 88.4395 23.4481L85.4862 21.743C87.3699 20.5868 87.1722 18.847 85.1108 17.6569C82.4151 16.1005 78.4301 16.5015 75.6938 18.0814C73.1359 19.5581 71.9656 21.7673 74.7802 23.3923C76.802 24.5596 79.5576 24.6623 81.9171 23.6663L78.4483 21.6636Z" fill="white"/>
<path d="M48.2528 69.9479C47.8463 69.4721 47.3915 69.1595 46.9135 69.0188C46.3575 68.8552 45.7888 68.9301 45.261 69.2225C44.7128 69.5262 44.2137 70.0611 43.8052 70.798C42.2504 73.603 42.905 77.5589 44.7479 80.1908C45.3923 81.111 46.1462 81.847 46.9344 82.2514C47.7279 82.6585 48.5677 82.7332 49.3461 82.3019C49.865 82.0144 50.3382 81.5114 50.7479 80.7722C51.915 78.6668 51.8767 75.8962 50.6744 73.5922L50.5058 73.2691L50.3292 73.5878L48.5394 76.8166L47.3451 75.1108L50.8619 68.7663L55.7202 75.7048L54.6779 77.5853L52.9798 75.1603L52.6301 75.3243C53.358 77.9929 53.3033 80.914 51.9478 83.3594C51.343 84.4504 50.5918 85.2448 49.766 85.7027C48.8487 86.2113 47.829 86.3113 46.7841 85.9286C45.7338 85.544 44.6434 84.6659 43.6107 83.1911C40.59 78.8771 40.2167 72.5624 42.4409 68.5499C43.0975 67.3653 43.9262 66.51 44.8095 66.0202C45.6452 65.5568 46.5303 65.4196 47.3783 65.6362C48.1986 65.8457 49.0031 66.3913 49.7033 67.3311L48.2528 69.9479Z" fill="#141414" stroke="#141414" stroke-width="0.392075"/>
<path d="M48.0219 86.5522C47.3294 86.7443 46.5959 86.7172 45.8496 86.4439C44.8421 86.075 43.7977 85.252 42.8028 83.8838L43.3885 83.5592C44.422 84.9922 45.5339 85.8886 46.6453 86.2957C47.109 86.4656 47.5702 86.5493 48.0219 86.5522Z" fill="#141414" stroke="#141414" stroke-width="0.392075" stroke-linejoin="round"/>
<path d="M42.5731 83.5623C39.6566 79.2705 39.3069 73.085 41.4764 69.1153L41.7952 68.9385C39.8575 73.0389 40.3111 79.0199 43.1599 83.237L42.5731 83.5623Z" fill="#141414" stroke="#141414" stroke-width="0.392075" stroke-linejoin="round"/>
<path d="M46.9257 82.2511C47.2759 82.4308 47.6351 82.5457 47.994 82.581C47.4182 82.8132 46.7994 82.7395 46.1736 82.4184C45.5092 82.0776 44.8474 81.4612 44.2565 80.6589L44.842 80.3344C45.4631 81.1874 46.179 81.868 46.9257 82.2511Z" fill="#141414" stroke="#141414" stroke-width="0.392075" stroke-linejoin="round"/>
<path d="M44.622 80.0107L44.035 80.3361C42.3416 77.8101 41.7849 74.1402 43.1868 71.5527L43.5229 71.3663C42.367 74.0519 42.9912 77.5582 44.622 80.0107Z" fill="#141414" stroke="#141414" stroke-width="0.392075" stroke-linejoin="round"/>
<path d="M51.3318 84.1136L51.5611 83.9866C51.3469 84.3002 51.119 84.5819 50.8797 84.8303C51.0383 84.6062 51.1893 84.367 51.3318 84.1136Z" fill="#141414" stroke="#141414" stroke-width="0.392075" stroke-linejoin="round"/>
<path d="M49.9683 81.2348C49.8506 81.3835 49.7305 81.5129 49.6086 81.6245C49.6675 81.5335 49.7251 81.4381 49.7816 81.3383L49.9683 81.2348Z" fill="#141414" stroke="#141414" stroke-width="0.392075" stroke-linejoin="round"/>
<path d="M47.6836 77.4452L46.4652 75.7051L47.0515 75.3801L48.2699 77.1202L47.6836 77.4452Z" fill="#141414" stroke="#141414" stroke-width="0.392075" stroke-linejoin="round"/>
<path d="M44.0035 70.4556C43.9428 70.5488 43.8837 70.6461 43.8264 70.7472L43.6421 70.8493C43.7592 70.7017 43.88 70.5705 44.0035 70.4556Z" fill="#141414" stroke="#141414" stroke-width="0.392075" stroke-linejoin="round"/>
<path d="M41.8911 68.44C42.1204 68.1006 42.3651 67.7955 42.6213 67.5261C42.4462 67.7708 42.2798 68.0329 42.1231 68.3114L41.8911 68.44Z" fill="#141414" stroke="#141414" stroke-width="0.392075" stroke-linejoin="round"/>
<path d="M48.4041 77.0406L48.1201 77.198L49.7032 74.342L49.9872 74.1845L48.4041 77.0406Z" fill="#141414" stroke="#141414" stroke-width="0.392075" stroke-linejoin="round"/>
<path d="M49.8228 74.2776L50.4105 73.9518C51.4595 76.096 51.4648 78.6133 50.4248 80.532L50.0893 80.718C50.9377 78.7531 50.8392 76.3426 49.8228 74.2776Z" fill="#141414" stroke="#141414" stroke-width="0.392075" stroke-linejoin="round"/>
<path d="M45.6521 69.4653C46.0318 69.3059 46.4206 69.2825 46.7998 69.394C47.2008 69.512 47.6059 69.7857 47.9828 70.2385L47.4002 70.5614C46.9733 70.0302 46.4896 69.6842 45.9793 69.534C45.8706 69.502 45.7614 69.4792 45.6521 69.4653Z" fill="#141414" stroke="#141414" stroke-width="0.392075" stroke-linejoin="round"/>
<path d="M51.9663 83.3111L51.6443 83.4896C52.7501 81.1066 52.76 78.3805 52.1086 75.8868L52.6854 75.5671C53.3406 78.1514 53.2552 80.9497 51.9663 83.3111Z" fill="#141414" stroke="#141414" stroke-width="0.392075" stroke-linejoin="round"/>
<path d="M50.0522 69.0568L50.3362 68.8994L46.9666 74.9783L46.6826 75.1357L50.0522 69.0568Z" fill="#141414" stroke="#141414" stroke-width="0.392075" stroke-linejoin="round"/>
<path d="M47.3763 65.6362C48.1738 65.8399 48.9563 66.3612 49.6426 67.2537L49.0581 67.5777C48.3209 66.6016 47.4552 66.0058 46.5429 65.7726C46.2569 65.6995 45.9683 65.6625 45.6796 65.66C46.2448 65.5043 46.8186 65.4937 47.3763 65.6362Z" fill="#141414" stroke="#141414" stroke-width="0.392075" stroke-linejoin="round"/>
<path d="M48.1385 70.1549L47.8545 70.3123L49.1491 67.9767L49.4331 67.8193L48.1385 70.1549Z" fill="#141414" stroke="#141414" stroke-width="0.392075" stroke-linejoin="round"/>
<path d="M53.8201 78.2145L52.1683 75.8555L52.7546 75.5305L54.4064 77.8895L53.8201 78.2145Z" fill="#141414" stroke="#141414" stroke-width="0.392075" stroke-linejoin="round"/>
<path d="M54.5447 77.8092L54.2607 77.9667L55.1559 76.3517L55.4399 76.1943L54.5447 77.8092Z" fill="#141414" stroke="#141414" stroke-width="0.392075" stroke-linejoin="round"/>
<path d="M55.6683 75.6264L55.082 75.9514L50.1995 68.9785L50.7858 68.6535L55.6683 75.6264Z" fill="#141414" stroke="#141414" stroke-width="0.392075" stroke-linejoin="round"/>
<path d="M47.6195 77.7029L46.1749 75.6398L49.9032 68.9138L55.0118 76.2096L53.7579 78.4716L51.88 75.7896C52.6171 78.4922 52.567 81.4691 51.18 83.9713C49.1826 87.5745 45.5445 88.1529 42.5108 83.8205C39.451 79.4505 39.0665 73.0554 41.3301 68.9718C43.2719 65.4686 46.7414 64.6852 48.9961 67.8335L47.3428 70.8162C46.0225 69.0382 44.1913 69.3281 43.0373 71.4099C41.5283 74.1324 42.1569 78.007 43.9692 80.5952C45.6633 83.0147 48.0615 84.0366 49.6371 81.1941C50.7689 79.1522 50.7364 76.4518 49.5613 74.1997L47.6195 77.7029Z" fill="white"/>
</svg>
