<svg width="102" height="86" viewBox="0 0 102 86" fill="none" xmlns="http://www.w3.org/2000/svg">
<path d="M23.0226 68.5555C17.0225 68.5555 11.3754 67.703 7.08712 66.1517C2.49885 64.4979 0 62.2432 0 59.7997C0 57.3563 2.47061 55.1412 6.99535 53.5107C11.2519 51.9593 16.8778 51.1045 22.8778 51.1045C28.8779 51.1045 34.525 51.9593 38.8027 53.5083C43.3663 55.1505 45.8827 57.4006 45.8898 59.8463C45.8969 62.2921 43.4192 64.5212 38.8909 66.1587C34.6521 67.7007 29.0155 68.5555 23.0226 68.5555Z" fill="#121411"/>
<path d="M70.5181 72.4356C65.6166 72.4356 61.0035 71.52 57.5004 69.8537C53.7522 68.0774 51.7109 65.6557 51.7109 63.0312C51.7109 60.4068 53.7292 58.0276 57.4255 56.2763C60.9026 54.6101 65.4984 53.6919 70.3999 53.6919C75.3013 53.6919 79.9145 54.6101 83.4089 56.2738C87.1369 58.0376 89.1926 60.4543 89.1984 63.0813C89.2041 65.7082 87.1801 68.1024 83.481 69.8612C80.0183 71.5174 75.4138 72.4356 70.5181 72.4356Z" fill="#121411"/>
<path d="M49.0183 50.8422V56.7442C49.0183 59.3898 47.2723 62.0303 43.8006 64.0475C36.814 68.1021 25.4459 68.1021 18.4137 64.0475C14.8837 62.0075 13.1174 59.329 13.125 56.6529V50.751C13.125 53.427 14.8812 56.1056 18.4112 58.143C25.4434 62.1976 36.8115 62.1976 43.798 58.143C47.2723 56.1258 49.0107 53.4853 49.0183 50.8422Z" fill="#F7C800"/>
<g opacity="0.15">
<path d="M13.125 50.7754C13.125 53.4413 14.8989 56.1097 18.4112 58.1446C25.4434 62.1992 36.8089 62.1992 43.7955 58.1446C47.2697 56.1173 49.0081 53.4844 49.0132 50.8387V53.0814C48.9701 55.6941 47.2393 58.2941 43.8005 60.2834C36.814 64.338 25.4484 64.338 18.4162 60.2834C14.8913 58.251 13.125 55.5902 13.125 52.9167" fill="#544A00"/>
</g>
<path d="M43.7152 43.4273C50.7474 47.4819 50.7854 54.0706 43.7963 58.1252C36.8072 62.1798 25.4416 62.1798 18.4094 58.1252C11.3773 54.0706 11.3519 47.4819 18.341 43.4273C25.3301 39.3727 36.6957 39.3854 43.7152 43.4273Z" fill="#FEE425"/>
<path d="M31.1316 60.2986C26.8236 60.2986 22.769 59.3711 19.6901 57.6834C16.3957 55.8842 14.6016 53.4312 14.6016 50.7729C14.6016 48.1146 16.3754 45.7046 19.6242 43.9307C22.6803 42.243 26.7197 41.313 31.0277 41.313C35.3357 41.313 39.3903 42.243 42.4617 43.9282C45.7383 45.7148 47.5451 48.1627 47.5502 50.8235C47.5553 53.4844 45.7763 55.9095 42.525 57.691C39.4816 59.3686 35.4346 60.2986 31.1316 60.2986Z" fill="#141414"/>
<path d="M41.3972 56.7534C35.7562 60.0477 26.5168 60.0477 20.815 56.7534C15.1133 53.459 15.093 48.1222 20.7542 44.843C26.4154 41.5638 35.6346 41.5486 41.3363 44.843C47.0381 48.1374 47.0584 53.4793 41.3972 56.7534Z" fill="#F7C800"/>
<g opacity="0.4">
<path d="M41.3946 56.7551C35.7537 60.0495 26.5143 60.0495 20.8125 56.7551L41.3389 44.8447C47.0356 48.1239 47.0559 53.481 41.3946 56.7551Z" fill="white"/>
</g>
<path d="M31.5576 44.8672L33.0932 45.7541C34.6441 46.6487 35.9745 47.5508 35.2472 48.6304L31.0507 46.2153L28.8004 46.4687L34.0537 49.5097C33.0932 50.0697 30.7922 50.4651 28.1188 48.9218L26.8289 48.1767L25.5618 48.9066L24.3125 55.6296L26.6236 56.9625L27.9338 50.0165C30.255 51.2253 33.5392 51.7093 35.9897 50.6298L37.642 51.5826L39.8923 51.3292L37.3252 49.8239C37.7168 49.5303 37.9807 49.0976 38.0626 48.6151L40.4143 49.9734L42.6646 49.72L33.8205 44.6138L31.5576 44.8672Z" fill="#544A00"/>
<path d="M41.4239 44.6948C38.6364 43.0857 34.9467 42.1987 31.034 42.1987C27.1214 42.1987 23.4317 43.0857 20.667 44.6948C17.9022 46.304 16.3438 48.4681 16.3438 50.7767C16.3438 53.0853 17.9022 55.2849 20.7278 56.9194C23.5153 58.5286 27.2075 59.4155 31.1329 59.4155C35.0582 59.4155 38.7352 58.5286 41.4924 56.9194C44.2495 55.3103 45.8181 53.1385 45.813 50.8223C45.808 48.5062 44.247 46.3116 41.4239 44.6948ZM41.3023 56.6052C38.6009 58.184 34.9873 59.0532 31.1253 59.0532C27.2633 59.0532 23.6395 58.1764 20.9026 56.6052C18.1658 55.0341 16.7011 52.9713 16.7011 50.7767C16.7011 48.5822 18.1709 46.5549 20.8418 45.0091C23.5533 43.4303 27.1771 42.5636 31.0264 42.5636C34.8758 42.5636 38.5122 43.4328 41.2415 45.0091C43.9707 46.5853 45.4329 48.6227 45.4329 50.8173C45.4329 53.0118 43.9758 55.0518 41.3023 56.6052Z" fill="#544A00"/>
<path d="M49.198 50.8444C49.198 50.8444 49.198 50.8241 49.198 50.8165C49.198 47.9606 47.2797 45.2846 43.8054 43.2801C40.3869 41.306 35.8457 40.2163 31.0233 40.2163C26.2009 40.2163 21.6597 41.3085 18.2513 43.2902C14.8429 45.2719 12.9297 47.9403 12.9297 50.776V50.7963V56.6526C12.9297 59.5162 14.8353 62.1973 18.3096 64.2043C21.7383 66.1834 26.2845 67.2756 31.112 67.2756C35.9395 67.2756 40.473 66.1834 43.8789 64.2043C47.2848 62.2251 49.1803 59.5694 49.1854 56.7464V50.8419L49.198 50.8444ZM15.4638 61.5587C14.0472 60.0686 13.2946 58.3936 13.2997 56.6526V52.8844C13.7556 54.1313 14.4957 55.2549 15.4613 56.1661L15.4638 61.5587ZM19.0521 64.2068C18.8646 64.1055 18.6771 64.0041 18.4946 63.8977C17.5298 63.3491 16.634 62.6872 15.8262 61.9261V56.5056C16.5938 57.1893 17.4303 57.7914 18.3223 58.3023C18.5605 58.4392 18.8038 58.5709 19.0521 58.7002V64.2068ZM22.643 65.6868C21.534 65.3441 20.4551 64.911 19.417 64.3918V58.8852C20.4567 59.3931 21.5355 59.8168 22.643 60.1522V65.6868ZM26.7685 66.6142C25.4962 66.4326 24.2386 66.1599 23.0054 65.7983V60.2587C24.2392 60.6163 25.4967 60.8864 26.7685 61.067V66.6142ZM30.889 66.9183C29.6323 66.9103 28.3773 66.8256 27.1309 66.6649V61.1127C28.3773 61.2734 29.6323 61.3581 30.889 61.3661V66.9183ZM35.0095 66.6649C33.7641 66.827 32.5098 66.9117 31.2539 66.9183V61.3686C32.5095 61.3648 33.7637 61.2844 35.0095 61.1279V66.6649ZM39.135 65.8135C37.9027 66.1723 36.6458 66.4407 35.3744 66.6168V61.0797C36.6451 60.9043 37.9018 60.6393 39.135 60.2865V65.8135ZM42.7259 64.4146C41.6877 64.9328 40.6087 65.365 39.4999 65.707V60.1801C40.6067 59.8426 41.6853 59.4189 42.7259 58.913V64.4146ZM46.3167 61.9591C45.5242 62.7054 44.6454 63.3545 43.699 63.8926C43.4988 64.0092 43.2986 64.1207 43.0908 64.2296V58.7357C43.3645 58.5963 43.6331 58.4518 43.8916 58.2998C44.7581 57.8031 45.5708 57.218 46.3167 56.5538V61.9591ZM48.8255 56.7489C48.8255 58.467 48.0653 60.1193 46.6791 61.5916V56.2193C47.6179 55.333 48.3439 54.2457 48.8027 53.039C48.8027 53.0161 48.823 52.9933 48.8306 52.9705L48.8255 56.7489ZM44.2109 57.684C44.0462 57.7879 43.8814 57.8893 43.704 57.9906C43.5267 58.092 43.3543 58.1858 43.177 58.2821C39.8826 60.0559 35.6379 61.0113 31.1196 61.0113C26.3555 61.0113 21.8726 59.9394 18.4997 57.9906C15.1268 56.0419 13.3123 53.4926 13.3073 50.776C13.3022 48.0594 15.1268 45.5278 18.4363 43.6044C21.789 41.6557 26.2617 40.5812 31.0258 40.5812C35.79 40.5812 40.2602 41.6532 43.628 43.5968C46.9959 45.5405 48.8306 48.0974 48.8356 50.8165C48.8382 53.376 47.2113 55.7961 44.2109 57.6789V57.684Z" fill="#544A00"/>
<path d="M49.0236 42.9765V48.8785C49.0236 51.5241 47.2801 54.1621 43.8084 56.1818C36.8193 60.2364 25.4537 60.2364 18.419 56.1818C14.889 54.1418 13.1252 51.4633 13.1328 48.7872V42.8853C13.1328 45.5613 14.889 48.2399 18.419 50.2773C25.4537 54.3319 36.8193 54.3319 43.8084 50.2773C47.2801 48.2601 49.016 45.6196 49.0236 42.9765Z" fill="#F7C800"/>
<g opacity="0.15">
<path d="M13.1328 42.9219C13.1328 45.5852 14.9067 48.2562 18.419 50.2886C25.4486 54.3432 36.8142 54.3432 43.8033 50.2886C47.275 48.2613 49.0134 45.6283 49.021 42.9852V45.2279C48.9805 47.8381 47.2471 50.4406 43.8109 52.4299C36.8218 56.4845 25.4562 56.4845 18.4266 52.4299C14.9067 50.4026 13.1404 47.7316 13.1404 45.0632" fill="#544A00"/>
</g>
<path d="M43.723 35.5727C50.7577 39.6273 50.7932 46.216 43.8066 50.2706C36.82 54.3252 25.452 54.3252 18.4172 50.2706C11.3825 46.216 11.3623 39.6273 18.3488 35.5727C25.3354 31.5181 36.7035 31.5181 43.723 35.5727Z" fill="#FEE425"/>
<path opacity="0.15" d="M31.142 52.4304C26.834 52.4304 22.7794 51.5003 19.6979 49.8152C16.4035 48.0159 14.6094 45.5629 14.6094 42.9046C14.6094 40.2463 16.3833 37.8364 19.6345 36.0625C22.6755 34.3773 26.7301 33.4473 31.0381 33.4473C35.3461 33.4473 39.4007 34.3773 42.472 36.0625C45.7487 37.8364 47.558 40.297 47.5631 42.9578C47.5682 45.6186 45.7892 48.0438 42.5379 49.8253C39.4919 51.5003 35.4449 52.4304 31.142 52.4304Z" fill="#544A00"/>
<path d="M41.405 48.8886C35.764 52.183 26.5246 52.183 20.8228 48.8886C15.1211 45.5943 15.1008 40.2549 20.762 36.9783C26.4232 33.7017 35.6449 33.6839 41.3441 36.9783C47.0434 40.2726 47.0662 45.6146 41.405 48.8886Z" fill="#F7C800"/>
<g opacity="0.4">
<path d="M41.4024 48.8884C35.7615 52.1827 26.5221 52.1827 20.8203 48.8884L41.3467 36.978C47.0434 40.2546 47.0637 45.6143 41.4024 48.8884Z" fill="white"/>
</g>
<path d="M41.4322 36.8247C38.6446 35.213 34.955 34.3286 31.0423 34.3286C27.1296 34.3286 23.4399 35.213 20.6752 36.8247C17.9105 38.4364 16.3672 40.5955 16.3672 42.9066C16.3672 45.2177 17.9231 47.4148 20.7487 49.0468C23.5362 50.6585 27.2284 51.5429 31.1538 51.5429C35.0791 51.5429 38.7561 50.6585 41.5133 49.0468C44.3008 47.4326 45.839 45.2684 45.8365 42.9522C45.8339 40.636 44.2552 38.444 41.4322 36.8247ZM41.3105 48.7351C38.6092 50.3138 34.9955 51.1831 31.1335 51.1831C27.2715 51.1831 23.6426 50.3138 20.9109 48.7351C18.1791 47.1563 16.7118 45.1012 16.7118 42.9066C16.7118 40.7121 18.1816 38.6848 20.85 37.139C23.5616 35.5602 27.1853 34.691 31.0347 34.691C34.884 34.691 38.5205 35.5602 41.2522 37.139C43.984 38.7177 45.4488 40.7577 45.4513 42.9522C45.4538 45.1468 43.984 47.1867 41.3105 48.7326V48.7351Z" fill="#544A00"/>
<path d="M49.2058 42.9762V42.9508C49.2058 40.0949 47.2875 37.4188 43.8158 35.4143C40.3947 33.4377 35.8561 32.3506 31.0337 32.3506C26.2112 32.3506 21.6574 33.4428 18.2592 35.4219C14.8609 37.4011 12.9375 40.0746 12.9375 42.9103C12.9375 42.9103 12.9375 42.9229 12.9375 42.9305V48.7869C12.9375 51.6504 14.8406 54.3316 18.3149 56.3386C21.7461 58.3177 26.2898 59.4099 31.1198 59.4099C35.9498 59.4099 40.4809 58.3177 43.8867 56.3386C47.2926 54.3594 49.1856 51.7037 49.1932 48.8807V42.9762H49.2058ZM15.4691 53.693C14.0525 52.2029 13.2999 50.5278 13.3049 48.7869V45.0187C13.7597 46.2692 14.4988 47.397 15.464 48.313L15.4691 53.693ZM19.0599 56.331C18.8724 56.2296 18.6849 56.1282 18.4999 56.0218C17.5364 55.4804 16.6414 54.8253 15.834 54.0705V48.6399C16.6001 49.3247 17.4369 49.9262 18.3301 50.4341C18.5658 50.5734 18.8116 50.7052 19.0599 50.8319V56.331ZM22.6508 57.8109C21.5419 57.4681 20.463 57.035 19.4248 56.516V51.0144C20.465 51.5212 21.5437 51.9449 22.6508 52.2814V57.8109ZM26.7763 58.7384C25.5037 58.5574 24.246 58.2838 23.0132 57.9199V52.3929C24.2468 52.7509 25.5043 53.0202 26.7763 53.1988V58.7384ZM30.8968 59.0399C29.6401 59.0332 28.385 58.9486 27.1387 58.7865V53.2469C28.3851 53.4077 29.6401 53.4923 30.8968 53.5004V59.0399ZM35.0173 58.7865C33.772 58.9498 32.5177 59.0344 31.2617 59.0399V53.5029C32.5176 53.4948 33.7717 53.4102 35.0173 53.2495V58.7865ZM39.1403 57.9351C37.9085 58.2927 36.6526 58.5611 35.3822 58.7384V53.214C36.652 53.0383 37.9078 52.7733 39.1403 52.4208V57.9351ZM42.7337 56.5362C41.6951 57.0535 40.6162 57.4857 39.5078 57.8286V52.3144C40.6147 51.9775 41.6934 51.5538 42.7337 51.0473V56.5362ZM46.3245 54.0807C45.5311 54.826 44.6524 55.475 43.7068 56.0142C43.5066 56.1308 43.3039 56.2423 43.0986 56.3512V50.8699C43.3698 50.7306 43.6384 50.5861 43.8994 50.4341C44.7657 49.9361 45.5784 49.3502 46.3245 48.6855V54.0807ZM48.8333 48.8705C48.8333 50.5887 48.0731 52.2409 46.6869 53.7107V48.3485C47.6249 47.4615 48.3507 46.3744 48.8105 45.1682C48.8105 45.1454 48.8282 45.1226 48.8384 45.0998L48.8333 48.8705ZM44.2187 49.8132C44.054 49.9171 43.8867 50.0185 43.7119 50.1198C43.537 50.2212 43.3647 50.315 43.1873 50.4113C39.8929 52.1851 35.6458 53.1405 31.1274 53.1405C26.3658 53.1405 21.8829 52.0686 18.5075 50.1198C15.132 48.1711 13.3202 45.6268 13.3151 42.9204C13.31 40.214 15.132 37.6722 18.4441 35.7488C21.7968 33.8001 26.267 32.7256 31.0337 32.7256C35.8003 32.7256 40.268 33.795 43.6333 35.7387C46.9986 37.6824 48.8384 40.2418 48.8435 42.961C48.846 45.5103 47.2089 47.9304 44.2187 49.8132Z" fill="#544A00"/>
<path d="M46.1069 43.0812H52.0088C54.6544 43.0812 57.2925 41.3377 59.3122 37.866C63.3667 30.8769 63.3667 19.5113 59.3122 12.4766C57.2849 8.9466 54.5936 7.18285 51.9176 7.19045H46.0156C48.6917 7.19045 51.3702 8.9466 53.4077 12.4792C57.4622 19.5113 57.4622 30.8769 53.4077 37.866C51.3905 41.3377 48.7499 43.0736 46.1069 43.0812Z" fill="#F7C800"/>
<g opacity="0.15">
<path d="M46.0469 7.19092C48.7102 7.19092 51.3685 8.9648 53.4136 12.4771C57.4682 19.5067 57.4682 30.8723 53.4136 37.8614C51.3863 41.3331 48.7533 43.0715 46.1102 43.0791H48.3529C50.9631 43.0386 53.5656 41.3053 55.5549 37.869C59.6095 30.8799 59.6095 19.5143 55.5549 12.4847C53.5225 8.9648 50.8566 7.19092 48.1882 7.19092" fill="#544A00"/>
</g>
<path d="M38.7147 12.4073C42.7693 5.42074 49.358 5.45875 53.4126 12.4783C57.4672 19.4978 57.4672 30.876 53.4126 37.8651C49.358 44.8542 42.7693 44.8162 38.7147 37.7815C34.6601 30.7467 34.6551 19.3964 38.7147 12.4073Z" fill="#FEE425"/>
<path opacity="0.15" d="M55.5768 25.1976C55.5768 20.8896 54.6468 16.835 52.9616 13.7536C51.1624 10.4592 48.7094 8.66504 46.0511 8.66504C43.3928 8.66504 40.9828 10.4389 39.209 13.6902C37.5238 16.7311 36.5938 20.7857 36.5938 25.0937C36.5938 29.4017 37.5238 33.4563 39.209 36.5277C40.9828 39.8043 43.4435 41.6137 46.1043 41.6187C48.7651 41.6238 51.1903 39.8449 52.9718 36.5936C54.6392 33.545 55.5768 29.4904 55.5768 25.1976Z" fill="#544A00"/>
<path d="M52.0229 35.4601C55.3173 29.8192 55.3173 20.5798 52.0229 14.878C48.7286 9.17624 43.3892 9.15597 40.1126 14.8172C36.8359 20.4784 36.8182 29.7001 40.1126 35.4019C43.4069 41.1036 48.7463 41.1214 52.0229 35.4601Z" fill="#F7C800"/>
<g opacity="0.4">
<path d="M52.0276 35.462C55.3219 29.8211 55.3219 20.5817 52.0276 14.8799L40.1172 35.4063C43.3913 41.103 48.7509 41.1232 52.0276 35.462Z" fill="white"/>
</g>
<path d="M46.0845 39.8814C48.4007 39.8814 50.5649 38.3609 52.1791 35.5582C53.7908 32.8036 54.6752 29.1241 54.6752 25.1987C54.6752 21.2733 53.7984 17.5811 52.1791 14.7936C50.5471 11.9681 48.3653 10.4121 46.0389 10.4121C43.7126 10.4121 41.5687 11.9452 39.957 14.7328C38.3453 17.5203 37.4609 21.1796 37.4609 25.0999C37.4609 29.0202 38.3453 32.7022 39.957 35.4898C41.5687 38.2773 43.7532 39.8814 46.0845 39.8814ZM46.0845 39.5165C43.89 39.5165 41.8247 38.0214 40.2713 35.3174C38.7179 32.6135 37.8335 28.9543 37.8335 25.0948C37.8335 21.2353 38.7027 17.6217 40.2814 14.9102C41.8272 12.2417 43.8748 10.772 46.0491 10.772C48.2233 10.772 50.3089 12.2645 51.8775 14.971C53.4462 17.6774 54.3052 21.3316 54.3052 25.1835C54.3052 29.0354 53.436 32.6617 51.8573 35.3605C50.2785 38.0594 48.2664 39.5139 46.0845 39.5114V39.5165Z" fill="#544A00"/>
<path d="M46.1099 43.2658L52.0144 43.2532C54.8375 43.2532 57.4881 41.3627 59.4724 37.9467C61.4566 34.5307 62.5437 29.9972 62.5437 25.1823C62.5437 20.3675 61.4515 15.8061 59.4724 12.3774C57.4653 8.90315 54.7842 6.99242 51.9207 7.00002L46.0643 7.01269H46.0441C43.2084 7.01269 40.5476 8.89554 38.5557 12.3217C36.5639 15.7478 35.4844 20.2661 35.4844 25.0962C35.4844 29.9262 36.574 34.4572 38.5481 37.8783C40.5526 41.35 43.2286 43.2658 46.0846 43.2684H46.1099V43.2658ZM51.4316 9.52654C50.5192 8.56298 49.3959 7.82396 48.1499 7.36747H51.9181C53.6591 7.36747 55.3341 8.11504 56.8242 9.53161L51.4316 9.52654ZM53.9657 13.1174C53.839 12.864 53.7123 12.6232 53.5679 12.3876C53.0599 11.4943 52.4585 10.6576 51.7737 9.89146H57.1917C57.9514 10.6986 58.6108 11.5945 59.1556 12.5599C59.262 12.7423 59.3634 12.9299 59.4648 13.1174H53.9657ZM55.4203 16.7082C55.0838 15.6012 54.6601 14.5225 54.1532 13.4823H59.6548C60.1738 14.5205 60.6069 15.5994 60.9498 16.7082H55.4203ZM56.3326 20.8338C56.1539 19.5627 55.8846 18.3059 55.5267 17.0732H61.0537C61.4176 18.306 61.6911 19.5637 61.8722 20.8363L56.3326 20.8338ZM56.6367 24.9543C56.6287 23.6976 56.544 22.4426 56.3833 21.1962H61.9077C62.0697 22.4424 62.1543 23.6975 62.1611 24.9543H56.6367ZM56.3833 29.0747C56.5439 27.8292 56.6286 26.575 56.6367 25.3192H62.1737C62.1682 26.5751 62.0836 27.8295 61.9203 29.0747H56.3833ZM55.5445 33.1978C55.8972 31.9653 56.1623 30.7095 56.3377 29.4397H61.8696C61.6936 30.7102 61.4251 31.9663 61.0663 33.1978H55.5445ZM54.1761 36.7911C54.6826 35.7508 55.1062 34.6722 55.4431 33.5652H60.97C60.6271 34.6737 60.1949 35.7525 59.6776 36.7911H54.1761ZM51.8193 40.3871C52.4846 39.6414 53.0706 38.8287 53.5679 37.9619C53.7199 37.7085 53.8644 37.4323 54.0037 37.1611H59.4926C59.3837 37.3664 59.2722 37.5691 59.1556 37.7693C58.617 38.7154 57.9679 39.5941 57.2221 40.3871H51.8193ZM48.2234 42.8958L48.2918 42.868C49.4981 42.4082 50.5852 41.6823 51.4721 40.7444H56.8445C55.3722 42.1381 53.7199 42.8857 52.0018 42.8908L48.2234 42.8958ZM46.0745 42.8958C43.3554 42.8958 40.7908 41.0409 38.8522 37.6857C36.9136 34.3305 35.8392 29.8451 35.8392 25.086C35.8392 20.327 36.9136 15.8492 38.8624 12.4965C40.7858 9.18444 43.3325 7.36494 46.0339 7.36747C48.7353 7.37 51.31 9.21738 53.2435 12.5624C55.177 15.9075 56.2642 20.4182 56.2642 25.1823C56.2642 29.7032 55.2987 33.9555 53.5349 37.2422C53.4386 37.4196 53.3423 37.597 53.2435 37.7668C53.1447 37.9366 53.0408 38.1064 52.9369 38.2736C51.0642 41.2664 48.6441 42.9034 46.0846 42.9009L46.0745 42.8958Z" fill="#544A00"/>
<path d="M81.4534 67.5581C75.8125 70.8524 66.5705 70.8524 60.8688 67.5581C55.167 64.2637 55.1492 58.9243 60.8079 55.6477C66.4666 52.3711 75.6908 52.3534 81.3926 55.6477C87.0944 58.9421 87.1121 64.284 81.4534 67.5581Z" fill="#F7C800"/>
<g opacity="0.4">
<path d="M81.4597 67.5573C75.8187 70.8517 66.5768 70.8517 60.875 67.5573L81.4014 55.647C87.1006 58.9236 87.1184 64.2833 81.4597 67.5573Z" fill="white"/>
</g>
<path d="M71.6201 55.6722L73.1557 56.5592C74.7041 57.4537 76.0345 58.3559 75.3072 59.4354L71.1132 57.0128L68.8629 57.2662L74.1162 60.3071C73.1532 60.8672 70.8522 61.2625 68.1812 59.7192L66.8914 58.9742L65.6243 59.704L64.375 66.427L66.6861 67.76L67.9836 60.7988C70.3074 62.0075 73.5916 62.4916 76.0421 61.4095L77.6943 62.3649L79.9446 62.1114L77.3624 60.6214C77.7553 60.3286 78.0203 59.8957 78.1023 59.4126L80.4515 60.7684L82.7018 60.5149L73.8602 55.4087L71.6201 55.6722Z" fill="#544A00"/>
<path d="M81.4864 55.4942C78.6989 53.8825 75.0092 52.998 71.0965 52.998C67.1839 52.998 63.4942 53.8825 60.7295 55.4942C57.9647 57.1059 56.4062 59.2649 56.4062 61.576C56.4062 63.8872 57.9622 66.0842 60.7877 67.7162C63.5753 69.3279 67.27 70.2123 71.1928 70.2123C75.1157 70.2123 78.7952 69.3279 81.5549 67.7162C84.3145 66.1045 85.8781 63.9378 85.8755 61.6191C85.873 59.3004 84.3069 57.1135 81.4864 55.4942ZM81.3623 67.4045C78.6634 68.9833 75.0472 69.8525 71.1852 69.8525C67.3232 69.8525 63.6944 68.9833 60.9626 67.4045C58.2308 65.8258 56.7636 63.7706 56.7636 61.576C56.7636 59.3815 58.2334 57.3542 60.9043 55.8084C63.5753 54.2626 67.2396 53.3604 71.0889 53.3604C74.9383 53.3604 78.5722 54.2296 81.304 55.8084C84.0358 57.3871 85.5005 59.4271 85.503 61.6217C85.5056 63.8162 84.0358 65.8562 81.3623 67.402V67.4045Z" fill="#544A00"/>
<path d="M89.0783 53.7802V59.6822C89.0783 62.3252 87.3323 64.9658 83.8605 66.983C76.8739 71.0376 65.5084 71.0376 58.4737 66.983C54.9437 64.9557 53.1799 62.267 53.1875 59.5909V53.689C53.1875 56.365 54.9437 59.0436 58.4737 61.081C65.5084 65.1356 76.8739 65.1356 83.8605 61.081C87.3323 59.0689 89.0707 56.4233 89.0783 53.7802Z" fill="#F7C800"/>
<g opacity="0.15">
<path d="M53.1953 53.7139C53.1953 56.3772 54.9692 59.0355 58.484 61.0806C65.5137 65.1352 76.8792 65.1352 83.8683 61.0806C87.3401 59.0533 89.0785 56.4203 89.0835 53.7772V56.0199C89.0405 58.6301 87.3096 61.2301 83.8734 63.2219C76.8843 67.2765 65.5187 67.2765 58.4891 63.2219C54.9667 61.1946 53.2004 58.5236 53.2004 55.8527" fill="#544A00"/>
</g>
<path d="M83.7855 46.3779C90.8177 50.4325 90.8557 57.0212 83.8666 61.0758C76.8775 65.1304 65.5145 65.1304 58.4797 61.0758C51.445 57.0212 51.4248 50.4325 58.4113 46.3779C65.3979 42.3233 76.766 42.3258 83.7855 46.3779Z" fill="#FEE425"/>
<path opacity="0.15" d="M71.1941 63.236C66.8861 63.236 62.8315 62.306 59.7526 60.6208C56.4582 58.8216 54.6641 56.366 54.6641 53.7103C54.6641 51.0545 56.4379 48.642 59.6892 46.8681C62.7302 45.183 66.7848 44.2529 71.0928 44.2529C75.4008 44.2529 79.4554 45.183 82.5267 46.8681C85.8033 48.642 87.6127 51.1027 87.6152 53.7635C87.6178 56.4243 85.8414 58.8495 82.5926 60.6284C79.5466 62.306 75.4971 63.236 71.1941 63.236Z" fill="#544A00"/>
<path d="M81.4597 59.6924C75.8187 62.9867 66.5793 62.9867 60.8775 59.6924C55.1758 56.398 55.1555 51.0586 60.8167 47.782C66.4779 44.5054 75.6971 44.4876 81.3988 47.782C87.1006 51.0763 87.1107 56.4157 81.4597 59.6924Z" fill="#F7C800"/>
<g opacity="0.4">
<path d="M81.4571 59.6936C75.8162 62.9879 66.5768 62.9879 60.875 59.6936L81.4014 47.7832C87.1082 51.0598 87.1082 56.417 81.4571 59.6936Z" fill="white"/>
</g>
<path d="M71.6279 47.8046L73.1661 48.6915C74.7144 49.5861 76.0448 50.4857 75.3175 51.5678L71.121 49.1451L68.8707 49.3986L74.1265 52.4395C73.1635 52.997 70.8626 53.3923 68.1916 51.8516L66.8992 51.0913L65.6321 51.8237L64.3828 58.5467L66.6939 59.8797L67.9939 52.9184C70.3152 54.1247 73.5994 54.6112 76.0524 53.5292L77.7148 54.5073L79.9651 54.2539L77.3828 52.7613C77.7748 52.4688 78.0396 52.0371 78.1228 51.5551L80.4719 52.9108L82.7222 52.6574L73.8782 47.5537L71.6279 47.8046Z" fill="#544A00"/>
<path d="M81.4948 47.626C78.7073 46.0168 75.0176 45.1299 71.1049 45.1299C67.1922 45.1299 63.5025 46.0168 60.7378 47.626C57.9731 49.2352 56.4146 51.3993 56.4298 53.7079C56.445 56.0165 57.9858 58.2161 60.8113 59.8481C63.5988 61.4572 67.291 62.3442 71.2164 62.3442C75.1417 62.3442 78.8188 61.4572 81.5759 59.8481C84.333 58.2389 85.9016 56.0697 85.8991 53.751C85.8966 51.4322 84.3279 49.2478 81.4948 47.626ZM81.3731 59.5364C78.6718 61.1151 75.0581 61.9843 71.1961 61.9843C67.3341 61.9843 63.7027 61.1151 60.9735 59.5364C58.2442 57.9576 56.7744 55.9024 56.7719 53.7079C56.7694 51.5133 58.2417 49.4835 60.9127 47.9402C63.6242 46.3615 67.248 45.4923 71.0973 45.4923C74.9466 45.4923 78.5831 46.3615 81.3123 47.9402C84.0416 49.519 85.5114 51.5589 85.5139 53.751C85.5164 55.943 84.0466 57.9905 81.3731 59.5364Z" fill="#544A00"/>
<path d="M89.2683 53.7805V53.7476C89.2683 50.8942 87.35 48.2181 83.8783 46.2137C80.4572 44.237 75.9161 43.1499 71.0962 43.1499C66.2763 43.1499 61.7199 44.2396 58.3217 46.2213C54.9234 48.2029 53 50.8739 53 53.7096V53.7476V59.604C53 62.4675 54.9031 65.1486 58.3774 67.1531C61.8086 69.1348 66.3523 70.2244 71.1798 70.2244C76.0073 70.2244 80.5408 69.1348 83.9467 67.1531C87.3525 65.1714 89.2481 62.5207 89.2557 59.6952V53.7932L89.2683 53.7805ZM55.5316 64.4973C54.115 63.0073 53.3624 61.3322 53.3675 59.5913V55.823C53.8231 57.0687 54.5623 58.1914 55.5265 59.1022L55.5316 64.4973ZM59.1199 67.1354C58.9324 67.0315 58.7449 66.9326 58.5624 66.8262C57.5984 66.2793 56.7027 65.6201 55.894 64.8622V59.4418C56.6603 60.127 57.497 60.7293 58.3901 61.2385C58.6283 61.3753 58.8716 61.5071 59.1199 61.6363V67.1354ZM62.7108 68.6153C61.6055 68.2716 60.53 67.8385 59.495 67.3203V61.8188C60.5344 62.3252 61.6123 62.7489 62.7184 63.0858L62.7108 68.6153ZM66.8439 69.5402C65.5722 69.36 64.3153 69.0873 63.0833 68.7243V63.1973C64.3162 63.5543 65.5729 63.8236 66.8439 64.0032V69.5402ZM70.9644 69.8443C69.7085 69.8363 68.4544 69.7517 67.2088 69.5909V64.0513C68.4544 64.212 69.7085 64.2966 70.9644 64.3047V69.8443ZM75.0849 69.5909C73.8403 69.7529 72.5869 69.8376 71.3318 69.8443V64.3073C72.5868 64.2992 73.8402 64.2146 75.0849 64.0539V69.5909ZM79.2104 68.7395C77.9786 69.0971 76.7227 69.3655 75.4523 69.5428V64.0159C76.7223 63.8422 77.9782 63.578 79.2104 63.2252V68.7395ZM82.8013 67.3406C81.7634 67.859 80.6844 68.2904 79.5753 68.6305V63.1238C80.683 62.789 81.7618 62.3653 82.8013 61.8568V67.3406ZM86.3921 64.8825C85.6004 65.6306 84.7215 66.2806 83.7744 66.8186C83.5767 66.9352 83.374 67.0467 83.1687 67.1556V61.6743C83.4399 61.5324 83.7085 61.3905 83.9695 61.2385C84.8355 60.7412 85.6474 60.1552 86.3921 59.4899V64.8825ZM88.9009 59.6749C88.9009 61.393 88.1406 63.0453 86.757 64.5151V59.1529C87.6942 58.2652 88.4199 57.1784 88.8806 55.9726C88.8806 55.9472 88.8984 55.9269 88.906 55.9016L88.9009 59.6749ZM84.2888 60.61C84.1241 60.7114 83.9568 60.8153 83.782 60.9141C83.6071 61.0129 83.4323 61.1118 83.2549 61.2081C79.9605 62.9693 75.7159 63.9373 71.1975 63.9373C66.4334 63.9373 61.9531 62.8654 58.5776 60.9166C55.2022 58.9679 53.3852 56.4236 53.3827 53.7071C53.3801 50.9905 55.1996 48.4589 58.5092 46.533C61.8644 44.5842 66.3345 43.5123 71.1012 43.5123C75.8679 43.5123 80.333 44.5817 83.7009 46.5254C87.0687 48.469 88.8907 51.0336 88.9034 53.7476C88.9085 56.3121 87.2689 58.7347 84.2812 60.6176L84.2888 60.61Z" fill="#544A00"/>
<path d="M89.0964 45.9119V51.8164C89.0964 54.4595 87.3504 57.1001 83.8787 59.1172C76.8896 63.1718 65.524 63.1718 58.4919 59.1172C54.9618 57.0899 53.1955 54.4012 53.2031 51.7252V45.8232C53.2031 48.4967 54.9618 51.1753 58.4919 53.2153C65.524 57.2699 76.8896 57.2699 83.8787 53.2153C87.3504 51.1981 89.0888 48.5576 89.0964 45.9119Z" fill="#F7C800"/>
<g opacity="0.15">
<path d="M53.1953 45.8472C53.1953 48.5105 54.9692 51.1688 58.4815 53.2139C65.5137 57.2684 76.8792 57.2684 83.8658 53.2139C87.3375 51.1866 89.0785 48.5536 89.0835 45.9105V48.1532C89.0404 50.7634 87.3096 53.3634 83.8708 55.3552C76.8843 59.4098 65.5187 59.4098 58.4866 55.3552C54.9667 53.3279 53.2004 50.6569 53.2004 47.986" fill="#544A00"/>
</g>
<path d="M83.7908 38.5097C90.8255 42.5643 90.8635 49.153 83.8744 53.2076C76.8853 57.2622 65.5198 57.2622 58.4876 53.2076C51.4554 49.153 51.43 42.5643 58.4191 38.5097C65.4082 34.4551 76.7713 34.4577 83.7908 38.5097Z" fill="#FEE425"/>
<path d="M71.2098 55.3703C66.9018 55.3703 62.8472 54.4403 59.7682 52.7526C56.4865 50.9609 54.6797 48.5003 54.6797 45.8445C54.6797 43.1888 56.4536 40.7763 59.7048 39.0024C62.761 37.3172 66.8004 36.3872 71.1084 36.3872C75.4164 36.3872 79.471 37.3147 82.5423 39.0024C85.819 40.7763 87.6258 43.2369 87.6309 45.8978C87.6359 48.5586 85.857 50.9837 82.6057 52.7627C79.5597 54.4403 75.5127 55.3703 71.2098 55.3703Z" fill="#141414"/>
<path d="M81.4753 51.8266C75.8343 55.121 66.5949 55.121 60.8931 51.8266C55.1914 48.5323 55.1711 43.1929 60.8323 39.9163C66.4936 36.6397 75.7127 36.6219 81.4145 39.9163C87.1162 43.2106 87.1365 48.55 81.4753 51.8266Z" fill="#F7C800"/>
<g opacity="0.4">
<path d="M81.4728 51.8244C75.8318 55.1188 66.5924 55.1188 60.8906 51.8244L81.417 39.9141C87.1137 43.1907 87.134 48.5478 81.4728 51.8244Z" fill="white"/>
</g>
<path d="M71.6334 39.9397L73.1741 40.8241C74.7224 41.7187 76.0529 42.6208 75.3256 43.7029L71.1316 41.2803L68.8813 41.5337L74.1345 44.5746C73.1741 45.1321 70.8731 45.5275 68.1996 43.9842L66.9098 43.2392L65.6427 43.9715L64.3984 50.7072L66.7096 52.0427L68.007 45.0815C70.3308 46.2877 73.615 46.7717 76.0655 45.6922L77.7178 46.645L79.9681 46.3916L77.3858 44.899C77.7781 44.6068 78.0431 44.1749 78.1258 43.6928L80.4749 45.0485L82.7252 44.7951L73.8836 39.6787L71.6334 39.9397Z" fill="#544A00"/>
<path d="M81.5021 39.7598C78.7145 38.1506 75.0249 37.2637 71.1122 37.2637C67.1995 37.2637 63.5098 38.1506 60.7451 39.7598C57.9804 41.3689 56.4219 43.5331 56.4219 45.8417C56.4219 48.1503 57.9702 50.3524 60.7983 51.9742C63.5858 53.5834 67.278 54.4704 71.2034 54.4704C75.1288 54.4704 78.8058 53.5834 81.5629 51.9742C84.32 50.3651 85.8886 48.1933 85.8709 45.8771C85.8532 43.561 84.3251 41.3816 81.5021 39.7598ZM81.3804 51.6701C78.6791 53.2464 75.0654 54.1156 71.2034 54.1156C67.3414 54.1156 63.71 53.2464 60.9808 51.6701C58.2515 50.0939 56.7792 48.0337 56.7792 45.8417C56.7792 43.6497 58.249 41.6198 60.9199 40.0765C63.6289 38.4978 67.2552 37.6286 71.1046 37.6286C74.9539 37.6286 78.5878 38.4978 81.3196 40.0765C84.0514 41.6553 85.5161 43.6953 85.5186 45.8924C85.5212 48.0894 84.0539 50.1218 81.3804 51.6701Z" fill="#544A00"/>
<path d="M89.2761 45.9141C89.2761 45.9141 89.2761 45.8964 89.2761 45.8863C89.2761 43.0328 87.3578 40.3568 83.8835 38.3523C80.4625 36.3757 75.9239 35.2886 71.1014 35.2886C66.279 35.2886 61.7379 36.3782 58.3295 38.3599C54.9211 40.3416 53.0078 43.01 53.0078 45.8483V45.8685L53.0103 51.7198C53.0103 54.5808 54.9135 57.2645 58.3903 59.269C61.819 61.2481 66.3652 62.3403 71.1927 62.3403C76.0202 62.3403 80.5537 61.2481 83.9596 59.269C87.3654 57.2898 89.2609 54.6366 89.266 51.811V45.9091L89.2761 45.9141ZM55.5419 56.6309C54.1254 55.1409 53.3727 53.4633 53.3753 51.7249V47.9566C53.8319 49.2024 54.5719 50.325 55.5369 51.2358L55.5419 56.6309ZM59.1302 59.2664C58.9427 59.1651 58.7552 59.0662 58.5727 58.9598C57.6079 58.4142 56.7121 57.7548 55.9043 56.9959V51.5754C56.6697 52.2618 57.5065 52.8642 58.4004 53.3721C58.6386 53.5089 58.8819 53.6407 59.1302 53.7699V59.2664ZM62.7211 60.7489C61.6123 60.4047 60.5334 59.9708 59.4952 59.4514V53.9524C60.5353 54.4592 61.614 54.8829 62.7211 55.2194V60.7489ZM66.8441 61.6738C65.5716 61.4936 64.3138 61.2209 63.0809 60.8579V55.3309C64.3148 55.6877 65.5723 55.957 66.8441 56.1368V61.6738ZM70.9646 61.9779C69.7079 61.9698 68.4529 61.8852 67.2065 61.7245V56.1849C68.453 56.3445 69.708 56.4291 70.9646 56.4383V61.9779ZM75.0851 61.7245C73.8395 61.8853 72.5854 61.9699 71.3295 61.9779V56.4409C72.5854 56.4328 73.8395 56.3482 75.0851 56.1875V61.7245ZM79.2106 60.8705C77.9818 61.2323 76.7284 61.5041 75.4601 61.684V56.1495C76.7308 55.9741 77.9875 55.709 79.2208 55.3563L79.2106 60.8705ZM82.8091 59.4818C81.7706 59.9987 80.6917 60.4301 79.5831 60.7717V55.2498C80.6901 54.9203 81.7689 54.5025 82.8091 54.0005V59.4818ZM86.3999 57.0237C85.6071 57.7704 84.7283 58.4203 83.7822 58.9598C83.582 59.0764 83.3818 59.1879 83.174 59.2968V53.8079C83.4477 53.666 83.7163 53.5216 83.9748 53.3721C84.8414 52.8745 85.6541 52.2885 86.3999 51.6235V57.0237ZM88.9087 51.8136C88.9087 53.5317 88.1485 55.184 86.7623 56.6563V51.2865C87.7024 50.4003 88.4301 49.3131 88.891 48.1062C88.891 48.0808 88.9112 48.0605 88.9188 48.0352L88.9087 51.8136ZM84.2941 52.7512C84.1293 52.8526 83.9646 52.9565 83.7872 53.0553C83.6099 53.1541 83.4375 53.253 83.2601 53.3492C79.9658 55.1105 75.7211 56.0785 71.2028 56.0785C66.4387 56.0785 61.9558 55.004 58.5829 53.0578C55.21 51.1116 53.3905 48.5648 53.3854 45.8457C53.3803 43.1266 55.2024 40.5976 58.5145 38.6742C61.8671 36.7254 66.3398 35.6535 71.104 35.6535C75.8681 35.6535 80.3383 36.7229 83.7036 38.6666C87.0689 40.6102 88.9087 43.1672 88.9138 45.8863C88.9163 48.4457 87.2793 50.8658 84.289 52.7512H84.2941Z" fill="#544A00"/>
<path d="M89.1017 38.037V43.9415C89.1017 46.5846 87.3557 49.2252 83.8865 51.2423C76.8974 55.2969 65.5319 55.2969 58.4971 51.2423C54.9671 49.215 53.2034 46.5263 53.211 43.8503V37.9458C53.211 40.6218 54.9671 43.3004 58.4971 45.3404C65.5319 49.395 76.8974 49.395 83.8865 45.3404C87.3684 43.3308 89.0941 40.6928 89.1017 38.037Z" fill="#F7C800"/>
<g opacity="0.15">
<path d="M53.2188 37.9824C53.2188 40.6483 54.9926 43.3167 58.5049 45.3516C65.5346 49.4062 76.9001 49.4062 83.8892 45.3516C87.361 43.3243 89.0994 40.6914 89.1044 38.0483V40.2885C89.0613 42.9012 87.3305 45.5012 83.8943 47.4904C76.9052 51.545 65.5396 51.545 58.51 47.4904C54.9876 45.4631 53.2238 42.7947 53.2238 40.1238" fill="#544A00"/>
</g>
<path d="M83.8089 30.6445C90.8436 34.6991 90.8791 41.2878 83.8925 45.3424C76.906 49.397 65.5379 49.397 58.5032 45.3424C51.4685 41.2878 51.4482 34.6991 58.4348 30.6445C65.4213 26.5899 76.7894 26.5899 83.8089 30.6445Z" fill="#FEE425"/>
<path opacity="0.15" d="M71.2174 47.5021C66.9094 47.5021 62.8548 46.5747 59.7758 44.8869C56.4941 43.0902 54.6797 40.6347 54.6797 37.9764C54.6797 35.3181 56.4536 32.9081 59.7048 31.1343C62.7585 29.4465 66.8004 28.519 71.1084 28.519C75.4164 28.519 79.471 29.4465 82.5423 31.1343C85.819 32.9081 87.6283 35.3662 87.6309 38.0271C87.6334 40.6879 85.8494 43.1054 82.6133 44.8793C79.5698 46.5721 75.5228 47.5021 71.2174 47.5021Z" fill="#544A00"/>
<path d="M81.4831 43.9604C75.8421 47.2548 66.6027 47.2548 60.901 43.9604C55.1992 40.6661 55.1789 35.3267 60.8401 32.0501C66.5014 28.7734 75.7205 28.7557 81.4223 32.0501C87.124 35.3444 87.1443 40.6838 81.4831 43.9604Z" fill="#F7C800"/>
<g opacity="0.4">
<path d="M81.4884 43.9631C75.8474 47.2575 66.608 47.2575 60.9062 43.9631L81.4326 32.0527C87.1217 35.3294 87.1496 40.6865 81.4884 43.9631Z" fill="white"/>
</g>
<path d="M71.6591 32.0715L73.1796 32.9685C74.7279 33.8631 76.0583 34.7652 75.331 35.8473L71.1523 33.4146L68.902 33.668L74.1578 36.7089C73.1948 37.2664 70.8938 37.6617 68.2228 36.1185L66.9304 35.3734L65.6634 36.1033L64.4141 42.8516L66.7226 44.1871L68.0226 37.2259C70.3464 38.4321 73.6281 38.9161 76.0812 37.8366L77.7334 38.7894L79.9837 38.536L77.4014 37.0231C77.7938 36.7309 78.0587 36.2991 78.1414 35.8169L80.4905 37.1727L82.7408 36.9192L73.8993 31.813L71.6591 32.0715Z" fill="#544A00"/>
<path d="M81.5103 31.8941C78.7228 30.2849 75.0331 29.3979 71.1204 29.3979C67.2077 29.3979 63.518 30.2849 60.7533 31.8941C57.9886 33.5032 56.4453 35.6674 56.4453 37.9759C56.4453 40.2845 57.9709 42.4841 60.8065 44.1187C63.5941 45.7278 67.2863 46.6148 71.2116 46.6148C75.137 46.6148 78.814 45.7278 81.5711 44.1187C84.3282 42.5095 85.8969 40.3377 85.8943 38.0216C85.8918 35.7054 84.3257 33.5159 81.5103 31.8941ZM81.3887 43.8044C78.6873 45.3806 75.0736 46.2499 71.2116 46.2499C67.3496 46.2499 63.7208 45.3806 60.989 43.8019C58.2572 42.2231 56.79 40.168 56.79 37.9734C56.79 35.7789 58.2597 33.7516 60.9282 32.2058C63.6397 30.6295 67.2635 29.7603 71.1128 29.7603C74.9621 29.7603 78.5986 30.6295 81.3304 32.2083C84.0622 33.787 85.5269 35.8245 85.5294 38.019C85.532 40.2136 84.0723 42.2561 81.3887 43.8044Z" fill="#544A00"/>
<path d="M89.287 38.0479V38.0201C89.287 35.1641 87.3686 32.4881 83.8969 30.4836C80.4758 28.5095 75.9372 27.4224 71.1148 27.4224C66.2924 27.4224 61.7386 28.512 58.3403 30.4937C54.942 32.4754 53.0186 35.1438 53.0313 37.982V38.0023V43.8587C53.0313 46.7197 54.9344 49.4033 58.4087 51.4078C61.8399 53.387 66.3836 54.4792 71.2111 54.4792C76.0386 54.4792 80.5747 53.387 83.9805 51.4078C87.3864 49.4287 89.2794 46.7754 89.287 43.9499L89.2996 38.0479H89.287ZM55.5502 48.7647C54.1337 47.2721 53.381 45.5971 53.3861 43.8587V40.0904C53.8427 41.3357 54.5817 42.4581 55.5452 43.3696L55.5502 48.7647ZM59.1385 51.4002C58.951 51.2988 58.7635 51.2 58.581 51.0911C57.6175 50.5456 56.7226 49.8872 55.9151 49.1296V43.7092C56.6801 44.395 57.516 44.9973 58.4087 45.5058C58.6469 45.6427 58.8927 45.7745 59.1385 45.9037V51.4002ZM62.7319 52.8827C61.6195 52.5395 60.5372 52.1056 59.4959 51.5852V46.0862C60.5365 46.5919 61.6151 47.0156 62.7218 47.3532L62.7319 52.8827ZM66.8448 53.8076C65.5766 53.6241 64.3232 53.3497 63.0943 52.9866V47.4622C64.324 47.8191 65.5773 48.0892 66.8448 48.2706V53.8076ZM70.9653 54.1117C69.7095 54.1024 68.4554 54.0178 67.2097 53.8583V48.3162C68.4553 48.4769 69.7094 48.5615 70.9653 48.5696V54.1117ZM75.0858 53.8583C73.8412 54.0204 72.5878 54.105 71.3327 54.1117V48.5747C72.5877 48.5666 73.8411 48.482 75.0858 48.3213V53.8583ZM79.2113 53.0068C77.9825 53.3679 76.729 53.6389 75.4608 53.8178V48.2832C76.7306 48.1076 77.9864 47.8425 79.2189 47.4901L79.2113 53.0068ZM82.8098 51.6156C81.7721 52.1325 80.6941 52.5639 79.5864 52.9055V47.3836C80.6927 47.0472 81.7705 46.6235 82.8098 46.1166V51.6156ZM86.4031 49.1575C85.6099 49.9042 84.7302 50.5533 83.7829 51.0911C83.5852 51.2076 83.3825 51.3191 83.1772 51.4281V45.9417C83.4484 45.7998 83.717 45.6554 83.978 45.5058C84.8438 45.0071 85.6564 44.4212 86.4031 43.7573V49.1575ZM88.9119 43.9474C88.9119 45.6655 88.1517 47.3177 86.7655 48.7901V43.4177C87.7036 42.5303 88.4302 41.4434 88.8917 40.2374L88.917 40.169L88.9119 43.9474ZM84.2998 44.8774C84.1351 44.9813 83.9679 45.0852 83.793 45.184C83.6181 45.2828 83.4458 45.3817 83.2684 45.478C79.9741 47.2519 75.7269 48.2072 71.2086 48.2072C66.4444 48.2072 61.9641 47.1328 58.5886 45.184C55.2132 43.2353 53.3962 40.691 53.3937 37.9744C53.3912 35.2579 55.2107 32.7263 58.5202 30.8029C61.8754 28.8541 66.3456 27.7797 71.1123 27.7797C75.8789 27.7797 80.3466 28.8516 83.7119 30.7953C87.0772 32.7389 88.917 35.2959 88.9195 38.015C88.9271 40.5694 87.2876 42.9996 84.2998 44.8774Z" fill="#544A00"/>
<path d="M89.1095 30.1801V36.0846C89.1095 38.7277 87.3635 41.3682 83.8918 43.3854C76.9052 47.44 65.5371 47.44 58.5049 43.3854C54.9749 41.3454 53.2112 38.6669 53.2188 35.9934V30.0889C53.2188 32.7649 54.9749 35.4435 58.5049 37.4809C65.5397 41.5355 76.9052 41.5355 83.8918 37.4809C87.3661 35.4637 89.1019 32.8232 89.1095 30.1801Z" fill="#F7C800"/>
<g opacity="0.15">
<path d="M53.2266 30.1133C53.2266 32.7792 55.0004 35.4349 58.5127 37.4825C65.5449 41.5371 76.9105 41.5371 83.897 37.4825C87.3713 35.4552 89.1097 32.8223 89.1148 30.1792V32.4193C89.0717 35.032 87.3409 37.632 83.9021 39.6213C76.9155 43.6759 65.55 43.6759 58.5178 39.6213C54.9979 37.594 53.2316 34.923 53.2316 32.2546" fill="#544A00"/>
</g>
<path d="M83.8177 22.7753C90.8499 26.8299 90.8879 33.4187 83.8988 37.4732C76.9097 41.5278 65.5467 41.5278 58.512 37.4732C51.4772 33.4187 51.4544 26.8299 58.4435 22.7753C65.4326 18.7208 76.7906 18.7233 83.8177 22.7753Z" fill="#FEE425"/>
<path d="M71.2254 39.6364C66.9174 39.6364 62.8628 38.7089 59.7838 37.0212C56.5021 35.222 54.6953 32.769 54.6953 30.1107C54.6953 27.4524 56.4692 25.0424 59.7179 23.2685C62.7741 21.5808 66.8135 20.6533 71.1215 20.6533C75.4295 20.6533 79.479 21.5656 82.5529 23.2609C85.8295 25.0348 87.6389 27.4929 87.6414 30.1537C87.6439 32.8146 85.8675 35.2423 82.6163 37.0212C79.5753 38.7064 75.5283 39.6364 71.2254 39.6364Z" fill="#141414"/>
<path d="M81.4909 36.0947C75.85 39.3891 66.6105 39.3891 60.9088 36.0947C55.207 32.8003 55.1867 27.461 60.848 24.1843C66.5092 20.9077 75.7283 20.89 81.4301 24.1843C87.1319 27.4787 87.1521 32.8181 81.4909 36.0947Z" fill="#F7C800"/>
<g opacity="0.4">
<path d="M81.4884 36.093C75.8474 39.3873 66.608 39.3873 60.9062 36.093L81.4326 24.1826C87.1293 27.4592 87.1496 32.8164 81.4884 36.093Z" fill="white"/>
</g>
<path d="M71.6591 24.2044L73.1948 25.0913C74.7457 25.9859 76.0761 26.888 75.3488 27.9676L71.1523 25.5475L68.902 25.8009L74.1552 28.8418C73.1948 29.4019 70.8938 29.7972 68.2203 28.2539L66.9304 27.5089L65.6634 28.2387L64.4141 34.9617L66.7252 36.2947L68.0252 29.3335C70.3464 30.5422 73.6307 31.0263 76.0812 29.9467L77.7334 30.8995L79.9837 30.6461L77.4116 29.1662C77.8031 28.8726 78.0671 28.4399 78.149 27.9574L80.5007 29.3157L82.751 29.0623L73.9069 23.9561L71.6591 24.2044Z" fill="#544A00"/>
<path d="M81.5255 24.0283C78.738 22.4192 75.0483 21.5322 71.1356 21.5322C67.2229 21.5322 63.5332 22.4192 60.7685 24.0283C58.0038 25.6375 56.4453 27.8016 56.4453 30.1102C56.4453 32.4188 58.0038 34.6184 60.8293 36.2529C63.6169 37.8621 67.3091 38.749 71.2344 38.749C75.1598 38.749 78.8368 37.8621 81.5939 36.2529C84.3511 34.6438 85.9121 32.4619 85.907 30.1558C85.9019 27.8498 84.3485 25.6502 81.5255 24.0283ZM81.4039 35.9387C78.7025 37.5175 75.0888 38.3867 71.2268 38.3867C67.3648 38.3867 63.7334 37.5175 61.0042 35.9387C58.2749 34.3599 56.8026 32.3048 56.8026 30.1102C56.8026 27.9157 58.2724 25.8884 60.9434 24.3426C63.6549 22.7638 67.2787 21.8971 71.128 21.8971C74.9773 21.8971 78.6138 22.7663 81.343 24.3426C84.0723 25.9188 85.5396 27.9613 85.5446 30.1558C85.5497 32.3504 84.0774 34.3904 81.4039 35.9362V35.9387Z" fill="#544A00"/>
<path d="M89.2888 30.1803C89.2888 30.1803 89.2888 30.1601 89.2888 30.1525C89.2888 27.2965 87.3705 24.6205 83.8987 22.616C80.4777 20.6419 75.9365 19.5522 71.1141 19.5522C66.2917 19.5522 61.7505 20.6445 58.3421 22.6261C54.9337 24.6078 53.0205 27.2762 53.0205 30.1119V30.1322L53.0078 35.9886C53.0078 38.8521 54.9135 41.5332 58.3877 43.5402C61.8164 45.5194 66.3626 46.6116 71.1901 46.6116C76.0176 46.6116 80.5512 45.5194 83.957 43.5402C87.3629 41.5611 89.2584 38.9079 89.266 36.0823V30.1803H89.2888ZM55.5546 40.8971C54.138 39.4071 53.3854 37.732 53.3905 35.9911V32.2228C53.8474 33.4691 54.5884 34.5918 55.5546 35.502V40.8971ZM59.1429 43.5352C58.9554 43.4338 58.7679 43.3324 58.5854 43.226C57.6211 42.6806 56.7253 42.0221 55.917 41.2646V35.8441C56.6846 36.5278 57.5211 37.1299 58.4131 37.6408C58.6513 37.7776 58.8946 37.9094 59.1429 38.0387V43.5352ZM62.7338 45.0176C61.6251 44.673 60.5463 44.2391 59.5078 43.7202V38.2211C60.548 38.728 61.6267 39.1517 62.7338 39.4882V45.0176ZM66.8593 45.9426C65.5872 45.7626 64.3295 45.4916 63.0962 45.1317V39.5971C64.33 39.9547 65.5875 40.2249 66.8593 40.4055V45.9426ZM70.9798 46.2467C69.7232 46.2373 68.4682 46.1527 67.2217 45.9933V40.4511C68.4681 40.6119 69.7231 40.6965 70.9798 40.7046V46.2467ZM75.1003 45.9933C73.8549 46.1554 72.6006 46.24 71.3447 46.2467V40.7071C72.6003 40.7032 73.8545 40.6228 75.1003 40.4663V45.9933ZM79.2258 45.1418C77.99 45.5024 76.7298 45.7735 75.4551 45.9527V40.4182C76.7257 40.2428 77.9824 39.9777 79.2157 39.625L79.2258 45.1418ZM82.8167 43.743C81.7784 44.2611 80.6995 44.6934 79.5907 45.0354V39.5186C80.6979 39.1822 81.7765 38.7585 82.8167 38.2515V43.743ZM86.4075 41.2874C85.615 42.0337 84.7362 42.6828 83.7898 43.2209C83.5896 43.3375 83.3894 43.449 83.1816 43.558V38.0741C83.4553 37.9348 83.7239 37.7903 83.9824 37.6383C84.8494 37.1424 85.6622 36.5572 86.4075 35.8923V41.2874ZM88.9163 36.0772C88.9163 37.7954 88.1561 39.4476 86.7699 40.92V35.5527C87.7059 34.6656 88.4293 33.5784 88.8859 32.3724C88.8859 32.3496 88.9062 32.3268 88.9138 32.3039L88.9163 36.0772ZM84.3017 37.0225C84.137 37.1264 83.9722 37.2277 83.7948 37.3291C83.6175 37.4305 83.4451 37.5242 83.2677 37.6205C79.9734 39.3944 75.7287 40.3498 71.2104 40.3498C66.4463 40.3498 61.9659 39.2778 58.5905 37.3291C55.215 35.3804 53.4082 32.831 53.4082 30.1145C53.4082 27.3979 55.2277 24.8663 58.5373 22.9429C61.8899 20.9942 66.3626 19.9197 71.1268 19.9197C75.8909 19.9197 80.3611 20.9916 83.729 22.9353C87.0968 24.879 88.9315 27.4359 88.9366 30.155C88.929 32.7145 87.2919 35.1346 84.3017 37.0225Z" fill="#544A00"/>
<path d="M89.1252 22.3256V28.2276C89.1252 30.8732 87.3817 33.5112 83.9099 35.5309C76.9208 39.5855 65.5553 39.5855 58.5206 35.5309C54.9905 33.5036 53.2268 30.8124 53.2344 28.1363V22.2344C53.2344 24.9104 54.9905 27.589 58.5231 29.6264C65.5553 33.681 76.9208 33.681 83.9099 29.6264C87.3741 27.5991 89.1175 24.9586 89.1252 22.3256Z" fill="#F7C800"/>
<g opacity="0.15">
<path d="M53.2344 22.249C53.2344 24.9149 55.0083 27.5707 58.5206 29.6182C65.5502 33.6728 76.9157 33.6728 83.9048 29.6182C87.3766 27.591 89.115 24.9555 89.1226 22.3124V24.5551C89.082 27.1652 87.3487 29.7678 83.9124 31.757C76.9233 35.8116 65.5578 35.8116 58.5282 31.757C55.0083 29.7297 53.242 27.0588 53.242 24.3904" fill="#544A00"/>
</g>
<path d="M83.822 14.9121C90.8567 18.9667 90.8922 25.5554 83.9056 29.61C76.9191 33.6646 65.551 33.6646 58.5188 29.61C51.4866 25.5554 51.4613 18.9667 58.4504 14.9121C65.4395 10.8575 76.8025 10.86 83.822 14.9121Z" fill="#FEE425"/>
<path opacity="0.15" d="M71.2357 31.7702C66.9277 31.7702 62.8731 30.8402 59.7916 29.155C56.5099 27.3558 54.7031 24.9027 54.7031 22.2444C54.7031 19.5862 56.477 17.1762 59.7283 15.4023C62.7819 13.7171 66.8238 12.7871 71.1318 12.7871C75.4398 12.7871 79.4868 13.7095 82.5531 15.3922C85.8297 17.1661 87.6391 19.6267 87.6442 22.2875C87.6492 24.9484 85.8703 27.3735 82.619 29.155C79.5857 30.8402 75.5387 31.7702 71.2357 31.7702Z" fill="#544A00"/>
<path d="M81.5013 28.2265C75.8578 31.5209 66.6184 31.5209 60.9166 28.2265C55.2148 24.9322 55.1945 19.5928 60.8558 16.3162C66.517 13.0396 75.7387 13.0218 81.4404 16.3162C87.1422 19.6105 87.1599 24.9525 81.5013 28.2265Z" fill="#F7C800"/>
<g opacity="0.4">
<path d="M81.5065 28.2268C75.8631 31.5211 66.6236 31.5211 60.9219 28.2268L81.4483 16.3164C87.1475 19.593 87.1652 24.9527 81.5065 28.2268Z" fill="white"/>
</g>
<path d="M81.5416 16.1621C78.754 14.5504 75.0618 13.666 71.1517 13.666C67.2415 13.666 63.5493 14.553 60.7846 16.1621C58.0198 17.7713 56.4766 19.9354 56.4766 22.244C56.4766 24.5526 58.0325 26.7522 60.8581 28.3842C63.6456 29.9959 67.3378 30.8828 71.2632 30.8828C75.1885 30.8828 78.8655 29.9959 81.6226 28.3842C84.4102 26.77 85.9484 24.6058 85.9459 22.3023C85.9433 19.9988 84.3544 17.784 81.5416 16.1621ZM81.4174 28.0725C78.7185 29.6513 75.1024 30.5205 71.2404 30.5205C67.3784 30.5205 63.7495 29.6513 61.0177 28.0725C58.2859 26.4937 56.8187 24.4386 56.8187 22.244C56.8187 20.0495 58.2885 18.0222 60.9594 16.4764C63.6304 14.9305 67.2947 14.0284 71.1415 14.0284C74.9883 14.0284 78.6273 14.8976 81.3591 16.4764C84.0909 18.0551 85.5556 20.0951 85.5581 22.2896C85.5607 24.4842 84.0757 26.5241 81.4098 28.07L81.4174 28.0725Z" fill="#544A00"/>
<path d="M89.3026 22.3249V22.2996C89.3026 19.4437 87.3843 16.7676 83.9125 14.7631C80.4915 12.7789 75.9655 11.6816 71.1304 11.6816C66.2953 11.6816 61.7542 12.7738 58.3559 14.753C54.9577 16.7321 53.0343 19.4056 53.0469 22.2413C53.0469 22.2413 53.0469 22.2565 53.0469 22.2616V28.1179C53.0469 30.9815 54.9501 33.6626 58.4243 35.6696C61.8555 37.6488 66.3992 38.741 71.2293 38.741C76.0593 38.741 80.5903 37.6488 83.9962 35.6696C87.402 33.6905 89.295 31.0347 89.3026 28.2117L89.3153 22.3072L89.3026 22.3249ZM55.5659 33.0316C54.1493 31.5415 53.3966 29.8665 53.4017 28.1255L53.4119 24.3522C53.8666 25.6028 54.6057 26.7306 55.5709 27.6466L55.5659 33.0316ZM59.1567 35.6696C58.9692 35.5683 58.7817 35.4669 58.5992 35.3605C57.6345 34.8157 56.7386 34.1572 55.9308 33.3991V27.9786C56.6969 28.6634 57.5336 29.2648 58.4269 29.7727C58.6626 29.9121 58.9084 30.0439 59.1567 30.1706V35.6696ZM62.7476 37.1496C61.6387 36.8067 60.5598 36.3736 59.5216 35.8546V30.353C60.5618 30.8599 61.6405 31.2836 62.7476 31.6201V37.1496ZM66.8731 38.077C65.6005 37.896 64.3428 37.6224 63.1099 37.2585V31.7316C64.3435 32.0895 65.6011 32.3588 66.8731 32.5375V38.077ZM70.9936 38.3811C69.7369 38.3731 68.4819 38.2885 67.2355 38.1277V32.5856C68.4819 32.7464 69.7369 32.831 70.9936 32.839V38.3811ZM75.1141 38.1277C73.8686 38.2897 72.6144 38.3744 71.3585 38.3811V32.8415C72.6143 32.8334 73.8685 32.7488 75.1141 32.5881V38.1277ZM79.2396 37.2763C78.0072 37.6348 76.7503 37.9033 75.479 38.0796V32.5527C76.7496 32.377 78.0063 32.1119 79.2396 31.7595V37.2763ZM82.8305 35.8774C81.7918 36.3947 80.713 36.8269 79.6045 37.1698V31.653C80.7112 31.3155 81.7899 30.8919 82.8305 30.386V35.8774ZM86.4213 33.4219C85.6283 34.1677 84.7496 34.8168 83.8036 35.3554C83.6034 35.472 83.4006 35.5835 83.1954 35.6924V30.2086C83.4665 30.0692 83.7351 29.9248 83.9962 29.7727C84.8629 29.2754 85.6757 28.6894 86.4213 28.0242V33.4219ZM88.9301 28.2117C88.9301 29.9298 88.1699 31.5821 86.7837 33.0544V27.6821C87.7216 26.7951 88.4475 25.708 88.9073 24.5018C88.9073 24.4789 88.925 24.4561 88.9352 24.4333L88.9301 28.2117ZM84.3281 29.1519C84.1634 29.2558 83.9962 29.3571 83.8213 29.4585C83.6464 29.5599 83.4741 29.6536 83.2967 29.7499C80.0024 31.5238 75.7577 32.4792 71.2369 32.4792C66.4752 32.4792 61.9924 31.4072 58.6169 29.4585C55.2415 27.5098 53.4119 24.9655 53.4119 22.2489C53.4119 19.5323 55.2288 17.0033 58.5409 15.0774C61.8936 13.1286 66.3637 12.0542 71.1304 12.0542C75.8971 12.0542 80.3648 13.1236 83.7301 15.0672C87.0954 17.0109 88.9352 19.5704 88.9402 22.2895C88.9428 24.8591 87.3057 27.269 84.3281 29.1519Z" fill="#544A00"/>
<path d="M76.1186 22.9454C76.6808 22.5151 76.9481 21.977 76.8584 21.41C76.7667 20.8305 76.3101 20.2928 75.5811 19.8719C73.5802 18.7167 70.6581 19.0216 68.6604 20.175C68.0593 20.522 67.5524 20.9301 67.2113 21.3719C66.8702 21.8136 66.6837 22.3053 66.7629 22.8061C66.8515 23.3655 67.2614 23.8762 68.0079 24.3072C69.5108 25.1749 71.5438 25.246 73.2787 24.5137L73.6418 24.3604L73.3005 24.1633L71.1175 22.9029L72.283 22.2301L76.6468 24.7495L71.5308 27.7033L70.3234 27.0062L72.0542 26.0069L71.9176 25.6449C69.9527 26.0393 67.8388 25.8987 66.1226 24.9078C65.0385 24.282 64.4122 23.4919 64.2836 22.6805C64.1202 21.649 64.7503 20.4663 66.5633 19.4196C68.18 18.4861 70.1394 18.0083 72.0528 17.9709C73.9671 17.9334 75.8198 18.3369 77.2258 19.1487C78.4057 19.8299 79.0761 20.708 79.2099 21.5523C79.3435 22.3947 78.9511 23.2676 77.8577 23.9495L76.1186 22.9454Z" fill="#141414" stroke="#141414" stroke-width="0.392075"/>
<path d="M66.6124 18.9407L66.5586 18.6013C68.1524 17.7115 70.0637 17.2555 71.9313 17.2189C73.8092 17.1822 75.6277 17.5698 77.0235 18.3508L77.0655 18.6164C75.6376 17.8911 73.8576 17.5423 72.0425 17.5778C70.169 17.6145 68.2439 18.0609 66.6124 18.9407Z" fill="#141414" stroke="#141414" stroke-width="0.392075" stroke-linejoin="round"/>
<path d="M64.2035 21.0828C64.3996 20.332 65.0203 19.5456 66.192 18.8173L66.2447 19.1495C65.252 19.7419 64.5754 20.4012 64.2035 21.0828Z" fill="#141414" stroke="#141414" stroke-width="0.392075" stroke-linejoin="round"/>
<path d="M75.2297 19.6879C73.335 18.7949 70.7767 19.0616 68.9095 20.0389L68.8556 19.6981C70.7325 18.6662 73.3762 18.4219 75.1866 19.4154L75.2297 19.6879Z" fill="#141414" stroke="#141414" stroke-width="0.392075" stroke-linejoin="round"/>
<path d="M67.2096 21.3722C67.1452 21.4555 67.0864 21.5406 67.0339 21.6272C67.0771 21.3779 67.2007 21.1204 67.401 20.8609C67.6571 20.5292 68.0306 20.2061 68.4898 19.9132L68.5422 20.2441C67.9922 20.5758 67.5284 20.9593 67.2096 21.3722Z" fill="#141414" stroke="#141414" stroke-width="0.392075" stroke-linejoin="round"/>
<path d="M77.4639 18.6213C77.9697 18.9614 78.3612 19.34 78.6357 19.7326C78.3238 19.4153 77.9431 19.1201 77.5012 18.8567L77.4639 18.6213Z" fill="#141414" stroke="#141414" stroke-width="0.392075" stroke-linejoin="round"/>
<path d="M75.6301 19.6973C75.8979 19.8985 76.0885 20.1098 76.2087 20.3194C76.0522 20.1778 75.8703 20.044 75.6653 19.9197L75.6301 19.6973Z" fill="#141414" stroke="#141414" stroke-width="0.392075" stroke-linejoin="round"/>
<path d="M70.8773 22.5902L70.8241 22.2541L72.0179 21.5648L72.0712 21.9009L70.8773 22.5902Z" fill="#141414" stroke="#141414" stroke-width="0.392075" stroke-linejoin="round"/>
<path d="M67.8061 23.5087L67.8415 23.7319C67.5751 23.5326 67.3953 23.3293 67.2838 23.1286C67.4324 23.2609 67.6064 23.3878 67.8061 23.5087ZM66.9549 22.7758L66.9549 22.7758L66.9549 22.7758Z" fill="#141414" stroke="#141414" stroke-width="0.392075" stroke-linejoin="round"/>
<path d="M65.7613 24.6846C65.2958 24.3692 64.9352 24.0203 64.6838 23.6534C64.9725 23.9427 65.3219 24.2101 65.7242 24.4501L65.7613 24.6846Z" fill="#141414" stroke="#141414" stroke-width="0.392075" stroke-linejoin="round"/>
<path d="M75.8465 22.3052C76.1146 22.1255 76.3274 21.9239 76.4797 21.707C76.4518 22.0142 76.2724 22.3316 75.8968 22.6229L75.8465 22.3052Z" fill="#141414" stroke="#141414" stroke-width="0.392075" stroke-linejoin="round"/>
<path d="M70.8673 22.5271L72.9074 23.705L72.9474 23.9576L70.9073 22.7797L70.8673 22.5271Z" fill="#141414" stroke="#141414" stroke-width="0.392075" stroke-linejoin="round"/>
<path d="M76.741 24.1213L76.781 24.3739L72.462 21.8803L72.422 21.6277L76.741 24.1213Z" fill="#141414" stroke="#141414" stroke-width="0.392075" stroke-linejoin="round"/>
<path d="M77.9564 23.5248C78.5191 23.172 78.9279 22.759 79.1844 22.3119C79.0553 22.861 78.6795 23.3948 78.0081 23.8515L77.9564 23.5248Z" fill="#141414" stroke="#141414" stroke-width="0.392075" stroke-linejoin="round"/>
<path d="M68.2821 24.0133L68.239 23.7411C69.6278 24.3974 71.3779 24.4371 72.9256 23.8553L72.9818 24.2103C71.4114 24.8254 69.619 24.7477 68.2821 24.0133Z" fill="#141414" stroke="#141414" stroke-width="0.392075" stroke-linejoin="round"/>
<path d="M75.8907 22.5862L77.5628 23.5516L77.6028 23.8042L75.9307 22.8388L75.8907 22.5862Z" fill="#141414" stroke="#141414" stroke-width="0.392075" stroke-linejoin="round"/>
<path d="M66.1618 24.6892C67.8514 25.5355 69.8335 25.6542 71.6759 25.3192L71.7335 25.6827C69.8524 26.0264 67.8515 25.8752 66.204 24.9561L66.1618 24.6892Z" fill="#141414" stroke="#141414" stroke-width="0.392075" stroke-linejoin="round"/>
<path d="M70.0804 26.693L70.0272 26.3569L71.6883 25.3978L71.7416 25.7339L70.0804 26.693Z" fill="#141414" stroke="#141414" stroke-width="0.392075" stroke-linejoin="round"/>
<path d="M71.682 27.6166L71.6288 27.2806L76.7732 24.3104L76.8264 24.6465L71.682 27.6166Z" fill="#141414" stroke="#141414" stroke-width="0.392075" stroke-linejoin="round"/>
<path d="M70.0704 26.6302L71.233 27.3014L71.273 27.5539L70.1104 26.8827L70.0704 26.6302Z" fill="#141414" stroke="#141414" stroke-width="0.392075" stroke-linejoin="round"/>
<path d="M70.6041 22.1537L72.1616 21.2544L76.9176 24.0002L71.4095 27.1804L69.81 26.2569L71.8348 25.0879C69.8385 25.4886 67.6726 25.3499 65.9032 24.3283C63.3554 22.8574 63.0731 20.389 66.3439 18.5005C69.6431 16.5957 74.315 16.5625 77.2025 18.2296C79.6796 19.6598 80.1177 22.0219 77.7389 23.428L75.6298 22.2104C76.975 21.3847 76.8338 20.1423 75.3618 19.2924C73.4368 18.181 70.5911 18.4674 68.637 19.5955C66.8104 20.6501 65.9747 22.2277 67.9846 23.3882C69.4284 24.2217 71.3962 24.2951 73.0811 23.5838L70.6041 22.1537Z" fill="white"/>
<path d="M35.0796 43.8063C35.5693 43.4317 35.8361 42.9751 35.8361 42.4838C35.8363 41.8253 35.3586 41.2042 34.5421 40.7328C32.5412 39.5775 29.6191 39.8825 27.6213 41.0359C27.0663 41.3563 26.5921 41.7284 26.2544 42.1307C25.9175 42.5321 25.7059 42.9766 25.7058 43.4365C25.7058 44.0814 26.118 44.6768 26.9689 45.1681C28.4717 46.0357 30.5048 46.1069 32.2396 45.3745L32.6028 45.2212L32.2614 45.0241L30.0784 43.7638L31.2439 43.0909L35.6078 45.6104L30.4917 48.5641L29.2843 47.867L31.0151 46.8678L30.8785 46.5058C28.9137 46.9002 26.7998 46.7596 25.0835 45.7687C23.8584 45.0614 23.2196 44.1468 23.2195 43.2238C23.2193 42.2758 23.8932 41.2221 25.5242 40.2804C27.141 39.347 29.1003 38.8692 31.0137 38.8317C32.9281 38.7942 34.7807 39.1978 36.1868 40.0095C37.5164 40.7772 38.196 41.7915 38.1961 42.7296C38.1962 43.4658 37.7788 44.2115 36.8186 44.8103L35.0796 43.8063Z" fill="#141414" stroke="#141414" stroke-width="0.392075"/>
<path d="M25.6257 39.7768V39.4634C27.2233 38.5667 29.1423 38.1072 31.0172 38.0705C32.8874 38.0339 34.6987 38.4181 36.0922 39.1928V39.508C34.6544 38.7619 32.85 38.4027 31.0095 38.4387C29.1537 38.4751 27.2473 38.9134 25.6257 39.7768Z" fill="#141414" stroke="#141414" stroke-width="0.392075" stroke-linejoin="round"/>
<path d="M34.2474 40.5769C32.3626 39.6579 29.7972 39.9082 27.9148 40.8759V40.5601C29.7869 39.5227 32.4315 39.2717 34.2474 40.2575V40.5769Z" fill="#141414" stroke="#141414" stroke-width="0.392075" stroke-linejoin="round"/>
<path d="M36.4773 39.4299C37.2117 39.9098 37.7136 40.4688 37.9765 41.0381C37.6186 40.555 37.1112 40.108 36.4773 39.7277V39.4299Z" fill="#141414" stroke="#141414" stroke-width="0.392075" stroke-linejoin="round"/>
<path d="M25.2302 39.9975C24.4295 40.4727 23.833 40.9908 23.4345 41.5298C23.7184 40.9155 24.2946 40.2873 25.2302 39.6968V39.9975Z" fill="#141414" stroke="#141414" stroke-width="0.392075" stroke-linejoin="round"/>
<path d="M34.6335 40.4999C35.0448 40.7922 35.2879 41.1077 35.3863 41.4107C35.1923 41.1867 34.9387 40.9779 34.6335 40.7909V40.4999Z" fill="#141414" stroke="#141414" stroke-width="0.392075" stroke-linejoin="round"/>
<path d="M26.251 42.131C26.2302 42.1558 26.21 42.1807 26.1902 42.2057C26.2662 42.0138 26.3872 41.8184 26.5513 41.6229C26.7938 41.334 27.1238 41.0535 27.5199 40.7958V41.0939C27.0071 41.401 26.5687 41.7527 26.251 42.131Z" fill="#141414" stroke="#141414" stroke-width="0.392075" stroke-linejoin="round"/>
<path d="M35.4049 42.7487C35.3377 42.9822 35.1784 43.2192 34.907 43.4423V43.1679C35.1023 43.0389 35.269 42.8984 35.4049 42.7487Z" fill="#141414" stroke="#141414" stroke-width="0.392075" stroke-linejoin="round"/>
<path d="M29.8835 43.424V43.1164L31.049 42.4436V42.7511L29.8835 43.424Z" fill="#141414" stroke="#141414" stroke-width="0.392075" stroke-linejoin="round"/>
<path d="M38.0368 43.5003C37.8591 43.9189 37.527 44.3224 37.0164 44.6805V44.3897C37.4439 44.1242 37.7839 43.8242 38.0368 43.5003Z" fill="#141414" stroke="#141414" stroke-width="0.392075" stroke-linejoin="round"/>
<path d="M26.8674 44.3505V44.642C26.4588 44.3527 26.2363 44.0539 26.1449 43.7634C26.3279 43.971 26.5683 44.1676 26.8674 44.3505Z" fill="#141414" stroke="#141414" stroke-width="0.392075" stroke-linejoin="round"/>
<path d="M35.8021 44.963V45.2705L31.4382 42.7511V42.4436L35.8021 44.963Z" fill="#141414" stroke="#141414" stroke-width="0.392075" stroke-linejoin="round"/>
<path d="M34.907 43.402L36.6239 44.3933V44.7008L34.907 43.7096V43.402Z" fill="#141414" stroke="#141414" stroke-width="0.392075" stroke-linejoin="round"/>
<path d="M29.8835 43.343L31.9685 44.5467V44.8542L29.8835 43.6505V43.343Z" fill="#141414" stroke="#141414" stroke-width="0.392075" stroke-linejoin="round"/>
<path d="M24.7895 45.5865C24.1165 45.1443 23.6541 44.6341 23.4135 44.0983C23.7472 44.5408 24.214 44.9434 24.7895 45.2891V45.5865Z" fill="#141414" stroke="#141414" stroke-width="0.392075" stroke-linejoin="round"/>
<path d="M27.2664 44.8837V44.5645C28.6522 45.2418 30.4112 45.2959 31.9708 44.722V45.0626C30.4019 45.6844 28.6076 45.6127 27.2664 44.8837Z" fill="#141414" stroke="#141414" stroke-width="0.392075" stroke-linejoin="round"/>
<path d="M25.1804 45.5087C26.8725 46.3769 28.8655 46.5062 30.7199 46.1749V46.5367C28.8375 46.8856 26.8326 46.7396 25.1804 45.8246V45.5087Z" fill="#141414" stroke="#141414" stroke-width="0.392075" stroke-linejoin="round"/>
<path d="M30.6882 48.4509V48.1434L35.8043 45.1896V45.4972L30.6882 48.4509Z" fill="#141414" stroke="#141414" stroke-width="0.392075" stroke-linejoin="round"/>
<path d="M29.0867 47.5272V47.2197L30.7194 46.277V46.5846L29.0867 47.5272Z" fill="#141414" stroke="#141414" stroke-width="0.392075" stroke-linejoin="round"/>
<path d="M29.0867 47.446L30.294 48.1431V48.4506L29.0867 47.7535V47.446Z" fill="#141414" stroke="#141414" stroke-width="0.392075" stroke-linejoin="round"/>
<path d="M29.6822 43.0033L31.2398 42.104L35.9957 44.8498L30.4876 48.03L28.8881 47.1065L30.9129 45.9375C28.9167 46.3382 26.7507 46.1995 24.9814 45.1779C22.4335 43.707 22.1512 41.2386 25.4221 39.3501C28.7213 37.4453 33.3931 37.4121 36.2807 39.0792C38.7577 40.5094 39.1958 42.8715 36.817 44.2776L34.708 43.06C36.0531 42.2343 35.912 40.9919 34.4399 40.142C32.5149 39.0306 29.6692 39.317 27.7152 40.4451C25.8886 41.4997 25.0528 43.0773 27.0627 44.2378C28.5065 45.0713 30.4743 45.1447 32.1592 44.4334L29.6822 43.0033Z" fill="white"/>
<path d="M41.4327 26.2321C41.124 24.8693 41.1648 23.4654 41.6411 22.304L43.0849 23.7145C42.4522 25.251 42.9195 27.2267 44.1539 28.4327C44.626 28.8938 45.1282 29.1686 45.6365 29.2676C46.1457 29.3668 46.6476 29.2869 47.1119 29.0605C47.8202 28.7152 48.4365 28.0328 48.8836 27.1293C49.8389 25.199 49.9962 22.4835 48.2507 20.7784C47.3941 19.9416 46.4232 19.6967 45.551 20.1219C45.1578 20.3135 44.7995 20.6355 44.4903 21.0747L44.3943 21.2111L44.5136 21.3277L46.4577 23.227L45.8428 24.4694L42.2095 20.9199L44.8477 15.589L45.874 16.5916L44.9001 18.5594L45.1889 18.8065C45.3454 18.6959 45.5055 18.6003 45.6685 18.5208C46.1934 18.2646 46.7507 18.1735 47.3233 18.2872C47.8973 18.4012 48.502 18.7242 49.1138 19.3219C51.1557 21.3166 52.0028 25.1294 50.364 28.4406C49.7229 29.736 48.8802 30.5982 47.9686 31.043C46.5433 31.7384 44.8968 31.4363 43.4851 30.0572C42.493 29.088 41.764 27.6944 41.4327 26.2321Z" fill="#141414" stroke="#141414" stroke-width="0.392075"/>
<path d="M42.7081 30.2946C41.7656 29.3306 41.0734 27.9807 40.7531 26.5667C40.4272 25.1282 40.4907 23.644 41.0448 22.4475L41.199 22.3723C40.7647 23.5794 40.7507 24.9812 41.054 26.32C41.3779 27.7499 42.0677 29.1269 43.0214 30.1418L42.7081 30.2946Z" fill="#141414" stroke="#141414" stroke-width="0.392075" stroke-linejoin="round"/>
<mask id="path-120-inside-1_3380_187221" fill="white">
<path d="M42.6641 30.532C44.1238 31.958 45.8575 32.2919 47.3705 31.5537L48.0526 31.221C46.5399 31.9585 44.8067 31.6243 43.3474 30.1987L42.6641 30.532Z"/>
</mask>
<path d="M42.6641 30.532C44.1238 31.958 45.8575 32.2919 47.3705 31.5537L48.0526 31.221C46.5399 31.9585 44.8067 31.6243 43.3474 30.1987L42.6641 30.532Z" fill="#141414"/>
<path d="M48.1385 31.3972C48.1389 31.397 48.1394 31.3968 48.1398 31.3966L47.9679 31.0442C47.9674 31.0444 47.9671 31.0446 47.9667 31.0448L48.1385 31.3972ZM47.3705 31.5537L47.1987 31.2013L47.1986 31.2013L47.3705 31.5537ZM42.6641 30.532L42.4922 30.1796C42.3776 30.2355 42.2973 30.3437 42.277 30.4695C42.2567 30.5954 42.2989 30.7233 42.3901 30.8125L42.6641 30.532ZM43.3474 30.1987L43.6213 29.9183C43.5028 29.8025 43.3244 29.7737 43.1755 29.8463L43.3474 30.1987ZM48.0526 31.221L48.2245 31.5734C48.4191 31.4785 48.4999 31.2438 48.405 31.0492C48.3101 30.8545 48.0754 30.7737 47.8808 30.8686L48.0526 31.221ZM47.1986 31.2013C45.8609 31.854 44.3017 31.5837 42.938 30.2515L42.3901 30.8125C43.9458 32.3323 45.8542 32.7298 47.5425 31.906L47.1986 31.2013ZM42.8359 30.8844L43.5192 30.5511L43.1755 29.8463L42.4922 30.1796L42.8359 30.8844ZM43.0734 30.4792C44.6287 31.9986 46.5364 32.3964 48.2244 31.5734L47.8808 30.8686C46.5434 31.5206 44.9846 31.2501 43.6213 29.9183L43.0734 30.4792ZM47.8807 30.8686L47.1987 31.2013L47.5424 31.9061L48.2245 31.5734L47.8807 30.8686Z" fill="#141414" mask="url(#path-120-inside-1_3380_187221)"/>
<path d="M43.9675 28.2352L43.6522 28.389C42.5806 27.263 42.2093 25.4895 42.7893 24.1481L42.9669 24.0615C42.5542 25.454 42.9616 27.1136 43.9675 28.2352Z" fill="#141414" stroke="#141414" stroke-width="0.392075" stroke-linejoin="round"/>
<path d="M42.9877 23.6158L42.6786 23.7666L41.2345 22.3557L41.5435 22.205L42.9877 23.6158Z" fill="#141414" stroke="#141414" stroke-width="0.392075" stroke-linejoin="round"/>
<path d="M44.2567 28.5291C44.6665 28.9032 45.0974 29.1399 45.534 29.2458C45.3672 29.2592 45.1988 29.2499 45.0299 29.217C44.6786 29.1486 44.3159 28.9758 43.9558 28.6759L44.2567 28.5291Z" fill="#141414" stroke="#141414" stroke-width="0.392075" stroke-linejoin="round"/>
<path d="M45.2555 24.8941L41.6251 21.3474L41.9342 21.1967L45.5646 24.7433L45.2555 24.8941Z" fill="#141414" stroke="#141414" stroke-width="0.392075" stroke-linejoin="round"/>
<path d="M48.1711 27.5234L48.2257 27.4968C48.17 27.5821 48.1127 27.6639 48.054 27.7421C48.0941 27.6708 48.1332 27.5979 48.1711 27.5234Z" fill="#141414" stroke="#141414" stroke-width="0.392075" stroke-linejoin="round"/>
<path d="M44.2562 15.7404L44.3629 15.6884L41.8263 20.8137L41.7197 20.8657L44.2562 15.7404Z" fill="#141414" stroke="#141414" stroke-width="0.392075" stroke-linejoin="round"/>
<path d="M45.756 24.652L45.6494 24.7041L46.1625 23.6672L46.2692 23.6152L45.756 24.652Z" fill="#141414" stroke="#141414" stroke-width="0.392075" stroke-linejoin="round"/>
<path d="M49.998 29.0096L50.0716 28.9737C49.967 29.1496 49.8583 29.3158 49.7459 29.4724C49.833 29.3241 49.9171 29.1699 49.998 29.0096Z" fill="#141414" stroke="#141414" stroke-width="0.392075" stroke-linejoin="round"/>
<path d="M46.362 23.1311L46.0529 23.2818L44.3048 21.574L44.6138 21.4233L46.362 23.1311Z" fill="#141414" stroke="#141414" stroke-width="0.392075" stroke-linejoin="round"/>
<mask id="path-131-inside-2_3380_187221" fill="white">
<path d="M43.9688 21.5215C44.2632 21.1033 44.5976 20.8063 44.955 20.6321L45.6376 20.2991C45.2805 20.4734 44.9463 20.7703 44.652 21.1883L43.9688 21.5215Z"/>
</mask>
<path d="M43.9688 21.5215C44.2632 21.1033 44.5976 20.8063 44.955 20.6321L45.6376 20.2991C45.2805 20.4734 44.9463 20.7703 44.652 21.1883L43.9688 21.5215Z" fill="#141414"/>
<path d="M45.7236 20.4753C45.7238 20.4752 45.724 20.4751 45.7242 20.475L45.5524 20.1226C45.5521 20.1227 45.5519 20.1229 45.5517 20.123L45.7236 20.4753ZM44.955 20.6321L45.1268 20.9845L45.1269 20.9845L44.955 20.6321ZM43.9688 21.5215L43.6482 21.2958C43.5452 21.4421 43.5543 21.6396 43.6703 21.7758C43.7863 21.912 43.9798 21.9524 44.1406 21.8739L43.9688 21.5215ZM44.652 21.1883L44.8239 21.5407C44.8834 21.5116 44.9345 21.4681 44.9726 21.414L44.652 21.1883ZM45.6376 20.2991L45.8096 20.6515C46.0042 20.5566 46.0849 20.3218 45.99 20.1272C45.8951 19.9326 45.6604 19.8518 45.4657 19.9468L45.6376 20.2991ZM44.7832 20.2797C44.3542 20.4888 43.9721 20.8358 43.6482 21.2958L44.2893 21.7472C44.5543 21.3709 44.8411 21.1238 45.1268 20.9845L44.7832 20.2797ZM44.1406 21.8739L44.8239 21.5407L44.4802 20.8359L43.7969 21.1691L44.1406 21.8739ZM44.9726 21.414C45.2375 21.0378 45.5241 20.7908 45.8096 20.6515L45.4657 19.9468C45.037 20.156 44.6552 20.5028 44.3315 20.9625L44.9726 21.414ZM45.4657 19.9468L44.7831 20.2797L45.1269 20.9845L45.8095 20.6515L45.4657 19.9468Z" fill="#141414" mask="url(#path-131-inside-2_3380_187221)"/>
<mask id="path-133-inside-3_3380_187221" fill="white">
<path d="M44.8974 18.6765C44.7243 18.761 44.5551 18.8621 44.3906 18.9783L45.0739 18.6451C45.2384 18.5288 45.4076 18.4278 45.5807 18.3433L44.8974 18.6765Z"/>
</mask>
<path d="M44.8974 18.6765C44.7243 18.761 44.5551 18.8621 44.3906 18.9783L45.0739 18.6451C45.2384 18.5288 45.4076 18.4278 45.5807 18.3433L44.8974 18.6765Z" fill="#141414"/>
<path d="M44.3906 18.9783L44.1644 18.6581C43.9975 18.776 43.9492 19.0022 44.0532 19.178C44.1573 19.3538 44.3789 19.4203 44.5625 19.3307L44.3906 18.9783ZM44.8974 18.6765L44.7255 18.3241L44.7255 18.3242L44.8974 18.6765ZM45.5807 18.3433L45.7527 18.6956C45.9473 18.6007 46.028 18.366 45.9331 18.1714C45.8382 17.9768 45.6035 17.8959 45.4088 17.9909L45.5807 18.3433ZM45.0739 18.6451L45.2458 18.9975C45.2648 18.9882 45.2829 18.9774 45.3002 18.9653L45.0739 18.6451ZM44.6169 19.2985C44.7654 19.1936 44.9165 19.1035 45.0694 19.0289L44.7255 18.3242C44.532 18.4186 44.3448 18.5306 44.1644 18.6581L44.6169 19.2985ZM45.0693 19.0289L45.7526 18.6957L45.4088 17.9909L44.7255 18.3241L45.0693 19.0289ZM45.4088 17.9909C45.2153 18.0853 45.0281 18.1974 44.8477 18.3248L45.3002 18.9653C45.4487 18.8603 45.5998 18.7702 45.7527 18.6956L45.4088 17.9909ZM44.902 18.2927L44.2188 18.6259L44.5625 19.3307L45.2458 18.9975L44.902 18.2927Z" fill="#141414" mask="url(#path-133-inside-3_3380_187221)"/>
<path d="M48.5684 26.8966L48.4294 26.9644C49.1448 25.1644 49.173 22.8741 47.7652 21.311L48.0803 21.1573C49.5379 22.6857 49.4383 25.0913 48.5684 26.8966Z" fill="#141414" stroke="#141414" stroke-width="0.392075" stroke-linejoin="round"/>
<path d="M46.2564 20.3205C46.7374 20.269 47.2541 20.4419 47.7672 20.8711L47.466 21.018C47.0777 20.6633 46.6681 20.4285 46.2564 20.3205Z" fill="#141414" stroke="#141414" stroke-width="0.392075" stroke-linejoin="round"/>
<path d="M44.9279 18.4999L44.8212 18.5519L45.5737 17.0314L45.6804 16.9794L44.9279 18.4999Z" fill="#141414" stroke="#141414" stroke-width="0.392075" stroke-linejoin="round"/>
<path d="M45.7778 16.4967L45.4687 16.6474L44.4454 15.6477L44.7545 15.497L45.7778 16.4967Z" fill="#141414" stroke="#141414" stroke-width="0.392075" stroke-linejoin="round"/>
<path d="M50.2641 28.4452C51.6154 25.2149 50.8244 21.626 48.9005 19.572L49.2138 19.4191C51.1729 21.4263 51.9695 25.1368 50.3961 28.3809L50.2641 28.4452Z" fill="#141414" stroke="#141414" stroke-width="0.392075" stroke-linejoin="round"/>
<path d="M47.3225 18.2887C47.832 18.3899 48.3657 18.6558 48.9072 19.1323L48.6034 19.2805C47.9897 18.7082 47.3622 18.3714 46.74 18.2424C46.9319 18.2348 47.1263 18.2498 47.3225 18.2887Z" fill="#141414" stroke="#141414" stroke-width="0.392075" stroke-linejoin="round"/>
<path d="M46.0187 23.5203L45.221 25.1322L41.2927 21.2946L44.1138 15.5943L45.4349 16.8849L44.3979 18.9804C45.6246 18.1137 47.1115 18.088 48.573 19.5157C50.6774 21.5716 51.5371 25.4766 49.8618 28.8616C48.1721 32.276 45.0553 32.8615 42.6702 30.5315C40.6243 28.5327 39.6892 24.815 40.8987 22.301L42.6407 24.0028C41.9651 25.4731 42.3971 27.4387 43.613 28.6265C45.203 30.1798 47.0292 29.3986 48.03 27.3764C48.9655 25.4861 49.096 22.8745 47.4359 21.2526C46.2433 20.0876 44.9068 20.1949 43.9727 21.5215L46.0187 23.5203Z" fill="white"/>
<path d="M45.8352 42.1797L51.8541 42.1926C54.5485 42.1926 57.2402 43.9699 59.2965 47.5089C63.4296 54.6335 63.4296 66.2193 59.2965 73.3878C57.2299 76.9889 54.489 78.7868 51.7611 78.779H45.7422C48.4701 78.779 51.2006 76.9889 53.2801 73.3878C57.4133 66.2193 57.4133 54.6335 53.2801 47.5089C51.2212 43.9647 48.5321 42.1926 45.8352 42.1797Z" fill="#9EC9FF"/>
<g opacity="0.15">
<path d="M45.7656 78.7684C48.4832 78.7684 51.1904 76.9602 53.2777 73.3798C57.4109 66.2113 57.4109 54.628 53.2777 47.5035C51.2111 43.9644 48.5271 42.1897 45.8328 42.1846H48.1164C50.7797 42.2285 53.4301 43.9928 55.4579 47.4983C59.5911 54.6229 59.5911 66.2061 55.4579 73.3746C53.3914 76.9627 50.6712 78.7633 47.9485 78.7633" fill="#6B9AD4"/>
</g>
<path d="M38.2796 47.5891C42.4128 40.4181 49.1292 40.3819 53.2624 47.5039C57.3956 54.6259 57.3956 66.2143 53.2624 73.3828C49.1292 80.5513 42.4128 80.5771 38.2796 73.4526C34.1464 66.328 34.1464 54.7447 38.2796 47.5891Z" fill="#BFDBFF"/>
<path opacity="0.15" d="M55.4682 60.4121C55.4682 64.8036 54.5228 68.9368 52.8023 72.078C50.9682 75.4208 48.4677 77.2652 45.7578 77.2652C43.048 77.2652 40.5914 75.4569 38.7831 72.1426C37.0627 69.0298 36.1172 64.9095 36.1172 60.518C36.1172 56.1265 37.0627 51.9933 38.7831 48.8625C40.5914 45.5223 43.0971 43.6805 45.8095 43.6753C48.5219 43.6701 50.9967 45.4836 52.8101 48.7979C54.5228 51.9003 55.4682 56.0258 55.4682 60.4121Z" fill="#6B9AD4"/>
<path d="M51.8641 49.951C55.2223 55.7013 55.2223 65.1223 51.8641 70.9346C48.5058 76.7469 43.063 76.765 39.7228 70.994C36.3827 65.2231 36.3646 55.8252 39.7228 50.013C43.081 44.2007 48.5239 44.18 51.8641 49.951Z" fill="#9EC9FF"/>
<g opacity="0.4">
<path d="M51.8522 49.9488C55.2104 55.6991 55.2104 65.1202 51.8522 70.9325L39.7109 50.0083C43.0511 44.1985 48.512 44.1779 51.8522 49.9488Z" fill="white"/>
</g>
<path d="M39.5523 49.9269C37.9119 52.7684 37.0078 56.5296 37.0078 60.5182C37.0078 64.5067 37.9119 68.2679 39.5523 71.0862C41.1927 73.9045 43.4091 75.501 45.7521 75.501C48.0951 75.501 50.3477 73.9149 52.0139 71.0345C53.6542 68.193 54.5584 64.4266 54.5584 60.4252C54.5584 56.4237 53.6542 52.6755 52.0139 49.8649C50.3735 47.0543 48.1597 45.4579 45.7986 45.4605C43.4375 45.463 41.2056 47.044 39.5523 49.9269ZM51.6935 50.0535C53.3003 52.8046 54.1864 56.4909 54.1864 60.4252C54.1864 64.3595 53.3003 68.0638 51.691 70.8485C50.0816 73.6333 47.9866 75.129 45.7495 75.129C43.5124 75.129 41.4458 73.6307 39.87 70.908C38.2943 68.1852 37.3772 64.4499 37.3772 60.5259C37.3772 56.602 38.2633 52.8976 39.8726 50.1129C41.482 47.3281 43.5589 45.835 45.796 45.8324C48.0331 45.8299 50.1255 47.3204 51.6935 50.0457V50.0535Z" fill="#6B9AD4"/>
<path d="M45.8315 42H45.8031C42.8918 42 40.1639 43.9555 38.1206 47.4946C36.1082 50.9819 35 55.6085 35 60.5244C35 65.4403 36.1108 70.0824 38.1309 73.5465C40.151 77.0107 42.8711 78.9713 45.7644 78.9584H45.785L51.7549 78.9713C54.6714 78.9713 57.407 77.0313 59.4504 73.4871C61.4679 69.992 62.5813 65.3577 62.5813 60.4366C62.5813 55.5155 61.4679 50.8941 59.4504 47.4222C57.4329 43.9503 54.7282 42.0207 51.8479 42.0129L45.8315 42ZM56.7561 76.3881C55.2345 77.8347 53.527 78.6019 51.7549 78.5968H47.9136C49.1836 78.1313 50.3279 77.3769 51.2563 76.3933L56.7561 76.3881ZM59.4426 72.7302C59.3393 72.9214 59.2386 73.1126 59.1275 73.2986C58.5721 74.2819 57.9009 75.1952 57.128 76.0187H51.6025C52.3022 75.2385 52.9163 74.3854 53.434 73.4742C53.5735 73.234 53.7078 72.9834 53.8396 72.7302H59.4426ZM60.9538 69.0698C60.6035 70.2002 60.1611 71.3 59.6312 72.3582H54.0256C54.5412 71.2974 54.973 70.1979 55.3172 69.0698H60.9538ZM61.8967 64.8643C61.7118 66.1613 61.4338 67.4433 61.0649 68.7004H55.4283C55.7928 67.4426 56.0682 66.1608 56.2523 64.8643H61.8967ZM62.2067 60.6639C62.1973 61.9449 62.111 63.2242 61.9484 64.4949H56.2988C56.4627 63.2243 56.549 61.945 56.5572 60.6639H62.2067ZM61.9484 56.4636C62.1135 57.7331 62.1998 59.0117 62.2067 60.2919H56.5623C56.554 59.0117 56.4678 57.7333 56.304 56.4636H61.9484ZM61.0856 52.2529C61.4519 53.5091 61.7265 54.7904 61.907 56.0864H56.2652C56.0862 54.7912 55.816 53.5101 55.4567 52.2529H61.0856ZM59.6622 48.5924C60.1898 49.6528 60.6304 50.7543 60.9797 51.8861H55.3482C55.0053 50.7575 54.5734 49.6579 54.0566 48.5976L59.6622 48.5924ZM57.1565 44.932C57.9177 45.7405 58.5795 46.6372 59.1275 47.6031C59.2463 47.8071 59.36 48.0138 59.471 48.223H53.8757C53.7337 47.944 53.5864 47.6728 53.434 47.4067C52.9262 46.5237 52.3289 45.6953 51.6516 44.9346L57.1565 44.932ZM51.8453 42.3746C53.5968 42.3746 55.281 43.1495 56.7819 44.5626H51.3054C50.4014 43.6075 49.2931 42.8692 48.0635 42.403L47.9937 42.3746H51.8453ZM52.7985 47.0864C52.9044 47.2543 53.0104 47.4248 53.1111 47.6031C53.2119 47.7813 53.3126 47.957 53.4108 48.1378C55.2061 51.496 56.1929 55.8229 56.1929 60.4314C56.1929 65.2853 55.0976 69.8551 53.1111 73.2934C51.1246 76.7317 48.531 78.5864 45.7618 78.5916C42.9925 78.5968 40.4119 76.7394 38.4512 73.3631C36.4647 69.9455 35.3694 65.3861 35.3694 60.5296C35.3694 55.6731 36.4621 51.1163 38.4435 47.6857C40.4248 44.2552 43.0313 42.3797 45.8031 42.3746C48.4122 42.3668 50.8792 44.0356 52.7985 47.0864Z" fill="#6B9AD4"/>
<path d="M44.2366 60.3971C45.2681 60.5239 46.7508 57.4848 48.1012 57.6506C48.4738 57.6964 48.8364 57.9862 49.1766 58.6539C50.214 60.6898 49.7405 63.6415 48.7043 65.7659C47.9441 67.3246 47.1334 67.9169 46.3923 67.826C45.7125 67.7426 45.0914 67.0843 44.6217 66.0695L45.6857 63.9166C45.918 64.4981 46.322 65.0872 46.7957 65.1454C47.1578 65.1899 47.5606 64.9243 47.9586 64.1083C48.525 62.9469 48.6188 61.6063 48.211 60.806C48.0628 60.5152 47.8941 60.38 47.7085 60.3572C46.737 60.2378 45.3028 63.1972 43.9273 63.0283C43.5231 62.9787 43.124 62.6589 42.7431 61.9114C41.7058 59.8756 42.0974 57.2067 43.1197 55.1105C43.7447 53.8292 44.448 53.0858 45.195 53.1775C45.7938 53.251 46.4207 53.8611 47.0578 55.1608L45.973 57.3562C45.5409 56.4187 45.1393 55.9344 44.7625 55.8881C44.4392 55.8484 44.1343 56.131 43.844 56.7261C43.2914 57.8591 43.2884 59.1284 43.6819 59.9006C43.8461 60.223 44.0325 60.372 44.2366 60.3971Z" fill="black"/>
<path d="M42.2526 55.0015C41.2302 57.0976 40.8386 59.7665 41.876 61.8024L42.7449 61.9091C41.7075 59.8732 42.0991 57.2043 43.1215 55.1082L42.2526 55.0015Z" fill="black"/>
<path d="M44.3331 53.0696C43.5861 52.9779 42.8828 53.7212 42.2578 55.0026L43.1267 55.1093C43.7517 53.8279 44.455 53.0846 45.202 53.1763L44.3331 53.0696Z" fill="black"/>
<path d="M42.8155 59.7937C42.422 59.0215 42.425 57.7522 42.9776 56.6191L43.8466 56.7258C43.2939 57.8589 43.2909 59.1282 43.6844 59.9004L42.8155 59.7937Z" fill="black"/>
<path d="M41.8828 61.8032C42.2637 62.5507 42.6628 62.8705 43.067 62.9201L43.9359 63.0268C43.5317 62.9771 43.1326 62.6574 42.7517 61.9099L41.8828 61.8032Z" fill="black"/>
<path d="M42.9766 56.6204C43.2668 56.0253 43.5718 55.7428 43.895 55.7825L44.7639 55.8892C44.4407 55.8495 44.1357 56.132 43.8455 56.7271L42.9766 56.6204Z" fill="black"/>
<path d="M43.3751 60.2904C43.171 60.2653 42.9846 60.1163 42.8203 59.7939L43.6892 59.9006C43.8535 60.223 44.0399 60.372 44.244 60.3971L43.3751 60.2904Z" fill="black"/>
<path d="M43.8984 55.7808C44.2753 55.827 44.6769 56.3113 45.109 57.2488L45.9779 57.3555C45.5458 56.418 45.1442 55.9337 44.7674 55.8875L43.8984 55.7808Z" fill="black"/>
<path d="M46.1909 55.0541C45.5539 53.7545 44.927 53.1444 44.3282 53.0708L45.197 53.1775C45.7959 53.251 46.4227 53.8611 47.0598 55.1608L46.1909 55.0541Z" fill="black"/>
<path d="M44.8219 63.8091L43.7578 65.962L44.6267 66.0687L45.6908 63.9158L44.8219 63.8091Z" fill="black"/>
<path d="M43.0625 62.9227C44.438 63.0916 45.8722 60.1322 46.8437 60.2516L47.7125 60.3582C46.741 60.2391 45.3069 63.1983 43.9314 63.0294L43.0625 62.9227Z" fill="black"/>
<path d="M47.2318 57.5417C45.8814 57.3759 44.3988 60.4147 43.3673 60.2882L44.2361 60.3949C45.2676 60.5216 46.7502 57.4826 48.1006 57.6484L47.2318 57.5417Z" fill="black"/>
<path d="M45.1094 57.2472L46.1942 55.0518L47.0631 55.1584L45.9783 57.3539L45.1094 57.2472Z" fill="black"/>
<path d="M43.7578 65.9619C44.2275 66.9767 44.8487 67.635 45.5284 67.7184L46.3972 67.8251C45.7175 67.7416 45.0964 67.0833 44.6267 66.0686L43.7578 65.9619Z" fill="black"/>
<path d="M45.9303 65.0379C45.4566 64.9797 45.0526 64.3906 44.8203 63.8091L45.6892 63.9158C45.9215 64.4973 46.3255 65.0864 46.7992 65.1446L45.9303 65.0379Z" fill="black"/>
<path d="M47.0925 63.9995C46.6946 64.8154 46.2919 65.081 45.9298 65.0366L46.7986 65.1433C47.1607 65.1878 47.5635 64.9222 47.9615 64.1062L47.0925 63.9995Z" fill="black"/>
<path d="M46.8438 60.25C47.0293 60.2728 47.1981 60.408 47.3462 60.6988L48.2152 60.8055C48.067 60.5147 47.8983 60.3795 47.7127 60.3567L46.8438 60.25Z" fill="black"/>
<path d="M45.5312 67.7168C46.2723 67.8077 47.083 67.2154 47.8433 65.6567L48.7122 65.7634C47.952 67.3221 47.1412 67.9144 46.4002 67.8235L45.5312 67.7168Z" fill="black"/>
<path d="M47.354 60.6987C47.7618 61.499 47.668 62.8396 47.1016 64.001L47.9705 64.1077C48.5369 62.9463 48.6307 61.6057 48.2229 60.8054L47.354 60.6987Z" fill="black"/>
<path d="M48.3098 58.5473C47.9696 57.8795 47.607 57.5897 47.2344 57.5439L48.1033 57.6506C48.4759 57.6964 48.8385 57.9862 49.1787 58.6539L48.3098 58.5473Z" fill="black"/>
<path d="M47.8438 65.6579C48.8799 63.5334 49.3534 60.5818 48.3161 58.5459L49.185 58.6526C50.2223 60.6885 49.7489 63.6401 48.7127 65.7646L47.8438 65.6579Z" fill="black"/>
<path d="M48.3094 58.546C49.3468 60.5819 48.8733 63.5335 47.8371 65.658C46.3796 68.6465 44.7363 68.0826 43.7545 65.9616L44.8185 63.8087C45.2283 64.8346 46.1726 65.8841 47.0914 64.0004C47.6578 62.839 47.7516 61.4984 47.3438 60.6981C46.192 58.4376 43.8004 65.5804 41.876 61.8035C40.8386 59.7677 41.2302 57.0988 42.2526 55.0026C43.3785 52.694 44.7588 52.132 46.1906 55.0529L45.1058 57.2483C44.3031 55.5065 43.6054 55.3293 42.9768 56.6181C42.4242 57.7512 42.4212 59.0205 42.8147 59.7927C44.038 62.1937 46.4923 54.9797 48.3094 58.546Z" fill="white"/>
</svg>
