<svg width="102" height="86" viewBox="0 0 102 86" fill="none" xmlns="http://www.w3.org/2000/svg">
<path d="M56.5165 76.7439C50.8092 76.7439 45.4376 75.6777 41.3585 73.7375C36.9941 71.6692 34.6172 68.8492 34.6172 65.7933C34.6172 62.7374 36.9673 59.967 41.2713 57.9278C45.3201 55.9876 50.6716 54.9185 56.3789 54.9185C62.0862 54.9185 67.4578 55.9876 71.5268 57.9249C75.8677 59.9786 78.2614 62.7928 78.2681 65.8516C78.2749 68.9104 75.9181 71.6983 71.6107 73.7463C67.5787 75.6748 62.2171 76.7439 56.5165 76.7439Z" fill="#121411"/>
<path d="M69.2621 71.0655C62.6936 74.9015 51.9322 74.9015 45.293 71.0655C38.6537 67.2295 38.6331 61.0122 45.2221 57.1969C51.8112 53.3816 62.552 53.3609 69.1912 57.1969C75.8305 61.0329 75.8511 67.2531 69.2621 71.0655Z" fill="#F7C800"/>
<g opacity="0.4">
<path d="M69.266 71.0644C62.6976 74.9004 51.9361 74.9004 45.2969 71.0644L69.1981 57.1958C75.8344 61.0111 75.855 67.252 69.266 71.0644Z" fill="white"/>
</g>
<path d="M57.8034 57.2229L59.5916 58.2557C61.3945 59.2973 62.9437 60.3478 62.0968 61.6048L57.2133 58.7839L54.593 59.0789L60.7099 62.6199C59.5887 63.272 56.9093 63.7323 53.7992 61.9353L52.2973 61.0677L50.8219 61.9176L49.3672 69.746L52.0583 71.2981L53.5691 63.1923C56.2749 64.5998 60.0991 65.1634 62.9525 63.9034L64.8764 65.0159L67.4967 64.7208L64.4899 62.9857C64.9474 62.6448 65.2559 62.1407 65.3515 61.5782L68.0869 63.1569L70.7071 62.8618L60.4119 56.916L57.8034 57.2229Z" fill="#544A00"/>
<path d="M69.2897 57.0159C66.0439 55.1392 61.7475 54.1094 57.1915 54.1094C52.6356 54.1094 48.3392 55.1392 45.1199 57.0159C41.9007 58.8926 40.0859 61.4066 40.0859 64.0977C40.0859 66.7888 41.8977 69.3471 45.1878 71.2474C48.4337 73.1241 52.7359 74.1539 57.3037 74.1539C61.8715 74.1539 66.156 73.1241 69.3694 71.2474C72.5828 69.3708 74.4034 66.8478 74.4004 64.1479C74.3975 61.4479 72.5739 58.9014 69.2897 57.0159ZM69.1451 70.8845C66.0025 72.7228 61.7918 73.7349 57.2948 73.7349C52.7979 73.7349 48.5723 72.7228 45.3914 70.8845C42.2105 69.0462 40.502 66.6531 40.502 64.0977C40.502 61.5424 42.2134 59.1817 45.3236 57.3818C48.4337 55.5818 52.7005 54.5313 57.1827 54.5313C61.6649 54.5313 65.8963 55.5435 69.0772 57.3818C72.2582 59.2201 73.9637 61.5955 73.9667 64.1508C73.9696 66.7062 72.2582 69.0816 69.1451 70.8815V70.8845Z" fill="#544A00"/>
<path d="M78.1433 55.0218V61.8941C78.1433 64.9717 76.1102 68.0465 72.0677 70.3953C63.9324 75.1165 50.6982 75.1165 42.5069 70.3953C38.3965 68.0346 36.3427 64.9039 36.3516 61.7879V54.9155C36.3516 58.0315 38.3965 61.1505 42.5069 63.5229C50.6982 68.2442 63.9324 68.2442 72.0677 63.5229C76.1102 61.18 78.1345 58.0994 78.1433 55.0218Z" fill="#F7C800"/>
<g opacity="0.15">
<path d="M36.3594 54.9438C36.3594 58.0451 38.4249 61.1405 42.5176 63.5217C50.7031 68.243 63.9373 68.243 72.0755 63.5217C76.118 61.1611 78.1423 58.0953 78.1482 55.0176V57.629C78.098 60.6683 76.0826 63.6958 72.0814 66.0151C63.9432 70.7364 50.709 70.7364 42.5235 66.0151C38.422 63.6545 36.3653 60.5444 36.3653 57.4343" fill="#544A00"/>
</g>
<path d="M71.9725 46.3987C80.1609 51.1199 80.2051 58.7919 72.0669 63.5132C63.9287 68.2344 50.6975 68.2344 42.5061 63.5132C34.3148 58.7919 34.2912 51.1199 42.4265 46.3987C50.5617 41.6775 63.7989 41.6804 71.9725 46.3987Z" fill="#FEE425"/>
<path opacity="0.15" d="M57.3182 66.0305C52.3019 66.0305 47.5806 64.9475 43.9955 62.9853C40.1595 60.8902 38.0703 58.0309 38.0703 54.9385C38.0703 51.8461 40.1359 49.037 43.9217 46.9715C47.4626 45.0092 52.1838 43.9263 57.2001 43.9263C62.2165 43.9263 66.9377 45.0092 70.514 46.9715C74.3294 49.037 76.4362 51.9022 76.4392 55.0005C76.4421 58.0988 74.3736 60.9227 70.5907 62.9941C67.0439 64.9475 62.3286 66.0305 57.3182 66.0305Z" fill="#544A00"/>
<path d="M69.268 61.9039C62.6996 65.7399 51.9411 65.7399 45.3019 61.9039C38.6627 58.0679 38.639 51.8506 45.2311 48.0353C51.8231 44.2199 62.558 44.1993 69.1972 48.0353C75.8364 51.8713 75.8482 58.0885 69.268 61.9039Z" fill="#F7C800"/>
<g opacity="0.4">
<path d="M69.2708 61.9067C62.7024 65.7427 51.9439 65.7427 45.3047 61.9067L69.2059 48.0381C75.851 51.8534 75.851 58.0914 69.2708 61.9067Z" fill="white"/>
</g>
<path d="M57.8112 48.0626L59.6024 49.0954C61.4053 50.137 62.9544 51.1845 62.1076 52.4445L57.2211 49.6236L54.6008 49.9187L60.7207 53.4596C59.5994 54.1088 56.9201 54.5691 53.81 52.775L52.3051 51.8898L50.8297 52.7426L49.375 60.5709L52.0661 62.123L53.5798 54.0173C56.2828 55.4219 60.1069 55.9884 62.9633 54.7284L64.899 55.8674L67.5193 55.5723L64.5124 53.8343C64.9688 53.4937 65.2772 52.991 65.3741 52.4298L68.1094 54.0084L70.7297 53.7134L60.4315 47.7705L57.8112 48.0626Z" fill="#544A00"/>
<path d="M69.3034 47.8547C66.0575 45.981 61.7612 44.9482 57.2052 44.9482C52.6492 44.9482 48.3529 45.981 45.1336 47.8547C41.9143 49.7285 40.0996 52.2484 40.1173 54.9366C40.135 57.6247 41.9291 60.186 45.2192 62.0863C48.465 63.96 52.7643 64.9928 57.3351 64.9928C61.9058 64.9928 66.1874 63.96 69.3978 62.0863C72.6082 60.2126 74.4348 57.6867 74.4318 54.9868C74.4289 52.2868 72.6023 49.7432 69.3034 47.8547ZM69.1617 61.7234C66.0162 63.5617 61.8084 64.5738 57.3114 64.5738C52.8145 64.5738 48.586 63.5617 45.408 61.7234C42.2301 59.885 40.5186 57.492 40.5157 54.9366C40.5127 52.3812 42.2271 50.0177 45.3372 48.2206C48.4945 46.3823 52.7141 45.3702 57.1964 45.3702C61.6786 45.3702 65.9129 46.3823 69.0909 48.2206C72.2689 50.059 73.9803 52.4343 73.9833 54.9868C73.9862 57.5392 72.2748 59.9234 69.1617 61.7234Z" fill="#544A00"/>
<path d="M78.3564 55.0211V54.9827C78.3564 51.6601 76.1227 48.5441 72.0801 46.2101C68.0966 43.9085 62.8088 42.6426 57.1964 42.6426C51.5841 42.6426 46.2786 43.9114 42.3216 46.2189C38.3646 48.5264 36.125 51.6365 36.125 54.9384V54.9827V61.8019C36.125 65.1363 38.341 68.2582 42.3865 70.5923C46.3819 72.8998 51.6726 74.1686 57.2938 74.1686C62.915 74.1686 68.194 72.8998 72.1598 70.5923C76.1256 68.2848 78.3328 65.1983 78.3417 61.9082V55.0358L78.3564 55.0211ZM39.0728 67.4999C37.4233 65.7648 36.547 63.8143 36.5529 61.7872V57.3994C37.0835 58.8499 37.9442 60.1571 39.0669 61.2177L39.0728 67.4999ZM43.2511 70.5716C43.0327 70.4506 42.8144 70.3355 42.6019 70.2116C41.4795 69.5748 40.4365 68.8072 39.4948 67.9248V61.6131C40.3871 62.411 41.3614 63.1123 42.4013 63.7052C42.6787 63.8645 42.9619 64.018 43.2511 64.1684V70.5716ZM47.4323 72.2949C46.1453 71.8947 44.893 71.3904 43.6878 70.787V64.3809C44.8982 64.9706 46.1532 65.4639 47.4412 65.8563L47.4323 72.2949ZM52.2451 73.3719C50.7642 73.1621 49.3007 72.8445 47.8661 72.4217V65.9861C49.3018 66.4018 50.7651 66.7154 52.2451 66.9245V73.3719ZM57.043 73.726C55.5807 73.7167 54.1203 73.6181 52.67 73.4309V66.9805C54.1203 67.1676 55.5807 67.2662 57.043 67.2756V73.726ZM61.841 73.4309C60.3918 73.6195 58.9323 73.7181 57.4709 73.726V67.2786C58.9322 67.2692 60.3916 67.1706 61.841 66.9835V73.4309ZM66.6448 72.4394C65.2105 72.8558 63.748 73.1684 62.2688 73.3748V66.9392C63.7476 66.7371 65.21 66.4294 66.6448 66.0186V72.4394ZM70.826 70.8106C69.6176 71.4142 68.3612 71.9166 67.0697 72.3126V65.9005C68.3595 65.5106 69.6157 65.0172 70.826 64.4252V70.8106ZM75.0073 67.9484C74.0854 68.8194 73.062 69.5763 71.9591 70.2028C71.729 70.3385 71.4929 70.4683 71.2539 70.5952V64.2127C71.5696 64.0475 71.8824 63.8822 72.1863 63.7052C73.1947 63.1261 74.1401 62.4438 75.0073 61.6691V67.9484ZM77.9285 61.8845C77.9285 63.8852 77.0433 65.8091 75.4322 67.5205V61.2767C76.5234 60.2431 77.3685 58.9775 77.9049 57.5735C77.9049 57.544 77.9256 57.5204 77.9344 57.4909L77.9285 61.8845ZM72.5581 62.9734C72.3663 63.0914 72.1716 63.2124 71.968 63.3275C71.7644 63.4426 71.5608 63.5576 71.3542 63.6698C67.5182 65.7205 62.5757 66.8477 57.3145 66.8477C51.767 66.8477 46.5501 65.5996 42.6196 63.3304C38.6892 61.0613 36.5735 58.0987 36.5706 54.9355C36.5676 51.7723 38.6863 48.8244 42.54 46.5819C46.4468 44.3127 51.6519 43.0645 57.2023 43.0645C62.7527 43.0645 67.952 44.3098 71.8736 46.573C75.7951 48.8362 77.9167 51.8224 77.9315 54.9827C77.9374 57.9689 76.0283 60.7898 72.5493 62.9822L72.5581 62.9734Z" fill="#544A00"/>
<path d="M78.1541 45.8591V52.7344C78.1541 55.8121 76.121 58.8868 72.0785 61.2356C63.9402 65.9568 50.706 65.9568 42.5177 61.2356C38.4072 58.875 36.3506 55.7442 36.3594 52.6282V45.7559C36.3594 48.8689 38.4072 51.9879 42.5177 54.3633C50.706 59.0845 63.9402 59.0845 72.0785 54.3633C76.121 52.0144 78.1452 48.9397 78.1541 45.8591Z" fill="#F7C800"/>
<g opacity="0.15">
<path d="M36.3594 45.7861C36.3594 48.8874 38.4249 51.9827 42.5147 54.364C50.7031 59.0852 63.9373 59.0852 72.0725 54.364C76.1151 52.0034 78.1423 48.9376 78.1482 45.8599V48.4713C78.098 51.5106 76.0826 54.5381 72.0784 56.8574C63.9432 61.5786 50.709 61.5786 42.5206 56.8574C38.422 54.4968 36.3653 51.3867 36.3653 48.2766" fill="#544A00"/>
</g>
<path d="M71.9852 37.2405C80.1765 41.9617 80.2208 49.6337 72.0826 54.355C63.9443 59.0762 50.7101 59.0762 42.5218 54.355C34.3334 49.6337 34.3039 41.9617 42.4421 37.2405C50.5803 32.5193 63.8116 32.5222 71.9852 37.2405Z" fill="#FEE425"/>
<path d="M57.326 56.8723C52.3097 56.8723 47.5884 55.7893 44.0033 53.8241C40.182 51.7379 38.0781 48.8727 38.0781 45.7803C38.0781 42.6879 40.1437 39.8788 43.9295 37.8133C47.4881 35.851 52.1916 34.7681 57.208 34.7681C62.2243 34.7681 66.9455 35.848 70.5218 37.8133C74.3372 39.8788 76.4411 42.744 76.447 45.8423C76.4529 48.9406 74.3814 51.7645 70.5956 53.8359C67.0488 55.7893 62.3364 56.8723 57.326 56.8723Z" fill="#141414"/>
<path d="M69.2836 52.7457C62.7152 56.5817 51.9567 56.5817 45.3175 52.7457C38.6783 48.9097 38.6547 42.6924 45.2467 38.8771C51.8387 35.0617 62.5736 35.0411 69.2128 38.8771C75.8521 42.7131 75.8757 48.9303 69.2836 52.7457Z" fill="#F7C800"/>
<g opacity="0.4">
<path d="M69.2865 52.7436C62.718 56.5796 51.9595 56.5796 45.3203 52.7436L69.2215 38.875C75.8549 42.6903 75.8785 48.9283 69.2865 52.7436Z" fill="white"/>
</g>
<path d="M57.8307 38.904L59.6248 39.9338C61.4277 40.9755 62.9768 42.0259 62.13 43.2859L57.2464 40.465L54.6262 40.7601L60.7431 44.301C59.6248 44.9502 56.9455 45.4105 53.8324 43.6135L52.3305 42.7459L50.8551 43.5987L49.4062 51.4418L52.0973 52.9969L53.6081 44.8911C56.314 46.2957 60.1382 46.8593 62.9916 45.6023L64.9155 46.7118L67.5358 46.4167L64.5289 44.6787C64.9858 44.3384 65.2943 43.8355 65.3906 43.2741L68.1259 44.8528L70.7462 44.5577L60.451 38.6001L57.8307 38.904Z" fill="#544A00"/>
<path d="M69.3209 38.6946C66.0751 36.8209 61.7788 35.7881 57.2228 35.7881C52.6668 35.7881 48.3705 36.8209 45.1512 38.6946C41.9319 40.5683 40.1172 43.0883 40.1172 45.7764C40.1172 48.4646 41.9201 51.0288 45.2132 52.9173C48.459 54.791 52.7583 55.8238 57.329 55.8238C61.8998 55.8238 66.1813 54.791 69.3918 52.9173C72.6022 51.0436 74.4287 48.5148 74.4081 45.8178C74.3874 43.1207 72.6081 40.5831 69.3209 38.6946ZM69.1793 52.5632C66.0338 54.3986 61.826 55.4107 57.329 55.4107C52.8321 55.4107 48.6036 54.3986 45.4256 52.5632C42.2476 50.7278 40.5332 48.3289 40.5332 45.7764C40.5332 43.224 42.2447 40.8605 45.3548 39.0634C48.5092 37.2251 52.7317 36.213 57.2139 36.213C61.6962 36.213 65.9276 37.2251 69.1085 39.0634C72.2894 40.9018 73.995 43.2771 73.9979 45.8355C74.0009 48.3938 72.2924 50.7603 69.1793 52.5632Z" fill="#544A00"/>
<path d="M78.3642 45.8609C78.3642 45.8609 78.3642 45.8402 78.3642 45.8284C78.3642 42.5058 76.1305 39.3898 72.085 37.0558C68.1014 34.7542 62.8166 33.4883 57.2013 33.4883C51.586 33.4883 46.2982 34.7571 42.3294 37.0646C38.3606 39.3721 36.1328 42.4793 36.1328 45.7841V45.8077L36.1358 52.6211C36.1358 55.9525 38.3518 59.0773 42.4003 61.4114C46.3926 63.716 51.6863 64.9877 57.3075 64.9877C62.9287 64.9877 68.2077 63.716 72.1735 61.4114C76.1393 59.1069 78.3465 56.0174 78.3524 52.7273V45.855L78.3642 45.8609ZM39.0836 58.3397C37.4341 56.6046 36.5577 54.6512 36.5607 52.627V48.2392C37.0924 49.6898 37.9541 50.997 39.0777 52.0575L39.0836 58.3397ZM43.2619 61.4085C43.0435 61.2904 42.8252 61.1753 42.6127 61.0514C41.4893 60.4161 40.4461 59.6483 39.5055 58.7646V52.4529C40.3968 53.2522 41.3712 53.9536 42.412 54.545C42.6894 54.7043 42.9727 54.8577 43.2619 55.0082V61.4085ZM47.4431 63.1347C46.152 62.7339 44.8958 62.2287 43.6868 61.6239V55.2207C44.898 55.8109 46.154 56.3042 47.4431 56.6961V63.1347ZM52.244 64.2117C50.7622 64.0019 49.2977 63.6843 47.8621 63.2615V56.8259C49.2989 57.2413 50.7631 57.5549 52.244 57.7643V64.2117ZM57.042 64.5658C55.5787 64.5564 54.1173 64.4578 52.666 64.2707V57.8203C54.1174 58.0061 55.5787 58.1046 57.042 58.1154V64.5658ZM61.8399 64.2707C60.3896 64.4579 58.9292 64.5564 57.4669 64.5658V58.1183C58.9292 58.109 60.3896 58.0104 61.8399 57.8233V64.2707ZM66.6438 63.2763C65.2129 63.6975 63.7534 64.0141 62.2766 64.2235V57.779C63.7562 57.5748 65.2195 57.2661 66.6556 56.8554L66.6438 63.2763ZM70.8339 61.6593C69.6246 62.2611 68.3684 62.7634 67.0775 63.1612V56.7315C68.3665 56.3477 69.6226 55.8613 70.8339 55.2768V61.6593ZM75.0151 58.797C74.0919 59.6665 73.0687 60.4233 71.967 61.0514C71.7338 61.1871 71.5007 61.317 71.2588 61.4439V55.0525C71.5775 54.8873 71.8902 54.7191 72.1912 54.545C73.2003 53.9656 74.1466 53.2833 75.0151 52.5089V58.797ZM77.9364 52.7302C77.9364 54.7309 77.0511 56.6548 75.4371 58.3692V52.1165C76.5318 51.0846 77.3791 49.8187 77.9157 48.4133C77.9157 48.3838 77.9393 48.3602 77.9482 48.3306L77.9364 52.7302ZM72.563 53.822C72.3712 53.9401 72.1794 54.061 71.9729 54.1761C71.7663 54.2912 71.5656 54.4063 71.3591 54.5184C67.5231 56.5692 62.5806 57.6964 57.3193 57.6964C51.7719 57.6964 46.552 56.4453 42.6245 54.1791C38.697 51.9129 36.5784 48.9474 36.5725 45.7812C36.5666 42.615 38.6882 39.6701 42.5448 37.4305C46.4487 35.1614 51.6568 33.9132 57.2043 33.9132C62.7517 33.9132 67.9569 35.1584 71.8755 37.4217C75.7941 39.6849 77.9364 42.6622 77.9423 45.8284C77.9452 48.8087 76.039 51.6267 72.5571 53.822H72.563Z" fill="#544A00"/>
<path d="M78.1668 36.6878V43.5631C78.1668 46.6407 76.1337 49.7154 72.0941 52.0642C63.9559 56.7855 50.7217 56.7855 42.5303 52.0642C38.4199 49.7036 36.3662 46.5728 36.375 43.4568V36.5815C36.375 39.6976 38.4199 42.8165 42.5303 45.1919C50.7217 49.9131 63.9559 49.9131 72.0941 45.1919C76.1484 42.8519 78.1579 39.7802 78.1668 36.6878Z" fill="#F7C800"/>
<g opacity="0.15">
<path d="M36.375 36.6221C36.375 39.7263 38.4405 42.8334 42.5303 45.2029C50.7157 49.9241 63.9499 49.9241 72.0882 45.2029C76.1307 42.8423 78.1549 39.7764 78.1608 36.6988V39.3073C78.1107 42.3495 76.0953 45.377 72.0941 47.6934C63.9558 52.4146 50.7216 52.4146 42.5362 47.6934C38.4346 45.3327 36.3809 42.2256 36.3809 39.1155" fill="#544A00"/>
</g>
<path d="M71.9959 28.0819C80.1873 32.8032 80.2286 40.4752 72.0933 45.1964C63.958 49.9176 50.7209 49.9176 42.5296 45.1964C34.3382 40.4752 34.3146 32.8032 42.4499 28.0819C50.5852 23.3607 63.8223 23.3607 71.9959 28.0819Z" fill="#FEE425"/>
<path opacity="0.15" d="M57.3348 47.7087C52.3185 47.7087 47.5973 46.6287 44.0121 44.6635C40.1909 42.5714 38.0781 39.7121 38.0781 36.6168C38.0781 33.5214 40.1437 30.7152 43.9295 28.6497C47.4852 26.6845 52.1916 25.6045 57.208 25.6045C62.2243 25.6045 66.9455 26.6845 70.5218 28.6497C74.3372 30.7152 76.444 33.5775 76.447 36.6758C76.4499 39.7741 74.3726 42.5891 70.6045 44.6547C67.0606 46.6258 62.3482 47.7087 57.3348 47.7087Z" fill="#544A00"/>
<path d="M69.2915 43.586C62.723 47.422 51.9645 47.422 45.3253 43.586C38.6861 39.75 38.6625 33.5327 45.2545 29.7174C51.8465 25.9021 62.5814 25.8814 69.2206 29.7174C75.8599 33.5534 75.8835 39.7707 69.2915 43.586Z" fill="#F7C800"/>
<g opacity="0.4">
<path d="M69.2943 43.5859C62.7259 47.4219 51.9674 47.4219 45.3281 43.5859L69.2294 29.7173C75.8538 33.5326 75.8863 39.7706 69.2943 43.5859Z" fill="white"/>
</g>
<path d="M57.8503 29.7414L59.6208 30.786C61.4237 31.8276 62.9728 32.8781 62.126 34.1381L57.2602 31.3053L54.6399 31.6004L60.7598 35.1413C59.6385 35.7905 56.9592 36.2508 53.8491 34.4538L52.3442 33.5863L50.8688 34.4361L49.4141 42.294L52.1022 43.849L53.616 35.7433C56.3218 37.1478 60.1431 37.7114 62.9994 36.4544L64.9233 37.5639L67.5436 37.2688L64.5368 35.5072C64.9936 35.167 65.3021 34.6641 65.3984 34.1026L68.1337 35.6813L70.754 35.3862L60.4588 29.4404L57.8503 29.7414Z" fill="#544A00"/>
<path d="M69.3189 29.5349C66.073 27.6612 61.7767 26.6284 57.2207 26.6284C52.6647 26.6284 48.3684 27.6612 45.1491 29.5349C41.9298 31.4087 40.1328 33.9286 40.1328 36.6168C40.1328 39.3049 41.9092 41.8662 45.2111 43.7694C48.4569 45.6432 52.7562 46.6759 57.3269 46.6759C61.8977 46.6759 66.1793 45.6432 69.3897 43.7694C72.6001 41.8957 74.4267 39.3669 74.4237 36.6699C74.4208 33.9729 72.5972 31.4234 69.3189 29.5349ZM69.1772 43.4035C66.0317 45.2389 61.8239 46.251 57.3269 46.251C52.83 46.251 48.6045 45.2389 45.4235 43.4006C42.2426 41.5623 40.5341 39.1692 40.5341 36.6138C40.5341 34.0585 42.2456 31.6978 45.3527 29.8979C48.5101 28.0625 52.7296 27.0504 57.2119 27.0504C61.6941 27.0504 65.9284 28.0625 69.1094 29.9008C72.2903 31.7391 73.9958 34.1116 73.9988 36.6669C74.0017 39.2223 72.3021 41.6006 69.1772 43.4035Z" fill="#544A00"/>
<path d="M78.373 36.7046V36.6721C78.373 33.3466 76.1392 30.2306 72.0967 27.8966C68.1131 25.5979 62.8283 24.332 57.213 24.332C51.5977 24.332 46.2952 25.6009 42.3382 27.9084C38.3812 30.2159 36.1416 33.323 36.1563 36.6279V36.6515V43.4707C36.1563 46.8021 38.3723 49.927 42.4178 52.2611C46.4132 54.5656 51.7039 55.8374 57.3251 55.8374C62.9464 55.8374 68.2282 54.5656 72.1941 52.2611C76.1599 49.9565 78.3641 46.8671 78.373 43.5769L78.3877 36.7046H78.373ZM39.0894 49.1834C37.4399 47.4454 36.5635 45.4949 36.5694 43.4707V39.0829C37.1011 40.5329 37.9616 41.8399 39.0835 42.9012L39.0894 49.1834ZM43.2677 52.2522C43.0493 52.1342 42.831 52.0191 42.6185 51.8922C41.4966 51.2571 40.4545 50.4904 39.5143 49.6083V43.2966C40.405 44.0953 41.3783 44.7966 42.4178 45.3887C42.6952 45.5481 42.9814 45.7015 43.2677 45.852V52.2522ZM47.4519 53.9784C46.1566 53.5788 44.8963 53.0735 43.6837 52.4676V46.0644C44.8955 46.6534 46.1514 47.1467 47.4401 47.5398L47.4519 53.9784ZM52.241 55.0554C50.7642 54.8417 49.3048 54.5222 47.8738 54.0994V47.6667C49.3057 48.0822 50.765 48.3968 52.241 48.608V55.0554ZM57.0389 55.4095C55.5766 55.3986 54.1163 55.3001 52.6659 55.1145V48.6611C54.1162 48.8482 55.5766 48.9468 57.0389 48.9562V55.4095ZM61.8369 55.1145C60.3877 55.3032 58.9282 55.4018 57.4668 55.4095V48.9621C58.9281 48.9527 60.3875 48.8542 61.8369 48.667V55.1145ZM66.6407 54.123C65.2099 54.5434 63.7503 54.8589 62.2736 55.0672V48.6228C63.7521 48.4182 65.2144 48.1096 66.6496 47.6992L66.6407 54.123ZM70.8308 52.503C69.6226 53.1049 68.3673 53.6072 67.0774 54.005V47.5752C68.3656 47.1835 69.6207 46.6902 70.8308 46.0999V52.503ZM75.015 49.6408C74.0913 50.5102 73.067 51.266 71.9639 51.8922C71.7337 52.0279 71.4977 52.1578 71.2587 52.2847V45.8962C71.5744 45.731 71.8872 45.5628 72.1911 45.3887C73.1992 44.8079 74.1454 44.1257 75.015 43.3527V49.6408ZM77.9363 43.574C77.9363 45.5746 77.051 47.4985 75.4369 49.2129V42.9573C76.5293 41.924 77.3753 40.6584 77.9126 39.2541L77.9422 39.1744L77.9363 43.574ZM72.5659 44.6569C72.3741 44.7779 72.1793 44.8989 71.9757 45.014C71.7721 45.1291 71.5714 45.2441 71.3649 45.3563C67.5289 47.4218 62.5834 48.5342 57.3222 48.5342C51.7747 48.5342 46.5578 47.2831 42.6274 45.014C38.6969 42.7448 36.5812 39.7823 36.5783 36.619C36.5753 33.4558 38.694 30.508 42.5477 28.2684C46.4545 25.9992 51.6597 24.7481 57.2101 24.7481C62.7605 24.7481 67.9627 25.9963 71.8813 28.2595C75.7999 30.5227 77.9422 33.5001 77.9451 36.6662C77.954 39.6406 76.0448 42.4704 72.5659 44.6569Z" fill="#544A00"/>
<path d="M78.1746 27.5408V34.4161C78.1746 37.4937 76.1415 40.5684 72.0989 42.9173C63.9637 47.6385 50.7265 47.6385 42.5381 42.9173C38.4277 40.5419 36.374 37.4229 36.3828 34.3099V27.4346C36.3828 30.5506 38.4277 33.6695 42.5381 36.042C50.7295 40.7632 63.9637 40.7632 72.0989 36.042C76.1444 33.6932 78.1657 30.6185 78.1746 27.5408Z" fill="#F7C800"/>
<g opacity="0.15">
<path d="M36.3828 27.4644C36.3828 30.5686 38.4483 33.661 42.5381 36.0452C50.7265 40.7664 63.9607 40.7664 72.096 36.0452C76.1415 33.6846 78.1657 30.6187 78.1716 27.5411V30.1496C78.1214 33.1918 76.1061 36.2193 72.1019 38.5356C63.9666 43.2569 50.7324 43.2569 42.544 38.5356C38.4454 36.175 36.3887 33.0649 36.3887 29.9578" fill="#544A00"/>
</g>
<path d="M72.0127 18.9192C80.2011 23.6404 80.2453 31.3124 72.1071 36.0337C63.9689 40.7549 50.7376 40.7549 42.5463 36.0337C34.355 31.3124 34.3284 23.6404 42.4666 18.9192C50.6048 14.198 63.8302 14.2009 72.0127 18.9192Z" fill="#FEE425"/>
<path d="M57.3494 38.549C52.3331 38.549 47.6119 37.4691 44.0267 35.5038C40.2055 33.4088 38.1016 30.5524 38.1016 27.4571C38.1016 24.3617 40.1671 21.5556 43.95 19.49C47.5086 17.5248 52.2121 16.4448 57.2284 16.4448C62.2448 16.4448 66.9601 17.5071 70.5394 19.4812C74.3547 21.5467 76.4616 24.4089 76.4645 27.5073C76.4675 30.6056 74.399 33.4324 70.6131 35.5038C67.0722 37.4661 62.3598 38.549 57.3494 38.549Z" fill="#141414"/>
<path d="M69.2993 34.4264C62.7309 38.2623 51.9724 38.2623 45.3331 34.4264C38.6939 30.5904 38.6703 24.3731 45.2623 20.5577C51.8543 16.7424 62.5892 16.7217 69.2285 20.5577C75.8677 24.3937 75.8913 30.611 69.2993 34.4264Z" fill="#F7C800"/>
<g opacity="0.4">
<path d="M69.3021 34.4282C62.7337 38.2642 51.9752 38.2642 45.3359 34.4282L69.2372 20.5596C75.8705 24.3749 75.8941 30.6128 69.3021 34.4282Z" fill="white"/>
</g>
<path d="M57.8503 20.5826L59.6385 21.6154C61.4443 22.657 62.9935 23.7075 62.1466 24.9645L57.2602 22.1465L54.6399 22.4416L60.7568 25.9825C59.6385 26.6347 56.9592 27.095 53.8461 25.298L52.3442 24.4304L50.8688 25.2803L49.4141 33.1086L52.1052 34.6608L53.6189 26.555C56.3218 27.9625 60.146 28.5261 62.9994 27.2691L64.9233 28.3786L67.5436 28.0835L64.5486 26.3602C65.0045 26.0183 65.3118 25.5145 65.4072 24.9527L68.1455 26.5343L70.7658 26.2393L60.4676 20.2935L57.8503 20.5826Z" fill="#544A00"/>
<path d="M69.3366 20.3772C66.0907 18.5035 61.7944 17.4707 57.2384 17.4707C52.6824 17.4707 48.3861 18.5035 45.1668 20.3772C41.9475 22.2509 40.1328 24.7709 40.1328 27.4591C40.1328 30.1472 41.9475 32.7085 45.2376 34.6117C48.4835 36.4855 52.7828 37.5182 57.3535 37.5182C61.9242 37.5182 66.2058 36.4855 69.4162 34.6117C72.6267 32.738 74.4444 30.1974 74.4385 27.5122C74.4326 24.827 72.6237 22.2657 69.3366 20.3772ZM69.1949 34.2458C66.0494 36.0842 61.8416 37.0963 57.3446 37.0963C52.8477 37.0963 48.6192 36.0842 45.4412 34.2458C42.2633 32.4075 40.5489 30.0144 40.5489 27.4591C40.5489 24.9037 42.2603 22.5431 45.3704 20.7431C48.5277 18.9048 52.7473 17.8956 57.2296 17.8956C61.7118 17.8956 65.9461 18.9077 69.1241 20.7431C72.3021 22.5785 74.0106 24.9568 74.0165 27.5122C74.0224 30.0675 72.308 32.4429 69.1949 34.2429V34.2458Z" fill="#544A00"/>
<path d="M78.3868 27.5406C78.3868 27.5406 78.3868 27.517 78.3868 27.5081C78.3868 24.1826 76.1531 21.0666 72.1105 18.7325C68.127 16.4339 62.8392 15.165 57.2239 15.165C51.6086 15.165 46.3208 16.4368 42.352 18.7443C38.3832 21.0518 36.1554 24.159 36.1554 27.4609V27.4845L36.1406 34.3037C36.1406 37.6381 38.3596 40.76 42.4051 43.097C46.3975 45.4016 51.6912 46.6733 57.3124 46.6733C62.9336 46.6733 68.2125 45.4016 72.1784 43.097C76.1442 40.7925 78.3514 37.703 78.3602 34.4129V27.5406H78.3868ZM39.1061 40.0194C37.4567 38.2843 36.5803 36.3339 36.5862 34.3067V29.9189C37.1183 31.3701 37.9811 32.6773 39.1061 33.7372V40.0194ZM43.2844 43.0911C43.0661 42.9731 42.8477 42.8551 42.6353 42.7311C41.5125 42.096 40.4694 41.3293 39.5281 40.4472V34.1355C40.4219 34.9316 41.396 35.6327 42.4346 36.2276C42.712 36.387 42.9953 36.5404 43.2844 36.6909V43.0911ZM47.4657 44.8173C46.1748 44.4161 44.9186 43.9108 43.7094 43.3065V36.9034C44.9205 37.4936 46.1766 37.9869 47.4657 38.3787V44.8173ZM52.2695 45.8943C50.7882 45.6847 49.3238 45.3692 47.8876 44.9501V38.5056C49.3243 38.922 50.7886 39.2365 52.2695 39.4469V45.8943ZM57.0675 46.2484C55.6042 46.2375 54.143 46.139 52.6915 45.9534V39.5C54.1428 39.6872 55.6042 39.7858 57.0675 39.7951V46.2484ZM61.8654 45.9534C60.4153 46.1421 58.9548 46.2407 57.4924 46.2484V39.7981C58.9544 39.7936 60.4148 39.7 61.8654 39.5177V45.9534ZM66.6693 44.9619C65.2303 45.3818 63.7629 45.6974 62.2785 45.9062V39.4617C63.7581 39.2574 65.2214 38.9488 66.6575 38.5381L66.6693 44.9619ZM70.8505 43.3331C69.6416 43.9364 68.3853 44.4397 67.0942 44.838V38.4141C68.3833 38.0224 69.6394 37.5291 70.8505 36.9388V43.3331ZM75.0318 40.4738C74.1089 41.3428 73.0856 42.0987 71.9836 42.7252C71.7505 42.861 71.5174 42.9908 71.2754 43.1177V36.7322C71.5941 36.5699 71.9069 36.4017 72.2079 36.2247C73.2175 35.6473 74.1639 34.9659 75.0318 34.1916V40.4738ZM77.953 34.407C77.953 36.4076 77.0678 38.3315 75.4537 40.0459V33.7962C76.5436 32.7633 77.3859 31.4973 77.9176 30.093C77.9176 30.0664 77.9412 30.0399 77.9501 30.0133L77.953 34.407ZM72.5797 35.5076C72.3879 35.6286 72.1961 35.7467 71.9895 35.8647C71.783 35.9827 71.5823 36.0919 71.3758 36.204C67.5398 38.2696 62.5972 39.382 57.336 39.382C51.7886 39.382 46.5716 38.1338 42.6412 35.8647C38.7107 33.5955 36.6068 30.6271 36.6068 27.4638C36.6068 24.3006 38.7255 21.3528 42.5792 19.1132C46.4831 16.844 51.6912 15.5929 57.2386 15.5929C62.7861 15.5929 67.9912 16.8411 71.9128 19.1043C75.8344 21.3676 77.9707 24.3449 77.9766 27.5111C77.9678 30.4913 76.0616 33.3093 72.5797 35.5076Z" fill="#544A00"/>
<path d="M78.1824 18.3938V25.2662C78.1824 28.3468 76.1523 31.4185 72.1097 33.7703C63.9715 38.4915 50.7373 38.4915 42.546 33.7703C38.4355 31.4097 36.3818 28.276 36.3907 25.1599V18.2876C36.3907 21.4036 38.4355 24.5226 42.5489 26.895C50.7373 31.6162 63.9715 31.6162 72.1097 26.895C76.1434 24.5344 78.1735 21.4597 78.1824 18.3938Z" fill="#F7C800"/>
<g opacity="0.15">
<path d="M36.3984 18.3066C36.3984 21.4108 38.464 24.5033 42.5537 26.8875C50.7392 31.6087 63.9734 31.6087 72.1116 26.8875C76.1541 24.5269 78.1784 21.4581 78.1872 18.3804V20.9918C78.14 24.0311 76.1217 27.0616 72.1204 29.3779C63.9822 34.0992 50.748 34.0992 42.5626 29.3779C38.464 27.0173 36.4073 23.9072 36.4073 20.8" fill="#544A00"/>
</g>
<path d="M72.0164 9.75954C80.2078 14.4808 80.2491 22.1528 72.1138 26.874C63.9785 31.5952 50.7414 31.5952 42.553 26.874C34.3646 22.1528 34.3351 14.4808 42.4733 9.75954C50.6116 5.03831 63.8428 5.04126 72.0164 9.75954Z" fill="#FEE425"/>
<path opacity="0.15" d="M57.3602 29.3913C52.3439 29.3913 47.6226 28.3084 44.0345 26.3461C40.2133 24.2511 38.1094 21.3947 38.1094 18.2994C38.1094 15.204 40.1749 12.3978 43.9607 10.3323C47.5164 8.37004 52.2229 7.28711 57.2392 7.28711C62.2555 7.28711 66.9679 8.36119 70.5383 10.3205C74.3537 12.386 76.4605 15.2512 76.4664 18.3495C76.4723 21.4478 74.4009 24.2717 70.615 26.3461C67.083 28.3084 62.3706 29.3913 57.3602 29.3913Z" fill="#544A00"/>
<path d="M69.3178 25.2667C62.7465 29.1027 51.988 29.1027 45.3488 25.2667C38.7095 21.4307 38.6859 15.2134 45.2779 11.3981C51.87 7.58272 62.6078 7.56207 69.247 11.3981C75.8863 15.2341 75.9069 21.4543 69.3178 25.2667Z" fill="#F7C800"/>
<g opacity="0.4">
<path d="M69.3128 25.2656C62.7415 29.1016 51.983 29.1016 45.3438 25.2656L69.245 11.397C75.8813 15.2123 75.9019 21.4532 69.3128 25.2656Z" fill="white"/>
</g>
<path d="M69.3579 11.2175C66.1121 9.34085 61.8128 8.31104 57.2598 8.31104C52.7067 8.31104 48.4075 9.3438 45.1882 11.2175C41.9689 13.0913 40.1719 15.6112 40.1719 18.2994C40.1719 20.9875 41.9836 23.5488 45.2738 25.4491C48.5196 27.3258 52.8189 28.3586 57.3896 28.3586C61.9604 28.3586 66.2419 27.3258 69.4524 25.4491C72.6982 23.5695 74.4893 21.0495 74.4864 18.3673C74.4834 15.685 72.6333 13.106 69.3579 11.2175ZM69.2133 25.0862C66.0708 26.9245 61.86 27.9366 57.3631 27.9366C52.8661 27.9366 48.6406 26.9245 45.4597 25.0862C42.2787 23.2478 40.5702 20.8548 40.5702 18.2994C40.5702 15.744 42.2817 13.3834 45.3918 11.5834C48.5019 9.78347 52.7687 8.73299 57.248 8.73299C61.7272 8.73299 65.9645 9.74511 69.1455 11.5834C72.3264 13.4218 74.032 15.7971 74.0349 18.3525C74.0379 20.9079 72.3087 23.2832 69.2045 25.0832L69.2133 25.0862Z" fill="#544A00"/>
<path d="M78.3964 18.3932V18.3637C78.3964 15.0382 76.1627 11.9222 72.1201 9.58813C68.1366 7.27768 62.8665 6 57.2365 6C51.6064 6 46.3186 7.27178 42.3616 9.57633C38.4046 11.8809 36.165 14.9939 36.1798 18.2959C36.1798 18.2959 36.1798 18.3136 36.1798 18.3195V25.1387C36.1798 28.4731 38.3958 31.595 42.4413 33.932C46.4366 36.2365 51.7274 37.5083 57.3515 37.5083C62.9757 37.5083 68.2517 36.2365 72.2175 33.932C76.1833 31.6274 78.3876 28.535 78.3964 25.2479L78.4112 18.3726L78.3964 18.3932ZM39.1128 30.8602C37.4633 29.1252 36.587 27.1747 36.5929 25.1475L36.6047 20.7538C37.1342 22.21 37.9948 23.5232 39.1187 24.5898L39.1128 30.8602ZM43.2941 33.932C43.0757 33.8139 42.8574 33.6959 42.6449 33.572C41.5216 32.9376 40.4784 32.1709 39.5377 31.2881V24.9764C40.4298 25.7738 41.4041 26.4741 42.4442 27.0655C42.7187 27.2278 43.0049 27.3813 43.2941 27.5288V33.932ZM47.4753 35.6552C46.1841 35.256 44.9278 34.7517 43.719 34.1474V27.7413C44.9302 28.3315 46.1862 28.8248 47.4753 29.2166V35.6552ZM52.2792 36.7352C50.7973 36.5244 49.3328 36.2059 47.8973 35.7821V29.3465C49.3337 29.7633 50.798 30.0768 52.2792 30.2848V36.7352ZM57.0771 37.0893C55.6138 37.08 54.1524 36.9814 52.7011 36.7942V30.3409C54.1524 30.5281 55.6138 30.6266 57.0771 30.636V37.0893ZM61.8751 36.7942C60.4249 36.9829 58.9644 37.0814 57.502 37.0893V30.6389C58.9643 30.6295 60.4247 30.5309 61.8751 30.3438V36.7942ZM66.6789 35.8028C65.2439 36.2203 63.7803 36.5329 62.3 36.7382V30.3025C63.7795 30.098 65.2428 29.7894 66.6789 29.3789V35.8028ZM70.8601 34.1739C69.6508 34.7763 68.3945 35.2796 67.1038 35.6788V29.255C68.3925 28.862 69.6485 28.3687 70.8601 27.7796V34.1739ZM75.0414 31.3146C74.118 32.1831 73.0948 32.9389 71.9932 33.5661C71.7601 33.7018 71.5241 33.8317 71.2851 33.9585V27.5731C71.6008 27.4108 71.9136 27.2426 72.2175 27.0655C73.2268 26.4865 74.1731 25.8041 75.0414 25.0295V31.3146ZM77.9626 25.2479C77.9626 27.2485 77.0774 29.1724 75.4633 30.8868V24.6312C76.5555 23.5983 77.4007 22.3325 77.9361 20.9279C77.9361 20.9014 77.9567 20.8748 77.9685 20.8483L77.9626 25.2479ZM72.604 26.3426C72.4122 26.4636 72.2175 26.5816 72.0139 26.6996C71.8103 26.8177 71.6096 26.9269 71.4031 27.039C67.5671 29.1045 62.6245 30.217 57.3604 30.217C51.8159 30.217 46.596 28.9688 42.6656 26.6996C38.7351 24.4305 36.6047 21.4679 36.6047 18.3047C36.6047 15.1415 38.7204 12.1966 42.577 9.95403C46.4809 7.68489 51.6861 6.43376 57.2365 6.43376C62.7868 6.43376 67.9891 7.67899 71.9077 9.94223C75.8263 12.2055 77.9686 15.1857 77.9745 18.3519C77.9774 21.344 76.0712 24.1502 72.604 26.3426Z" fill="#544A00"/>
<path d="M30.3719 42.9697L37.2471 42.9845C40.3248 42.9845 43.3995 45.0146 45.7483 49.0572C50.4695 57.1954 50.4695 70.4296 45.7483 78.618C43.3877 82.7313 40.2569 84.7851 37.1409 84.7762H30.2656C33.3816 84.7762 36.5006 82.7313 38.876 78.618C43.5972 70.4296 43.5972 57.1954 38.876 49.0572C36.5242 45.0087 33.4525 42.9845 30.3719 42.9697Z" fill="#9EC9FF"/>
<g opacity="0.15">
<path d="M30.2969 84.7658C33.4011 84.7658 36.4935 82.7003 38.8777 78.6105C43.5989 70.4222 43.5989 57.1909 38.8777 49.0527C36.5171 45.0101 33.4513 42.983 30.3736 42.9771H32.9821C36.0243 43.0272 39.0518 45.0426 41.3682 49.0468C46.0894 57.185 46.0894 70.4162 41.3682 78.6046C39.0075 82.7032 35.9004 84.7599 32.7903 84.7599" fill="#6B9AD4"/>
</g>
<path d="M21.7519 49.1483C26.4731 40.957 34.1451 40.9157 38.8663 49.0509C43.5875 57.1862 43.5875 70.4234 38.8663 78.6118C34.1451 86.8001 26.4731 86.8296 21.7519 78.6914C17.0306 70.5532 17.0306 57.322 21.7519 49.1483Z" fill="#BFDBFF"/>
<path opacity="0.15" d="M41.3776 63.7997C41.3776 68.816 40.2977 73.5372 38.3325 77.1254C36.2374 80.9437 33.3811 83.0505 30.2857 83.0505C27.1904 83.0505 24.3842 80.985 22.3186 77.1991C20.3534 73.6435 19.2734 68.937 19.2734 63.9207C19.2734 58.9044 20.3534 54.1831 22.3186 50.6068C24.3842 46.7915 27.2464 44.6876 30.3447 44.6817C33.443 44.6758 36.2699 46.7472 38.3413 50.533C40.2977 54.0769 41.3776 58.7893 41.3776 63.7997Z" fill="#6B9AD4"/>
<path d="M37.2613 51.8463C41.0973 58.4147 41.0973 69.1762 37.2613 75.8154C33.4253 82.4546 27.208 82.4753 23.3927 75.8833C19.5774 69.2912 19.5567 58.5563 23.3927 51.9171C27.2287 45.2779 33.446 45.2543 37.2613 51.8463Z" fill="#9EC9FF"/>
<g opacity="0.4">
<path d="M37.2592 51.8476C41.0952 58.416 41.0952 69.1775 37.2592 75.8167L23.3906 51.9155C27.206 45.2792 33.4439 45.2556 37.2592 51.8476Z" fill="white"/>
</g>
<path d="M23.2034 51.8201C21.3296 55.066 20.2969 59.3623 20.2969 63.9183C20.2969 68.4743 21.3296 72.7706 23.2034 75.9899C25.0771 79.2092 27.6089 81.0328 30.2852 81.0328C32.9616 81.0328 35.5346 79.221 37.4379 75.9309C39.3116 72.685 40.3444 68.3828 40.3444 63.8121C40.3444 59.2413 39.3116 54.9598 37.4379 51.7493C35.5642 48.5389 33.0353 46.7153 30.3383 46.7183C27.6413 46.7212 25.0919 48.5271 23.2034 51.8201ZM37.072 51.9647C38.9074 55.1073 39.9195 59.3181 39.9195 63.8121C39.9195 68.3061 38.9074 72.5375 37.069 75.7184C35.2307 78.8994 32.8376 80.6079 30.2823 80.6079C27.7269 80.6079 25.3663 78.8964 23.5663 75.7863C21.7664 72.6762 20.7188 68.4094 20.7188 63.9272C20.7188 59.4449 21.7309 55.2135 23.5693 52.0326C25.4076 48.8517 27.78 47.1461 30.3354 47.1432C32.8908 47.1402 35.2809 48.8428 37.072 51.9559V51.9647Z" fill="#6B9AD4"/>
<path d="M30.3726 42.7646H30.3401C27.0146 42.7646 23.8986 44.9984 21.5645 49.0409C19.2659 53.0245 18 58.3093 18 63.9246C18 69.5399 19.2688 74.8425 21.5763 78.7994C23.8838 82.7564 26.991 84.9961 30.2959 84.9813H30.3195L37.1387 84.9961C40.4701 84.9961 43.595 82.78 45.929 78.7316C48.2336 74.7392 49.5054 69.4455 49.5054 63.8243C49.5054 58.2031 48.2336 52.9241 45.929 48.9583C43.6245 44.9925 40.535 42.7883 37.2449 42.7794L30.3726 42.7646ZM42.8514 82.0453C41.1134 83.6977 39.1629 84.5741 37.1387 84.5682H32.7509C34.2015 84.0365 35.5087 83.1748 36.5692 82.0512L42.8514 82.0453ZM45.9202 77.867C45.8021 78.0854 45.6871 78.3037 45.5602 78.5162C44.9258 79.6395 44.1591 80.6826 43.2763 81.6233H36.9646C37.7639 80.7321 38.4653 79.7577 39.0567 78.7168C39.216 78.4424 39.3695 78.1562 39.52 77.867H45.9202ZM47.6464 73.6858C47.2462 74.977 46.7409 76.2333 46.1356 77.4421H39.7324C40.3214 76.2303 40.8146 74.9744 41.2078 73.6858H47.6464ZM48.7234 68.8819C48.5122 70.3634 48.1946 71.8278 47.7733 73.2638H41.3347C41.7511 71.8271 42.0656 70.3628 42.276 68.8819H48.7234ZM49.0775 64.084C49.0667 65.5472 48.9682 67.0085 48.7824 68.46H42.3291C42.5163 67.0086 42.6148 65.5473 42.6242 64.084H49.0775ZM48.7824 59.286C48.9711 60.7362 49.0696 62.1967 49.0775 63.659H42.6301C42.6206 62.1967 42.5221 60.7363 42.335 59.286H48.7824ZM47.7969 54.4763C48.2153 55.9112 48.529 57.3747 48.7352 58.8552H42.2907C42.0862 57.3756 41.7776 55.9124 41.3671 54.4763H47.7969ZM46.171 50.295C46.7736 51.5063 47.2769 52.7645 47.6759 54.0572H41.2432C40.8515 52.7681 40.3581 51.5121 39.7678 50.3009L46.171 50.295ZM43.3087 46.1138C44.1783 47.0373 44.9342 48.0616 45.5602 49.1649C45.6959 49.398 45.8258 49.634 45.9526 49.8731H39.5613C39.399 49.5544 39.2308 49.2445 39.0567 48.9406C38.4766 47.932 37.7943 46.9857 37.0207 46.1167L43.3087 46.1138ZM37.242 43.1925C39.2426 43.1925 41.1665 44.0777 42.8809 45.6918H36.6253C35.5926 44.6008 34.3266 43.7575 32.922 43.225L32.8424 43.1925H37.242ZM38.3308 48.5747C38.4518 48.7665 38.5728 48.9613 38.6878 49.1649C38.8029 49.3685 38.918 49.5691 39.0301 49.7757C41.0809 53.6117 42.2081 58.5542 42.2081 63.8184C42.2081 69.3629 40.957 74.5828 38.6878 78.5103C36.4187 82.4377 33.4561 84.5564 30.2929 84.5623C27.1297 84.5682 24.1819 82.4466 21.9422 78.5899C19.6731 74.6861 18.422 69.478 18.422 63.9305C18.422 58.3831 19.6701 53.1779 21.9334 49.2593C24.1966 45.3407 27.1739 43.1984 30.3401 43.1925C33.3204 43.1837 36.1384 45.0899 38.3308 48.5747Z" fill="#6B9AD4"/>
<path d="M28.5594 63.7769C29.7376 63.9217 31.4313 60.4502 32.9738 60.6397C33.3994 60.6919 33.8136 61.023 34.2022 61.7857C35.3871 64.1113 34.8463 67.4828 33.6627 69.9096C32.7943 71.69 31.8682 72.3666 31.0218 72.2628C30.2453 72.1675 29.5358 71.4155 28.9992 70.2564L30.2147 67.7971C30.4799 68.4614 30.9414 69.1343 31.4826 69.2008C31.8961 69.2516 32.3562 68.9482 32.8109 68.0161C33.4579 66.6895 33.565 65.1582 33.0992 64.244C32.9299 63.9118 32.7372 63.7574 32.5252 63.7313C31.4155 63.5949 29.7773 66.9754 28.2061 66.7825C27.7444 66.7258 27.2884 66.3605 26.8534 65.5067C25.6685 63.1812 26.1158 60.1326 27.2836 57.7382C27.9975 56.2745 28.8009 55.4254 29.6541 55.5302C30.3382 55.6141 31.0542 56.311 31.7819 57.7956L30.5428 60.3034C30.0493 59.2324 29.5905 58.6793 29.16 58.6264C28.7908 58.5811 28.4425 58.9038 28.1109 59.5836C27.4797 60.8778 27.4763 62.3277 27.9257 63.2098C28.1133 63.578 28.3263 63.7482 28.5594 63.7769Z" fill="black"/>
<path d="M26.2914 57.6172C25.1236 60.0116 24.6763 63.0602 25.8612 65.3857L26.8538 65.5076C25.6689 63.182 26.1161 60.1334 27.284 57.7391L26.2914 57.6172Z" fill="black"/>
<path d="M28.6674 55.4091C27.8142 55.3043 27.0108 56.1534 26.2969 57.6171L27.2894 57.739C28.0033 56.2753 28.8067 55.4262 29.66 55.5309L28.6674 55.4091Z" fill="black"/>
<path d="M26.9329 63.0891C26.4835 62.207 26.4869 60.7572 27.1182 59.4629L28.1107 59.5848C27.4795 60.879 27.476 62.3289 27.9255 63.211L26.9329 63.0891Z" fill="black"/>
<path d="M25.8594 65.3848C26.2944 66.2386 26.7503 66.6038 27.2121 66.6605L28.2046 66.7824C27.7429 66.7257 27.287 66.3604 26.8519 65.5066L25.8594 65.3848Z" fill="black"/>
<path d="M27.1172 59.4633C27.4487 58.7835 27.7971 58.4608 28.1663 58.5061L29.1588 58.628C28.7896 58.5827 28.4413 58.9054 28.1097 59.5852L27.1172 59.4633Z" fill="black"/>
<path d="M27.5712 63.655C27.3381 63.6263 27.1251 63.4561 26.9375 63.0879L27.93 63.2098C28.1177 63.578 28.3306 63.7482 28.5637 63.7769L27.5712 63.655Z" fill="black"/>
<path d="M28.1719 58.5059C28.6023 58.5587 29.0611 59.1119 29.5547 60.1828L30.5472 60.3047C30.0537 59.2337 29.5949 58.6806 29.1644 58.6277L28.1719 58.5059Z" fill="black"/>
<path d="M30.7841 57.6736C30.0564 56.1891 29.3403 55.4922 28.6564 55.4082L29.6488 55.5301C30.3328 55.614 31.0489 56.3109 31.7766 57.7955L30.7841 57.6736Z" fill="black"/>
<path d="M29.2233 67.6758L28.0078 70.135L29.0004 70.2569L30.2158 67.7977L29.2233 67.6758Z" fill="black"/>
<path d="M27.2188 66.6607C28.7899 66.8536 30.4282 63.4731 31.5379 63.6095L32.5303 63.7313C31.4206 63.5952 29.7824 66.9754 28.2113 66.7825L27.2188 66.6607Z" fill="black"/>
<path d="M31.9769 60.5192C30.4344 60.3298 28.7408 63.801 27.5626 63.6564L28.555 63.7783C29.7332 63.9231 31.4269 60.4517 32.9694 60.6411L31.9769 60.5192Z" fill="black"/>
<path d="M29.5469 60.1816L30.786 57.6738L31.7785 57.7957L30.5394 60.3035L29.5469 60.1816Z" fill="black"/>
<path d="M28.0078 70.1348C28.5444 71.2939 29.2539 72.0459 30.0304 72.1412L31.0227 72.263C30.2463 72.1676 29.5369 71.4157 29.0004 70.2566L28.0078 70.1348Z" fill="black"/>
<path d="M30.4867 69.0794C29.9455 69.0129 29.484 68.34 29.2188 67.6758L30.2113 67.7977C30.4766 68.4619 30.9381 69.1348 31.4792 69.2013L30.4867 69.0794Z" fill="black"/>
<path d="M31.8205 67.8945C31.3659 68.8265 30.9059 69.1299 30.4923 69.0792L31.4847 69.201C31.8983 69.2519 32.3584 68.9485 32.813 68.0164L31.8205 67.8945Z" fill="black"/>
<path d="M31.5312 63.6094C31.7433 63.6354 31.936 63.7898 32.1052 64.1221L33.0978 64.2439C32.9285 63.9117 32.7358 63.7573 32.5238 63.7312L31.5312 63.6094Z" fill="black"/>
<path d="M30.0312 72.1422C30.8777 72.2461 31.8038 71.5695 32.6722 69.7891L33.6647 69.9109C32.7964 71.6914 31.8703 72.368 31.0238 72.2641L30.0312 72.1422Z" fill="black"/>
<path d="M32.1087 64.123C32.5745 65.0372 32.4673 66.5686 31.8203 67.8952L32.8129 68.017C33.4599 66.6904 33.567 65.1591 33.1012 64.2449L32.1087 64.123Z" fill="black"/>
<path d="M33.2128 61.6656C32.8242 60.9029 32.41 60.5718 31.9844 60.5195L32.9769 60.6414C33.4026 60.6937 33.8167 61.0247 34.2054 61.7875L33.2128 61.6656Z" fill="black"/>
<path d="M32.6719 69.7879C33.8555 67.3612 34.3963 63.9896 33.2114 61.6641L34.2039 61.7859C35.3889 64.1115 34.848 67.4831 33.6644 69.9098L32.6719 69.7879Z" fill="black"/>
<path d="M33.2088 61.6638C34.3937 63.9893 33.8528 67.3609 32.6692 69.7877C31.0043 73.2013 29.1273 72.5572 28.0057 70.1344L29.2212 67.6752C29.6892 68.8471 30.7679 70.0459 31.8174 67.8942C32.4644 66.5676 32.5715 65.0362 32.1058 64.1221C30.7901 61.5399 28.0582 69.699 25.86 65.3848C24.675 63.0592 25.1223 60.0107 26.2901 57.6163C27.5763 54.9792 29.153 54.3372 30.7885 57.6737L29.5494 60.1815C28.6324 58.1919 27.8355 57.9894 27.1175 59.4616C26.4862 60.7559 26.4828 62.2058 26.9322 63.0879C28.3296 65.8304 31.1331 57.5901 33.2088 61.6638Z" fill="white"/>
<path d="M62.98 19.1213C63.6549 18.6203 63.9719 17.9925 63.8679 17.3349C63.7632 16.6736 63.241 16.0544 62.3963 15.5668C60.079 14.2288 56.689 14.5809 54.3699 15.9198C53.6725 16.3224 53.0858 16.7951 52.692 17.3052C52.2982 17.8152 52.0858 18.3789 52.1763 18.9504C52.2773 19.5885 52.7455 20.1762 53.6102 20.6755C55.3505 21.6802 57.707 21.7634 59.7189 20.9141L60.0821 20.7608L59.7407 20.5637L57.1505 19.0683L58.572 18.2475L63.7178 21.2184L57.6962 24.695L56.2258 23.8461L58.2895 22.6547L58.1529 22.2927C55.8599 22.753 53.3898 22.5895 51.3827 21.4307C50.1157 20.6992 49.3775 19.7722 49.2257 18.8143C49.0322 17.5937 49.7799 16.2059 51.8958 14.9842C53.7838 13.8942 56.0708 13.3368 58.3034 13.2931C60.5369 13.2493 62.7003 13.72 64.3437 14.6688C65.7225 15.4649 66.5118 16.4943 66.6698 17.4905C66.8285 18.4917 66.3577 19.524 65.0639 20.3244L62.98 19.1213Z" fill="#141414" stroke="#141414" stroke-width="0.392075"/>
</svg>
