<svg width="56" height="35" viewBox="0 0 56 35" fill="none" xmlns="http://www.w3.org/2000/svg">
<path fill-rule="evenodd" clip-rule="evenodd" d="M28.0035 30.0933C31.7219 26.967 34.0851 22.2808 34.0851 17.0426C34.0851 11.8044 31.7219 7.11815 28.0035 3.99189C30.9666 1.50065 34.7903 0 38.9644 0C48.3768 0 56.007 7.63022 56.007 17.0426C56.007 26.4549 48.3768 34.0851 38.9644 34.0851C34.7903 34.0851 30.9666 32.5845 28.0035 30.0933ZM28.0035 30.0933C25.0404 32.5845 21.2167 34.0851 17.0426 34.0851C7.63022 34.0851 0 26.4549 0 17.0426C0 7.63022 7.63022 0 17.0426 0C21.2167 0 25.0404 1.50065 28.0035 3.99189C24.2851 7.11815 21.9219 11.8044 21.9219 17.0426C21.9219 22.2808 24.2851 26.967 28.0035 30.0933Z" fill="#F9F9F9"/>
</svg>
