<svg width="117" height="75" viewBox="0 0 117 75" fill="none" xmlns="http://www.w3.org/2000/svg">
<g clip-path="url(#clip0_3040_90019)">
<path d="M40.2557 9.3452C40.2557 9.3452 39.3514 -0.0621374 6.73047 2.40869C6.73047 2.40869 14.9345 8.78151 16.5891 12.5535C18.2438 16.3256 11.8912 26.2739 11.8912 26.2739L35.8453 23.3498C35.8453 23.3498 42.2195 14.9155 40.2557 9.3452Z" fill="url(#paint0_linear_3040_90019)"/>
<path d="M37.3395 12.0393C38.0867 13.014 38.2272 14.13 37.7693 15.4409L39.1231 15.8974C39.7397 14.1381 39.5232 12.5559 38.4834 11.1864C34.012 5.3383 14.7706 5.6632 10.7422 5.79154C11.2265 6.22852 11.7241 6.69149 12.2167 7.16584C14.4598 7.1301 18.2188 7.13822 22.1746 7.44849C30.2926 8.09341 35.5311 9.6789 37.3395 12.0393Z" fill="url(#paint1_linear_3040_90019)"/>
<path d="M1.12724 31.3232C1.12724 31.3232 -0.0199881 23.3925 9.24362 21.8086C18.5072 20.2247 41.1819 20.8339 40.2546 9.34399C40.2546 9.34399 42.2845 15.1531 41.8877 22.6533C41.491 30.1536 36.598 39.5593 25.3888 41.0765C14.1796 42.5938 2.31743 39.7331 1.12724 31.3232Z" fill="url(#paint2_linear_3040_90019)"/>
<path d="M4.23072 35.1813L4.26546 35.2008C4.33324 35.2398 4.40432 35.2772 4.47375 35.3145C5.02815 35.6032 5.61002 35.8377 6.21105 36.0147C7.59629 36.4127 9.35183 36.5881 11.557 36.3509C16.3227 35.8425 21.1065 33.2238 25.4292 30.4687C22.2372 32.267 14.6168 36.0163 8.09222 34.9961C4.78615 34.4796 2.78929 32.8713 2.47191 30.4687C2.15452 28.019 3.77285 25.3012 6.15818 24.2794C9.98 22.642 14.015 22.1969 17.9162 21.7648C20.0106 21.5325 22.1794 21.292 24.2308 20.868C25.0408 20.7056 25.94 20.5432 26.8938 20.3921C32.6943 19.4304 40.6405 18.1178 40.409 10.2115C40.3611 8.57238 39.4718 7.10873 37.7642 5.86438C30.9256 0.878855 12.0165 1.36459 6.72185 2.4075C13.5654 1.99489 30.3272 2.19469 36.9112 6.9934C38.2469 7.96809 38.9428 9.0646 38.9775 10.2521C39.1726 16.9287 32.2315 18.0804 26.6558 19.0064C25.6871 19.1688 24.773 19.3183 23.9366 19.4937C21.9529 19.9047 19.9131 20.1305 17.7559 20.3693C13.7489 20.8128 9.60642 21.2709 5.58624 22.9929C2.60086 24.2713 0.651901 27.5625 1.05194 30.649C1.14028 31.3736 1.36447 32.0759 1.71315 32.7202C2.32309 33.7397 3.19019 34.5873 4.23072 35.1813Z" fill="url(#paint3_linear_3040_90019)"/>
<path d="M85.2033 37.1301C85.2033 37.1301 75.7629 49.9635 62.5303 50.4817C49.2978 50.9999 47.4431 40.4246 47.4431 40.4246C47.4431 40.4246 45.59 45.2801 46.4727 51.0015C47.3555 56.723 49.2069 69.0332 64.8214 71.8972C80.436 74.7612 102.23 66.9555 115.287 39.7325L85.2033 37.1301Z" fill="url(#paint4_linear_3040_90019)"/>
<path d="M72.2631 68.9888C63.9566 68.9888 57.6355 67.0394 53.8864 63.3145C51.0977 60.5415 49.8232 56.867 50.0943 52.3948L51.5242 52.4776C51.2762 56.5388 52.4135 59.8495 54.9046 62.3252C58.7066 66.1005 65.7849 67.9443 74.8634 67.5235C88.3554 66.8932 100.808 53.2135 100.932 53.0754L102.005 54.0063C101.874 54.1525 98.7448 57.611 93.8419 61.2027C89.2927 64.5377 82.3185 68.5843 74.9328 68.9303C74.0225 68.9693 73.1326 68.9888 72.2631 68.9888Z" fill="url(#paint5_linear_3040_90019)"/>
<path d="M51.8204 64.905C51.8204 64.905 49.0648 62.1011 49.926 56.8979C50.7872 51.6947 54.095 49.7502 58.6606 48.0559C63.2263 46.3616 64.8132 38.7558 60.6443 34.7904C58.3218 32.5779 54.2289 28.2243 51.0567 24.8048C48.6499 22.2056 44.2545 23.2193 43.3106 26.6079C42.913 28.0555 42.6229 29.5295 42.4427 31.0184C41.4559 39.0173 47.0332 59.8415 51.8204 64.905Z" fill="url(#paint6_linear_3040_90019)"/>
<path d="M63.7359 39.457C63.7359 39.457 62.3573 34.798 55.0343 36.6174C47.7114 38.4368 41.1389 47.8896 33.287 50.7503C25.4351 53.611 12.7745 55.7862 7.65674 49.363C2.53894 42.9398 1.12891 31.3313 1.12891 31.3313C1.12891 31.3313 2.42982 37.3419 11.5612 36.3672C20.6925 35.3925 29.89 26.6788 35.7798 24.078C41.6696 21.4772 45.5426 20.5578 49.581 23.1765L61.5952 35.2707C61.5952 35.2707 63.3723 37.0511 63.7359 39.457Z" fill="url(#paint7_linear_3040_90019)"/>
<path d="M50.3381 23.9268C48.3941 23.3355 45.5443 22.97 42.1258 24.0324C37.0212 25.6163 33.5697 28.0319 28.7925 31.375C27.6899 32.145 26.5509 32.9427 25.2847 33.8118C18.6065 38.3603 13.9713 39.1238 9.07009 38.8574C5.41523 38.6608 2.90099 37.1566 1.65625 34.4713C1.85461 35.4622 2.11742 36.6335 2.45629 37.899C4.068 39.309 6.26985 40.1229 8.9924 40.2707C9.58088 40.3015 10.1644 40.3194 10.7496 40.3194C15.3252 40.3194 19.8826 39.2164 26.1013 34.9765C27.3741 34.109 28.5164 33.3082 29.6223 32.5398C34.4673 29.1495 37.6676 26.911 42.5573 25.3921C48.2487 23.6247 52.13 26.2417 52.292 26.3538L52.4771 26.0987L50.3381 23.9268Z" fill="url(#paint8_linear_3040_90019)"/>
<path d="M60.1729 33.8299L58.3975 32.043C57.0381 31.8931 55.6643 31.9226 54.3128 32.1307C50.6266 32.6765 46.5948 36.1155 42.3267 39.756C38.1941 43.2843 33.9094 46.9346 29.433 48.5639C22.2919 51.1631 12.263 51.4019 5.62109 46.2328C6.14932 47.2305 6.75734 48.1855 7.43943 49.0886C10.9753 50.9698 15.0665 51.7641 19.1065 51.7641C22.7979 51.7606 26.4603 51.124 29.9289 49.883C34.65 48.1659 39.0289 44.4296 43.264 40.8184C47.3701 37.3144 51.2481 34.0069 54.5244 33.5212C56.8387 33.1801 58.7149 33.4026 60.1729 33.8299Z" fill="url(#paint9_linear_3040_90019)"/>
<path d="M102.957 56.8394C100.037 59.8704 96.7754 62.5649 93.2353 64.8708C87.5273 68.5876 78.5943 72.8015 68.4497 71.7602C61.0292 71 55.7841 68.7988 52.8582 65.2201C50.1307 61.8818 50.4911 58.4769 50.496 58.4444L50.506 58.3599L50.496 58.2754C50.4663 58.0399 49.8877 52.437 56.966 49.5032C62.6194 47.1624 64.8527 43.5966 63.6046 38.9052C63.3302 37.8704 62.2326 36.5009 60.4043 35.7716C58.6124 35.0568 55.589 34.7303 51.3622 37.2336C50.3755 37.8304 49.4336 38.496 48.5438 39.2252C47.9928 39.6724 47.4771 40.1056 46.9966 40.5248L46.9404 40.5735L46.6808 40.8026C46.3387 41.1063 45.9932 41.4166 45.6477 41.7301C41.3498 45.663 39.6373 47.8642 32.8003 50.7508C25.7832 53.7123 15.1558 53.2444 15.0352 53.2298C19.9463 54.3052 25.727 53.3127 26.0477 53.2525C36.6635 51.2317 41.6193 47.2907 46.256 43.0914C48.2132 41.3175 50.058 39.6443 52.1028 38.4324C55.8221 36.2248 58.3761 36.4701 59.8721 37.063C61.3267 37.6446 62.0772 38.6875 62.226 39.2495C62.6144 40.7116 63.7947 45.1415 56.4172 48.1955C52.2053 49.9402 50.4316 52.6092 49.6861 54.5407C49.2048 55.7506 48.9956 57.0485 49.0728 58.3453C49.0182 58.948 48.843 62.5056 51.7176 66.0518C54.8865 69.9505 60.4672 72.3418 68.3058 73.1459C69.4043 73.256 70.5078 73.3102 71.6119 73.3083C80.8061 73.3083 88.7803 69.4502 94.0667 65.9982C98.0151 63.382 101.636 60.3177 104.854 56.8686L102.957 56.8394Z" fill="url(#paint10_linear_3040_90019)"/>
</g>
<defs>
<linearGradient id="paint0_linear_3040_90019" x1="46.9455" y1="16.2427" x2="4.29119" y2="13.239" gradientUnits="userSpaceOnUse">
<stop stop-color="#A80000"/>
<stop offset="0.08" stop-color="#910202"/>
<stop offset="0.22" stop-color="#5E0606"/>
<stop offset="0.28" stop-color="#620606"/>
<stop offset="0.34" stop-color="#6F0606"/>
<stop offset="0.4" stop-color="#850606"/>
<stop offset="0.47" stop-color="#A30606"/>
<stop offset="0.54" stop-color="#C80606"/>
<stop offset="0.7" stop-color="#DD1111"/>
<stop offset="0.99" stop-color="#FF2424"/>
</linearGradient>
<linearGradient id="paint1_linear_3040_90019" x1="10.7422" y1="10.8209" x2="39.4653" y2="10.8209" gradientUnits="userSpaceOnUse">
<stop offset="0.1" stop-color="#AE721A"/>
<stop offset="0.25" stop-color="#DAA30C"/>
<stop offset="0.39" stop-color="#FFCC00"/>
<stop offset="0.42" stop-color="#FFD62A"/>
<stop offset="0.47" stop-color="#FFE462"/>
<stop offset="0.51" stop-color="#FFEF8E"/>
<stop offset="0.56" stop-color="#FFF7AE"/>
<stop offset="0.59" stop-color="#FFFBC1"/>
<stop offset="0.61" stop-color="#FFFDC8"/>
<stop offset="0.85" stop-color="#FFCC00"/>
<stop offset="0.88" stop-color="#D9A803"/>
<stop offset="0.92" stop-color="#AD7F06"/>
<stop offset="0.95" stop-color="#8D6209"/>
<stop offset="0.98" stop-color="#7A500A"/>
<stop offset="1" stop-color="#73490B"/>
</linearGradient>
<linearGradient id="paint2_linear_3040_90019" x1="44.6301" y1="22.27" x2="4.64192" y2="32.8367" gradientUnits="userSpaceOnUse">
<stop stop-color="#FF5050"/>
<stop offset="0.07" stop-color="#EA4040"/>
<stop offset="0.21" stop-color="#B41818"/>
<stop offset="0.27" stop-color="#9C0606"/>
<stop offset="0.43" stop-color="#B30606"/>
<stop offset="0.56" stop-color="#C80606"/>
<stop offset="0.6" stop-color="#B60606"/>
<stop offset="0.73" stop-color="#8A0606"/>
<stop offset="0.84" stop-color="#6A0606"/>
<stop offset="0.94" stop-color="#570603"/>
<stop offset="1" stop-color="#500600"/>
</linearGradient>
<linearGradient id="paint3_linear_3040_90019" x1="30.6132" y1="-2.54228" x2="7.81344" y2="32.2052" gradientUnits="userSpaceOnUse">
<stop stop-color="#620505"/>
<stop offset="0.05" stop-color="#6C0829"/>
<stop offset="0.27" stop-color="#880C0C"/>
<stop offset="0.44" stop-color="#960E0E"/>
<stop offset="0.52" stop-color="#BB1919"/>
<stop offset="0.69" stop-color="#A80B0B"/>
<stop offset="0.9" stop-color="#710707"/>
<stop offset="1" stop-color="#6C0505"/>
</linearGradient>
<linearGradient id="paint4_linear_3040_90019" x1="44.5404" y1="54.1335" x2="94.248" y2="55.1478" gradientUnits="userSpaceOnUse">
<stop stop-color="#E20000"/>
<stop offset="0.1" stop-color="#CB0202"/>
<stop offset="0.27" stop-color="#9C0606"/>
<stop offset="0.43" stop-color="#B30606"/>
<stop offset="0.56" stop-color="#C80606"/>
<stop offset="0.57" stop-color="#C20606"/>
<stop offset="0.71" stop-color="#960606"/>
<stop offset="0.83" stop-color="#760606"/>
<stop offset="0.93" stop-color="#630604"/>
<stop offset="1" stop-color="#5C0600"/>
</linearGradient>
<linearGradient id="paint5_linear_3040_90019" x1="56.6502" y1="61.5113" x2="92.4967" y2="56.408" gradientUnits="userSpaceOnUse">
<stop offset="0.1" stop-color="#AE721A"/>
<stop offset="0.25" stop-color="#DAA30C"/>
<stop offset="0.39" stop-color="#FFCC00"/>
<stop offset="0.42" stop-color="#FFD62A"/>
<stop offset="0.47" stop-color="#FFE462"/>
<stop offset="0.51" stop-color="#FFEF8E"/>
<stop offset="0.56" stop-color="#FFF7AE"/>
<stop offset="0.59" stop-color="#FFFBC1"/>
<stop offset="0.61" stop-color="#FFFDC8"/>
<stop offset="0.85" stop-color="#FFCC00"/>
<stop offset="0.88" stop-color="#D9A803"/>
<stop offset="0.92" stop-color="#AD7F06"/>
<stop offset="0.95" stop-color="#8D6209"/>
<stop offset="0.98" stop-color="#7A500A"/>
<stop offset="1" stop-color="#73490B"/>
</linearGradient>
<linearGradient id="paint6_linear_3040_90019" x1="62.0113" y1="31.2458" x2="47.0649" y2="46.3442" gradientUnits="userSpaceOnUse">
<stop stop-color="#E20000"/>
<stop offset="0.1" stop-color="#CB0202"/>
<stop offset="0.27" stop-color="#9C0606"/>
<stop offset="0.43" stop-color="#B30606"/>
<stop offset="0.56" stop-color="#C80606"/>
<stop offset="0.57" stop-color="#C20606"/>
<stop offset="0.71" stop-color="#960606"/>
<stop offset="0.83" stop-color="#760606"/>
<stop offset="0.93" stop-color="#630604"/>
<stop offset="1" stop-color="#5C0600"/>
</linearGradient>
<linearGradient id="paint7_linear_3040_90019" x1="9.65691" y1="51.8615" x2="55.1811" y2="17.7632" gradientUnits="userSpaceOnUse">
<stop stop-color="#A80000"/>
<stop offset="0.15" stop-color="#910303"/>
<stop offset="0.31" stop-color="#720606"/>
<stop offset="0.36" stop-color="#760606"/>
<stop offset="0.41" stop-color="#830606"/>
<stop offset="0.46" stop-color="#990606"/>
<stop offset="0.51" stop-color="#B70606"/>
<stop offset="0.54" stop-color="#C80606"/>
<stop offset="0.59" stop-color="#DD2525"/>
<stop offset="0.7" stop-color="#FF5858"/>
<stop offset="0.74" stop-color="#FF5858"/>
<stop offset="0.78" stop-color="#FF5858"/>
<stop offset="0.85" stop-color="#DB3D3D"/>
<stop offset="0.95" stop-color="#A81515"/>
<stop offset="1" stop-color="#940606"/>
</linearGradient>
<linearGradient id="paint8_linear_3040_90019" x1="1.65625" y1="31.8299" x2="52.4771" y2="31.8299" gradientUnits="userSpaceOnUse">
<stop offset="0.1" stop-color="#AE721A"/>
<stop offset="0.25" stop-color="#DAA30C"/>
<stop offset="0.39" stop-color="#FFCC00"/>
<stop offset="0.42" stop-color="#FFD62A"/>
<stop offset="0.47" stop-color="#FFE462"/>
<stop offset="0.51" stop-color="#FFEF8E"/>
<stop offset="0.56" stop-color="#FFF7AE"/>
<stop offset="0.59" stop-color="#FFFBC1"/>
<stop offset="0.61" stop-color="#FFFDC8"/>
<stop offset="0.85" stop-color="#FFCC00"/>
<stop offset="0.88" stop-color="#D9A803"/>
<stop offset="0.92" stop-color="#AD7F06"/>
<stop offset="0.95" stop-color="#8D6209"/>
<stop offset="0.98" stop-color="#7A500A"/>
<stop offset="1" stop-color="#73490B"/>
</linearGradient>
<linearGradient id="paint9_linear_3040_90019" x1="14.807" y1="49.459" x2="57.601" y2="29.0857" gradientUnits="userSpaceOnUse">
<stop offset="0.1" stop-color="#AE721A"/>
<stop offset="0.25" stop-color="#DAA30C"/>
<stop offset="0.39" stop-color="#FFCC00"/>
<stop offset="0.42" stop-color="#FFD62A"/>
<stop offset="0.47" stop-color="#FFE462"/>
<stop offset="0.51" stop-color="#FFEF8E"/>
<stop offset="0.56" stop-color="#FFF7AE"/>
<stop offset="0.59" stop-color="#FFFBC1"/>
<stop offset="0.61" stop-color="#FFFDC8"/>
<stop offset="0.85" stop-color="#FFCC00"/>
<stop offset="0.88" stop-color="#D9A803"/>
<stop offset="0.92" stop-color="#AD7F06"/>
<stop offset="0.95" stop-color="#8D6209"/>
<stop offset="0.98" stop-color="#7A500A"/>
<stop offset="1" stop-color="#73490B"/>
</linearGradient>
<linearGradient id="paint10_linear_3040_90019" x1="26.6312" y1="43.777" x2="94.2878" y2="64.283" gradientUnits="userSpaceOnUse">
<stop stop-color="#620505"/>
<stop offset="0.05" stop-color="#6C0808"/>
<stop offset="0.27" stop-color="#880C0C"/>
<stop offset="0.44" stop-color="#960E0E"/>
<stop offset="0.52" stop-color="#BB1919"/>
<stop offset="0.69" stop-color="#A80B0B"/>
<stop offset="0.9" stop-color="#710707"/>
<stop offset="1" stop-color="#6C0505"/>
</linearGradient>
<clipPath id="clip0_3040_90019">
<rect width="117" height="75" fill="white"/>
</clipPath>
</defs>
</svg>
