<svg width="64" height="21" viewBox="0 0 64 21" fill="none" xmlns="http://www.w3.org/2000/svg">
<path d="M58.9473 0H54.7722C53.5704 0 52.9412 0.643978 52.3865 1.88571L44.6328 19.4857H50.0007C50.0007 19.4857 51.0087 16.916 51.1936 16.3429C51.7483 16.3429 57.0148 16.3429 57.7544 16.3429C57.9393 17.0115 58.3508 19.4857 58.3508 19.4857H63.1223L58.9473 0ZM52.3865 12.5714C52.8487 11.4252 54.7722 6.91429 54.7722 6.91429C54.7722 7.0098 55.1838 5.6972 55.3687 5.02857V6.91429C55.3687 6.91429 56.3766 11.6162 56.5615 12.5714H52.3865V12.5714Z" fill="#F9F9F9"/>
<path d="M44.627 13.2C44.627 17.2229 40.9801 20.1143 35.6804 20.1143C33.4348 20.1143 31.4802 19.4318 30.3125 18.8571L30.9089 14.4571L31.5054 15.0857C33.1222 15.852 34.3007 15.7143 36.2769 15.7143C37.7141 15.7143 39.259 15.1695 39.259 13.8286C39.259 12.9665 38.8494 12.9007 36.8733 11.9429C34.987 10.985 32.1018 9.0634 32.1018 6.28571C32.1018 2.45442 35.5116 0 40.4519 0C42.3382 0 44.2353 0.14966 45.2234 0.628571L44.627 5.02857L44.0305 4.4C43.1323 4.01687 42.1586 3.77143 40.4519 3.77143C38.5656 3.86721 37.4697 4.89088 37.4697 5.65714C37.4697 6.51918 38.7452 7.30939 40.4519 8.17143C43.3263 9.60816 44.627 10.9012 44.627 13.2Z" fill="#F9F9F9"/>
<path d="M0.492188 0.628571V0H8.24585C9.34697 0 10.3563 0.663819 10.6316 1.88571L12.4209 10.0571C10.6775 5.54553 6.64006 2.13244 0.492188 0.628571Z" fill="#F9F9F9"/>
<path d="M23.1509 0L15.3972 19.4857H10.0293L5.25781 3.14286C8.5443 5.33978 11.4108 8.92633 12.415 11.3143L13.0115 13.2L17.783 0H23.1509V0Z" fill="#F9F9F9"/>
<path d="M25.5447 0H30.9126L27.9304 19.4857H22.5625L25.5447 0Z" fill="#F9F9F9"/>
</svg>
