<svg width="207" height="135" viewBox="0 0 207 135" fill="none" xmlns="http://www.w3.org/2000/svg">
<path d="M194.63 135.499C136.278 134.759 77.9956 133.964 19.6392 134.848C11.8645 135.046 5.32372 130.189 5.31403 124.356C5.26094 88.3711 5.20554 52.3888 5.15244 16.4038C5.14275 10.5712 10.7165 5.48941 17.5999 5.48157C76.4598 5.41134 135.317 5.34378 194.177 5.27356C201.061 5.26571 206.649 10.333 206.656 16.1682C206.71 52.303 206.764 88.4379 206.817 124.573C206.828 130.453 201.315 135.55 194.63 135.499Z" fill="#141414"/>
<path d="M14.2742 129.094L14.269 129.094C10.4859 129.19 7.01723 128.056 4.5036 126.206C1.98814 124.356 0.461122 121.819 0.456605 119.101C0.430059 101.108 0.402936 83.1164 0.375813 65.1246L0.375782 65.1047C0.34867 47.1195 0.321557 29.1343 0.295021 11.1484L0.29502 11.1483C0.285882 5.64739 5.57705 0.734528 12.243 0.726927L12.2431 0.726927C41.6264 0.691871 71.0091 0.657479 100.392 0.623086L100.532 0.622922L100.72 0.622701C130.087 0.588328 159.453 0.553956 188.82 0.518918C195.486 0.511317 200.792 5.41043 200.799 10.9142L201.299 10.9135L200.799 10.9143L200.88 65.1166L200.96 119.319L200.96 119.319C200.97 124.877 195.73 129.793 189.278 129.745C187.406 129.721 185.534 129.697 183.662 129.673C127.188 128.955 70.766 128.238 14.2742 129.094Z" fill="#2F2F32" stroke="#101012"/>
<path d="M43.9539 89.7358C35.9172 89.7175 31.8767 89.7124 23.7392 89.7137C20.7509 89.7144 19.253 89.715 16.2498 89.7168C14.1614 89.719 12.4819 91.3163 12.5199 93.2697C12.5464 94.6718 12.5607 95.3702 12.5867 96.7649C12.5969 97.2638 12.5995 97.5134 12.6098 98.0124C12.6589 100.55 12.6831 101.812 12.7314 104.337C12.7414 104.833 12.7464 105.08 12.7564 105.577C12.7778 106.694 12.7898 107.253 12.8112 108.371C12.8492 110.289 14.612 111.856 16.7281 111.857C20.068 111.859 21.7356 111.861 25.0507 111.865C30.7016 111.874 33.5109 111.881 39.0978 111.902C41.3466 111.911 42.4684 111.914 44.7097 111.924C46.7889 111.932 48.4035 110.37 48.3353 108.446C48.2932 107.282 48.2745 106.699 48.2324 105.535C48.2145 105.034 48.2043 104.783 48.1888 104.279C48.098 101.717 48.0526 100.436 47.9609 97.8623C47.8976 96.0431 47.8657 95.131 47.8018 93.3044C47.7334 91.3431 46.0179 89.7403 43.9539 89.7358Z" fill="#FADE66"/>
<path d="M26.1077 105.02C26.8412 105.702 27.841 106.981 27.895 108.951C27.9319 110.287 27.4943 111.222 26.9938 111.865C26.2184 111.862 25.8296 111.862 25.0544 111.861C25.4479 111.644 26.5804 110.844 26.529 108.947C26.4742 106.967 25.2139 105.882 24.7961 105.577C20.0029 105.572 17.5976 105.569 12.7575 105.57C12.7474 105.074 12.7425 104.827 12.7325 104.331C17.5899 104.328 20.0052 104.33 24.8157 104.334C25.1949 104.127 26.3756 103.339 26.3253 101.387C26.2725 99.3995 25.0152 98.3214 24.599 98.0035C19.8258 98.0001 17.4283 98.0016 12.6132 98.0036C12.6029 97.5047 12.5978 97.2553 12.5901 96.7562C17.4224 96.7504 19.83 96.7507 24.6205 96.7529C24.9973 96.5465 26.175 95.7515 26.1236 93.7841C26.0529 91.1535 24.2868 90.0014 23.7424 89.7025C24.5723 89.7015 24.9886 89.7021 25.8186 89.7036C26.6282 90.5459 27.4258 91.8562 27.4796 93.786C27.5334 95.7532 26.6297 96.8636 25.906 97.4517C26.6363 98.1248 27.6317 99.4111 27.6885 101.386C27.7408 103.331 26.8326 104.449 26.1077 105.02Z" fill="#212121"/>
<path d="M37.1661 101.253C37.2282 103.23 38.4738 104.036 38.8598 104.244C42.6066 104.255 44.4738 104.26 48.196 104.275C48.2138 104.776 48.2241 105.028 48.2396 105.531C44.5688 105.503 42.7259 105.488 39.0305 105.463C38.7102 105.693 37.3417 106.786 37.4092 108.913C37.4709 110.884 38.7191 111.691 39.1075 111.898C38.3198 111.896 37.9259 111.894 37.1357 111.892C36.5883 111.234 36.0853 110.285 36.0432 108.909C35.9799 106.915 36.9136 105.627 37.6 104.935C36.8467 104.361 35.867 103.225 35.805 101.249C35.7095 98.1603 37.978 96.7164 38.081 96.6567C38.148 96.617 38.1815 96.5971 38.2487 96.5599C42.1324 96.5686 44.0669 96.5746 47.9258 96.585C47.9443 97.0959 47.9523 97.3501 47.9708 97.8609C44.2763 97.849 42.4242 97.8445 38.7073 97.8341C38.2869 98.1635 37.1049 99.2511 37.1661 101.253Z" fill="#212121"/>
<path d="M162.992 104.661C162.786 104.643 162.581 104.59 162.38 104.499C161.484 104.095 161.069 103.09 161.459 102.256C161.723 101.687 161.887 101.079 161.945 100.445C162.059 99.173 161.744 97.9112 161.03 96.7974C160.511 95.987 160.763 94.955 161.592 94.4919C162.422 94.0312 163.511 94.3142 164.03 95.1246C165.15 96.8818 165.649 98.8701 165.469 100.871C165.38 101.867 165.123 102.824 164.708 103.72C164.407 104.371 163.709 104.725 162.992 104.661Z" fill="white"/>
<path d="M169.018 108.017C168.744 108.009 168.462 107.938 168.198 107.802C167.329 107.349 166.98 106.324 167.417 105.516C168.211 104.057 168.63 102.463 168.66 100.772C168.706 98.3433 167.943 95.9788 166.454 93.9403C165.883 93.1586 166.063 92.1067 166.852 91.589C167.642 91.0711 168.742 91.2884 169.311 92.0727C171.248 94.7367 172.243 97.8193 172.181 100.981C172.14 103.183 171.598 105.259 170.566 107.161C170.264 107.724 169.655 108.034 169.018 108.017Z" fill="white"/>
<path d="M174.626 111.264C174.324 111.258 174.017 111.179 173.734 111.017C172.883 110.535 172.573 109.502 173.041 108.71C174.406 106.405 175.134 103.751 175.151 101.024C175.175 97.4377 174.013 93.9597 171.785 90.9615C171.207 90.1828 171.369 89.1222 172.149 88.595C172.927 88.0656 174.031 88.2726 174.607 89.0539C177.284 92.6775 178.687 96.8755 178.66 101.199C178.64 104.483 177.763 107.68 176.122 110.461C175.811 110.988 175.233 111.274 174.626 111.264Z" fill="white"/>
<path d="M180.923 114.511C180.611 114.503 180.291 114.416 180.002 114.241C179.166 113.736 178.883 112.696 179.375 111.92C181.358 108.765 182.423 105.102 182.463 101.31C182.514 96.5845 181.018 91.9759 178.126 87.9801C177.558 87.1933 177.729 86.1295 178.512 85.6047C179.293 85.08 180.39 85.2975 180.959 86.0893C184.291 90.7185 186.015 96.0455 185.958 101.501C185.913 105.878 184.683 110.107 182.397 113.75C182.079 114.255 181.512 114.525 180.923 114.511Z" fill="white"/>
<path d="M-0.13616 46.7168L201.37 48.1423C201.358 39.7918 201.345 31.4438 201.332 23.0933L-0.173915 21.6677C-0.161453 30.0158 -0.148798 38.3663 -0.13616 46.7168Z" fill="#ADB496" fill-opacity="0.4"/>
</svg>
