<svg width="75" height="75" viewBox="0 0 75 75" fill="none" xmlns="http://www.w3.org/2000/svg">
<circle cx="38.2541" cy="36.3557" r="36.3557" fill="#0F0F0E"/>
<circle cx="36.3557" cy="37.9365" r="36.3557" fill="#212121"/>
<circle cx="36.3566" cy="37.9367" r="24.5741" stroke="#2F2F32" stroke-width="1.58068"/>
<mask id="path-4-inside-1_3114_51136" fill="white">
<path d="M60.0402 10.3543C56.7417 7.52187 52.9618 5.30409 48.8802 3.80629L45.6356 12.6481C48.6598 13.7579 51.4604 15.4011 53.9044 17.4998L60.0402 10.3543Z"/>
</mask>
<path d="M60.0402 10.3543C56.7417 7.52187 52.9618 5.30409 48.8802 3.80629L45.6356 12.6481C48.6598 13.7579 51.4604 15.4011 53.9044 17.4998L60.0402 10.3543Z" fill="#2F2F32" stroke="#2F2F32" stroke-width="0.632272" mask="url(#path-4-inside-1_3114_51136)"/>
<mask id="path-5-inside-2_3114_51136" fill="white">
<path d="M71.8885 45.6273C72.8083 41.378 72.9584 36.9981 72.3316 32.6958L63.0116 34.0535C63.476 37.2412 63.3648 40.4864 62.6833 43.6349L71.8885 45.6273Z"/>
</mask>
<path d="M71.8885 45.6273C72.8083 41.378 72.9584 36.9981 72.3316 32.6958L63.0116 34.0535C63.476 37.2412 63.3648 40.4864 62.6833 43.6349L71.8885 45.6273Z" fill="#2F2F32" stroke="#2F2F32" stroke-width="0.632272" mask="url(#path-5-inside-2_3114_51136)"/>
<mask id="path-6-inside-3_3114_51136" fill="white">
<path d="M47.8921 72.4132C52.0151 71.0336 55.8572 68.9256 59.236 66.1894L53.3085 58.8701C50.8051 60.8975 47.9583 62.4594 44.9034 63.4816L47.8921 72.4132Z"/>
</mask>
<path d="M47.8921 72.4132C52.0151 71.0336 55.8572 68.9256 59.236 66.1894L53.3085 58.8701C50.8051 60.8975 47.9583 62.4594 44.9034 63.4816L47.8921 72.4132Z" fill="#2F2F32" stroke="#2F2F32" stroke-width="0.632272" mask="url(#path-6-inside-3_3114_51136)"/>
<mask id="path-7-inside-4_3114_51136" fill="white">
<path d="M12.73 65.5691C16.0345 68.3945 19.8191 70.6042 23.9039 72.0933L27.1297 63.2445C24.1031 62.1412 21.299 60.504 18.8505 58.4105L12.73 65.5691Z"/>
</mask>
<path d="M12.73 65.5691C16.0345 68.3945 19.8191 70.6042 23.9039 72.0933L27.1297 63.2445C24.1031 62.1412 21.299 60.504 18.8505 58.4105L12.73 65.5691Z" fill="#2F2F32" stroke="#2F2F32" stroke-width="0.632272" mask="url(#path-7-inside-4_3114_51136)"/>
<mask id="path-8-inside-5_3114_51136" fill="white">
<path d="M0.399014 32.5649C-0.243364 36.8649 -0.109233 41.2453 0.795036 45.498L10.0074 43.5391C9.33743 40.3881 9.23805 37.1425 9.71401 33.9565L0.399014 32.5649Z"/>
</mask>
<path d="M0.399014 32.5649C-0.243364 36.8649 -0.109233 41.2453 0.795036 45.498L10.0074 43.5391C9.33743 40.3881 9.23805 37.1425 9.71401 33.9565L0.399014 32.5649Z" fill="#2F2F32" stroke="#2F2F32" stroke-width="0.632272" mask="url(#path-8-inside-5_3114_51136)"/>
<mask id="path-9-inside-6_3114_51136" fill="white">
<path d="M23.5708 3.90292C19.5008 5.43185 15.738 7.67842 12.4612 10.5359L18.6514 17.6344C21.0793 15.5171 23.8673 13.8526 26.8829 12.7197L23.5708 3.90292Z"/>
</mask>
<path d="M23.5708 3.90292C19.5008 5.43185 15.738 7.67842 12.4612 10.5359L18.6514 17.6344C21.0793 15.5171 23.8673 13.8526 26.8829 12.7197L23.5708 3.90292Z" fill="#2F2F32" stroke="#2F2F32" stroke-width="0.632272" mask="url(#path-9-inside-6_3114_51136)"/>
</svg>
