<svg width="104" height="97" viewBox="0 0 104 97" fill="none" xmlns="http://www.w3.org/2000/svg">
<path fill-rule="evenodd" clip-rule="evenodd" d="M44.3905 78.6399C47.8294 75.2087 49.92 70.4362 49.8215 65.1956C49.774 62.6745 49.2244 60.2807 48.2698 58.1079L55.544 57.971C54.6723 60.1777 54.2133 62.5898 54.2607 65.1102C54.3593 70.3532 56.63 75.0456 60.1983 78.3453L60.206 78.7569L44.3983 79.0542L44.3905 78.6399Z" fill="#97BA4A"/>
<path fill-rule="evenodd" clip-rule="evenodd" d="M68.8858 35.8934C68.9035 36.833 68.8463 37.7566 68.7197 38.6586C68.6935 38.8447 68.8542 39.0053 69.0403 38.9791C69.7347 38.8812 70.4425 38.8243 71.1613 38.8108C80.7629 38.6302 88.693 46.2674 88.8736 55.8691C89.0541 65.4707 81.4169 73.4008 71.8152 73.5814C64.2232 73.7242 57.6763 68.9792 55.1791 62.2402C55.138 62.1294 55.0318 62.0557 54.9137 62.0579L49.0657 62.1679C48.9476 62.1701 48.8443 62.2478 48.8074 62.36C46.5654 69.1883 40.2015 74.1763 32.6094 74.3191C23.0077 74.4996 15.0777 66.8624 14.8971 57.2607C14.7165 47.6591 22.3538 39.729 31.9554 39.5484C32.6727 39.5349 33.3807 39.5651 34.0768 39.6364C34.2637 39.6556 34.4182 39.4891 34.3851 39.3041C34.2247 38.4076 34.1328 37.4869 34.1152 36.5473C33.9346 26.9457 41.5719 19.0156 51.1735 18.835C60.7751 18.6545 68.7052 26.2917 68.8858 35.8934Z" fill="#97BA4A"/>
<mask id="path-3-inside-1_3114_51189" fill="white">
<path fill-rule="evenodd" clip-rule="evenodd" d="M64.8715 38.7328C64.9981 37.8306 65.0554 36.9066 65.0377 35.9667C64.8571 26.365 56.9271 18.7277 47.3254 18.9083C37.7238 19.0889 30.0865 27.019 30.2671 36.6206C30.2848 37.5602 30.3766 38.4809 30.537 39.3774C30.5701 39.5624 30.4156 39.7289 30.2287 39.7097C29.5326 39.6384 28.8247 39.6082 28.1074 39.6217C18.5057 39.8023 10.8684 47.7324 11.049 57.334C11.2296 66.9356 19.1597 74.5729 28.7613 74.3923C36.3534 74.2496 42.7174 69.2616 44.9594 62.4333C44.9962 62.3211 45.0996 62.2434 45.2177 62.2411L45.6567 62.2329C45.8394 63.2204 45.9439 64.2361 45.9634 65.2733C46.062 70.5138 43.9713 75.2863 40.5325 78.7176L40.5402 79.1318L56.3479 78.8345L56.3402 78.4229C52.7719 75.1232 50.5013 70.4308 50.4027 65.1878C50.3832 64.1513 50.4493 63.1331 50.5946 62.14L51.0658 62.1312C51.1839 62.1289 51.2901 62.2027 51.3311 62.3135C53.8281 69.053 60.3753 73.7983 67.9676 73.6555C77.5692 73.4749 85.2065 65.5449 85.0259 55.9432C84.8454 46.3416 76.9153 38.7043 67.3137 38.8849C66.5946 38.8984 65.8867 38.9554 65.1921 39.0533C65.006 39.0795 64.8453 38.9189 64.8715 38.7328Z"/>
</mask>
<path fill-rule="evenodd" clip-rule="evenodd" d="M64.8715 38.7328C64.9981 37.8306 65.0554 36.9066 65.0377 35.9667C64.8571 26.365 56.9271 18.7277 47.3254 18.9083C37.7238 19.0889 30.0865 27.019 30.2671 36.6206C30.2848 37.5602 30.3766 38.4809 30.537 39.3774C30.5701 39.5624 30.4156 39.7289 30.2287 39.7097C29.5326 39.6384 28.8247 39.6082 28.1074 39.6217C18.5057 39.8023 10.8684 47.7324 11.049 57.334C11.2296 66.9356 19.1597 74.5729 28.7613 74.3923C36.3534 74.2496 42.7174 69.2616 44.9594 62.4333C44.9962 62.3211 45.0996 62.2434 45.2177 62.2411L45.6567 62.2329C45.8394 63.2204 45.9439 64.2361 45.9634 65.2733C46.062 70.5138 43.9713 75.2863 40.5325 78.7176L40.5402 79.1318L56.3479 78.8345L56.3402 78.4229C52.7719 75.1232 50.5013 70.4308 50.4027 65.1878C50.3832 64.1513 50.4493 63.1331 50.5946 62.14L51.0658 62.1312C51.1839 62.1289 51.2901 62.2027 51.3311 62.3135C53.8281 69.053 60.3753 73.7983 67.9676 73.6555C77.5692 73.4749 85.2065 65.5449 85.0259 55.9432C84.8454 46.3416 76.9153 38.7043 67.3137 38.8849C66.5946 38.8984 65.8867 38.9554 65.1921 39.0533C65.006 39.0795 64.8453 38.9189 64.8715 38.7328Z" fill="#D7FF82"/>
<path d="M65.0377 35.9667L65.4876 35.9582L65.4876 35.9582L65.0377 35.9667ZM64.8715 38.7328L65.3171 38.7953L65.3171 38.7953L64.8715 38.7328ZM47.3254 18.9083L47.317 18.4584L47.3254 18.9083ZM30.2671 36.6206L30.717 36.6121L30.2671 36.6206ZM30.537 39.3774L30.98 39.2981L30.98 39.2981L30.537 39.3774ZM30.2287 39.7097L30.1828 40.1574L30.1828 40.1574L30.2287 39.7097ZM28.1074 39.6217L28.1158 40.0716L28.1074 39.6217ZM11.049 57.334L10.5991 57.3425L11.049 57.334ZM28.7613 74.3923L28.7528 73.9424L28.7613 74.3923ZM44.9594 62.4333L44.5318 62.2929L44.5318 62.2929L44.9594 62.4333ZM45.2177 62.2411L45.2092 61.7912L45.2092 61.7912L45.2177 62.2411ZM45.6567 62.2329L46.0991 62.151L46.0297 61.7758L45.6482 61.783L45.6567 62.2329ZM45.9634 65.2733L46.4133 65.2648L46.4133 65.2648L45.9634 65.2733ZM40.5325 78.7176L40.2146 78.399L40.0789 78.5344L40.0825 78.726L40.5325 78.7176ZM40.5402 79.1318L40.0903 79.1403L40.0988 79.5902L40.5487 79.5818L40.5402 79.1318ZM56.3479 78.8345L56.3564 79.2845L56.8063 79.276L56.7979 78.8261L56.3479 78.8345ZM56.3402 78.4229L56.7901 78.4145L56.7865 78.2227L56.6457 78.0925L56.3402 78.4229ZM50.4027 65.1878L49.9528 65.1963L49.9528 65.1963L50.4027 65.1878ZM50.5946 62.14L50.5861 61.6901L50.2046 61.6973L50.1493 62.0749L50.5946 62.14ZM51.0658 62.1312L51.0742 62.5811L51.0658 62.1312ZM51.3311 62.3135L50.9091 62.4698L50.9091 62.4698L51.3311 62.3135ZM67.9676 73.6555L67.9591 73.2056L67.9676 73.6555ZM85.0259 55.9432L84.576 55.9517L85.0259 55.9432ZM67.3137 38.8849L67.3052 38.435L67.3137 38.8849ZM65.1921 39.0533L65.1293 38.6077L65.1921 39.0533ZM64.5878 35.9751C64.605 36.8912 64.5492 37.7914 64.4258 38.6702L65.3171 38.7953C65.4471 37.8697 65.5058 36.922 65.4876 35.9582L64.5878 35.9751ZM47.3339 19.3582C56.687 19.1823 64.4119 26.622 64.5878 35.9751L65.4876 35.9582C65.3024 26.1081 57.1671 18.2731 47.317 18.4584L47.3339 19.3582ZM30.717 36.6121C30.5411 27.259 37.9807 19.5341 47.3339 19.3582L47.317 18.4584C37.4668 18.6436 29.6319 26.7789 29.8172 36.6291L30.717 36.6121ZM30.98 39.2981C30.8238 38.425 30.7342 37.5279 30.717 36.6121L29.8172 36.6291C29.8353 37.5925 29.9295 38.5369 30.094 39.4566L30.98 39.2981ZM30.1828 40.1574C30.6674 40.207 31.0658 39.7775 30.98 39.2981L30.094 39.4566C30.0745 39.3472 30.1639 39.2507 30.2746 39.262L30.1828 40.1574ZM28.1158 40.0716C28.8149 40.0585 29.5047 40.0879 30.1828 40.1574L30.2746 39.262C29.5605 39.1889 28.8344 39.158 28.0989 39.1718L28.1158 40.0716ZM11.4989 57.3255C11.323 47.9724 18.7627 40.2476 28.1158 40.0716L28.0989 39.1718C18.2488 39.3571 10.4139 47.4923 10.5991 57.3425L11.4989 57.3255ZM28.7528 73.9424C19.3997 74.1183 11.6749 66.6787 11.4989 57.3255L10.5991 57.3425C10.7844 67.1926 18.9196 75.0275 28.7698 74.8423L28.7528 73.9424ZM44.5318 62.2929C42.3476 68.9451 36.1478 73.8033 28.7528 73.9424L28.7698 74.8423C36.5591 74.6958 43.0871 69.5781 45.3869 62.5737L44.5318 62.2929ZM45.2092 61.7912C44.8963 61.7971 44.6272 62.0023 44.5318 62.2929L45.3869 62.5737C45.3652 62.6398 45.3029 62.6896 45.2261 62.6911L45.2092 61.7912ZM45.6482 61.783L45.2092 61.7912L45.2261 62.6911L45.6651 62.6828L45.6482 61.783ZM46.4133 65.2648C46.3934 64.2029 46.2863 63.1627 46.0991 62.151L45.2142 62.3148C45.3924 63.2782 45.4944 64.2693 45.5135 65.2817L46.4133 65.2648ZM40.8503 79.0361C44.3723 75.522 46.5143 70.6328 46.4133 65.2648L45.5135 65.2817C45.6097 70.3949 43.5704 75.0507 40.2146 78.399L40.8503 79.0361ZM40.9902 79.1234L40.9824 78.7091L40.0825 78.726L40.0903 79.1403L40.9902 79.1234ZM56.3395 78.3846L40.5318 78.6819L40.5487 79.5818L56.3564 79.2845L56.3395 78.3846ZM55.8903 78.4314L55.898 78.843L56.7979 78.8261L56.7901 78.4145L55.8903 78.4314ZM49.9528 65.1963C50.0538 70.5667 52.3802 75.3739 56.0347 78.7533L56.6457 78.0925C53.1637 74.8726 50.9488 70.2949 50.8526 65.1793L49.9528 65.1963ZM50.1493 62.0749C50.0005 63.0923 49.9328 64.1351 49.9528 65.1963L50.8526 65.1793C50.8336 64.1676 50.8981 63.174 51.0399 62.2052L50.1493 62.0749ZM51.0573 61.6812L50.5861 61.6901L50.6031 62.5899L51.0742 62.5811L51.0573 61.6812ZM51.7531 62.1571C51.6468 61.8703 51.3703 61.6753 51.0573 61.6812L51.0742 62.5811C50.9975 62.5825 50.9333 62.5351 50.9091 62.4698L51.7531 62.1571ZM67.9591 73.2056C60.564 73.3447 54.1857 68.7228 51.7531 62.1571L50.9091 62.4698C53.4706 69.3831 60.1866 74.2519 67.9761 74.1054L67.9591 73.2056ZM84.576 55.9517C84.7519 65.3049 77.3123 73.0297 67.9591 73.2056L67.9761 74.1054C77.8262 73.9202 85.6611 65.7849 85.4759 55.9348L84.576 55.9517ZM67.3221 39.3348C76.6753 39.1589 84.4001 46.5985 84.576 55.9517L85.4759 55.9348C85.2906 46.0847 77.1553 38.2497 67.3052 38.435L67.3221 39.3348ZM65.2549 39.4989C65.9315 39.4035 66.6213 39.348 67.3221 39.3348L67.3052 38.435C66.568 38.4488 65.8418 38.5073 65.1293 38.6077L65.2549 39.4989ZM64.4258 38.6702C64.3581 39.1526 64.7725 39.5669 65.2549 39.4989L65.1293 38.6077C65.2395 38.5922 65.3326 38.6852 65.3171 38.7953L64.4258 38.6702Z" fill="#141414" mask="url(#path-3-inside-1_3114_51189)"/>
</svg>
