<svg width="150" height="213" viewBox="0 0 150 213" fill="none" xmlns="http://www.w3.org/2000/svg" preserveAspectRatio="none">
<path d="M83.0194 5.69793L87.4534 0L81.7526 1.89931L83.0194 5.69793Z" fill="#2B2E26"/>
<path d="M145.095 20.8924L135.593 6.33103C122.272 2.11279 107.134 1.82389 92.5207 0.633103C95.8486 1.26979 99.3276 1.88268 103.289 2.53241C111.421 3.86631 120.447 4.94061 127.992 6.96413C130.573 7.65623 134.206 9.25832 136.227 10.1296C136.647 10.3107 137.231 10.6535 137.494 10.7627L145.095 20.8924Z" fill="#373B32"/>
<path d="M146.361 82.9365L148.895 86.102V80.4041L146.361 82.9365Z" fill="#2A2E24"/>
<path d="M147.628 74.073L146.361 82.9365L148.895 80.4041L147.628 74.073Z" fill="#181A15"/>
<path fill-rule="evenodd" clip-rule="evenodd" d="M1.3082 32.9213L0.0413635 37.3531C-0.0417639 48.3104 0.0230432 61.5517 0.0413635 70.9075L1.3082 32.9213Z" fill="#373B32"/>
<path d="M46.9145 1.26621C43.1411 1.47484 21.2762 5.42397 10.8095 7.59723L0.674784 20.2593C0.568794 24.1107 0.0951619 30.2617 0.0413635 37.3531L1.3082 32.9213L1.94162 22.7917L11.4429 10.1296C20.4722 8.13025 40.1223 3.79141 46.9145 3.16551C53.7066 2.53962 71.7664 2.90472 79.8523 3.16551L81.7526 4.43172L83.0194 5.69793L81.7526 1.89931L79.8523 0C70.3739 0.260791 50.6879 1.05757 46.9145 1.26621Z" fill="#373B32"/>
<path d="M7.64241 96.2316L0.0413635 99.3971C0.0480462 100.153 0.0343535 101.171 0.0413635 101.93L7.64241 98.764V96.2316Z" fill="#2F3324"/>
<path d="M140.661 210.19L147.628 194.996L149.529 116.491L147.628 113.325L143.828 114.592L142.561 122.189L141.294 194.363L131.159 202.593H17.7771L12.0764 191.197L8.27583 111.426L6.37557 103.829L0.674784 105.095L0.0413635 106.994C0.144376 116.081 0.54503 133.096 0.674784 141.815C0.95758 160.819 1.04494 178.167 1.3082 190.564L10.8095 208.924L38.68 212.089L44.3808 208.924L50.715 212.089C65.1348 212.872 83.4647 212.437 95.0544 212.089C110.256 209.586 131.901 209.929 140.661 210.19Z" fill="#303426"/>
<path d="M7.64241 98.764L0.0413635 101.93L0.0413635 106.994L0.674784 105.095L6.37557 103.829L8.27583 111.426L7.64241 98.764Z" fill="#ADB496"/>
<path d="M149.529 106.994L142.561 108.894V111.426L149.529 108.894V106.994Z" fill="#2F3324"/>
<path fill-rule="evenodd" clip-rule="evenodd" d="M83.0194 5.69793L87.4534 0C88.9429 0.114594 90.8717 0.498729 92.5207 0.633103C95.8486 1.26979 99.3276 1.88268 103.289 2.53241C111.421 3.86631 120.447 4.94061 127.992 6.96413C130.573 7.65623 134.206 9.25832 136.227 10.1296C136.647 10.3107 137.231 10.6535 137.494 10.7627L145.095 20.8924L147.628 74.073L146.361 82.9365L148.895 86.102L149.529 106.994L142.561 108.894V111.426V122.189L141.294 194.363L131.159 202.593H17.7771L12.0764 191.197L8.27583 111.426L7.64241 98.764V96.2316L0.0413635 99.3971C-0.0458124 89.531 0.0591166 79.9737 0.0413635 70.9075L1.3082 32.9213L1.94162 22.7917L11.4429 10.1296C20.4722 8.13025 40.1223 3.79141 46.9145 3.16551C53.7066 2.53962 71.7664 2.90472 79.8523 3.16551L81.7526 4.43172L83.0194 5.69793ZM0.0413635 101.93C0.0736204 105.419 0.00285527 102.851 0.0413635 106.361C0.0501924 107.166 0.032242 106.19 0.0413635 106.994L0.0413635 101.93Z" fill="#636B51"/>
<path d="M142.561 122.189L143.828 114.592L147.628 113.325L149.529 116.491V108.894L142.561 111.426V122.189Z" fill="#ADB496"/>
<path d="M131.201 200.883H18.4002L12.6967 194.541L17.1327 203.42H131.201L138.806 195.809L131.201 200.883Z" fill="#3C413A"/>
<path d="M11.4293 24.5692L20.935 17.5927H129.934L135.637 24.5692C136.743 45.2408 138.747 92.6716 140.073 117.8L137.538 188.833L129.934 195.809L22.2025 196.443L13.9642 188.833C10.9238 145.968 6.12253 55.4961 11.4293 24.5692Z" fill="#F3FFED"/>
<path fill-rule="evenodd" clip-rule="evenodd" d="M18.4002 14.4216L8.89445 21.3981C6.94922 42.2716 6.55625 69.0703 6.99331 96.2362C7.01491 97.5787 6.96789 98.6996 6.99331 100.042C7.12828 107.167 7.40115 114.629 7.62702 121.605C8.55253 150.188 10.1843 176.192 11.4293 192.638L12.6967 194.541L18.4002 200.883H131.201L138.806 195.809L140.707 194.541L142.608 117.8C142.85 113.268 142.594 102.761 141.975 89.894C141.738 84.9783 141.01 79.4357 140.707 74.0385C140.637 72.7922 140.779 71.4917 140.707 70.2331C139.659 51.9953 138.438 32.8234 137.538 20.1296L131.835 14.4216H18.4002ZM20.935 17.5927L11.4293 24.5692C6.12253 55.4961 10.9238 145.968 13.9642 188.833L22.2025 196.443L129.934 195.809L137.538 188.833L140.073 117.8C138.747 92.6716 136.743 45.2408 135.637 24.5692L129.934 17.5927H20.935Z" fill="#121411"/>
</svg>
