<svg width="66" height="58" viewBox="0 0 66 58" fill="none" xmlns="http://www.w3.org/2000/svg">
<g clip-path="url(#clip0_3120_49903)">
<path d="M10.1641 7.58195C3.31343 14.4583 3.25939 25.5399 9.98639 32.4827L9.98436 32.4847L35.1644 57.5708L60.2506 32.3908L60.244 32.3842C60.3204 32.3102 60.3964 32.2353 60.4718 32.1596C67.3979 25.2076 67.3769 13.9572 60.4248 7.03107C53.4728 0.104981 42.2224 0.126002 35.2963 7.07802C35.2209 7.15372 35.1463 7.22993 35.0725 7.30664L35.0705 7.30464L35.064 7.31118C28.0961 0.610186 17.0147 0.705637 10.1641 7.58195Z" fill="#67A3F0"/>
<path d="M30.6025 56.7086L34.5095 56.4492L34.4153 6.03054L30.5078 6.03784L30.6025 56.7086Z" fill="#6D7900"/>
<mask id="path-3-outside-1_3120_49903" maskUnits="userSpaceOnUse" x="-8.3439" y="-20.6038" width="78.4874" height="78.49" fill="black">
<rect fill="white" x="-8.3439" y="-20.6038" width="78.4874" height="78.49"/>
<path fill-rule="evenodd" clip-rule="evenodd" d="M5.6111 6.47769C-1.24002 13.3545 -1.2936 24.4371 5.43476 31.3798L5.43359 31.381L5.51484 31.4619C5.56225 31.5102 5.60999 31.5583 5.65806 31.6062C5.70613 31.6541 5.75441 31.7017 5.80288 31.7489L30.6137 56.4671L55.6998 31.2871L55.6931 31.2804C55.7696 31.2062 55.8456 31.1313 55.9211 31.0555C62.8472 24.1035 62.8262 12.8531 55.8741 5.92697C48.9221 -0.999116 37.6717 -0.978093 30.7456 5.97392C30.6701 6.0497 30.5954 6.12598 30.5216 6.20277L30.5197 6.20092L30.5124 6.20828C23.5446 -0.494084 12.4622 -0.399085 5.6111 6.47769Z"/>
</mask>
<path fill-rule="evenodd" clip-rule="evenodd" d="M5.6111 6.47769C-1.24002 13.3545 -1.2936 24.4371 5.43476 31.3798L5.43359 31.381L5.51484 31.4619C5.56225 31.5102 5.60999 31.5583 5.65806 31.6062C5.70613 31.6541 5.75441 31.7017 5.80288 31.7489L30.6137 56.4671L55.6998 31.2871L55.6931 31.2804C55.7696 31.2062 55.8456 31.1313 55.9211 31.0555C62.8472 24.1035 62.8262 12.8531 55.8741 5.92697C48.9221 -0.999116 37.6717 -0.978093 30.7456 5.97392C30.6701 6.0497 30.5954 6.12598 30.5216 6.20277L30.5197 6.20092L30.5124 6.20828C23.5446 -0.494084 12.4622 -0.399085 5.6111 6.47769Z" fill="#BFDBFF"/>
<path d="M5.43476 31.3798L5.75355 31.6974L6.06563 31.3842L5.75791 31.0666L5.43476 31.3798ZM5.43359 31.381L5.1148 31.0634L4.7972 31.3822L5.11599 31.6998L5.43359 31.381ZM5.51484 31.4619L5.83602 31.1467L5.83245 31.1431L5.51484 31.4619ZM5.80288 31.7489L6.12051 31.4301L6.11689 31.4266L5.80288 31.7489ZM30.6137 56.4671L30.2961 56.7859L30.6149 57.1035L30.9325 56.7847L30.6137 56.4671ZM55.6998 31.2871L56.0186 31.6047L56.3362 31.2859L56.0174 30.9683L55.6998 31.2871ZM55.6931 31.2804L55.38 30.9572L55.051 31.2759L55.3755 31.5991L55.6931 31.2804ZM30.5216 6.20277L30.204 6.52156L30.5285 6.84483L30.846 6.51469L30.5216 6.20277ZM30.5197 6.20092L30.8373 5.88212L30.5186 5.56452L30.2009 5.88331L30.5197 6.20092ZM30.5124 6.20828L30.2004 6.5326L30.5191 6.83913L30.8312 6.52588L30.5124 6.20828ZM5.75791 31.0666C-0.799939 24.2999 -0.747687 13.4979 5.9299 6.79529L5.29231 6.16008C-1.73235 13.211 -1.78726 24.5743 5.11161 31.693L5.75791 31.0666ZM5.75239 31.6986L5.75355 31.6974L5.11597 31.0622L5.1148 31.0634L5.75239 31.6986ZM5.83245 31.1431L5.7512 31.0622L5.11599 31.6998L5.19724 31.7807L5.83245 31.1431ZM5.97566 31.2874C5.92878 31.2407 5.88223 31.1938 5.836 31.1467L5.19369 31.7771C5.24227 31.8266 5.29119 31.8759 5.34046 31.925L5.97566 31.2874ZM6.11689 31.4266C6.06962 31.3805 6.02254 31.3341 5.97566 31.2874L5.34046 31.925C5.38972 31.9741 5.43919 32.0228 5.48888 32.0712L6.11689 31.4266ZM30.9313 56.1483L6.12049 31.4301L5.48528 32.0677L30.2961 56.7859L30.9313 56.1483ZM55.381 30.9695L30.2949 56.1495L30.9325 56.7847L56.0186 31.6047L55.381 30.9695ZM55.3755 31.5991L55.3822 31.6058L56.0174 30.9683L56.0107 30.9616L55.3755 31.5991ZM55.6023 30.7379C55.5287 30.8118 55.4546 30.8849 55.38 30.9572L56.0062 31.6035C56.0846 31.5276 56.1625 31.4508 56.2399 31.3731L55.6023 30.7379ZM55.5565 6.24576C62.3325 12.9964 62.353 23.9619 55.6023 30.7379L56.2399 31.3731C63.3414 24.245 63.3198 12.7097 56.1917 5.60818L55.5565 6.24576ZM31.0644 6.29153C37.8151 -0.484426 48.7806 -0.504917 55.5565 6.24576L56.1917 5.60818C49.0637 -1.49332 37.5283 -1.47176 30.4268 5.65632L31.0644 6.29153ZM30.846 6.51469C30.918 6.43982 30.9908 6.36542 31.0644 6.29153L30.4268 5.65632C30.3494 5.73397 30.2729 5.81215 30.1972 5.89085L30.846 6.51469ZM30.2021 6.51971L30.204 6.52156L30.8392 5.88398L30.8373 5.88212L30.2021 6.51971ZM30.8312 6.52588L30.8385 6.51852L30.2009 5.88331L30.1936 5.89068L30.8312 6.52588ZM5.9299 6.79529C12.6075 0.0927086 23.4092 8.79834e-05 30.2004 6.5326L30.8244 5.88396C23.68 -0.988256 12.317 -0.890878 5.29231 6.16008L5.9299 6.79529Z" fill="#141414" mask="url(#path-3-outside-1_3120_49903)"/>
</g>
<defs>
<clipPath id="clip0_3120_49903">
<rect width="66" height="58" fill="white"/>
</clipPath>
</defs>
</svg>
