<svg width="118" height="114" viewBox="0 0 118 114" fill="none" xmlns="http://www.w3.org/2000/svg">
<path fill-rule="evenodd" clip-rule="evenodd" d="M11.2216 49.4095C5.60294 51.7831 2.97232 58.2621 5.34593 63.8807C7.71954 69.4993 14.1985 72.1299 19.8172 69.7563L19.9216 69.7122C22.392 68.6686 25.2648 70.8136 26.3084 73.2839L31.0671 84.5485C33.53 90.3785 40.2528 93.1081 46.0828 90.6452L102.984 66.6073C108.814 64.1444 111.543 57.4216 109.08 51.5916L104.322 40.3271C101.859 34.4971 95.136 31.7675 89.306 34.2304L80.1726 38.0888C77.8603 39.0656 75.1847 37.1021 74.2078 34.7898C71.8342 29.1712 65.3552 26.5406 59.7366 28.9142L11.2216 49.4095Z" fill="#FEE425"/>
<path d="M18.1159 53.8505L21.0175 60.6502C21.6018 62.0195 20.601 63.1107 19.2902 63.6701C18.6465 63.9447 18.0047 64.0941 17.6589 64.0618L17.1145 62.7861C17.3584 62.8066 17.8882 62.7188 18.4734 62.4691C19.1639 62.1745 19.6275 61.6723 19.2929 60.8881L16.571 54.5097L18.1159 53.8505Z" fill="#141414"/>
<path d="M20.3015 57.8845C19.2377 55.3916 20.2697 52.5578 22.7626 51.4941C25.2554 50.4303 28.0271 51.6409 29.0909 54.1338C30.1546 56.6267 29.111 59.4654 26.6181 60.5292C24.1253 61.593 21.3653 60.3773 20.3015 57.8845ZM27.3588 54.8729C26.5996 53.094 24.9734 52.363 23.4168 53.0272C21.8602 53.6915 21.2628 55.3714 22.0219 57.1503C22.7811 58.9293 24.4073 59.6603 25.9639 58.996C27.5204 58.3318 28.1179 56.6519 27.3588 54.8729Z" fill="#141414"/>
<path d="M31.4148 58.2056L27.794 49.7206L29.5027 48.9914L33.1235 57.4765L31.4148 58.2056Z" fill="#141414"/>
<path d="M33.8154 57.1812L30.1946 48.6962L31.7629 48.0269L37.8765 52.2386L35.4144 46.4687L36.9826 45.7995L40.6035 54.2846L39.0352 54.9538L32.8965 50.6836L35.3837 56.512L33.8154 57.1812Z" fill="#141414"/>
<path d="M45.9458 52.0048L42.8794 44.8189L40.3865 45.8826L39.8322 44.5835L46.4798 41.7468L47.0342 43.0459L44.5881 44.0897L47.6546 51.2757L45.9458 52.0048Z" fill="#141414"/>
<path d="M50.378 50.1135L46.7572 41.6284L48.4542 40.9043L50.0174 44.5675L54.0902 42.8295L52.5271 39.1663L54.2358 38.4371L57.8566 46.9222L56.1479 47.6514L54.7145 44.2924L50.6417 46.0304L52.075 49.3894L50.378 50.1135Z" fill="#141414"/>
<path d="M58.5501 46.6263L54.9293 38.1412L61.1205 35.4992L61.6748 36.7983L57.1924 38.7111L58.1912 41.0518L62.0183 39.4187L62.5726 40.7178L58.7456 42.3509L59.7045 44.598L64.1869 42.6852L64.7413 43.9843L58.5501 46.6263Z" fill="#141414"/>
<path d="M41.8188 74.66L40.6632 71.8033L49.3891 68.2733L53.4759 78.3756L50.5413 79.5628L49.039 75.8491C48.8424 78.7995 47.3494 81.4585 44.1031 82.7717C39.4285 84.6628 33.766 82.6925 31.3391 76.6934C28.8912 70.6424 31.3698 64.5929 36.6677 62.4497C41.2125 60.6112 46.7229 62.2803 48.5609 66.6742L44.6914 68.2396C43.5839 65.7261 40.7344 64.7332 38.0335 65.8258C34.5016 67.2546 33.5858 71.1911 35.0356 74.7749C36.3909 78.1251 39.4546 80.6934 43.1424 79.2015C45.7913 78.1299 47.0302 75.6644 46.3636 72.8214L41.8188 74.66Z" fill="#141414"/>
<path d="M41.8188 74.66L40.6632 71.8033L49.3891 68.2733L53.4759 78.3756L50.5413 79.5628L49.039 75.8491C48.8424 78.7995 47.3494 81.4585 44.1031 82.7717C39.4285 84.6628 33.766 82.6925 31.3391 76.6934C28.8912 70.6424 31.3698 64.5929 36.6677 62.4497C41.2125 60.6112 46.7229 62.2803 48.5609 66.6742L44.6914 68.2396C43.5839 65.7261 40.7344 64.7332 38.0335 65.8258C34.5016 67.2546 33.5858 71.1911 35.0356 74.7749C36.3909 78.1251 39.4546 80.6934 43.1424 79.2015C45.7913 78.1299 47.0302 75.6644 46.3636 72.8214L41.8188 74.66Z" fill="#101012"/>
<path d="M53.7095 78.2811L52.5072 56.8579L56.9221 55.0719L70.8756 71.3366L67.0581 72.881L64.1571 69.3705L57.1452 72.2071L57.5011 76.7472L53.7095 78.2811ZM56.9096 69.1595L62.2075 67.0163L56.1706 59.788L56.9096 69.1595Z" fill="#141414"/>
<path d="M53.7095 78.2811L52.5072 56.8579L56.9221 55.0719L70.8756 71.3366L67.0581 72.881L64.1571 69.3705L57.1452 72.2071L57.5011 76.7472L53.7095 78.2811ZM56.9096 69.1595L62.2075 67.0163L56.1706 59.788L56.9096 69.1595Z" fill="#101012"/>
<path d="M71.1388 71.2302L63.5219 52.4019L68.5601 50.3638L79.3778 62.9108L78.4182 46.3455L83.4823 44.2968L91.0992 63.1251L87.6192 64.5329L81.5783 49.6001L82.5656 66.6075L79.6569 67.7842L68.5518 54.9001L74.5928 69.8329L71.1388 71.2302Z" fill="#141414"/>
<path d="M71.1388 71.2302L63.5219 52.4019L68.5601 50.3638L79.3778 62.9108L78.4182 46.3455L83.4823 44.2968L91.0992 63.1251L87.6192 64.5329L81.5783 49.6001L82.5656 66.6075L79.6569 67.7842L68.5518 54.9001L74.5928 69.8329L71.1388 71.2302Z" fill="#101012"/>
<path d="M92.6202 62.54L85.0034 43.7117L98.7415 38.154L99.9077 41.0367L89.9612 45.0605L92.0624 50.2545L100.555 46.819L101.721 49.7017L93.2285 53.1372L95.2457 58.1234L105.192 54.0996L106.358 56.9823L92.6202 62.54Z" fill="#141414"/>
<path d="M92.6202 62.54L85.0034 43.7117L98.7415 38.154L99.9077 41.0367L89.9612 45.0605L92.0624 50.2545L100.555 46.819L101.721 49.7017L93.2285 53.1372L95.2457 58.1234L105.192 54.0996L106.358 56.9823L92.6202 62.54Z" fill="#101012"/>
</svg>
