<svg width="305" height="358" viewBox="0 0 305 358" fill="none" xmlns="http://www.w3.org/2000/svg" preserveAspectRatio="none">
<path fill-rule="evenodd" clip-rule="evenodd" d="M16 0C7.16345 0 0 7.16345 0 16V206C4.63306 206 8.44846 209.501 8.94522 214.001C8.96335 214.001 8.98163 214 9 214H11.9844C12.5367 214 12.9844 214.448 12.9844 215C12.9844 215.552 12.5367 216 11.9844 216H9C8.98163 216 8.96335 215.999 8.94522 215.999C8.44846 220.499 4.63306 224 0 224V356C0 357.105 0.895447 358 2 358H12C12 353.029 16.0294 349 21 349C25.9706 349 30 353.029 30 358H36C36 353.029 40.0294 349 45 349C49.9706 349 54 353.029 54 358H60C60 353.029 64.0294 349 69 349C73.9706 349 78 353.029 78 358H84C84 353.029 88.0294 349 93 349C97.9706 349 102 353.029 102 358H108C108 353.029 112.029 349 117 349C121.971 349 126 353.029 126 358H132C132 353.029 136.029 349 141 349C145.971 349 150 353.029 150 358H156C156 353.029 160.029 349 165 349C169.971 349 174 353.029 174 358H180C180 353.029 184.029 349 189 349C193.971 349 198 353.029 198 358H204C204 353.029 208.029 349 213 349C217.971 349 222 353.029 222 358H228C228 353.029 232.029 349 237 349C241.971 349 246 353.029 246 358H252C252 353.029 256.029 349 261 349C265.971 349 270 353.029 270 358H276C276 353.029 280.029 349 285 349C289.971 349 294 353.029 294 358H303C304.105 358 305 357.105 305 356V224C300.314 224 296.464 220.418 296.039 215.843C295.883 215.942 295.698 216 295.5 216H292.516C291.963 216 291.516 215.552 291.516 215C291.516 214.448 291.963 214 292.516 214H295.5C295.698 214 295.883 214.058 296.039 214.157C296.464 209.582 300.314 206 305 206V16C305 7.16344 297.837 0 289 0H16ZM17.9531 214C17.4008 214 16.9531 214.448 16.9531 215C16.9531 215.552 17.4008 216 17.9531 216H23.9219C24.4742 216 24.9219 215.552 24.9219 215C24.9219 214.448 24.4742 214 23.9219 214H17.9531ZM29.8906 214C29.3383 214 28.8906 214.448 28.8906 215C28.8906 215.552 29.3383 216 29.8906 216H35.8594C36.4117 216 36.8594 215.552 36.8594 215C36.8594 214.448 36.4117 214 35.8594 214H29.8906ZM41.8281 214C41.2758 214 40.8281 214.448 40.8281 215C40.8281 215.552 41.2758 216 41.8281 216H47.7969C48.3492 216 48.7969 215.552 48.7969 215C48.7969 214.448 48.3492 214 47.7969 214H41.8281ZM53.7656 214C53.2133 214 52.7656 214.448 52.7656 215C52.7656 215.552 53.2133 216 53.7656 216H59.7344C60.2867 216 60.7344 215.552 60.7344 215C60.7344 214.448 60.2867 214 59.7344 214H53.7656ZM65.7031 214C65.1508 214 64.7031 214.448 64.7031 215C64.7031 215.552 65.1508 216 65.7031 216H71.6719C72.2242 216 72.6719 215.552 72.6719 215C72.6719 214.448 72.2242 214 71.6719 214H65.7031ZM77.6406 214C77.0883 214 76.6406 214.448 76.6406 215C76.6406 215.552 77.0883 216 77.6406 216H83.6094C84.1617 216 84.6094 215.552 84.6094 215C84.6094 214.448 84.1617 214 83.6094 214H77.6406ZM89.5781 214C89.0258 214 88.5781 214.448 88.5781 215C88.5781 215.552 89.0258 216 89.5781 216H95.5469C96.0992 216 96.5469 215.552 96.5469 215C96.5469 214.448 96.0992 214 95.5469 214H89.5781ZM101.516 214C100.963 214 100.516 214.448 100.516 215C100.516 215.552 100.963 216 101.516 216H107.484C108.037 216 108.484 215.552 108.484 215C108.484 214.448 108.037 214 107.484 214H101.516ZM113.453 214C112.901 214 112.453 214.448 112.453 215C112.453 215.552 112.901 216 113.453 216H119.422C119.974 216 120.422 215.552 120.422 215C120.422 214.448 119.974 214 119.422 214H113.453ZM125.391 214C124.838 214 124.391 214.448 124.391 215C124.391 215.552 124.838 216 125.391 216H131.359C131.912 216 132.359 215.552 132.359 215C132.359 214.448 131.912 214 131.359 214H125.391ZM137.328 214C136.776 214 136.328 214.448 136.328 215C136.328 215.552 136.776 216 137.328 216H143.297C143.849 216 144.297 215.552 144.297 215C144.297 214.448 143.849 214 143.297 214H137.328ZM149.266 214C148.713 214 148.266 214.448 148.266 215C148.266 215.552 148.713 216 149.266 216H155.234C155.787 216 156.234 215.552 156.234 215C156.234 214.448 155.787 214 155.234 214H149.266ZM161.203 214C160.651 214 160.203 214.448 160.203 215C160.203 215.552 160.651 216 161.203 216H167.172C167.724 216 168.172 215.552 168.172 215C168.172 214.448 167.724 214 167.172 214H161.203ZM173.141 214C172.588 214 172.141 214.448 172.141 215C172.141 215.552 172.588 216 173.141 216H179.109C179.662 216 180.109 215.552 180.109 215C180.109 214.448 179.662 214 179.109 214H173.141ZM185.078 214C184.526 214 184.078 214.448 184.078 215C184.078 215.552 184.526 216 185.078 216H191.047C191.599 216 192.047 215.552 192.047 215C192.047 214.448 191.599 214 191.047 214H185.078ZM197.016 214C196.463 214 196.016 214.448 196.016 215C196.016 215.552 196.463 216 197.016 216H202.984C203.537 216 203.984 215.552 203.984 215C203.984 214.448 203.537 214 202.984 214H197.016ZM208.953 214C208.401 214 207.953 214.448 207.953 215C207.953 215.552 208.401 216 208.953 216H214.922C215.474 216 215.922 215.552 215.922 215C215.922 214.448 215.474 214 214.922 214H208.953ZM220.891 214C220.338 214 219.891 214.448 219.891 215C219.891 215.552 220.338 216 220.891 216H226.859C227.412 216 227.859 215.552 227.859 215C227.859 214.448 227.412 214 226.859 214H220.891ZM232.828 214C232.276 214 231.828 214.448 231.828 215C231.828 215.552 232.276 216 232.828 216H238.797C239.349 216 239.797 215.552 239.797 215C239.797 214.448 239.349 214 238.797 214H232.828ZM244.766 214C244.213 214 243.766 214.448 243.766 215C243.766 215.552 244.213 216 244.766 216H250.734C251.287 216 251.734 215.552 251.734 215C251.734 214.448 251.287 214 250.734 214H244.766ZM256.703 214C256.151 214 255.703 214.448 255.703 215C255.703 215.552 256.151 216 256.703 216H262.672C263.224 216 263.672 215.552 263.672 215C263.672 214.448 263.224 214 262.672 214H256.703ZM268.641 214C268.088 214 267.641 214.448 267.641 215C267.641 215.552 268.088 216 268.641 216H274.609C275.162 216 275.609 215.552 275.609 215C275.609 214.448 275.162 214 274.609 214H268.641ZM280.578 214C280.026 214 279.578 214.448 279.578 215C279.578 215.552 280.026 216 280.578 216H286.547C287.099 216 287.547 215.552 287.547 215C287.547 214.448 287.099 214 286.547 214H280.578Z" fill="#212121"/>
<path d="M299 134.935V8L76 199.716L78.4559 203.9L86.0694 207.591H221.883L299 134.935Z" fill="#F9F9F9" fill-opacity="0.03"/>
<path d="M299.002 151.531L242.328 208.205H271.002C286.466 208.205 299.002 195.669 299.002 180.205V151.531Z" fill="#F9F9F9" fill-opacity="0.03"/>
</svg>
