<svg width="103" height="64" viewBox="0 0 103 64" fill="none" xmlns="http://www.w3.org/2000/svg">
<path fill-rule="evenodd" clip-rule="evenodd" d="M20.5058 44.3474C23.0046 43.5513 25.1883 41.7784 26.4377 39.2395C27.039 38.0175 27.3677 36.7322 27.4473 35.4528L30.9738 37.1882C30.0085 38.0319 29.1906 39.0765 28.5891 40.2987C27.3384 42.8404 27.2671 45.6556 28.164 48.1231L28.0674 48.3193L20.4065 44.5494L20.5058 44.3474Z" fill="#97BA4A"/>
<path fill-rule="evenodd" clip-rule="evenodd" d="M42.8456 29.895C42.6278 30.3376 42.3798 30.7555 42.1053 31.1473C42.0358 31.2464 42.0804 31.3858 42.1945 31.4262C42.5385 31.5481 42.8792 31.6914 43.2147 31.8565C47.868 34.1464 49.7839 39.7749 47.494 44.4282C45.2042 49.0815 39.5756 50.9974 34.9223 48.7075C31.2501 46.9005 29.2827 43.0142 29.7417 39.1688C29.7507 39.0933 29.7117 39.0197 29.6435 38.9861L26.8456 37.6093C26.7774 37.5757 26.6953 37.5897 26.641 37.6429C23.8742 40.3528 19.5946 41.1651 15.9223 39.3579C11.269 37.0681 9.35311 31.4395 11.643 26.7862C13.9329 22.1329 19.5614 20.217 24.2147 22.5069C24.5504 22.6721 24.8719 22.8547 25.1785 23.053C25.2802 23.1187 25.4178 23.069 25.4539 22.9535C25.5969 22.4969 25.7767 22.0453 25.9946 21.6026C28.2844 16.9493 33.913 15.0334 38.5663 17.3233C43.2196 19.6132 45.1355 25.2417 42.8456 29.895Z" fill="#97BA4A"/>
<mask id="path-3-inside-1_3332_88544" fill="white">
<path fill-rule="evenodd" clip-rule="evenodd" d="M40.2365 30.2309C40.5115 29.8386 40.7599 29.4202 40.978 28.9771C43.2678 24.3238 41.3519 18.6952 36.6986 16.4053C32.0454 14.1154 26.4168 16.0314 24.1269 20.6847C23.9091 21.1274 23.7293 21.5789 23.5863 22.0356C23.5501 22.1511 23.4125 22.2008 23.3109 22.135C23.0042 21.9367 22.6828 21.7541 22.3471 21.5889C17.6938 19.299 12.0652 21.215 9.77535 25.8682C7.48547 30.5215 9.40138 36.1501 14.0547 38.44C17.7269 40.2471 22.0066 39.4348 24.7734 36.725C24.8277 36.6717 24.9098 36.6578 24.978 36.6914L25.1748 36.7882C25.0181 37.3068 24.8171 37.8195 24.57 38.3215C23.3206 40.8604 21.137 42.6333 18.6382 43.4295L18.5388 43.6314L26.1998 47.4013L26.2963 47.2052C25.3995 44.7376 25.4707 41.9224 26.7215 39.3807C26.9686 38.8785 27.2523 38.4063 27.5677 37.9657L27.7761 38.0683C27.8443 38.1019 27.8833 38.1754 27.8743 38.251C27.4144 42.0969 29.3819 45.9842 33.0547 47.7915C37.708 50.0814 43.3365 48.1655 45.6264 43.5122C47.9163 38.8589 46.0004 33.2304 41.3471 30.9405C41.0112 30.7752 40.6702 30.6318 40.3257 30.5098C40.2116 30.4694 40.1671 30.33 40.2365 30.2309Z"/>
</mask>
<path fill-rule="evenodd" clip-rule="evenodd" d="M40.2365 30.2309C40.5115 29.8386 40.7599 29.4202 40.978 28.9771C43.2678 24.3238 41.3519 18.6952 36.6986 16.4053C32.0454 14.1154 26.4168 16.0314 24.1269 20.6847C23.9091 21.1274 23.7293 21.5789 23.5863 22.0356C23.5501 22.1511 23.4125 22.2008 23.3109 22.135C23.0042 21.9367 22.6828 21.7541 22.3471 21.5889C17.6938 19.299 12.0652 21.215 9.77535 25.8682C7.48547 30.5215 9.40138 36.1501 14.0547 38.44C17.7269 40.2471 22.0066 39.4348 24.7734 36.725C24.8277 36.6717 24.9098 36.6578 24.978 36.6914L25.1748 36.7882C25.0181 37.3068 24.8171 37.8195 24.57 38.3215C23.3206 40.8604 21.137 42.6333 18.6382 43.4295L18.5388 43.6314L26.1998 47.4013L26.2963 47.2052C25.3995 44.7376 25.4707 41.9224 26.7215 39.3807C26.9686 38.8785 27.2523 38.4063 27.5677 37.9657L27.7761 38.0683C27.8443 38.1019 27.8833 38.1754 27.8743 38.251C27.4144 42.0969 29.3819 45.9842 33.0547 47.7915C37.708 50.0814 43.3365 48.1655 45.6264 43.5122C47.9163 38.8589 46.0004 33.2304 41.3471 30.9405C41.0112 30.7752 40.6702 30.6318 40.3257 30.5098C40.2116 30.4694 40.1671 30.33 40.2365 30.2309Z" fill="#D7FF82"/>
<path d="M40.978 28.9771L40.7179 28.8491L40.7179 28.8491L40.978 28.9771ZM40.2365 30.2309L40.4739 30.3972L40.4739 30.3972L40.2365 30.2309ZM36.6986 16.4053L36.5707 16.6654L36.6986 16.4053ZM24.1269 20.6847L23.8669 20.5567L23.8669 20.5567L24.1269 20.6847ZM23.5863 22.0356L23.3097 21.949L23.3097 21.949L23.5863 22.0356ZM23.3109 22.135L23.1535 22.3784L23.1535 22.3784L23.3109 22.135ZM22.3471 21.5889L22.475 21.3289L22.475 21.3289L22.3471 21.5889ZM9.77535 25.8682L9.5153 25.7403L9.5153 25.7403L9.77535 25.8682ZM14.0547 38.44L13.9267 38.7L13.9267 38.7L14.0547 38.44ZM24.7734 36.725L24.5706 36.5179L24.5705 36.5179L24.7734 36.725ZM24.978 36.6914L24.85 36.9514L24.85 36.9514L24.978 36.6914ZM25.1748 36.7882L25.4522 36.872L25.5233 36.6367L25.3027 36.5281L25.1748 36.7882ZM24.57 38.3215L24.8301 38.4495L24.8301 38.4495L24.57 38.3215ZM18.6382 43.4295L18.5502 43.1533L18.4326 43.1908L18.3781 43.3015L18.6382 43.4295ZM18.5388 43.6314L18.2788 43.5034L18.1508 43.7635L18.4108 43.8914L18.5388 43.6314ZM26.1998 47.4013L26.0718 47.6614L26.3319 47.7894L26.4598 47.5293L26.1998 47.4013ZM26.2963 47.2052L26.5564 47.3332L26.6109 47.2223L26.5687 47.1062L26.2963 47.2052ZM26.7215 39.3807L26.4614 39.2527L26.4614 39.2527L26.7215 39.3807ZM27.5677 37.9657L27.6957 37.7057L27.4751 37.5972L27.332 37.797L27.5677 37.9657ZM27.7761 38.0683L27.904 37.8082L27.904 37.8082L27.7761 38.0683ZM27.8743 38.251L28.1621 38.2854L28.1621 38.2854L27.8743 38.251ZM33.0547 47.7915L32.9267 48.0516L32.9267 48.0516L33.0547 47.7915ZM45.6264 43.5122L45.3663 43.3842L45.3663 43.3842L45.6264 43.5122ZM41.3471 30.9405L41.475 30.6804L41.475 30.6804L41.3471 30.9405ZM40.3257 30.5098L40.4225 30.2366L40.4225 30.2366L40.3257 30.5098ZM40.7179 28.8491C40.5064 29.2789 40.2656 29.6844 39.9992 30.0645L40.4739 30.3972C40.7573 29.9928 41.0133 29.5616 41.238 29.105L40.7179 28.8491ZM36.5707 16.6654C41.0803 18.8846 42.9371 24.3394 40.7179 28.8491L41.238 29.105C43.5986 24.3081 41.6235 18.5058 36.8266 16.1453L36.5707 16.6654ZM24.387 20.8126C26.6062 16.303 32.061 14.4462 36.5707 16.6654L36.8266 16.1453C32.0297 13.7847 26.2274 15.7598 23.8669 20.5567L24.387 20.8126ZM23.8629 22.1222C24.0014 21.6797 24.1757 21.2419 24.387 20.8126L23.8669 20.5567C23.6424 21.0128 23.4571 21.4782 23.3097 21.949L23.8629 22.1222ZM23.1535 22.3784C23.416 22.5482 23.7694 22.4205 23.8629 22.1222L23.3097 21.949C23.3308 21.8816 23.409 21.8533 23.4683 21.8917L23.1535 22.3784ZM22.2191 21.849C22.5447 22.0092 22.8563 22.1862 23.1535 22.3784L23.4683 21.8917C23.1522 21.6872 22.8209 21.4991 22.475 21.3289L22.2191 21.849ZM10.0354 25.9962C12.2546 21.4865 17.7094 19.6298 22.2191 21.849L22.475 21.3289C17.6781 18.9683 11.8759 20.9434 9.5153 25.7403L10.0354 25.9962ZM14.1826 38.1799C9.67298 35.9607 7.81619 30.5059 10.0354 25.9962L9.5153 25.7403C7.15474 30.5372 9.12979 36.3395 13.9267 38.7L14.1826 38.1799ZM24.5705 36.5179C21.8889 39.1444 17.7412 39.9311 14.1826 38.1799L13.9267 38.7C17.7127 40.5631 22.1243 39.7253 24.9762 36.932L24.5705 36.5179ZM25.106 36.4313C24.925 36.3423 24.7108 36.3805 24.5706 36.5179L24.9762 36.932C24.9445 36.963 24.8945 36.9733 24.85 36.9514L25.106 36.4313ZM25.3027 36.5281L25.106 36.4313L24.85 36.9514L25.0468 37.0482L25.3027 36.5281ZM24.8301 38.4495C25.0842 37.9332 25.291 37.4057 25.4522 36.872L24.8973 36.7044C24.7452 37.2079 24.55 37.7058 24.31 38.1936L24.8301 38.4495ZM18.7262 43.7056C21.297 42.8865 23.5445 41.062 24.8301 38.4495L24.31 38.1936C23.0968 40.6588 20.977 42.3801 18.5502 43.1533L18.7262 43.7056ZM18.7989 43.7594L18.8982 43.5574L18.3781 43.3015L18.2788 43.5034L18.7989 43.7594ZM26.3277 47.1413L18.6668 43.3713L18.4108 43.8914L26.0718 47.6614L26.3277 47.1413ZM26.0363 47.0772L25.9397 47.2734L26.4598 47.5293L26.5564 47.3332L26.0363 47.0772ZM26.4614 39.2527C25.1744 41.8681 25.1012 44.7655 26.0239 47.3042L26.5687 47.1062C25.6977 44.7097 25.767 41.9767 26.9815 39.5087L26.4614 39.2527ZM27.332 37.797C27.0074 38.2505 26.7156 38.7363 26.4614 39.2527L26.9815 39.5087C27.2216 39.0208 27.4971 38.5622 27.8034 38.1345L27.332 37.797ZM27.904 37.8082L27.6957 37.7057L27.4397 38.2258L27.6481 38.3283L27.904 37.8082ZM28.1621 38.2854C28.1854 38.0904 28.085 37.8973 27.904 37.8082L27.6481 38.3283C27.6036 38.3065 27.5812 38.2605 27.5865 38.2166L28.1621 38.2854ZM33.1826 47.5315C29.6237 45.7801 27.7164 42.013 28.1621 38.2854L27.5865 38.2166C27.1125 42.1808 29.1402 46.1882 32.9267 48.0516L33.1826 47.5315ZM45.3663 43.3842C43.1471 47.8939 37.6923 49.7507 33.1826 47.5315L32.9267 48.0516C37.7236 50.4121 43.5259 48.4371 45.8864 43.6402L45.3663 43.3842ZM41.2191 31.2005C45.7288 33.4197 47.5856 38.8746 45.3663 43.3842L45.8864 43.6402C48.247 38.8433 46.272 33.041 41.475 30.6804L41.2191 31.2005ZM40.229 30.783C40.5628 30.9012 40.8934 31.0402 41.2191 31.2005L41.475 30.6804C41.129 30.5101 40.7776 30.3624 40.4225 30.2366L40.229 30.783ZM39.9992 30.0645C39.8197 30.3206 39.9342 30.6786 40.229 30.783L40.4225 30.2366C40.4891 30.2602 40.5144 30.3394 40.4739 30.3972L39.9992 30.0645Z" fill="#141414" mask="url(#path-3-inside-1_3332_88544)"/>
<path d="M68.5453 31.9014C66.247 36.0329 67.6919 41.2335 71.7657 43.5948L71.765 43.596L86.8939 52.012L95.3099 36.8831L95.3059 36.8809C95.3319 36.836 95.3576 36.7909 95.3829 36.7454C97.7064 32.5684 96.204 27.2987 92.027 24.9751C87.85 22.6515 82.5803 24.154 80.2567 28.3309C80.2314 28.3764 80.2066 28.422 80.1822 28.4678L80.181 28.4671L80.1788 28.471C76.0242 26.255 70.8436 27.7699 68.5453 31.9014Z" fill="#67A3F0"/>
<path d="M84.642 52.2142L86.4386 51.5743L79.7053 27.958L77.875 28.4799L84.642 52.2142Z" fill="#6D7900"/>
<mask id="path-7-outside-2_3332_88544" maskUnits="userSpaceOnUse" x="60.7025" y="15.473" width="38.0805" height="38.0805" fill="black">
<rect fill="white" x="60.7025" y="15.473" width="38.0805" height="38.0805"/>
<path fill-rule="evenodd" clip-rule="evenodd" d="M69.6256 43.7613C69.6789 43.7909 69.7324 43.82 69.786 43.8484L84.6211 52.1009L93.0371 36.972L93.0302 36.9682C93.0561 36.9235 93.0816 36.8785 93.1068 36.8332C95.4304 32.6562 93.9279 27.3865 89.751 25.0629C85.574 22.7393 80.3042 24.2418 77.9807 28.4187C77.9544 28.4659 77.9287 28.5132 77.9034 28.5607C73.7488 26.3446 68.568 27.8595 66.2697 31.991C63.9461 36.168 65.4486 41.4377 69.6256 43.7613Z"/>
</mask>
<path fill-rule="evenodd" clip-rule="evenodd" d="M69.6256 43.7613C69.6789 43.7909 69.7324 43.82 69.786 43.8484L84.6211 52.1009L93.0371 36.972L93.0302 36.9682C93.0561 36.9235 93.0816 36.8785 93.1068 36.8332C95.4304 32.6562 93.9279 27.3865 89.751 25.0629C85.574 22.7393 80.3042 24.2418 77.9807 28.4187C77.9544 28.4659 77.9287 28.5132 77.9034 28.5607C73.7488 26.3446 68.568 27.8595 66.2697 31.991C63.9461 36.168 65.4486 41.4377 69.6256 43.7613Z" fill="#BFDBFF"/>
<path d="M69.786 43.8484L69.9486 43.5562L69.9425 43.5529L69.786 43.8484ZM84.6211 52.1009L84.4586 52.3931L84.7507 52.5556L84.9133 52.2634L84.6211 52.1009ZM93.0371 36.972L93.3292 37.1345L93.4918 36.8424L93.1996 36.6798L93.0371 36.972ZM93.0302 36.9682L92.7409 36.8005L92.5703 37.0949L92.8676 37.2603L93.0302 36.9682ZM77.9034 28.5607L77.746 28.8557L78.0412 29.0132L78.1985 28.7179L77.9034 28.5607ZM69.9425 43.5529C69.8908 43.5256 69.8394 43.4977 69.7881 43.4691L69.463 44.0535C69.5184 44.0842 69.5739 44.1144 69.6296 44.1438L69.9425 43.5529ZM84.7836 51.8087L69.9485 43.5562L69.6235 44.1406L84.4586 52.3931L84.7836 51.8087ZM92.7449 36.8095L84.3289 51.9384L84.9133 52.2634L93.3292 37.1345L92.7449 36.8095ZM92.8676 37.2603L92.8745 37.2642L93.1996 36.6798L93.1927 36.676L92.8676 37.2603ZM92.8146 36.6706C92.7904 36.7142 92.7658 36.7575 92.7409 36.8005L93.3194 37.1358C93.3463 37.0894 93.3728 37.0427 93.399 36.9957L92.8146 36.6706ZM89.5884 25.3551C93.604 27.5889 95.0485 32.655 92.8146 36.6706L93.399 36.9957C95.8123 32.6574 94.2518 27.1841 89.9135 24.7707L89.5884 25.3551ZM78.2728 28.5813C80.5067 24.5657 85.5728 23.1212 89.5884 25.3551L89.9135 24.7707C85.5752 22.3574 80.1018 23.9179 77.6885 28.2562L78.2728 28.5813ZM78.1985 28.7179C78.2228 28.6722 78.2476 28.6267 78.2728 28.5813L77.6885 28.2562C77.6612 28.3052 77.6345 28.3543 77.6083 28.4036L78.1985 28.7179ZM66.5619 32.1535C68.7714 28.1816 73.752 26.7252 77.746 28.8557L78.0607 28.2657C73.7455 25.9639 68.3647 27.5373 65.9776 31.8285L66.5619 32.1535ZM69.7881 43.4691C65.7725 41.2353 64.3281 36.1691 66.5619 32.1535L65.9776 31.8285C63.5642 36.1668 65.1247 41.6401 69.463 44.0535L69.7881 43.4691Z" fill="#141414" mask="url(#path-7-outside-2_3332_88544)"/>
</svg>
