<svg width="108" height="106" viewBox="0 0 108 106" fill="none" xmlns="http://www.w3.org/2000/svg">
<path d="M58.1094 19.2622L64.0879 21.2136L54.3416 54.5342L45.0713 86.1253L38.761 84.3309L58.1094 19.2622Z" fill="#EE7835"/>
<path d="M57.4594 22.8485C61.4018 20.7233 66.3205 22.1964 68.4457 26.1387L84.9035 56.6687C87.0253 60.6048 85.5605 65.5158 81.629 67.6464L50.7939 84.3569C46.8438 86.4976 41.9062 85.0188 39.7832 81.0592L23.3571 50.424C21.2441 46.4832 22.7199 41.5756 26.656 39.4537L57.4594 22.8485Z" fill="#EE7835"/>
<path d="M27.7242 61.3778L36.6107 81.004C37.6571 83.3152 39.7248 85.0034 42.1985 85.5663L43.7036 85.9088C45.6586 86.3538 47.7057 86.059 49.4597 85.0877C62.5427 77.8428 82.3565 67.268 84.1224 66.3328C86.0584 65.3074 86.5344 63.6411 86.6553 62.9216L81.5524 62.3082L54.5671 56.7599C54.124 56.6688 53.6893 56.5408 53.2676 56.3772L38.0441 50.4724C31.2727 47.8459 24.7284 54.7614 27.7242 61.3778Z" fill="#693517"/>
<path d="M51.725 21.1229C55.6674 18.9977 60.5861 20.4708 62.7113 24.4132L79.3286 55.239C81.4538 59.1814 79.9808 64.1001 76.0384 66.2253L45.2125 82.8426C41.2702 84.9678 36.3515 83.4948 34.2263 79.5524L17.6089 48.7265C15.4837 44.7842 16.9568 39.8655 20.8991 37.7403L51.725 21.1229Z" fill="#191916"/>
<mask id="path-5-outside-1_3311_46452" maskUnits="userSpaceOnUse" x="3.59619" y="7.08671" width="89.7175" height="89.7175" fill="black">
<rect fill="white" x="3.59619" y="7.08671" width="89.7175" height="89.7175"/>
<path fill-rule="evenodd" clip-rule="evenodd" d="M51.724 21.1235C55.6664 18.9982 60.5851 20.4713 62.7103 24.4137L79.3276 55.2395C81.4528 59.1819 79.9798 64.1006 76.0374 66.2258L45.2115 82.8432C41.2692 84.9684 36.3505 83.4953 34.2253 79.5529L17.6079 48.7271C15.4827 44.7847 16.9558 39.866 20.8982 37.7408L51.724 21.1235ZM42.0517 45.6961C40.957 49.5459 36.9487 51.7792 33.099 50.6845C29.2492 49.5898 27.0159 45.5815 28.1106 41.7318C29.2053 37.8821 33.2136 35.6487 37.0633 36.7434C40.913 37.8381 43.1464 41.8464 42.0517 45.6961ZM50.2318 55.5556C54.0815 56.6503 58.0898 54.417 59.1845 50.5672C60.2792 46.7175 58.0458 42.7092 54.1961 41.6145C50.3464 40.5198 46.3381 42.7532 45.2434 46.6029C44.1487 50.4526 46.3821 54.4609 50.2318 55.5556ZM46.3974 33.0044L36.5983 32.1156L36.3684 34.6507L46.1675 35.5395L46.3974 33.0044ZM60.784 39.954L51.9834 35.5537L50.845 37.8304L59.6456 42.2307L60.784 39.954Z"/>
</mask>
<path fill-rule="evenodd" clip-rule="evenodd" d="M51.724 21.1235C55.6664 18.9982 60.5851 20.4713 62.7103 24.4137L79.3276 55.2395C81.4528 59.1819 79.9798 64.1006 76.0374 66.2258L45.2115 82.8432C41.2692 84.9684 36.3505 83.4953 34.2253 79.5529L17.6079 48.7271C15.4827 44.7847 16.9558 39.866 20.8982 37.7408L51.724 21.1235ZM42.0517 45.6961C40.957 49.5459 36.9487 51.7792 33.099 50.6845C29.2492 49.5898 27.0159 45.5815 28.1106 41.7318C29.2053 37.8821 33.2136 35.6487 37.0633 36.7434C40.913 37.8381 43.1464 41.8464 42.0517 45.6961ZM50.2318 55.5556C54.0815 56.6503 58.0898 54.417 59.1845 50.5672C60.2792 46.7175 58.0458 42.7092 54.1961 41.6145C50.3464 40.5198 46.3381 42.7532 45.2434 46.6029C44.1487 50.4526 46.3821 54.4609 50.2318 55.5556ZM46.3974 33.0044L36.5983 32.1156L36.3684 34.6507L46.1675 35.5395L46.3974 33.0044ZM60.784 39.954L51.9834 35.5537L50.845 37.8304L59.6456 42.2307L60.784 39.954Z" fill="#F9F9F9"/>
<path d="M62.7103 24.4137L62.4129 24.574L62.4129 24.574L62.7103 24.4137ZM51.724 21.1235L51.8844 21.4209L51.8844 21.4209L51.724 21.1235ZM79.3276 55.2395L79.0302 55.3999L79.0302 55.3999L79.3276 55.2395ZM76.0374 66.2258L75.8771 65.9284L75.8771 65.9284L76.0374 66.2258ZM45.2115 82.8432L45.0512 82.5457L45.0512 82.5457L45.2115 82.8432ZM34.2253 79.5529L34.5227 79.3926L34.5227 79.3926L34.2253 79.5529ZM17.6079 48.7271L17.9054 48.5667L17.9054 48.5667L17.6079 48.7271ZM20.8982 37.7408L21.0585 38.0382L21.0585 38.0382L20.8982 37.7408ZM33.099 50.6845L33.0065 51.0095L33.0065 51.0095L33.099 50.6845ZM28.1106 41.7318L28.4356 41.8242L28.4356 41.8242L28.1106 41.7318ZM59.1845 50.5672L59.5095 50.6597L59.5095 50.6597L59.1845 50.5672ZM50.2318 55.5556L50.3242 55.2306L50.3242 55.2306L50.2318 55.5556ZM54.1961 41.6145L54.2885 41.2895L54.2885 41.2895L54.1961 41.6145ZM45.2434 46.6029L44.9184 46.5105L44.9184 46.5105L45.2434 46.6029ZM36.5983 32.1156L36.6288 31.7791L36.2923 31.7486L36.2618 32.0851L36.5983 32.1156ZM46.3974 33.0044L46.7339 33.035L46.7645 32.6984L46.428 32.6679L46.3974 33.0044ZM36.3684 34.6507L36.0319 34.6201L36.0014 34.9567L36.3379 34.9872L36.3684 34.6507ZM46.1675 35.5395L46.137 35.876L46.4735 35.9065L46.504 35.57L46.1675 35.5395ZM51.9834 35.5537L52.1345 35.2515L51.8323 35.1004L51.6812 35.4026L51.9834 35.5537ZM60.784 39.954L61.0862 40.1051L61.2373 39.8029L60.9351 39.6518L60.784 39.954ZM50.845 37.8304L50.5428 37.6793L50.3917 37.9816L50.6939 38.1327L50.845 37.8304ZM59.6456 42.2307L59.4945 42.5329L59.7967 42.6841L59.9478 42.3818L59.6456 42.2307ZM63.0077 24.2533C60.794 20.1467 55.6703 18.6123 51.5637 20.826L51.8844 21.4209C55.6624 19.3842 60.3762 20.7959 62.4129 24.574L63.0077 24.2533ZM79.6251 55.0792L63.0077 24.2533L62.4129 24.574L79.0302 55.3999L79.6251 55.0792ZM76.1977 66.5233C80.3044 64.3095 81.8388 59.1858 79.6251 55.0792L79.0302 55.3999C81.0669 59.178 79.6552 63.8918 75.8771 65.9284L76.1977 66.5233ZM45.3719 83.1406L76.1977 66.5233L75.8771 65.9284L45.0512 82.5457L45.3719 83.1406ZM33.9278 79.7133C36.1416 83.8199 41.2653 85.3543 45.3719 83.1406L45.0512 82.5457C41.2731 84.5824 36.5593 83.1707 34.5227 79.3926L33.9278 79.7133ZM17.3105 48.8874L33.9278 79.7133L34.5227 79.3926L17.9054 48.5667L17.3105 48.8874ZM20.7378 37.4434C16.6312 39.6571 15.0967 44.7808 17.3105 48.8874L17.9054 48.5667C15.8687 44.7886 17.2804 40.0749 21.0585 38.0382L20.7378 37.4434ZM51.5637 20.826L20.7378 37.4434L21.0585 38.0382L51.8844 21.4209L51.5637 20.826ZM33.0065 51.0095C37.0358 52.1553 41.2309 49.8178 42.3767 45.7886L41.7267 45.6037C40.683 49.2739 36.8616 51.4032 33.1914 50.3595L33.0065 51.0095ZM27.7856 41.6394C26.6398 45.6686 28.9773 49.8638 33.0065 51.0095L33.1914 50.3595C29.5212 49.3158 27.3919 45.4945 28.4356 41.8242L27.7856 41.6394ZM37.1557 36.4184C33.1265 35.2727 28.9313 37.6102 27.7856 41.6394L28.4356 41.8242C29.4793 38.154 33.3006 36.0248 36.9709 37.0684L37.1557 36.4184ZM42.3767 45.7886C43.5224 41.7593 41.1849 37.5642 37.1557 36.4184L36.9709 37.0684C40.6411 38.1121 42.7703 41.9335 41.7267 45.6037L42.3767 45.7886ZM58.8595 50.4748C57.8158 54.145 53.9944 56.2743 50.3242 55.2306L50.1394 55.8806C54.1686 57.0264 58.3637 54.6889 59.5095 50.6597L58.8595 50.4748ZM54.1037 41.9395C57.7739 42.9832 59.9032 46.8046 58.8595 50.4748L59.5095 50.6597C60.6553 46.6304 58.3177 42.4353 54.2885 41.2895L54.1037 41.9395ZM45.5684 46.6953C46.6121 43.0251 50.4335 40.8959 54.1037 41.9395L54.2885 41.2895C50.2593 40.1438 46.0642 42.4813 44.9184 46.5105L45.5684 46.6953ZM50.3242 55.2306C46.654 54.1869 44.5247 50.3655 45.5684 46.6953L44.9184 46.5105C43.7726 50.5397 46.1101 54.7349 50.1394 55.8806L50.3242 55.2306ZM36.5678 32.4522L46.3669 33.3409L46.428 32.6679L36.6288 31.7791L36.5678 32.4522ZM36.7049 34.6812L36.9348 32.1462L36.2618 32.0851L36.0319 34.6201L36.7049 34.6812ZM46.198 35.2029L36.3989 34.3142L36.3379 34.9872L46.137 35.876L46.198 35.2029ZM46.0609 32.9739L45.831 35.5089L46.504 35.57L46.7339 33.035L46.0609 32.9739ZM51.8323 35.856L60.6328 40.2562L60.9351 39.6518L52.1345 35.2515L51.8323 35.856ZM51.1472 37.9816L52.2856 35.7049L51.6812 35.4026L50.5428 37.6793L51.1472 37.9816ZM59.7967 41.9285L50.9961 37.5282L50.6939 38.1327L59.4945 42.5329L59.7967 41.9285ZM60.4817 39.8029L59.3434 42.0796L59.9478 42.3818L61.0862 40.1051L60.4817 39.8029Z" fill="#191916" mask="url(#path-5-outside-1_3311_46452)"/>
<ellipse cx="32.747" cy="41.3884" rx="3.50809" ry="2.53691" transform="rotate(-36.4576 32.747 41.3884)" fill="#F9F9F9"/>
<circle cx="35.6582" cy="48.08" r="0.808588" transform="rotate(-36.4576 35.6582 48.08)" fill="#F9F9F9"/>
<ellipse cx="50.0986" cy="46.3225" rx="3.50809" ry="2.53691" transform="rotate(-36.4576 50.0986 46.3225)" fill="#F9F9F9"/>
<circle cx="53.0097" cy="53.0141" r="0.808588" transform="rotate(-36.4576 53.0097 53.0141)" fill="#F9F9F9"/>
<path d="M46.8404 72.4243C46.386 71.421 45.0742 69.1081 44.3807 68.0876L48.9841 67.3108C49.4856 67.7906 50.5314 69.2303 50.7034 71.1504C50.9183 73.5505 47.3893 73.6362 46.8404 72.4243Z" fill="#191916" stroke="#191916" stroke-width="1.35156" stroke-linecap="round"/>
<mask id="mask0_3311_46452" style="mask-type:alpha" maskUnits="userSpaceOnUse" x="43" y="66" width="9" height="8">
<path d="M46.8404 72.4243C46.386 71.421 45.0742 69.1081 44.3807 68.0876L48.9841 67.3108C49.4856 67.7906 50.5314 69.2303 50.7034 71.1504C50.9183 73.5505 47.3893 73.6362 46.8404 72.4243Z" fill="black" stroke="black" stroke-width="1.35156" stroke-linecap="round"/>
</mask>
<g mask="url(#mask0_3311_46452)">
<path d="M46.618 70.059C46.3227 69.4317 45.473 67.9841 45.0248 67.3449L47.9637 66.883C48.2865 67.1844 48.962 68.0866 49.0812 69.2838C49.2302 70.7804 46.9747 70.8168 46.618 70.059Z" fill="white"/>
</g>
<path d="M32.1992 61.3774C34.4889 64.7407 41.1879 70.414 51.1342 66.6067" stroke="#191916" stroke-width="2.02734" stroke-linecap="round"/>
<path d="M28.1974 59.9592C28.8252 60.8641 30.5123 62.3833 32.2377 61.2213C33.9631 60.0593 33.6574 58.1998 33.2888 57.4153" stroke="#191916" stroke-width="2.02734" stroke-linecap="round"/>
<path d="M55.4239 67.4787C54.4207 67.9331 52.193 68.3712 51.3085 66.4884C50.424 64.6056 51.6407 63.1666 52.3596 62.6824" stroke="#191916" stroke-width="2.02734" stroke-linecap="round"/>
<circle cx="54.2528" cy="64.0043" r="0.513564" transform="rotate(15.4386 54.2528 64.0043)" fill="#191916"/>
<circle cx="53.2802" cy="65.6" r="0.513564" transform="rotate(15.4386 53.2802 65.6)" fill="#191916"/>
<circle cx="55.1474" cy="65.5839" r="0.513564" transform="rotate(15.4386 55.1474 65.5839)" fill="#191916"/>
<circle cx="0.513564" cy="0.513564" r="0.513564" transform="matrix(-0.963916 -0.266205 -0.266205 0.963916 31.8633 57.2886)" fill="#191916"/>
<circle cx="0.513564" cy="0.513564" r="0.513564" transform="matrix(-0.963916 -0.266205 -0.266205 0.963916 31.8828 59.1582)" fill="#191916"/>
<circle cx="0.513564" cy="0.513564" r="0.513564" transform="matrix(-0.963916 -0.266205 -0.266205 0.963916 30.2852 58.1846)" fill="#191916"/>
</svg>
