<svg width="114" height="109" viewBox="0 0 114 109" fill="none" xmlns="http://www.w3.org/2000/svg">
<path fill-rule="evenodd" clip-rule="evenodd" d="M44.456 81.0095C48.5296 78.6295 51.6655 74.6581 52.859 69.7095C53.433 67.3296 53.5041 64.946 53.1406 62.6705L60.0081 64.3269C58.6472 66.1865 57.6239 68.3404 57.0499 70.7205C55.8559 75.6709 56.8379 80.637 59.3808 84.613L59.2872 85.001L44.3615 81.4012L44.456 81.0095Z" fill="#464F5D"/>
<path fill-rule="evenodd" clip-rule="evenodd" d="M77.9575 46.8574C77.7467 47.7315 77.4714 48.5733 77.1379 49.3787C77.0607 49.565 77.184 49.7752 77.3841 49.7989C78.048 49.8774 78.7142 49.9961 79.3802 50.1568C88.4461 52.3433 94.023 61.4653 91.8364 70.5312C89.6499 79.5971 80.5279 85.174 71.462 82.9874C64.3007 81.2603 59.3164 75.2056 58.616 68.2694C58.6032 68.1434 58.513 68.0381 58.3899 68.0084L52.9056 66.6857C52.7824 66.656 52.6541 66.7086 52.5854 66.815C48.8001 72.6694 41.6037 75.7865 34.4423 74.0593C25.3763 71.8727 19.7995 62.7508 21.986 53.6848C24.1726 44.6189 33.2945 39.042 42.3605 41.2286C43.0251 41.3889 43.671 41.5865 44.2964 41.8185C44.4854 41.8887 44.6908 41.7577 44.7071 41.5568C44.7774 40.6879 44.916 39.8133 45.1269 38.9392C47.3134 29.8732 56.4354 24.2964 65.5013 26.4829C74.5672 28.6695 80.1441 37.7914 77.9575 46.8574Z" fill="#464F5D"/>
<circle cx="61.5422" cy="42.8984" r="16.886" transform="rotate(13.5598 61.5422 42.8984)" fill="#8595AE"/>
<path fill-rule="evenodd" clip-rule="evenodd" d="M40.823 80.133C44.8967 77.753 48.0326 73.7816 49.2261 68.833C49.8002 66.4529 49.8713 64.0691 49.5077 61.7936L56.3756 63.45C55.0146 65.3097 53.9912 67.4638 53.4171 69.844C52.2231 74.7944 53.2051 79.7604 55.7479 83.7364L55.6544 84.1241L40.7287 80.5243L40.823 80.133Z" fill="#F9F9F9"/>
<path fill-rule="evenodd" clip-rule="evenodd" d="M74.3247 45.9804C74.1139 46.8546 73.8386 47.6963 73.505 48.5018C73.4279 48.688 73.5511 48.8982 73.7513 48.9219C74.4151 49.0005 75.0814 49.1192 75.7474 49.2798C84.8133 51.4664 90.3902 60.5883 88.2036 69.6543C86.0171 78.7202 76.8951 84.297 67.8292 82.1105C60.6679 80.3833 55.6836 74.3287 54.9832 67.3925C54.9704 67.2665 54.8802 67.1611 54.7571 67.1314L49.2728 65.8087C49.1496 65.779 49.0213 65.8316 48.9525 65.938C45.1673 71.7925 37.9709 74.9095 30.8095 73.1823C21.7435 70.9958 16.1667 61.8738 18.3532 52.8079C20.5398 43.7419 29.6617 38.1651 38.7277 40.3516C39.3923 40.5119 40.0382 40.7095 40.6636 40.9416C40.8526 41.0117 41.058 40.8808 41.0743 40.6799C41.1446 39.811 41.2832 38.9363 41.494 38.0622C43.6806 28.9963 52.8025 23.4194 61.8685 25.606C70.9344 27.7925 76.5113 36.9145 74.3247 45.9804Z" fill="#F9F9F9"/>
<circle cx="48.2068" cy="48.8798" r="6.34352" transform="rotate(12.376 48.2068 48.8798)" fill="#F9F9F9" stroke="black" stroke-width="0.29503"/>
<path d="M54.3387 50.2248C54.5153 49.4199 54.5316 48.5882 54.3868 47.777C54.2419 46.9658 53.9387 46.1911 53.4945 45.4971C53.0503 44.8031 52.4737 44.2034 51.7977 43.7323C51.1217 43.2611 50.3595 42.9277 49.5546 42.7511C48.7498 42.5745 47.918 42.5581 47.1069 42.703C46.2957 42.8478 45.521 43.151 44.827 43.5952C44.133 44.0395 43.5333 44.6161 43.0621 45.2921C42.591 45.9681 42.2576 46.7303 42.081 47.5351L48.2098 48.8799L54.3387 50.2248Z" fill="#191916"/>
<path fill-rule="evenodd" clip-rule="evenodd" d="M49.4055 51.2655C49.6779 50.9065 49.8785 50.4841 49.9815 50.015C50.3613 48.284 49.2659 46.5728 47.5349 46.193C45.8039 45.8131 44.0927 46.9085 43.7129 48.6395C43.333 50.3705 44.4284 52.0817 46.1594 52.4616C46.6284 52.5645 47.0959 52.5591 47.5359 52.4621C47.3648 52.2168 47.2926 51.9035 47.3618 51.5882C47.4932 50.989 48.0856 50.6098 48.6848 50.7413C49 50.8105 49.2544 51.0073 49.4055 51.2655Z" fill="#191916"/>
<circle cx="63.0115" cy="52.1289" r="6.34352" transform="rotate(12.376 63.0115 52.1289)" fill="#F9F9F9" stroke="#191916" stroke-width="0.29503"/>
<path d="M69.1434 53.4738C69.32 52.6689 69.3363 51.8372 69.1915 51.026C69.0466 50.2148 68.7434 49.4401 68.2992 48.7461C67.855 48.0521 67.2784 47.4524 66.6024 46.9813C65.9264 46.5101 65.1642 46.1767 64.3593 46.0001C63.5545 45.8235 62.7227 45.8071 61.9115 45.952C61.1004 46.0968 60.3257 46.4 59.6317 46.8443C58.9377 47.2885 58.338 47.8651 57.8668 48.5411C57.3956 49.2171 57.0622 49.9793 56.8856 50.7841L63.0145 52.129L69.1434 53.4738Z" fill="#191916"/>
<path fill-rule="evenodd" clip-rule="evenodd" d="M64.1946 54.5121C64.4669 54.153 64.6676 53.7307 64.7705 53.2616C65.1504 51.5306 64.055 49.8194 62.324 49.4395C60.5929 49.0597 58.8818 50.1551 58.5019 51.8861C58.1221 53.6171 59.2174 55.3283 60.9485 55.7081C61.4175 55.8111 61.885 55.8057 62.325 55.7087C62.1538 55.4634 62.0816 55.15 62.1508 54.8348C62.2823 54.2356 62.8746 53.8564 63.4738 53.9879C63.7891 54.0571 64.0435 54.2538 64.1946 54.5121Z" fill="#191916"/>
<rect x="46.0781" y="37.1416" width="10.1693" height="2.38005" transform="rotate(9.51438 46.0781 37.1416)" fill="#191916"/>
<rect width="10.1693" height="1.63192" transform="matrix(-0.964844 -0.262824 -0.262824 0.964844 68.8594 42.9062)" fill="#191916"/>
<path d="M57.0073 64.3735C57.0492 62.4187 59.2146 62.2314 60.2105 62.378C60.3687 61.6571 62.828 59.1745 63.9096 61.0309C65.1459 63.1526 62.5042 64.3557 61.54 65.0443C60.1526 66.0351 56.9613 66.5221 57.0073 64.3735Z" fill="#191916" stroke="#191916" stroke-width="0.29503"/>
<mask id="mask0_3311_46547" style="mask-type:alpha" maskUnits="userSpaceOnUse" x="57" y="60" width="8" height="6">
<path d="M57.0073 64.373C57.0492 62.4183 59.2146 62.2309 60.2105 62.3775C60.3687 61.6567 62.828 59.174 63.9096 61.0305C65.1459 63.1521 62.5042 64.3552 61.54 65.0438C60.1526 66.0346 56.9613 66.5216 57.0073 64.373Z" fill="black"/>
</mask>
<g mask="url(#mask0_3311_46547)">
<ellipse cx="61.8037" cy="65.6656" rx="2.17068" ry="1.59183" transform="rotate(-22.291 61.8037 65.6656)" fill="#F9F9F9"/>
</g>
</svg>
