<svg width="105" height="105" viewBox="0 0 105 105" fill="none" xmlns="http://www.w3.org/2000/svg">
<path d="M39.375 91.4863L43.4821 92.5783L60.9183 40.7097L56.8984 39.3584L39.375 91.4863Z" fill="#986F50"/>
<path d="M35.193 32.515C25.7585 37.2022 21.8494 48.5765 26.3511 58.0538L26.3483 58.0552L39.4283 91.4986L43.5124 92.6028L78.06 75.4387L78.0556 75.4297C78.1599 75.3801 78.264 75.3295 78.3679 75.2779C87.9062 70.5391 91.7969 58.9651 87.058 49.4268C82.3192 39.8884 70.7452 35.9977 61.2069 40.7366C61.103 40.7882 60.9998 40.8406 60.8973 40.8938L60.8959 40.8911L60.8869 40.8955C56.0535 31.5831 44.6275 27.8277 35.193 32.515Z" fill="#FEE425"/>
<path d="M35.193 32.515C25.7585 37.2022 21.8494 48.5765 26.3511 58.0538L26.3483 58.0552L39.4283 91.4986L43.5124 92.6028L78.06 75.4387L78.0556 75.4297C78.1599 75.3801 78.264 75.3295 78.3679 75.2779C81.2897 73.8263 83.6815 71.7333 85.4578 69.254L81.0943 68.4584L54.6226 59.5596L60.8973 40.8938L60.8959 40.8911L60.8869 40.8955C56.0535 31.5831 44.6275 27.8277 35.193 32.515Z" fill="#544A00"/>
<mask id="path-4-outside-1_3311_46274" maskUnits="userSpaceOnUse" x="12.5423" y="12.145" width="81.3255" height="80.8749" fill="black">
<rect fill="white" x="12.5423" y="12.145" width="81.3255" height="80.8749"/>
<path fill-rule="evenodd" clip-rule="evenodd" d="M22.4633 57.0075C22.515 57.1116 22.5676 57.2151 22.6209 57.3178L39.4766 91.2447L74.0242 74.0805L74.0202 74.0723C74.125 74.0225 74.2296 73.9717 74.334 73.9198C83.8724 69.181 87.7631 57.607 83.0242 48.0687C78.2853 38.5303 66.7114 34.6396 57.173 39.3785C57.0686 39.4303 56.9649 39.483 56.8619 39.5365L56.8601 39.5329L56.8484 39.5387C52.0155 30.2249 40.5886 26.4687 31.1535 31.1563C21.6152 35.8952 17.7244 47.4692 22.4633 57.0075Z"/>
</mask>
<path fill-rule="evenodd" clip-rule="evenodd" d="M22.4633 57.0075C22.515 57.1116 22.5676 57.2151 22.6209 57.3178L39.4766 91.2447L74.0242 74.0805L74.0202 74.0723C74.125 74.0225 74.2296 73.9717 74.334 73.9198C83.8724 69.181 87.7631 57.607 83.0242 48.0687C78.2853 38.5303 66.7114 34.6396 57.173 39.3785C57.0686 39.4303 56.9649 39.483 56.8619 39.5365L56.8601 39.5329L56.8484 39.5387C52.0155 30.2249 40.5886 26.4687 31.1535 31.1563C21.6152 35.8952 17.7244 47.4692 22.4633 57.0075Z" fill="#F9F9F9"/>
<path d="M22.6209 57.3178L23.5165 56.8729L23.5126 56.865L23.5085 56.8571L22.6209 57.3178ZM39.4766 91.2447L38.5811 91.6896L39.026 92.5851L39.9216 92.1402L39.4766 91.2447ZM74.0242 74.0805L74.4692 74.9761L75.3647 74.5312L74.9198 73.6356L74.0242 74.0805ZM74.0202 74.0723L73.5912 73.169L72.6717 73.6057L73.1246 74.5172L74.0202 74.0723ZM56.8619 39.5365L55.9664 39.9814L56.4193 40.893L57.3227 40.424L56.8619 39.5365ZM56.8601 39.5329L57.7557 39.088L57.3108 38.1924L56.4152 38.6373L56.8601 39.5329ZM56.8484 39.5387L55.9608 39.9993L56.4133 40.8715L57.2933 40.4343L56.8484 39.5387ZM23.5085 56.8571C23.4579 56.7596 23.408 56.6614 23.3589 56.5626L21.5678 57.4524C21.6221 57.5618 21.6773 57.6705 21.7334 57.7786L23.5085 56.8571ZM40.3722 90.7997L23.5165 56.8729L21.7254 57.7628L38.5811 91.6896L40.3722 90.7997ZM73.5793 73.185L39.0317 90.3491L39.9216 92.1402L74.4692 74.9761L73.5793 73.185ZM73.1246 74.5172L73.1287 74.5255L74.9198 73.6356L74.9157 73.6274L73.1246 74.5172ZM73.8891 73.0243C73.79 73.0735 73.6907 73.1217 73.5912 73.169L74.4491 74.9756C74.5593 74.9233 74.6693 74.8699 74.779 74.8154L73.8891 73.0243ZM82.1286 48.5136C86.6218 57.5573 82.9328 68.5311 73.8891 73.0243L74.779 74.8154C84.8119 69.8308 88.9044 57.6567 83.9198 47.6237L82.1286 48.5136ZM57.618 40.274C66.6617 35.7809 77.6355 39.4699 82.1286 48.5136L83.9198 47.6237C78.9351 37.5908 66.761 33.4983 56.7281 38.4829L57.618 40.274ZM57.3227 40.424C57.4204 40.3733 57.5189 40.3233 57.618 40.274L56.7281 38.4829C56.6184 38.5374 56.5094 38.5928 56.4012 38.649L57.3227 40.424ZM55.9646 39.9778L55.9664 39.9814L57.7575 39.0916L57.7557 39.088L55.9646 39.9778ZM57.2933 40.4343L57.3051 40.4285L56.4152 38.6373L56.4034 38.6432L57.2933 40.4343ZM31.5984 32.0519C40.5442 27.6074 51.3786 31.1688 55.9608 39.9993L57.736 39.0782C52.6523 29.2811 40.633 25.3301 30.7086 30.2608L31.5984 32.0519ZM23.3589 56.5626C18.8657 47.5188 22.5547 36.545 31.5984 32.0519L30.7086 30.2608C20.6756 35.2454 16.5831 47.4195 21.5678 57.4524L23.3589 56.5626Z" fill="black" mask="url(#path-4-outside-1_3311_46274)"/>
<path fill-rule="evenodd" clip-rule="evenodd" d="M41.7264 42.3054C41.3464 42.107 40.9461 41.9358 40.527 41.7949C36.206 40.3423 31.5256 42.6677 30.073 46.9887C29.0303 50.0906 29.9345 53.3778 32.1263 55.5231L32.3859 55.2097L41.7264 42.3054ZM34.1236 56.9612L43.7997 43.8467C43.9848 44.0364 44.1602 44.2344 44.3255 44.4399L35.5734 56.5312L34.9215 57.3181C34.6467 57.2121 34.3806 57.0928 34.1236 56.9612ZM45.7208 52.2488C44.5298 55.7916 41.169 57.9928 37.6155 57.8702L45.6968 46.9172C46.2753 48.5836 46.3263 50.4474 45.7208 52.2488Z" fill="#191916"/>
<path fill-rule="evenodd" clip-rule="evenodd" d="M64.4044 58.5303C63.4728 61.3014 61.2138 63.2517 58.5733 63.9112L64.8229 55.4212C64.8828 56.4455 64.7513 57.4982 64.4044 58.5303ZM53.9504 63.7241C54.5841 63.9371 55.2256 64.0689 55.8635 64.1251L55.5477 64.0189L55.6348 63.7596L63.9764 52.2354C63.7743 51.8276 63.5387 51.4364 63.2718 51.0663L53.8851 63.7018C53.9068 63.7093 53.9286 63.7168 53.9504 63.7241ZM51.6827 62.5469C48.872 60.4768 47.5847 56.7565 48.7566 53.2702C50.2092 48.9492 54.8896 46.6238 59.2106 48.0764C60.0211 48.3488 60.7614 48.7349 61.4197 49.2108L51.6827 62.5469Z" fill="#191916"/>
<path d="M48.6669 48.8853C47.4805 48.4865 45.6952 48.9283 45.0436 49.2302L43.9814 52.3898C44.341 51.7293 45.7518 50.7439 47.8095 51.4357C49.889 52.1347 50.2405 53.8196 50.284 54.5085L51.3461 51.3489C50.8856 50.6731 49.8533 49.2841 48.6669 48.8853Z" fill="#191916"/>
<ellipse cx="46.8038" cy="72.7179" rx="2.37949" ry="3.11165" transform="rotate(27.194 46.8038 72.7179)" fill="#191916"/>
<path d="M43.3358 79.4949C42.3199 79.279 40.2746 78.2396 40.2209 75.809" stroke="#191916" stroke-linecap="round"/>
<path d="M41.9929 72.266C41.577 77.6733 45.4717 78.293 47.8558 77.873C47.9595 77.8548 48.0184 77.9804 47.9307 78.0386C46.8912 78.7276 44.9639 79.272 42.6872 77.9868C40.3354 76.6592 40.9474 73.8677 41.8143 72.206C41.8639 72.111 42.0011 72.1592 41.9929 72.266Z" fill="#191916" stroke="#191916"/>
<path d="M49.4154 68.7293C50.5283 69.3116 50.8717 70.2636 50.9056 70.9526C50.9113 71.0676 51.1463 71.1596 51.2021 71.0589C51.5249 70.4763 51.6596 69.811 51.2069 69.1115C50.7642 68.4275 47.4561 67.704 49.4154 68.7293Z" fill="#191916" stroke="#191916"/>
</svg>
