<svg width="100" height="100" viewBox="0 0 100 100" fill="none" xmlns="http://www.w3.org/2000/svg">
<path d="M60.3748 17.4006L66.5078 14.2984C66.8736 14.1133 67.2721 14.0623 67.6473 14.1271L61.9244 12.7943L60.3748 17.4006Z" fill="#FF3D4B"/>
<path fill-rule="evenodd" clip-rule="evenodd" d="M85.4621 61.8583C87.375 57.1384 87.3543 51.6633 84.9715 46.7389L84.9742 46.7375L68.9747 15.1079C68.7334 14.631 68.3124 14.3047 67.8356 14.1699C67.7737 14.1523 67.7109 14.1381 67.6473 14.1271C67.2721 14.0623 66.8736 14.1133 66.5078 14.2984L60.3748 17.4006L49.3209 51.0849L79.3027 60.9238L85.4621 61.8583Z" fill="#FF3D4B"/>
<path d="M54.8228 67.8436C60.3537 73.5381 69.1472 75.2538 76.6044 71.4817C80.788 69.3655 83.8294 65.887 85.4621 61.8583L79.3027 60.9238L49.3209 51.0849L60.3748 17.4006L34.8782 30.2979L34.8825 30.3065C34.782 30.3551 34.6816 30.4047 34.5816 30.4554C25.3966 35.1015 21.7171 46.3138 26.3632 55.4988C30.1734 63.0312 38.3995 66.861 46.302 65.4329C44.2363 67.4732 41.1179 69.957 38.6922 71.5825L57.4094 77.7248C56.3751 74.8578 55.1943 70.808 54.8228 67.8436Z" fill="#941F38"/>
<path d="M26.1999 55.5814C29.9546 63.0041 37.9554 66.8659 45.7551 65.7083C43.7117 67.6553 40.8492 69.9168 38.5903 71.4305L38.2786 71.6393L38.6351 71.7563L57.3523 77.8986L57.7088 78.0156L57.5815 77.6627C56.6106 74.9714 55.5129 71.2422 55.0787 68.3582C60.6809 73.7975 69.3281 75.3674 76.687 71.645C80.9116 69.508 83.983 65.9951 85.6317 61.927C87.5422 57.2129 87.5427 51.7521 85.2138 46.8215L85.2201 46.8183L85.1375 46.655L69.138 15.0253C68.8727 14.5008 68.4094 14.142 67.8854 13.9938C67.8205 13.9754 67.7545 13.9603 67.6879 13.9484L67.6879 13.9484L67.6837 13.9477L61.9659 12.6161L61.804 12.5783L61.7509 12.7359L60.2253 17.2712L60.2246 17.2716L34.7956 30.1346L34.6323 30.2172L34.6356 30.2237C34.59 30.2463 34.5445 30.2691 34.499 30.2921C25.2238 34.9838 21.5082 46.3062 26.1999 55.5814Z" stroke="black" stroke-width="0.36596"/>
<mask id="path-3-inside-1_3311_46358" fill="white">
<path fill-rule="evenodd" clip-rule="evenodd" d="M79.2829 45.6723C83.6998 54.8 80.0011 65.8199 70.916 70.4155C63.459 74.1875 54.6659 72.472 49.1349 66.7779C49.5064 69.7421 50.1335 72.8932 51.1678 75.76L33.7782 70.0534C36.2041 68.4277 38.5488 66.4066 40.6146 64.3661C32.7113 65.7955 24.4838 61.9657 20.6733 54.4325C16.0271 45.2475 19.7066 34.0351 28.8916 29.389C28.9919 29.3383 29.0925 29.2885 29.1933 29.2398L29.1891 29.2315L60.1711 13.5596C61.4335 12.921 62.9747 13.4267 63.6133 14.6892L79.0771 45.2599C79.0963 45.2972 79.1154 45.3345 79.1343 45.372C79.1533 45.4095 79.1721 45.447 79.1908 45.4845L79.2852 45.6711L79.2829 45.6723Z"/>
</mask>
<path fill-rule="evenodd" clip-rule="evenodd" d="M79.2829 45.6723C83.6998 54.8 80.0011 65.8199 70.916 70.4155C63.459 74.1875 54.6659 72.472 49.1349 66.7779C49.5064 69.7421 50.1335 72.8932 51.1678 75.76L33.7782 70.0534C36.2041 68.4277 38.5488 66.4066 40.6146 64.3661C32.7113 65.7955 24.4838 61.9657 20.6733 54.4325C16.0271 45.2475 19.7066 34.0351 28.8916 29.389C28.9919 29.3383 29.0925 29.2885 29.1933 29.2398L29.1891 29.2315L60.1711 13.5596C61.4335 12.921 62.9747 13.4267 63.6133 14.6892L79.0771 45.2599C79.0963 45.2972 79.1154 45.3345 79.1343 45.372C79.1533 45.4095 79.1721 45.447 79.1908 45.4845L79.2852 45.6711L79.2829 45.6723Z" fill="#131311"/>
<path d="M79.2829 45.6723L79.1177 45.3457L78.7969 45.508L78.9535 45.8317L79.2829 45.6723ZM49.1349 66.7779L49.3974 66.523L48.6359 65.739L48.7718 66.8234L49.1349 66.7779ZM51.1678 75.76L51.0537 76.1077L51.7667 76.3417L51.512 75.6358L51.1678 75.76ZM33.7782 70.0534L33.5744 69.7494L32.951 70.1671L33.6641 70.4011L33.7782 70.0534ZM40.6146 64.3661L40.8718 64.6265L41.713 63.7956L40.5495 64.006L40.6146 64.3661ZM29.1933 29.2398L29.3527 29.5692L29.688 29.407L29.5199 29.0746L29.1933 29.2398ZM29.1891 29.2315L29.0239 28.9049L28.6974 29.0701L28.8625 29.3966L29.1891 29.2315ZM79.0771 45.2599L78.7506 45.4251L78.7517 45.4272L79.0771 45.2599ZM79.1908 45.4845L78.8631 45.6476L78.8642 45.6497L79.1908 45.4845ZM79.2852 45.6711L79.4503 45.9977L79.7769 45.8325L79.6117 45.506L79.2852 45.6711ZM71.0811 70.742C80.3447 66.0562 84.116 54.82 79.6123 45.5129L78.9535 45.8317C83.2836 54.7801 79.6575 65.5836 70.7508 70.0889L71.0811 70.742ZM48.8724 67.0329C54.5117 72.8385 63.4773 74.5884 71.0811 70.742L70.7508 70.0889C63.4408 73.7866 54.82 72.1054 49.3974 66.523L48.8724 67.0329ZM48.7718 66.8234C49.1453 69.8041 49.7771 72.9837 50.8235 75.8842L51.512 75.6358C50.4899 72.8027 49.8675 69.6802 49.498 66.7324L48.7718 66.8234ZM51.2819 75.4123L33.8923 69.7057L33.6641 70.4011L51.0537 76.1077L51.2819 75.4123ZM33.9819 70.3574C36.4321 68.7155 38.7946 66.6781 40.8718 64.6265L40.3574 64.1057C38.3029 66.1351 35.9761 68.14 33.5744 69.7494L33.9819 70.3574ZM20.3467 54.5977C24.2324 62.2793 32.6215 66.1836 40.6797 64.7262L40.5495 64.006C32.8011 65.4074 24.7353 61.6521 20.9998 54.2673L20.3467 54.5977ZM28.7264 29.0625C19.3611 33.7998 15.6094 45.2323 20.3467 54.5977L20.9998 54.2673C16.4449 45.2627 20.0522 34.2705 29.0568 29.7156L28.7264 29.0625ZM29.0339 28.9103C28.9312 28.96 28.8287 29.0107 28.7264 29.0625L29.0568 29.7156C29.1552 29.6658 29.2538 29.617 29.3527 29.5692L29.0339 28.9103ZM28.8625 29.3966L28.8667 29.4049L29.5199 29.0746L29.5157 29.0663L28.8625 29.3966ZM60.0059 13.233L29.0239 28.9049L29.3543 29.558L60.3363 13.8861L60.0059 13.233ZM63.9398 14.524C63.21 13.0812 61.4487 12.5032 60.0059 13.233L60.3363 13.8861C61.4184 13.3388 62.7393 13.7723 63.2867 14.8544L63.9398 14.524ZM79.4037 45.0947L63.9398 14.524L63.2867 14.8544L78.7506 45.425L79.4037 45.0947ZM79.4609 45.2068C79.4415 45.1686 79.4221 45.1305 79.4026 45.0925L78.7517 45.4272C78.7705 45.4638 78.7892 45.5004 78.8078 45.5372L79.4609 45.2068ZM79.5184 45.3215C79.4994 45.2833 79.4802 45.245 79.4609 45.2068L78.8078 45.5372C78.8263 45.574 78.8448 45.6107 78.8631 45.6476L79.5184 45.3215ZM79.6117 45.506L79.5173 45.3194L78.8642 45.6497L78.9586 45.8363L79.6117 45.506ZM79.4481 45.9988L79.4503 45.9977L79.12 45.3446L79.1177 45.3457L79.4481 45.9988Z" fill="black" mask="url(#path-3-inside-1_3311_46358)"/>
<path fill-rule="evenodd" clip-rule="evenodd" d="M78.9419 45.4572C83.3588 54.585 79.6601 65.6048 70.5749 70.2004C63.118 73.9724 54.3249 72.2569 48.7939 66.5629C49.1654 69.527 49.7925 72.678 50.8267 75.5447L33.4371 69.8381C35.863 68.2125 38.2075 66.1915 40.2733 64.1511C32.3701 65.5803 24.1428 61.7505 20.3322 54.2174C15.6861 45.0324 19.3656 33.8201 28.5506 29.174C28.6509 29.1232 28.7515 29.0735 28.8523 29.0247L28.8481 29.0164L59.5035 13.5097C60.9463 12.7799 62.7076 13.3579 63.4374 14.8007L78.7361 45.0448C78.7553 45.0821 78.7743 45.1195 78.7933 45.157C78.8122 45.1944 78.8311 45.2319 78.8497 45.2695L78.9441 45.4561L78.9419 45.4572ZM45.8266 43.0371C44.6046 46.7608 40.7871 48.9056 37.0385 48.1234C36.8043 46.9847 36.0384 45.7919 34.8495 44.8938C33.807 44.1063 32.6354 43.6936 31.5811 43.6619C30.8758 42.0173 30.7435 40.1188 31.3454 38.2849C32.6577 34.286 36.9632 32.108 40.9621 33.4203C44.961 34.7326 47.1389 39.0382 45.8266 43.0371ZM34.7688 41.674C36.4206 42.2161 38.1989 41.3165 38.741 39.6648C39.283 38.0131 38.3834 36.2347 36.7317 35.6926C35.08 35.1506 33.3016 36.0502 32.7596 37.7019C32.2175 39.3536 33.1171 41.132 34.7688 41.674ZM54.6675 53.9088C58.416 54.691 62.2335 52.5462 63.4555 48.8225C64.7678 44.8236 62.5899 40.518 58.591 39.2057C54.5921 37.8934 50.2866 40.0714 48.9743 44.0703C48.3725 45.9041 48.5047 47.8025 49.2099 49.4471C50.2643 49.4788 51.4359 49.8915 52.4784 50.679C53.6674 51.5771 54.4334 52.7701 54.6675 53.9088ZM56.3699 45.4502C55.8278 47.1019 54.0495 48.0015 52.3977 47.4594C50.746 46.9174 49.8464 45.139 50.3885 43.4873C50.9305 41.8356 52.7089 40.936 54.3606 41.478C56.0123 42.0201 56.9119 43.7985 56.3699 45.4502ZM36.3269 26.8228L49.7661 28.2891L49.3393 32.2009L35.9001 30.7345L36.3269 26.8228ZM58.9979 31.3908L69.823 39.4888L67.4556 42.6535L56.6304 34.5555L58.9979 31.3908ZM30.2311 45.9387C30.117 46.2865 29.7426 46.4759 29.3949 46.3618C29.0471 46.2476 28.8577 45.8732 28.9719 45.5255C29.086 45.1778 29.4604 44.9884 29.8081 45.1025C30.1558 45.2166 30.3452 45.591 30.2311 45.9387ZM31.598 47.0848C31.9458 47.1989 32.3201 47.0095 32.4343 46.6618C32.5484 46.3141 32.359 45.9397 32.0113 45.8255C31.6635 45.7114 31.2891 45.9008 31.175 46.2485C31.0609 46.5963 31.2503 46.9707 31.598 47.0848ZM30.9225 48.0834C30.8084 48.4311 30.434 48.6205 30.0863 48.5064C29.7386 48.3923 29.5492 48.0179 29.6633 47.6702C29.7774 47.3224 30.1518 47.1331 30.4995 47.2472C30.8473 47.3613 31.0367 47.7357 30.9225 48.0834ZM47.18 52.1987C47.5277 52.3128 47.9021 52.1234 48.0163 51.7757C48.1304 51.4279 47.941 51.0535 47.5933 50.9394C47.2455 50.8253 46.8711 51.0147 46.757 51.3624C46.6429 51.7102 46.8323 52.0846 47.18 52.1987ZM50.2194 52.4987C50.1053 52.8464 49.7309 53.0358 49.3832 52.9217C49.0354 52.8076 48.8461 52.4332 48.9602 52.0855C49.0743 51.7377 49.4487 51.5483 49.7964 51.6625C50.1441 51.7766 50.3335 52.151 50.2194 52.4987ZM47.8715 54.3433C48.2192 54.4574 48.5936 54.2681 48.7077 53.9203C48.8218 53.5726 48.6324 53.1982 48.2847 53.0841C47.937 52.97 47.5626 53.1594 47.4485 53.5071C47.3343 53.8548 47.5237 54.2292 47.8715 54.3433Z" fill="#F9F9F9"/>
</svg>
