<svg width="64" height="64" viewBox="0 0 64 64" fill="none" xmlns="http://www.w3.org/2000/svg">
<path d="M47.04 47.7925C38.0259 56.3792 23.8082 56.1377 15.3459 47.2542C6.8843 38.3715 7.33325 24.159 16.3474 15.5722L16.7867 15.1652C16.921 15.0424 17.0581 14.9217 17.1957 14.8022L17.2441 14.7612C22.2675 10.4309 28.8948 8.5142 35.4217 9.50507L35.4807 9.51596L37.9373 10.0702C41.784 11.1212 45.2776 13.2095 48.0404 16.1097C48.0663 16.1369 48.0923 16.1648 48.117 16.1928C52.1775 20.4925 54.307 26.1566 54.1005 32.1282C53.8961 38.0871 51.3884 43.6502 47.04 47.7925ZM17.5072 16.8073C9.17826 24.7413 8.75504 37.879 16.5727 46.0857C24.3904 54.2925 37.534 54.5083 45.8716 46.5659C49.8973 42.7312 52.2183 37.5828 52.4077 32.0702C52.5978 26.5542 50.6325 21.3237 46.8723 17.3414L46.8139 17.2784C44.2685 14.6063 41.0514 12.681 37.5097 11.7093L35.1386 11.1759C29.1102 10.269 22.9914 12.0441 18.3467 16.0474L18.3014 16.0861C18.1798 16.192 18.0524 16.3042 17.9323 16.4132L17.5072 16.8073ZM45.6771 46.3617C37.4523 54.1965 24.4875 53.9853 16.777 45.891C9.06702 37.7973 9.4859 24.8382 17.7107 17.0034L18.1116 16.6315C18.24 16.5144 18.3664 16.4032 18.4827 16.3022L18.5303 16.2623C23.118 12.3072 29.1691 10.5546 35.1246 11.4593L36.3435 11.645L36.3263 11.7109L36.4723 11.7432C40.3533 12.6048 43.8589 14.5857 46.6095 17.4731L46.6657 17.5338C50.372 21.4542 52.3131 26.6161 52.1254 32.06C51.939 37.4989 49.6487 42.5783 45.6771 46.3617ZM18.8749 18.2342C11.3303 25.425 10.9393 37.3064 18.0037 44.7224C25.0699 52.1403 36.9599 52.3253 44.5082 45.1349C48.1572 41.6589 50.2608 36.995 50.4324 32.0021C50.6041 27.0137 48.8273 22.2865 45.4274 18.6905L45.3731 18.6318C42.8653 15.9991 39.6567 14.1854 36.1048 13.3972L34.8702 13.1346C29.4044 12.3042 23.8493 13.914 19.63 17.5508L19.5847 17.5893C19.4861 17.6749 19.3704 17.7765 19.2577 17.8795L18.8749 18.2342Z" fill="#BFDBFF"/>
<path d="M45.7415 46.4866C37.4601 54.3754 24.4064 54.1615 16.6424 46.0112C8.87842 37.8607 9.29946 24.8129 17.5808 16.9242L17.6109 16.8956C17.6517 16.8567 17.6938 16.8189 17.7349 16.7805L17.8451 16.6778C17.8932 16.6334 17.9412 16.5884 17.99 16.545C18.1135 16.4327 18.2403 16.3211 18.3674 16.2106L18.3993 16.1832C23.0257 12.196 29.115 10.4315 35.1135 11.343L36.4902 11.552L36.4701 11.6283C40.3868 12.4978 43.8936 14.4751 46.6789 17.399C46.6957 17.4167 46.7123 17.4341 46.7287 17.4528C50.4694 21.4093 52.4233 26.6051 52.2341 32.0878C52.0463 37.5644 49.7397 42.678 45.7415 46.4866ZM19.3018 18.7383C12.0229 25.6722 11.6406 37.1346 18.4532 44.2863C25.2664 51.4386 36.7334 51.613 44.0163 44.6754C51.2712 37.7644 51.6737 26.3238 44.9141 19.1736L44.874 19.1303C42.1494 16.2695 38.6422 14.4436 34.7283 13.8452L33.7074 13.6887C28.7592 13.223 23.8159 14.8029 20.0053 18.1009L19.9678 18.1336C19.8674 18.2207 19.7675 18.3089 19.6686 18.3979C19.6277 18.4346 19.5896 18.4709 19.5512 18.5067L19.4231 18.625C19.3939 18.6519 19.3647 18.6783 19.3355 18.7061L19.3164 18.7257L19.3018 18.7383Z" fill="#67A3F0"/>
<path d="M45.7791 18.2615C53.0791 25.9248 52.6786 38.1569 44.8846 45.5813C37.0903 53.0061 24.8535 52.8122 17.5535 45.1489C10.254 37.4861 10.6544 25.2545 18.4488 17.8297C26.2427 10.4053 38.4796 10.5987 45.7791 18.2615Z" fill="url(#paint0_linear_1812_128492)"/>
<path opacity="0.3" d="M18.4488 17.8297C10.6544 25.2545 10.254 37.4861 17.5535 45.1489C17.7139 45.3172 17.8805 45.4781 18.0448 45.6387C24.6603 45.3849 31.4762 42.63 36.9403 37.4249C42.5001 32.1287 45.593 25.3112 46.0881 18.6037C45.985 18.4896 45.8856 18.3733 45.7791 18.2615C38.4796 10.5987 26.2427 10.4053 18.4488 17.8297Z" fill="white"/>
<path opacity="0.69" d="M34.9255 12.5784C29.1774 11.7054 23.0572 13.4339 18.4736 17.8002C13.855 22.1997 11.8338 28.2877 12.4705 34.1128C17.5063 33.0105 22.4431 30.4711 26.5989 26.5123C30.8069 22.5038 33.601 17.6232 34.9255 12.5784Z" fill="white"/>
<path opacity="0.69" d="M19.2062 18.6227C26.8643 11.3276 38.8087 11.393 46.1472 18.6677C46.025 18.5312 45.9058 18.3928 45.779 18.2597C38.4795 10.5969 26.2426 10.4034 18.4489 17.8277C10.6542 25.2527 10.254 37.4841 17.5535 45.1469C17.6804 45.2801 17.8128 45.4059 17.9426 45.535C11.0328 37.8518 11.5471 25.9186 19.2062 18.6227Z" fill="white"/>
<path opacity="0.53" d="M44.3248 44.9942C36.6307 52.3235 24.611 52.2236 17.2808 44.8485C17.3722 44.948 17.4591 45.0504 17.5526 45.1485C24.8526 52.8118 37.0893 53.0057 44.8837 45.5809C52.6775 38.1566 53.0781 25.9245 45.7782 18.2612C45.6847 18.1631 45.5866 18.0714 45.4912 17.9756C52.5022 25.6548 52.0188 37.665 44.3248 44.9942Z" fill="#67A3F0"/>
<path d="M42.4496 43.0263C48.8089 36.9685 49.136 26.9893 43.1801 20.737C37.2243 14.4848 27.241 14.3272 20.8817 20.3849C14.5224 26.4427 14.1953 36.422 20.1511 42.6742C26.107 48.9264 36.0903 49.0841 42.4496 43.0263Z" fill="url(#paint1_linear_1812_128492)"/>
<path d="M20.88 20.3833C17.503 23.6003 15.8275 27.9232 15.8902 32.2065C16.1562 28.3711 17.8161 24.6 20.8422 21.7173C27.2013 15.6597 37.1844 15.8171 43.1404 22.0695C45.934 25.0021 47.3452 28.7535 47.4003 32.5362C47.6945 28.3126 46.2999 24.0124 43.1784 20.7355C37.2228 14.4834 27.2391 14.3258 20.88 20.3833Z" fill="#67A3F0"/>
<path opacity="0.69" d="M41.8637 42.4059C35.6157 48.3577 25.8718 48.3047 19.884 42.3703C19.9833 42.4814 20.0805 42.5946 20.185 42.7043C26.1411 48.9569 36.1247 49.1143 42.4837 43.0567C48.8428 36.9992 49.17 27.0198 43.2139 20.7673C43.1095 20.6576 43.0012 20.5548 42.8953 20.45C48.5318 26.719 48.1119 36.454 41.8637 42.4059Z" fill="white"/>
<path d="M42.908 29.6288C42.453 29.1283 41.8433 28.7852 41.1777 28.6616L40.7959 28.5907L41.0186 28.2724C41.6083 27.4299 41.7543 26.3193 41.355 25.3399C40.7347 23.8199 39.0275 23.0632 37.495 23.6007C37.4917 23.602 37.4892 23.603 37.4882 23.6033L37.4876 23.6036L37.4828 23.6056L37.4758 23.608C37.4344 23.6225 37.394 23.6376 37.354 23.6538C37.3519 23.6548 37.3496 23.6558 37.3473 23.6567C37.3452 23.6576 37.3428 23.6585 37.34 23.6596C37.3357 23.6616 37.3286 23.6648 37.3201 23.6682C35.8115 24.2978 34.8428 25.7723 34.1217 27.3622L33.6528 27.1931C34.1201 25.4827 34.3443 23.6822 33.5987 22.2022L33.5925 22.1901L33.5929 22.1899L33.5922 22.1884C33.5816 22.1676 33.5704 22.1464 33.5585 22.1239L33.5564 22.1199C33.5525 22.113 33.5488 22.1061 33.5452 22.0994L33.5299 22.0833L33.5198 22.0536C33.4988 22.0158 33.4797 21.9819 33.4598 21.9498L33.4562 21.9442L33.4563 21.9441L33.4536 21.9393L33.452 21.9367C33.4518 21.9363 33.4517 21.9361 33.4516 21.936C32.5981 20.5524 30.7928 20.067 29.353 20.8608C28.4276 21.3725 27.8426 22.329 27.7734 23.3548L27.7472 23.743L27.405 23.5578C26.5012 23.0685 25.3799 23.0516 24.4538 23.5604L42.908 29.6288ZM42.908 29.6288C42.9093 29.6303 42.9106 29.6317 42.912 29.6331L42.9128 29.6323M42.908 29.6288L42.9128 29.6323M33.5639 22.1188L33.5649 22.1183L33.565 22.1182L33.584 22.1077L33.7762 22.0009M33.5639 22.1188L37.3124 23.6682C37.3057 23.6699 37.2983 23.6715 37.2903 23.6727C37.2621 23.6772 37.2344 23.6768 37.2083 23.6724L37.2413 23.4757L37.2268 23.4362M33.5639 22.1188C33.5651 22.1202 33.5661 22.1213 33.5669 22.1221M33.5639 22.1188L33.5638 22.1189L33.5669 22.1221M33.7762 22.0009C33.7901 22.0271 33.8043 22.0539 33.8179 22.0806C33.8191 22.0826 33.8199 22.0848 33.8208 22.0869C33.8212 22.0879 33.8215 22.0889 33.8219 22.0897C34.4507 23.3378 34.422 24.7835 34.1473 26.1887C33.9727 26.5066 33.8134 26.8314 33.6663 27.1557L33.894 27.2589L34.1352 27.3248C34.2286 26.9826 34.3143 26.6314 34.3851 26.2752C35.063 25.0501 35.9567 23.9652 37.2268 23.4362M33.7762 22.0009C33.7677 21.9855 33.7597 21.9701 33.7512 21.9538L33.5289 22.0681M33.7762 22.0009L33.5962 22.096L33.5784 22.1054L33.5613 22.1145C33.5545 22.107 33.5469 22.0977 33.5395 22.0865C33.5359 22.0809 33.5324 22.0748 33.5289 22.0681M37.2268 23.4362L37.2419 23.4725L37.2486 23.4324L37.249 23.43L37.2497 23.4258M37.2268 23.4362C37.2335 23.4337 37.2396 23.4303 37.2466 23.4274C37.247 23.427 37.2475 23.4268 37.2481 23.4266C37.2487 23.4264 37.2493 23.4262 37.2497 23.4258M37.2497 23.4258C37.2511 23.4261 37.252 23.4256 37.2535 23.4249C37.2541 23.4246 37.2548 23.4243 37.2556 23.4239M37.2497 23.4258L37.2614 23.4381L37.2556 23.4239M37.2556 23.4239C37.3014 23.4053 37.347 23.3882 37.3932 23.3721L37.4049 23.6218C37.4106 23.6173 37.4164 23.6123 37.4221 23.6068L37.2614 23.4381L37.2556 23.4239ZM37.3499 23.6552L37.35 23.6555C37.3501 23.6554 37.3502 23.6554 37.3503 23.6553M37.3499 23.6552L37.3503 23.6553M37.3499 23.6552L37.345 23.6572L37.3447 23.6574L37.3499 23.6552ZM37.3503 23.6553L37.3502 23.6551L37.3603 23.6509C37.3589 23.6516 37.3551 23.6534 37.3503 23.6553ZM33.5289 22.0681C33.5286 22.0675 33.5283 22.0668 33.5279 22.0662L33.5289 22.0681ZM33.5669 22.1221C33.5676 22.1229 33.5681 22.1234 33.5682 22.1235C33.5683 22.1236 33.5682 22.1235 33.5678 22.1231L33.5669 22.1221ZM42.9128 29.6323C42.9171 29.6369 42.9208 29.6413 42.9267 29.6482C42.931 29.6532 42.9365 29.6597 42.9442 29.6686L42.9458 29.6704C42.9553 29.6811 42.9612 29.6877 42.967 29.6942L42.9128 29.6323ZM41.7997 34.5232C41.791 34.5263 41.7835 34.5294 41.7775 34.5322C41.7758 34.5328 41.7741 34.5335 41.7723 34.5341C41.7642 34.5372 41.7553 34.5405 41.745 34.5441L41.7449 34.5439L41.7339 34.5484C41.7064 34.5597 41.6843 34.5686 41.6631 34.576L41.6268 34.5887L41.6245 34.5904C40.2905 35.0688 38.8047 34.8181 37.3673 34.3162C36.6471 34.0647 35.9487 33.7537 35.2984 33.4493C35.1101 33.3612 34.925 33.2732 34.7444 33.1873C34.306 32.9789 33.8937 32.7829 33.5265 32.628L33.5257 32.6277C33.375 32.5647 33.0781 32.4724 32.78 32.3843L32.5446 32.3148L32.4708 32.5489C32.3541 32.9189 32.2265 33.3401 32.1892 33.5393C32.1892 33.5394 32.1892 33.5394 32.1891 33.5395L32.4349 33.5855C32.3623 33.9715 32.2993 34.4147 32.2314 34.8927L41.7997 34.5232ZM41.7997 34.5232C41.838 34.507 41.8748 34.4908 41.9118 34.4739M41.7997 34.5232L41.9118 34.4739M41.9118 34.4739C41.9153 34.4721 41.9186 34.4705 41.9214 34.4692C41.9281 34.4661 41.934 34.4636 41.9383 34.462C41.9388 34.4618 41.9393 34.4616 41.9397 34.4614C43.4064 33.7704 44.0932 32.0363 43.472 30.5188C43.4487 30.4634 43.4247 30.4093 43.3998 30.3578L43.6248 30.249M41.9118 34.4739L42.9782 29.7068C43.0128 29.7482 43.0466 29.7904 43.0791 29.8327C43.0869 29.8434 43.0949 29.8541 43.1039 29.8656C43.1302 29.9018 43.1564 29.9396 43.1828 29.9785L43.1827 29.9785L43.1863 29.9834C43.1926 29.9922 43.1938 29.9941 43.1955 29.9969C43.1973 29.9998 43.1998 30.0037 43.2098 30.0181C43.2395 30.065 43.2681 30.1112 43.2955 30.1575C43.2971 30.1611 43.2997 30.1664 43.3029 30.1725L43.3027 30.1726L43.3083 30.1821C43.3327 30.2236 43.3554 30.2675 43.379 30.3157L43.3789 30.3158L43.3834 30.3242C43.387 30.3308 43.3884 30.3341 43.3937 30.3453C43.3954 30.3487 43.3974 30.3529 43.4 30.3582L43.6248 30.249M43.6248 30.249C43.6229 30.245 43.621 30.241 43.6191 30.237C43.6142 30.2267 43.6092 30.2163 43.6035 30.2057M43.6248 30.249C43.6522 30.3056 43.6782 30.3641 43.7029 30.4228L43.6035 30.2057M43.6035 30.2057C43.5787 30.1549 43.5528 30.1046 43.5238 30.0553C43.5224 30.0528 43.5213 30.0502 43.5201 30.0477L43.6035 30.2057ZM33.5532 22.1061L33.5613 22.1145L33.5605 22.1149C33.559 22.1132 33.5575 22.1114 33.5559 22.1094C33.555 22.1084 33.5541 22.1072 33.5532 22.1061ZM29.2304 41.4634L29.2208 41.4703L29.2196 41.4711L29.2024 41.4816L29.1934 41.4901C29.1588 41.5122 29.1259 41.533 29.0929 41.5531L29.0833 41.5589L29.0804 41.561L29.0803 41.5611C29.0197 41.5984 28.9578 41.6326 28.8923 41.6666C28.8787 41.6733 28.864 41.681 28.8537 41.6864C28.8513 41.6876 28.8492 41.6887 28.8474 41.6897C28.7885 41.7192 28.7279 41.7469 28.666 41.7734C28.6506 41.7788 28.6366 41.7844 28.6247 41.7893C28.5629 41.8139 28.5025 41.8363 28.4428 41.8562L28.4428 41.8562L28.4375 41.8581C28.4321 41.86 28.4276 41.8615 28.4226 41.863L28.4225 41.8628L28.4155 41.8651C28.3501 41.8862 28.2852 41.9045 28.2186 41.9205L28.2186 41.9203L28.2091 41.923C28.2005 41.9254 28.1989 41.9257 28.1963 41.9262C28.1933 41.9269 28.1891 41.9277 28.172 41.9322C28.1092 41.9463 28.0466 41.9589 27.9847 41.9695L27.9814 41.9693L27.9543 41.9736C27.8906 41.9838 27.8257 41.991 27.7546 41.9982L27.7544 41.9982C27.7492 41.9987 27.745 41.999 27.7369 41.9995C27.7334 41.9997 27.7292 42 27.7238 42.0004L27.7238 42.0003L27.7202 42.0006C27.6548 42.006 27.5867 42.0092 27.52 42.0103C27.5126 42.0101 27.506 42.0101 27.5014 42.0101L27.5013 42.0101L27.4879 42.0099L27.4879 42.0099L27.4836 42.0099C27.4125 42.0094 27.3425 42.0073 27.2735 42.0031L27.2673 42.0027C27.1976 41.9972 27.1289 41.9901 27.0599 41.9808C27.0594 41.9807 27.0589 41.9806 27.0584 41.9805C27.0501 41.9792 27.036 41.977 27.0212 41.9753C26.9524 41.9647 26.8843 41.9522 26.8178 41.9374L26.8084 41.9353L26.8077 41.9352C26.8059 41.9348 26.8036 41.9343 26.8008 41.9337C26.7319 41.9177 26.666 41.9009 26.6011 41.8813L26.5875 41.8772L26.5857 41.8769C26.5842 41.8764 26.5826 41.8759 26.5808 41.8754C26.5142 41.8553 26.4488 41.8328 26.3822 41.8074L26.3739 41.8039L26.3569 41.797L26.3559 41.7966C26.2206 41.7438 26.0878 41.681 25.9612 41.6089L25.9613 41.6087L25.95 41.603C25.9485 41.6022 25.9474 41.6016 25.9467 41.6013L25.941 41.598C25.8817 41.5641 25.8223 41.5271 25.7637 41.4882C25.7569 41.4829 25.7486 41.4769 25.7391 41.4708C25.433 41.2612 25.1599 40.992 24.9377 40.6666C24.3438 39.7929 24.2554 38.6753 24.6571 37.7291L24.809 37.3714L24.4205 37.3815C23.3928 37.4084 22.3851 36.9164 21.7897 36.0441C20.8664 34.6896 21.175 32.8529 22.464 31.8692C22.4711 31.8647 22.4788 31.8595 22.4869 31.8534L22.4869 31.8534L22.4894 31.8515C22.5215 31.8267 22.5551 31.8023 22.5901 31.7786C22.5908 31.7781 22.5914 31.7777 22.5922 31.7773C22.5953 31.7753 22.599 31.7728 22.6032 31.7698C22.6042 31.7692 22.6051 31.7686 22.6061 31.7679C22.6179 31.7601 22.63 31.7523 22.6422 31.7446L22.6424 31.7448L22.6523 31.7378C22.6756 31.7214 22.6941 31.709 22.7102 31.6995L22.7103 31.6996L22.7185 31.6944L22.727 31.6888C22.7271 31.6887 22.7272 31.6886 22.7274 31.6885C22.7274 31.6885 22.7274 31.6885 22.7274 31.6885C24.1656 30.7867 26.0341 30.866 27.8176 31.1886L27.9301 30.7021C26.0527 30.1712 24.1594 29.3717 23.2575 27.7592L23.2578 27.759L23.2519 27.7496L23.2503 27.7469C23.2499 27.7462 23.2493 27.7451 23.2485 27.7438C23.2449 27.7366 23.2411 27.7299 23.2372 27.7237C23.2203 27.6927 23.2047 27.6618 23.1869 27.6265C23.1844 27.6216 23.1819 27.6166 23.1793 27.6115C23.1765 27.6059 23.1741 27.6014 23.1726 27.5987L23.1722 27.598C22.4603 26.1373 23.0145 24.3523 24.4537 23.5604L29.2304 41.4634ZM26.5736 41.8747C26.5737 41.8747 26.5738 41.8747 26.5739 41.8747L26.5736 41.8747ZM26.5959 41.8801L26.5959 41.88L26.5959 41.8801ZM27.2715 42.0031C27.2723 42.0031 27.2729 42.0032 27.2735 42.0032C27.2742 42.0033 27.2749 42.0033 27.2754 42.0034L27.2735 42.0032L27.2716 42.003L27.2703 42.0029L27.2703 42.003L27.2715 42.0031ZM41.6633 34.5764L41.6619 34.5769C41.6624 34.5767 41.6629 34.5766 41.6633 34.5764Z" fill="url(#paint2_linear_1812_128492)" stroke="black" stroke-width="0.5"/>
<path d="M26.2983 36.3199C26.2983 36.3199 28.5739 34.8582 29.9694 33.494C31.3649 32.1283 30.9786 31.6094 30.9786 31.6094C30.9786 31.6094 28.7245 31.3004 27.6138 30.9014C26.5032 30.5022 25.5665 30.0988 25.5665 30.0988C25.5665 30.0988 29.7925 31.1537 30.9269 31.0003C31.9839 30.8568 31.2255 29.9853 29.9582 27.8106C28.6895 25.6357 28.0988 24.7778 28.0988 24.7778C28.0988 24.7778 30.4729 27.7025 31.0852 28.7973C31.5418 29.6122 31.8071 31.0397 32.5439 29.6378C33.2991 28.2033 34.3282 24.7979 34.3282 24.7979C34.3282 24.7979 34.1866 27.0502 33.5607 28.3806C32.9343 29.7116 32.7777 30.4505 32.7777 30.4505C32.7777 30.4505 33.3303 31.2334 35.6211 30.4215C37.9125 29.6097 39.1596 29.2191 39.1596 29.2191C39.1596 29.2191 35.7184 30.993 34.4648 31.3168C33.211 31.6401 33.6727 32.6257 34.1878 32.8641C34.7039 33.1027 35.7449 33.9305 35.7449 33.9305L32.9346 33.1414L32.2371 36.4744C32.2371 36.4744 31.8105 32.6552 31.5986 32.6656C31.3869 32.6764 30.096 34.5703 26.2983 36.3199Z" fill="#67A3F0"/>
<path d="M32.9063 32.1732C32.4271 31.4966 31.7247 31.579 32.0657 32.1983C32.0657 32.1983 33.909 35.2287 33.6602 37.5124C33.4106 39.7961 32.3729 41.5705 32.3846 42.0212C32.3951 42.471 32.8369 41.8875 33.5282 42.345C35.0384 43.3439 35.5822 43.9935 35.7523 40.9121C35.9231 37.8302 35.5268 35.8702 32.9063 32.1732Z" fill="url(#paint3_linear_1812_128492)"/>
<path d="M35.618 43.3982C35.0543 43.9351 34.3868 43.4823 33.6138 42.9588C33.5059 42.8852 33.3908 42.8079 33.2706 42.7276C33.0564 42.5858 32.9103 42.6106 32.74 42.6395C32.584 42.6659 32.347 42.7058 32.1371 42.5328C31.9978 42.418 31.9247 42.2488 31.9193 42.0294C31.9131 41.7796 32.0388 41.4571 32.2473 40.923C32.5637 40.1104 33.0426 38.8809 33.1983 37.46C33.4262 35.3614 31.6858 32.4649 31.6682 32.4355C31.3406 31.8435 31.6204 31.5088 31.7134 31.4202C31.8584 31.282 32.0612 31.2174 32.2841 31.2391C32.637 31.2731 33.0099 31.521 33.2805 31.9037C36.003 35.7444 36.3846 37.7945 36.2114 40.9354C36.1311 42.3949 35.9698 43.063 35.618 43.3982ZM32.9421 41.6933C33.172 41.6931 33.4614 41.7467 33.7806 41.9578C33.9043 42.0391 34.021 42.1185 34.1321 42.1938C34.4484 42.4075 34.8373 42.671 34.9996 42.705C35.0663 42.6088 35.2134 42.245 35.2886 40.8847C35.4362 38.2077 35.1707 36.4571 33.2398 33.4856C33.7372 34.6154 34.2658 36.1927 34.117 37.5609C33.9481 39.1041 33.4426 40.4004 33.1081 41.2586C33.0513 41.404 32.991 41.5587 32.9421 41.6933Z" fill="#67A3F0"/>
<path opacity="0.15" d="M30.8743 45.2327C24.9186 38.9807 25.2459 29.0009 31.6044 22.9438C34.2024 20.4691 37.4044 19.0321 40.6904 18.6245C34.7089 14.549 26.4201 15.1091 20.8814 20.3852C14.5222 26.4429 14.1955 36.4221 20.1511 42.6742C23.6744 46.3728 28.6072 47.939 33.3642 47.3474C32.4787 46.7438 31.6424 46.0391 30.8743 45.2327Z" fill="#67A3F0"/>
<path opacity="0.7" d="M15.2992 39.9484C15.2147 37.4017 14.7968 29.7307 14.7968 29.7307C14.7968 29.7307 12.4218 21.1986 12.3432 20.9688C12.3201 20.904 13.5576 29.9634 13.5576 29.9634L15.2992 39.9484Z" fill="white"/>
<path d="M14.1664 28.3992C12.2234 28.5904 10.0949 25.9497 9.42636 25.2688C9.61537 25.4673 9.82876 25.6913 10.0581 25.932C9.95585 25.8247 9.84107 25.7176 9.81831 25.6937C9.67787 25.5463 9.54398 25.4057 9.41968 25.2752C9.60624 25.476 9.89137 25.8037 10.1924 26.2094C10.1924 26.2094 12.2043 28.9749 12.1001 30.0439C11.8803 32.4665 8.33222 35.4246 9.63905 34.2345C14.0478 30.2115 18.0643 34.4279 19.4213 35.7744C19.2456 35.59 19.02 35.3532 18.758 35.0781C18.8079 35.1266 18.8526 35.164 18.8764 35.189C19.0906 35.4139 19.2797 35.6124 19.4279 35.768C16.4019 32.4066 14.4169 30.3459 17.9238 26.4773C19.0797 25.1935 16.4322 28.1732 14.1664 28.3992Z" fill="white"/>
<defs>
<linearGradient id="paint0_linear_1812_128492" x1="17.5538" y1="45.1492" x2="45.7794" y2="18.2618" gradientUnits="userSpaceOnUse">
<stop stop-color="#BFDBFF"/>
<stop offset="1" stop-color="#67A3F0"/>
</linearGradient>
<linearGradient id="paint1_linear_1812_128492" x1="42.4496" y1="43.0263" x2="20.8817" y2="20.3849" gradientUnits="userSpaceOnUse">
<stop stop-color="#BFDBFF"/>
<stop offset="1" stop-color="#67A3F0"/>
</linearGradient>
<linearGradient id="paint2_linear_1812_128492" x1="27.2744" y1="26.2891" x2="39.8876" y2="40.4686" gradientUnits="userSpaceOnUse">
<stop stop-color="#BFDBFF"/>
<stop offset="1" stop-color="#67A3F0"/>
</linearGradient>
<linearGradient id="paint3_linear_1812_128492" x1="24.8847" y1="28.4169" x2="37.498" y2="42.5964" gradientUnits="userSpaceOnUse">
<stop stop-color="#BFDBFF"/>
<stop offset="1" stop-color="#67A3F0"/>
</linearGradient>
</defs>
</svg>
