<svg width="49" height="51" viewBox="0 0 49 51" fill="none" xmlns="http://www.w3.org/2000/svg">
<path d="M5.10914 15.6825C5.09606 15.5729 5.11334 15.4618 5.15917 15.3609C5.205 15.26 5.27772 15.1729 5.36974 15.1087L7.00125 13.9706C7.02877 13.9504 7.0488 13.922 7.05827 13.8897C7.06775 13.8574 7.06617 13.823 7.05377 13.7916C7.04137 13.7603 7.01883 13.7337 6.98956 13.716C6.9603 13.6983 6.92591 13.6904 6.89161 13.6934L4.8994 13.9195C4.78707 13.9323 4.67328 13.9155 4.56987 13.8708C4.46646 13.8261 4.37719 13.7553 4.31136 13.6655L3.14497 12.0737C3.12431 12.0467 3.09516 12.027 3.06197 12.0177C3.02878 12.0084 2.99337 12.0099 2.96114 12.022C2.92892 12.0341 2.90164 12.0562 2.88349 12.0849C2.86533 12.1136 2.85728 12.1472 2.86057 12.1808L3.09286 14.1243C3.10594 14.234 3.08866 14.345 3.04283 14.446C2.997 14.5469 2.92428 14.634 2.83226 14.6982L1.20064 15.8359C1.1728 15.856 1.15249 15.8845 1.14283 15.917C1.13318 15.9494 1.1347 15.9841 1.14717 16.0156C1.15964 16.0471 1.18238 16.0738 1.21188 16.0915C1.24138 16.1092 1.27603 16.117 1.3105 16.1137L3.30249 15.887C3.41487 15.8743 3.52869 15.8911 3.63213 15.9359C3.73557 15.9806 3.82483 16.0515 3.89064 16.1413L5.05703 17.7331C5.07769 17.7601 5.10684 17.7798 5.14003 17.7892C5.17322 17.7985 5.20863 17.797 5.24086 17.7848C5.27308 17.7727 5.30036 17.7506 5.31851 17.7219C5.33667 17.6933 5.34472 17.6596 5.34143 17.6261L5.10914 15.6825Z" fill="#D7FF82"/>
<path d="M26.973 42.266C26.9672 41.9733 27.042 41.6844 27.1895 41.4294C27.337 41.1744 27.5519 40.9626 27.8117 40.8161L32.4182 38.2194C32.4961 38.1729 32.5565 38.1029 32.59 38.02C32.6235 37.9371 32.6284 37.8457 32.6039 37.7599C32.5794 37.674 32.5268 37.5983 32.4542 37.5442C32.3816 37.4901 32.2929 37.4606 32.2015 37.4601L26.8822 37.5589C26.5823 37.5645 26.2863 37.4916 26.025 37.3479C25.7637 37.2041 25.5466 36.9946 25.3964 36.7413L22.7349 32.2469C22.6875 32.1704 22.6157 32.1112 22.5305 32.0782C22.4453 32.0453 22.3514 32.0404 22.2632 32.0644C22.1749 32.0884 22.0971 32.1399 22.0416 32.211C21.9862 32.2822 21.9561 32.3691 21.9559 32.4585L22.0588 37.648C22.0645 37.9407 21.9897 38.2296 21.8422 38.4846C21.6947 38.7396 21.4798 38.9514 21.22 39.0979L16.6133 41.6938C16.5346 41.74 16.4735 41.8101 16.4394 41.8934C16.4054 41.9767 16.4003 42.0685 16.425 42.1549C16.4496 42.2413 16.5027 42.3174 16.5759 42.3715C16.6491 42.4257 16.7386 42.4549 16.8305 42.4547L22.1493 42.3543C22.4493 42.3487 22.7454 42.4217 23.0068 42.5656C23.2681 42.7096 23.4852 42.9192 23.6353 43.1727L26.2968 47.6671C26.3443 47.7436 26.4161 47.8028 26.5012 47.8358C26.5864 47.8687 26.6803 47.8736 26.7686 47.8496C26.8568 47.8256 26.9346 47.7741 26.9901 47.703C27.0456 47.6318 27.0757 47.5449 27.0758 47.4555L26.973 42.266Z" fill="#D7FF82"/>
<path d="M40.9901 19.9698C41.1221 19.8488 41.285 19.7646 41.4617 19.7258C41.6384 19.687 41.8225 19.6952 41.9949 19.7494L45.0507 20.7107C45.1036 20.7259 45.1601 20.7239 45.2117 20.705C45.2633 20.6861 45.3072 20.6513 45.3367 20.6058C45.3662 20.5603 45.3797 20.5067 45.3751 20.4531C45.3705 20.3995 45.3482 20.3488 45.3114 20.3087L43.1133 18.0251C42.9894 17.8964 42.903 17.7376 42.8632 17.5653C42.8235 17.393 42.8317 17.2134 42.8872 17.0452L43.8724 14.0637C43.8883 14.012 43.8864 13.9567 43.8671 13.9062C43.8477 13.8556 43.8119 13.8127 43.7652 13.7838C43.7185 13.755 43.6634 13.7418 43.6083 13.7464C43.5532 13.7509 43.5011 13.773 43.46 13.8091L41.1204 15.9542C40.9884 16.0752 40.8255 16.1595 40.6488 16.1982C40.4721 16.237 40.288 16.2288 40.1156 16.1746L37.0601 15.2129C37.007 15.1972 36.9501 15.1989 36.8981 15.2177C36.8461 15.2366 36.8019 15.2715 36.7723 15.3173C36.7426 15.363 36.7291 15.4169 36.7339 15.4709C36.7387 15.5248 36.7615 15.5756 36.7988 15.6157L38.9974 17.8985C39.1214 18.0273 39.2078 18.1861 39.2475 18.3585C39.2872 18.531 39.2789 18.7106 39.2233 18.8788L38.2381 21.8603C38.2222 21.912 38.2241 21.9673 38.2434 22.0178C38.2628 22.0684 38.2986 22.1114 38.3453 22.1402C38.392 22.1691 38.4471 22.1822 38.5022 22.1776C38.5573 22.1731 38.6094 22.1511 38.6504 22.1149L40.9901 19.9698Z" fill="#D7FF82"/>
<ellipse opacity="0.4" cx="1.19959" cy="1" rx="1.19959" ry="1" transform="matrix(-1 0 0 1 40.7969 31)" fill="#D7FF82"/>
<ellipse opacity="0.4" cx="1.79938" cy="1.5" rx="1.79938" ry="1.5" transform="matrix(-1 0 0 1 7.20312 26)" fill="#D7FF82"/>
<ellipse opacity="0.4" cx="1.19959" cy="1" rx="1.19959" ry="1" transform="matrix(-1 0 0 1 24 14)" fill="#D7FF82"/>
<ellipse opacity="0.4" cx="1.19959" cy="1" rx="1.19959" ry="1" transform="matrix(-1 0 0 1 41.9922 0)" fill="#D7FF82"/>
</svg>
