<svg width="173" height="174" viewBox="0 0 173 174" fill="none" xmlns="http://www.w3.org/2000/svg">
<path d="M42.502 62.5945L23.3458 69.1796L65.8648 89.9445L85.021 83.3594L42.502 62.5945Z" fill="#544A00"/>
<path d="M50.8453 12.8706L23.3458 69.1796L42.502 62.5945L70.0015 6.28559L50.8453 12.8706Z" fill="#FEE425"/>
<path d="M65.8648 89.9445L42.5183 137.75L61.6746 131.165L85.021 83.3594L65.8648 89.9445Z" fill="#FEE425"/>
<path d="M101.815 166.708L121.201 160.235L61.6746 131.165L42.5183 137.75L101.815 166.708Z" fill="#544A00"/>
<path d="M70.0015 6.28559L42.502 62.5945L85.021 83.3594L61.6746 131.165L121.201 160.235L166.323 67.8428L160.326 50.397L70.0015 6.28559Z" fill="#F9F9F9"/>
<path d="M23.3458 69.1796L50.8453 12.8706L70.0015 6.28559M23.3458 69.1796L42.502 62.5945M23.3458 69.1796L65.8648 89.9445M42.502 62.5945L70.0015 6.28559M42.502 62.5945L85.021 83.3594M70.0015 6.28559L160.326 50.397L166.323 67.8428L121.201 160.235M121.201 160.235L101.815 166.708L42.5183 137.75M121.201 160.235L61.6746 131.165M42.5183 137.75L65.8648 89.9445M42.5183 137.75L61.6746 131.165M65.8648 89.9445L85.021 83.3594M85.021 83.3594L61.6746 131.165" stroke="#141414"/>
<path d="M120.87 145.765L120.431 146.664L121.329 147.102L121.768 146.204L120.87 145.765ZM107.674 138.534C107.152 138.713 106.874 139.282 107.053 139.805L109.979 148.316C110.159 148.838 110.728 149.116 111.25 148.936C111.772 148.757 112.05 148.188 111.87 147.666L109.27 140.1L116.835 137.499C117.358 137.32 117.635 136.751 117.456 136.229C117.276 135.706 116.707 135.428 116.185 135.608L107.674 138.534ZM127.042 130.847L119.971 145.326L121.768 146.204L128.84 131.724L127.042 130.847ZM121.308 144.866L108.438 138.581L107.56 140.378L120.431 146.664L121.308 144.866Z" fill="#141414"/>
<path d="M82.1095 25.8779L80.235 24.9625C80.9035 23.4661 80.3693 21.912 78.9729 21.2301C77.1992 20.3638 75.4485 21.3006 74.5884 23.0618C73.7344 24.8104 74.003 26.7489 75.89 27.6704C77.2361 28.3278 78.6924 28.0575 79.4437 26.7105L81.3307 27.6321C80.0054 29.8672 77.2867 30.3935 75.0852 29.3184C72.4308 28.0221 71.3504 24.9704 72.7266 22.1525C74.072 19.3975 77.1737 18.3104 79.7778 19.5821C82.0799 20.7064 83.2329 23.4819 82.1095 25.8779ZM80.3175 31.5621L84.7716 22.4416L86.5957 23.3324L82.8235 31.0565L86.9875 33.0901L86.3056 34.4865L80.3175 31.5621ZM86.1937 34.4318L93.7551 26.8288L95.8937 27.8733L94.5091 38.4928L92.6598 37.5897L92.9957 35.3387L89.5991 33.68L88.0304 35.3288L86.1937 34.4318ZM90.6532 32.5744L93.2195 33.8277L93.8897 29.1693L90.6532 32.5744ZM94.8756 38.6718L99.3297 29.5513L101.166 30.4483L96.7122 39.5687L94.8756 38.6718ZM97.7201 40.061L102.174 30.9405L104.615 32.1323L103.565 40.3444L109.401 34.4544L111.854 35.6524L107.4 44.7728L105.715 43.9496L109.247 36.7161L103.255 42.7642L101.846 42.0761L102.926 33.6446L99.3932 40.8781L97.7201 40.061ZM111.406 46.7448L115.86 37.6243L122.05 40.647L121.368 42.0434L117.015 39.9177L115.731 42.5469L119.467 44.3716L118.785 45.7679L115.049 43.9433L113.243 47.6418L111.406 46.7448ZM118.095 50.0116L122.55 40.8911L127.003 43.066C128.638 43.8646 129.261 45.493 128.376 47.3045C127.768 48.5499 126.741 49.2483 125.513 49.1158C125.945 49.7629 125.797 50.6722 125.649 51.6127C125.53 52.3339 125.412 53.055 125.568 53.6609L123.801 52.8134C123.665 52.3263 123.783 51.6364 123.902 50.9466C124.055 49.9308 124.227 48.9086 123.747 48.4561L121.634 47.4239L119.932 50.9086L118.095 50.0116ZM122.316 46.0275L124.656 47.1703C125.31 47.4897 126.267 47.3806 126.728 46.4371C127.176 45.5188 126.761 44.6774 125.956 44.2842L123.704 43.1845L122.316 46.0275ZM126.038 53.8905L130.492 44.77L137.147 48.02L136.465 49.4164L131.647 47.0634L130.418 49.5794L134.532 51.5883L133.85 52.9847L129.736 50.9757L128.557 53.3911L133.375 55.7441L132.693 57.1405L126.038 53.8905ZM133.354 57.4634L137.808 48.3429L144.463 51.5929L143.781 52.9893L138.963 50.6363L137.734 53.1523L141.848 55.1613L141.166 56.5576L137.052 54.5487L135.873 56.964L140.691 59.317L140.009 60.7134L133.354 57.4634ZM75.9658 38.4579L74.0914 37.5425C74.7599 36.046 74.2257 34.492 72.8293 33.81C71.0555 32.9438 69.3049 33.8806 68.4448 35.6418C67.5908 37.3904 67.8594 39.3288 69.7464 40.2504C71.0924 40.9078 72.5488 40.6374 73.3 39.2905L75.187 40.212C73.8618 42.4472 71.143 42.9735 68.9415 41.8984C66.2872 40.6021 65.2067 37.5504 66.5829 34.7325C67.9284 31.9775 71.0301 30.8903 73.6341 32.1621C75.9362 33.2863 77.0892 36.0618 75.9658 38.4579ZM76.2086 39.4333C77.5172 36.7538 80.618 35.5727 83.2975 36.8813C85.977 38.1899 86.9647 41.3677 85.6561 44.0472C84.3475 46.7268 81.2341 47.9017 78.5546 46.5931C75.8751 45.2845 74.9 42.1129 76.2086 39.4333ZM83.7943 43.138C84.7281 41.2258 84.1658 39.3464 82.4927 38.5293C80.8195 37.7122 78.9917 38.4243 78.0578 40.3365C77.124 42.2486 77.6863 44.128 79.3594 44.9451C81.0326 45.7622 82.8604 45.0501 83.7943 43.138ZM84.1923 49.0347L88.6465 39.9143L90.4831 40.8112L86.029 49.9317L84.1923 49.0347ZM87.0243 50.4178L91.4784 41.2973L93.1641 42.1206L94.0603 50.2393L97.0891 44.0374L98.7748 44.8606L94.3207 53.9811L92.6349 53.1579L91.7695 44.9762L88.71 51.241L87.0243 50.4178ZM103.686 55.5322C102.795 57.3563 100.61 57.3642 98.7229 56.4426C96.0686 55.1463 95.7026 52.8331 96.6753 51.0646L98.5939 52.0171C98.0939 52.7857 97.8198 54.2722 99.4929 55.0893C100.525 55.593 101.462 55.4277 101.812 54.7107C102.801 52.6853 96.9506 51.0432 98.6033 47.6592C99.4941 45.8351 101.453 45.7792 103.315 46.6885C105.366 47.6899 106.365 49.4087 105.061 51.9504L103.105 50.9794C103.905 49.5318 103.708 48.5632 102.564 48.0041C101.557 47.5126 100.708 47.7835 100.37 48.4754C99.3197 50.6266 105.246 52.3369 103.686 55.5322Z" fill="#101012"/>
</svg>
