<svg width="63" height="63" viewBox="0 0 63 63" fill="none" xmlns="http://www.w3.org/2000/svg">
<path fill-rule="evenodd" clip-rule="evenodd" d="M20.5058 43.6273C23.0046 42.8312 25.1883 41.0583 26.4377 38.5194C27.039 37.2974 27.3677 36.0121 27.4473 34.7327L30.9738 36.4681C30.0085 37.3118 29.1906 38.3564 28.5891 39.5786C27.3384 42.1203 27.2671 44.9355 28.164 47.4031L28.0674 47.5992L20.4065 43.8293L20.5058 43.6273Z" fill="#97BA4A"/>
<path fill-rule="evenodd" clip-rule="evenodd" d="M42.8456 29.1749C42.6278 29.6175 42.3798 30.0354 42.1053 30.4272C42.0358 30.5263 42.0804 30.6657 42.1945 30.7061C42.5385 30.828 42.8792 30.9713 43.2147 31.1364C47.868 33.4263 49.7839 39.0548 47.494 43.7081C45.2042 48.3614 39.5756 50.2773 34.9223 47.9874C31.2501 46.1804 29.2827 42.2941 29.7417 38.4487C29.7507 38.3732 29.7117 38.2996 29.6435 38.266L26.8456 36.8892C26.7774 36.8556 26.6953 36.8696 26.641 36.9228C23.8742 39.6327 19.5946 40.445 15.9223 38.6378C11.269 36.348 9.35311 30.7194 11.643 26.0661C13.9329 21.4128 19.5614 19.4969 24.2147 21.7868C24.5504 21.952 24.8719 22.1346 25.1785 22.3329C25.2802 22.3986 25.4178 22.3489 25.4539 22.2334C25.5969 21.7768 25.7767 21.3252 25.9946 20.8825C28.2844 16.2292 33.913 14.3133 38.5663 16.6032C43.2196 18.8931 45.1355 24.5216 42.8456 29.1749Z" fill="#97BA4A"/>
<mask id="path-3-inside-1_1812_128271" fill="white">
<path fill-rule="evenodd" clip-rule="evenodd" d="M40.2365 29.5108C40.5115 29.1185 40.7599 28.7002 40.978 28.257C43.2678 23.6037 41.3519 17.9751 36.6986 15.6852C32.0454 13.3954 26.4168 15.3113 24.1269 19.9646C23.9091 20.4073 23.7293 20.8588 23.5863 21.3155C23.5501 21.431 23.4125 21.4807 23.3109 21.4149C23.0042 21.2166 22.6828 21.034 22.3471 20.8688C17.6938 18.5789 12.0652 20.4949 9.77535 25.1482C7.48546 29.8014 9.40138 35.43 14.0547 37.7199C17.7269 39.527 22.0066 38.7148 24.7734 36.0049C24.8277 35.9517 24.9098 35.9377 24.978 35.9713L25.1748 36.0681C25.0181 36.5867 24.8171 37.0994 24.57 37.6014C23.3206 40.1403 21.137 41.9132 18.6382 42.7094L18.5388 42.9113L26.1998 46.6813L26.2963 46.4851C25.3995 44.0175 25.4707 41.2023 26.7215 38.6606C26.9686 38.1584 27.2523 37.6862 27.5677 37.2457L27.7761 37.3482C27.8443 37.3818 27.8833 37.4553 27.8743 37.5309C27.4144 41.3768 29.3819 45.2641 33.0547 47.0714C37.708 49.3613 43.3365 47.4454 45.6264 42.7921C47.9163 38.1388 46.0004 32.5103 41.3471 30.2204C41.0112 30.0551 40.6702 29.9117 40.3257 29.7897C40.2116 29.7493 40.1671 29.6099 40.2365 29.5108Z"/>
</mask>
<path fill-rule="evenodd" clip-rule="evenodd" d="M40.2365 29.5108C40.5115 29.1185 40.7599 28.7002 40.978 28.257C43.2678 23.6037 41.3519 17.9751 36.6986 15.6852C32.0454 13.3954 26.4168 15.3113 24.1269 19.9646C23.9091 20.4073 23.7293 20.8588 23.5863 21.3155C23.5501 21.431 23.4125 21.4807 23.3109 21.4149C23.0042 21.2166 22.6828 21.034 22.3471 20.8688C17.6938 18.5789 12.0652 20.4949 9.77535 25.1482C7.48546 29.8014 9.40138 35.43 14.0547 37.7199C17.7269 39.527 22.0066 38.7148 24.7734 36.0049C24.8277 35.9517 24.9098 35.9377 24.978 35.9713L25.1748 36.0681C25.0181 36.5867 24.8171 37.0994 24.57 37.6014C23.3206 40.1403 21.137 41.9132 18.6382 42.7094L18.5388 42.9113L26.1998 46.6813L26.2963 46.4851C25.3995 44.0175 25.4707 41.2023 26.7215 38.6606C26.9686 38.1584 27.2523 37.6862 27.5677 37.2457L27.7761 37.3482C27.8443 37.3818 27.8833 37.4553 27.8743 37.5309C27.4144 41.3768 29.3819 45.2641 33.0547 47.0714C37.708 49.3613 43.3365 47.4454 45.6264 42.7921C47.9163 38.1388 46.0004 32.5103 41.3471 30.2204C41.0112 30.0551 40.6702 29.9117 40.3257 29.7897C40.2116 29.7493 40.1671 29.6099 40.2365 29.5108Z" fill="#D7FF82"/>
<path d="M40.978 28.257L40.7179 28.129L40.978 28.257ZM40.2365 29.5108L40.4739 29.6771L40.4739 29.6771L40.2365 29.5108ZM36.6986 15.6852L36.5707 15.9453L36.6986 15.6852ZM24.1269 19.9646L24.387 20.0925L24.1269 19.9646ZM23.5863 21.3155L23.3097 21.2289L23.3097 21.2289L23.5863 21.3155ZM23.3109 21.4149L23.1535 21.6583L23.3109 21.4149ZM22.3471 20.8688L22.475 20.6088L22.475 20.6088L22.3471 20.8688ZM9.77535 25.1482L10.0354 25.2761L9.77535 25.1482ZM14.0547 37.7199L14.1826 37.4598L14.0547 37.7199ZM24.7734 36.0049L24.5705 35.7978L24.5705 35.7978L24.7734 36.0049ZM24.978 35.9713L25.106 35.7112L25.106 35.7112L24.978 35.9713ZM25.1748 36.0681L25.4522 36.1519L25.5233 35.9166L25.3027 35.808L25.1748 36.0681ZM24.57 37.6014L24.8301 37.7294L24.8301 37.7294L24.57 37.6014ZM18.6382 42.7094L18.5502 42.4332L18.4326 42.4707L18.3781 42.5814L18.6382 42.7094ZM18.5388 42.9113L18.2788 42.7833L18.1508 43.0434L18.4108 43.1713L18.5388 42.9113ZM26.1998 46.6813L26.0718 46.9413L26.3319 47.0693L26.4598 46.8092L26.1998 46.6813ZM26.2963 46.4851L26.5564 46.6131L26.6109 46.5022L26.5687 46.3861L26.2963 46.4851ZM26.7215 38.6606L26.4614 38.5326L26.7215 38.6606ZM27.5677 37.2457L27.6957 36.9856L27.4751 36.8771L27.332 37.0769L27.5677 37.2457ZM27.7761 37.3482L27.6481 37.6082L27.6481 37.6082L27.7761 37.3482ZM27.8743 37.5309L28.1621 37.5653L27.8743 37.5309ZM33.0547 47.0714L32.9267 47.3315L33.0547 47.0714ZM45.6264 42.7921L45.8864 42.9201L45.6264 42.7921ZM41.3471 30.2204L41.475 29.9603L41.475 29.9603L41.3471 30.2204ZM40.3257 29.7897L40.229 30.0629L40.229 30.0629L40.3257 29.7897ZM40.7179 28.129C40.5064 28.5588 40.2656 28.9643 39.9992 29.3444L40.4739 29.6771C40.7573 29.2727 41.0133 28.8415 41.238 28.3849L40.7179 28.129ZM36.5707 15.9453C41.0803 18.1645 42.9371 23.6193 40.7179 28.129L41.238 28.3849C43.5986 23.588 41.6235 17.7857 36.8266 15.4252L36.5707 15.9453ZM24.387 20.0925C26.6062 15.5829 32.061 13.7261 36.5707 15.9453L36.8266 15.4252C32.0297 13.0646 26.2274 15.0397 23.8669 19.8366L24.387 20.0925ZM23.8629 21.4021C24.0014 20.9596 24.1757 20.5219 24.387 20.0925L23.8669 19.8366C23.6424 20.2927 23.4571 20.7581 23.3097 21.2289L23.8629 21.4021ZM23.1535 21.6583C23.416 21.8281 23.7694 21.7004 23.8629 21.4021L23.3097 21.2289C23.3308 21.1615 23.409 21.1332 23.4683 21.1716L23.1535 21.6583ZM22.2191 21.1289C22.5447 21.2891 22.8563 21.4661 23.1535 21.6583L23.4683 21.1716C23.1522 20.9671 22.8209 20.779 22.475 20.6088L22.2191 21.1289ZM10.0354 25.2761C12.2546 20.7665 17.7094 18.9097 22.2191 21.1289L22.475 20.6088C17.6781 18.2482 11.8759 20.2233 9.5153 25.0202L10.0354 25.2761ZM14.1826 37.4598C9.67298 35.2406 7.81619 29.7858 10.0354 25.2761L9.5153 25.0202C7.15474 29.8171 9.12979 35.6194 13.9267 37.9799L14.1826 37.4598ZM24.5705 35.7978C21.8889 38.4243 17.7412 39.211 14.1826 37.4598L13.9267 37.9799C17.7127 39.843 22.1243 39.0052 24.9762 36.2119L24.5705 35.7978ZM25.106 35.7112C24.925 35.6222 24.7108 35.6604 24.5705 35.7978L24.9762 36.2119C24.9445 36.2429 24.8945 36.2532 24.85 36.2313L25.106 35.7112ZM25.3027 35.808L25.106 35.7112L24.85 36.2313L25.0468 36.3281L25.3027 35.808ZM24.8301 37.7294C25.0842 37.2131 25.291 36.6856 25.4522 36.1519L24.8973 35.9843C24.7452 36.4878 24.55 36.9857 24.31 37.4735L24.8301 37.7294ZM18.7262 42.9855C21.297 42.1664 23.5445 40.3419 24.8301 37.7294L24.31 37.4735C23.0968 39.9387 20.977 41.66 18.5502 42.4332L18.7262 42.9855ZM18.7989 43.0393L18.8982 42.8373L18.3781 42.5814L18.2788 42.7833L18.7989 43.0393ZM26.3277 46.4212L18.6668 42.6512L18.4108 43.1713L26.0718 46.9413L26.3277 46.4212ZM26.0363 46.3571L25.9397 46.5533L26.4598 46.8092L26.5564 46.6131L26.0363 46.3571ZM26.4614 38.5326C25.1744 41.148 25.1012 44.0454 26.0239 46.5841L26.5687 46.3861C25.6977 43.9896 25.767 41.2566 26.9815 38.7886L26.4614 38.5326ZM27.332 37.0769C27.0074 37.5304 26.7156 38.0162 26.4614 38.5326L26.9815 38.7886C27.2216 38.3007 27.4971 37.8421 27.8034 37.4144L27.332 37.0769ZM27.904 37.0881L27.6957 36.9856L27.4397 37.5057L27.6481 37.6082L27.904 37.0881ZM28.1621 37.5653C28.1854 37.3703 28.085 37.1772 27.904 37.0881L27.6481 37.6082C27.6036 37.5864 27.5812 37.5404 27.5865 37.4965L28.1621 37.5653ZM33.1826 46.8114C29.6237 45.06 27.7164 41.293 28.1621 37.5653L27.5865 37.4965C27.1125 41.4607 29.1402 45.4681 32.9267 47.3315L33.1826 46.8114ZM45.3663 42.6641C43.1471 47.1738 37.6923 49.0306 33.1826 46.8114L32.9267 47.3315C37.7236 49.6921 43.5259 47.717 45.8864 42.9201L45.3663 42.6641ZM41.2191 30.4804C45.7288 32.6996 47.5856 38.1545 45.3663 42.6641L45.8864 42.9201C48.247 38.1232 46.272 32.3209 41.475 29.9603L41.2191 30.4804ZM40.229 30.0629C40.5628 30.1811 40.8934 30.3201 41.2191 30.4804L41.475 29.9603C41.129 29.79 40.7776 29.6423 40.4225 29.5165L40.229 30.0629ZM39.9992 29.3444C39.8197 29.6005 39.9342 29.9585 40.229 30.0629L40.4225 29.5165C40.4891 29.5401 40.5144 29.6193 40.4739 29.6771L39.9992 29.3444Z" fill="#141414" mask="url(#path-3-inside-1_1812_128271)"/>
</svg>
