<svg width="64" height="58" viewBox="0 0 64 58" fill="none" xmlns="http://www.w3.org/2000/svg">
<path d="M23.467 11.985C25.9403 14.4607 29.388 15.9018 34.5475 17.195C34.6635 17.2256 34.7661 17.2937 34.8394 17.3884C34.9131 17.4837 34.953 17.6006 34.953 17.721C34.953 17.8413 34.9131 17.9583 34.8394 18.0535C34.7661 18.1483 34.6635 18.2163 34.5475 18.2469C29.388 19.5402 25.9403 20.9812 23.467 23.457C20.9938 25.9326 19.5559 29.3817 18.2618 34.5366M23.467 11.985L18.7461 34.6609M23.467 11.985C20.9938 9.50935 19.556 6.06025 18.2618 0.905354M23.467 11.985L18.2618 0.905354M18.2618 34.5366C18.2616 34.5375 18.2613 34.5383 18.2611 34.5392L18.7461 34.6609M18.2618 34.5366C18.2619 34.536 18.2621 34.5354 18.2622 34.5348L18.7461 34.6609M18.2618 34.5366C18.2312 34.6523 18.1632 34.7548 18.0683 34.8282C17.9729 34.9019 17.8556 34.9419 17.7349 34.9419C17.6143 34.9419 17.497 34.9019 17.4016 34.8282C17.3067 34.7549 17.2387 34.6524 17.2081 34.5367M18.7461 34.6609C18.6878 34.8845 18.5569 35.0825 18.374 35.2239C18.191 35.3652 17.9662 35.4419 17.7349 35.4419C17.5037 35.4419 17.2789 35.3652 17.0959 35.2239C16.913 35.0825 16.7821 34.8845 16.7238 34.6609M17.2081 34.5367C17.2083 34.5375 17.2085 34.5384 17.2088 34.5392L16.7238 34.6609M17.2081 34.5367C15.9139 29.3813 14.4717 25.9322 11.9942 23.4566C9.51669 20.9811 6.06498 19.5402 0.90561 18.2469M17.2081 34.5367C17.208 34.5361 17.2078 34.5355 17.2076 34.5348L16.7238 34.6609M16.7238 34.6609L0.90561 18.2469M0.90561 18.2469C0.904787 18.2467 0.903965 18.2465 0.903143 18.2463L0.781592 18.7313L0.907472 18.2474C0.906851 18.2472 0.90623 18.2471 0.90561 18.2469ZM18.2618 0.905354C18.2312 0.7896 18.1632 0.687054 18.0683 0.613724C17.9729 0.540047 17.8557 0.500031 17.7349 0.500031C17.6142 0.500031 17.497 0.540047 17.4016 0.613728C17.3067 0.687042 17.2387 0.789555 17.2081 0.905273C17.208 0.905872 17.2078 0.906467 17.2076 0.907066L16.7238 0.781002C14.1454 11.0527 11.0615 14.1343 0.781592 16.7106M18.2618 0.905354L0.781592 16.7106M0.781592 16.7106L0.907472 17.1945C0.906851 17.1947 0.906229 17.1948 0.905608 17.195C0.904787 17.1952 0.903965 17.1954 0.903143 17.1956L0.781592 16.7106Z" fill="white" stroke="#26103D"/>
<path d="M41.7835 46.2163C44.9981 47.076 47.1772 48.0197 48.7333 49.627C50.2892 51.2342 51.1621 53.4426 51.9211 56.6797C51.9293 56.7117 51.9477 56.7402 51.9736 56.7609C51.9999 56.7819 52.0325 56.7936 52.0663 56.7942C52.1001 56.7947 52.1331 56.784 52.16 56.7638L52.4594 57.1643L52.16 56.7638C52.1866 56.744 52.2059 56.716 52.215 56.6843C53.0753 53.4722 54.0198 51.2923 55.6282 49.7349C57.2365 48.1775 59.4466 47.3026 62.6865 46.5443C62.7187 46.5361 62.7474 46.5176 62.768 46.4917C62.789 46.4655 62.8006 46.4331 62.8011 46.3996C62.8017 46.3661 62.791 46.3334 62.7709 46.3065C62.7511 46.28 62.7231 46.2607 62.6911 46.2515C59.4765 45.3918 57.295 44.448 55.7363 42.841C54.1776 41.2338 53.302 39.0254 52.5429 35.7879C52.5348 35.7559 52.5164 35.7274 52.4904 35.7067L52.801 35.3174L52.4904 35.7067C52.4641 35.6857 52.4315 35.674 52.3977 35.6734C52.3639 35.6729 52.331 35.6836 52.304 35.7038C52.2774 35.7236 52.2581 35.7516 52.249 35.7833C51.3888 38.9949 50.4471 41.1749 48.8414 42.7325C47.2357 44.2901 45.0281 45.1651 41.7881 45.9235C41.7558 45.9317 41.7272 45.9502 41.7065 45.976C41.6856 46.0022 41.6739 46.0346 41.6734 46.0681C41.6729 46.1016 41.6835 46.1344 41.7036 46.1612C41.7235 46.1877 41.7515 46.2071 41.7835 46.2163Z" fill="white" stroke="#26103D"/>
</svg>
