<svg width="101" height="104" viewBox="0 0 101 104" fill="none" xmlns="http://www.w3.org/2000/svg">
<path d="M23.8672 40.8591L13.168 44.537L37.4293 56.3855L48.1285 52.7076L23.8672 40.8591Z" fill="#544A00"/>
<path d="M28.9659 12.1885L13.168 44.537L23.8672 40.8591L39.6651 8.51062L28.9659 12.1885Z" fill="#FEE425"/>
<path d="M37.4293 56.3855L24.2644 83.3425L34.9636 79.6647L48.1285 52.7076L37.4293 56.3855Z" fill="#FEE425"/>
<path d="M58.41 100.018L69.1092 96.3403L34.9636 79.6647L24.2644 83.3425L58.41 100.018Z" fill="#544A00"/>
<path d="M39.6651 8.51062L23.8672 40.8591L48.1285 52.7076L34.9636 79.6647L69.1092 96.3403L95.0003 43.3247L91.7821 33.9629L39.6651 8.51062Z" fill="#F9F9F9"/>
<path d="M13.168 44.537L28.9659 12.1885L39.6651 8.51062M13.168 44.537L23.8672 40.8591M13.168 44.537L37.4293 56.3855M23.8672 40.8591L39.6651 8.51062M23.8672 40.8591L48.1285 52.7076M39.6651 8.51062L91.7821 33.9629L95.0003 43.3247L69.1092 96.3403M69.1092 96.3403L58.41 100.018L24.2644 83.3425M69.1092 96.3403L34.9636 79.6647M24.2644 83.3425L37.4293 56.3855M24.2644 83.3425L34.9636 79.6647M37.4293 56.3855L48.1285 52.7076M48.1285 52.7076L34.9636 79.6647" stroke="#141414" stroke-width="0.584918"/>
<path d="M67.7156 89.5978L67.5873 89.8606L67.8501 89.9889L67.9784 89.7261L67.7156 89.5978ZM60.432 85.8105C60.2793 85.8631 60.198 86.0294 60.2505 86.1822L61.1062 88.6714C61.1587 88.8241 61.3251 88.9054 61.4778 88.8529C61.6306 88.8004 61.7118 88.634 61.6593 88.4812L60.8987 86.2686L63.1113 85.508C63.2641 85.4555 63.3453 85.2891 63.2928 85.1364C63.2403 84.9836 63.0739 84.9024 62.9212 84.9549L60.432 85.8105ZM71.4023 81.3823L67.4528 89.4694L67.9784 89.7261L71.9279 81.639L71.4023 81.3823ZM67.844 89.335L60.6554 85.8243L60.3987 86.3499L67.5873 89.8606L67.844 89.335Z" fill="#141414"/>
<path d="M43.9719 20.6147L44.4236 19.6897L47.2492 21.0696L45.6516 24.3409L44.7014 23.8768L45.2887 22.6743C44.5117 23.2842 43.5176 23.507 42.4664 22.9936C40.9527 22.2544 40.1779 20.4075 41.1266 18.4649C42.0835 16.5055 44.1401 15.7705 45.8556 16.6083C47.3272 17.327 48.1429 19.069 47.4616 20.5068L46.2086 19.8949C46.5858 19.0584 46.1963 18.1287 45.3217 17.7016C44.178 17.143 42.9954 17.7945 42.4287 18.955C41.8989 20.0398 41.9448 21.3745 43.139 21.9577C43.9967 22.3766 44.886 22.1339 45.4435 21.3335L43.9719 20.6147Z" fill="#101012"/>
<path d="M45.8954 24.46L50.9501 19.3775L52.3797 20.0757L51.4541 27.1746L50.2179 26.5709L50.4424 25.0662L48.1718 23.9573L47.1232 25.0596L45.8954 24.46ZM48.8765 23.2183L50.592 24.0561L51.04 20.9421L48.8765 23.2183Z" fill="#101012"/>
<path d="M51.7075 27.2984L54.685 21.2015L56.3164 21.9983L55.6143 27.4879L59.5161 23.5505L61.1559 24.3513L58.1784 30.4482L57.0516 29.8978L59.413 25.0624L55.4076 29.1054L54.4658 28.6454L55.1874 23.0092L52.8259 27.8446L51.7075 27.2984Z" fill="#101012"/>
<path d="M58.8316 30.7776L61.8091 24.6807L66.2577 26.8533L65.8019 27.7867L62.581 26.2138L61.7597 27.8957L64.5095 29.2386L64.0537 30.1721L61.3038 28.8291L60.5153 30.4437L63.7361 32.0167L63.2802 32.9501L58.8316 30.7776Z" fill="#101012"/>
<path d="M36.7957 27.3328C37.6705 25.5416 39.7433 24.7521 41.5345 25.6269C43.3257 26.5017 43.986 28.6259 43.1112 30.4171C42.2365 32.2083 40.1552 32.9937 38.364 32.119C36.5728 31.2442 35.921 29.124 36.7957 27.3328ZM41.8666 29.8093C42.4909 28.5311 42.115 27.2747 40.9965 26.7285C39.8781 26.1823 38.6562 26.6583 38.0319 27.9366C37.4077 29.2148 37.7836 30.4711 38.902 31.0173C40.0205 31.5635 41.2424 31.0875 41.8666 29.8093Z" fill="#101012"/>
<path d="M42.1327 33.7512L45.1102 27.6543L46.2371 28.2047L46.8361 33.6319L48.8608 29.486L49.9877 30.0363L47.0102 36.1332L45.8833 35.5828L45.3048 30.1136L43.2596 34.3015L42.1327 33.7512Z" fill="#101012"/>
</svg>
