<svg width="148" height="124" viewBox="0 0 148 124" fill="none" xmlns="http://www.w3.org/2000/svg">
<path opacity="0.4" d="M128.478 10.8667C131.274 11.5665 133.132 12.344 134.462 13.6739M128.478 10.8667C128.477 10.8666 128.477 10.8665 128.477 10.8665L128.424 11.0768M128.478 10.8667C128.478 10.8668 128.478 10.8669 128.479 10.8669L128.424 11.0768M128.478 10.8667C128.403 10.8471 128.337 10.8034 128.29 10.7426C128.243 10.6816 128.217 10.6067 128.217 10.5296C128.217 10.4526 128.243 10.3777 128.29 10.3166C128.337 10.2558 128.403 10.2121 128.478 10.1925C128.478 10.1925 128.478 10.1924 128.479 10.1923L134.462 13.6739M134.462 13.6739C135.793 15.0038 136.57 16.8597 137.271 19.6493M134.462 13.6739L137.061 19.7032M128.424 11.0768C134 12.472 135.663 14.1407 137.061 19.7032M128.424 11.0768L137.061 19.7032M137.061 19.7032L137.271 19.6485C137.271 19.6488 137.271 19.649 137.271 19.6493M137.061 19.7032C137.093 19.8243 137.164 19.9316 137.263 20.0081M137.061 19.7032L137.271 19.6493M137.271 19.6493C137.291 19.7235 137.335 19.7894 137.396 19.8364L137.263 20.0081M137.263 20.0081L137.396 19.8364C137.457 19.8837 137.532 19.9094 137.61 19.9094C137.687 19.9094 137.763 19.8837 137.824 19.8364C137.885 19.7894 137.929 19.7235 137.948 19.6493M137.263 20.0081L137.948 19.6493M137.948 19.6493C138.65 16.8595 139.429 15.0037 140.762 13.6738C142.095 12.3439 143.955 11.5665 146.751 10.8667C146.826 10.8471 146.892 10.8035 146.939 10.7426C146.986 10.6816 147.012 10.6067 147.012 10.5296C147.012 10.4526 146.986 10.3777 146.939 10.3166C146.892 10.2558 146.826 10.2121 146.751 10.1925C143.955 9.49277 142.095 8.71532 140.762 7.38549C139.429 6.05559 138.65 4.19972 137.948 1.40995C137.929 1.33572 137.885 1.26992 137.824 1.22284C137.763 1.17559 137.687 1.14991 137.61 1.14991C137.532 1.14991 137.457 1.17559 137.396 1.22284C137.335 1.26992 137.291 1.33572 137.271 1.40995L137.948 19.6493Z" fill="#E9E9E9" stroke="#26103D" stroke-width="0.4336"/>
<path opacity="0.4" d="M8.07751 115.709C6.4142 114.046 4.09196 113.074 0.596819 112.2C0.503414 112.175 0.420843 112.121 0.361931 112.045C0.302816 111.968 0.270803 111.875 0.270803 111.778C0.270803 111.682 0.302816 111.588 0.361931 111.512C0.420835 111.436 0.503391 111.382 0.596783 111.357C0.597132 111.357 0.597481 111.357 0.59783 111.357L8.07751 115.709ZM8.07751 115.709C9.74081 117.371 10.712 119.691 11.5888 123.178M8.07751 115.709L11.5888 123.178M11.5888 123.178C11.6132 123.271 11.6678 123.353 11.7441 123.412C11.8206 123.471 11.9148 123.503 12.0118 123.503C12.1088 123.503 12.2029 123.471 12.2795 123.412C12.3558 123.353 12.4103 123.271 12.4348 123.178C13.3116 119.691 14.2857 117.371 15.9519 115.709C17.6181 114.046 19.9431 113.074 23.4382 112.2M11.5888 123.178L11.5888 100.379C11.6132 100.286 11.6678 100.204 11.7441 100.145C11.8206 100.086 11.9148 100.054 12.0118 100.054C12.1087 100.054 12.2029 100.086 12.2795 100.145C12.3558 100.204 12.4103 100.286 12.4348 100.379C13.3116 103.866 14.2857 106.186 15.9519 107.848C17.618 109.51 19.943 110.482 23.4381 111.357M23.4382 112.2C23.4378 112.2 23.4375 112.2 23.4371 112.2L23.5053 112.462L23.4395 112.199C23.4391 112.2 23.4386 112.2 23.4382 112.2ZM23.4382 112.2C23.5316 112.175 23.6141 112.121 23.673 112.045C23.7321 111.968 23.7642 111.875 23.7642 111.778C23.7642 111.682 23.7321 111.588 23.673 111.512C23.6141 111.436 23.5315 111.382 23.4381 111.357M23.4381 111.357C23.4378 111.357 23.4375 111.357 23.4371 111.357L23.5053 111.094L23.4395 111.357C23.439 111.357 23.4386 111.357 23.4381 111.357Z" fill="#E9E9E9" stroke="#26103D" stroke-width="0.542"/>
</svg>
