<svg width="47" height="47" viewBox="0 0 47 47" fill="none" xmlns="http://www.w3.org/2000/svg">
<path d="M16.389 39.4091C7.35108 35.492 3.13907 25.0591 6.99942 16.1522C10.8595 7.24601 21.3526 3.18672 30.3905 7.10385L30.8227 7.29833C30.9535 7.3583 31.0838 7.42092 31.2133 7.48424L31.2581 7.50689C35.9634 9.83026 39.4052 14.0671 40.6976 19.128L40.7079 19.1744L41.0623 21.1352C41.4838 24.2621 41.0406 27.4519 39.7803 30.3598C39.7685 30.387 39.7561 30.4146 39.7434 30.4412C37.864 34.7265 34.3946 38.0261 29.9803 39.7186C25.5759 41.4088 20.7489 41.2988 16.389 39.4091ZM29.8486 8.33001C21.4978 4.71063 11.7957 8.45695 8.22939 16.6853C4.66303 24.9139 8.56231 34.5562 16.922 38.1794C20.9582 39.9287 25.4254 40.0308 29.5001 38.4675C33.5775 36.9035 36.7816 33.8575 38.5225 29.8889L38.5503 29.8269C39.7115 27.1478 40.1213 24.2097 39.7362 21.3296L39.3929 19.4374C38.1931 14.7656 35.0114 10.8555 30.6614 8.70714L30.6192 8.68605C30.5045 8.63017 30.3834 8.572 30.267 8.51815L29.8486 8.33001ZM17.0107 37.9746C8.76427 34.4005 4.91685 24.8897 8.43427 16.7741C11.9514 8.65904 21.5221 4.96467 29.7686 8.53879L30.1632 8.71612C30.2882 8.77351 30.4082 8.83127 30.5177 8.88486L30.5614 8.9072C34.8589 11.0289 38.0032 14.8966 39.1822 19.5147L39.423 20.46L39.3698 20.4679L39.3913 20.5842C39.9613 23.6776 39.6001 26.843 38.3453 29.7381L38.3185 29.7978C36.6062 33.7079 33.4445 36.7153 29.4204 38.2587C25.4004 39.8014 20.9929 39.7005 17.0107 37.9746ZM29.2312 9.76688C21.6638 6.48956 12.8869 9.87157 9.66423 17.3072C6.44076 24.7446 9.97555 33.4642 17.5438 36.7444C21.2024 38.3301 25.2495 38.4232 28.9401 37.0073C32.6274 35.5929 35.523 32.8395 37.0936 29.2526L37.1196 29.1949C38.2637 26.5553 38.5948 23.6579 38.0728 20.8269L37.8831 19.8464C36.8012 15.608 33.9139 12.0576 29.9621 10.1061L29.9201 10.085C29.8273 10.0396 29.7176 9.98664 29.6077 9.93625L29.2312 9.76688Z" fill="#D7FF82"/>
<path d="M16.9301 38.0651C8.62687 34.4664 4.75391 24.89 8.29569 16.7182C11.8375 8.54621 21.4735 4.82603 29.7767 8.42473L29.8068 8.43781C29.8478 8.45555 29.8883 8.47456 29.929 8.49264L30.0378 8.54125C30.085 8.56261 30.1325 8.58367 30.1793 8.60584C30.2992 8.66116 30.4196 8.71909 30.5394 8.7776L30.5692 8.7924C34.9019 10.9324 38.0668 14.8242 39.254 19.4758L39.5266 20.5432L39.4648 20.5521C40.0401 23.674 39.6819 26.8392 38.4113 29.7707C38.4036 29.7885 38.396 29.8059 38.3875 29.8236C36.6594 33.7701 33.477 36.7971 29.4242 38.3514C25.3762 39.9049 20.9389 39.8025 16.9301 38.0651ZM28.9862 10.2385C21.688 7.07538 13.2191 10.3345 10.1112 17.505C7.00315 24.6763 10.4151 33.0844 17.7173 36.2492C24.9913 39.4019 33.4506 36.1642 36.5738 29.0327L36.5929 28.9901C37.8362 26.1222 38.0841 23.0035 37.3121 19.9673L37.1111 19.1753C35.9232 15.4265 33.2465 12.3127 29.6677 10.5543L29.6323 10.537C29.5378 10.4908 29.4427 10.4452 29.3474 10.4007C29.308 10.3821 29.2698 10.3656 29.2319 10.3487L29.1061 10.2918C29.0776 10.2789 29.0493 10.2658 29.0201 10.2531L28.9998 10.2452L28.9862 10.2385Z" fill="#A3D53B"/>
<path d="M37.5048 29.3769C34.1746 37.0604 25.1393 40.5438 17.3248 37.1569C9.5099 33.7698 5.87456 24.7948 9.2047 17.1113C12.5346 9.42827 21.5695 5.94496 29.3844 9.33204C37.199 12.719 40.8347 21.6939 37.5048 29.3769Z" fill="url(#paint0_linear_1812_128518)"/>
<path opacity="0.3" d="M29.3844 9.33204C21.5695 5.94496 12.5346 9.42827 9.2047 17.1113C9.13156 17.2801 9.06572 17.4511 8.99951 17.6204C11.2261 22.3618 15.3368 26.4773 20.8153 28.8518C26.3898 31.2678 32.3113 31.417 37.3509 29.7077C37.4022 29.5973 37.4562 29.489 37.5048 29.3769C40.8347 21.6939 37.199 12.719 29.3844 9.33204Z" fill="white"/>
<path opacity="0.4" d="M38.2993 19.7198C37.1613 15.2626 34.0132 11.3372 29.4174 9.34533C24.7867 7.33831 19.7275 7.74467 15.6801 10.0063C18.0374 13.335 21.4111 16.1479 25.5779 17.9539C29.797 19.7825 34.2151 20.3119 38.2993 19.7198Z" fill="white"/>
<path opacity="0.69" d="M29.0469 10.1292C36.7252 13.4571 40.364 22.1794 37.3289 29.771C37.3905 29.6399 37.4546 29.5104 37.5125 29.3769C40.8424 21.6938 37.2067 12.7189 29.3924 9.33209C21.5772 5.94488 12.5424 9.42827 9.21251 17.1113C9.15466 17.2448 9.10387 17.3801 9.04984 17.5145C12.5149 10.1091 21.3676 6.80089 29.0469 10.1292Z" fill="white"/>
<path opacity="0.53" d="M17.5836 36.5676C9.86929 33.2241 6.23241 24.4362 9.3433 16.8196C9.29898 16.9169 9.25123 17.0119 9.20859 17.1102C5.87845 24.7938 9.51379 33.7687 17.3287 37.1558C25.1431 40.5427 34.1785 37.0594 37.5086 29.3758C37.5513 29.2775 37.5878 29.1778 37.6282 29.0786C34.1972 36.5565 25.298 39.9111 17.5836 36.5676Z" fill="#A3D53B"/>
<path d="M18.4403 34.5955C24.8164 37.3589 32.1877 34.5173 34.9047 28.2486C37.6216 21.9799 34.6553 14.6578 28.2793 11.8943C21.9032 9.13086 14.5318 11.9724 11.8149 18.2412C9.09794 24.5099 12.0642 31.832 18.4403 34.5955Z" fill="url(#paint1_linear_1812_128518)"/>
<path d="M28.2775 11.8941C24.8916 10.4266 21.225 10.5401 18.1237 11.9077C21.0001 10.9178 24.2598 10.9633 27.294 12.2783C33.6699 15.0417 36.6362 22.3634 33.9192 28.6324C32.6448 31.5727 30.3473 33.7587 27.6084 34.9662C30.7764 33.8771 33.4789 31.5338 34.9028 28.2483C37.6198 21.9798 34.6533 14.6575 28.2775 11.8941Z" fill="#A3D53B"/>
<path opacity="0.69" d="M18.7042 33.9755C12.4397 31.2604 9.47102 24.1451 11.9466 17.9512C11.8962 18.0578 11.8438 18.1636 11.7961 18.2735C9.079 24.5426 12.0455 31.8647 18.4214 34.6281C24.7972 37.3915 32.1687 34.55 34.8858 28.2809C34.9334 28.171 34.975 28.0604 35.0186 27.9509C32.1908 33.9921 24.9688 36.6907 18.7042 33.9755Z" fill="white"/>
<path d="M28.2947 30.7707C28.5143 30.2949 28.5747 29.7564 28.4618 29.2446L28.3782 28.8654L28.7581 28.9463C29.5371 29.1123 30.3731 28.8808 30.9505 28.3006C31.8466 27.3996 31.8707 25.9545 31.0254 25.0243C31.0237 25.0226 31.0225 25.0212 31.0218 25.0206C31.0218 25.0205 31.0218 25.0205 31.0217 25.0205L31.0215 25.0203L31.0184 25.0172L31.0134 25.0118C30.9908 24.9868 30.9681 24.9629 30.9448 24.9395C30.9433 24.9382 30.9418 24.9367 30.9403 24.9352C30.9391 24.934 30.9377 24.9326 30.9362 24.9311C30.933 24.9282 30.9284 24.9239 30.9234 24.9188C30.014 24.0289 28.6585 23.7785 27.2805 23.7439L27.2533 23.2462C28.6416 23.059 30.0052 22.6686 30.8399 21.6844L30.8486 21.674L30.8489 21.6743L28.2947 30.7707ZM28.2947 30.7707C28.2939 30.7724 28.2931 30.7742 28.2924 30.776L28.2932 30.7764M28.2947 30.7707L28.2932 30.7764M28.2932 30.7764C28.2917 30.7795 28.2903 30.7824 28.2879 30.7873C28.2856 30.7918 28.2824 30.7982 28.2774 30.8082L28.2764 30.8103C28.2723 30.819 28.2697 30.8246 28.2674 30.8295L28.2932 30.7764ZM28.1116 31.5062C28.1139 31.5035 28.1162 31.5009 28.1186 31.4982C28.1245 31.4915 28.1306 31.4847 28.1365 31.4773L28.1116 31.5062ZM28.1116 31.5062L27.9232 31.3418M28.1116 31.5062L27.9232 31.3418M14.5493 23.1994C14.5322 23.1481 14.5166 23.0971 14.5024 23.0453C14.5022 23.0446 14.502 23.0438 14.5018 23.043L14.5493 23.1994ZM14.5493 23.1994L14.5508 23.2036C14.5687 23.2542 14.5884 23.3049 14.6097 23.3562L14.6113 23.3602L14.6113 23.3602L14.6149 23.3689C14.6163 23.3721 14.6183 23.377 14.6205 23.3826C14.6414 23.4296 14.6641 23.4769 14.6875 23.5215L14.6891 23.5247L14.6891 23.5247C14.6914 23.5292 14.693 23.5325 14.6943 23.535C14.6968 23.5399 14.6978 23.5419 14.6993 23.5447L14.6994 23.5449C14.7265 23.5943 14.7512 23.6383 14.7774 23.6802L14.792 23.7035L14.7927 23.7056C14.8179 23.7447 14.8446 23.7837 14.8725 23.8226C14.8824 23.8355 14.8835 23.8373 14.8842 23.8384C14.8848 23.8393 14.8851 23.8398 14.8894 23.8452L14.8956 23.853L14.8955 23.8531C14.9268 23.8956 14.9594 23.9361 14.9941 23.9763L14.9989 23.9819L14.9988 23.982C15.0006 23.9842 15.0024 23.9862 15.0048 23.9889L15.0086 23.993L15.0086 23.9931C15.0407 24.0295 15.0749 24.0657 15.1112 24.1025C15.1185 24.1097 15.1271 24.1184 15.1361 24.1282C15.1734 24.164 15.211 24.1984 15.2492 24.231C15.2502 24.2318 15.2514 24.2327 15.2526 24.2338C15.2596 24.2395 15.2704 24.2483 15.28 24.2566C15.3236 24.2927 15.366 24.3259 15.4098 24.3572L15.4123 24.3587L15.4215 24.3653C15.4445 24.3819 15.4681 24.3983 15.4933 24.4156L15.5028 24.4197L15.5186 24.4312L15.5267 24.4361C16.483 25.0435 17.6809 25.0821 18.8933 24.9028C19.4961 24.8136 20.0921 24.6722 20.6507 24.5278C20.817 24.4848 20.9811 24.4413 21.1413 24.3987C21.5134 24.2999 21.8646 24.2067 22.1739 24.1392C22.3344 24.104 22.6843 24.0668 22.9885 24.0377L23.2329 24.0144L23.2607 24.2583C23.2884 24.5018 23.3132 24.7497 23.3138 24.8823L23.3138 24.8831C23.3143 25.1998 23.2987 25.5624 23.2822 25.9467C23.2754 26.1046 23.2684 26.2661 23.2623 26.4295C23.2413 26.9968 23.2303 27.5995 23.2692 28.1991C23.3467 29.3945 23.6203 30.537 24.3644 31.3477L24.3665 31.3489L24.3923 31.3773C24.4032 31.3893 24.4156 31.4018 24.4323 31.4183L24.4407 31.4267L24.4405 31.4268C24.4471 31.434 24.4525 31.4397 24.4572 31.4447C24.4616 31.4487 24.4665 31.4536 24.4718 31.4593C24.4944 31.4812 24.5166 31.5021 24.5393 31.5228C24.5419 31.525 24.5442 31.5271 24.5463 31.529C24.5514 31.5336 24.5556 31.5377 24.5586 31.5409L14.5493 23.1994ZM24.392 31.3775L24.3915 31.377C24.3917 31.3772 24.3918 31.3774 24.392 31.3775ZM24.392 31.3775L24.3942 31.38L24.3944 31.3803L24.392 31.3775ZM23.7627 15.8304C23.7663 15.8262 23.7691 15.8227 23.7709 15.8204M23.7627 15.8304L23.7709 15.8204M23.7627 15.8304C23.7599 15.8338 23.757 15.8371 23.7543 15.8404C23.7344 15.8639 23.7174 15.884 23.7009 15.9047M23.7627 15.8304L23.7009 15.9047M23.7709 15.8204C24.5974 14.8727 26.0367 14.7292 27.0354 15.5157L23.7709 15.8204ZM23.7009 15.9047C23.6972 15.9099 23.6931 15.9152 23.6887 15.9205L23.6879 15.9216L23.6871 15.9226L23.6811 15.9313L23.6808 15.9311C22.7985 17.0676 22.7968 18.674 22.9894 20.2051L22.4975 20.2912C22.1825 18.8942 21.6671 17.5262 20.5838 16.7687L20.5768 16.764L20.5687 16.7585L20.5689 16.7584C20.5588 16.7509 20.5455 16.7422 20.5266 16.7304L20.5163 16.724L20.5164 16.7238C20.5074 16.7175 20.4984 16.7114 20.4896 16.7055C20.489 16.7051 20.4883 16.7047 20.4877 16.7043C20.4836 16.7017 20.48 16.6994 20.4772 16.6974L20.4765 16.6969C20.4494 16.6794 20.4223 16.6631 20.3955 16.648L20.3927 16.6464L20.3927 16.6464C20.3853 16.6421 20.3785 16.6378 20.3726 16.6337C19.2822 16.0133 17.8807 16.3483 17.1944 17.415C16.7526 18.1026 16.706 18.9697 17.0356 19.6945L17.1965 20.0483L16.8079 20.048C16.0117 20.0474 15.2416 20.4481 14.7983 21.1351C14.6335 21.3916 14.5241 21.6673 14.4671 21.9485C14.4655 21.9579 14.4636 21.9664 14.4617 21.9737C14.4518 22.0267 14.4435 22.0797 14.4373 22.1314L14.4368 22.1353C14.4368 22.1357 14.4368 22.1362 14.4367 22.1367L14.4359 22.1494L14.4356 22.1493C14.4225 22.2613 14.4177 22.3748 14.421 22.4873L14.421 22.4884L14.4212 22.5038L14.4213 22.5099C14.4233 22.5649 14.4269 22.6179 14.4326 22.6709C14.4327 22.6714 14.4328 22.6718 14.4328 22.6722L14.4332 22.6738L14.4347 22.6879C14.4403 22.7396 14.4481 22.7914 14.4576 22.8456C14.4578 22.847 14.4581 22.8483 14.4583 22.8494L14.4584 22.8499L14.4601 22.8593C14.4696 22.9107 14.4812 22.9628 14.4944 23.0149L23.7009 15.9047ZM27.9475 31.3133L27.9477 31.3135C27.9751 31.2819 27.9991 31.2529 28.0207 31.2239L28.0272 31.2151L28.0274 31.2152C28.0307 31.2111 28.0337 31.2077 28.0359 31.2051C28.0601 31.1723 28.084 31.1386 28.1081 31.1038C28.1165 31.0904 28.118 31.0884 28.119 31.0871C28.1199 31.0859 28.1205 31.0851 28.1251 31.0775L28.1283 31.0723L28.1284 31.0723L27.9475 31.3133ZM27.9475 31.3133L27.9416 31.3208M27.9475 31.3133L27.9416 31.3208M27.9416 31.3208C27.9394 31.3235 27.9384 31.3246 27.9356 31.3277M27.9416 31.3208L27.9356 31.3277M27.9356 31.3277C27.9333 31.3303 27.9298 31.3343 27.9232 31.3418M27.9356 31.3277L27.9232 31.3418M30.8842 21.6312C30.8718 21.6465 30.8603 21.6606 30.8489 21.6742L27.0356 15.5158C27.6777 16.0222 28.0045 16.8267 27.9286 17.6191L27.8915 18.0065L28.2592 17.8791C29.0116 17.6187 29.8702 17.747 30.5143 18.2519C31.5152 19.0387 31.7144 20.4727 30.9854 21.4991L30.9848 21.4997L30.982 21.5035L30.9819 21.5035L30.978 21.5089C30.9623 21.5312 30.9451 21.5537 30.9253 21.579L30.9018 21.6001L30.893 21.6202C30.8907 21.6232 30.8883 21.6262 30.8858 21.6293L30.8842 21.6312ZM30.8805 21.6491L30.8799 21.6505C30.8795 21.6516 30.8797 21.6509 30.8805 21.6491ZM14.4598 22.8584C14.4598 22.8586 14.4599 22.8586 14.4598 22.8585L14.4598 22.8584ZM23.6758 15.9347C23.6756 15.935 23.6762 15.9343 23.6771 15.9334L23.6765 15.934L23.676 15.9345L23.6758 15.9347Z" fill="url(#paint2_linear_1812_128518)" stroke="black" stroke-width="0.5"/>
<path d="M18.3393 20.7535C18.3393 20.7535 20.1066 21.9602 21.5311 22.5559C22.9568 23.1511 23.2156 22.7095 23.2156 22.7095C23.2156 22.7095 22.7451 20.9718 22.693 20.0395C22.6411 19.1072 22.6459 18.3003 22.6459 18.3003C22.6459 18.3003 23.1816 21.7047 23.6435 22.4838C24.0742 23.2096 24.4751 22.3881 25.6684 20.7936C26.8613 19.1981 27.304 18.503 27.304 18.503C27.304 18.503 25.906 21.1353 25.2973 21.9192C24.8445 22.5034 23.8864 23.1373 25.1351 23.2414C26.4133 23.3488 29.212 23.0476 29.212 23.0476C29.212 23.0476 27.5273 23.6396 26.3649 23.5942C25.2019 23.5486 24.6152 23.6626 24.6152 23.6626C24.6152 23.6626 24.2153 24.3067 25.5139 25.7252C26.8125 27.1441 27.482 27.9321 27.482 27.9321C27.482 27.9321 25.1275 25.9724 24.5048 25.1591C23.8823 24.3454 23.3067 24.9859 23.292 25.4348C23.2774 25.8844 22.9956 26.8983 22.9956 26.8983L22.7031 24.6074L20.0597 25.1278C20.0597 25.1278 22.7105 23.6383 22.6375 23.4872C22.5643 23.3362 20.7861 22.9802 18.3393 20.7535Z" fill="#A3D53B"/>
<path d="M23.3964 24.2898C23.7414 23.7319 23.4646 23.2456 23.1187 23.6852C23.1187 23.6852 21.4797 25.9634 19.7391 26.487C17.9983 27.0099 16.3853 26.8015 16.0606 26.9492C15.7361 27.0956 16.2975 27.2374 16.1776 27.8823C15.9159 29.2908 15.6105 29.8874 17.908 29.0604C20.206 28.2337 21.5117 27.34 23.3964 24.2898Z" fill="url(#paint3_linear_1812_128518)"/>
<path d="M16.0575 29.7329C15.4924 29.4879 15.6163 28.8618 15.759 28.1371C15.7794 28.0358 15.8002 27.9281 15.8216 27.8158C15.8588 27.6159 15.7956 27.5171 15.722 27.402C15.6546 27.2964 15.5524 27.1361 15.6137 26.9298C15.6543 26.7929 15.7551 26.6874 15.9132 26.6158C16.0933 26.5342 16.367 26.5262 16.8205 26.5133C17.5102 26.493 18.5537 26.4625 19.637 26.1373C21.2362 25.6557 22.8094 23.4937 22.8254 23.4719C23.1556 23.0505 23.4858 23.151 23.5791 23.1915C23.7244 23.2545 23.8341 23.3822 23.8871 23.5513C23.9712 23.8189 23.9057 24.1671 23.7105 24.4824C21.7525 27.6512 20.3767 28.562 18.0349 29.4051C16.9468 29.7971 16.4103 29.8858 16.0575 29.7329ZM16.4738 27.2572C16.5448 27.4247 16.5951 27.652 16.5398 27.9497C16.5188 28.0649 16.4969 28.1745 16.4763 28.2786C16.4182 28.575 16.3463 28.9397 16.3717 29.0685C16.4623 29.0873 16.7728 29.0822 17.7871 28.7172C19.783 27.9985 20.9764 27.2648 22.5454 24.941C21.8758 25.652 20.8897 26.524 19.847 26.8378C18.6706 27.191 17.5702 27.2228 16.8416 27.244C16.7182 27.2475 16.5869 27.2513 16.4738 27.2572Z" fill="#A3D53B"/>
<path opacity="0.15" d="M13.2525 26.8432C15.9694 20.5746 23.3411 17.733 29.7165 20.4962C32.3213 21.6251 34.3564 23.5145 35.6675 25.7827C36.7907 20.167 33.8245 14.3011 28.2712 11.8942C21.8952 9.13076 14.524 11.9726 11.8071 18.2412C10.1998 21.9496 10.5812 26.0267 12.4803 29.3099C12.6468 28.4785 12.9021 27.6517 13.2525 26.8432Z" fill="#A3D53B"/>
<path opacity="0.7" d="M12.3 13.8614C14.1293 13.0138 19.5891 10.3419 19.5891 10.3419C19.5891 10.3419 25.0721 5.97834 25.2153 5.85014C25.2554 5.81327 19.037 9.51089 19.037 9.51089L12.3 13.8614Z" fill="white"/>
<path d="M20.3709 9.47265C19.632 8.11615 20.8989 5.75041 21.1886 5.05321C21.1024 5.25215 21.0051 5.47676 20.9005 5.71814C20.9471 5.61051 20.9897 5.49384 21.0001 5.46988C21.0642 5.32207 21.1252 5.18114 21.1819 5.05031C21.0933 5.24818 20.9425 5.55707 20.7398 5.90163C20.7398 5.90163 19.3459 8.22086 18.535 8.47489C16.7021 9.06241 13.4519 7.39043 14.7224 7.97521C19.014 9.94563 17.1817 14.1732 16.6195 15.5773C16.6996 15.3924 16.8025 15.155 16.9221 14.8792C16.9022 14.9305 16.8887 14.9746 16.8778 14.9997C16.7801 15.2252 16.6938 15.4242 16.6262 15.5802C18.1413 12.3381 19.0299 10.256 22.9308 11.617C24.2228 12.0629 21.2349 11.0537 20.3709 9.47265Z" fill="white"/>
<defs>
<linearGradient id="paint0_linear_1812_128518" x1="9.20456" y1="17.1116" x2="37.5046" y2="29.3772" gradientUnits="userSpaceOnUse">
<stop stop-color="#D7FF82"/>
<stop offset="1" stop-color="#A3D53B"/>
</linearGradient>
<linearGradient id="paint1_linear_1812_128518" x1="18.4403" y1="34.5955" x2="28.2793" y2="11.8944" gradientUnits="userSpaceOnUse">
<stop stop-color="#D7FF82"/>
<stop offset="1" stop-color="#97BA4A"/>
</linearGradient>
<linearGradient id="paint2_linear_1812_128518" x1="25.9503" y1="18.3719" x2="19.5126" y2="31.9375" gradientUnits="userSpaceOnUse">
<stop stop-color="#D7FF82"/>
<stop offset="1" stop-color="#A3D53B"/>
</linearGradient>
<linearGradient id="paint3_linear_1812_128518" x1="23.6573" y1="17.2864" x2="17.2196" y2="30.8521" gradientUnits="userSpaceOnUse">
<stop stop-color="#D7FF82"/>
<stop offset="1" stop-color="#A3D53B"/>
</linearGradient>
</defs>
</svg>
