<svg width="46" height="46" viewBox="0 0 46 46" fill="none" xmlns="http://www.w3.org/2000/svg">
<path d="M11.5453 20.1813C9.24704 24.3128 10.6919 29.5134 14.7657 31.8747L14.765 31.8759L29.8939 40.2919L38.3099 25.163L38.3059 25.1608C38.3319 25.1159 38.3576 25.0708 38.3829 25.0253C40.7064 20.8483 39.204 15.5786 35.027 13.255C30.85 10.9314 25.5803 12.4339 23.2567 16.6108C23.2314 16.6563 23.2066 16.7019 23.1822 16.7477L23.181 16.747L23.1788 16.7509C19.0242 14.5349 13.8436 16.0499 11.5453 20.1813Z" fill="#67A3F0"/>
<path d="M27.642 40.4941L29.4386 39.8542L22.7053 16.2379L20.875 16.7598L27.642 40.4941Z" fill="#6D7900"/>
<mask id="path-3-outside-1_1812_128292" maskUnits="userSpaceOnUse" x="3.70248" y="3.75292" width="38.0805" height="38.0805" fill="black">
<rect fill="white" x="3.70248" y="3.75292" width="38.0805" height="38.0805"/>
<path fill-rule="evenodd" clip-rule="evenodd" d="M12.6256 32.0412C12.6789 32.0709 12.7324 32.0999 12.786 32.1283L27.6211 40.3808L36.0371 25.2519L36.0302 25.2481C36.0561 25.2034 36.0816 25.1584 36.1068 25.1131C38.4304 20.9361 36.9279 15.6664 32.751 13.3428C28.574 11.0192 23.3042 12.5217 20.9807 16.6986C20.9544 16.7458 20.9287 16.7932 20.9034 16.8406C16.7488 14.6245 11.568 16.1394 9.26972 20.2709C6.94614 24.4479 8.4486 29.7176 12.6256 32.0412Z"/>
</mask>
<path fill-rule="evenodd" clip-rule="evenodd" d="M12.6256 32.0412C12.6789 32.0709 12.7324 32.0999 12.786 32.1283L27.6211 40.3808L36.0371 25.2519L36.0302 25.2481C36.0561 25.2034 36.0816 25.1584 36.1068 25.1131C38.4304 20.9361 36.9279 15.6664 32.751 13.3428C28.574 11.0192 23.3042 12.5217 20.9807 16.6986C20.9544 16.7458 20.9287 16.7932 20.9034 16.8406C16.7488 14.6245 11.568 16.1394 9.26972 20.2709C6.94614 24.4479 8.4486 29.7176 12.6256 32.0412Z" fill="#BFDBFF"/>
<path d="M12.786 32.1283L12.9486 31.8361L12.9425 31.8328L12.786 32.1283ZM27.6211 40.3808L27.4586 40.673L27.7507 40.8355L27.9133 40.5433L27.6211 40.3808ZM36.0371 25.2519L36.3292 25.4144L36.4918 25.1223L36.1996 24.9597L36.0371 25.2519ZM36.0302 25.2481L35.7409 25.0804L35.5703 25.3748L35.8676 25.5402L36.0302 25.2481ZM20.9034 16.8406L20.746 17.1356L21.0412 17.2931L21.1985 16.9978L20.9034 16.8406ZM12.9425 31.8328C12.8908 31.8055 12.8394 31.7776 12.7881 31.749L12.463 32.3334C12.5184 32.3641 12.5739 32.3943 12.6296 32.4238L12.9425 31.8328ZM27.7836 40.0886L12.9485 31.8361L12.6235 32.4205L27.4586 40.673L27.7836 40.0886ZM35.7449 25.0894L27.3289 40.2183L27.9133 40.5433L36.3292 25.4144L35.7449 25.0894ZM35.8676 25.5402L35.8745 25.5441L36.1996 24.9597L36.1927 24.9559L35.8676 25.5402ZM35.8146 24.9506C35.7904 24.9942 35.7658 25.0374 35.7409 25.0804L36.3194 25.4157C36.3463 25.3693 36.3728 25.3226 36.399 25.2756L35.8146 24.9506ZM32.5884 13.635C36.604 15.8688 38.0485 20.9349 35.8146 24.9506L36.399 25.2756C38.8123 20.9373 37.2518 15.464 32.9135 13.0506L32.5884 13.635ZM21.2728 16.8612C23.5066 12.8456 28.5728 11.4011 32.5884 13.635L32.9135 13.0506C28.5752 10.6373 23.1018 12.1978 20.6885 16.5361L21.2728 16.8612ZM21.1985 16.9978C21.2228 16.9521 21.2476 16.9066 21.2728 16.8612L20.6885 16.5361C20.6612 16.5851 20.6345 16.6342 20.6083 16.6835L21.1985 16.9978ZM9.56189 20.4334C11.7714 16.4615 16.752 15.0051 20.746 17.1356L21.0607 16.5456C16.7455 14.2438 11.3647 15.8172 8.97755 20.1084L9.56189 20.4334ZM12.7881 31.749C8.77249 29.5152 7.32807 24.449 9.56189 20.4334L8.97755 20.1084C6.56421 24.4467 8.12472 29.92 12.463 32.3334L12.7881 31.749Z" fill="#141414" mask="url(#path-3-outside-1_1812_128292)"/>
</svg>
