<svg width="186" height="186" viewBox="0 0 186 186" fill="none" xmlns="http://www.w3.org/2000/svg">
<rect x="4.64844" y="4.03027" width="177" height="177" rx="88.5" fill="#2F2F32"/>
<rect x="4.64844" y="4.03027" width="177" height="177" rx="88.5" stroke="#212121" stroke-width="8"/>
<path d="M90.5703 155.66L98.3993 155.155V54.1382H90.5703V155.66Z" fill="#986F50"/>
<path d="M48.5678 54.9296C34.8163 68.6811 34.6666 90.8835 48.1185 104.819L48.1144 104.823L90.6743 155.649L98.4703 155.179L148.826 104.823L148.813 104.81C148.966 104.662 149.119 104.512 149.27 104.361C163.173 90.4579 163.173 67.9169 149.27 54.0141C135.367 40.1112 112.826 40.1112 98.9235 54.0141C98.7721 54.1654 98.6224 54.3178 98.4743 54.4713L98.4703 54.4673L98.4572 54.4803C84.5217 41.0284 62.3192 41.1782 48.5678 54.9296Z" fill="#FEE425"/>
<path d="M48.5678 54.9296C34.8163 68.6811 34.6666 90.8835 48.1185 104.819L48.1144 104.823L90.6743 155.649L98.4703 155.179L148.826 104.823L148.813 104.81C148.966 104.662 149.119 104.512 149.27 104.361C153.529 100.102 156.483 95.0327 158.133 89.6494L150.03 90.8241H98.4743V54.4713L98.4703 54.4673L98.4572 54.4803C84.5217 41.0284 62.3192 41.1782 48.5678 54.9296Z" fill="#544A00"/>
<mask id="path-5-outside-1_3114_53472" maskUnits="userSpaceOnUse" x="14.1092" y="2.32128" width="154.856" height="154.856" fill="black">
<rect fill="white" x="14.1092" y="2.32128" width="154.856" height="154.856"/>
<path fill-rule="evenodd" clip-rule="evenodd" d="M40.6968 54.9297C26.9443 68.6822 26.7956 90.8869 40.2505 104.822L40.25 104.823L40.2811 104.854C40.4183 104.996 40.5568 105.136 40.6968 105.276C40.8367 105.416 40.9776 105.555 41.1193 105.692L90.6059 155.179L140.962 104.823L140.947 104.808C141.1 104.661 141.252 104.511 141.403 104.36C155.306 90.4575 155.306 67.9165 141.403 54.0137C127.5 40.1108 104.959 40.1108 91.0562 54.0137C90.9053 54.1646 90.756 54.3165 90.6084 54.4694L90.6059 54.4669L90.5893 54.4834C76.654 41.0284 54.4493 41.1772 40.6968 54.9297Z"/>
</mask>
<path fill-rule="evenodd" clip-rule="evenodd" d="M40.6968 54.9297C26.9443 68.6822 26.7956 90.8869 40.2505 104.822L40.25 104.823L40.2811 104.854C40.4183 104.996 40.5568 105.136 40.6968 105.276C40.8367 105.416 40.9776 105.555 41.1193 105.692L90.6059 155.179L140.962 104.823L140.947 104.808C141.1 104.661 141.252 104.511 141.403 104.36C155.306 90.4575 155.306 67.9165 141.403 54.0137C127.5 40.1108 104.959 40.1108 91.0562 54.0137C90.9053 54.1646 90.756 54.3165 90.6084 54.4694L90.6059 54.4669L90.5893 54.4834C76.654 41.0284 54.4493 41.1772 40.6968 54.9297Z" fill="#F9F9F9"/>
<path d="M40.2505 104.822L40.9576 105.529L41.6524 104.835L40.9699 104.128L40.2505 104.822ZM40.25 104.823L39.5429 104.116L38.8358 104.823L39.5429 105.53L40.25 104.823ZM40.2811 104.854L40.9997 104.158L40.994 104.153L40.9882 104.147L40.2811 104.854ZM41.1193 105.692L41.8264 104.985L41.8206 104.979L41.8148 104.973L41.1193 105.692ZM90.6059 155.179L89.8987 155.886L90.6059 156.593L91.313 155.886L90.6059 155.179ZM140.962 104.823L141.669 105.53L142.376 104.823L141.669 104.116L140.962 104.823ZM140.947 104.808L140.253 104.089L139.52 104.796L140.24 105.515L140.947 104.808ZM90.6084 54.4694L89.9013 55.1765L90.6209 55.8962L91.3278 55.164L90.6084 54.4694ZM90.6059 54.4669L91.313 53.7598L90.6059 53.0527L89.8987 53.7598L90.6059 54.4669ZM90.5893 54.4834L89.8947 55.2028L90.6016 55.8853L91.2964 55.1905L90.5893 54.4834ZM40.9699 104.128C27.8932 90.584 28.0378 69.0029 41.4039 55.6368L39.9897 54.2226C25.8508 68.3614 25.698 91.1898 39.5311 105.517L40.9699 104.128ZM40.9571 105.53L40.9576 105.529L39.5434 104.115L39.5429 104.116L40.9571 105.53ZM40.9882 104.147L40.9571 104.116L39.5429 105.53L39.574 105.561L40.9882 104.147ZM41.4039 104.569C41.2678 104.433 41.133 104.296 40.9997 104.158L39.5626 105.549C39.7035 105.695 39.8459 105.84 39.9897 105.983L41.4039 104.569ZM41.8148 104.973C41.677 104.84 41.54 104.705 41.4039 104.569L39.9897 105.983C40.1335 106.127 40.2782 106.27 40.4238 106.411L41.8148 104.973ZM91.313 154.471L41.8264 104.985L40.4122 106.399L89.8987 155.886L91.313 154.471ZM140.255 104.116L89.8987 154.471L91.313 155.886L141.669 105.53L140.255 104.116ZM140.24 105.515L140.255 105.53L141.669 104.116L141.654 104.101L140.24 105.515ZM140.696 103.653C140.549 103.8 140.401 103.945 140.253 104.089L141.642 105.528C141.799 105.376 141.955 105.223 142.11 105.067L140.696 103.653ZM140.696 54.7208C154.208 68.2331 154.208 90.1409 140.696 103.653L142.11 105.067C156.403 90.7741 156.403 67.5999 142.11 53.3066L140.696 54.7208ZM91.7633 54.7208C105.276 41.2084 127.183 41.2084 140.696 54.7208L142.11 53.3066C127.817 39.0132 104.642 39.0132 90.3491 53.3066L91.7633 54.7208ZM91.3278 55.164C91.4714 55.0153 91.6165 54.8675 91.7633 54.7208L90.3491 53.3066C90.194 53.4616 90.0406 53.6177 89.8889 53.7748L91.3278 55.164ZM89.8987 55.174L89.9013 55.1765L91.3155 53.7623L91.313 53.7598L89.8987 55.174ZM91.2964 55.1905L91.313 55.174L89.8987 53.7598L89.8822 53.7763L91.2964 55.1905ZM41.4039 55.6368C54.77 42.2707 76.3511 42.126 89.8947 55.2028L91.2839 53.764C76.9569 39.9309 54.1285 40.0837 39.9897 54.2226L41.4039 55.6368Z" fill="black" mask="url(#path-5-outside-1_3114_53472)"/>
<path fill-rule="evenodd" clip-rule="evenodd" d="M65.7485 68.2214C64.9662 68.0975 64.164 68.0332 63.3468 68.0332C54.9314 68.0332 48.1094 74.8552 48.1094 83.2706C48.1094 89.3128 51.6262 94.5336 56.7246 96.9977L56.9952 96.2951L65.7485 68.2214ZM61.0659 98.3385L70.2828 69.6997C70.7173 69.9222 71.1397 70.165 71.5487 70.4267L63.3464 96.7333L62.6686 98.4933C62.1266 98.4695 61.5919 98.4175 61.0659 98.3385ZM78.5843 83.2706C78.5843 90.1707 73.9979 95.9995 67.7074 97.875L75.4057 73.9548C77.3984 76.5305 78.5843 79.7621 78.5843 83.2706Z" fill="#191916"/>
<path fill-rule="evenodd" clip-rule="evenodd" d="M114.983 83.2706C114.983 88.6688 112.176 93.4113 107.942 96.1182L113.885 77.5807C114.593 79.3387 114.983 81.2592 114.983 83.2706ZM99.7453 98.5081C100.978 98.5081 102.177 98.3616 103.326 98.0851H102.711V97.5801L110.529 72.5055C109.936 71.9117 109.295 71.3665 108.611 70.8765L99.6185 98.5076C99.6607 98.5079 99.703 98.5081 99.7453 98.5081ZM95.0853 97.7823C88.9491 95.8135 84.5078 90.0607 84.5078 83.2706C84.5078 74.8552 91.3298 68.0332 99.7453 68.0332C101.324 68.0332 102.847 68.2733 104.279 68.719L95.0853 97.7823Z" fill="#191916"/>
<path d="M81.7623 75.6519C79.4518 75.6519 76.5877 77.4751 75.625 78.3868V84.5404C75.8657 83.1729 77.7546 80.619 81.7623 80.619C85.8122 80.619 87.4183 83.3604 87.8996 84.5404V78.3868C86.6962 77.4751 84.0728 75.6519 81.7623 75.6519Z" fill="#191916"/>
<ellipse cx="92.5219" cy="118.451" rx="4.39265" ry="5.74424" transform="rotate(8.6133 92.5219 118.451)" fill="#191916"/>
<path d="M90.4375 132.35C88.5328 132.57 84.3425 131.954 82.8188 127.733" stroke="#191916" stroke-linecap="round"/>
<path d="M83.7415 120.121C86.1666 130.494 93.8045 128.946 97.6965 126.68C97.7875 126.627 97.8872 126.728 97.827 126.814C96.5206 128.688 93.4011 131.051 88.4114 130.093C83.331 129.118 82.9072 123.508 83.549 120.113C83.5689 120.008 83.7172 120.017 83.7415 120.121Z" fill="#191916" stroke="#191916"/>
<path d="M94.746 109.935C97.4066 110.358 98.5429 112.266 98.8342 113.497C98.8607 113.609 99.0843 113.632 99.1144 113.521C99.4878 112.145 99.4963 110.657 98.1056 109.55C96.9285 108.614 90.7144 109.294 94.746 109.935Z" fill="#191916" stroke="#191916"/>
</svg>
