<svg width="89" height="89" viewBox="0 0 89 89" fill="none" xmlns="http://www.w3.org/2000/svg">
<circle cx="45.3584" cy="43.1084" r="43.1084" fill="#0F0F0E"/>
<circle cx="43.1084" cy="44.9834" r="43.1084" fill="#212121"/>
<circle cx="43.1069" cy="44.9819" r="29.1385" stroke="#2F2F32" stroke-width="1.87428"/>
<mask id="path-4-inside-1_1812_142099" fill="white">
<path d="M71.1921 12.2781C67.2809 8.91956 62.799 6.28985 57.9593 4.51385L54.112 14.998C57.6979 16.3139 61.0188 18.2623 63.9167 20.7508L71.1921 12.2781Z"/>
</mask>
<path d="M71.1921 12.2781C67.2809 8.91956 62.799 6.28985 57.9593 4.51385L54.112 14.998C57.6979 16.3139 61.0188 18.2623 63.9167 20.7508L71.1921 12.2781Z" fill="#2F2F32" stroke="#2F2F32" stroke-width="0.749712" mask="url(#path-4-inside-1_1812_142099)"/>
<mask id="path-5-inside-2_1812_142099" fill="white">
<path d="M85.2412 54.1028C86.3318 49.0642 86.5097 43.8708 85.7666 38.7693L74.7155 40.3792C75.2661 44.159 75.1343 48.007 74.3262 51.7403L85.2412 54.1028Z"/>
</mask>
<path d="M85.2412 54.1028C86.3318 49.0642 86.5097 43.8708 85.7666 38.7693L74.7155 40.3792C75.2661 44.159 75.1343 48.007 74.3262 51.7403L85.2412 54.1028Z" fill="#2F2F32" stroke="#2F2F32" stroke-width="0.749712" mask="url(#path-5-inside-2_1812_142099)"/>
<mask id="path-6-inside-3_1812_142099" fill="white">
<path d="M56.7876 85.8639C61.6765 84.2281 66.2322 81.7285 70.2385 78.4841L63.2102 69.8053C60.2417 72.2093 56.8662 74.0613 53.2439 75.2733L56.7876 85.8639Z"/>
</mask>
<path d="M56.7876 85.8639C61.6765 84.2281 66.2322 81.7285 70.2385 78.4841L63.2102 69.8053C60.2417 72.2093 56.8662 74.0613 53.2439 75.2733L56.7876 85.8639Z" fill="#2F2F32" stroke="#2F2F32" stroke-width="0.749712" mask="url(#path-6-inside-3_1812_142099)"/>
<mask id="path-7-inside-4_1812_142099" fill="white">
<path d="M15.0945 77.7486C19.0128 81.0987 23.5003 83.7189 28.3438 85.4846L32.1688 74.9923C28.58 73.684 25.2551 71.7426 22.3518 69.2604L15.0945 77.7486Z"/>
</mask>
<path d="M15.0945 77.7486C19.0128 81.0987 23.5003 83.7189 28.3438 85.4846L32.1688 74.9923C28.58 73.684 25.2551 71.7426 22.3518 69.2604L15.0945 77.7486Z" fill="#2F2F32" stroke="#2F2F32" stroke-width="0.749712" mask="url(#path-7-inside-4_1812_142099)"/>
<mask id="path-8-inside-5_1812_142099" fill="white">
<path d="M0.473127 38.6141C-0.288567 43.7128 -0.129522 48.9068 0.942708 53.9494L11.8662 51.6266C11.0718 47.8904 10.9539 44.042 11.5183 40.2642L0.473127 38.6141Z"/>
</mask>
<path d="M0.473127 38.6141C-0.288567 43.7128 -0.129522 48.9068 0.942708 53.9494L11.8662 51.6266C11.0718 47.8904 10.9539 44.042 11.5183 40.2642L0.473127 38.6141Z" fill="#2F2F32" stroke="#2F2F32" stroke-width="0.749712" mask="url(#path-8-inside-5_1812_142099)"/>
<mask id="path-9-inside-6_1812_142099" fill="white">
<path d="M27.9489 4.62843C23.1229 6.44133 18.6612 9.10519 14.7758 12.4935L22.1157 20.9104C24.9946 18.3999 28.3004 16.4261 31.8762 15.0829L27.9489 4.62843Z"/>
</mask>
<path d="M27.9489 4.62843C23.1229 6.44133 18.6612 9.10519 14.7758 12.4935L22.1157 20.9104C24.9946 18.3999 28.3004 16.4261 31.8762 15.0829L27.9489 4.62843Z" fill="#2F2F32" stroke="#2F2F32" stroke-width="0.749712" mask="url(#path-9-inside-6_1812_142099)"/>
</svg>
