<svg width="172" height="89" viewBox="0 0 172 89" fill="none" xmlns="http://www.w3.org/2000/svg">
<path d="M67.29 47.4861C68.5532 48.8336 70.1036 49.4978 71.9794 49.4978C72.7642 49.4978 73.6447 49.2891 74.6591 48.8905L74.8314 45.9299L66.1032 45.5883C66.3903 46.3095 66.7923 46.9168 67.29 47.4861ZM52.3602 45.1328L51.384 49.2131H55.9969L56.3798 47.1255H59.404L59.7485 49.2131H64.3614L63.5767 45.5504L52.3602 45.1328ZM56.9348 32.3416L53.9489 44.7343L65.1271 45.1328L62.4091 32.3416H56.9348ZM58.5427 43.1781L58.9829 40.5781L59.2891 38.5854C59.2891 38.5474 59.3274 38.4526 59.3274 38.2818C59.3657 38.1109 59.404 37.8073 59.4231 37.3708C59.4614 37.1431 59.4997 36.9343 59.4997 36.7635C59.4997 36.5927 59.538 36.4219 59.5763 36.2511L59.7102 37.8073C59.7485 38.1489 59.7868 38.3766 59.8059 38.6234C59.8442 38.8321 59.8442 39.0029 59.8825 39.1358C60.0165 40.2175 60.0931 40.8628 60.1122 40.9956C60.1122 41.0905 60.1505 41.2044 60.1505 41.2993L60.4567 43.2161L58.5427 43.1781ZM72.9747 44.5255C72.5919 44.3168 72.3048 44.0511 72.0943 43.6905C71.8263 43.292 71.654 42.8175 71.5583 42.3431C71.4244 41.7737 71.3478 41.1664 71.3478 40.5591C71.3478 39.1737 71.6158 38.092 72.1326 37.3328C72.6494 36.5547 73.3576 36.1562 74.2763 36.1562C74.9845 36.1562 75.6736 36.4978 76.3052 37.1241V32.3985C75.597 32.1328 74.8505 32 74.104 32C71.9029 32 70.1036 32.7781 68.7638 34.3533C67.4239 35.9285 66.754 38.035 66.754 40.6161C66.754 42.4 67.0603 43.9562 67.6345 45.1898L76.3627 45.5314L76.4584 43.7095C75.6736 44.4117 74.8888 44.7912 74.1423 44.7912C73.7595 44.8292 73.3384 44.7343 72.9747 44.5255ZM92.4983 39.9139C92.728 40.3124 93.0151 40.692 93.3405 41.0336C93.7233 41.4321 94.1635 41.7737 94.6037 42.1153L95.312 42.6847C95.8479 43.0832 96.0967 43.5197 96.0967 43.9562C96.0967 44.2599 95.9627 44.5255 95.7139 44.7343C95.4459 44.9431 95.1014 45.038 94.7569 45.038C93.7424 45.038 92.7854 44.4307 91.9049 43.254V46.1577L99.8483 46.4613C100.289 45.6263 100.518 44.6394 100.518 43.5577C100.518 42.6088 100.308 41.7737 99.9057 41.0715C99.5038 40.3693 98.8147 39.6482 97.8768 38.9839L97.1686 38.4526C96.5561 38.0161 96.2498 37.5796 96.2498 37.1431C96.2498 36.8774 96.3838 36.6117 96.5944 36.4409C96.8241 36.2321 97.1303 36.1372 97.4366 36.1372C97.8768 36.1372 98.3553 36.308 98.7956 36.6117C99.3124 36.9912 99.7143 37.4277 100.059 37.9212V32.835C98.9678 32.2657 97.9151 32 96.8241 32C95.6373 32 94.6229 32.3796 93.7616 33.0818C93.4553 33.3095 93.1873 33.6131 92.9385 33.9547C92.192 34.9606 91.7901 36.1752 91.7901 37.4657C91.7901 37.9022 91.8283 38.3387 91.924 38.7372C92.1346 39.1358 92.3069 39.5533 92.4983 39.9139ZM39 49.2131H43.4789V44.7912L39 44.6394V49.2131ZM47.1922 44.4876L51.6711 44.6584V32.3226H47.1922V38.1489H45.0485V32.3416H40.5887V44.2409L45.0676 44.4117V42.1723H47.2305L47.1922 44.4876ZM45.5844 49.2131H50.0633V45.038L45.5844 44.8672V49.2131ZM85.6076 32.3416L82.9662 39.4015L83.0619 32.3226H78.583V45.6263L83.0045 45.7971L82.9279 41.2234L84.7271 45.873L89.3783 46.0438L86.6604 40.2934L90.2205 32.3416C90.3354 32.3416 85.6076 32.3416 85.6076 32.3416ZM105.15 32.3416L101.724 46.5182L113.725 46.9547L110.625 32.3416C110.605 32.3416 105.15 32.3416 105.15 32.3416ZM106.777 43.1781L107.217 40.5781L107.524 38.5854C107.524 38.5474 107.562 38.4526 107.562 38.2818C107.6 38.1109 107.639 37.8073 107.658 37.3708C107.696 37.1431 107.734 36.9343 107.734 36.7635C107.773 36.5927 107.773 36.4219 107.811 36.2511L107.945 37.8073C107.983 38.1489 108.021 38.3766 108.041 38.6234C108.079 38.8321 108.079 39.0029 108.117 39.1358C108.251 40.2175 108.328 40.8628 108.347 40.9956C108.347 41.0905 108.385 41.2044 108.385 41.2993L108.691 43.2161L106.777 43.1781ZM116.348 49.2131H120.693L120.903 47.6569L115.946 47.4861L116.348 49.2131ZM77.0134 46.0438V49.2131H81.4924L81.4541 46.1766L77.0134 46.0438ZM128.617 32.3416L127.794 37.4657C127.698 38.1679 127.583 38.9839 127.487 39.8569C127.392 40.7299 127.315 41.7358 127.22 42.8555C126.952 40.3314 126.645 38.1489 126.301 36.327L125.554 32.3606H121.707L120.865 37.0672C120.635 38.4146 120.425 39.8569 120.291 41.3752L120.157 42.6467L120.023 41.1285C119.927 40.0847 119.716 38.6613 119.448 36.8584L118.74 32.3036H114.319L117.611 47.0496L122.568 47.2204L123.181 42.7985C123.257 42.2861 123.315 41.8307 123.353 41.3752C123.391 40.9387 123.449 40.5022 123.487 40.1036C123.564 39.2876 123.621 38.7562 123.659 38.4526C123.659 38.5854 123.698 38.7942 123.736 39.0599C123.774 39.3255 123.812 39.6672 123.87 40.0657C123.966 40.8818 124.1 41.8496 124.31 42.9693L125.095 47.2774L129.918 47.4482L133.019 32.2277L128.617 32.3416ZM123.717 49.2131H128.004L128.272 47.9416L123.449 47.7708L123.717 49.2131ZM107.581 47.1635L107.926 49.2131H112.539L112.137 47.3343L107.581 47.1635ZM90.3736 48.8146C91.5604 49.2891 92.6897 49.5168 93.7424 49.5168C95.2737 49.5168 96.537 48.9854 97.5131 47.9416C97.8194 47.6 98.0874 47.2394 98.2979 46.8219L90.3545 46.5182C90.3736 46.5562 90.3736 48.8146 90.3736 48.8146ZM83.1959 46.2905L84.3443 49.2511H89.1678L87.8854 46.4613L83.1959 46.2905ZM99.5803 49.2131H104.193L104.576 47.1255L100.155 46.8978L99.5803 49.2131ZM43.4215 54.6978H46.35C46.35 54.9635 46.35 55.2292 46.3117 55.5139C46.2735 55.7416 46.2352 55.9883 46.1778 56.1781C46.0821 56.4438 45.9481 56.7095 45.7375 56.9562C45.5653 57.1839 45.3547 57.3547 45.0867 57.5255C44.8571 57.6964 44.5699 57.7912 44.302 57.8672C43.9957 57.9431 43.6895 58 43.3832 58C42.9813 58 42.5602 57.9241 42.1965 57.7912C41.852 57.6584 41.5266 57.4496 41.2777 57.1839C41.0098 56.9182 40.7992 56.6146 40.6652 56.235C40.5313 55.8555 40.4356 55.419 40.4547 55.0204C40.4547 54.6219 40.5313 54.2044 40.6652 53.8058C40.7992 53.4642 41.0098 53.1416 41.2777 52.8569C41.5457 52.5723 41.852 52.3825 42.2348 52.2496C42.6367 52.1168 43.0578 52.0219 43.4598 52.0409C43.9957 52.0409 44.5508 52.1737 45.0293 52.4204C45.5078 52.6861 45.8715 53.0847 46.0821 53.5971L44.6848 54.1664C44.5891 53.9007 44.4168 53.654 44.168 53.5022C43.9574 53.3693 43.7278 53.2934 43.4598 53.2934C43.2492 53.2934 43.0578 53.3314 42.8473 53.4263C42.675 53.5022 42.5027 53.635 42.3688 53.7679C42.2348 53.9387 42.1391 54.1095 42.0625 54.2993C41.9859 54.527 41.9668 54.7737 41.9668 55.0015C41.9668 55.2292 42.0051 55.438 42.0625 55.6657C42.1391 55.8745 42.1965 56.0453 42.3305 56.1971C42.4645 56.3299 42.5985 56.4628 42.809 56.5387C43.0195 56.6336 43.211 56.6715 43.4598 56.6715C43.5938 56.6715 43.7278 56.6715 43.8617 56.6336C43.9957 56.5956 44.0914 56.5577 44.2446 56.4628C44.3403 56.3869 44.4551 56.292 44.5125 56.1971C44.5891 56.0642 44.6465 55.9314 44.6465 55.7985H43.4215V54.6978ZM61.2606 56.8613H59.1552L58.8106 57.8292H57.2411L59.4231 52.2307H61.0118L63.1556 57.8482H61.586L61.2606 56.8613ZM60.8778 55.7416L60.227 53.8628L59.5763 55.7416H60.8778ZM74.3337 57.8292L75.2908 52.2117H76.7455L77.8748 55.2102L79.0041 52.2117H80.4588L81.4158 57.8292H79.9611L79.4826 54.6029L78.1619 57.8292H77.5877L76.3244 54.6029L75.8459 57.8292H74.3337ZM94.5846 52.2496V57.8672H93.1299V52.2496H94.5846ZM106.509 57.8292V52.2307H107.964L110.682 55.6657V52.2307H112.137V57.8482H110.682L107.964 54.4131V57.8482L106.509 57.8292ZM126.952 54.6978H129.88C129.88 55.0015 129.88 55.2672 129.842 55.5139C129.804 55.7416 129.765 55.9883 129.708 56.1781C129.612 56.4438 129.478 56.7095 129.268 56.9562C129.095 57.1839 128.885 57.3547 128.617 57.5255C128.387 57.6964 128.1 57.7912 127.832 57.8672C127.526 57.9431 127.22 58 126.913 58C126.511 58 126.09 57.9241 125.727 57.7912C125.382 57.6584 125.057 57.4496 124.808 57.1839C124.54 56.9182 124.329 56.6146 124.195 56.235C123.927 55.4569 123.889 54.5839 124.195 53.8058C124.329 53.4642 124.54 53.1416 124.808 52.8569C125.076 52.5723 125.382 52.3825 125.765 52.2496C126.167 52.1168 126.588 52.0219 126.99 52.0409C127.526 52.0409 128.081 52.1737 128.559 52.4204C129.038 52.6861 129.402 53.0847 129.612 53.5971L128.215 54.1664C128.119 53.9007 127.947 53.654 127.698 53.5022C127.487 53.3693 127.258 53.2934 126.99 53.2934C126.779 53.2934 126.588 53.3314 126.377 53.4263C126.205 53.5022 126.033 53.635 125.899 53.7679C125.765 53.9387 125.669 54.1095 125.593 54.2993C125.516 54.527 125.497 54.7737 125.497 55.0015C125.497 55.2292 125.535 55.438 125.593 55.6657C125.669 55.8745 125.727 56.0453 125.861 56.1971C125.994 56.3299 126.128 56.4628 126.339 56.5387C126.55 56.6336 126.741 56.6715 126.99 56.6715C127.124 56.6715 127.258 56.6715 127.392 56.6336C127.526 56.5956 127.621 56.5577 127.775 56.4628C127.87 56.3869 127.985 56.292 128.043 56.1971C128.119 56.0642 128.177 55.9314 128.177 55.7985H126.99V54.6599H126.952V54.6978Z" fill="white"/>
</svg>
