<svg width="172" height="89" viewBox="0 0 172 89" fill="none" xmlns="http://www.w3.org/2000/svg">
<path d="M55.9931 44.8954C55.9313 40.9267 59.0822 37.5695 63.6109 37.6317C64.7701 37.6317 65.7624 37.7745 66.5982 38.082C67.4524 38.3676 68.0811 38.6348 68.4664 38.8801V41.2525C68.0993 40.945 67.5106 40.6192 66.6783 40.2714C65.846 39.9016 64.8283 39.7185 63.6109 39.7185C60.2599 39.7185 58.2901 41.9884 58.2901 44.8954C58.2901 47.7803 60.3398 50.0721 63.2474 50.0721C64.8537 50.0721 66.1731 49.4388 66.9835 48.8237V45.8143H62.8585V43.7275H69.1969V51.8515H66.9835V51.1339C66.1694 51.6464 64.8719 52.1553 63.2474 52.1553C58.977 52.159 55.9313 48.8639 55.9931 44.8954Z" fill="white"/>
<path d="M70.9375 46.5739C70.9375 43.4839 73.2126 40.9688 76.4217 40.9688C77.9446 40.9688 79.2239 41.5618 79.9544 42.2977V41.2763H82.1278V51.8533H79.9144L79.9363 50.7695C79.2458 51.4872 78.13 52.1607 76.4217 52.1607C73.2126 52.1607 70.9375 49.6638 70.9375 46.5739ZM80.0781 46.5556C80.0781 44.2638 78.5334 42.9348 76.5854 42.9348C74.6156 42.9348 73.1327 44.553 73.1327 46.5556C73.1327 48.5619 74.6156 50.1985 76.5854 50.1985C78.5334 50.1985 80.0781 48.8658 80.0781 46.5556Z" fill="white"/>
<path d="M100.854 45.3418V51.8477H98.6588V45.5652C98.6588 43.8664 98.0484 42.9035 96.6091 42.9035C95.2898 42.9035 93.9669 43.9067 93.9669 45.891V51.844H91.7718V45.5615C91.7718 43.8627 91.1611 42.8999 89.7218 42.8999C88.5044 42.8999 87.2651 43.7602 87.1014 45.4773V51.8403H84.9062V41.2633H87.1014V42.5337C87.2251 42.2482 87.9337 40.9375 90.0453 40.9375C91.5282 40.9375 92.6875 41.5306 93.3563 42.6765C93.8432 41.7576 94.9408 40.9375 96.9326 40.9375C99.2912 40.9412 100.854 42.4349 100.854 45.3418Z" fill="white"/>
<path d="M102.508 46.4844C102.508 43.3944 104.783 40.8792 107.992 40.8792C109.515 40.8792 110.794 41.4723 111.525 42.2082V37.8698L113.72 37.5V51.76H111.485L111.507 50.6764C110.816 51.3939 109.7 52.0677 107.992 52.0677C104.783 52.0712 102.508 49.5745 102.508 46.4844ZM111.648 46.4661C111.648 44.1742 110.104 42.8452 108.156 42.8452C106.186 42.8452 104.641 44.4634 104.641 46.4661C104.641 48.4724 106.186 50.1089 108.156 50.1089C110.104 50.1089 111.648 48.7763 111.648 46.4661Z" fill="white"/>
<path d="M115.523 46.5739C115.523 43.4839 118.082 40.9688 121.273 40.9688C124.46 40.9688 127.023 43.4839 127.023 46.5739C127.023 49.6638 124.464 52.1607 121.273 52.1607C118.082 52.1607 115.523 49.6638 115.523 46.5739ZM124.908 46.5739C124.908 44.5676 123.345 42.9531 121.273 42.9531C119.201 42.9531 117.639 44.5713 117.639 46.5739C117.639 48.5582 119.201 50.1764 121.273 50.1764C123.345 50.1764 124.908 48.5619 124.908 46.5739Z" fill="white"/>
<path d="M144.913 45.3418V51.8477H142.718V45.5652C142.718 43.8664 142.107 42.9035 140.668 42.9035C139.349 42.9035 138.026 43.9067 138.026 45.891V51.844H135.83V45.5615C135.83 43.8627 135.22 42.8999 133.781 42.8999C132.563 42.8999 131.324 43.7602 131.16 45.4773V51.8403H128.969V41.2633H131.164V42.5337C131.287 42.2482 131.996 40.9375 134.108 40.9375C135.591 40.9375 136.75 41.5306 137.419 42.6765C137.906 41.7576 139.003 40.9375 140.995 40.9375C143.35 40.9412 144.913 42.4349 144.913 45.3418Z" fill="white"/>
<path d="M37.0351 48.3672H37.0312V55.2684H37.0351V48.3672Z" fill="#01D370"/>
<path d="M37.0351 48.3672H37.0312V55.2684H37.0351V48.3672Z" fill="#01D370"/>
<path d="M36.4701 44.8371L29.6156 48.1028C29.4121 48.2017 29.2812 48.414 29.2812 48.6446V54.9858C29.2812 55.2201 29.4121 55.4287 29.6156 55.5276L36.4737 58.7969C36.6482 58.8811 36.8372 58.9215 37.0262 58.9215V44.709C36.8372 44.7126 36.6482 44.7566 36.4701 44.8371Z" fill="#00FF86"/>
<path d="M36.7215 31.0732L33.505 32.6768V36.9859L29.7398 38.8458V34.5L26.3671 36.1878C26.1417 36.3013 26 36.532 26 36.7809V45.0843C26 45.5713 26.5125 45.8934 26.9449 45.6774L36.4416 40.9839C36.627 40.8923 36.8269 40.8484 37.0268 40.8484V31C36.9214 31 36.816 31.0256 36.7215 31.0732Z" fill="#00FF86"/>
<path d="M44.4454 48.0994L37.5873 44.8337C37.4092 44.7458 37.2202 44.7056 37.0312 44.7092V58.9217C37.2202 58.9217 37.4165 58.8814 37.5909 58.7973L44.4454 55.5277C44.6489 55.429 44.7799 55.2166 44.7799 54.9859V48.645C44.7799 48.4106 44.6489 48.1983 44.4454 48.0994Z" fill="#01D370"/>
<path d="M47.6946 36.1841L44.3219 34.4964V38.8458L40.553 36.9859V32.6768L37.3366 31.0732C37.242 31.0256 37.133 31 37.0312 31V40.8484C37.2311 40.8484 37.431 40.896 37.6164 40.9839L47.1131 45.6774C47.5492 45.8934 48.058 45.5713 48.058 45.0843V36.7809C48.0616 36.5283 47.9199 36.2977 47.6946 36.1841Z" fill="#01D370"/>
</svg>
