<svg width="172" height="89" viewBox="0 0 172 89" fill="none" xmlns="http://www.w3.org/2000/svg">
<path d="M132.811 31.3791C126.361 31.7745 129.259 40.2424 136.396 39.7976C143.37 39.3528 139.687 30.9508 132.811 31.3791Z" fill="#F19021"/>
<path d="M130.096 26.1557C118.62 26.1557 109.305 35.5297 109.305 47.0783C109.305 58.6269 118.62 68.0009 130.096 68.0009C141.571 68.0009 150.886 58.6269 150.886 47.0783C150.886 35.5132 141.571 26.1557 130.096 26.1557ZM130.096 65.8097C119.815 65.8097 111.482 57.4242 111.482 47.0948C111.482 36.7653 119.815 28.3633 130.079 28.3633C140.344 28.3633 148.693 36.7323 148.693 47.0783C148.693 57.4242 140.36 65.8097 130.096 65.8097ZM129.457 11.5429C124.513 15.299 125.381 21.0486 125.381 21.0486C125.381 21.0486 122.27 12.9432 118.243 7.98438C117.703 14.36 119.684 22.8114 119.684 22.8114C119.684 22.8114 117.163 17.5725 110.974 17.276C116.099 20.2414 118.096 25.5791 118.538 27.0124C121.599 25.1178 125.086 24.047 128.671 23.9317C128.295 22.6137 126.854 16.9959 129.457 11.5429Z" fill="#F19021"/>
<path d="M22.8172 49.1224V53.5046H21V42.2196H24.8144C26.1077 42.2196 27.0735 42.5326 27.7284 43.1421C28.3832 43.7517 28.7106 44.6084 28.7106 45.6792C28.7106 46.75 28.3832 47.5902 27.712 48.1998C27.0408 48.8094 26.0749 49.1224 24.8308 49.1224H22.8172ZM26.8607 45.6957C26.8607 45.0532 26.6806 44.5754 26.3369 44.2294C25.9767 43.9 25.4201 43.7187 24.6343 43.7187H22.8172V47.6397H24.6343C26.1077 47.6397 26.8607 46.9972 26.8607 45.6957ZM36.1757 53.5046L33.3763 48.9906H32.083V53.5046H30.2822V42.2196H34.2439C35.5208 42.2196 36.5031 42.5326 37.1579 43.1586C37.8127 43.7846 38.1565 44.6248 38.1565 45.6463C38.1565 46.5194 37.911 47.2443 37.4198 47.8209C36.9287 48.3975 36.2248 48.7599 35.2917 48.9082L38.2384 53.4881H36.1757V53.5046ZM32.0994 47.7056H34.0966C35.5536 47.7056 36.2903 47.0631 36.2903 45.7616C36.2903 45.152 36.1102 44.6578 35.7664 44.3118C35.4062 43.9659 34.866 43.8011 34.113 43.8011H32.0994V47.7056ZM46.4729 51.0664H41.7417L40.8904 53.5046H38.9587L43.0841 42.4008H45.1632L49.2723 53.5046H47.3405L46.4729 51.0664ZM45.9654 49.6495L44.0991 44.3777L42.2328 49.6495H45.9654ZM58.4071 43.1257C59.2911 43.7846 59.9132 44.7402 60.1752 45.8275H58.2762C58.0306 45.2344 57.6213 44.7237 57.0811 44.3777C56.4918 43.9988 55.8042 43.8176 55.1002 43.8341C54.4454 43.8176 53.7906 43.9988 53.2176 44.3283C52.661 44.6578 52.2026 45.152 51.9243 45.7286C51.5969 46.4041 51.4496 47.129 51.4659 47.8703C51.4496 48.6446 51.6133 49.4024 51.9407 50.0944C52.2354 50.6874 52.7101 51.1817 53.2831 51.5112C53.9052 51.8407 54.5927 52.0219 55.2967 52.0054C56.1807 52.0219 57.032 51.7089 57.6868 51.1158C58.358 50.5392 58.7509 49.7319 58.8983 48.727H54.7892V47.3925H60.4207V49.1388C60.3061 49.9461 59.9951 50.7204 59.5367 51.3958C59.062 52.0713 58.4399 52.6314 57.7196 53.0268C56.9174 53.4387 56.017 53.6528 55.1166 53.6364C54.1016 53.6528 53.103 53.4057 52.219 52.895C51.4005 52.4173 50.7129 51.7089 50.2872 50.8522C49.3705 48.9741 49.3705 46.7665 50.2872 44.8884C50.7293 44.0482 51.4005 43.3398 52.219 42.8621C53.103 42.3678 54.1016 42.1207 55.1002 42.1372C56.4099 42.1372 57.5231 42.4667 58.4071 43.1257ZM73.1735 42.4008V53.5046H71.34V45.185L68.1477 53.5046H66.5598L63.3511 45.185V53.5046H61.5339V42.4008H63.7276L67.3783 51.264L70.9635 42.4008H73.1735ZM82.0465 51.0664H77.3153L76.464 53.5046H74.5159L78.6414 42.4008H80.7204L84.8295 53.5046H82.8977L82.0465 51.0664ZM81.539 49.6495L79.6727 44.3777L77.8064 49.6495H81.539ZM92.5892 42.2196V43.6858H89.4624V53.5046H87.6289V43.6858H84.5185V42.2196H92.5892ZM95.3559 42.2196V53.5046H93.5551V42.2196H95.3559ZM105.604 43.1586C106.521 43.867 107.176 44.8884 107.437 46.0252H105.522C105.277 45.3662 104.835 44.8061 104.262 44.3942C103.639 43.9823 102.886 43.7682 102.133 43.8011C101.511 43.7846 100.889 43.9659 100.349 44.2953C99.8087 44.6413 99.3831 45.1355 99.1048 45.7122C98.4991 47.0795 98.4991 48.6281 99.1048 49.9955C99.3831 50.5721 99.8087 51.0664 100.349 51.4123C100.889 51.7418 101.511 51.923 102.133 51.9065C102.886 51.9395 103.623 51.7253 104.262 51.3135C104.835 50.9181 105.277 50.358 105.522 49.699H107.437C107.159 50.8357 106.521 51.8407 105.604 52.5491C104.687 53.241 103.558 53.6034 102.166 53.6034C101.184 53.6199 100.202 53.3728 99.3503 52.8785C98.5318 52.4008 97.877 51.6924 97.4677 50.8522C96.5837 48.9741 96.5837 46.783 97.4677 44.8884C97.8933 44.0482 98.5482 43.3398 99.3503 42.8456C100.202 42.3514 101.167 42.0878 102.166 42.1042C103.558 42.1042 104.687 42.4667 105.604 43.1586ZM115.983 49.1224V53.5046H114.182V42.2196H117.997C119.29 42.2196 120.256 42.5326 120.911 43.1421C121.565 43.7517 121.893 44.6084 121.893 45.6792C121.893 46.75 121.565 47.5902 120.894 48.1998C120.223 48.8094 119.257 49.1224 117.997 49.1224H115.983ZM120.043 45.6957C120.043 45.0532 119.863 44.5754 119.519 44.2294C119.159 43.9 118.602 43.7187 117.817 43.7187H115.999V47.6397H117.817C119.29 47.6397 120.043 46.9972 120.043 45.6957ZM124.987 52.0878H128.867V53.5046H123.186V42.2196H125.003V52.0878H124.987ZM137.15 51.0664H132.419L131.568 53.5046H129.636L133.762 42.4008H135.841L139.95 53.5046H138.018L137.15 51.0664ZM136.643 49.6495L134.793 44.3777L132.943 49.6495H136.643ZM147.218 42.2196L143.486 49.4024V53.5046H141.669V49.4024L137.92 42.2196H140.015L142.585 47.442L145.156 42.2196H147.218Z" fill="white"/>
</svg>
