<svg width="20" height="20" viewBox="0 0 20 20" fill="none" xmlns="http://www.w3.org/2000/svg">
<path d="M6.27333 1H13.7263C16.6372 1 18.9996 3.36245 18.9996 6.27333V13.7263C18.9996 16.6372 16.6372 18.9996 13.7263 18.9996H6.27333C3.36245 18.9996 1 16.6372 1 13.7263V6.27333C1 3.36245 3.36245 1 6.27333 1Z" fill="url(#paint0_linear_3261_57239)"/>
<path d="M14.3467 6.78027L13.3796 11.129L11.8777 9.62717L5.65625 10.9719L13.6844 19H13.7269C16.6378 19 19.0002 16.6375 19.0002 13.7267V11.4342L14.3467 6.78062V6.78027Z" fill="url(#paint1_linear_3261_57239)"/>
<path d="M5.5 10.5975V9.40217C5.5 9.11108 5.73625 8.87483 6.02733 8.87483H8.87493V7.89786C8.87493 7.42818 9.44305 7.19264 9.77527 7.52486L11.8772 9.62681C12.0832 9.83282 12.0832 10.1668 11.8772 10.3725L9.77527 12.4744C9.44305 12.8066 8.87493 12.5714 8.87493 12.1014V11.1244H6.02733C5.73625 11.1244 5.5 10.8882 5.5 10.5971V10.5975ZM13.9725 6.62488H13.3397C13.0486 6.62488 12.8124 6.86112 12.8124 7.15221V12.8474C12.8124 13.1385 13.0486 13.3747 13.3397 13.3747H13.9725C14.2636 13.3747 14.4998 13.1385 14.4998 12.8474V7.15221C14.4998 6.86112 14.2636 6.62488 13.9725 6.62488Z" fill="url(#paint2_linear_3261_57239)"/>
<defs>
<linearGradient id="paint0_linear_3261_57239" x1="2.54438" y1="2.54438" x2="17.4553" y2="17.4553" gradientUnits="userSpaceOnUse">
<stop stop-color="#BFDBFF"/>
<stop offset="1" stop-color="#498ADE"/>
</linearGradient>
<linearGradient id="paint1_linear_3261_57239" x1="8.1791" y1="10.8548" x2="15.75" y2="19.3412" gradientUnits="userSpaceOnUse">
<stop stop-color="#296CC3" stop-opacity="0.35"/>
<stop offset="1" stop-color="#296CC3" stop-opacity="0"/>
</linearGradient>
<linearGradient id="paint2_linear_3261_57239" x1="9.99993" y1="8.84442" x2="9.99993" y2="12.9796" gradientUnits="userSpaceOnUse">
<stop stop-color="#FFFCF8"/>
<stop offset="0.1875" stop-color="#E4F2FF"/>
<stop offset="0.4041" stop-color="#E0EAFF"/>
<stop offset="0.6353" stop-color="#C9DAFF"/>
<stop offset="0.875" stop-color="#B2CBFF"/>
<stop offset="1" stop-color="#B2CBFF"/>
</linearGradient>
</defs>
</svg>
