<svg width="20" height="20" viewBox="0 0 20 20" fill="none" xmlns="http://www.w3.org/2000/svg">
<path d="M18.7109 1.22656H1.28906C0.578125 1.22656 0 1.80469 0 2.51562V13.1602C0 13.8711 0.578125 14.4492 1.28906 14.4492H2.9375C3.31641 14.4492 3.66797 14.6406 3.87891 14.9531L6.16406 18.418C6.47656 18.8906 7.17188 18.8906 7.48828 18.418L9.77344 14.9531C9.98047 14.6367 10.3359 14.4492 10.7148 14.4492H18.7109C19.4219 14.4492 20 13.8711 20 13.1602V2.51562C20 1.80469 19.4219 1.22656 18.7109 1.22656Z" fill="url(#paint0_linear_3261_57195)"/>
<path d="M10.7109 14.4453H18.7109C19.4219 14.4453 20 13.8672 20 13.1562V10.6719H12.6992L9.77344 14.9492C9.98047 14.6367 10.332 14.4453 10.7109 14.4453Z" fill="url(#paint1_linear_3261_57195)"/>
<path d="M0 10.6719V13.1562C0 13.8672 0.578125 14.4453 1.28906 14.4453H2.9375C3.31641 14.4453 3.66797 14.6367 3.87891 14.9492L0.953125 10.6719H0Z" fill="url(#paint2_linear_3261_57195)"/>
<path d="M18.7109 1.22656H13.1406V14.4453H18.7109C19.4219 14.4453 20 13.8672 20 13.1562V2.51562C20 1.80469 19.4219 1.22656 18.7109 1.22656Z" fill="url(#paint3_linear_3261_57195)"/>
<path d="M17.1992 5.625L12.6641 10.1406L16.9687 14.4453H18.7109C19.4219 14.4453 20 13.8672 20 13.1563V8.42578L17.1992 5.625Z" fill="url(#paint4_linear_3261_57195)"/>
<path d="M9.60156 9.21484L3.38281 12.457L8.22266 17.2969L9.76953 14.9531C9.97656 14.6367 10.332 14.4492 10.7109 14.4492H14.832L9.60156 9.21484Z" fill="url(#paint5_linear_3261_57195)"/>
<path d="M18.7109 14.4453C19.1172 14.4453 19.4766 14.2578 19.7148 13.9648L8.93359 3.18359L4.98828 6.90625L12.5312 14.4492H18.7109V14.4453Z" fill="url(#paint6_linear_3261_57195)"/>
<path d="M6.92187 7.68359C6.90625 7.68359 6.89062 7.68359 6.875 7.68359C5.39453 7.67969 4.19531 6.48047 4.19141 5C4.19141 4.98438 4.19141 4.96875 4.19141 4.95313C4.19531 3.47266 5.39453 2.27344 6.875 2.26953H6.92187C8.40234 2.27344 9.60156 3.47266 9.60547 4.95313V5C9.60156 6.48047 8.39844 7.67969 6.92187 7.68359Z" fill="url(#paint7_radial_3261_57195)"/>
<g opacity="0.35">
<path d="M6.92187 7.68359C6.90625 7.68359 6.89062 7.68359 6.875 7.68359C5.39453 7.67969 4.19531 6.48047 4.19141 5C4.19141 4.98438 4.19141 4.96875 4.19141 4.95313C4.19531 3.47266 5.39453 2.27344 6.875 2.26953H6.92187C8.40234 2.27344 9.60156 3.47266 9.60547 4.95313V5C9.60156 6.48047 8.39844 7.67969 6.92187 7.68359Z" fill="url(#paint8_linear_3261_57195)"/>
</g>
<path d="M3.14062 11.8672C3.14062 11.8437 3.14062 11.8242 3.14062 11.8008C3.14453 9.75 4.8125 8.08203 6.86328 8.07812H6.92969C8.98047 8.08203 10.6484 9.75 10.6523 11.8008V11.8672C10.6484 13.918 3.14453 13.918 3.14062 11.8672Z" fill="url(#paint9_radial_3261_57195)"/>
<g opacity="0.35">
<path d="M3.14062 11.8672C3.14062 11.8437 3.14062 11.8242 3.14062 11.8008C3.14453 9.75 4.8125 8.08203 6.86328 8.07812H6.92969C8.98047 8.08203 10.6484 9.75 10.6523 11.8008V11.8672C10.6484 13.918 3.14453 13.918 3.14062 11.8672Z" fill="url(#paint10_linear_3261_57195)"/>
</g>
<path d="M14.9141 11.0312C14.8945 11.0312 14.875 11.0312 14.8555 11.0312C13.1094 11.0273 11.6953 9.60937 11.6914 7.86719C11.6914 7.84766 11.6914 7.82812 11.6914 7.80859C11.6953 6.0625 13.1133 4.64844 14.8555 4.64453H14.9141C16.6602 4.64844 18.0742 6.06641 18.0781 7.80859V7.86719C18.0742 9.60937 16.6602 11.0273 14.9141 11.0312Z" fill="url(#paint11_radial_3261_57195)"/>
<g opacity="0.25">
<path d="M14.9141 11.0312C14.8945 11.0312 14.875 11.0312 14.8555 11.0312C13.1094 11.0273 11.6953 9.60937 11.6914 7.86719C11.6914 7.84766 11.6914 7.82812 11.6914 7.80859C11.6953 6.0625 13.1133 4.64844 14.8555 4.64453H14.9141C16.6602 4.64844 18.0742 6.06641 18.0781 7.80859V7.86719C18.0742 9.60937 16.6602 11.0273 14.9141 11.0312Z" fill="#CEFAAA"/>
<path d="M14.9141 11.0312C14.8945 11.0312 14.875 11.0312 14.8555 11.0312C13.1094 11.0273 11.6953 9.60937 11.6914 7.86719C11.6914 7.84766 11.6914 7.82812 11.6914 7.80859C11.6953 6.0625 13.1133 4.64844 14.8555 4.64453H14.9141C16.6602 4.64844 18.0742 6.06641 18.0781 7.80859V7.86719C18.0742 9.60937 16.6602 11.0273 14.9141 11.0312Z" fill="url(#paint12_radial_3261_57195)"/>
</g>
<path d="M16.3242 7.3125H15.4102V6.39844C15.4102 6.26172 15.3008 6.15234 15.1641 6.15234H14.6094C14.4727 6.15234 14.3633 6.26172 14.3633 6.39844V7.3125H13.4492C13.3125 7.3125 13.2031 7.42188 13.2031 7.55859V8.11719C13.2031 8.25391 13.3125 8.36328 13.4492 8.36328H14.3633V9.27734C14.3633 9.41406 14.4727 9.52344 14.6094 9.52344H15.168C15.3047 9.52344 15.4141 9.41406 15.4141 9.27734V8.35938H16.3281C16.4648 8.35938 16.5742 8.25 16.5742 8.11328V7.55469C16.5703 7.42187 16.4609 7.3125 16.3242 7.3125Z" fill="white"/>
<defs>
<linearGradient id="paint0_linear_3261_57195" x1="8.48391" y1="3.45727" x2="12.8387" y2="16.0377" gradientUnits="userSpaceOnUse">
<stop stop-color="#BFDBFF"/>
<stop offset="1" stop-color="#498ADE"/>
</linearGradient>
<linearGradient id="paint1_linear_3261_57195" x1="14.8862" y1="12.609" x2="14.8862" y2="14.2886" gradientUnits="userSpaceOnUse">
<stop stop-color="#BFDBFF" stop-opacity="0"/>
<stop offset="0.1624" stop-color="#BFDBFF" stop-opacity="0.051"/>
<stop offset="0.3712" stop-color="#BFDBFF" stop-opacity="0.198"/>
<stop offset="0.6053" stop-color="#498ADE" stop-opacity="0.441"/>
<stop offset="0.8559" stop-color="#498ADE" stop-opacity="0.776"/>
<stop offset="1" stop-color="#498ADE"/>
</linearGradient>
<linearGradient id="paint2_linear_3261_57195" x1="1.93844" y1="13.2487" x2="1.93844" y2="14.5611" gradientUnits="userSpaceOnUse">
<stop stop-color="#BFDBFF" stop-opacity="0"/>
<stop offset="0.1624" stop-color="#BFDBFF" stop-opacity="0.051"/>
<stop offset="0.3712" stop-color="#BFDBFF" stop-opacity="0.198"/>
<stop offset="0.6053" stop-color="#498ADE" stop-opacity="0.441"/>
<stop offset="0.8559" stop-color="#498ADE" stop-opacity="0.776"/>
<stop offset="1" stop-color="#498ADE"/>
</linearGradient>
<linearGradient id="paint3_linear_3261_57195" x1="17.8355" y1="7.83711" x2="20.1096" y2="7.83711" gradientUnits="userSpaceOnUse">
<stop stop-color="#BFDBFF" stop-opacity="0"/>
<stop offset="0.1624" stop-color="#BFDBFF" stop-opacity="0.051"/>
<stop offset="0.3712" stop-color="#BFDBFF" stop-opacity="0.198"/>
<stop offset="0.6053" stop-color="#498ADE" stop-opacity="0.441"/>
<stop offset="0.8559" stop-color="#498ADE" stop-opacity="0.776"/>
<stop offset="1" stop-color="#498ADE"/>
</linearGradient>
<linearGradient id="paint4_linear_3261_57195" x1="18.8877" y1="11.7843" x2="14.5807" y2="7.60734" gradientUnits="userSpaceOnUse">
<stop stop-color="#498ADE" stop-opacity="0"/>
<stop offset="0.1624" stop-color="#498ADE" stop-opacity="0.051"/>
<stop offset="0.3712" stop-color="#498ADE" stop-opacity="0.198"/>
<stop offset="0.6053" stop-color="#498ADE" stop-opacity="0.441"/>
<stop offset="0.8559" stop-color="#498ADE" stop-opacity="0.776"/>
<stop offset="1" stop-color="#498ADE"/>
</linearGradient>
<linearGradient id="paint5_linear_3261_57195" x1="10.0557" y1="15.6643" x2="7.75371" y2="10.2807" gradientUnits="userSpaceOnUse">
<stop stop-color="#498ADE" stop-opacity="0"/>
<stop offset="0.1624" stop-color="#498ADE" stop-opacity="0.051"/>
<stop offset="0.3712" stop-color="#498ADE" stop-opacity="0.198"/>
<stop offset="0.6053" stop-color="#498ADE" stop-opacity="0.441"/>
<stop offset="0.8559" stop-color="#498ADE" stop-opacity="0.776"/>
<stop offset="1" stop-color="#498ADE"/>
</linearGradient>
<linearGradient id="paint6_linear_3261_57195" x1="10.0495" y1="7.53949" x2="7.24629" y2="4.01227" gradientUnits="userSpaceOnUse">
<stop stop-color="#498ADE" stop-opacity="0"/>
<stop offset="0.1624" stop-color="#498ADE" stop-opacity="0.051"/>
<stop offset="0.3712" stop-color="#498ADE" stop-opacity="0.198"/>
<stop offset="0.6053" stop-color="#498ADE" stop-opacity="0.441"/>
<stop offset="0.8559" stop-color="#498ADE" stop-opacity="0.776"/>
<stop offset="1" stop-color="#498ADE"/>
</linearGradient>
<radialGradient id="paint7_radial_3261_57195" cx="0" cy="0" r="1" gradientUnits="userSpaceOnUse" gradientTransform="translate(6.45434 4.28703) scale(2.89105)">
<stop stop-color="#F3FAFF"/>
<stop offset="1" stop-color="#D5DAF3"/>
</radialGradient>
<linearGradient id="paint8_linear_3261_57195" x1="6.89845" y1="4.04982" x2="6.89845" y2="7.36667" gradientUnits="userSpaceOnUse">
<stop stop-color="#FFFCF8"/>
<stop offset="0.1875" stop-color="#E4F2FF"/>
<stop offset="0.4041" stop-color="#E0EAFF"/>
<stop offset="0.6353" stop-color="#C9DAFF"/>
<stop offset="0.875" stop-color="#B2CBFF"/>
<stop offset="1" stop-color="#B2CBFF"/>
</linearGradient>
<radialGradient id="paint9_radial_3261_57195" cx="0" cy="0" r="1" gradientUnits="userSpaceOnUse" gradientTransform="translate(5.98848 9.27488) scale(3.78977)">
<stop stop-color="#F3FAFF"/>
<stop offset="1" stop-color="#D5DAF3"/>
</radialGradient>
<linearGradient id="paint10_linear_3261_57195" x1="6.8965" y1="9.82983" x2="6.8965" y2="13.0934" gradientUnits="userSpaceOnUse">
<stop stop-color="#FFFCF8"/>
<stop offset="0.1875" stop-color="#E4F2FF"/>
<stop offset="0.4041" stop-color="#E0EAFF"/>
<stop offset="0.6353" stop-color="#C9DAFF"/>
<stop offset="0.875" stop-color="#B2CBFF"/>
<stop offset="1" stop-color="#B2CBFF"/>
</linearGradient>
<radialGradient id="paint11_radial_3261_57195" cx="0" cy="0" r="1" gradientUnits="userSpaceOnUse" gradientTransform="translate(14.3648 7.02332) scale(3.41016)">
<stop stop-color="#B9FF82" stop-opacity="0.42"/>
<stop offset="1" stop-color="#B9FF82"/>
</radialGradient>
<radialGradient id="paint12_radial_3261_57195" cx="0" cy="0" r="1" gradientUnits="userSpaceOnUse" gradientTransform="translate(13.7831 7.0357) scale(4.62109)">
<stop stop-color="#CEFAAA" stop-opacity="0"/>
<stop offset="0.2872" stop-color="#CEFAAA" stop-opacity="0.03"/>
<stop offset="0.4349" stop-color="#CEFAAA" stop-opacity="0.132"/>
<stop offset="0.5509" stop-color="#CEFAAA" stop-opacity="0.308"/>
<stop offset="0.6504" stop-color="#CEFAAA" stop-opacity="0.557"/>
<stop offset="0.7384" stop-color="#B9FF82" stop-opacity="0.666667"/>
<stop offset="0.766" stop-color="#B9FF82"/>
<stop offset="0.8217" stop-color="#B9FF82" stop-opacity="0.951"/>
<stop offset="0.8745" stop-color="#B9FF82" stop-opacity="0.8"/>
<stop offset="0.9261" stop-color="#B9FF82" stop-opacity="0.548"/>
<stop offset="0.9767" stop-color="#B9FF82" stop-opacity="0.198"/>
<stop offset="1" stop-color="#B9FF82" stop-opacity="0"/>
</radialGradient>
</defs>
</svg>
