<svg width="20" height="20" viewBox="0 0 20 20" fill="none" xmlns="http://www.w3.org/2000/svg">
<path d="M13.7266 1H6.27344C3.361 1 1 3.361 1 6.27344V13.7266C1 16.639 3.361 19 6.27344 19H13.7266C16.639 19 19 16.639 19 13.7266V6.27344C19 3.361 16.639 1 13.7266 1Z" fill="url(#paint0_linear_3261_57175)"/>
<path d="M18.999 10.9823V13.7266C18.999 16.6389 16.6379 19 13.7255 19H7.33836L4.625 16.2863L10.9665 12.0865L7.69344 8.81382L12.262 4.24527L18.999 10.9823Z" fill="url(#paint1_linear_3261_57175)"/>
<path d="M10.0041 10.9422C10.8661 10.9422 11.661 10.6986 12.2988 10.2879C12.7895 9.97188 13.4354 10.0264 13.8674 10.4187C15.0265 11.4716 15.7532 12.9918 15.7507 14.6814L15.7497 15.3775C15.7483 16.0972 15.1647 16.6797 14.445 16.6797H5.56352C4.84387 16.6797 4.26028 16.0968 4.25887 15.3775L4.25782 14.6814C4.25536 12.9922 4.98204 11.472 6.14114 10.4187C6.57321 10.026 7.21903 9.97153 7.70981 10.2879C8.34755 10.6986 9.14243 10.9422 10.0045 10.9422H10.0041Z" fill="#BBDEFB"/>
<path d="M10.0039 9.78133C11.7881 9.78133 13.2345 8.33498 13.2345 6.55082C13.2345 4.76666 11.7881 3.32031 10.0039 3.32031C8.21978 3.32031 6.77344 4.76666 6.77344 6.55082C6.77344 8.33498 8.21978 9.78133 10.0039 9.78133Z" fill="#E3F2FD"/>
<defs>
<linearGradient id="paint0_linear_3261_57175" x1="2.54441" y1="2.54441" x2="17.4556" y2="17.4556" gradientUnits="userSpaceOnUse">
<stop stop-color="#BFDBFF"/>
<stop offset="1" stop-color="#498ADE"/>
</linearGradient>
<linearGradient id="paint1_linear_3261_57175" x1="7.34258" y1="9.16504" x2="16.5437" y2="18.3661" gradientUnits="userSpaceOnUse">
<stop stop-color="#296CC3" stop-opacity="0.35"/>
<stop offset="1" stop-color="#296CC3" stop-opacity="0"/>
</linearGradient>
</defs>
</svg>
