<svg width="20" height="20" viewBox="0 0 20 20" fill="none" xmlns="http://www.w3.org/2000/svg">
<path d="M13.7266 1H6.27344C3.361 1 1 3.361 1 6.27344V13.7266C1 16.639 3.361 19 6.27344 19H13.7266C16.639 19 19 16.639 19 13.7266V6.27344C19 3.361 16.639 1 13.7266 1Z" fill="url(#paint0_linear_3261_57186)"/>
<path d="M14.9836 5.85508L14.342 6.68336L11.4968 3.83817L7.37824 7.97008L5.02734 14.1562L9.87117 19H13.7264C16.6388 19 18.9998 16.6389 18.9998 13.7266V9.87133L14.9836 5.85508Z" fill="url(#paint1_linear_3261_57186)"/>
<path d="M15.6747 11.2463L14.6977 10.682C14.7297 10.4591 14.7466 10.2317 14.7466 10C14.7466 9.76832 14.7297 9.54051 14.6977 9.31797L15.6747 8.75371C16.0952 8.51113 16.239 7.97359 15.9964 7.55312L15.1175 6.03086C14.8749 5.61039 14.3374 5.4666 13.9169 5.70918L12.9395 6.27344C12.5834 5.99219 12.1861 5.76121 11.7583 5.59035V4.46289C11.7583 3.97738 11.3649 3.58398 10.8794 3.58398H9.12158C8.63607 3.58398 8.24267 3.97738 8.24267 4.46289V5.59035C7.81482 5.76121 7.41756 5.99219 7.06142 6.27344L6.08408 5.70918C5.66361 5.4666 5.12607 5.61039 4.88349 6.03086L4.00459 7.55312C3.76201 7.97359 3.9058 8.51113 4.32627 8.75371L5.30326 9.31797C5.27127 9.54086 5.25439 9.76832 5.25439 10C5.25439 10.2317 5.27127 10.4595 5.30326 10.682L4.32627 11.2463C3.9058 11.4889 3.76201 12.0264 4.00459 12.4469L4.88349 13.9691C5.12607 14.3896 5.66361 14.5334 6.08408 14.2908L7.06142 13.7266C7.41756 14.0078 7.81482 14.2388 8.24267 14.4096V15.5371C8.24267 16.0226 8.63607 16.416 9.12158 16.416H10.8794C11.3649 16.416 11.7583 16.0226 11.7583 15.5371V14.4096C12.1861 14.2388 12.5834 14.0078 12.9395 13.7266L13.9169 14.2908C14.3374 14.5334 14.8749 14.3896 15.1175 13.9691L15.9964 12.4469C16.239 12.0264 16.0952 11.4889 15.6747 11.2463ZM10.0005 12.1094C8.83541 12.1094 7.89111 11.1651 7.89111 10C7.89111 8.83492 8.83541 7.89062 10.0005 7.89062C11.1656 7.89062 12.1099 8.83492 12.1099 10C12.1099 11.1651 11.1656 12.1094 10.0005 12.1094Z" fill="url(#paint2_linear_3261_57186)"/>
<defs>
<linearGradient id="paint0_linear_3261_57186" x1="2.54441" y1="2.54441" x2="17.4556" y2="17.4556" gradientUnits="userSpaceOnUse">
<stop stop-color="#BFDBFF"/>
<stop offset="1" stop-color="#498ADE"/>
</linearGradient>
<linearGradient id="paint1_linear_3261_57186" x1="7.66902" y1="8.89368" x2="17.1094" y2="17.824" gradientUnits="userSpaceOnUse">
<stop stop-color="#296CC3" stop-opacity="0.35"/>
<stop offset="1" stop-color="#296CC3" stop-opacity="0"/>
</linearGradient>
<linearGradient id="paint2_linear_3261_57186" x1="10.0005" y1="7.8035" x2="10.0005" y2="15.6649" gradientUnits="userSpaceOnUse">
<stop stop-color="#FFFCF8"/>
<stop offset="0.1875" stop-color="#E4F2FF"/>
<stop offset="0.4041" stop-color="#E0EAFF"/>
<stop offset="0.6353" stop-color="#C9DAFF"/>
<stop offset="0.875" stop-color="#B2CBFF"/>
<stop offset="1" stop-color="#B2CBFF"/>
</linearGradient>
</defs>
</svg>
