<svg width="48" height="53" viewBox="0 0 48 53" fill="none" xmlns="http://www.w3.org/2000/svg">
<path fill-rule="evenodd" clip-rule="evenodd" d="M24.8125 47C37.2389 47 47.3125 36.9264 47.3125 24.5C47.3125 12.0736 37.2389 2 24.8125 2C12.3861 2 2.3125 12.0736 2.3125 24.5C2.3125 31.6342 5.63284 37.9929 10.8125 42.115V51.3258C10.8125 52.0825 11.6204 52.565 12.2866 52.2063L21.9762 46.9888C22.0515 46.9482 22.1187 46.9006 22.1777 46.8474C23.042 46.9482 23.9212 47 24.8125 47Z" fill="#003B0A"/>
<mask id="path-2-inside-1_3368_94975" fill="white">
<path fill-rule="evenodd" clip-rule="evenodd" d="M22.8125 45C35.2389 45 45.3125 34.9264 45.3125 22.5C45.3125 10.0736 35.2389 0 22.8125 0C10.3861 0 0.3125 10.0736 0.3125 22.5C0.3125 29.6342 3.63284 35.9929 8.8125 40.115V49.3258C8.8125 50.0825 9.62037 50.565 10.2866 50.2063L19.9762 44.9888C20.0515 44.9482 20.1187 44.9006 20.1777 44.8474C21.042 44.9482 21.9212 45 22.8125 45Z"/>
</mask>
<path fill-rule="evenodd" clip-rule="evenodd" d="M22.8125 45C35.2389 45 45.3125 34.9264 45.3125 22.5C45.3125 10.0736 35.2389 0 22.8125 0C10.3861 0 0.3125 10.0736 0.3125 22.5C0.3125 29.6342 3.63284 35.9929 8.8125 40.115V49.3258C8.8125 50.0825 9.62037 50.565 10.2866 50.2063L19.9762 44.9888C20.0515 44.9482 20.1187 44.9006 20.1777 44.8474C21.042 44.9482 21.9212 45 22.8125 45Z" fill="#478A14"/>
<path d="M8.8125 40.115H9.3125V39.8739L9.12385 39.7238L8.8125 40.115ZM10.2866 50.2063L10.0496 49.766L10.0495 49.766L10.2866 50.2063ZM19.9762 44.9888L19.7391 44.5486L19.7391 44.5486L19.9762 44.9888ZM20.1777 44.8474L20.2357 44.3507L20.011 44.3245L19.843 44.4759L20.1777 44.8474ZM44.8125 22.5C44.8125 34.6503 34.9628 44.5 22.8125 44.5V45.5C35.515 45.5 45.8125 35.2025 45.8125 22.5H44.8125ZM22.8125 0.5C34.9628 0.5 44.8125 10.3497 44.8125 22.5H45.8125C45.8125 9.79745 35.515 -0.5 22.8125 -0.5V0.5ZM0.8125 22.5C0.8125 10.3497 10.6622 0.5 22.8125 0.5V-0.5C10.11 -0.5 -0.1875 9.79745 -0.1875 22.5H0.8125ZM9.12385 39.7238C4.05827 35.6924 0.8125 29.4754 0.8125 22.5H-0.1875C-0.1875 29.793 3.20742 36.2933 8.50115 40.5063L9.12385 39.7238ZM9.3125 49.3258V40.115H8.3125V49.3258H9.3125ZM10.0495 49.766C9.71643 49.9454 9.3125 49.7041 9.3125 49.3258H8.3125C8.3125 50.4608 9.5243 51.1846 10.5237 50.6465L10.0495 49.766ZM19.7391 44.5486L10.0496 49.766L10.5237 50.6465L20.2132 45.429L19.7391 44.5486ZM19.843 44.4759C19.814 44.5021 19.7796 44.5267 19.7391 44.5486L20.2132 45.429C20.3234 45.3697 20.4235 45.299 20.5124 45.2188L19.843 44.4759ZM22.8125 44.5C21.9406 44.5 21.0807 44.4493 20.2357 44.3507L20.1198 45.344C21.0032 45.447 21.9018 45.5 22.8125 45.5V44.5Z" fill="black" mask="url(#path-2-inside-1_3368_94975)"/>
<path d="M31.3125 17L20.3125 28L15.3125 23" stroke="white" stroke-width="2.5" stroke-linecap="round" stroke-linejoin="round"/>
</svg>
