<svg width="64" height="64" viewBox="0 0 64 64" fill="none" xmlns="http://www.w3.org/2000/svg">
<rect width="64" height="64" fill="#D7FF82"/>
<path d="M51.7256 43.8154C51.7305 44.3869 51.3527 44.9631 50.597 45.3976L36.4507 53.5642C34.9535 54.4285 32.5305 54.4285 31.0427 53.5642L13.7335 43.5058C12.992 43.076 12.6234 42.5139 12.6188 41.9471L12.6094 38.0977C12.6094 38.6597 12.9825 39.2218 13.7194 39.6564L31.0332 49.7147C32.521 50.5791 34.944 50.5791 36.4412 49.7147L50.5827 41.5482C51.3384 41.1136 51.7164 40.5374 51.7164 39.9659L51.7256 43.8154Z" fill="#D7FF82"/>
<path d="M33.7438 54.4915C32.7132 54.4915 31.6841 54.2647 30.9016 53.8097L13.5924 43.7509C12.7893 43.2856 12.3433 42.6459 12.3371 41.9504L12.3281 38.1059C12.3281 38.1039 12.3281 38.1018 12.3281 38.0997C12.3281 37.9439 12.4543 37.8171 12.6108 37.8164C12.7665 37.8164 12.8927 37.9426 12.8934 38.0983V38.1039C12.8955 38.5816 13.2401 39.0469 13.864 39.4143L31.176 49.4717C32.5836 50.2893 34.884 50.29 36.3012 49.471L50.4423 41.3045C51.0738 40.9419 51.435 40.4545 51.435 39.9671C51.435 39.8114 51.5611 39.6852 51.7176 39.6845C51.8734 39.6845 51.9995 39.8107 52.0002 39.9665L52.0092 43.8143C52.0147 44.5092 51.5515 45.1758 50.7387 45.6438L36.5928 53.8104C35.8056 54.2647 34.7744 54.4915 33.7438 54.4915ZM12.8961 39.3757L12.9023 41.9476C12.9065 42.4336 13.2518 42.901 13.8757 43.2629L31.1857 53.3217C32.5933 54.1392 34.8929 54.1399 36.3102 53.321L50.4568 45.1544C51.0882 44.7911 51.4481 44.3045 51.4439 43.8185C51.4439 43.8185 51.4439 43.8178 51.4439 43.8171L51.4384 41.2438C51.2454 41.4465 51.0055 41.6326 50.7243 41.7939L36.5839 49.9605C35.0108 50.869 32.4568 50.8697 30.892 49.9598L13.5786 39.9017C13.3097 39.7431 13.0816 39.5666 12.8961 39.3757Z" fill="black"/>
<path d="M13.7386 36.5232C12.24 37.3885 12.2319 38.7919 13.7209 39.6572L31.031 49.7167C32.52 50.5821 34.9429 50.582 36.4415 49.7167L50.5849 41.5511C52.0867 40.684 52.0947 39.2806 50.6057 38.4153L33.2956 28.3558C31.8066 27.4904 29.3837 27.4905 27.882 28.3576L13.7386 36.5232Z" fill="white"/>
<path d="M33.7335 50.6426C32.7022 50.6426 31.673 50.4152 30.8899 49.9602L13.58 39.9007C12.7714 39.4306 12.3267 38.7888 12.3281 38.0939C12.3288 37.3949 12.7803 36.7497 13.5979 36.2775L27.7417 28.1123C29.3176 27.2031 31.8722 27.2017 33.4384 28.1109L50.7484 38.1704C51.5563 38.6399 52.0009 39.281 52.0002 39.9758C51.9989 40.6755 51.5467 41.3214 50.727 41.795L36.5839 49.9609C35.7967 50.4152 34.7647 50.6419 33.7335 50.6426ZM13.8805 36.7669C13.2443 37.1344 12.8934 37.6059 12.8927 38.0946C12.892 38.5799 13.2367 39.048 13.864 39.4126L31.1739 49.4721C32.5816 50.2897 34.8826 50.2904 36.3012 49.4715L50.4444 41.3056C51.0827 40.9374 51.435 40.4646 51.4357 39.9751C51.4364 39.4905 51.091 39.0225 50.4644 38.6585L33.1544 28.599C31.7447 27.78 29.4437 27.7814 28.0244 28.6017L13.8805 36.7669Z" fill="black"/>
<path d="M38.748 34.8819L38.8022 19.9805H34.8351L34.7812 34.8819H38.748Z" fill="#D7FF82"/>
<path d="M38.7491 35.1659H34.7826C34.7075 35.1659 34.6358 35.1356 34.5827 35.0825C34.5296 35.0294 34.5 34.957 34.5 34.8826L34.5538 19.9812C34.5545 19.8254 34.6806 19.6992 34.8364 19.6992H38.8035C38.8787 19.6992 38.9504 19.7295 39.0034 19.7826C39.0565 19.8357 39.0862 19.9081 39.0862 19.9825L39.0317 34.8847C39.031 35.0398 38.9049 35.1659 38.7491 35.1659ZM35.0659 34.6006H38.4678L38.5202 20.2645H35.1176L35.0659 34.6006Z" fill="black"/>
<path d="M24.1751 26.1328L24.1172 42.1388C24.1162 42.4334 24.3104 42.7285 24.7011 42.9537C25.4768 43.4009 26.7372 43.4009 27.5078 42.9537C27.8915 42.731 28.0829 42.4396 28.0839 42.1479L28.1422 26.1328H24.1751Z" fill="#D7FF82"/>
<path d="M26.108 43.5751C25.5524 43.5751 24.9961 43.4497 24.5611 43.1995C24.0931 42.9299 23.8352 42.5535 23.8359 42.1392L23.8938 26.1335C23.8945 25.9777 24.0207 25.8516 24.1765 25.8516H28.1436C28.2188 25.8516 28.2904 25.8819 28.3435 25.935C28.3966 25.9881 28.4262 26.0604 28.4262 26.1349L28.3683 42.1496C28.3663 42.5591 28.1119 42.9313 27.6514 43.1988C27.2192 43.4497 26.6636 43.5751 26.108 43.5751ZM24.4577 26.4168L24.4012 42.1406C24.4005 42.3405 24.5618 42.548 24.8431 42.71C25.531 43.1057 26.6864 43.1064 27.3674 42.7107C27.648 42.548 27.8024 42.3481 27.8031 42.1475L27.8603 26.4168H24.4577Z" fill="black"/>
<path d="M43.1517 24.8203L43.0938 40.8263C43.0927 41.1209 43.2869 41.416 43.6777 41.6412C44.4534 42.0884 45.7137 42.0884 46.4844 41.6412C46.868 41.4185 47.0595 41.1271 47.0605 40.8354L47.1188 24.8203H43.1517Z" fill="#D7FF82"/>
<path d="M45.0839 42.2626C44.5283 42.2626 43.972 42.1372 43.5377 41.887C43.0683 41.6167 42.8111 41.2404 42.8125 40.8261L42.8704 24.821C42.8711 24.6652 42.9972 24.5391 43.153 24.5391H47.1202C47.1953 24.5391 47.267 24.5694 47.3201 24.6225C47.3732 24.6756 47.4028 24.7479 47.4028 24.8231L47.3442 40.8378C47.3428 41.2466 47.0885 41.6188 46.6266 41.8863C46.1951 42.1372 45.6395 42.2626 45.0839 42.2626ZM43.4343 25.1043L43.3778 40.8281C43.3764 41.028 43.5377 41.2355 43.8196 41.3975C44.5062 41.7932 45.6622 41.7939 46.3433 41.3982C46.6197 41.2376 46.779 41.0329 46.779 40.8357L46.8369 25.1043H43.4343Z" fill="black"/>
<path d="M32.4955 30.9727L32.4375 46.9786C32.4365 47.2733 32.6307 47.5684 33.0214 47.7936C33.7971 48.2408 35.0575 48.2408 35.8281 47.7935C36.2118 47.5708 36.4032 47.2795 36.4043 46.9878L36.4625 30.9727H32.4955Z" fill="#D7FF82"/>
<path d="M34.4283 48.4157C33.872 48.4157 33.3157 48.2902 32.8814 48.04C32.4134 47.7698 32.1556 47.3934 32.1563 46.9798L32.2142 30.9733C32.2148 30.8176 32.341 30.6914 32.4968 30.6914H36.4639C36.5391 30.6914 36.6108 30.7217 36.6638 30.7748C36.7169 30.8279 36.7466 30.9003 36.7466 30.9747L36.688 46.9908C36.6866 47.3989 36.4322 47.7718 35.9717 48.0393C35.5395 48.2902 34.9839 48.4157 34.4283 48.4157ZM32.778 31.2567L32.7215 46.9812C32.7208 47.1804 32.8821 47.3879 33.1641 47.5506C33.8493 47.9455 35.0053 47.9469 35.6877 47.5512C35.9642 47.3906 36.1227 47.1859 36.1227 46.9887L36.1806 31.2567H32.778Z" fill="black"/>
<path d="M27.1986 15.5469L27.1406 33.2446C27.1396 33.5392 27.3338 33.8343 27.7245 34.0596C28.5003 34.5067 29.7606 34.5067 30.5313 34.0595C30.9149 33.8368 31.1064 33.5455 31.1074 33.2538L31.1657 15.5469H27.1986Z" fill="#D7FF82"/>
<path d="M29.1314 34.6808C28.5758 34.6808 28.0195 34.5561 27.5852 34.3058C27.1165 34.0356 26.8587 33.6592 26.8594 33.2456L26.9173 15.5476C26.918 15.3918 27.0441 15.2656 27.1999 15.2656H31.1671C31.2422 15.2656 31.3139 15.296 31.367 15.349C31.42 15.4021 31.4497 15.4738 31.4497 15.5489L31.3918 33.256C31.3897 33.6654 31.1347 34.0377 30.6749 34.3051C30.2426 34.5554 29.687 34.6808 29.1314 34.6808ZM27.4812 15.8309L27.4246 33.247C27.4239 33.4462 27.5852 33.6537 27.8672 33.8164C28.5531 34.2114 29.7084 34.2114 30.3915 33.8171C30.6673 33.6565 30.8258 33.4517 30.8265 33.2539L30.8837 15.8309H27.4812Z" fill="black"/>
<path d="M16.5423 21.6992L16.4844 37.7052C16.4834 37.9998 16.6775 38.2949 17.0683 38.5201C17.844 38.9673 19.1044 38.9673 19.875 38.5201C20.2586 38.2974 20.4501 38.006 20.4511 37.7143L20.5094 21.6992H16.5423Z" fill="#D7FF82"/>
<path d="M18.4745 39.1415C17.9189 39.1415 17.3626 39.0161 16.9283 38.7659C16.4589 38.4956 16.2018 38.1193 16.2031 37.705L16.261 21.6999C16.2617 21.5441 16.3879 21.418 16.5437 21.418H20.5108C20.5859 21.418 20.6576 21.4483 20.7107 21.5014C20.7638 21.5545 20.7934 21.6268 20.7934 21.702L20.7348 37.7167C20.7335 38.1255 20.4791 38.4977 20.0172 38.7652C19.5857 39.0161 19.0301 39.1415 18.4745 39.1415ZM16.8249 21.9832L16.7684 37.707C16.767 37.9069 16.9283 38.1144 17.2103 38.2764C17.8968 38.6721 19.0529 38.6728 19.7339 38.2771C20.0145 38.1144 20.1696 37.9145 20.1696 37.7146L20.2275 21.9832H16.8249Z" fill="black"/>
<path d="M41.6209 20.2009C41.3524 20.0451 40.9977 20.0934 40.6434 20.2976C40.2673 20.5178 39.8859 20.9099 39.6173 21.4203L30.3833 38.7119C29.8624 39.6949 29.9642 40.5759 30.4478 40.8552L12.6899 30.5377C12.2121 30.2584 12.1045 29.3721 12.6309 28.3891L21.8597 11.1028C22.1335 10.5925 22.5096 10.195 22.8857 9.98012C23.2401 9.77599 23.5947 9.72229 23.8688 9.88343L41.6209 20.2009Z" fill="#D7FF82"/>
<path d="M30.3845 38.7155C29.862 39.6967 29.9682 40.579 30.448 40.8614L12.6878 30.5414C12.215 30.259 12.1023 29.3767 12.6317 28.3955L21.8574 11.1084C22.1328 10.5932 22.5068 10.1979 22.888 9.98611C23.2409 9.78138 23.5939 9.72494 23.8693 9.88728L28.6691 12.6755C23.1279 13.5085 18.8643 18.6332 18.8643 24.8237C18.8643 31.5932 23.9682 37.092 30.2574 37.092C30.6034 37.092 30.9422 37.0779 31.281 37.0426L30.3845 38.7155Z" fill="#C0E867"/>
<path d="M30.4459 41.1399C30.3976 41.1399 30.3494 41.1275 30.3046 41.102C30.3032 41.1006 30.3018 41.0999 30.3004 41.0992L12.5458 30.784C11.8868 30.398 11.8158 29.3122 12.3804 28.2582L21.6093 10.9717C21.8974 10.434 22.311 9.98389 22.7439 9.73642C23.2092 9.46895 23.6587 9.43449 24.0102 9.64198L41.7586 19.9572C41.7593 19.9572 41.76 19.9579 41.7607 19.9586C41.8951 20.0365 41.942 20.2095 41.8634 20.3446C41.7848 20.4798 41.6104 20.5259 41.4781 20.4467C41.3112 20.3508 41.0576 20.3867 40.7818 20.5439C40.4289 20.7514 40.0939 21.1195 39.865 21.5537L30.6306 38.8472C30.1832 39.6916 30.2584 40.4196 30.5851 40.6119L30.5879 40.6133C30.7223 40.6912 30.7685 40.8642 30.6899 40.9986C30.6375 41.0889 30.5431 41.1399 30.4459 41.1399ZM23.5043 10.0728C23.325 10.0728 23.1396 10.1604 23.0245 10.2265C22.6805 10.423 22.3462 10.7918 22.107 11.2385L12.8781 28.5243C12.4252 29.3708 12.5003 30.1029 12.8305 30.2966L29.7565 40.13C29.7179 39.6764 29.8413 39.1312 30.1322 38.5818L39.3666 21.289C39.6424 20.7658 40.0546 20.3157 40.4985 20.0558C40.5523 20.0248 40.6067 19.9965 40.6598 19.9717L23.7248 10.1293C23.6566 10.0894 23.5808 10.0728 23.5043 10.0728Z" fill="black"/>
<path d="M40.6377 20.2989C41.0149 20.0812 41.3928 20.0397 41.668 20.234L50.9654 26.8268C51.7606 27.3901 51.1342 29.3701 49.9475 30.0553L31.4136 40.7558C30.2269 41.441 29.5913 40.1895 30.3805 38.7115L39.6103 21.4221C39.8837 20.9109 40.2604 20.5168 40.6377 20.2989Z" fill="white"/>
<path d="M49.9483 30.0535L31.4189 40.7546C30.226 41.4394 29.5907 40.1899 30.3814 38.7147L31.9273 35.8134C32.0613 35.8205 32.1954 35.8205 32.3367 35.8205C40.2355 35.8205 46.645 31.2323 46.645 25.5852C46.645 24.8935 46.5461 24.2158 46.3696 23.5664L50.9651 26.8276C51.7626 27.3923 51.1343 29.3687 49.9483 30.0535Z" fill="#E9EDF4"/>
<path d="M30.7903 41.2327C30.5338 41.2327 30.3029 41.1431 30.1175 40.9631C29.6218 40.4841 29.628 39.5259 30.1333 38.5794L39.3636 21.2894C39.6517 20.7497 40.055 20.3113 40.4982 20.0548C40.989 19.7715 41.4757 19.7529 41.8328 20.0038L51.1306 26.5973C51.4594 26.8303 51.6269 27.2481 51.6028 27.774C51.5648 28.5978 51.0216 29.7628 50.0904 30.3005L31.5568 41.0011C31.2886 41.1555 31.0281 41.2327 30.7903 41.2327ZM41.2606 20.3926C41.0704 20.3926 40.876 20.4891 40.7808 20.5443C40.4327 20.7448 40.0977 21.1136 39.8613 21.5555L30.631 38.8455C30.2085 39.6375 30.2505 40.3062 30.5097 40.5571C30.7344 40.7743 31.0853 40.6212 31.2742 40.5116L49.8077 29.811C50.5377 29.3898 51.0072 28.431 51.0389 27.7478C51.0472 27.5583 51.0285 27.217 50.8038 27.0578L41.5067 20.465C41.4323 20.4126 41.3468 20.3926 41.2606 20.3926Z" fill="black"/>
<path d="M40.6755 26.2995C42.005 25.5319 43.0737 26.1668 43.078 27.677C43.0823 29.2051 42.0207 31.0524 40.6911 31.82C39.3692 32.5832 38.2856 31.9744 38.2813 30.4463C38.277 28.936 39.3536 27.0626 40.6755 26.2995Z" fill="#D7FF82"/>
<path d="M39.6158 32.4306C39.338 32.4306 39.0788 32.3651 38.8472 32.2321C38.304 31.9198 38.0028 31.2849 38 30.4453C37.9959 28.8329 39.1333 26.8628 40.5361 26.0528C41.2661 25.6316 41.9692 25.5731 42.5131 25.8853C43.0584 26.199 43.3596 26.8345 43.3624 27.6742C43.3665 29.3141 42.256 31.2415 40.8339 32.0625C40.4099 32.3072 39.9956 32.4306 39.6158 32.4306ZM41.7459 26.252C41.4674 26.252 41.1517 26.3492 40.8187 26.5423C39.5931 27.2495 38.5611 29.0363 38.5653 30.4439C38.5666 31.0733 38.7672 31.5345 39.1291 31.7426C39.4931 31.9515 39.9991 31.8929 40.5513 31.5731C41.7934 30.8561 42.8013 29.108 42.7971 27.6755C42.7957 27.0455 42.5945 26.5836 42.2312 26.3748C42.0892 26.2927 41.9251 26.252 41.7459 26.252Z" fill="black"/>
</svg>
