<svg width="41" height="40" viewBox="0 0 41 40" fill="none" xmlns="http://www.w3.org/2000/svg">
<rect x="0.132812" width="40" height="40" rx="12" fill="url(#paint0_linear_3368_98201)"/>
<path d="M27.7417 23.7062L27.7417 23.7062C27.9295 23.2533 28.2514 22.8268 28.5413 22.4427L28.5632 22.4137L28.5634 22.4135C29.0978 21.7059 29.5002 21.143 29.5002 20.5C29.5002 19.857 29.0978 19.2941 28.5634 18.5865L28.5632 18.5863L28.5412 18.5571C28.2513 18.1731 27.9295 17.7466 27.7417 17.2939L27.7417 17.2938C27.5435 16.8158 27.4608 16.247 27.3915 15.7706L27.3876 15.7439C27.2607 14.8764 27.145 14.2095 26.7177 13.7824L26.7176 13.7823C26.2905 13.3553 25.6238 13.2395 24.7564 13.1127C24.7564 13.1127 24.7564 13.1127 24.7564 13.1127L24.7235 13.1079C24.2489 13.0386 23.6825 12.9559 23.2065 12.7586L27.7417 23.7062ZM27.7417 23.7062C27.5435 24.184 27.4608 24.7528 27.3915 25.229L27.3876 25.2561C27.2607 26.1236 27.145 26.7905 26.7177 27.2176L26.7176 27.2176C26.2905 27.6447 25.6238 27.7604 24.7564 27.8873C24.7564 27.8873 24.7564 27.8873 24.7564 27.8873L24.7233 27.8922C24.2487 27.9614 23.6824 28.0441 23.2065 28.2414L27.7417 23.7062ZM21.9139 29.0633L21.9423 29.0418C22.3265 28.7516 22.753 28.4294 23.2064 28.2414L21.9139 29.0633ZM21.9139 29.0633C21.9138 29.0633 21.9138 29.0634 21.9138 29.0634C21.206 29.5976 20.6432 30 20.0003 30C19.357 30 18.7945 29.5976 18.0867 29.0634C18.0867 29.0634 18.0867 29.0633 18.0866 29.0633L18.0597 29.043C17.675 28.7523 17.2478 28.4296 16.7941 28.2415L16.7941 28.2414C16.3181 28.0441 15.7517 27.9614 15.2771 27.8921L15.2441 27.8873M21.9139 29.0633L15.2441 27.8873M15.2441 27.8873C14.3765 27.7605 13.7097 27.6447 13.2826 27.2177C12.8555 26.7905 12.7395 26.1234 12.613 25.2563L12.6129 25.2562L12.6081 25.2233C12.5389 24.7486 12.4562 24.1822 12.2588 23.7062L12.2588 23.7061C12.0707 23.2526 11.7481 22.8255 11.4575 22.4409L11.4369 22.4136C10.9026 21.7058 10.5 21.143 10.5 20.5C10.5 19.857 10.9026 19.2942 11.4369 18.5864M15.2441 27.8873L11.4369 18.5864M11.4369 18.5864C11.4437 18.5774 11.4505 18.5684 11.4573 18.5594C11.748 18.1747 12.0707 17.7475 12.2588 17.2939L12.2588 17.2938C12.4562 16.8178 12.5389 16.2514 12.6081 15.7767C12.6097 15.7657 12.6113 15.7547 12.6129 15.7438L12.613 15.7437C12.7395 14.8766 12.8555 14.2094 13.2826 13.7824C13.7097 13.3553 14.3764 13.2396 15.2441 13.1127L11.4369 18.5864ZM16.7941 12.7585L16.7941 12.7586C16.3181 12.9559 15.7516 13.0386 15.277 13.1079C15.266 13.1095 15.255 13.1111 15.2441 13.1127L16.7941 12.7585ZM16.7941 12.7585C17.2477 12.5704 17.6747 12.2478 18.0594 11.9573M16.7941 12.7585L18.0594 11.9573M18.0594 11.9573C18.0685 11.9504 18.0776 11.9435 18.0867 11.9366M18.0594 11.9573L18.0867 11.9366M18.0867 11.9366C18.7945 11.4024 19.357 11 20.0003 11M18.0867 11.9366L20.0003 11M20.0003 11C20.6433 11 21.2061 11.4025 21.9139 11.9367M20.0003 11L21.9139 11.9367M21.9139 11.9367L21.9426 11.9584C22.3267 12.2486 22.7531 12.5707 23.2064 12.7586L21.9139 11.9367Z" fill="url(#paint1_linear_3368_98201)" stroke="url(#paint2_linear_3368_98201)"/>
<path d="M24.9711 19.0002L19.3829 24.5884C19.1506 24.8207 18.774 24.8207 18.5417 24.5884L15.0258 21.0725C14.7935 20.8402 14.7935 20.4636 15.0258 20.2313L15.8817 19.3754C16.114 19.1431 16.4906 19.1431 16.7229 19.3754L18.9623 21.6148L23.274 17.3031C23.5063 17.0708 23.8829 17.0708 24.1152 17.3031L24.9711 18.159C25.2034 18.3913 25.2034 18.7679 24.9711 19.0002Z" fill="white"/>
<defs>
<linearGradient id="paint0_linear_3368_98201" x1="8.40102" y1="6.71592" x2="31.3828" y2="43.75" gradientUnits="userSpaceOnUse">
<stop stop-color="#BFDBFF"/>
<stop offset="1" stop-color="#F0F6FF"/>
</linearGradient>
<linearGradient id="paint1_linear_3368_98201" x1="22.9167" y1="27.1667" x2="19.3486" y2="11.7113" gradientUnits="userSpaceOnUse">
<stop stop-color="#498ADE" stop-opacity="0.2"/>
<stop offset="1" stop-color="#498ADE"/>
</linearGradient>
<linearGradient id="paint2_linear_3368_98201" x1="19.1667" y1="11.3333" x2="20.0001" y2="30.5" gradientUnits="userSpaceOnUse">
<stop stop-color="white" stop-opacity="0"/>
<stop offset="1" stop-color="#498ADE"/>
</linearGradient>
</defs>
</svg>
