<svg width="16" height="16" viewBox="0 0 16 16" fill="none" xmlns="http://www.w3.org/2000/svg">
<path d="M8.0026 1.33203C4.32927 1.33203 1.33594 4.32536 1.33594 7.9987C1.33594 11.672 4.32927 14.6654 8.0026 14.6654C11.6759 14.6654 14.6693 11.672 14.6693 7.9987C14.6693 4.32536 11.6759 1.33203 8.0026 1.33203ZM10.2426 9.53203C10.4359 9.72536 10.4359 10.0454 10.2426 10.2387C10.1426 10.3387 10.0159 10.3854 9.88927 10.3854C9.7626 10.3854 9.63594 10.3387 9.53594 10.2387L8.0026 8.70536L6.46927 10.2387C6.36927 10.3387 6.2426 10.3854 6.11594 10.3854C5.98927 10.3854 5.8626 10.3387 5.7626 10.2387C5.56927 10.0454 5.56927 9.72536 5.7626 9.53203L7.29594 7.9987L5.7626 6.46536C5.56927 6.27203 5.56927 5.95203 5.7626 5.7587C5.95594 5.56536 6.27594 5.56536 6.46927 5.7587L8.0026 7.29203L9.53594 5.7587C9.72927 5.56536 10.0493 5.56536 10.2426 5.7587C10.4359 5.95203 10.4359 6.27203 10.2426 6.46536L8.70927 7.9987L10.2426 9.53203Z" fill="#FF3D4B"/>
</svg>
