<svg width="29" height="28" viewBox="0 0 29 28" fill="none" xmlns="http://www.w3.org/2000/svg">
<path d="M20.8332 24.5927C23.4961 22.3573 25.1895 19.0033 25.1895 15.2539C25.1895 8.52294 19.7329 3.06641 13.002 3.06641C10.0205 3.06641 7.28859 4.13725 5.17069 5.9151C2.50777 8.15046 0.814453 11.5045 0.814453 15.2539C0.814453 21.9849 6.27098 27.4414 13.002 27.4414C15.9834 27.4414 18.7153 26.3706 20.8332 24.5927Z" fill="#FADE66" stroke="#141414" stroke-width="0.375"/>
<path d="M13.505 3.07646L16.1341 0.870309C22.5977 0.906751 27.8316 6.13436 27.8783 12.5954L25.1831 14.857C24.979 8.47685 19.8712 3.3349 13.505 3.07646Z" fill="#FADE66" stroke="#141414" stroke-width="0.375" stroke-linejoin="round"/>
<path d="M23.6565 21.7342L22.8953 22.3729C24.3231 20.3922 25.1709 17.9654 25.1894 15.3415L27.872 13.0905C27.7543 16.5592 26.1412 19.6485 23.6565 21.7342Z" fill="#FADE66" stroke="#141414" stroke-width="0.375" stroke-linejoin="round"/>
<path d="M12.9333 3.06646C11.0642 3.07674 9.29454 3.50785 7.71447 4.26981L8.47572 3.63105L8.47574 3.63103C10.4027 2.01347 12.8533 0.999997 15.5369 0.881749L12.9333 3.06646Z" fill="#FADE66" stroke="#141414" stroke-width="0.375" stroke-linejoin="round"/>
<path d="M11.5005 23.9932C14.4359 23.9932 21.6923 23.6286 23.7787 21.8786L20.7153 24.4491C18.5691 26.6826 13.4121 28.2199 9.41211 26.7199L11.5005 23.9932Z" fill="#141414"/>
<circle cx="16.0664" cy="12.6826" r="12.1875" fill="#FADE66" stroke="#141414" stroke-width="0.375"/>
<path d="M23.4254 3.20392C22.1806 2.23753 20.7577 1.52577 19.2379 1.10929C17.718 0.692809 16.131 0.579759 14.5675 0.776595C13.004 0.973431 11.4946 1.4763 10.1254 2.25648C8.7562 3.03667 7.5541 4.0789 6.58771 5.32366C5.62132 6.56842 4.90956 7.99133 4.49308 9.51117C4.0766 11.031 3.96355 12.618 4.16038 14.1815C4.35722 15.745 4.86009 17.2545 5.64027 18.6236C6.42046 19.9928 7.46269 21.1949 8.70745 22.1613L16.0664 12.6826L23.4254 3.20392Z" fill="#EACE01"/>
<path d="M11.9504 13.3346V12.0146H15.9824V16.6826H14.6264V14.9666C14.0744 16.1066 13.0544 16.9226 11.5544 16.9226C9.39441 16.9226 7.46241 15.2306 7.46241 12.4586C7.46241 9.66262 9.41841 7.65862 11.8664 7.65862C13.9664 7.65862 15.8864 9.20662 15.9104 11.2466H14.1224C14.0864 10.0706 13.1144 9.21862 11.8664 9.21862C10.2344 9.21862 9.23841 10.6346 9.23841 12.2906C9.23841 13.8386 10.0424 15.3506 11.7464 15.3506C12.9704 15.3506 13.8584 14.5706 14.0504 13.3346H11.9504ZM24.7276 11.6306H22.9396C22.8916 10.2266 21.8956 9.23062 20.5636 9.23062C18.8716 9.23062 17.8756 10.6106 17.8756 12.2906C17.8756 13.9586 18.8116 15.3506 20.6116 15.3506C21.8956 15.3506 22.9156 14.5946 22.9876 13.2746H24.7876C24.6076 15.4946 22.7116 16.9226 20.6116 16.9226C18.0796 16.9226 16.0996 14.9786 16.0996 12.2906C16.0996 9.66262 18.0796 7.65862 20.5636 7.65862C22.7596 7.65862 24.6916 9.36262 24.7276 11.6306Z" fill="#141414"/>
</svg>
