<svg width="19" height="24" viewBox="0 0 19 24" fill="none" xmlns="http://www.w3.org/2000/svg">
<path d="M18.1145 4.59737L17.953 3.45238L16.827 3.7171C16.8202 3.7171 16.1083 3.88303 15.0698 3.88303C14.4556 3.88412 13.8427 3.82562 13.2397 3.70834C11.3979 3.34484 10.0768 1.95412 10.0656 1.94293L9.29235 1.10693L8.51913 1.94293C8.50648 1.95704 7.17999 3.34581 5.34499 3.70834C4.74203 3.82562 4.12912 3.88412 3.51486 3.88303C2.47595 3.88303 1.76307 3.71856 1.76307 3.71758L0.631709 3.44411L0.470152 4.59737C0.414679 4.99882 -0.843683 14.4838 3.04237 18.4482C6.70019 22.1814 8.77946 22.8495 9.00476 22.9138L9.29235 22.9955L9.57994 22.9138C9.80475 22.8495 11.8845 22.1839 15.5423 18.4482C19.4269 14.4848 18.1695 4.99979 18.1145 4.59737Z" fill="#24281D"/>
<path d="M9.29158 23.2391L8.93977 23.1393C8.70912 23.0741 6.57534 22.3895 2.8742 18.6139C-1.0897 14.5687 0.1818 4.9733 0.237759 4.56699L0.432403 3.15582L1.81534 3.49012C2.37474 3.60061 2.94391 3.65392 3.51409 3.64925C4.11319 3.65043 4.71097 3.59322 5.29897 3.47845C7.05562 3.13198 8.33491 1.79624 8.34805 1.78262L9.29158 0.760742L10.2366 1.78262C10.2473 1.7943 11.5314 3.13101 13.2842 3.47699C13.8722 3.59176 14.47 3.64897 15.0691 3.64779C16.0734 3.64779 16.7659 3.48915 16.7722 3.48769L18.1478 3.1641L18.3425 4.56309C18.3984 4.9699 19.6695 14.5653 15.7056 18.6105C12.0073 22.387 9.87114 23.0717 9.64 23.1359L9.29158 23.2391ZM0.824611 3.73294L0.702959 4.63025C0.647973 5.02732 -0.594823 14.4023 3.20996 18.2854C6.82643 21.9759 8.85023 22.6274 9.06921 22.6892L9.29305 22.753L9.5164 22.6892C9.73586 22.6274 11.7597 21.9759 15.3756 18.2854C19.1809 14.4023 17.9381 5.02732 17.8831 4.63025L17.7576 3.73975L16.8817 3.94559C16.8763 3.94559 16.1386 4.11785 15.071 4.11785C14.4415 4.11909 13.8134 4.05896 13.1956 3.93829C11.2818 3.56068 9.90958 2.11838 9.89595 2.10378L9.29353 1.45221L8.69209 2.10232C8.67944 2.11643 7.31012 3.56214 5.39191 3.93829C4.77393 4.05888 4.14568 4.11901 3.51604 4.11785C2.45037 4.11785 1.71559 3.94802 1.70829 3.94656L0.824611 3.73294Z" fill="#3A3103"/>
<path d="M18.1145 4.59737L17.953 3.45238L16.827 3.7171C16.8202 3.7171 16.1083 3.88303 15.0698 3.88303C14.4556 3.88412 13.8427 3.82562 13.2397 3.70834C11.3979 3.34484 10.0768 1.95412 10.0656 1.94293L9.29235 1.10693L8.51913 1.94293C8.50648 1.95704 7.17999 3.34581 5.34499 3.70834C4.74203 3.82562 4.12912 3.88412 3.51486 3.88303C2.47595 3.88303 1.76307 3.71856 1.76307 3.71758L0.631709 3.44411L0.470152 4.59737C0.414679 4.99882 -0.843683 14.4838 3.04237 18.4482C6.70019 22.1814 8.77946 22.8495 9.00476 22.9138L9.29235 22.9955L9.57994 22.9138C9.80475 22.8495 11.8845 22.1839 15.5423 18.4482C19.4269 14.4848 18.1695 4.99979 18.1145 4.59737Z" fill="url(#paint0_linear_1875_186908)"/>
<path d="M17.3586 4.70096L17.3138 4.38126L17 4.45669C16.9922 4.45669 16.2087 4.64355 15.0672 4.64355C14.4034 4.64463 13.7411 4.58124 13.0896 4.45426C10.9918 4.04015 9.51887 2.47474 9.50427 2.45916L9.28967 2.22754L9.07508 2.45916C9.06048 2.47474 7.58752 4.04015 5.48975 4.45426C4.83825 4.58124 4.17595 4.64463 3.51218 4.64355C2.37011 4.64355 1.58668 4.45863 1.57938 4.45669L1.26502 4.38078L1.22075 4.70096C1.16771 5.09025 -0.0444372 14.2151 3.58274 17.9163C7.16368 21.5707 9.13006 22.159 9.20987 22.1823L9.28967 22.2047L9.36948 22.1823C9.45123 22.159 11.4132 21.5707 14.9966 17.9163C18.6233 14.2151 17.4116 5.08782 17.3586 4.70096Z" fill="#1C1E19"/>
<path d="M17.0694 4.74284C17.0694 4.74284 15.2563 5.18078 13.0334 4.74284C10.8106 4.30489 9.29045 2.65967 9.29045 2.65967C9.29045 2.65967 7.76979 4.30489 5.54697 4.74284C3.32415 5.18078 1.51105 4.74284 1.51105 4.74284C1.51105 4.74284 0.22446 14.0726 3.79227 17.7134C7.36007 21.3542 9.29093 21.9026 9.29093 21.9026C9.29093 21.9026 11.2208 21.3546 14.7896 17.7134C18.3584 14.0721 17.0694 4.74284 17.0694 4.74284Z" fill="#2D3026"/>
<path d="M5.54697 4.74332C3.32463 5.18126 1.51105 4.74332 1.51105 4.74332C1.51105 4.74332 0.22446 14.073 3.79227 17.7138C7.36007 21.3546 9.29093 21.903 9.29093 21.903V2.65869C9.29093 2.65869 7.76979 4.30537 5.54697 4.74332Z" fill="#2D3026"/>
<path d="M13.0427 8.70032C13.0427 8.43755 12.7167 6.7281 12.4203 5.60209C10.5484 5.12862 9.28854 3.76758 9.28854 3.76758C9.13211 3.92897 8.96621 4.08089 8.79171 4.22256C8.7304 4.71354 8.68369 5.25465 8.67055 5.30623C8.62189 5.50087 8.91774 5.82836 8.91774 5.82836C8.91774 5.82836 8.91774 9.63071 9.23111 13.1095C9.40337 15.0155 9.31092 16.4126 9.22722 17.1483C9.28318 15.5279 8.75473 10.2828 8.73234 10.1071C8.70752 9.91246 8.33722 6.01425 8.33722 5.58457C8.33722 5.47314 8.3523 5.01329 8.3742 4.5442C8.09427 4.74446 7.80061 4.92479 7.49539 5.08385C7.56011 5.72471 7.73869 7.53879 7.70852 7.85752C7.67349 8.2468 7.60828 10.5105 7.60828 10.5105C7.60828 10.5105 7.49734 7.45898 7.42337 6.87797C7.33239 6.34505 7.19614 5.82086 7.01608 5.3111C6.64977 5.46815 6.26818 5.58687 5.87742 5.66535C3.85216 6.06534 2.19963 5.66535 2.19963 5.66535C2.19963 5.66535 1.04638 14.035 4.20397 17.4052C4.11298 15.1625 3.8541 9.09788 3.69352 8.44728C3.49596 7.6473 3.00205 6.37288 2.84147 6.70961C2.68089 7.04634 2.23613 9.04532 2.23613 9.04532C2.23613 9.04532 2.35973 6.98795 2.56995 6.50767C2.78016 6.02738 3.422 5.80841 3.71785 6.86143C3.96116 7.73343 4.15872 14.963 4.21809 17.4208C4.23804 17.4422 4.25799 17.4641 4.27843 17.485C5.31928 18.5473 6.20587 19.3196 6.93189 19.8796C6.8409 16.6997 6.76888 13.6632 6.76888 13.6632C6.76888 13.6632 7.04479 16.8096 7.34064 20.1838C8.6175 21.1083 9.28708 21.3005 9.28708 21.3005C9.28708 21.3005 10.6773 20.9044 13.2695 18.4865C13.1444 14.0861 13.0427 9.00299 13.0427 8.70032ZM2.29988 9.8964C2.4298 9.18255 2.73199 7.65363 3.00206 7.74852C3.3602 7.87503 3.66871 9.29009 3.64389 10.2502C3.61907 11.2102 3.39718 9.47159 3.1748 8.99715C2.98551 8.59424 2.48382 9.22294 2.2989 9.8964C2.25706 10.1305 2.23322 10.2769 2.23516 10.2502C2.24582 10.1305 2.26748 10.0121 2.29988 9.8964ZM9.14644 17.7103C9.13963 17.7434 9.14061 17.7434 9.14644 17.7103V17.7103ZM10.9883 12.4803C11.0622 13.3109 11.1732 16.9303 11.1732 16.9303C10.8637 15.6015 10.6654 14.2493 10.5805 12.8876C10.4321 10.5884 11.0252 9.34994 11.3707 9.29933C11.7162 9.24873 11.8423 9.7037 11.8423 9.7037C11.8423 9.7037 11.5809 9.42585 11.1732 9.80492C10.7654 10.184 10.9138 11.6496 10.9883 12.4803ZM11.6179 14.1255C11.3216 13.3173 11.4661 9.04046 12.1391 11.3713C12.3989 12.2725 11.9143 14.9342 11.6179 14.1255Z" fill="url(#paint1_linear_1875_186908)"/>
<path d="M13.589 6.70929C13.589 7.265 13.626 13.2517 13.589 14.4391C13.5754 14.877 13.5715 16.4268 13.5725 18.2054C13.807 17.9806 14.0493 17.7417 14.3024 17.4842C14.6298 17.1446 14.9129 16.765 15.1452 16.3543C15.3549 15.0643 15.5121 13.8211 15.4474 13.1758C15.3131 11.8357 15.6556 13.4439 15.7286 15.0858C15.8992 14.6124 16.0389 14.1285 16.1471 13.6371C16.1203 13.0483 16.0985 10.3744 16.2386 10.5905C16.3422 10.7481 16.3228 12.1705 16.2659 13.0571C16.3593 12.5476 16.4279 12.0313 16.477 11.5209C16.4469 11.0518 16.3948 10.3963 16.3121 10.3043C16.1914 10.1715 15.9612 11.9102 15.9646 11.8766C16.062 10.8279 16.3053 9.81141 16.4425 10.045C16.4975 10.1379 16.5218 10.4897 16.5301 10.8693C16.6382 9.13279 16.5882 7.39005 16.3807 5.6626C16.3807 5.6626 16.2133 5.70299 15.9208 5.74532C15.95 6.41295 16.0279 8.2533 15.9977 8.14965C15.9607 8.02313 15.6148 5.8986 15.6148 5.8986L15.533 5.79252C15.3501 5.81053 15.1437 5.8261 14.9126 5.83388C14.9126 5.97111 14.934 6.24555 14.9666 6.57499C14.9495 6.41536 14.9227 6.25692 14.8863 6.10054C14.8407 5.99929 14.7725 5.90988 14.6868 5.83924C14.2878 5.84456 13.8889 5.82571 13.4922 5.78279C13.5087 5.93899 13.589 6.29957 13.589 6.70929ZM15.2192 8.8017C15.2192 8.8163 15.208 8.71119 15.189 8.5365C15.2075 8.68978 15.2192 8.78905 15.2192 8.80073V8.8017Z" fill="url(#paint2_linear_1875_186908)"/>
<path d="M9.29307 2.65869C9.29307 2.65869 7.77242 4.30537 5.54959 4.74332C3.32677 5.18126 1.51367 4.74332 1.51367 4.74332L2.20417 5.66787C2.20417 5.66787 5.09413 6.32917 7.02158 5.31362C8.94903 4.29807 9.29307 3.7701 9.29307 3.7701V2.65869Z" fill="#636B51"/>
<path opacity="0.31" d="M9.28906 2.65869C9.28906 2.65869 10.8097 4.30343 13.032 4.74186C15.2544 5.18029 17.068 4.74186 17.068 4.74186L16.3775 5.66641C16.3775 5.66641 13.4875 6.32771 11.5601 5.31216C9.6326 4.29661 9.28906 3.7701 9.28906 3.7701V2.65869Z" fill="#636B51"/>
<path d="M14.7872 17.7113C18.355 14.0705 17.068 4.74219 17.068 4.74219C17.068 4.74219 17.0407 4.749 16.9891 4.75971L16.3775 5.66674C16.6908 9.83356 16.7225 13.8116 14.9921 16.6028C13.2617 19.3939 9.28906 21.3034 9.28906 21.3034V21.9024C9.28906 21.9024 11.2189 21.3525 14.7872 17.7113Z" fill="#24281D"/>
<path d="M7.02061 5.31114C6.87463 5.17051 6.89993 5.23036 6.16905 5.56661C5.43816 5.90286 2.26499 5.6104 2.2504 5.56661L1.51367 4.77393L2.07473 5.6907C2.07473 5.6907 2.03093 5.71259 1.91366 7.89162C1.79639 10.0706 2.28348 12.8847 2.28348 12.8847C2.28348 12.8847 2.27959 12.3494 2.14772 10.5821C2.01585 8.81472 2.2504 5.80699 2.2504 5.80699C2.2504 5.80699 5.2333 5.97244 5.68633 5.87707C6.13936 5.78169 6.94421 5.44642 7.14616 5.72622C7.15491 5.73498 7.16611 5.45177 7.02061 5.31114Z" fill="#DADFC9"/>
<path d="M7.56981 6.58641L7.42383 5.02099L8.4715 4.45264L8.35665 4.9626C8.35665 4.9626 8.21067 4.83268 8.05107 4.87599C7.89146 4.91929 7.64183 5.5042 7.66178 5.66478C7.68173 5.82536 7.6866 8.2073 7.6866 8.2073L7.56981 6.58641Z" fill="#DADFC9"/>
<path d="M9.29098 4.0431L8.85741 4.26791L8.67299 5.30633C8.67299 5.30633 8.55183 4.31317 8.67299 4.26791C8.79416 4.22266 9.19366 3.77011 9.19366 3.77011L9.29098 2.66113L9.47151 3.77011C9.47151 3.77011 10.4073 4.71802 11.3727 5.08395C12.3381 5.44988 12.4836 5.5219 12.4836 5.5219L12.4393 5.66788C12.4393 5.66788 10.9922 5.25864 10.2467 4.67374C9.50119 4.08884 9.29098 4.0431 9.29098 4.0431Z" fill="#DADFC9"/>
<path d="M13.4905 18.3442C13.4905 18.3442 13.4589 11.9964 13.4905 10.1765C13.5222 8.35655 13.293 5.77509 13.293 5.77509C13.293 5.77509 13.6093 5.6223 13.8579 5.66609C14.1066 5.70989 14.6623 5.77509 14.6623 5.77509H15.6409L15.6121 5.9021C15.6121 5.9021 15.29 5.8403 15.1742 5.87777C15.0584 5.91524 14.8671 5.87096 14.8671 5.94395C14.8671 6.01694 14.6623 5.94395 14.6623 5.94395L13.5655 5.87777C13.5655 5.87777 13.6973 7.49428 13.6827 10.7988C13.6681 14.1034 13.7139 18.4172 13.4905 18.3442Z" fill="#DADFC9"/>
<path d="M15.9791 8.21973L15.9766 8.25568C15.9784 8.24378 15.9792 8.23176 15.9791 8.21973Z" fill="#DADFC9"/>
<path d="M16.9908 4.75861L16.3538 5.5435L15.8672 5.66515V5.77416C15.8672 5.77416 15.984 7.91085 15.9767 8.21887L16.1304 5.87683L16.4224 5.71868L17.0701 4.70508L16.9908 4.75861Z" fill="#DADFC9"/>
<path d="M15.394 15.8816L15.4261 12.6812L14.8105 16.9336C14.8105 16.9336 15.3862 16.519 15.3706 16.4125C15.3551 16.3059 15.394 15.8816 15.394 15.8816Z" fill="#24281D"/>
<path d="M11.7997 10.8739C11.7997 10.8739 11.6245 12.3293 11.6829 13.0802C11.7413 13.831 11.8236 14.36 11.7355 14.2767C11.6474 14.1935 11.2343 13.4009 11.4392 12.0019C11.644 10.6029 11.7997 10.688 11.7997 10.688V10.8739Z" fill="#24281D"/>
<path d="M6.81055 19.8189V13.5962L7.1502 20.0107L6.98037 20.7172L6.81055 19.8189Z" fill="#1C1E19"/>
<path d="M2.98135 8.04419C3.01655 8.01733 3.05764 7.99926 3.10123 7.99147C3.14481 7.98369 3.18962 7.98641 3.23195 7.99942C3.23195 7.99942 3.11711 7.69432 2.97599 7.74492C2.83487 7.79553 2.64023 8.14686 2.49863 8.79016C2.35703 9.43345 2.24219 10.2295 2.24219 10.2295C2.24219 10.2295 2.86894 8.13713 2.98135 8.04419Z" fill="#1C1E19"/>
<path d="M12.8506 5.72939L12.9873 4.70752L12.418 5.65981C12.418 5.65981 13.0506 8.65537 13.0442 8.60622C13.0379 8.55707 12.8506 5.72939 12.8506 5.72939Z" fill="#1C1E19"/>
<path d="M8.47523 2.31062C7.73024 2.95683 6.23684 3.90718 4.33274 4.08528C2.42864 4.26338 0.987313 3.67312 0.987313 3.67312C0.684643 3.5685 1.08999 4.29695 3.52692 4.45413C5.96385 4.6113 7.77744 3.30281 8.24702 2.95148C8.71659 2.60015 9.21974 1.66489 8.47523 2.31062Z" fill="white"/>
<path d="M9.29042 1.39165C9.2038 1.22183 9.04225 1.95563 9.13957 2.01402C9.2369 2.07242 9.46073 1.72498 9.29042 1.39165Z" fill="white"/>
<rect opacity="0.4" x="4" y="12.0415" width="7.10048" height="7.36814" transform="rotate(-45.2373 4 12.0415)" fill="#FFE98A"/>
<path opacity="0.52" d="M5.84804 12.1306L9.11708 8.86143V7.01367L4 12.1308L5.84804 12.1306Z" fill="#FFF4C4"/>
<path opacity="0.23" d="M12.3844 12.1313L9.11523 15.4007V17.2485L14.2324 12.1313H12.3844Z" fill="black"/>
<path d="M9.11523 8.86159L12.3844 12.1308H14.2324L9.11523 7.01367V8.86159Z" fill="url(#paint3_linear_1875_186908)"/>
<path opacity="0.4" d="M9.1149 15.4009L12.3841 12.1315L9.11474 8.8623L5.8457 12.1315L9.1149 15.4009Z" fill="url(#paint4_linear_1875_186908)"/>
<path d="M4 12.1308L5.75298 12.2256L9.11708 15.4001L6.00785 12.1839L9.15259 9.03904L12.3863 12.1308L9.22375 8.75476L9.11708 7.01367L8.98677 8.96788L5.91874 12.0359L4 12.1308Z" fill="#FFF4C4"/>
<path d="M9.31055 7.38574L9.39919 8.73614L12.4732 11.8101L13.9213 11.9966L9.31055 7.38574Z" fill="url(#paint5_linear_1875_186908)"/>
<path d="M4.42773 12.2681L5.77801 12.3571L8.8519 15.431L9.03878 16.8791L4.42773 12.2681Z" fill="url(#paint6_linear_1875_186908)"/>
<path opacity="0.25" d="M13.894 12.2979L12.5435 12.3868L9.46962 15.4606L9.2832 16.9087L13.894 12.2979Z" fill="url(#paint7_linear_1875_186908)"/>
<path d="M8.94097 7.34766L8.921 8.76693L5.84711 11.8408L4.33008 11.9585L8.94097 7.34766Z" fill="url(#paint8_linear_1875_186908)"/>
<path opacity="0.53" d="M8.01482 10.0337L10.8967 10.5406L12.3881 12.032L7.09111 11.0525L10.8927 13.5274L9.69635 14.7238L6.43945 11.609L8.01482 10.0337Z" fill="url(#paint9_linear_1875_186908)"/>
<path opacity="0.4" d="M5.92161 12.2688C5.92161 12.2688 7.03358 13.8455 8.72729 12.27C9.9053 11.1746 12.2139 12.0688 12.2139 12.0688C12.2139 12.0688 9.22002 9.21711 9.13118 9.18145C9.04219 9.14598 5.51284 12.2867 5.92161 12.2688Z" fill="url(#paint10_linear_1875_186908)"/>
<defs>
<linearGradient id="paint0_linear_1875_186908" x1="9.29235" y1="27.0363" x2="9.29235" y2="-0.344617" gradientUnits="userSpaceOnUse">
<stop offset="0.27" stop-color="#DEBC28"/>
<stop offset="0.5" stop-color="#EDCE4B"/>
<stop offset="0.52" stop-color="#FADE66"/>
<stop offset="1" stop-color="#FFE98A"/>
</linearGradient>
<linearGradient id="paint1_linear_1875_186908" x1="7.63088" y1="25.7851" x2="7.63088" y2="-1.32171" gradientUnits="userSpaceOnUse">
<stop stop-color="#1C1E19"/>
<stop offset="0.98" stop-color="#636B51"/>
</linearGradient>
<linearGradient id="paint2_linear_1875_186908" x1="15.0386" y1="21.4136" x2="15.0386" y2="2.0218" gradientUnits="userSpaceOnUse">
<stop stop-color="#1C1E19"/>
<stop offset="0.98" stop-color="#636B51"/>
</linearGradient>
<linearGradient id="paint3_linear_1875_186908" x1="13.7925" y1="8.23012" x2="9.70759" y2="12.3151" gradientUnits="userSpaceOnUse">
<stop stop-color="#FFFCEE"/>
<stop offset="1" stop-color="#FFFAE2"/>
</linearGradient>
<linearGradient id="paint4_linear_1875_186908" x1="9.73089" y1="12.7476" x2="7.38511" y2="10.4018" gradientUnits="userSpaceOnUse">
<stop stop-color="white"/>
<stop offset="1" stop-color="white"/>
</linearGradient>
<linearGradient id="paint5_linear_1875_186908" x1="13.5249" y1="8.48185" x2="9.84409" y2="12.1625" gradientUnits="userSpaceOnUse">
<stop stop-color="#FFF4C4"/>
<stop offset="1" stop-color="#FFFAE2"/>
</linearGradient>
<linearGradient id="paint6_linear_1875_186908" x1="8.64233" y1="13.3642" x2="4.96141" y2="17.0451" gradientUnits="userSpaceOnUse">
<stop stop-color="#FFF4C4"/>
<stop offset="1" stop-color="#FFFAE2"/>
</linearGradient>
<linearGradient id="paint7_linear_1875_186908" x1="13.5786" y1="11.9825" x2="8.96778" y2="16.5933" gradientUnits="userSpaceOnUse">
<stop stop-color="#FFF4C4"/>
<stop offset="1" stop-color="#FFF4C4"/>
</linearGradient>
<linearGradient id="paint8_linear_1875_186908" x1="8.54452" y1="8.44377" x2="4.86373" y2="12.1246" gradientUnits="userSpaceOnUse">
<stop stop-color="#FFF4C4"/>
<stop offset="1" stop-color="#FFFAE2"/>
</linearGradient>
<linearGradient id="paint9_linear_1875_186908" x1="10.7584" y1="13.6306" x2="9.5265" y2="11.9723" gradientUnits="userSpaceOnUse">
<stop stop-color="white"/>
<stop offset="1" stop-color="white"/>
</linearGradient>
<linearGradient id="paint10_linear_1875_186908" x1="9.05225" y1="12.3962" x2="9.04109" y2="9.57231" gradientUnits="userSpaceOnUse">
<stop stop-color="white"/>
<stop offset="1" stop-color="white"/>
</linearGradient>
</defs>
</svg>
