<svg width="28" height="28" viewBox="0 0 28 28" fill="none" xmlns="http://www.w3.org/2000/svg">
<g clip-path="url(#clip0_3016_67509)">
<path d="M20.3664 24.9101C23.0293 22.6747 24.7227 19.3207 24.7227 15.5713C24.7227 8.84032 19.2661 3.38379 12.5352 3.38379C9.55367 3.38379 6.82179 4.45463 4.7039 6.23248C2.04097 8.46785 0.347656 11.8219 0.347656 15.5713C0.347656 22.3023 5.80419 27.7588 12.5352 27.7588C15.5166 27.7588 18.2485 26.6879 20.3664 24.9101Z" fill="#BFDBFF" stroke="#202127" stroke-width="0.375"/>
<path d="M13.0382 3.39384L15.6674 1.18769C22.1309 1.22413 27.3648 6.45174 27.4115 12.9128L24.7163 15.1744C24.5123 8.79424 19.4044 3.65229 13.0382 3.39384Z" fill="#FADE66" stroke="#141414" stroke-width="0.375" stroke-linejoin="round"/>
<path d="M23.1897 22.0516L22.4285 22.6903C23.8563 20.7096 24.7041 18.2827 24.7226 15.6588L27.4052 13.4079C27.2875 16.8766 25.6744 19.9658 23.1897 22.0516Z" fill="#FADE66" stroke="#141414" stroke-width="0.375" stroke-linejoin="round"/>
<path d="M12.4665 3.38384C10.5974 3.39412 8.82774 3.82524 7.24767 4.58719L8.00892 3.94843L8.00895 3.94841C9.9359 2.33085 12.3865 1.31738 15.0701 1.19913L12.4665 3.38384Z" fill="#FADE66" stroke="#141414" stroke-width="0.375" stroke-linejoin="round"/>
<path d="M11.0337 24.3106C13.9691 24.3106 21.2255 23.946 23.3119 22.196L20.2485 24.7665C18.1023 27 12.9453 28.5372 8.94531 27.0372L11.0337 24.3106Z" fill="#141414"/>
<circle cx="15.5996" cy="13" r="12.1875" fill="#BFDBFF" stroke="#202127" stroke-width="0.375"/>
<path d="M22.9586 3.5213C21.7138 2.55491 20.2909 1.84315 18.7711 1.42667C17.2512 1.01019 15.6642 0.897142 14.1007 1.09398C12.5372 1.29081 11.0278 1.79368 9.65859 2.57387C8.28941 3.35405 7.0873 4.39628 6.12091 5.64104C5.15452 6.8858 4.44276 8.30872 4.02628 9.82855C3.6098 11.3484 3.49675 12.9354 3.69359 14.4989C3.89042 16.0624 4.39329 17.5718 5.17348 18.941C5.95366 20.3102 6.99589 21.5123 8.24065 22.4787L15.5996 13L22.9586 3.5213Z" fill="#9EC9FF"/>
<path d="M15.0396 14.672C15.0396 16.412 13.3596 17.24 11.5596 17.24C9.02761 17.24 7.87561 15.596 7.95961 13.868L9.79561 13.88C9.69961 14.66 10.0476 15.908 11.6436 15.908C12.6276 15.908 13.2876 15.428 13.2876 14.744C13.2876 12.812 8.16361 13.748 8.16361 10.52C8.16361 8.78 9.65161 8 11.4276 8C13.3836 8 14.7996 8.948 14.7516 11.396L12.8796 11.384C12.9516 9.968 12.4356 9.296 11.3436 9.296C10.3836 9.296 9.83161 9.824 9.83161 10.484C9.83161 12.536 15.0396 11.624 15.0396 14.672ZM23.7842 11.948H21.9962C21.9482 10.544 20.9522 9.548 19.6202 9.548C17.9282 9.548 16.9322 10.928 16.9322 12.608C16.9322 14.276 17.8682 15.668 19.6682 15.668C20.9522 15.668 21.9722 14.912 22.0442 13.592H23.8442C23.6642 15.812 21.7682 17.24 19.6682 17.24C17.1362 17.24 15.1562 15.296 15.1562 12.608C15.1562 9.98 17.1362 7.976 19.6202 7.976C21.8162 7.976 23.7482 9.68 23.7842 11.948Z" fill="#141414"/>
</g>
<defs>
<clipPath id="clip0_3016_67509">
<rect width="28" height="28" fill="white" transform="translate(0.00195312)"/>
</clipPath>
</defs>
</svg>
