<svg width="20" height="20" viewBox="0 0 20 20" fill="none" xmlns="http://www.w3.org/2000/svg">
<g clip-path="url(#clip0_3003_11249)">
<path d="M16.9354 16.4674H8.03776C7.65878 16.4674 7.35156 16.1602 7.35156 15.7812V1.76225C7.35156 1.38327 7.65878 1.07605 8.03776 1.07605H16.9354C17.3143 1.07605 17.6216 1.38327 17.6216 1.76225V15.7812C17.6216 16.1602 17.3143 16.4674 16.9354 16.4674Z" fill="url(#paint0_linear_3003_11249)"/>
<path d="M16.924 1.07605H16.7316V14.8798C16.7316 15.2651 16.4192 15.5774 16.0339 15.5774H7.35156V15.7698C7.35156 16.1551 7.66392 16.4675 8.04921 16.4675H16.924C17.3092 16.4675 17.6216 16.1551 17.6216 15.7698V1.77366C17.6216 1.38836 17.3092 1.07605 16.924 1.07605Z" fill="url(#paint1_linear_3003_11249)"/>
<path d="M16.5496 15.8511H8.42127C8.18645 15.8511 7.99609 15.6607 7.99609 15.4259V2.11746C7.99609 1.88264 8.18645 1.69232 8.42123 1.69232H16.5495C16.7844 1.69232 16.9747 1.88267 16.9747 2.1175V15.4259C16.9747 15.6607 16.7844 15.8511 16.5496 15.8511Z" fill="url(#paint2_linear_3003_11249)"/>
<path d="M9.25464 1.69244V15.851H8.42151C8.18649 15.851 7.99609 15.6606 7.99609 15.4259V2.11754C7.99609 1.88284 8.18645 1.69244 8.42151 1.69244H9.25464Z" fill="url(#paint3_linear_3003_11249)"/>
<path d="M10.541 1.69244H11.8276V15.851H10.541V1.69244Z" fill="url(#paint4_linear_3003_11249)"/>
<path d="M13.1445 1.69244H14.4311V15.851H13.1445V1.69244Z" fill="url(#paint5_linear_3003_11249)"/>
<path d="M16.9753 2.11754V15.4259C16.9753 15.6606 16.785 15.851 16.5499 15.851H15.7168V1.69244H16.5499C16.785 1.69244 16.9753 1.88284 16.9753 2.11754Z" fill="url(#paint6_linear_3003_11249)"/>
<path d="M16.975 14.4744V15.4259C16.975 15.6606 16.7847 15.8509 16.5496 15.8509H8.42151C8.18649 15.8509 7.99609 15.6606 7.99609 15.4259V14.4744H16.975Z" fill="url(#paint7_linear_3003_11249)"/>
<path d="M7.99609 11.6369H16.975V13.0555H7.99609V11.6369Z" fill="url(#paint8_linear_3003_11249)"/>
<path d="M7.99609 8.79938H16.975V10.218H7.99609V8.79938Z" fill="url(#paint9_linear_3003_11249)"/>
<path d="M7.99609 5.9295H16.975V7.34809H7.99609V5.9295Z" fill="url(#paint10_linear_3003_11249)"/>
<path d="M7.99609 3.09204H16.975V4.51063H7.99609V3.09204Z" fill="url(#paint11_linear_3003_11249)"/>
<path d="M19.3029 18.5449H10.4281C10.0428 18.5449 9.73047 18.2325 9.73047 17.8472V3.85109C9.73047 3.4658 10.0428 3.15344 10.4281 3.15344H19.3029C19.6882 3.15344 20.0005 3.4658 20.0005 3.85109V17.8472C20.0005 18.2325 19.6882 18.5449 19.3029 18.5449Z" fill="url(#paint12_linear_3003_11249)"/>
<path d="M10.8242 6.84844C10.8242 6.84088 10.8267 6.82703 10.8318 6.80676L11.5365 4.49554C11.5567 4.43244 11.6028 4.38378 11.6748 4.34966C11.7468 4.31558 11.8295 4.29852 11.923 4.29852C12.0164 4.29852 12.0992 4.31558 12.1712 4.34966C12.2432 4.38378 12.2892 4.43244 12.3095 4.49554L13.018 6.80676C13.023 6.82699 13.0256 6.84084 13.0256 6.84844C13.0256 6.91417 12.9845 6.97099 12.9025 7.01895C12.8203 7.06695 12.7351 7.09095 12.6467 7.09095C12.5381 7.09095 12.4736 7.05437 12.4535 6.98107L12.3247 6.50746H11.5252L11.3964 6.98107C11.3761 7.05437 11.3117 7.09095 11.2032 7.09095C11.1147 7.09095 11.0294 7.06699 10.9474 7.01895C10.8652 6.97099 10.8242 6.91413 10.8242 6.84844ZM11.6464 6.05276H12.1996L11.923 5.03735L11.6464 6.05276Z" fill="url(#paint13_linear_3003_11249)"/>
<path d="M19.3029 3.1535H19.1105V16.9572C19.1105 17.3425 18.7981 17.6549 18.4128 17.6549H9.73047V17.8473C9.73047 18.2326 10.0428 18.5449 10.4281 18.5449H19.3029C19.6882 18.5449 20.0005 18.2326 20.0005 17.8473V3.85111C20.0005 3.46582 19.6882 3.1535 19.3029 3.1535Z" fill="url(#paint14_linear_3003_11249)"/>
<path d="M17.6112 10.207L15.178 7.81012C14.9886 7.62357 14.6838 7.62585 14.4972 7.81526L12.1004 10.2485C11.4176 10.9415 11.426 12.0569 12.1191 12.7396C12.7463 13.3574 13.7191 13.4092 14.4043 12.9C14.3048 13.2105 14.1611 13.4794 13.9905 13.6724C13.9039 13.7703 13.9398 14.0267 14.04 14.0267H15.6902C15.7904 14.0267 15.8263 13.7704 15.7397 13.6724C15.5609 13.4701 15.4041 13.1846 15.2974 12.8551C15.9928 13.3943 16.997 13.3406 17.6299 12.6982C18.3126 12.0051 18.3043 10.8898 17.6112 10.207Z" fill="url(#paint15_linear_3003_11249)"/>
<path d="M18.1357 11.4618C18.1357 11.9082 17.9672 12.3552 17.6291 12.6982C16.9962 13.3404 15.9918 13.394 15.2965 12.8551C15.3501 13.0198 15.4158 13.1735 15.4907 13.3114C15.5656 13.4492 15.6499 13.5712 15.7391 13.6724C15.8255 13.7704 15.7894 14.0264 15.6892 14.0264H14.0394C13.9392 14.0264 13.9031 13.7704 13.9896 13.6724C14.0536 13.6002 14.1138 13.5176 14.1695 13.4257V13.4252C14.262 13.272 14.3413 13.0942 14.4037 12.9C14.0935 13.1309 13.7237 13.2463 13.3545 13.2463C12.9639 13.2463 12.5733 13.1172 12.2516 12.8584C12.2505 12.8578 12.25 12.8578 12.2505 12.8573C11.6936 12.1697 11.7308 11.1598 12.3659 10.5148L14.7625 8.08154C14.9491 7.89228 15.2538 7.88953 15.4436 8.07608L17.6789 10.2785C17.9836 10.6134 18.1357 11.0379 18.1357 11.4618Z" fill="url(#paint16_linear_3003_11249)"/>
<path d="M10.1802 9.92017H9.73047V17.8473C9.73047 18.2326 10.0428 18.5449 10.4281 18.5449H18.8049L10.1802 9.92017Z" fill="url(#paint17_linear_3003_11249)"/>
<path d="M11.1644 12.7518C11.1644 9.99476 8.66518 7.7597 5.58224 7.7597C2.49929 7.7597 0 9.99476 0 12.7518V13.932C0 16.6891 2.49925 18.9241 5.5822 18.9241C8.66514 18.9241 11.1644 16.6891 11.1644 13.932C11.1644 13.9281 11.1644 12.7557 11.1644 12.7518Z" fill="url(#paint18_linear_3003_11249)"/>
<path d="M10.1793 9.92018C9.17234 8.61516 7.48892 7.7597 5.58183 7.7597C3.67473 7.7597 1.99132 8.61516 0.984375 9.92018V16.7636C1.99132 18.0686 3.67473 18.9241 5.58183 18.9241C7.48892 18.9241 9.17234 18.0686 10.1793 16.7636V9.92018Z" fill="url(#paint19_linear_3003_11249)"/>
<path d="M9.36328 17.6048C10.0355 17.0512 10.5552 16.3519 10.8601 15.563V14.3828L9.36328 16.4246V17.6048Z" fill="url(#paint20_linear_3003_11249)"/>
<path d="M2.30859 17.9752C3.2284 18.572 4.3595 18.9241 5.58275 18.9241C6.80601 18.9241 7.9371 18.572 8.85691 17.9752V8.70857C7.9371 8.11182 6.80601 7.7597 5.58275 7.7597C4.3595 7.7597 3.2284 8.11186 2.30859 8.70857V17.9752Z" fill="url(#paint21_linear_3003_11249)"/>
<path d="M4.31445 18.7946C4.7219 18.8793 5.14645 18.9241 5.58269 18.9241C6.01892 18.9241 6.44347 18.8793 6.85092 18.7946V7.88919C6.44347 7.80453 6.01892 7.7597 5.58269 7.7597C5.14641 7.7597 4.7219 7.80453 4.31445 7.88919V18.7946Z" fill="url(#paint22_linear_3003_11249)"/>
<path d="M5.5822 17.7439C8.66516 17.7439 11.1644 15.5089 11.1644 12.7518C11.1644 9.99475 8.66516 7.7597 5.5822 7.7597C2.49923 7.7597 0 9.99475 0 12.7518C0 15.5089 2.49923 17.7439 5.5822 17.7439Z" fill="url(#paint23_linear_3003_11249)"/>
<path d="M4.31393 7.88916V10.3556L1.7242 9.14398C1.05413 9.71719 0.543616 10.4382 0.257812 11.2485L3.02695 12.5416L0.305067 14.3828C0.60993 15.1718 1.12966 15.871 1.80185 16.4246L4.31397 14.7275V17.6145C4.72142 17.6992 5.14597 17.744 5.5822 17.744C6.01844 17.744 6.44299 17.6992 6.85044 17.6145V14.7275L9.36256 16.4246C10.0348 15.871 10.5545 15.1718 10.8593 14.3828L8.13746 12.5415L10.9066 11.2485C10.6208 10.4382 10.1103 9.71716 9.4402 9.14394L6.85044 10.3556V7.88916H6.8504C6.52856 7.82319 6.13671 7.76896 5.68969 7.76135C5.1486 7.75214 4.6815 7.81386 4.31393 7.88916Z" fill="url(#paint24_linear_3003_11249)"/>
<path d="M5.58188 16.3743C7.81898 16.3743 9.63251 14.7524 9.63251 12.7518C9.63251 10.7512 7.81898 9.12939 5.58188 9.12939C3.34478 9.12939 1.53125 10.7512 1.53125 12.7518C1.53125 14.7524 3.34478 16.3743 5.58188 16.3743Z" fill="url(#paint25_linear_3003_11249)"/>
<path d="M9.00728 9.34669L6.85077 10.3556V8.3134C6.44516 8.22097 6.0203 8.17175 5.58253 8.17175C5.14477 8.17175 4.71987 8.22097 4.3143 8.3134V10.3556L2.15779 9.34665C1.46677 9.90285 0.946142 10.6249 0.673828 11.4426L3.02728 12.5415L0.693632 14.1201C0.973593 14.9209 1.49289 15.6269 2.17642 16.1718L4.3143 14.7275V17.1902C4.71991 17.2827 5.14477 17.3319 5.58253 17.3319C6.0203 17.3319 6.4452 17.2827 6.85077 17.1902V14.7275L8.98865 16.1718C9.67218 15.6269 10.1915 14.9209 10.4714 14.1201L8.13783 12.5416L10.4913 11.4426C10.2189 10.6249 9.6983 9.90289 9.00728 9.34669Z" fill="url(#paint26_linear_3003_11249)"/>
<path d="M5.58174 15.9672C7.56743 15.9672 9.17715 14.5276 9.17715 12.7518C9.17715 10.976 7.56743 9.53644 5.58174 9.53644C3.59605 9.53644 1.98633 10.976 1.98633 12.7518C1.98633 14.5276 3.59605 15.9672 5.58174 15.9672Z" fill="url(#paint27_linear_3003_11249)"/>
<path d="M0.304688 15.563C0.60955 16.3519 1.12928 17.0512 1.80147 17.6048V16.4246L0.304688 14.3828V15.563Z" fill="url(#paint28_linear_3003_11249)"/>
<path d="M3.20898 14.2477V13.783C3.20898 13.6457 3.25993 13.5084 3.36185 13.3711C3.46377 13.2338 3.58695 13.1109 3.73126 13.0023L4.16836 12.675C4.31953 12.5659 4.4473 12.452 4.55185 12.3332C4.65636 12.2145 4.70867 12.099 4.70867 11.9867C4.70867 11.8969 4.67808 11.8175 4.61702 11.7484C4.55589 11.6795 4.46424 11.645 4.34208 11.645C4.23593 11.645 4.14914 11.6747 4.08161 11.734C4.01404 11.7932 3.98028 11.8871 3.98028 12.0156C3.98028 12.0914 3.94502 12.1573 3.87459 12.2132C3.80404 12.2692 3.71095 12.2972 3.59502 12.2972C3.37577 12.2972 3.26616 12.1687 3.26616 11.9116C3.26616 11.6355 3.37275 11.4141 3.586 11.2475C3.79926 11.0809 4.04965 10.9976 4.33726 10.9976C4.63369 10.9976 4.89346 11.0846 5.11663 11.2587C5.33981 11.4327 5.45138 11.6674 5.45138 11.9627C5.45138 12.1552 5.40036 12.3366 5.29828 12.5067C5.19624 12.6767 5.07342 12.8195 4.92993 12.935C4.78644 13.0505 4.64212 13.1564 4.49706 13.2527C4.35193 13.3489 4.22793 13.4428 4.12506 13.5342C4.02216 13.6257 3.97079 13.7099 3.97079 13.7869V13.8302H5.2262C5.28683 13.8302 5.33949 13.862 5.38428 13.9254C5.42898 13.989 5.45138 14.0635 5.45138 14.1492C5.45138 14.2349 5.42914 14.3111 5.38471 14.3777C5.34024 14.4443 5.28789 14.4777 5.22761 14.4777H3.53271C3.45965 14.4777 3.38749 14.4554 3.31608 14.4107C3.24467 14.3659 3.20898 14.3116 3.20898 14.2477Z" fill="url(#paint29_linear_3003_11249)"/>
<path d="M5.62305 13.6206C5.62305 13.4969 5.65399 13.4111 5.71587 13.3635C5.77775 13.3159 5.87062 13.2921 5.99438 13.2921C6.14352 13.2921 6.24269 13.3159 6.29191 13.3635C6.34109 13.4111 6.36571 13.4794 6.36571 13.5682C6.36571 13.6603 6.40454 13.7317 6.48234 13.7825C6.56007 13.8333 6.65924 13.8586 6.77991 13.8586C7.06869 13.8586 7.21313 13.7095 7.21313 13.4111V13.3207C7.21313 13.1652 7.17579 13.0486 7.10124 12.9707C7.02662 12.893 6.92269 12.8541 6.7894 12.8541H6.06575C5.96101 12.8541 5.8872 12.8296 5.84438 12.7803C5.80156 12.7311 5.78011 12.6589 5.78011 12.5637C5.78011 12.5415 5.78324 12.4955 5.78964 12.4256L5.91818 11.2259C5.93403 11.0735 5.97842 10.9974 6.05148 10.9974H7.57018C7.63685 10.9974 7.6892 11.0291 7.72728 11.0926C7.76536 11.1561 7.78442 11.2323 7.78442 11.3211C7.78442 11.41 7.7654 11.4862 7.72728 11.5496C7.6892 11.6131 7.63681 11.6448 7.57018 11.6448H6.5276L6.47999 12.2827H6.78944C7.14489 12.2827 7.42811 12.3653 7.63924 12.5303C7.8503 12.6954 7.95583 12.9588 7.95583 13.3206V13.4111C7.95583 13.7856 7.84948 14.0617 7.63689 14.2394C7.42422 14.4172 7.14489 14.506 6.79897 14.506C6.43395 14.506 6.14673 14.4188 5.93728 14.2442C5.72779 14.0698 5.62305 13.8619 5.62305 13.6206Z" fill="url(#paint30_linear_3003_11249)"/>
<path d="M5.58239 17.3319C8.41089 17.3319 10.7038 15.2813 10.7038 12.7518C10.7038 10.2223 8.41089 8.17175 5.58239 8.17175C2.75389 8.17175 0.460938 10.2223 0.460938 12.7518C0.460938 15.2813 2.75389 17.3319 5.58239 17.3319Z" fill="url(#paint31_linear_3003_11249)"/>
</g>
<defs>
<linearGradient id="paint0_linear_3003_11249" x1="17.0283" y1="18.3735" x2="1.47944" y2="11.0186" gradientUnits="userSpaceOnUse">
<stop stop-color="#D9FFBB"/>
<stop offset="1" stop-color="#A8FF63"/>
</linearGradient>
<linearGradient id="paint1_linear_3003_11249" x1="15.8116" y1="9.2817" x2="35.5641" y2="0.0719317" gradientUnits="userSpaceOnUse">
<stop stop-color="#C0FF8F" stop-opacity="0.862745"/>
<stop offset="0.2796" stop-color="#C0FF8F" stop-opacity="0.28"/>
<stop offset="0.7305" stop-color="#C0FF8F" stop-opacity="0.731"/>
<stop offset="1" stop-color="#C0FF8F"/>
</linearGradient>
<linearGradient id="paint2_linear_3003_11249" x1="8.80295" y1="4.27091" x2="19.4558" y2="17.2911" gradientUnits="userSpaceOnUse">
<stop stop-color="#D1FFAD"/>
<stop offset="1" stop-color="#A4EA6D"/>
</linearGradient>
<linearGradient id="paint3_linear_3003_11249" x1="-0.479281" y1="-0.208193" x2="12.4304" y2="12.7016" gradientUnits="userSpaceOnUse">
<stop stop-color="#68B928" stop-opacity="0"/>
<stop offset="1" stop-color="#86DA44"/>
</linearGradient>
<linearGradient id="paint4_linear_3003_11249" x1="1.87708" y1="-0.208193" x2="14.7836" y2="12.9856" gradientUnits="userSpaceOnUse">
<stop stop-color="#68B928" stop-opacity="0"/>
<stop offset="1" stop-color="#86DA44"/>
</linearGradient>
<linearGradient id="paint5_linear_3003_11249" x1="4.48059" y1="-0.208193" x2="17.3871" y2="12.9856" gradientUnits="userSpaceOnUse">
<stop stop-color="#68B928" stop-opacity="0"/>
<stop offset="1" stop-color="#86DA44"/>
</linearGradient>
<linearGradient id="paint6_linear_3003_11249" x1="7.24142" y1="-0.208193" x2="20.1511" y2="12.7016" gradientUnits="userSpaceOnUse">
<stop stop-color="#68B928" stop-opacity="0"/>
<stop offset="1" stop-color="#86DA44"/>
</linearGradient>
<linearGradient id="paint7_linear_3003_11249" x1="2.6348" y1="15.1626" x2="19.7647" y2="15.1626" gradientUnits="userSpaceOnUse">
<stop stop-color="#FF7044" stop-opacity="0"/>
<stop offset="1" stop-color="#FFA325"/>
</linearGradient>
<linearGradient id="paint8_linear_3003_11249" x1="2.6348" y1="12.3462" x2="19.7647" y2="12.3462" gradientUnits="userSpaceOnUse">
<stop stop-color="#FF7044" stop-opacity="0"/>
<stop offset="1" stop-color="#FFA325"/>
</linearGradient>
<linearGradient id="paint9_linear_3003_11249" x1="2.63474" y1="9.50853" x2="19.7648" y2="9.50853" gradientUnits="userSpaceOnUse">
<stop stop-color="#68B928" stop-opacity="0"/>
<stop offset="1" stop-color="#86DA44"/>
</linearGradient>
<linearGradient id="paint10_linear_3003_11249" x1="2.63474" y1="6.63865" x2="19.7648" y2="6.63865" gradientUnits="userSpaceOnUse">
<stop stop-color="#68B928" stop-opacity="0"/>
<stop offset="1" stop-color="#86DA44"/>
</linearGradient>
<linearGradient id="paint11_linear_3003_11249" x1="2.63474" y1="3.80119" x2="19.7648" y2="3.80119" gradientUnits="userSpaceOnUse">
<stop stop-color="#68B928" stop-opacity="0"/>
<stop offset="1" stop-color="#86DA44"/>
</linearGradient>
<linearGradient id="paint12_linear_3003_11249" x1="13.6619" y1="9.64552" x2="27.9589" y2="23.9425" gradientUnits="userSpaceOnUse">
<stop stop-color="#E4F2FF"/>
<stop offset="1" stop-color="#B2CBFF"/>
</linearGradient>
<linearGradient id="paint13_linear_3003_11249" x1="11.7985" y1="4.50338" x2="11.9993" y2="7.19817" gradientUnits="userSpaceOnUse">
<stop stop-color="#498ADE" stop-opacity="0.1"/>
<stop offset="1" stop-color="#498ADE"/>
</linearGradient>
<linearGradient id="paint14_linear_3003_11249" x1="18.1905" y1="11.3592" x2="37.9431" y2="2.14939" gradientUnits="userSpaceOnUse">
<stop stop-color="#BFDBFF" stop-opacity="0"/>
<stop offset="0.2796" stop-color="#BFDBFF" stop-opacity="0.28"/>
<stop offset="0.7305" stop-color="#BFDBFF" stop-opacity="0.731"/>
<stop offset="1" stop-color="#BFDBFF"/>
</linearGradient>
<linearGradient id="paint15_linear_3003_11249" x1="13.3821" y1="10.2418" x2="16.4756" y2="12.6754" gradientUnits="userSpaceOnUse">
<stop stop-color="#BFDBFF"/>
<stop offset="0.3003" stop-color="#80B6FC"/>
<stop offset="0.6716" stop-color="#498ADE"/>
<stop offset="1" stop-color="#2667BC"/>
</linearGradient>
<linearGradient id="paint16_linear_3003_11249" x1="14.6372" y1="8.38452" x2="14.9728" y2="14.2737" gradientUnits="userSpaceOnUse">
<stop stop-color="#89BAFA" stop-opacity="0"/>
<stop offset="1" stop-color="#89BAFA"/>
</linearGradient>
<linearGradient id="paint17_linear_3003_11249" x1="15.4552" y1="16.2301" x2="8.97815" y2="13.7495" gradientUnits="userSpaceOnUse">
<stop stop-color="#BFDBFF" stop-opacity="0"/>
<stop offset="0.2796" stop-color="#BFDBFF" stop-opacity="0.28"/>
<stop offset="0.7305" stop-color="#BFDBFF" stop-opacity="0.731"/>
<stop offset="1" stop-color="#BFDBFF"/>
</linearGradient>
<linearGradient id="paint18_linear_3003_11249" x1="0" y1="13.3419" x2="11.1644" y2="13.3419" gradientUnits="userSpaceOnUse">
<stop stop-color="#E4F2FF"/>
<stop offset="1" stop-color="#B2CBFF"/>
</linearGradient>
<linearGradient id="paint19_linear_3003_11249" x1="5.58183" y1="16.4306" x2="5.58183" y2="20.619" gradientUnits="userSpaceOnUse">
<stop stop-color="#BFDBFF" stop-opacity="0"/>
<stop offset="0.2796" stop-color="#BFDBFF" stop-opacity="0.28"/>
<stop offset="0.7305" stop-color="#BFDBFF" stop-opacity="0.731"/>
<stop offset="1" stop-color="#BFDBFF"/>
</linearGradient>
<linearGradient id="paint20_linear_3003_11249" x1="9.61524" y1="15.5677" x2="10.6261" y2="16.4354" gradientUnits="userSpaceOnUse">
<stop stop-color="#498ADE"/>
<stop offset="1" stop-color="#2667BC"/>
</linearGradient>
<linearGradient id="paint21_linear_3003_11249" x1="5.58275" y1="16.9759" x2="5.58275" y2="20.2488" gradientUnits="userSpaceOnUse">
<stop stop-color="#BFDBFF" stop-opacity="0"/>
<stop offset="0.2796" stop-color="#BFDBFF" stop-opacity="0.28"/>
<stop offset="0.7305" stop-color="#BFDBFF" stop-opacity="0.731"/>
<stop offset="1" stop-color="#BFDBFF"/>
</linearGradient>
<linearGradient id="paint22_linear_3003_11249" x1="6.36351" y1="17.0118" x2="6.73457" y2="18.7557" gradientUnits="userSpaceOnUse">
<stop stop-color="#498ADE"/>
<stop offset="1" stop-color="#2667BC"/>
</linearGradient>
<linearGradient id="paint23_linear_3003_11249" x1="3.08596" y1="10.1489" x2="11.4522" y2="18.8727" gradientUnits="userSpaceOnUse">
<stop stop-color="#E4F2FF"/>
<stop offset="1" stop-color="#B2CBFF"/>
</linearGradient>
<linearGradient id="paint24_linear_3003_11249" x1="4.28217" y1="10.2006" x2="7.72828" y2="16.9629" gradientUnits="userSpaceOnUse">
<stop stop-color="#BFDBFF"/>
<stop offset="1" stop-color="#498ADE"/>
</linearGradient>
<linearGradient id="paint25_linear_3003_11249" x1="3.49603" y1="10.0645" x2="8.20976" y2="16.1375" gradientUnits="userSpaceOnUse">
<stop stop-color="#BFDBFF"/>
<stop offset="1" stop-color="#498ADE"/>
</linearGradient>
<linearGradient id="paint26_linear_3003_11249" x1="7.1285" y1="14.3407" x2="0.651279" y2="7.68356" gradientUnits="userSpaceOnUse">
<stop stop-color="#BFDBFF" stop-opacity="0"/>
<stop offset="1" stop-color="#BFDBFF"/>
</linearGradient>
<linearGradient id="paint27_linear_3003_11249" x1="3.7099" y1="10.6525" x2="7.87409" y2="15.3228" gradientUnits="userSpaceOnUse">
<stop stop-color="#E4F2FF"/>
<stop offset="1" stop-color="#B2CBFF"/>
</linearGradient>
<linearGradient id="paint28_linear_3003_11249" x1="0.487942" y1="15.198" x2="1.7472" y2="17.1656" gradientUnits="userSpaceOnUse">
<stop stop-color="#BFDBFF"/>
<stop offset="1" stop-color="#498ADE"/>
</linearGradient>
<linearGradient id="paint29_linear_3003_11249" x1="3.89549" y1="12.0136" x2="5.39432" y2="15.481" gradientUnits="userSpaceOnUse">
<stop stop-color="#BFDBFF"/>
<stop offset="1" stop-color="#498ADE"/>
</linearGradient>
<linearGradient id="paint30_linear_3003_11249" x1="6.08532" y1="11.0672" x2="7.58415" y2="14.5346" gradientUnits="userSpaceOnUse">
<stop stop-color="#BFDBFF"/>
<stop offset="1" stop-color="#2667BC"/>
</linearGradient>
<linearGradient id="paint31_linear_3003_11249" x1="5.56788" y1="12.7307" x2="0.978075" y2="6.05462" gradientUnits="userSpaceOnUse">
<stop stop-color="white" stop-opacity="0"/>
<stop offset="1" stop-color="white"/>
</linearGradient>
<clipPath id="clip0_3003_11249">
<rect width="20" height="20" fill="white"/>
</clipPath>
</defs>
</svg>
