<svg width="20" height="20" viewBox="0 0 20 20" fill="none" xmlns="http://www.w3.org/2000/svg">
<g clip-path="url(#clip0_3003_10661)">
<path d="M18.2812 8.75003V14.5766C18.2812 15.1219 17.9672 15.6172 17.475 15.8485L10.9328 18.9344C10.3422 19.2141 9.65781 19.2141 9.06719 18.9344L6.71875 17.8266L2.525 15.8485C2.03281 15.6172 1.71875 15.1219 1.71875 14.5766V8.75003H18.2812Z" fill="#9DC2F3"/>
<path d="M18.2812 8.75003V9.45941L11.1547 12.6657C10.7891 12.8297 10.4 12.9141 10 12.9141C9.6 12.9141 9.21094 12.8297 8.84531 12.6657L3.40297 10.2164C2.96875 10.021 2.48328 10.3627 2.52313 10.8371C2.67484 12.6449 3.47625 15.5336 6.71875 17.8266L2.525 15.8485C2.03281 15.6172 1.71875 15.1219 1.71875 14.5766V8.75003H18.2812Z" fill="#629FEC"/>
<path d="M6.71875 8.75003V17.8266L4.6875 16.8688V8.75003H6.71875Z" fill="#CEFAAA"/>
<path d="M4.6875 15.9865V16.8685L6.71875 17.8266C5.89297 17.2427 5.22625 16.62 4.6875 15.9865Z" fill="#86DA44"/>
<path d="M13.2812 8.75003V17.8266L15.3125 16.8688V8.75003H13.2812Z" fill="#CEFAAA"/>
<path d="M15.3125 10.795V8.75003H13.2812V11.7089L15.3125 10.795Z" fill="#86DA44"/>
<path d="M6.71875 11.7089V8.75003H4.6875V10.795L6.71875 11.7089Z" fill="#86DA44"/>
<path d="M19.375 5.31253V8.28128L10.8977 12.0961C10.3267 12.353 9.67313 12.353 9.10234 12.0961L0.625 8.28128V5.31253L9.075 9.25581C9.66141 9.52941 10.3387 9.52941 10.9252 9.25581L19.375 5.31253Z" fill="#BFDBFF"/>
<path d="M7.1875 8.37504V11.2344L4.21875 9.89848V6.98911L7.1875 8.37504Z" fill="#B9FF82"/>
<path d="M15.7812 6.98911V9.89848L12.8125 11.2344V8.37504L15.7812 6.98911Z" fill="#B9FF82"/>
<path d="M0.625 5.31253L9.02172 1.11409C9.6375 0.806125 10.3625 0.806125 10.9783 1.11409L19.375 5.31253L10.925 9.25581C10.3386 9.52941 9.66125 9.52941 9.07484 9.25581L0.625 5.31253Z" fill="#7AADEF"/>
<path d="M12.7394 5.23409L14.6297 4.14378L15.7812 3.47972L12.8125 2.03128L9.81047 4.91691L7.1875 2.03128L4.21875 3.47972L5.37031 4.14378L7.26062 5.23409L6.77969 5.51097L4.21875 6.98909L5.18906 7.46253L7.1875 8.43753L10 6.81472L12.8125 8.43753L14.8109 7.46253L15.7812 6.98909L13.2203 5.51097L12.7394 5.23409Z" fill="#CEFAAA"/>
<path d="M15.7812 6.98909L14.8109 7.46253H14.8031C13.6909 7.46253 12.617 7.02847 11.8372 6.60769C11.5895 6.47394 11.3122 6.40628 11.0308 6.40628H8.96875C8.68703 6.40628 8.40969 6.47409 8.16188 6.60784C7.83516 6.78425 7.45687 6.96347 7.04687 7.11097C6.47656 7.31566 5.84375 7.46253 5.19687 7.46253H5.18906L4.21875 6.98909L6.22031 5.83441C6.36719 5.88909 6.52344 5.93597 6.68594 5.97034C7.85313 6.22191 8.92969 5.82503 9.08906 5.08597L10.9094 5.07034C10.9109 5.07503 10.9109 5.08128 10.9109 5.08597C11.0703 5.82503 12.1469 6.22191 13.3141 5.97034C13.4766 5.93597 13.6328 5.88909 13.7797 5.83441L15.7812 6.98909Z" fill="#86DA44"/>
<path d="M7.70653 5.08066C6.54669 4.83097 5.73341 4.03722 5.87778 3.30206C5.34169 3.44347 4.95059 3.753 4.85966 4.17581C4.70044 4.91534 5.51825 5.71863 6.68638 5.97003C7.85434 6.22144 8.93028 5.82581 9.0895 5.08628C9.09059 5.08113 9.09059 5.07581 9.09153 5.07066C8.68981 5.17659 8.207 5.18831 7.70653 5.08066Z" fill="#86DA44"/>
<path d="M12.2952 5.08066C13.455 4.83097 14.2683 4.03722 14.1239 3.30206C14.66 3.44347 15.0511 3.753 15.142 4.17581C15.3012 4.91534 14.4834 5.71863 13.3153 5.97003C12.1473 6.22144 11.0714 5.82581 10.9122 5.08628C10.9111 5.08113 10.9111 5.07581 10.9102 5.07066C11.3119 5.17659 11.7947 5.18831 12.2952 5.08066Z" fill="#86DA44"/>
<path d="M15.708 1.09379C13.2861 0.199567 11.0036 3.42582 10.7982 3.7255C10.5816 3.54582 10.3036 3.43754 10.0002 3.43754C9.69676 3.43754 9.41879 3.54582 9.20223 3.7255C8.99676 3.42582 6.71426 0.199567 4.29239 1.09379C1.75489 2.03129 2.05489 6.25004 4.29239 6.87504C6.05458 7.36691 8.00083 6.21394 8.7502 5.70035V5.93754H11.2502V5.70035C11.9996 6.21394 13.9458 7.36691 15.708 6.87504C17.9455 6.25004 18.2455 2.03129 15.708 1.09379ZM6.68614 5.97035C5.51739 5.71879 4.7002 4.91566 4.85958 4.17504C5.01895 3.43597 6.09395 3.04066 7.2627 3.29222C7.96129 3.44285 8.53301 3.79144 8.84692 4.20519C8.78473 4.35363 8.7502 4.5166 8.7502 4.68754V5.62316C8.31114 5.99644 7.52301 6.15066 6.68614 5.97035ZM13.3143 5.97035C12.4775 6.15066 11.6893 5.99644 11.2502 5.62316V4.68754C11.2502 4.5166 11.2157 4.35363 11.1535 4.20519C11.4674 3.79144 12.0391 3.44285 12.7377 3.29222C13.9065 3.04066 14.9815 3.43597 15.1408 4.17504C15.3002 4.91566 14.483 5.71879 13.3143 5.97035Z" fill="#B9FF82"/>
</g>
<defs>
<clipPath id="clip0_3003_10661">
<rect width="20" height="20" fill="white"/>
</clipPath>
</defs>
</svg>
