<svg width="20" height="20" viewBox="0 0 20 20" fill="none" xmlns="http://www.w3.org/2000/svg">
<g clip-path="url(#clip0_3003_11395)">
<path d="M10.0008 17.8816C14.3537 17.8816 17.8824 14.3528 17.8824 9.99993C17.8824 5.64702 14.3537 2.11829 10.0008 2.11829C5.64787 2.11829 2.11914 5.64702 2.11914 9.99993C2.11914 14.3528 5.64787 17.8816 10.0008 17.8816Z" fill="url(#paint0_linear_3003_11395)"/>
<path d="M2.11914 9.9999C2.11914 14.3528 5.64785 17.8815 10.0008 17.8815C14.3537 17.8815 17.8824 14.3528 17.8824 9.9999C17.8824 9.05716 17.7164 8.15339 17.4128 7.31543H2.58879C2.28522 8.15339 2.11914 9.05716 2.11914 9.9999Z" fill="url(#paint1_linear_3003_11395)"/>
<path d="M4.42745 15.5731C7.50541 18.6511 12.4958 18.6511 15.5738 15.5731C18.6517 12.4952 18.6517 7.5048 15.5738 4.42684C14.9071 3.76021 14.1506 3.2386 13.3435 2.86072L2.86133 13.3429C3.23921 14.15 3.76086 14.9065 4.42745 15.5731Z" fill="url(#paint2_linear_3003_11395)"/>
<path d="M10.0009 17.8816C14.3538 17.8816 17.8826 14.3528 17.8826 9.99993C17.8826 7.82346 17.0004 5.85307 15.5741 4.42676L4.42773 15.5731C5.85405 16.9994 7.82444 17.8816 10.0009 17.8816Z" fill="url(#paint3_linear_3003_11395)"/>
<path d="M7.14195 12.0156L12.0836 3.51771C12.5911 2.64488 13.4025 1.98979 14.3627 1.67763L19.4589 0.0209236C19.7802 -0.0835077 20.0843 0.22061 19.9799 0.541865L18.3232 5.63806C18.011 6.59826 17.3559 7.40971 16.4831 7.91724L7.98517 12.8588C7.43791 13.1771 6.82372 12.5629 7.14195 12.0156Z" fill="url(#paint4_linear_3003_11395)"/>
<path d="M11.8435 7.63628L9.84882 8.28475C9.42211 8.42346 9.06148 8.71459 8.83595 9.10248L7.14195 12.0156C6.82372 12.5629 7.43791 13.1771 7.98517 12.8588L10.8983 11.1648C11.2862 10.9393 11.5773 10.5787 11.716 10.1519L12.3645 8.15722C12.4689 7.83597 12.1648 7.53185 11.8435 7.63628Z" fill="url(#paint5_linear_3003_11395)"/>
<path d="M7.98444 12.8588L16.4824 7.9172C17.3552 7.40967 18.0103 6.59821 18.3224 5.63802L19.9791 0.541822C20.0314 0.381194 19.9815 0.224841 19.8783 0.121704L7.23828 12.7617C7.42044 12.9439 7.71079 13.0179 7.98444 12.8588Z" fill="url(#paint6_linear_3003_11395)"/>
<path d="M7.98444 12.8588L16.4824 7.9172C17.3552 7.40967 18.0103 6.59821 18.3224 5.63802L19.9791 0.541822C20.0314 0.381194 19.9815 0.224841 19.8783 0.121704L7.23828 12.7617C7.42044 12.9439 7.71079 13.0179 7.98444 12.8588Z" fill="url(#paint7_linear_3003_11395)"/>
<path d="M11.539 4.45422L7.14195 12.0156C6.82372 12.5629 7.43791 13.1771 7.98517 12.8589L15.5466 8.46183L11.539 4.45422Z" fill="url(#paint8_linear_3003_11395)"/>
<path d="M11.5126 5.61508C10.9465 4.50022 10.0117 3.60418 8.86844 3.08806C8.74177 3.03088 8.74177 2.84963 8.86844 2.79241C10.0117 2.27625 10.9465 1.38025 11.5126 0.265392C11.5729 0.146725 11.7419 0.146725 11.8022 0.265392C12.3683 1.38025 13.3031 2.27629 14.4464 2.79241C14.573 2.84959 14.573 3.03088 14.4464 3.08806C13.3031 3.60422 12.3683 4.50022 11.8022 5.61508C11.742 5.73375 11.5729 5.73375 11.5126 5.61508Z" fill="url(#paint9_linear_3003_11395)"/>
<path d="M12.7056 14.6966C12.3184 13.934 11.679 13.3211 10.897 12.9681C10.8104 12.929 10.8104 12.805 10.897 12.7658C11.679 12.4128 12.3184 11.7999 12.7056 11.0373C12.7468 10.9561 12.8625 10.9561 12.9037 11.0373C13.2909 11.7999 13.9303 12.4128 14.7123 12.7658C14.799 12.8049 14.799 12.9289 14.7123 12.9681C13.9303 13.3211 13.2909 13.934 12.9037 14.6966C12.8625 14.7778 12.7468 14.7778 12.7056 14.6966Z" fill="url(#paint10_linear_3003_11395)"/>
<path d="M3.35141 14.8493C2.5278 15.6729 1.86188 16.5101 1.43164 17.2223L2.77862 18.5693C3.49074 18.139 4.32795 17.4731 5.15156 16.6495C5.97517 15.8259 6.64109 14.9887 7.07133 14.2765L5.72435 12.9296C5.01219 13.3598 4.17497 14.0258 3.35141 14.8493Z" fill="url(#paint11_linear_3003_11395)"/>
<path d="M1.43164 17.2222L2.77862 18.5692C3.35521 18.2209 4.0138 17.7179 4.68078 17.102L2.8989 15.3201C2.28293 15.987 1.77999 16.6456 1.43164 17.2222Z" fill="url(#paint12_linear_3003_11395)"/>
<path d="M5.57127 16.2121C6.20134 15.5338 6.7155 14.8628 7.06966 14.2765L5.72268 12.9296C5.13648 13.2837 4.4655 13.7979 3.78711 14.428L5.57127 16.2121Z" fill="url(#paint13_linear_3003_11395)"/>
<path d="M3.20679 18.796C3.32624 18.7259 3.34722 18.5618 3.24926 18.4638L2.39271 17.6073L1.53617 16.7507C1.4382 16.6528 1.27413 16.6738 1.20397 16.7932C1.01683 17.1118 0.731185 17.361 0.390087 17.5031L0.155067 17.6011C-0.0104228 17.67 -0.0529326 17.8849 0.0738517 18.0117L1.03107 18.9689L1.98828 19.9261C2.11507 20.0529 2.32997 20.0104 2.39891 19.8449L2.49683 19.6099C2.63899 19.2688 2.88813 18.9832 3.20679 18.796Z" fill="url(#paint14_linear_3003_11395)"/>
<path d="M3.20679 18.796C3.32624 18.7259 3.34722 18.5618 3.24926 18.4638L2.39271 17.6073L1.53617 16.7507C1.4382 16.6528 1.27413 16.6738 1.20397 16.7932C1.01683 17.1118 0.731185 17.361 0.390087 17.5031L0.155067 17.6011C-0.0104228 17.67 -0.0529326 17.8849 0.0738517 18.0117L1.03107 18.9689L1.98828 19.9261C2.11507 20.0529 2.32997 20.0104 2.39891 19.8449L2.49683 19.6099C2.63899 19.2688 2.88813 18.9832 3.20679 18.796Z" fill="url(#paint15_linear_3003_11395)"/>
<path d="M8.42953 15.2924C8.95024 15.8131 9.47636 16.2707 9.97287 16.6457C10.4296 16.9905 11.0713 16.9433 11.4759 16.5387C11.8806 16.134 11.9278 15.4923 11.5829 15.0356C11.208 14.5391 10.7503 14.0129 10.2296 13.4923C9.70894 12.9716 9.18283 12.5139 8.68632 12.139C8.22961 11.7941 7.58792 11.8414 7.18326 12.246C6.77859 12.6507 6.73138 13.2924 7.07624 13.749C7.45118 14.2456 7.90886 14.7717 8.42953 15.2924Z" fill="url(#paint16_linear_3003_11395)"/>
<path d="M8.42953 15.2924C8.95024 15.8131 9.47636 16.2707 9.97287 16.6457C10.4296 16.9905 11.0713 16.9433 11.4759 16.5387C11.8806 16.134 11.9278 15.4923 11.5829 15.0356C11.208 14.5391 10.7503 14.0129 10.2296 13.4923C9.70894 12.9716 9.18283 12.5139 8.68632 12.139C8.22961 11.7941 7.58792 11.8414 7.18326 12.246C6.77859 12.6507 6.73138 13.2924 7.07624 13.749C7.45118 14.2456 7.90886 14.7717 8.42953 15.2924Z" fill="url(#paint17_linear_3003_11395)"/>
<path d="M4.70688 11.5687C5.22758 12.0895 5.7537 12.5471 6.25021 12.922C6.70691 13.2669 7.3486 13.2196 7.75327 12.815C8.15793 12.4104 8.20515 11.7686 7.86029 11.312C7.48535 10.8155 7.02766 10.2893 6.50699 9.76863C5.98629 9.24792 5.46017 8.79028 4.96366 8.41534C4.50695 8.07047 3.86527 8.11773 3.4606 8.52236C3.05593 8.92702 3.00872 9.56871 3.35358 10.0254C3.72852 10.5219 4.18621 11.048 4.70688 11.5687Z" fill="url(#paint18_linear_3003_11395)"/>
<path d="M9.20745 13.2496L6.75 10.7922L7.68773 9.85444C7.95051 9.59165 8.37651 9.59165 8.63929 9.85444L10.1452 11.3603C10.408 11.6231 10.408 12.0491 10.1452 12.3119L9.20745 13.2496Z" fill="url(#paint19_linear_3003_11395)"/>
<path d="M9.20745 13.2496L6.75 10.7922L7.68773 9.85444C7.95051 9.59165 8.37651 9.59165 8.63929 9.85444L10.1452 11.3603C10.408 11.6231 10.408 12.0491 10.1452 12.3119L9.20745 13.2496Z" fill="url(#paint20_linear_3003_11395)"/>
<path d="M7.38809 14.9135C8.65954 14.9135 9.69025 13.8828 9.69025 12.6114C9.69025 11.3399 8.65954 10.3092 7.38809 10.3092C6.11665 10.3092 5.08594 11.3399 5.08594 12.6114C5.08594 13.8828 6.11665 14.9135 7.38809 14.9135Z" fill="url(#paint21_linear_3003_11395)"/>
<path d="M7.38826 14.1462C8.23588 14.1462 8.92301 13.459 8.92301 12.6114C8.92301 11.7638 8.23588 11.0767 7.38826 11.0767C6.54064 11.0767 5.85352 11.7638 5.85352 12.6114C5.85352 13.459 6.54064 14.1462 7.38826 14.1462Z" fill="url(#paint22_linear_3003_11395)"/>
<path d="M5.76023 10.9835C4.86117 11.8825 4.86117 13.3401 5.76023 14.2392C6.65929 15.1382 8.1169 15.1382 9.01596 14.2392C9.21066 14.0445 9.36302 13.8235 9.47341 13.5877L6.41168 10.526C6.17592 10.6364 5.95494 10.7887 5.76023 10.9835Z" fill="url(#paint23_linear_3003_11395)"/>
<path d="M5.08594 12.6114C5.08594 13.8828 6.11664 14.9135 7.38809 14.9135C8.65955 14.9135 9.69025 13.8828 9.69025 12.6114C9.69025 12.336 9.64174 12.0721 9.55308 11.8273H5.22308C5.13445 12.072 5.08594 12.336 5.08594 12.6114Z" fill="url(#paint24_linear_3003_11395)"/>
</g>
<defs>
<linearGradient id="paint0_linear_3003_11395" x1="7.71971" y1="1.37038" x2="19.1479" y2="14.7863" gradientUnits="userSpaceOnUse">
<stop stop-color="#D9E9FF"/>
<stop offset="0.1435" stop-color="#BFDBFF"/>
<stop offset="0.3928" stop-color="#A3CBFF"/>
<stop offset="0.7158" stop-color="#7EB3F7"/>
<stop offset="1" stop-color="#60A0F2"/>
</linearGradient>
<linearGradient id="paint1_linear_3003_11395" x1="10.0008" y1="10.1144" x2="10.0008" y2="17.3779" gradientUnits="userSpaceOnUse">
<stop stop-color="#498ADE" stop-opacity="0"/>
<stop offset="0.2631" stop-color="#498ADE" stop-opacity="0.263"/>
<stop offset="0.5914" stop-color="#498ADE" stop-opacity="0.591"/>
<stop offset="0.9532" stop-color="#498ADE" stop-opacity="0.953"/>
<stop offset="1" stop-color="#498ADE"/>
</linearGradient>
<linearGradient id="paint2_linear_3003_11395" x1="11.3014" y1="11.3008" x2="15.6011" y2="15.6005" gradientUnits="userSpaceOnUse">
<stop stop-color="#498ADE" stop-opacity="0"/>
<stop offset="0.2631" stop-color="#498ADE" stop-opacity="0.263"/>
<stop offset="0.5914" stop-color="#498ADE" stop-opacity="0.591"/>
<stop offset="0.9532" stop-color="#498ADE" stop-opacity="0.953"/>
<stop offset="1" stop-color="#498ADE"/>
</linearGradient>
<linearGradient id="paint3_linear_3003_11395" x1="13.117" y1="15.2952" x2="11.113" y2="11.688" gradientUnits="userSpaceOnUse">
<stop stop-color="#498ADE" stop-opacity="0"/>
<stop offset="0.2631" stop-color="#498ADE" stop-opacity="0.263"/>
<stop offset="0.5914" stop-color="#498ADE" stop-opacity="0.591"/>
<stop offset="0.9532" stop-color="#498ADE" stop-opacity="0.953"/>
<stop offset="1" stop-color="#498ADE"/>
</linearGradient>
<linearGradient id="paint4_linear_3003_11395" x1="12.4366" y1="3.74895" x2="15.2466" y2="10.5474" gradientUnits="userSpaceOnUse">
<stop stop-color="#EAF9FA"/>
<stop offset="1" stop-color="#B3DAFE"/>
</linearGradient>
<linearGradient id="paint5_linear_3003_11395" x1="9.26469" y1="9.09285" x2="10.5168" y2="12.1221" gradientUnits="userSpaceOnUse">
<stop stop-color="#EAF9FA"/>
<stop offset="1" stop-color="#B3DAFE"/>
</linearGradient>
<linearGradient id="paint6_linear_3003_11395" x1="15.7355" y1="8.61808" x2="11.7553" y2="4.63787" gradientUnits="userSpaceOnUse">
<stop stop-color="#B3DAFE" stop-opacity="0"/>
<stop offset="0.2438" stop-color="#ACD5FA" stop-opacity="0.244"/>
<stop offset="0.589" stop-color="#9AC5F0" stop-opacity="0.589"/>
<stop offset="0.9932" stop-color="#7CACDF" stop-opacity="0.993"/>
<stop offset="1" stop-color="#7BACDF"/>
</linearGradient>
<linearGradient id="paint7_linear_3003_11395" x1="13.9874" y1="7.12637" x2="14.7998" y2="8.44296" gradientUnits="userSpaceOnUse">
<stop stop-color="#B3DAFE" stop-opacity="0"/>
<stop offset="0.2438" stop-color="#ACD5FA" stop-opacity="0.244"/>
<stop offset="0.589" stop-color="#9AC5F0" stop-opacity="0.589"/>
<stop offset="0.9932" stop-color="#7CACDF" stop-opacity="0.993"/>
<stop offset="1" stop-color="#7BACDF"/>
</linearGradient>
<linearGradient id="paint8_linear_3003_11395" x1="10.7016" y1="9.29649" x2="9.21986" y2="10.7783" gradientUnits="userSpaceOnUse">
<stop stop-color="#B3DAFE" stop-opacity="0"/>
<stop offset="0.2438" stop-color="#ACD5FA" stop-opacity="0.244"/>
<stop offset="0.589" stop-color="#9AC5F0" stop-opacity="0.589"/>
<stop offset="0.9932" stop-color="#7CACDF" stop-opacity="0.993"/>
<stop offset="1" stop-color="#7BACDF"/>
</linearGradient>
<linearGradient id="paint9_linear_3003_11395" x1="10.2913" y1="1.63109" x2="12.6347" y2="4.07632" gradientUnits="userSpaceOnUse">
<stop stop-color="#EBFFDB"/>
<stop offset="1" stop-color="#95ED50"/>
</linearGradient>
<linearGradient id="paint10_linear_3003_11395" x1="11.8702" y1="11.9715" x2="13.4732" y2="13.644" gradientUnits="userSpaceOnUse">
<stop stop-color="#EBFFDB"/>
<stop offset="1" stop-color="#95ED50"/>
</linearGradient>
<linearGradient id="paint11_linear_3003_11395" x1="3.63062" y1="15.1285" x2="4.6678" y2="16.1658" gradientUnits="userSpaceOnUse">
<stop stop-color="#537983"/>
<stop offset="1" stop-color="#384949"/>
</linearGradient>
<linearGradient id="paint12_linear_3003_11395" x1="3.14964" y1="16.8512" x2="2.25772" y2="17.7431" gradientUnits="userSpaceOnUse">
<stop stop-color="#554E56" stop-opacity="0"/>
<stop offset="0.269" stop-color="#524B52" stop-opacity="0.269"/>
<stop offset="0.521" stop-color="#464147" stop-opacity="0.521"/>
<stop offset="0.7654" stop-color="#343034" stop-opacity="0.765"/>
<stop offset="1" stop-color="#1A1A1A"/>
</linearGradient>
<linearGradient id="paint13_linear_3003_11395" x1="5.28021" y1="14.719" x2="6.18703" y2="13.8122" gradientUnits="userSpaceOnUse">
<stop stop-color="#554E56" stop-opacity="0"/>
<stop offset="0.269" stop-color="#524B52" stop-opacity="0.269"/>
<stop offset="0.521" stop-color="#464147" stop-opacity="0.521"/>
<stop offset="0.7654" stop-color="#343034" stop-opacity="0.765"/>
<stop offset="1" stop-color="#1A1A1A"/>
</linearGradient>
<linearGradient id="paint14_linear_3003_11395" x1="1.25411" y1="17.8192" x2="2.29659" y2="18.8617" gradientUnits="userSpaceOnUse">
<stop stop-color="#EBFFDB"/>
<stop offset="1" stop-color="#B9FF82"/>
</linearGradient>
<linearGradient id="paint15_linear_3003_11395" x1="1.75023" y1="18.2461" x2="0.987338" y2="19.009" gradientUnits="userSpaceOnUse">
<stop stop-color="#EBFFDB" stop-opacity="0"/>
<stop offset="0.2032" stop-color="#EBFFDB" stop-opacity="0.203"/>
<stop offset="0.4052" stop-color="#EBFFDB" stop-opacity="0.405"/>
<stop offset="0.6066" stop-color="#B9FF82" stop-opacity="0.607"/>
<stop offset="0.8066" stop-color="#83E537" stop-opacity="0.807"/>
<stop offset="1" stop-color="#83E537"/>
</linearGradient>
<linearGradient id="paint16_linear_3003_11395" x1="9.62577" y1="14.0961" x2="8.41102" y2="15.3109" gradientUnits="userSpaceOnUse">
<stop stop-color="#EBFFDB"/>
<stop offset="1" stop-color="#B9FF82"/>
</linearGradient>
<linearGradient id="paint17_linear_3003_11395" x1="9.62577" y1="14.0961" x2="8.41102" y2="15.3109" gradientUnits="userSpaceOnUse">
<stop stop-color="#EBFFDB"/>
<stop offset="1" stop-color="#B9FF82"/>
</linearGradient>
<linearGradient id="paint18_linear_3003_11395" x1="5.90311" y1="10.3725" x2="4.68837" y2="11.5873" gradientUnits="userSpaceOnUse">
<stop stop-color="#EBFFDB"/>
<stop offset="1" stop-color="#B9FF82"/>
</linearGradient>
<linearGradient id="paint19_linear_3003_11395" x1="8.54679" y1="11.1933" x2="8.54679" y2="13.2603" gradientUnits="userSpaceOnUse">
<stop stop-color="#EBFFDB"/>
<stop offset="1" stop-color="#83E537"/>
</linearGradient>
<linearGradient id="paint20_linear_3003_11395" x1="9.28194" y1="10.7162" x2="8.13593" y2="11.8622" gradientUnits="userSpaceOnUse">
<stop stop-color="#B9FF82" stop-opacity="0"/>
<stop offset="0.2032" stop-color="#B9FF82" stop-opacity="0.203"/>
<stop offset="0.4052" stop-color="#B9FF82" stop-opacity="0.405"/>
<stop offset="0.6066" stop-color="#B9FF82" stop-opacity="0.607"/>
<stop offset="0.8066" stop-color="#95ED50" stop-opacity="0.807"/>
<stop offset="1" stop-color="#95ED50"/>
</linearGradient>
<linearGradient id="paint21_linear_3003_11395" x1="7.38896" y1="11.3258" x2="7.38896" y2="14.3807" gradientUnits="userSpaceOnUse">
<stop stop-color="#EBFFDB"/>
<stop offset="1" stop-color="#83E537"/>
</linearGradient>
<linearGradient id="paint22_linear_3003_11395" x1="7.38913" y1="14.4475" x2="7.38913" y2="10.3685" gradientUnits="userSpaceOnUse">
<stop stop-color="#EBFFDB"/>
<stop offset="1" stop-color="#83E537"/>
</linearGradient>
<linearGradient id="paint23_linear_3003_11395" x1="7.36529" y1="12.6326" x2="5.86531" y2="14.1326" gradientUnits="userSpaceOnUse">
<stop stop-color="#B9FF82" stop-opacity="0"/>
<stop offset="0.2032" stop-color="#B9FF82" stop-opacity="0.203"/>
<stop offset="0.4052" stop-color="#B9FF82" stop-opacity="0.405"/>
<stop offset="0.6066" stop-color="#95ED50" stop-opacity="0.607"/>
<stop offset="0.8066" stop-color="#95ED50" stop-opacity="0.807"/>
<stop offset="1" stop-color="#95ED50"/>
</linearGradient>
<linearGradient id="paint24_linear_3003_11395" x1="7.38889" y1="13.1463" x2="7.38892" y2="14.9221" gradientUnits="userSpaceOnUse">
<stop stop-color="#EBFFDB" stop-opacity="0"/>
<stop offset="0.2032" stop-color="#EBFFDB" stop-opacity="0.203"/>
<stop offset="0.4052" stop-color="#EBFFDB" stop-opacity="0.405"/>
<stop offset="0.6066" stop-color="#95ED50" stop-opacity="0.607"/>
<stop offset="0.8066" stop-color="#95ED50" stop-opacity="0.807"/>
<stop offset="1" stop-color="#95ED50"/>
</linearGradient>
<clipPath id="clip0_3003_11395">
<rect width="20" height="20" fill="white"/>
</clipPath>
</defs>
</svg>
