<svg width="20" height="20" viewBox="0 0 20 20" fill="none" xmlns="http://www.w3.org/2000/svg">
<g clip-path="url(#clip0_3003_11016)">
<path d="M15.7112 11.8796C15.4937 10.3504 15.4474 8.80383 15.5315 7.26159C15.5398 7.10967 15.5441 6.95641 15.5441 6.80194C15.5441 3.04536 13.0617 6.10352e-05 9.99955 6.10352e-05C6.93739 6.10352e-05 4.45504 3.04536 4.45504 6.80191C4.45504 6.95638 4.45923 7.10967 4.46755 7.26155C4.55167 8.80379 4.50547 10.3504 4.2879 11.8795L4.13457 12.9572C4.09339 13.2467 4.28084 13.5193 4.56578 13.5845L7.08582 14.161C9.00355 14.5998 10.9956 14.5998 12.9133 14.161L15.4334 13.5845C15.7183 13.5193 15.9058 13.2466 15.8646 12.9572L15.7112 11.8796Z" fill="url(#paint0_linear_3003_11016)"/>
<path d="M5.92935 9.3161C6.52783 9.3161 7.013 8.83093 7.013 8.23245C7.013 7.63397 6.52783 7.1488 5.92935 7.1488C5.33087 7.1488 4.8457 7.63397 4.8457 8.23245C4.8457 8.83093 5.33087 9.3161 5.92935 9.3161Z" fill="url(#paint1_radial_3003_11016)"/>
<path d="M14.07 9.3161C14.6685 9.3161 15.1536 8.83093 15.1536 8.23245C15.1536 7.63397 14.6685 7.1488 14.07 7.1488C13.4715 7.1488 12.9863 7.63397 12.9863 8.23245C12.9863 8.83093 13.4715 9.3161 14.07 9.3161Z" fill="url(#paint2_radial_3003_11016)"/>
<path d="M13.5339 14.4611H6.46687C4.91569 14.4611 3.6582 15.7185 3.6582 17.2697V19.7218C3.6582 19.8755 3.78275 20 3.93636 20H16.0644C16.218 20 16.3426 19.8755 16.3426 19.7218V17.2697C16.3426 15.7185 15.0851 14.4611 13.5339 14.4611Z" fill="url(#paint3_linear_3003_11016)"/>
<path d="M13.7332 14.7736H7.16925C5.72851 14.7736 4.56055 15.9416 4.56055 17.3824V19.7416C4.56055 19.8842 4.67623 19.9999 4.8189 19.9999H16.0638C16.2174 19.9999 16.3419 19.8754 16.3419 19.7218V17.3824C16.3419 15.9416 15.174 14.7736 13.7332 14.7736Z" fill="url(#paint4_linear_3003_11016)"/>
<path d="M16.342 17.8207V19.7217C16.342 19.8754 16.2178 20.0001 16.0641 20.0001H10V17.2697C10 15.7187 11.2576 14.4611 12.8087 14.4611H13.0281L16.342 17.8207Z" fill="url(#paint5_linear_3003_11016)"/>
<path d="M11.7493 16.4792C11.6547 16.3627 11.5104 16.288 11.3485 16.288C11.339 16.288 11.3295 16.2883 11.32 16.2888C10.9734 16.2973 10.6863 16.4583 10.4659 16.6654C10.4654 16.6658 10.4649 16.6661 10.4645 16.6665C10.4632 16.6677 10.4621 16.669 10.4608 16.6701C10.4346 16.6949 10.4095 16.7203 10.3852 16.7463C10.383 16.7487 10.3807 16.751 10.3785 16.7534C10.3541 16.7798 10.3307 16.8065 10.3082 16.8336C10.3065 16.8358 10.3047 16.8379 10.303 16.84C10.2804 16.8674 10.259 16.8951 10.2386 16.9228C10.2379 16.9238 10.2371 16.9247 10.2364 16.9256C10.2332 16.9223 10.2295 16.9194 10.2261 16.9162C10.2227 16.913 10.2193 16.9099 10.2159 16.9069C10.2039 16.8964 10.1915 16.8865 10.1785 16.8774C10.1771 16.8764 10.1758 16.8752 10.1744 16.8743C10.1599 16.8643 10.1446 16.8555 10.1289 16.8474C10.1273 16.8467 10.126 16.8456 10.1245 16.8448C10.1246 16.845 10.1246 16.8452 10.1248 16.8454C10.0666 16.8162 10.0013 16.7994 9.93178 16.7994C9.85621 16.7994 9.7857 16.8197 9.72401 16.8539C9.71343 16.8434 9.70339 16.8325 9.69244 16.8221C9.69119 16.8209 9.69005 16.8196 9.68876 16.8185C9.68833 16.8181 9.68782 16.8178 9.68739 16.8174C9.68692 16.817 9.68644 16.8166 9.68597 16.8161C9.66354 16.7924 9.64052 16.7689 9.61644 16.7461C9.61519 16.7449 9.61405 16.7436 9.61276 16.7424C9.61233 16.7421 9.61182 16.7418 9.61139 16.7414C9.61092 16.741 9.61044 16.7406 9.60997 16.7401C9.58754 16.7164 9.56452 16.6929 9.54044 16.6701C9.53919 16.6689 9.53805 16.6676 9.53676 16.6665C9.53633 16.6661 9.53582 16.6658 9.53539 16.6654C9.31495 16.4583 9.02786 16.2973 8.68123 16.2888C8.67178 16.2883 8.66229 16.288 8.65272 16.288C8.36774 16.288 8.13672 16.519 8.13672 16.804C8.13672 16.9666 8.21244 17.1109 8.32997 17.2054C8.34354 17.2219 8.35805 17.2376 8.37358 17.2523C8.36672 17.2589 8.35982 17.2654 8.35342 17.2725C8.35319 17.2727 8.35299 17.2729 8.35276 17.2732C8.34393 17.283 8.33566 17.2931 8.32782 17.3037C8.32727 17.3044 8.32668 17.3052 8.32609 17.3059C8.3188 17.3159 8.31201 17.3263 8.30562 17.3369C8.30488 17.3382 8.30405 17.3394 8.30331 17.3407C8.30311 17.341 8.30295 17.3414 8.30276 17.3417C8.29707 17.3515 8.29186 17.3617 8.28695 17.372C8.28605 17.3739 8.28503 17.3758 8.28413 17.3776C8.28393 17.3781 8.28378 17.3786 8.28358 17.379C8.27923 17.3888 8.27539 17.3988 8.27182 17.4089C8.27072 17.412 8.26946 17.415 8.26841 17.4182C8.26523 17.4279 8.26264 17.4378 8.26021 17.4478C8.25931 17.4515 8.25813 17.4551 8.25735 17.4589C8.25519 17.469 8.2537 17.4793 8.25229 17.4896C8.25178 17.4934 8.25099 17.4971 8.25056 17.5008C8.24907 17.515 8.24825 17.5293 8.24825 17.5438C8.24825 17.561 8.24966 17.5778 8.25174 17.5944C8.25221 17.5982 8.25288 17.6019 8.25346 17.6057C8.2555 17.6189 8.25813 17.6319 8.26142 17.6446C8.26233 17.6482 8.26315 17.6518 8.26417 17.6553C8.27319 17.6868 8.2859 17.7166 8.30182 17.7445C8.30354 17.7475 8.30542 17.7504 8.30727 17.7534C8.31401 17.7645 8.32123 17.7752 8.32895 17.7855C8.33107 17.7883 8.33307 17.7912 8.33523 17.7939L10.5413 20H15.2698L11.7493 16.4792Z" fill="url(#paint6_linear_3003_11016)"/>
<path d="M12.996 14.4612C12.996 14.5131 12.995 14.5644 12.993 14.6162C12.964 15.3701 12.7165 15.8367 12.2925 16.2439L12.1441 16.3024L10.0462 17.1274H9.95371L7.70744 16.2439C7.48124 16.0269 7.30536 15.7926 7.18591 15.5074C7.06696 15.2217 7.00391 14.8847 7.00391 14.4613C7.90822 14.4613 8.64936 13.7613 8.71493 12.8738C8.71646 12.8544 8.71748 12.8352 8.71798 12.8158C8.719 12.7924 8.71951 12.769 8.71951 12.7457V11.9766H11.2805V12.7457C11.2805 12.8641 11.2927 12.9795 11.3155 13.0913C11.3211 13.1193 11.3272 13.1472 11.3343 13.1747C11.3556 13.2565 11.3826 13.3363 11.4151 13.4136C11.4243 13.4349 11.4339 13.4568 11.4441 13.4776C11.4543 13.4995 11.4649 13.5208 11.4767 13.5422C11.4837 13.5564 11.4914 13.5701 11.499 13.5839C11.5046 13.594 11.5107 13.6047 11.5173 13.6154C11.5265 13.6312 11.5356 13.6464 11.5458 13.6617C11.5488 13.6672 11.5524 13.6728 11.5565 13.679C11.5666 13.6942 11.5768 13.7095 11.5875 13.7247C11.5936 13.7339 11.6002 13.7435 11.6073 13.7527C11.62 13.7705 11.6332 13.7877 11.6465 13.8045C11.6637 13.8264 11.681 13.8477 11.6988 13.8681C11.7141 13.8859 11.7293 13.9026 11.7451 13.9194C11.7507 13.926 11.7568 13.9321 11.7634 13.9387L11.7832 13.9585C11.8534 14.0292 11.9291 14.0927 12.0104 14.1497C12.0292 14.1634 12.0485 14.1761 12.0679 14.1883C12.0852 14.2 12.1025 14.2106 12.1197 14.2203C12.1329 14.229 12.1467 14.2366 12.1604 14.2442C12.1731 14.2513 12.1863 14.2584 12.1995 14.265C12.2208 14.2767 12.2422 14.2874 12.2641 14.2976C12.2849 14.3077 12.3068 14.3174 12.3281 14.3266C12.4054 14.3591 12.4852 14.3861 12.567 14.4074C12.5945 14.4145 12.6224 14.4206 12.6504 14.4262C12.7622 14.449 12.8776 14.4612 12.996 14.4612Z" fill="url(#paint7_linear_3003_11016)"/>
<path d="M12.9965 14.4612C12.9965 14.5131 12.9954 14.5644 12.9934 14.6162C12.9644 15.3701 12.7169 15.8367 12.2929 16.2439L12.1445 16.3024L8.71535 12.8737L8.71484 12.8732C8.71637 12.8539 8.7179 12.8351 8.71841 12.8158C8.71943 12.7924 8.71994 12.769 8.71994 12.7456V11.9766H11.2809V12.7457C11.2809 12.8641 11.2931 12.9795 11.3159 13.0913C11.3215 13.1193 11.3281 13.1472 11.3347 13.1747C11.3561 13.2565 11.383 13.3363 11.4155 13.4136C11.4247 13.4349 11.4344 13.4563 11.4445 13.4776C11.4547 13.4995 11.4654 13.5208 11.4771 13.5422C11.4837 13.5564 11.4913 13.5701 11.4994 13.5839C11.505 13.594 11.5111 13.6047 11.5177 13.6154C11.5264 13.6312 11.5361 13.6464 11.5462 13.6617C11.5493 13.6672 11.5528 13.6728 11.5569 13.679C11.5665 13.6942 11.5767 13.7095 11.5879 13.7247C11.594 13.7339 11.6006 13.7435 11.6077 13.7527C11.6199 13.7705 11.6332 13.7877 11.6469 13.8045C11.6637 13.8264 11.6809 13.8472 11.6992 13.8681C11.714 13.8859 11.7292 13.9026 11.7455 13.9194C11.7511 13.926 11.7572 13.9321 11.7638 13.9387C11.7699 13.9453 11.7765 13.9519 11.7831 13.9585H11.7836C11.8538 14.0292 11.9295 14.0927 12.0108 14.1497C12.0297 14.1634 12.049 14.1766 12.0683 14.1883C12.0856 14.2 12.1029 14.2106 12.1201 14.2203C12.1334 14.229 12.1471 14.2366 12.1608 14.2442C12.1735 14.2518 12.1867 14.2584 12.1999 14.265C12.2213 14.2767 12.2426 14.2874 12.2645 14.2976C12.2859 14.3077 12.3072 14.3174 12.3285 14.3266C12.4058 14.3591 12.4856 14.3861 12.5674 14.4074C12.5949 14.414 12.6228 14.4206 12.6508 14.4262C12.7626 14.449 12.878 14.4612 12.9965 14.4612Z" fill="url(#paint8_linear_3003_11016)"/>
<path d="M10 13.08C7.75204 13.08 5.92969 11.2576 5.92969 9.00963V4.72727C5.92969 2.47927 7.75204 0.656921 10 0.656921C12.248 0.656921 14.0704 2.47927 14.0704 4.72727V9.00963C14.0704 11.2576 12.248 13.08 10 13.08Z" fill="url(#paint9_radial_3003_11016)"/>
<path d="M10 0.656921C7.75204 0.656921 5.92969 2.47927 5.92969 4.72727V6.64578L11.896 12.6121C13.1889 11.9302 14.0704 10.573 14.0704 9.00963V4.72727C14.0704 2.47931 12.248 0.656921 10 0.656921Z" fill="url(#paint10_linear_3003_11016)"/>
<path d="M8.6776 7.35711C8.6776 7.75617 8.35407 8.0797 7.95501 8.0797C7.55591 8.0797 7.23242 7.75617 7.23242 7.35711C7.23242 6.95801 7.55595 6.63452 7.95501 6.63452C8.35407 6.63448 8.6776 6.95801 8.6776 7.35711Z" fill="url(#paint11_linear_3003_11016)"/>
<path d="M7.95462 7.96021C8.28768 7.96021 8.55768 7.69021 8.55768 7.35715C8.55768 7.02409 8.28768 6.75409 7.95462 6.75409C7.62156 6.75409 7.35156 7.02409 7.35156 7.35715C7.35156 7.69021 7.62156 7.96021 7.95462 7.96021Z" fill="url(#paint12_linear_3003_11016)"/>
<path d="M8.27824 6.71075C8.32699 6.80801 8.35444 6.91777 8.35444 7.03401C8.35444 7.43311 8.03091 7.7566 7.63185 7.7566C7.51565 7.7566 7.40589 7.72911 7.30859 7.6804C7.42722 7.91719 7.67212 8.07977 7.95499 8.07977C8.35408 8.07977 8.67757 7.75625 8.67757 7.35719C8.67761 7.07424 8.51503 6.82938 8.27824 6.71075Z" fill="url(#paint13_linear_3003_11016)"/>
<path d="M12.7674 7.35711C12.7674 7.75617 12.4439 8.0797 12.0449 8.0797C11.6458 8.0797 11.3223 7.75617 11.3223 7.35711C11.3223 6.95801 11.6458 6.63452 12.0449 6.63452C12.4439 6.63448 12.7674 6.95801 12.7674 7.35711Z" fill="url(#paint14_linear_3003_11016)"/>
<path d="M12.0445 7.96021C12.3775 7.96021 12.6475 7.69021 12.6475 7.35715C12.6475 7.02409 12.3775 6.75409 12.0445 6.75409C11.7114 6.75409 11.4414 7.02409 11.4414 7.35715C11.4414 7.69021 11.7114 7.96021 12.0445 7.96021Z" fill="url(#paint15_linear_3003_11016)"/>
<path d="M12.3681 6.71075C12.4168 6.80801 12.4443 6.91777 12.4443 7.03401C12.4443 7.43311 12.1208 7.7566 11.7217 7.7566C11.6055 7.7566 11.4957 7.72911 11.3984 7.6804C11.5171 7.91719 11.762 8.07977 12.0448 8.07977C12.4439 8.07977 12.7674 7.75625 12.7674 7.35719C12.7675 7.07424 12.6049 6.82938 12.3681 6.71075Z" fill="url(#paint16_linear_3003_11016)"/>
<path d="M10.2304 10.1674H9.7679C9.39727 10.1674 9.10856 9.84595 9.14817 9.47744L9.38997 7.2298H10.6082L10.8501 9.47744C10.8897 9.84592 10.601 10.1674 10.2304 10.1674Z" fill="url(#paint17_linear_3003_11016)"/>
<path d="M14.5632 14.6028C14.2818 14.5089 13.9879 14.461 13.6921 14.461C13.5506 14.461 13.439 14.5824 13.4422 14.729C13.4556 15.3544 13.15 16.9598 10 18.3049C6.85009 16.9598 6.54444 15.3544 6.55785 14.729C6.56099 14.5824 6.44938 14.461 6.30789 14.461C6.01216 14.461 5.71828 14.5088 5.43679 14.6028C5.27075 14.6583 5.1582 14.8183 5.1582 14.999V20.0001H14.8418V14.9991C14.8418 14.8184 14.7293 14.6583 14.5632 14.6028Z" fill="url(#paint18_linear_3003_11016)"/>
<path d="M14.8415 14.999V19.9999H5.60938V15.1556C5.60938 15.0651 5.63734 14.9797 5.68663 14.91C5.73541 14.8409 5.80506 14.787 5.88792 14.7591C6.09937 14.6884 6.31796 14.6437 6.53961 14.6264C6.55181 14.6579 6.55843 14.6925 6.55741 14.7291C6.5442 15.3543 6.84969 16.9596 9.99977 18.3051C10.0176 18.2975 10.0348 18.2904 10.0521 18.2822C13.1534 16.9418 13.4553 15.3508 13.4421 14.7291C13.4386 14.5827 13.5504 14.4612 13.6917 14.4612C13.9876 14.4612 14.2814 14.509 14.563 14.603C14.6093 14.6182 14.6515 14.6416 14.688 14.6716C14.7831 14.7495 14.8415 14.8689 14.8415 14.999Z" fill="url(#paint19_linear_3003_11016)"/>
<path d="M14.8418 20.0001V14.9991C14.8418 14.8184 14.7292 14.6583 14.5632 14.6029C14.2817 14.5089 13.9878 14.4611 13.6921 14.4611C13.5506 14.4611 13.439 14.5825 13.4421 14.729C13.4556 15.3545 13.1499 16.9598 10 18.305V18.3051V20.0001H14.8418Z" fill="url(#paint20_linear_3003_11016)"/>
<path d="M7.87926 14.2211C7.87926 14.2211 8.54212 15.8321 10.0005 17.1655L7.32138 16.2538C7.26985 16.2363 7.24401 16.1977 7.2593 16.1612L7.36459 15.9096C7.38605 15.8583 7.32679 15.8078 7.24522 15.8078H6.76048C6.68393 15.8078 6.62573 15.7629 6.63848 15.7138L6.97848 14.4033C6.99389 14.3439 7.06648 14.2977 7.15805 14.2891L7.87926 14.2211Z" fill="url(#paint21_linear_3003_11016)"/>
<path d="M10.0008 17.1654L7.52747 16.324L7.32162 16.2538C7.27025 16.2361 7.24421 16.1978 7.2597 16.1611L7.31711 16.0241L7.36507 15.9097C7.38621 15.8583 7.32692 15.8078 7.24535 15.8078H6.91602L7.22417 14.6195C7.23966 14.5602 7.31217 14.514 7.40394 14.5054L7.98441 14.4507C8.22351 14.9425 8.87535 16.1365 10.0008 17.1654Z" fill="url(#paint22_linear_3003_11016)"/>
<path d="M12.1212 14.2211C12.1212 14.2211 11.4584 15.8321 10 17.1655L12.6791 16.2538C12.7306 16.2363 12.7565 16.1977 12.7412 16.1612L12.6359 15.9096C12.6144 15.8583 12.6737 15.8078 12.7553 15.8078H13.24C13.3165 15.8078 13.3747 15.7629 13.362 15.7138L13.022 14.4033C13.0066 14.3439 12.934 14.2977 12.8424 14.2891L12.1212 14.2211Z" fill="url(#paint23_linear_3003_11016)"/>
<path d="M13.3617 15.7137L13.0217 14.4033C13.0063 14.3438 12.9337 14.2976 12.8422 14.289L12.5549 14.262C12.4487 14.5037 11.8576 15.7748 10.7012 16.9267L12.6789 16.2537C12.7304 16.2362 12.7563 16.1976 12.741 16.1611L12.6357 15.9095C12.6142 15.8583 12.6735 15.8077 12.7551 15.8077H13.2398C13.3163 15.8077 13.3745 15.7629 13.3617 15.7137Z" fill="url(#paint24_linear_3003_11016)"/>
<path d="M10.0008 6.10352e-05C7.51506 6.10352e-05 5.5 2.01512 5.5 4.50085V6.60512C6.97357 6.84987 8.92773 6.36226 10.7265 5.16885C11.0675 4.94269 11.3869 4.70139 11.6836 4.44916C11.7914 4.69587 11.9225 4.93951 12.0793 5.17567C12.7094 6.12551 13.6046 6.75504 14.5016 6.97539V4.50089C14.5016 2.01512 12.4865 6.10352e-05 10.0008 6.10352e-05Z" fill="url(#paint25_linear_3003_11016)"/>
<path d="M9.9997 13.1247C12.8462 13.1247 15.1537 10.2939 15.1537 6.80191C15.1537 3.30993 12.8462 0.479126 9.9997 0.479126C7.15323 0.479126 4.8457 3.30993 4.8457 6.80191C4.8457 10.2939 7.15323 13.1247 9.9997 13.1247Z" fill="url(#paint26_linear_3003_11016)"/>
<path d="M14.8421 19.5724L12.2389 16.9692C11.7391 17.4061 11.0371 17.8568 10.0527 18.2823C10.0354 18.2904 10.0181 18.2975 10.0004 18.3051C9.29518 18.0039 8.73295 17.6897 8.28456 17.3764C8.28436 17.3768 8.28413 17.3772 8.28393 17.3776C8.28373 17.3781 8.28358 17.3785 8.28338 17.379C8.27903 17.3887 8.27518 17.3987 8.27162 17.4089C8.27052 17.412 8.26926 17.415 8.2682 17.4182C8.26503 17.4278 8.26244 17.4378 8.26001 17.4477C8.25911 17.4515 8.25793 17.4551 8.25715 17.4589C8.25499 17.469 8.2535 17.4793 8.25209 17.4896C8.25158 17.4934 8.25079 17.4971 8.25036 17.5008C8.24887 17.5149 8.24805 17.5293 8.24805 17.5438C8.24805 17.5609 8.24946 17.5778 8.25154 17.5944C8.25201 17.5982 8.25267 17.6019 8.25326 17.6057C8.2553 17.6189 8.25793 17.6318 8.26122 17.6446C8.26213 17.6482 8.26295 17.6517 8.26397 17.6553C8.27299 17.6867 8.28569 17.7166 8.30162 17.7444C8.30334 17.7475 8.30522 17.7504 8.30707 17.7534C8.31381 17.7645 8.32103 17.7752 8.32875 17.7855C8.33087 17.7883 8.33287 17.7911 8.33503 17.7939L10.541 19.9999H14.8421V19.5724H14.8421Z" fill="url(#paint27_linear_3003_11016)"/>
<path d="M8.68123 16.2888C8.67178 16.2883 8.66229 16.288 8.65272 16.288C8.36774 16.288 8.13672 16.519 8.13672 16.804C8.13672 16.9899 8.23503 17.1527 8.38241 17.2436C8.30025 17.3176 8.24825 17.4245 8.24825 17.5438C8.24825 17.7672 8.42931 17.9482 8.65268 17.9482C8.8957 17.9482 9.5826 17.8155 10.0006 17.3491C9.85366 16.9648 9.39233 16.3062 8.68123 16.2888Z" fill="url(#paint28_linear_3003_11016)"/>
<path d="M10.0003 17.3491C9.58236 17.8154 8.89542 17.9482 8.65236 17.9482C8.57801 17.9482 8.50824 17.9281 8.44848 17.8931C8.3286 17.8228 8.24805 17.6927 8.24805 17.5438C8.24805 17.4252 8.29915 17.3191 8.38044 17.2452L8.38217 17.2434C8.37985 17.2419 8.37738 17.2405 8.37507 17.2388C8.29589 17.1483 8.24805 17.0298 8.24805 16.9001C8.24805 16.6151 8.47903 16.3842 8.76397 16.3842C8.77358 16.3842 8.78299 16.3844 8.7924 16.3849C9.08389 16.392 9.3333 16.5069 9.5364 16.6664C9.76758 16.8841 9.92515 17.1525 10.0003 17.3491Z" fill="url(#paint29_linear_3003_11016)"/>
<path d="M8.65248 17.9482C8.87584 17.9482 9.05691 17.7671 9.05691 17.5438C9.05691 17.3204 8.87584 17.1393 8.65248 17.1393C8.42912 17.1393 8.24805 17.3204 8.24805 17.5438C8.24805 17.7671 8.42912 17.9482 8.65248 17.9482Z" fill="url(#paint30_linear_3003_11016)"/>
<path d="M11.3193 16.2888C11.3287 16.2883 11.3382 16.288 11.3478 16.288C11.6328 16.288 11.8638 16.519 11.8638 16.804C11.8638 16.9899 11.7655 17.1527 11.6181 17.2436C11.7003 17.3176 11.7523 17.4245 11.7523 17.5438C11.7523 17.7672 11.5712 17.9482 11.3478 17.9482C11.1048 17.9482 10.4179 17.8155 10 17.3491C10.1469 16.9648 10.6082 16.3062 11.3193 16.2888Z" fill="url(#paint31_linear_3003_11016)"/>
<path d="M10 17.3491C10.4179 17.8154 11.1049 17.9482 11.3479 17.9482C11.4223 17.9482 11.492 17.9281 11.5518 17.8931C11.6717 17.8228 11.7522 17.6927 11.7522 17.5438C11.7522 17.4252 11.7011 17.3191 11.6198 17.2452L11.6181 17.2434C11.6204 17.2419 11.6229 17.2405 11.6252 17.2388C11.7044 17.1483 11.7522 17.0298 11.7522 16.9001C11.7522 16.6151 11.5213 16.3842 11.2363 16.3842C11.2267 16.3842 11.2173 16.3844 11.2079 16.3849C10.9164 16.392 10.667 16.5069 10.4639 16.6664C10.2327 16.8841 10.0751 17.1525 10 17.3491Z" fill="url(#paint32_linear_3003_11016)"/>
<path d="M11.3478 17.9482C11.5712 17.9482 11.7522 17.7671 11.7522 17.5438C11.7522 17.3204 11.5712 17.1393 11.3478 17.1393C11.1244 17.1393 10.9434 17.3204 10.9434 17.5438C10.9434 17.7671 11.1244 17.9482 11.3478 17.9482Z" fill="url(#paint33_linear_3003_11016)"/>
<path d="M10.0449 17.3968C10.4102 17.7682 10.9467 17.9104 11.2352 17.9414L10.2979 17.0042L10.223 16.9435C10.1489 17.047 10.0893 17.1507 10.0449 17.2448V17.3968Z" fill="url(#paint34_linear_3003_11016)"/>
<path d="M10.3616 17.2302C10.3616 17.4681 10.1687 17.661 9.93082 17.661C9.6929 17.661 9.5 17.4682 9.5 17.2302C9.5 16.9923 9.69286 16.7994 9.93082 16.7994C10.1688 16.7994 10.3616 16.9923 10.3616 17.2302Z" fill="url(#paint35_linear_3003_11016)"/>
<path d="M9.93142 17.6147C10.1438 17.6147 10.316 17.4426 10.316 17.2302C10.316 17.0178 10.1438 16.8456 9.93142 16.8456C9.71904 16.8456 9.54688 17.0178 9.54688 17.2302C9.54688 17.4426 9.71904 17.6147 9.93142 17.6147Z" fill="url(#paint36_linear_3003_11016)"/>
<path d="M10.123 16.8448C10.1521 16.9028 10.1685 16.9682 10.1685 17.0375C10.1685 17.2754 9.97559 17.4683 9.73763 17.4683C9.66833 17.4683 9.60292 17.4519 9.54492 17.4229C9.61567 17.564 9.76163 17.6609 9.93029 17.6609C10.1682 17.6609 10.3611 17.4681 10.3611 17.2301C10.3611 17.0615 10.2642 16.9155 10.123 16.8448Z" fill="url(#paint37_linear_3003_11016)"/>
<path d="M10.2232 17.0458C10.2232 17.1563 10.0928 17.246 9.93192 17.246C9.77106 17.246 9.64062 17.1563 9.64062 17.0458C9.64062 16.9353 9.77106 16.8456 9.93192 16.8456C10.0928 16.8456 10.2232 16.9353 10.2232 17.0458Z" fill="url(#paint38_linear_3003_11016)"/>
<path d="M13.7216 18.8798C13.6954 18.8345 13.6471 18.8038 13.591 18.8038H11.2821C11.1987 18.8038 11.1309 18.8714 11.1309 18.9551V19.3853C11.1309 19.4414 11.1618 19.4897 11.2069 19.5159L11.6911 20.0001H14.8418L13.7216 18.8798Z" fill="url(#paint39_linear_3003_11016)"/>
<path d="M13.5909 19.5365H11.2821C11.1986 19.5365 11.1309 19.4688 11.1309 19.3853V18.9549C11.1309 18.8715 11.1985 18.8038 11.2821 18.8038H13.5909C13.6744 18.8038 13.7421 18.8715 13.7421 18.9549V19.3853C13.7422 19.4688 13.6744 19.5365 13.5909 19.5365Z" fill="url(#paint40_linear_3003_11016)"/>
</g>
<defs>
<linearGradient id="paint0_linear_3003_11016" x1="6.88698" y1="1.29908" x2="9.4048" y2="15.0731" gradientUnits="userSpaceOnUse">
<stop stop-color="#D3E7FF"/>
<stop offset="0.3043" stop-color="#BFDBFF"/>
<stop offset="0.699614" stop-color="#92BEF7"/>
<stop offset="1" stop-color="#498ADE"/>
</linearGradient>
<radialGradient id="paint1_radial_3003_11016" cx="0" cy="0" r="1" gradientUnits="userSpaceOnUse" gradientTransform="translate(5.92202 7.50759) scale(1.67282)">
<stop stop-color="#FFF3EE"/>
<stop offset="0.3753" stop-color="#FFF3EE"/>
<stop offset="0.5809" stop-color="#FFF3EE"/>
<stop offset="0.7453" stop-color="#FAE2D9"/>
<stop offset="0.8871" stop-color="#FFDAC9"/>
<stop offset="1" stop-color="#FFDAC9"/>
</radialGradient>
<radialGradient id="paint2_radial_3003_11016" cx="0" cy="0" r="1" gradientUnits="userSpaceOnUse" gradientTransform="translate(14.0626 7.50759) scale(1.67282)">
<stop stop-color="#FFF3EE"/>
<stop offset="0.3753" stop-color="#FFF3EE"/>
<stop offset="0.5809" stop-color="#FFF3EE"/>
<stop offset="0.7453" stop-color="#FAE2D9"/>
<stop offset="0.8871" stop-color="#FFDAC9"/>
<stop offset="1" stop-color="#FFDAC9"/>
</radialGradient>
<linearGradient id="paint3_linear_3003_11016" x1="9.51691" y1="17.1619" x2="11.6957" y2="21.928" gradientUnits="userSpaceOnUse">
<stop stop-color="#E4F2FF"/>
<stop offset="1" stop-color="#B2CBFF"/>
</linearGradient>
<linearGradient id="paint4_linear_3003_11016" x1="10.8118" y1="18.127" x2="3.56557" y2="13.6678" gradientUnits="userSpaceOnUse">
<stop stop-color="#E4F2FF" stop-opacity="0"/>
<stop offset="1" stop-color="white"/>
</linearGradient>
<linearGradient id="paint5_linear_3003_11016" x1="14.709" y1="18.8397" x2="7.35541" y2="15.1361" gradientUnits="userSpaceOnUse">
<stop stop-color="#B2CBFF" stop-opacity="0"/>
<stop offset="1" stop-color="#9EAFCA"/>
</linearGradient>
<linearGradient id="paint6_linear_3003_11016" x1="11.5599" y1="18.3793" x2="10.5772" y2="16.2274" gradientUnits="userSpaceOnUse">
<stop stop-color="#B2CBFF" stop-opacity="0"/>
<stop offset="1" stop-color="#9EAFCA"/>
</linearGradient>
<linearGradient id="paint7_linear_3003_11016" x1="6.93355" y1="13.4668" x2="12.4161" y2="15.082" gradientUnits="userSpaceOnUse">
<stop stop-color="#FFECE3"/>
<stop offset="1" stop-color="#FFDAC9"/>
</linearGradient>
<linearGradient id="paint8_linear_3003_11016" x1="11.1301" y1="14.6055" x2="10.4235" y2="12.1894" gradientUnits="userSpaceOnUse">
<stop stop-color="#FFDAC9" stop-opacity="0"/>
<stop offset="1" stop-color="#F3BDA4"/>
</linearGradient>
<radialGradient id="paint9_radial_3003_11016" cx="0" cy="0" r="1" gradientUnits="userSpaceOnUse" gradientTransform="translate(8.60086 5.70249) scale(7.12969 7.12969)">
<stop stop-color="#FFF4EE"/>
<stop offset="0.3753" stop-color="#FFF4EE"/>
<stop offset="0.5809" stop-color="#FFF4EE"/>
<stop offset="0.7453" stop-color="#FFEAE0"/>
<stop offset="0.8871" stop-color="#FFE1D3"/>
<stop offset="1" stop-color="#FFDAC9"/>
</radialGradient>
<linearGradient id="paint10_linear_3003_11016" x1="10.8346" y1="7.96653" x2="9.5" y2="3.80814" gradientUnits="userSpaceOnUse">
<stop stop-color="#FFDAC9" stop-opacity="0"/>
<stop offset="1" stop-color="#FFDAC9"/>
</linearGradient>
<linearGradient id="paint11_linear_3003_11016" x1="7.68462" y1="7.08672" x2="8.6205" y2="8.0226" gradientUnits="userSpaceOnUse">
<stop stop-color="#8A7889"/>
<stop offset="1" stop-color="#6E566E"/>
</linearGradient>
<linearGradient id="paint12_linear_3003_11016" x1="7.87133" y1="7.23703" x2="7.34717" y2="6.48142" gradientUnits="userSpaceOnUse">
<stop stop-color="#BDC2D1" stop-opacity="0"/>
<stop offset="0.3183" stop-color="#C1C6D4" stop-opacity="0.318"/>
<stop offset="0.6082" stop-color="#CCD0DD" stop-opacity="0.608"/>
<stop offset="0.8861" stop-color="#DEE2EC" stop-opacity="0.886"/>
<stop offset="1" stop-color="#E8ECF4"/>
</linearGradient>
<linearGradient id="paint13_linear_3003_11016" x1="7.98008" y1="7.63405" x2="8.97334" y2="5.78675" gradientUnits="userSpaceOnUse">
<stop stop-color="#6E566E" stop-opacity="0"/>
<stop offset="0.0471" stop-color="#6E566E" stop-opacity="0.047"/>
<stop offset="1" stop-color="#6E566E"/>
</linearGradient>
<linearGradient id="paint14_linear_3003_11016" x1="11.7745" y1="7.08672" x2="12.7104" y2="8.0226" gradientUnits="userSpaceOnUse">
<stop stop-color="#8A7889"/>
<stop offset="1" stop-color="#6E566E"/>
</linearGradient>
<linearGradient id="paint15_linear_3003_11016" x1="11.9611" y1="7.23703" x2="11.437" y2="6.48142" gradientUnits="userSpaceOnUse">
<stop stop-color="#BDC2D1" stop-opacity="0"/>
<stop offset="0.3183" stop-color="#C1C6D4" stop-opacity="0.318"/>
<stop offset="0.6082" stop-color="#CCD0DD" stop-opacity="0.608"/>
<stop offset="0.8861" stop-color="#DEE2EC" stop-opacity="0.886"/>
<stop offset="1" stop-color="#E8ECF4"/>
</linearGradient>
<linearGradient id="paint16_linear_3003_11016" x1="12.07" y1="7.63409" x2="13.0632" y2="5.78675" gradientUnits="userSpaceOnUse">
<stop stop-color="#6E566E" stop-opacity="0"/>
<stop offset="0.0471" stop-color="#6E566E" stop-opacity="0.047"/>
<stop offset="1" stop-color="#6E566E"/>
</linearGradient>
<linearGradient id="paint17_linear_3003_11016" x1="9.99915" y1="8.06588" x2="9.99915" y2="11.0743" gradientUnits="userSpaceOnUse">
<stop stop-color="#FFDAC9" stop-opacity="0"/>
<stop offset="1" stop-color="#FFDAC9"/>
</linearGradient>
<linearGradient id="paint18_linear_3003_11016" x1="8.55663" y1="15.0087" x2="12.2674" y2="21.261" gradientUnits="userSpaceOnUse">
<stop stop-color="#B9FF82"/>
<stop offset="1" stop-color="#86DA44"/>
</linearGradient>
<linearGradient id="paint19_linear_3003_11016" x1="9.05369" y1="16.8415" x2="4.47879" y2="14.8082" gradientUnits="userSpaceOnUse">
<stop stop-color="#86DA44" stop-opacity="0"/>
<stop offset="1" stop-color="#86DA44"/>
</linearGradient>
<linearGradient id="paint20_linear_3003_11016" x1="13.7156" y1="18.4862" x2="10.564" y2="15.8429" gradientUnits="userSpaceOnUse">
<stop stop-color="#B9FF82" stop-opacity="0"/>
<stop offset="1" stop-color="#B9FF82"/>
</linearGradient>
<linearGradient id="paint21_linear_3003_11016" x1="7.44503" y1="15.1808" x2="9.63561" y2="15.9801" gradientUnits="userSpaceOnUse">
<stop stop-color="#E4F2FF"/>
<stop offset="1" stop-color="#B2CBFF"/>
</linearGradient>
<linearGradient id="paint22_linear_3003_11016" x1="8.6706" y1="16.0251" x2="6.74237" y2="14.7553" gradientUnits="userSpaceOnUse">
<stop stop-color="#E4F2FF" stop-opacity="0"/>
<stop offset="1" stop-color="white"/>
</linearGradient>
<linearGradient id="paint23_linear_3003_11016" x1="11.9225" y1="15.886" x2="10.3956" y2="15.3908" gradientUnits="userSpaceOnUse">
<stop stop-color="#E4F2FF"/>
<stop offset="1" stop-color="#B2CBFF"/>
</linearGradient>
<linearGradient id="paint24_linear_3003_11016" x1="12.1394" y1="16.0922" x2="11.4396" y2="15.005" gradientUnits="userSpaceOnUse">
<stop stop-color="#E4F2FF" stop-opacity="0"/>
<stop offset="1" stop-color="white"/>
</linearGradient>
<linearGradient id="paint25_linear_3003_11016" x1="7.73518" y1="2.1563" x2="15.0329" y2="15.2952" gradientUnits="userSpaceOnUse">
<stop stop-color="#EAF3FF"/>
<stop offset="0.3043" stop-color="#BBD9FF"/>
<stop offset="0.8558" stop-color="#92BEF7"/>
<stop offset="1" stop-color="#498ADE"/>
</linearGradient>
<linearGradient id="paint26_linear_3003_11016" x1="9.25272" y1="6.02787" x2="5.34606" y2="1.97968" gradientUnits="userSpaceOnUse">
<stop stop-color="#498ADE" stop-opacity="0"/>
<stop offset="1" stop-color="#498ADE"/>
</linearGradient>
<linearGradient id="paint27_linear_3003_11016" x1="11.7591" y1="19.2087" x2="10.8949" y2="16.7179" gradientUnits="userSpaceOnUse">
<stop stop-color="#86DA44" stop-opacity="0"/>
<stop offset="1" stop-color="#86DA44"/>
</linearGradient>
<linearGradient id="paint28_linear_3003_11016" x1="8.48731" y1="16.783" x2="9.46637" y2="17.7621" gradientUnits="userSpaceOnUse">
<stop stop-color="#00ADFB"/>
<stop offset="1" stop-color="#3F3CED"/>
</linearGradient>
<linearGradient id="paint29_linear_3003_11016" x1="8.92989" y1="17.0449" x2="8.59844" y2="16.2907" gradientUnits="userSpaceOnUse">
<stop stop-color="#00ADFB" stop-opacity="0"/>
<stop offset="0.3408" stop-color="#04B3FB" stop-opacity="0.341"/>
<stop offset="0.8014" stop-color="#11C4FB" stop-opacity="0.801"/>
<stop offset="1" stop-color="#18CEFB"/>
</linearGradient>
<linearGradient id="paint30_linear_3003_11016" x1="8.83107" y1="17.6432" x2="8.02883" y2="17.1965" gradientUnits="userSpaceOnUse">
<stop stop-color="#00ADFB" stop-opacity="0"/>
<stop offset="0.5823" stop-color="#0DBFFB" stop-opacity="0.582"/>
<stop offset="1" stop-color="#18CEFB"/>
</linearGradient>
<linearGradient id="paint31_linear_3003_11016" x1="10.6365" y1="16.408" x2="11.3391" y2="17.8571" gradientUnits="userSpaceOnUse">
<stop stop-color="#00ADFB"/>
<stop offset="1" stop-color="#3F3CED"/>
</linearGradient>
<linearGradient id="paint32_linear_3003_11016" x1="11.0704" y1="17.0449" x2="11.4018" y2="16.2907" gradientUnits="userSpaceOnUse">
<stop stop-color="#00ADFB" stop-opacity="0"/>
<stop offset="0.3408" stop-color="#04B3FB" stop-opacity="0.341"/>
<stop offset="0.8014" stop-color="#11C4FB" stop-opacity="0.801"/>
<stop offset="1" stop-color="#18CEFB"/>
</linearGradient>
<linearGradient id="paint33_linear_3003_11016" x1="11.1692" y1="17.6432" x2="11.9714" y2="17.1965" gradientUnits="userSpaceOnUse">
<stop stop-color="#00ADFB" stop-opacity="0"/>
<stop offset="0.5823" stop-color="#0DBFFB" stop-opacity="0.582"/>
<stop offset="1" stop-color="#18CEFB"/>
</linearGradient>
<linearGradient id="paint34_linear_3003_11016" x1="10.8065" y1="17.58" x2="10.2173" y2="17.2534" gradientUnits="userSpaceOnUse">
<stop stop-color="#3F3CED" stop-opacity="0"/>
<stop offset="1" stop-color="#2F43BB"/>
</linearGradient>
<linearGradient id="paint35_linear_3003_11016" x1="9.50004" y1="17.2302" x2="10.3616" y2="17.2302" gradientUnits="userSpaceOnUse">
<stop stop-color="#00ADFB"/>
<stop offset="1" stop-color="#3F3CED"/>
</linearGradient>
<linearGradient id="paint36_linear_3003_11016" x1="10.0063" y1="17.3051" x2="9.49091" y2="16.7897" gradientUnits="userSpaceOnUse">
<stop stop-color="#00ADFB" stop-opacity="0"/>
<stop offset="0.3408" stop-color="#04B3FB" stop-opacity="0.341"/>
<stop offset="0.8014" stop-color="#11C4FB" stop-opacity="0.801"/>
<stop offset="1" stop-color="#18CEFB"/>
</linearGradient>
<linearGradient id="paint37_linear_3003_11016" x1="10.1133" y1="17.2464" x2="10.9158" y2="16.5671" gradientUnits="userSpaceOnUse">
<stop stop-color="#3F3CED" stop-opacity="0"/>
<stop offset="1" stop-color="#2F43BB"/>
</linearGradient>
<linearGradient id="paint38_linear_3003_11016" x1="9.93192" y1="17.0977" x2="9.93192" y2="16.4375" gradientUnits="userSpaceOnUse">
<stop stop-color="white" stop-opacity="0"/>
<stop offset="1" stop-color="white"/>
</linearGradient>
<linearGradient id="paint39_linear_3003_11016" x1="13.3426" y1="20.754" x2="12.7355" y2="18.9665" gradientUnits="userSpaceOnUse">
<stop stop-color="#C3F899" stop-opacity="0"/>
<stop offset="1" stop-color="#63C01A"/>
</linearGradient>
<linearGradient id="paint40_linear_3003_11016" x1="12.4365" y1="19.1067" x2="12.4365" y2="19.9495" gradientUnits="userSpaceOnUse">
<stop stop-color="#FFEFE7"/>
<stop offset="0.3043" stop-color="#FFEAE0"/>
<stop offset="0.8558" stop-color="#FFEFE8"/>
<stop offset="1" stop-color="#FFDAC9"/>
</linearGradient>
<clipPath id="clip0_3003_11016">
<rect width="20" height="20" fill="white"/>
</clipPath>
</defs>
</svg>
