<svg width="20" height="20" viewBox="0 0 20 20" fill="none" xmlns="http://www.w3.org/2000/svg">
<path d="M11.5713 8.08877C11.1614 8.37632 10.596 8.27712 10.3084 7.86719C10.0209 7.45726 10.1201 6.89183 10.53 6.6043C10.9399 6.31674 11.5053 6.41594 11.7929 6.82588C12.0804 7.23578 11.9812 7.80121 11.5713 8.08877ZM7.11791 11.2127C6.70797 11.5003 6.14255 11.4011 5.85502 10.9912C5.56746 10.5812 5.66666 10.0158 6.07659 9.72826C6.48653 9.44071 7.05192 9.53991 7.33948 9.94984C7.62701 10.3597 7.52784 10.9252 7.11791 11.2127ZM10.5364 5.29687L4.93236 9.228C4.38202 9.61405 4.24884 10.3731 4.63488 10.9235L9.41642 17.7399C10.3477 19.0674 12.1789 19.3887 13.5064 18.4574L16.2958 16.5008C17.6234 15.5695 17.9447 13.7383 17.0134 12.4107L12.2319 5.59432C11.8459 5.04401 11.0868 4.91083 10.5364 5.29687Z" fill="#508DDB"/>
<path d="M11.3877 7.82677C10.9778 8.11432 10.4123 8.01512 10.1248 7.60519C9.83726 7.19526 9.93646 6.62983 10.3464 6.3423C10.7563 6.05474 11.3217 6.15394 11.6093 6.56388C11.8968 6.97378 11.7976 7.53921 11.3877 7.82677ZM6.93429 10.9507C6.52435 11.2383 5.95893 11.1391 5.6714 10.7292C5.38384 10.3192 5.48304 9.7538 5.89297 9.46626C6.30291 9.17871 6.86831 9.27791 7.15586 9.68784C7.44342 10.0977 7.34422 10.6632 6.93429 10.9507ZM10.3528 5.03485L4.74876 8.96598C4.19843 9.35202 4.06525 10.1111 4.45129 10.6614L9.23283 17.4779C10.1641 18.8054 11.9953 19.1267 13.3228 18.1954L16.1122 16.2387C17.4398 15.3075 17.7611 13.4763 16.8298 12.1487L12.0483 5.33232C11.6622 4.78199 10.9032 4.6488 10.3528 5.03485Z" fill="url(#paint0_linear_3003_10815)"/>
<path d="M13.3444 13.412C13.429 13.5326 13.5418 13.6063 13.6828 13.6324C13.8237 13.6585 13.9545 13.6292 14.0752 13.5446C14.1925 13.4623 14.2637 13.3498 14.2888 13.2073C14.3138 13.0647 14.2851 12.9347 14.2028 12.8173C14.1605 12.7569 14.1094 12.7091 14.0495 12.6735C13.9896 12.6381 13.926 12.6152 13.8587 12.6048C13.7914 12.5945 13.7241 12.5967 13.6569 12.6113C13.5896 12.6259 13.5291 12.6521 13.4756 12.6897C13.3649 12.7673 13.2942 12.8769 13.2635 13.0185C13.2326 13.1601 13.2597 13.2913 13.3444 13.412ZM12.7237 13.8323C12.625 13.6915 12.5621 13.5468 12.5354 13.398C12.5085 13.2492 12.5136 13.1032 12.5505 12.9596C12.5875 12.8162 12.6567 12.6777 12.758 12.544C12.8593 12.4104 12.9887 12.2882 13.1463 12.1777C13.2972 12.0718 13.4505 11.9981 13.6064 11.9563C13.7621 11.9146 13.9132 11.9036 14.0597 11.9234C14.2062 11.9433 14.344 11.9917 14.4731 12.0687C14.6022 12.1459 14.7125 12.2496 14.8042 12.3804C14.903 12.5213 14.9679 12.6671 14.9987 12.818C15.0296 12.969 15.0277 13.1179 14.9931 13.2647C14.9585 13.4116 14.8925 13.5528 14.7952 13.6886C14.698 13.8245 14.5704 13.9476 14.4129 14.0581C14.2587 14.1663 14.1034 14.2427 13.9472 14.2874C13.7908 14.332 13.6386 14.345 13.4904 14.3263C13.3423 14.3076 13.2028 14.2568 13.0718 14.1734C12.9409 14.0903 12.8249 13.9766 12.7237 13.8323ZM8.67041 13.6592C8.57164 13.5184 8.50821 13.3729 8.48021 13.2223C8.45225 13.0719 8.45814 12.9252 8.49793 12.7823C8.53771 12.6394 8.60743 12.5016 8.70709 12.369C8.80673 12.2366 8.9354 12.1152 9.09301 12.0046C9.23708 11.9035 9.38704 11.832 9.54297 11.7903C9.69872 11.7486 9.85013 11.7361 9.99711 11.7531C10.1441 11.7701 10.2821 11.8171 10.4112 11.8941C10.5403 11.9712 10.6519 12.0768 10.7459 12.2108C10.847 12.355 10.9121 12.5031 10.9413 12.6553C10.9705 12.8075 10.9678 12.9569 10.9332 13.1037C10.8987 13.2506 10.8321 13.3911 10.7336 13.5251C10.6351 13.6593 10.5087 13.7805 10.3546 13.8886C10.0427 14.1074 9.73523 14.1968 9.43207 14.1568C9.12891 14.1168 8.87503 13.9509 8.67041 13.6592ZM9.28595 13.2424C9.36596 13.3565 9.47673 13.4288 9.61831 13.4595C9.74815 13.4877 9.87053 13.4664 9.98556 13.3956C10.0599 13.3499 10.1228 13.285 10.165 13.2087C10.1953 13.1539 10.2156 13.0966 10.2261 13.0369C10.2396 12.9597 10.2362 12.8804 10.2157 12.7991C10.2061 12.7608 10.191 12.7235 10.1711 12.6895C10.1243 12.6091 10.0641 12.5473 9.99099 12.5039C9.93108 12.4685 9.86754 12.4455 9.80021 12.4352C9.73296 12.4249 9.66573 12.4271 9.59845 12.4416C9.53119 12.4564 9.47066 12.4825 9.41705 12.5201C9.30304 12.6001 9.23219 12.7111 9.20429 12.8532C9.17648 12.9954 9.20366 13.125 9.28595 13.2424ZM11.3108 10.5089L11.6292 10.2855C11.6857 10.2459 11.7639 10.2824 11.7699 10.3511L12.2142 15.4784C12.217 15.5102 12.2026 15.5411 12.1764 15.5594L11.8532 15.7862C11.7967 15.8258 11.7184 15.7893 11.7125 15.7205L11.273 10.5898C11.2703 10.558 11.2847 10.5272 11.3108 10.5089Z" fill="#60A0F2"/>
<path d="M13.3014 13.3501C13.386 13.4707 13.4989 13.5443 13.6398 13.5704C13.7807 13.5966 13.9115 13.5673 14.0322 13.4827C14.1495 13.4004 14.2207 13.2879 14.2458 13.1453C14.2709 13.0028 14.2422 12.8728 14.1599 12.7554C14.1175 12.695 14.0664 12.6472 14.0065 12.6116C13.9466 12.5762 13.883 12.5532 13.8157 12.5429C13.7484 12.5326 13.6811 12.5347 13.6139 12.5493C13.5466 12.564 13.4861 12.5902 13.4326 12.6277C13.322 12.7053 13.2512 12.815 13.2205 12.9566C13.1896 13.0982 13.2167 13.2294 13.3014 13.3501ZM12.6808 13.7703C12.582 13.6296 12.5192 13.4849 12.4924 13.3361C12.4656 13.1873 12.4706 13.0412 12.5075 12.8977C12.5445 12.7543 12.6137 12.6157 12.715 12.482C12.8164 12.3484 12.9457 12.2263 13.1034 12.1157C13.2542 12.0099 13.4076 11.9362 13.5634 11.8944C13.7191 11.8526 13.8703 11.8417 14.0167 11.8615C14.1632 11.8814 14.301 11.9297 14.4301 12.0068C14.5592 12.0839 14.6695 12.1877 14.7613 12.3184C14.8601 12.4593 14.9249 12.6052 14.9557 12.7561C14.9866 12.9071 14.9847 13.056 14.9501 13.2027C14.9156 13.3497 14.8495 13.4909 14.7523 13.6266C14.655 13.7625 14.5275 13.8857 14.3699 13.9962C14.2157 14.1044 14.0604 14.1808 13.9042 14.2254C13.7479 14.27 13.5957 14.283 13.4475 14.2643C13.2993 14.2457 13.1598 14.1948 13.0288 14.1115C12.898 14.0283 12.782 13.9146 12.6808 13.7703ZM8.62744 13.5973C8.52867 13.4565 8.46524 13.3109 8.43725 13.1604C8.40928 13.01 8.41517 12.8633 8.45496 12.7203C8.49474 12.5774 8.56446 12.4396 8.66412 12.3071C8.76376 12.1747 8.89243 12.0532 9.05004 11.9426C9.19411 11.8416 9.34407 11.7701 9.5 11.7284C9.65575 11.6866 9.80716 11.6742 9.95414 11.6912C10.1011 11.7081 10.2391 11.7551 10.3683 11.8322C10.4973 11.9092 10.6089 12.0148 10.7029 12.1489C10.8041 12.2931 10.8692 12.4412 10.8984 12.5933C10.9275 12.7455 10.9249 12.895 10.8903 13.0418C10.8557 13.1887 10.7891 13.3291 10.6906 13.4631C10.5921 13.5973 10.4657 13.7185 10.3116 13.8267C9.99978 14.0454 9.69226 14.1348 9.3891 14.0948C9.08594 14.0549 8.83206 13.889 8.62744 13.5973ZM9.24299 13.1804C9.32299 13.2945 9.43376 13.3668 9.57534 13.3975C9.70518 13.4258 9.82756 13.4044 9.94259 13.3337C10.0169 13.2879 10.0799 13.2231 10.122 13.1467C10.1523 13.0919 10.1726 13.0346 10.1831 12.9749C10.1966 12.8977 10.1932 12.8185 10.1728 12.7371C10.1631 12.6989 10.148 12.6616 10.1281 12.6275C10.0813 12.5472 10.0212 12.4854 9.94802 12.442C9.88811 12.4065 9.82455 12.3836 9.75724 12.3732C9.68999 12.3629 9.62276 12.3652 9.55548 12.3797C9.48822 12.3945 9.4277 12.4205 9.37408 12.4581C9.26007 12.5381 9.18922 12.6491 9.16133 12.7912C9.13351 12.9334 9.16069 13.0631 9.24299 13.1804ZM11.2678 10.4469L11.5863 10.2236C11.6428 10.1839 11.721 10.2204 11.7269 10.2891L12.1713 15.4164C12.174 15.4482 12.1596 15.4791 12.1335 15.4975L11.8102 15.7242C11.7537 15.7639 11.6755 15.7273 11.6696 15.6585L11.23 10.5279C11.2273 10.4961 11.2417 10.4653 11.2678 10.4469Z" fill="white"/>
<path d="M10.4917 8.29617C10.0163 8.45327 9.50352 8.19519 9.34644 7.71976C9.18934 7.24431 9.44743 6.73155 9.92286 6.57445C10.3983 6.41735 10.9111 6.67544 11.0682 7.15087C11.2253 7.62627 10.9672 8.13907 10.4917 8.29617ZM5.32654 10.0028C4.85108 10.1599 4.3383 9.90184 4.18123 9.42641C4.02413 8.95096 4.28222 8.43818 4.75765 8.28111C5.2331 8.12401 5.74585 8.38209 5.90295 8.85752C6.06005 9.33295 5.80197 9.84575 5.32654 10.0028ZM10.3061 5.32441L3.80635 7.47205C3.16806 7.68295 2.82159 8.37138 3.03248 9.00965L5.64474 16.9155C6.15351 18.4553 7.81417 19.2911 9.35396 18.7823L12.5892 17.7133C14.129 17.2046 14.9648 15.5439 14.456 14.0041L11.8437 6.09829C11.6328 5.46 10.9444 5.11352 10.3061 5.32441Z" fill="#78BC43"/>
<path d="M10.4175 8.07075C9.9421 8.22784 9.4293 7.96976 9.27222 7.49433C9.11512 7.01888 9.37321 6.5061 9.84864 6.34902C10.3241 6.19193 10.8368 6.45001 10.9939 6.92544C11.151 7.40087 10.893 7.91367 10.4175 8.07075ZM5.25232 9.77742C4.77687 9.93452 4.26409 9.67644 4.10701 9.20101C3.94991 8.72556 4.208 8.21278 4.68343 8.0557C5.15888 7.8986 5.67163 8.15669 5.82873 8.63212C5.98583 9.10754 5.72777 9.62035 5.25232 9.77742ZM10.2319 5.09901L3.73214 7.24665C3.09385 7.45754 2.74737 8.14598 2.95826 8.78424L5.57049 16.6901C6.07927 18.2299 7.73993 19.0657 9.27972 18.5569L12.5149 17.4879C14.0547 16.9791 14.8905 15.3185 14.3818 13.7787L11.7695 5.87288C11.5586 5.23459 10.8702 4.88812 10.2319 5.09901Z" fill="url(#paint1_linear_3003_10815)"/>
<path d="M10.4136 8.06098C9.93817 8.21808 9.42537 7.95999 9.26829 7.48457C9.11119 7.00911 9.36928 6.49636 9.84471 6.33926C10.3202 6.18216 10.8329 6.44024 10.99 6.91567C11.1471 7.3911 10.8891 7.90388 10.4136 8.06098ZM5.24839 9.76766C4.77296 9.92476 4.26015 9.66667 4.10308 9.19124C3.94598 8.71579 4.20407 8.20301 4.67949 8.04594C5.15492 7.88886 5.6677 8.14692 5.8248 8.62235C5.9819 9.09778 5.72384 9.61056 5.24839 9.76766ZM10.228 5.08925L3.72823 7.23688C3.08994 7.44778 2.74346 8.13621 2.95436 8.77448L5.56659 16.6803C6.07536 18.2201 7.73602 19.0559 9.27581 18.5471L12.511 17.4782C14.0508 16.9694 14.8866 15.3087 14.3778 13.7689L11.7656 5.86309C11.5547 5.22483 10.8663 4.87835 10.228 5.08925Z" fill="url(#paint2_linear_3003_10815)"/>
<path d="M10.7179 14.1039C10.7642 14.2438 10.851 14.3468 10.9784 14.4124C11.1058 14.4781 11.2394 14.4878 11.3795 14.4416C11.5155 14.3966 11.6161 14.3095 11.6813 14.1802C11.7463 14.0509 11.7564 13.9181 11.7114 13.7821C11.6883 13.712 11.6531 13.6515 11.6061 13.6001C11.5589 13.5489 11.5046 13.5086 11.4432 13.4793C11.3817 13.45 11.3167 13.4327 11.2481 13.4273C11.1794 13.4219 11.114 13.4295 11.0518 13.4501C10.9235 13.4925 10.8242 13.577 10.7539 13.7038C10.6836 13.8304 10.6717 13.9639 10.7179 14.1039ZM10.0025 14.3273C9.94853 14.164 9.93009 14.0073 9.94738 13.8571C9.96461 13.7069 10.0116 13.5685 10.0883 13.4417C10.1651 13.3151 10.2713 13.2024 10.4068 13.1036C10.5425 13.0049 10.7015 12.9253 10.8844 12.8649C11.0594 12.8071 11.2274 12.7807 11.3887 12.7856C11.5499 12.7906 11.6977 12.8237 11.8323 12.8849C11.9668 12.9462 12.0848 13.0322 12.1861 13.1432C12.2875 13.2543 12.3632 13.3855 12.4133 13.5371C12.4673 13.7005 12.4873 13.8589 12.4733 14.0123C12.4593 14.1657 12.4145 14.3078 12.3391 14.4383C12.2636 14.5691 12.1597 14.6852 12.0274 14.7871C11.895 14.8892 11.7374 14.9703 11.5547 15.0307C11.3758 15.0898 11.2051 15.1182 11.0426 15.1159C10.8801 15.1135 10.7306 15.082 10.5941 15.0214C10.4577 14.9608 10.3387 14.8719 10.2374 14.7543C10.136 14.6369 10.0577 14.4946 10.0025 14.3273ZM6.17133 12.9924C6.11739 12.8291 6.09862 12.6714 6.11522 12.5192C6.13182 12.3671 6.17977 12.2284 6.25911 12.103C6.3384 11.9776 6.44492 11.8658 6.57859 11.7677C6.71218 11.6696 6.8704 11.5904 7.05323 11.53C7.22032 11.4748 7.38456 11.4496 7.54586 11.4546C7.70702 11.4596 7.8556 11.4913 7.99144 11.55C8.12728 11.6086 8.24585 11.6935 8.34727 11.8045C8.44864 11.9155 8.525 12.0488 8.57637 12.2042C8.63162 12.3714 8.65122 12.532 8.63531 12.6862C8.61933 12.8403 8.57369 12.9826 8.4982 13.1132C8.42271 13.2439 8.31846 13.3592 8.18551 13.4591C8.05247 13.5592 7.89652 13.6387 7.71773 13.6978C7.35606 13.8173 7.03581 13.8143 6.75708 13.6885C6.47834 13.5628 6.28313 13.3307 6.17133 12.9924ZM6.88093 12.7708C6.92466 12.9031 7.00986 13.0043 7.13652 13.0746C7.2527 13.139 7.37604 13.1539 7.50658 13.1193C7.59094 13.097 7.6699 13.0531 7.73233 12.9921C7.77713 12.9483 7.8131 12.8993 7.84033 12.8452C7.87556 12.7752 7.89517 12.6983 7.89902 12.6145C7.90083 12.5752 7.89713 12.535 7.88793 12.4967C7.86623 12.4063 7.82651 12.3298 7.76897 12.2671C7.72183 12.2159 7.6676 12.1756 7.60614 12.1462C7.54472 12.117 7.47968 12.0997 7.41107 12.0942C7.34242 12.089 7.27694 12.0965 7.21476 12.117C7.08252 12.1607 6.98266 12.2466 6.91497 12.3746C6.84736 12.5027 6.83599 12.6347 6.88093 12.7708ZM9.60817 10.7376L9.97749 10.6155C10.043 10.5939 10.1074 10.6514 10.0932 10.7189L9.03981 15.7564C9.03329 15.7877 9.01057 15.8131 8.98026 15.8231L8.60533 15.947C8.53978 15.9687 8.47541 15.9111 8.48961 15.8436L9.54862 10.8042C9.55519 10.7729 9.57788 10.7475 9.60817 10.7376Z" fill="#78BC43"/>
<path d="M10.6516 13.9013C10.6978 14.0412 10.7846 14.1442 10.912 14.2099C11.0394 14.2755 11.1731 14.2853 11.3131 14.239C11.4491 14.194 11.5497 14.1069 11.6149 13.9776C11.6799 13.8484 11.69 13.7156 11.645 13.5795C11.6219 13.5094 11.5868 13.4489 11.5397 13.3975C11.4925 13.3463 11.4383 13.306 11.3768 13.2767C11.3154 13.2475 11.2503 13.2301 11.1817 13.2247C11.113 13.2194 11.0476 13.227 10.9855 13.2475C10.8571 13.2899 10.7578 13.3745 10.6876 13.5012C10.6172 13.6279 10.6053 13.7613 10.6516 13.9013ZM9.93609 14.1247C9.88215 13.9614 9.86371 13.8047 9.881 13.6545C9.89823 13.5043 9.94517 13.3659 10.0219 13.2391C10.0987 13.1125 10.2049 12.9998 10.3405 12.901C10.4761 12.8023 10.6352 12.7227 10.818 12.6623C10.993 12.6045 11.161 12.5781 11.3223 12.5831C11.4835 12.588 11.6314 12.6211 11.7659 12.6823C11.9004 12.7436 12.0184 12.8296 12.1198 12.9406C12.2211 13.0518 12.2968 13.1829 12.3469 13.3346C12.4009 13.498 12.4209 13.6563 12.4069 13.8097C12.3929 13.9631 12.3481 14.1052 12.2727 14.2358C12.1972 14.3665 12.0933 14.4826 11.961 14.5846C11.8286 14.6866 11.671 14.7678 11.4883 14.8281C11.3094 14.8873 11.1387 14.9156 10.9763 14.9133C10.8137 14.9109 10.6642 14.8795 10.5277 14.8188C10.3913 14.7583 10.2723 14.6693 10.171 14.5517C10.0696 14.4343 9.99137 14.292 9.93609 14.1247ZM6.10493 12.7898C6.05098 12.6265 6.03222 12.4689 6.04881 12.3166C6.06541 12.1645 6.11337 12.0258 6.19271 11.9004C6.272 11.775 6.37851 11.6632 6.51218 11.5651C6.64578 11.467 6.804 11.3878 6.98682 11.3274C7.15391 11.2722 7.31815 11.247 7.47946 11.252C7.64061 11.257 7.7892 11.2887 7.92503 11.3474C8.06084 11.4061 8.17945 11.4909 8.28087 11.6019C8.38223 11.7129 8.45859 11.8462 8.50996 12.0017C8.56521 12.1689 8.58481 12.3295 8.56891 12.4836C8.55292 12.6377 8.50728 12.78 8.43179 12.9106C8.3563 13.0413 8.25206 13.1566 8.1191 13.2565C7.98607 13.3566 7.83012 13.4362 7.65132 13.4952C7.28965 13.6147 6.96941 13.6117 6.69067 13.4859C6.41196 13.3602 6.21672 13.1281 6.10493 12.7898ZM6.81455 12.5682C6.85828 12.7005 6.94348 12.8017 7.07014 12.872C7.18632 12.9365 7.30966 12.9513 7.4402 12.9168C7.52456 12.8944 7.60352 12.8505 7.66595 12.7895C7.71075 12.7458 7.74672 12.6968 7.77395 12.6427C7.80918 12.5727 7.82879 12.4957 7.83264 12.412C7.83445 12.3726 7.83075 12.3325 7.82155 12.2941C7.79985 12.2037 7.76013 12.1272 7.70259 12.0645C7.65545 12.0133 7.60122 11.973 7.53975 11.9436C7.47834 11.9144 7.4133 11.8972 7.34469 11.8917C7.27604 11.8864 7.21056 11.8939 7.14838 11.9145C7.01614 11.9582 6.91628 12.044 6.84859 12.172C6.78098 12.3002 6.76958 12.4322 6.81455 12.5682ZM9.54179 10.535L9.91111 10.413C9.97663 10.3913 10.041 10.4488 10.0269 10.5163L8.97343 15.5539C8.96691 15.5851 8.94419 15.6105 8.91388 15.6205L8.53895 15.7444C8.4734 15.7661 8.40903 15.7086 8.42323 15.641L9.48223 10.6016C9.48881 10.5704 9.51148 10.545 9.54179 10.535Z" fill="white"/>
<path d="M9.30648 8.07988C8.80576 8.07988 8.39983 7.67395 8.39983 7.17323C8.39983 6.67251 8.80576 6.26658 9.30648 6.26658C9.8072 6.26658 10.2131 6.67248 10.2131 7.17323C10.2131 7.67397 9.8072 8.07988 9.30648 8.07988ZM3.86661 8.07988C3.36589 8.07988 2.95996 7.67395 2.95996 7.17323C2.95996 6.67251 3.36589 6.26658 3.86661 6.26658C4.36733 6.26658 4.77326 6.67248 4.77326 7.17323C4.77326 7.67397 4.36733 8.07988 3.86661 8.07988ZM10.0626 5.19995H3.21718C2.54495 5.19995 2 5.7449 2 6.41713V14.7434C2 16.365 3.31462 17.6796 4.93627 17.6796H8.34348C9.96514 17.6796 11.2798 16.365 11.2798 14.7434V6.41715C11.2798 5.74493 10.7348 5.19995 10.0626 5.19995Z" fill="#84B7F8"/>
<path d="M9.30648 7.75987C8.80576 7.75987 8.39983 7.35394 8.39983 6.85322C8.39983 6.3525 8.80576 5.94657 9.30648 5.94657C9.8072 5.94657 10.2131 6.35248 10.2131 6.85322C10.2131 7.35394 9.8072 7.75987 9.30648 7.75987ZM3.86661 7.75987C3.36589 7.75987 2.95996 7.35394 2.95996 6.85322C2.95996 6.3525 3.36589 5.94657 3.86661 5.94657C4.36733 5.94657 4.77326 6.35248 4.77326 6.85322C4.77326 7.35394 4.36733 7.75987 3.86661 7.75987ZM10.0626 4.87994H3.21718C2.54495 4.87994 2 5.4249 2 6.09712V14.4234C2 16.045 3.31462 17.3596 4.93627 17.3596H8.34348C9.96514 17.3596 11.2798 16.045 11.2798 14.4234V6.09715C11.2798 5.42492 10.7348 4.87994 10.0626 4.87994Z" fill="url(#paint3_linear_3003_10815)"/>
<g opacity="0.5">
<path d="M7.70078 13.3802C7.70078 13.5275 7.75087 13.6526 7.8513 13.7549C7.95162 13.8572 8.0755 13.9084 8.22296 13.9084C8.36624 13.9084 8.48913 13.8572 8.59154 13.7549C8.69385 13.6526 8.74507 13.5297 8.74507 13.3863C8.74507 13.3125 8.73069 13.2441 8.70211 13.1805C8.67341 13.1171 8.63453 13.0618 8.58537 13.0147C8.53622 12.9676 8.47987 12.9308 8.41647 12.9041C8.35294 12.8775 8.28841 12.8642 8.22299 12.8642C8.08784 12.8642 7.96697 12.9133 7.86053 13.0116C7.75393 13.1098 7.70078 13.2327 7.70078 13.3802ZM6.95133 13.3678C6.95133 13.1958 6.98297 13.0413 7.0465 12.9041C7.10998 12.7669 7.19797 12.6502 7.31065 12.5539C7.42329 12.4577 7.55948 12.3841 7.71921 12.3328C7.87893 12.2816 8.05498 12.256 8.24751 12.256C8.43182 12.256 8.59965 12.2836 8.75124 12.3389C8.90271 12.3942 9.03273 12.472 9.14129 12.5723C9.24979 12.6727 9.33485 12.7915 9.39624 12.9286C9.45765 13.066 9.48835 13.2142 9.48835 13.374C9.48835 13.5461 9.45765 13.7027 9.39624 13.8439C9.33482 13.9852 9.24773 14.106 9.13514 14.2064C9.02246 14.3068 8.88731 14.3845 8.72972 14.4397C8.57201 14.4951 8.39691 14.5227 8.20448 14.5227C8.01607 14.5227 7.84508 14.4961 7.69155 14.4429C7.53797 14.3897 7.40588 14.3129 7.29531 14.2125C7.18473 14.1122 7.09971 13.9904 7.04036 13.847C6.98098 13.7037 6.95133 13.544 6.95133 13.3678ZM3.73242 10.8984C3.73242 10.7264 3.76406 10.5708 3.82759 10.4315C3.89108 10.2923 3.98013 10.1756 4.09481 10.0814C4.20943 9.98725 4.34565 9.91451 4.50336 9.86324C4.66094 9.81207 4.83604 9.7865 5.02861 9.7865C5.2046 9.7865 5.36843 9.81408 5.52002 9.86948C5.67149 9.92476 5.80263 10.0015 5.91318 10.0998C6.02372 10.1981 6.10974 10.3159 6.17121 10.4531C6.23263 10.5903 6.26332 10.7408 6.26332 10.9045C6.26332 11.0806 6.23156 11.2393 6.16808 11.3806C6.10454 11.5219 6.01656 11.6428 5.90392 11.7431C5.79124 11.8435 5.65609 11.9202 5.4985 11.9734C5.34079 12.0267 5.16776 12.0533 4.97945 12.0533C4.59856 12.0533 4.29545 11.9499 4.07025 11.7431C3.84498 11.5363 3.73242 11.2547 3.73242 10.8984ZM4.47573 10.9106C4.47573 11.05 4.52488 11.1728 4.62314 11.2792C4.71323 11.3769 4.82567 11.4297 4.96048 11.4378C5.04758 11.4431 5.13635 11.4261 5.21477 11.3878C5.27101 11.3603 5.32057 11.3251 5.36341 11.2823C5.41883 11.2269 5.46156 11.16 5.49152 11.0816C5.50559 11.0448 5.51467 11.0056 5.51796 10.9663C5.52571 10.8736 5.51199 10.7885 5.47704 10.7109C5.44833 10.6475 5.4095 10.5922 5.36035 10.5451C5.31119 10.4981 5.25485 10.4613 5.19144 10.4345C5.12791 10.408 5.06338 10.3946 4.99789 10.3946C4.85861 10.3946 4.73687 10.4448 4.63242 10.5451C4.52794 10.6455 4.47573 10.7673 4.47573 10.9106ZM7.70315 9.83563H8.0921C8.16109 9.83563 8.20417 9.91038 8.16958 9.97009L5.58891 14.4228C5.5729 14.4504 5.54337 14.4674 5.51143 14.4674H5.11656C5.04752 14.4674 5.00446 14.3926 5.03914 14.3329L7.62572 9.88019C7.64176 9.85261 7.67125 9.83563 7.70315 9.83563Z" fill="#F08787"/>
</g>
<path d="M7.70078 13.4869C7.70078 13.6342 7.75087 13.7593 7.8513 13.8616C7.95162 13.9639 8.0755 14.0151 8.22296 14.0151C8.36624 14.0151 8.48913 13.9639 8.59154 13.8616C8.69385 13.7593 8.74507 13.6364 8.74507 13.493C8.74507 13.4193 8.73069 13.3508 8.70211 13.2872C8.67341 13.2238 8.63453 13.1685 8.58537 13.1214C8.53622 13.0744 8.47987 13.0375 8.41647 13.0108C8.35294 12.9842 8.28841 12.9709 8.22299 12.9709C8.08784 12.9709 7.96697 13.02 7.86053 13.1183C7.75393 13.2165 7.70078 13.3394 7.70078 13.4869ZM6.95133 13.4745C6.95133 13.3025 6.98297 13.148 7.0465 13.0108C7.10998 12.8736 7.19797 12.7569 7.31065 12.6606C7.42329 12.5644 7.55948 12.4908 7.71921 12.4395C7.87893 12.3883 8.05498 12.3626 8.24751 12.3626C8.43182 12.3626 8.59965 12.3903 8.75124 12.4456C8.90271 12.5009 9.03273 12.5787 9.14129 12.679C9.24979 12.7794 9.33485 12.8981 9.39624 13.0354C9.45765 13.1727 9.48835 13.321 9.48835 13.4807C9.48835 13.6528 9.45765 13.8094 9.39624 13.9506C9.33482 14.0919 9.24773 14.2128 9.13514 14.3131C9.02246 14.4135 8.88731 14.4912 8.72972 14.5465C8.57201 14.6019 8.39691 14.6294 8.20448 14.6294C8.01607 14.6294 7.84508 14.6028 7.69155 14.5497C7.53797 14.4964 7.40588 14.4196 7.29531 14.3192C7.18473 14.2189 7.09971 14.0971 7.04036 13.9537C6.98098 13.8105 6.95133 13.6507 6.95133 13.4745ZM3.73242 11.0051C3.73242 10.8331 3.76406 10.6775 3.82759 10.5382C3.89108 10.399 3.98013 10.2823 4.09481 10.1881C4.20943 10.0939 4.34565 10.0212 4.50336 9.96993C4.66094 9.91876 4.83604 9.89319 5.02861 9.89319C5.2046 9.89319 5.36843 9.92077 5.52002 9.97617C5.67149 10.0314 5.80263 10.1082 5.91318 10.2065C6.02372 10.3048 6.10974 10.4226 6.17121 10.5598C6.23263 10.697 6.26332 10.8475 6.26332 11.0112C6.26332 11.1873 6.23156 11.346 6.16808 11.4873C6.10454 11.6286 6.01656 11.7494 5.90392 11.8498C5.79124 11.9502 5.65609 12.0269 5.4985 12.0801C5.34079 12.1334 5.16776 12.16 4.97945 12.16C4.59856 12.16 4.29545 12.0566 4.07025 11.8498C3.84498 11.643 3.73242 11.3614 3.73242 11.0051ZM4.47573 11.0173C4.47573 11.1567 4.52488 11.2795 4.62314 11.3859C4.71323 11.4836 4.82567 11.5364 4.96048 11.5445C5.04758 11.5498 5.13635 11.5328 5.21477 11.4945C5.27101 11.467 5.32057 11.4318 5.36341 11.389C5.41883 11.3335 5.46156 11.2667 5.49152 11.1883C5.50559 11.1515 5.51467 11.1123 5.51796 11.073C5.52571 10.9803 5.51199 10.8952 5.47704 10.8176C5.44833 10.7542 5.4095 10.6989 5.36035 10.6518C5.31119 10.6048 5.25485 10.568 5.19144 10.5412C5.12791 10.5147 5.06338 10.5013 4.99789 10.5013C4.85861 10.5013 4.73687 10.5515 4.63242 10.6518C4.52794 10.7522 4.47573 10.874 4.47573 11.0173ZM7.70315 9.94234H8.0921C8.16109 9.94234 8.20417 10.0171 8.16958 10.0768L5.58891 14.5295C5.5729 14.5571 5.54337 14.5742 5.51143 14.5742H5.11656C5.04752 14.5742 5.00446 14.4993 5.03914 14.4396L7.62572 9.98691C7.64176 9.95932 7.67125 9.94234 7.70315 9.94234Z" fill="#95BEF3"/>
<path d="M7.70078 13.1669C7.70078 13.3142 7.75087 13.4393 7.8513 13.5416C7.95162 13.6439 8.0755 13.6951 8.22296 13.6951C8.36624 13.6951 8.48913 13.6439 8.59154 13.5416C8.69385 13.4393 8.74507 13.3164 8.74507 13.173C8.74507 13.0992 8.73069 13.0308 8.70211 12.9672C8.67341 12.9038 8.63453 12.8485 8.58537 12.8014C8.53622 12.7544 8.47987 12.7175 8.41647 12.6908C8.35294 12.6642 8.28841 12.6509 8.22299 12.6509C8.08784 12.6509 7.96697 12.7 7.86053 12.7983C7.75393 12.8965 7.70078 13.0194 7.70078 13.1669ZM6.95133 13.1545C6.95133 12.9825 6.98297 12.828 7.0465 12.6908C7.10998 12.5536 7.19797 12.4369 7.31065 12.3406C7.42329 12.2444 7.55948 12.1708 7.71921 12.1195C7.87893 12.0683 8.05498 12.0426 8.24751 12.0426C8.43182 12.0426 8.59965 12.0703 8.75124 12.1256C8.90271 12.1809 9.03273 12.2587 9.14129 12.359C9.24979 12.4594 9.33485 12.5781 9.39624 12.7153C9.45765 12.8526 9.48835 13.0009 9.48835 13.1606C9.48835 13.3327 9.45765 13.4894 9.39624 13.6306C9.33482 13.7719 9.24773 13.8927 9.13514 13.993C9.02246 14.0935 8.88731 14.1712 8.72972 14.2264C8.57201 14.2818 8.39691 14.3094 8.20448 14.3094C8.01607 14.3094 7.84508 14.2828 7.69155 14.2296C7.53797 14.1763 7.40588 14.0996 7.29531 13.9992C7.18473 13.8988 7.09971 13.7771 7.04036 13.6336C6.98098 13.4904 6.95133 13.3307 6.95133 13.1545ZM3.73242 10.6851C3.73242 10.5131 3.76406 10.3575 3.82759 10.2182C3.89108 10.079 3.98013 9.96228 4.09481 9.86811C4.20943 9.77393 4.34565 9.70119 4.50336 9.64992C4.66094 9.59875 4.83604 9.57318 5.02861 9.57318C5.2046 9.57318 5.36843 9.60077 5.52002 9.65617C5.67149 9.71144 5.80263 9.78818 5.91318 9.88649C6.02372 9.9848 6.10974 10.1026 6.17121 10.2397C6.23263 10.377 6.26332 10.5275 6.26332 10.6912C6.26332 10.8673 6.23156 11.026 6.16808 11.1673C6.10454 11.3086 6.01656 11.4294 5.90392 11.5298C5.79124 11.6302 5.65609 11.7069 5.4985 11.7601C5.34079 11.8134 5.16776 11.84 4.97945 11.84C4.59856 11.84 4.29545 11.7366 4.07025 11.5298C3.84498 11.323 3.73242 11.0414 3.73242 10.6851ZM4.47573 10.6973C4.47573 10.8367 4.52488 10.9595 4.62314 11.0659C4.71323 11.1636 4.82567 11.2164 4.96048 11.2245C5.04758 11.2298 5.13635 11.2128 5.21477 11.1745C5.27101 11.147 5.32057 11.1118 5.36341 11.069C5.41883 11.0135 5.46156 10.9467 5.49152 10.8683C5.50559 10.8315 5.51467 10.7923 5.51796 10.753C5.52571 10.6603 5.51199 10.5752 5.47704 10.4976C5.44833 10.4342 5.4095 10.3789 5.36035 10.3318C5.31119 10.2847 5.25485 10.248 5.19144 10.2212C5.12791 10.1947 5.06338 10.1813 4.99789 10.1813C4.85861 10.1813 4.73687 10.2315 4.63242 10.3318C4.52794 10.4322 4.47573 10.554 4.47573 10.6973ZM7.70315 9.62234H8.0921C8.16109 9.62234 8.20417 9.69709 8.16958 9.7568L5.58891 14.2095C5.5729 14.2371 5.54337 14.2541 5.51143 14.2541H5.11656C5.04752 14.2541 5.00446 14.1793 5.03914 14.1196L7.62572 9.66687C7.64176 9.63931 7.67125 9.62234 7.70315 9.62234Z" fill="url(#paint4_linear_3003_10815)"/>
<path d="M3.86746 6.85321C3.66129 6.85321 3.49414 6.68606 3.49414 6.47988V2.37332C3.49414 2.16714 3.66129 2 3.86746 2C4.07364 2 4.24078 2.16714 4.24078 2.37332V6.47988C4.24078 6.68609 4.07364 6.85321 3.86746 6.85321Z" fill="white"/>
<path d="M3.86746 6.85321C3.66129 6.85321 3.49414 6.68606 3.49414 6.47988V2.37332C3.49414 2.16714 3.66129 2 3.86746 2C4.07364 2 4.24078 2.16714 4.24078 2.37332V6.47988C4.24078 6.68609 4.07364 6.85321 3.86746 6.85321Z" fill="url(#paint5_linear_3003_10815)"/>
<path d="M9.30692 6.85321C9.10074 6.85321 8.93359 6.68606 8.93359 6.47988V2.37332C8.93359 2.16714 9.10074 2 9.30692 2C9.51309 2 9.68024 2.16714 9.68024 2.37332V6.47988C9.68024 6.68609 9.51309 6.85321 9.30692 6.85321Z" fill="white"/>
<path d="M9.30692 6.85321C9.10074 6.85321 8.93359 6.68606 8.93359 6.47988V2.37332C8.93359 2.16714 9.10074 2 9.30692 2C9.51309 2 9.68024 2.16714 9.68024 2.37332V6.47988C9.68024 6.68609 9.51309 6.85321 9.30692 6.85321Z" fill="url(#paint6_linear_3003_10815)"/>
<defs>
<linearGradient id="paint0_linear_3003_10815" x1="9.69753" y1="18.4419" x2="11.9899" y2="4.95699" gradientUnits="userSpaceOnUse">
<stop stop-color="#60A0F2"/>
<stop offset="0.8692" stop-color="#ABCFFF"/>
<stop offset="0.9364" stop-color="#CEE3FF"/>
</linearGradient>
<linearGradient id="paint1_linear_3003_10815" x1="8.71365" y1="18.706" x2="8.71365" y2="5.03724" gradientUnits="userSpaceOnUse">
<stop stop-color="#477BBB"/>
<stop offset="0.0147" stop-color="#477BBB"/>
<stop offset="0.2363" stop-color="#477CBC"/>
<stop offset="0.4198" stop-color="#4682C0"/>
<stop offset="0.5896" stop-color="#438CC6"/>
<stop offset="0.7512" stop-color="#3F9AD0"/>
<stop offset="0.9056" stop-color="#39ACDC"/>
<stop offset="1" stop-color="#33BAE5"/>
</linearGradient>
<linearGradient id="paint2_linear_3003_10815" x1="12.9995" y1="17" x2="6.9777" y2="6.16236" gradientUnits="userSpaceOnUse">
<stop stop-color="#8CEB42"/>
<stop offset="0.689248" stop-color="#D3FCB3"/>
<stop offset="0.9853" stop-color="#F0FFE5"/>
</linearGradient>
<linearGradient id="paint3_linear_3003_10815" x1="5.86329" y1="17.1029" x2="8.4289" y2="5.21222" gradientUnits="userSpaceOnUse">
<stop stop-color="#60A0F2"/>
<stop offset="0.8692" stop-color="#ABCFFF"/>
<stop offset="0.9364" stop-color="#CEE3FF"/>
</linearGradient>
<linearGradient id="paint4_linear_3003_10815" x1="6.1287" y1="14.212" x2="6.74151" y2="9.5701" gradientUnits="userSpaceOnUse">
<stop offset="0.9364" stop-color="#FCFCFC"/>
</linearGradient>
<linearGradient id="paint5_linear_3003_10815" x1="3.82459" y1="2.35603" x2="5.39418" y2="6.46615" gradientUnits="userSpaceOnUse">
<stop stop-color="#89BAFA" stop-opacity="0"/>
<stop offset="1" stop-color="#89BAFA"/>
</linearGradient>
<linearGradient id="paint6_linear_3003_10815" x1="9.26405" y1="2.35603" x2="10.8336" y2="6.46615" gradientUnits="userSpaceOnUse">
<stop stop-color="#89BAFA" stop-opacity="0"/>
<stop offset="1" stop-color="#89BAFA"/>
</linearGradient>
</defs>
</svg>
