<svg width="20" height="20" viewBox="0 0 20 20" fill="none" xmlns="http://www.w3.org/2000/svg">
<g clip-path="url(#clip0_3003_10886)">
<path d="M17.3683 15.8095C12.6284 13.7882 7.37149 13.7882 2.63166 15.8095C2.22822 15.9815 1.76084 15.8063 1.56797 15.4127C1.07344 14.4033 0.579052 13.3938 0.0845149 12.3844C-0.122089 11.9627 0.0636104 11.4521 0.494365 11.2646C6.58246 8.61519 13.4176 8.61534 19.5056 11.2646C19.9363 11.4521 20.1222 11.9627 19.9154 12.3844C19.4209 13.3938 18.9265 14.4033 18.432 15.4127C18.2389 15.8063 17.7717 15.9815 17.3683 15.8095Z" fill="url(#paint0_linear_3003_10886)"/>
<path d="M0.84375 13.9347C1.08514 14.4274 1.32638 14.92 1.56778 15.4127C1.76065 15.8065 2.22803 15.9815 2.63147 15.8095C7.37115 13.7882 12.6282 13.7882 17.3681 15.8095C17.7714 15.9815 18.2387 15.8063 18.4316 15.4127C18.673 14.92 18.9144 14.4274 19.1556 13.9347C13.2732 11.4838 6.72631 11.4838 0.84375 13.9347Z" fill="url(#paint1_radial_3003_10886)"/>
<path d="M14.6929 13.5157C14.2247 13.6217 13.8381 13.145 14.0386 12.7088L14.5429 11.6118C14.5838 11.5232 14.6004 11.4272 14.5943 11.3326L16.6391 11.4153L16.1479 13.254C16.0585 13.23 15.9633 13.2276 15.8704 13.2486L14.6929 13.5157Z" fill="url(#paint2_linear_3003_10886)"/>
<path d="M14.4918 5.23579L12.358 4.72024C12.1595 4.67231 11.9861 4.55194 11.8717 4.38278L10.6417 2.56468C10.4929 2.34478 10.265 2.22679 10.0304 2.20776C9.7959 2.22679 9.568 2.34478 9.41917 2.56468L8.1892 4.38285C8.07482 4.55201 7.90133 4.67231 7.70284 4.72031L5.56912 5.23586C4.99035 5.37569 4.74912 6.06653 5.11505 6.53625L6.46415 8.26785C6.58963 8.42894 6.65047 8.63104 6.63475 8.83465L6.46574 11.0232C6.4199 11.6169 7.00234 12.0597 7.56215 11.8568L9.62588 11.1089C9.75626 11.0616 9.89537 11.0495 10.0304 11.0704C10.1654 11.0495 10.3045 11.0616 10.4349 11.1089L12.4986 11.8568C13.0584 12.0597 13.6408 11.6168 13.595 11.0232L13.426 8.83465C13.4103 8.63104 13.4711 8.42894 13.5966 8.26785L14.9457 6.53625C15.3118 6.06646 15.0705 5.37569 14.4918 5.23579Z" fill="url(#paint3_linear_3003_10886)"/>
<path d="M10.4338 11.1089L12.4975 11.8568C13.0573 12.0597 13.6398 11.6168 13.5939 11.0232L13.4249 8.83465C13.4092 8.63104 13.47 8.42894 13.5955 8.26785L14.9446 6.53625C15.3105 6.06653 15.0693 5.37576 14.4905 5.23586L12.3568 4.72031C12.1583 4.67238 11.9849 4.55201 11.8705 4.38285L10.6406 2.56468C10.4918 2.34478 10.2638 2.22679 10.0293 2.20776V11.0704C10.1644 11.0495 10.3034 11.0616 10.4338 11.1089Z" fill="url(#paint4_linear_3003_10886)"/>
<path d="M14.4905 5.23562L12.3568 4.72006C12.2839 4.70248 12.2146 4.67494 12.1502 4.63898L6.71094 11.6744C6.92428 11.8806 7.24617 11.9707 7.56092 11.8567L9.62465 11.1087C9.75504 11.0615 9.89414 11.0493 10.0291 11.0702C10.1641 11.0493 10.3032 11.0615 10.4336 11.1087L12.4974 11.8567C13.0572 12.0596 13.6396 11.6167 13.5938 11.023L13.4248 8.83448C13.409 8.63087 13.4699 8.42877 13.5954 8.26768L14.9445 6.53607C15.3105 6.06628 15.0693 5.37551 14.4905 5.23562Z" fill="url(#paint5_linear_3003_10886)"/>
<path d="M5.56908 5.23562L7.70279 4.72006C7.77566 4.70248 7.845 4.67494 7.90943 4.63898L13.3487 11.6744C13.1353 11.8806 12.8134 11.9707 12.4987 11.8567L10.435 11.1087C10.3046 11.0615 10.1655 11.0493 10.0305 11.0702C9.89547 11.0493 9.75636 11.0615 9.62598 11.1087L7.56225 11.8567C7.00244 12.0596 6.42 11.6167 6.46584 11.023L6.63485 8.83448C6.65057 8.63087 6.58973 8.42877 6.46425 8.26768L5.11515 6.53607C4.74908 6.06628 4.99031 5.37551 5.56908 5.23562Z" fill="url(#paint6_linear_3003_10886)"/>
<path d="M5.00034 5.73029C4.89886 5.98615 4.92322 6.29103 5.11422 6.53623L6.46333 8.26784C6.58881 8.42893 6.64964 8.63103 6.63393 8.83464L6.46491 11.0232C6.41907 11.6169 7.00151 12.0597 7.56132 11.8568L9.62505 11.1089C9.75544 11.0616 9.89454 11.0494 10.0295 11.0703C10.1645 11.0494 10.3036 11.0616 10.434 11.1089L12.4978 11.8568C13.0576 12.0597 13.64 11.6168 13.5942 11.0232L13.4252 8.83464C13.4164 8.7217 13.4321 8.60941 13.4685 8.5041L5.00034 5.73029Z" fill="url(#paint7_linear_3003_10886)"/>
<path d="M15.0632 5.73029C15.1646 5.98615 15.1403 6.29103 14.9493 6.53623L13.6002 8.26784C13.4747 8.42893 13.4139 8.63103 13.4296 8.83464L13.5986 11.0232C13.6444 11.6169 13.062 12.0597 12.5022 11.8568L10.4385 11.1089C10.3081 11.0616 10.169 11.0494 10.034 11.0703C9.89897 11.0494 9.75986 11.0616 9.62948 11.1089L7.56575 11.8568C7.00594 12.0597 6.4235 11.6168 6.46934 11.0232L6.63835 8.83464C6.64708 8.7217 6.63144 8.60941 6.59504 8.5041L15.0632 5.73029Z" fill="url(#paint8_linear_3003_10886)"/>
<path d="M14.2708 7.40454H5.79492L6.46666 8.26671C6.59215 8.42779 6.65298 8.62989 6.63727 8.83351L6.46825 11.0221C6.42241 11.6158 7.00485 12.0586 7.56466 11.8557L9.62839 11.1078C9.75878 11.0605 9.89788 11.0483 10.0329 11.0692C10.1679 11.0483 10.307 11.0605 10.4374 11.1078L12.5011 11.8557C13.0609 12.0586 13.6433 11.6157 13.5975 11.0221L13.4285 8.83351C13.4128 8.62989 13.4736 8.42779 13.5991 8.26671L14.2708 7.40454Z" fill="url(#paint9_linear_3003_10886)"/>
<path d="M6.06851 9.58036L4.9012 9.29829C4.79259 9.27203 4.69771 9.20621 4.63514 9.1137L3.96225 8.11903C3.88083 7.99871 3.75617 7.93418 3.62783 7.92377C3.49954 7.93418 3.37482 7.99871 3.2934 8.11903L2.62051 9.1137C2.55789 9.20621 2.46301 9.27209 2.35445 9.29829L1.18715 9.58036C0.870487 9.65685 0.738571 10.0348 0.93875 10.2918L1.6768 11.2391C1.74547 11.3273 1.77872 11.4378 1.77013 11.5492L1.67762 12.7465C1.65256 13.0713 1.97119 13.3136 2.27744 13.2026L3.40652 12.7934C3.47783 12.7676 3.55392 12.7609 3.62783 12.7723C3.70168 12.7609 3.77777 12.7676 3.84914 12.7934L4.97822 13.2026C5.28447 13.3136 5.60315 13.0713 5.57803 12.7465L5.48553 11.5492C5.47693 11.4378 5.51023 11.3272 5.57886 11.2391L6.3169 10.2918C6.51713 10.0348 6.38517 9.65685 6.06851 9.58036Z" fill="url(#paint10_linear_3003_10886)"/>
<path d="M3.84826 12.7934L4.97734 13.2026C5.28359 13.3136 5.60228 13.0713 5.57716 12.7465L5.48465 11.5492C5.47606 11.4378 5.50936 11.3272 5.57798 11.2391L6.31603 10.2918C6.51621 10.0348 6.38424 9.65685 6.06763 9.58036L4.90033 9.29829C4.79172 9.27203 4.69684 9.20621 4.63427 9.1137L3.96138 8.11903C3.87996 7.99871 3.7553 7.93418 3.62695 7.92377V12.7724C3.70086 12.7609 3.77694 12.7676 3.84826 12.7934Z" fill="url(#paint11_linear_3003_10886)"/>
<path d="M6.07052 9.58012L4.90321 9.29806C4.86339 9.28842 4.82542 9.27335 4.79015 9.25372L1.81445 13.1027C1.93119 13.2155 2.10729 13.2648 2.2795 13.2024L3.40858 12.7932C3.4799 12.7673 3.55598 12.7607 3.62989 12.7721C3.70375 12.7607 3.77983 12.7673 3.8512 12.7932L4.98028 13.2024C5.28653 13.3134 5.60521 13.0711 5.58009 12.7463L5.48759 11.549C5.47899 11.4376 5.5123 11.327 5.58092 11.2389L6.31897 10.2915C6.51915 10.0345 6.38718 9.65662 6.07052 9.58012Z" fill="url(#paint12_linear_3003_10886)"/>
<path d="M1.18716 9.58012L2.35447 9.29806C2.3943 9.28842 2.43226 9.27335 2.46753 9.25372L5.44323 13.1027C5.32649 13.2155 5.15039 13.2648 4.97818 13.2024L3.8491 12.7932C3.77778 12.7673 3.7017 12.7607 3.62779 12.7721C3.55393 12.7607 3.47785 12.7673 3.40648 12.7932L2.2774 13.2024C1.97115 13.3134 1.65247 13.0711 1.67759 12.7463L1.77009 11.549C1.77869 11.4376 1.74539 11.327 1.67676 11.2389L0.938714 10.2915C0.738587 10.0345 0.870503 9.65662 1.18716 9.58012Z" fill="url(#paint13_linear_3003_10886)"/>
<path d="M0.875999 9.85077C0.820477 9.99076 0.833788 10.1575 0.938306 10.2917L1.67635 11.239C1.74503 11.3272 1.77828 11.4377 1.76968 11.5491L1.67718 12.7464C1.65211 13.0712 1.97074 13.3135 2.27699 13.2025L3.40607 12.7933C3.47739 12.7675 3.55347 12.7608 3.62738 12.7722C3.70124 12.7608 3.77732 12.7675 3.84869 12.7933L4.97777 13.2025C5.28402 13.3135 5.6027 13.0712 5.57758 12.7464L5.48508 11.5491C5.48032 11.4873 5.48886 11.4259 5.5088 11.3683L0.875999 9.85077Z" fill="url(#paint14_linear_3003_10886)"/>
<path d="M6.37876 9.85077C6.43428 9.99076 6.42097 10.1575 6.31645 10.2917L5.57841 11.239C5.50973 11.3272 5.47648 11.4377 5.48508 11.5491L5.57758 12.7464C5.60265 13.0712 5.28402 13.3135 4.97777 13.2025L3.84869 12.7933C3.77737 12.7675 3.70129 12.7608 3.62738 12.7722C3.55352 12.7608 3.47744 12.7675 3.40607 12.7933L2.27699 13.2025C1.97074 13.3135 1.65206 13.0712 1.67718 12.7464L1.76968 11.5491C1.77444 11.4873 1.7659 11.4259 1.74596 11.3683L6.37876 9.85077Z" fill="url(#paint15_linear_3003_10886)"/>
<path d="M5.94564 10.7684H1.30859L1.67606 11.2401C1.74474 11.3283 1.77799 11.4388 1.76939 11.5502L1.67689 12.7475C1.65182 13.0723 1.97045 13.3146 2.2767 13.2036L3.40578 12.7944C3.4771 12.7686 3.55318 12.7619 3.62709 12.7733C3.70095 12.7619 3.77703 12.7686 3.8484 12.7944L4.97748 13.2036C5.28373 13.3146 5.60241 13.0723 5.5773 12.7475L5.48479 11.5502C5.4762 11.4388 5.5095 11.3282 5.57812 11.2401L5.94564 10.7684Z" fill="url(#paint16_linear_3003_10886)"/>
<path d="M18.8791 9.58036L17.7117 9.29829C17.6031 9.27203 17.5083 9.20621 17.4457 9.1137L16.7728 8.11903C16.6914 7.99871 16.5667 7.93418 16.4384 7.92377C16.3101 7.93418 16.1854 7.99871 16.1039 8.11903L15.4311 9.1137C15.3684 9.20621 15.2736 9.27209 15.165 9.29829L13.9977 9.58036C13.681 9.65685 13.5491 10.0348 13.7493 10.2918L14.4873 11.2391C14.556 11.3273 14.5893 11.4378 14.5807 11.5492L14.4882 12.7465C14.4631 13.0713 14.7817 13.3136 15.088 13.2026L16.2171 12.7934C16.2884 12.7676 16.3645 12.7609 16.4384 12.7723C16.5122 12.7609 16.5883 12.7676 16.6597 12.7934L17.7888 13.2026C18.095 13.3136 18.4137 13.0713 18.3886 12.7465L18.2961 11.5492C18.2875 11.4378 18.3208 11.3272 18.3894 11.2391L19.1274 10.2918C19.3276 10.0348 19.1957 9.65685 18.8791 9.58036Z" fill="url(#paint17_linear_3003_10886)"/>
<path d="M16.6588 12.7934L17.7879 13.2026C18.0941 13.3136 18.4128 13.0713 18.3877 12.7465L18.2952 11.5492C18.2866 11.4378 18.3199 11.3272 18.3885 11.2391L19.1266 10.2918C19.3268 10.0348 19.1948 9.65685 18.8782 9.58036L17.7109 9.29829C17.6023 9.27203 17.5074 9.20621 17.4448 9.1137L16.7719 8.11903C16.6905 7.99871 16.5658 7.93418 16.4375 7.92377V12.7724C16.5114 12.7609 16.5874 12.7676 16.6588 12.7934Z" fill="url(#paint18_linear_3003_10886)"/>
<path d="M18.8811 9.58012L17.7138 9.29806C17.6739 9.28842 17.636 9.27335 17.6007 9.25372L14.625 13.1027C14.7417 13.2155 14.9178 13.2648 15.09 13.2024L16.2191 12.7932C16.2904 12.7673 16.3665 12.7607 16.4404 12.7721C16.5143 12.7607 16.5904 12.7673 16.6617 12.7932L17.7908 13.2024C18.0971 13.3134 18.4158 13.0711 18.3906 12.7463L18.2981 11.549C18.2895 11.4376 18.3228 11.327 18.3915 11.2389L19.1295 10.2915C19.3296 10.0345 19.1977 9.65662 18.8811 9.58012Z" fill="url(#paint19_linear_3003_10886)"/>
<path d="M13.9977 9.58012L15.165 9.29806C15.2048 9.28842 15.2428 9.27335 15.2781 9.25372L18.2538 13.1027C18.137 13.2155 17.9609 13.2648 17.7887 13.2024L16.6596 12.7932C16.5883 12.7673 16.5122 12.7607 16.4383 12.7721C16.3645 12.7607 16.2884 12.7673 16.217 12.7932L15.0879 13.2024C14.7817 13.3134 14.463 13.0711 14.4881 12.7463L14.5806 11.549C14.5892 11.4376 14.5559 11.327 14.4873 11.2389L13.7493 10.2915C13.5491 10.0345 13.6811 9.65662 13.9977 9.58012Z" fill="url(#paint20_linear_3003_10886)"/>
<path d="M13.6865 9.85077C13.631 9.99076 13.6443 10.1575 13.7489 10.2917L14.4869 11.239C14.5556 11.3272 14.5888 11.4377 14.5802 11.5491L14.4877 12.7464C14.4627 13.0712 14.7813 13.3135 15.0875 13.2025L16.2166 12.7933C16.2879 12.7675 16.364 12.7608 16.4379 12.7722C16.5118 12.7608 16.5879 12.7675 16.6592 12.7933L17.7883 13.2025C18.0946 13.3135 18.4132 13.0712 18.3881 12.7464L18.2956 11.5491C18.2909 11.4873 18.2994 11.4259 18.3193 11.3683L13.6865 9.85077Z" fill="url(#paint21_linear_3003_10886)"/>
<path d="M19.1893 9.85077C19.2448 9.99076 19.2315 10.1575 19.127 10.2917L18.389 11.239C18.3203 11.3272 18.287 11.4377 18.2956 11.5491L18.3881 12.7464C18.4132 13.0712 18.0946 13.3135 17.7883 13.2025L16.6592 12.7933C16.5879 12.7675 16.5118 12.7608 16.4379 12.7722C16.3641 12.7608 16.288 12.7675 16.2166 12.7933L15.0875 13.2025C14.7813 13.3135 14.4626 13.0712 14.4877 12.7464L14.5802 11.5491C14.585 11.4873 14.5764 11.4259 14.5565 11.3683L19.1893 9.85077Z" fill="url(#paint22_linear_3003_10886)"/>
<path d="M18.7581 10.7684H14.1211L14.4886 11.2401C14.5572 11.3283 14.5905 11.4388 14.5819 11.5502L14.4894 12.7475C14.4643 13.0723 14.783 13.3146 15.0892 13.2036L16.2183 12.7944C16.2896 12.7686 16.3657 12.7619 16.4396 12.7733C16.5134 12.7619 16.5895 12.7686 16.6609 12.7944L17.79 13.2036C18.0962 13.3146 18.4149 13.0723 18.3898 12.7475L18.2973 11.5502C18.2887 11.4388 18.322 11.3282 18.3906 11.2401L18.7581 10.7684Z" fill="url(#paint23_linear_3003_10886)"/>
</g>
<defs>
<linearGradient id="paint0_linear_3003_10886" x1="10" y1="11.4472" x2="10" y2="15.4893" gradientUnits="userSpaceOnUse">
<stop stop-color="#FFFCF8"/>
<stop offset="0.1875" stop-color="#E4F2FF"/>
<stop offset="0.4041" stop-color="#E0EAFF"/>
<stop offset="0.6353" stop-color="#C9DAFF"/>
<stop offset="0.875" stop-color="#B2CBFF"/>
<stop offset="1" stop-color="#B2CBFF"/>
</linearGradient>
<radialGradient id="paint1_radial_3003_10886" cx="0" cy="0" r="1" gradientUnits="userSpaceOnUse" gradientTransform="translate(9.92134 17.28) scale(10.9827 4.79831)">
<stop stop-color="#BFDBFF"/>
<stop offset="0.3871" stop-color="#BFDBFF" stop-opacity="0.611765"/>
<stop offset="0.5898" stop-color="#BFDBFF" stop-opacity="0.411765"/>
<stop offset="0.7497" stop-color="#BFDBFF" stop-opacity="0.25098"/>
<stop offset="0.8864" stop-color="#BFDBFF" stop-opacity="0.113725"/>
<stop offset="1" stop-color="#BFDBFF" stop-opacity="0"/>
</radialGradient>
<linearGradient id="paint2_linear_3003_10886" x1="15.2085" y1="12.1607" x2="13.2972" y2="9.84251" gradientUnits="userSpaceOnUse">
<stop stop-color="#86DA44" stop-opacity="0"/>
<stop offset="0.2413" stop-color="#86DA44" stop-opacity="0.243137"/>
<stop offset="0.7044" stop-color="#86DA44" stop-opacity="0.705882"/>
<stop offset="1" stop-color="#86DA44"/>
</linearGradient>
<linearGradient id="paint3_linear_3003_10886" x1="7.7641" y1="5.53195" x2="13.5" y2="13.5" gradientUnits="userSpaceOnUse">
<stop stop-color="#BFDBFF"/>
<stop offset="1" stop-color="#498ADE"/>
</linearGradient>
<linearGradient id="paint4_linear_3003_10886" x1="12.4781" y1="6.64623" x2="6.82951" y2="8.98147" gradientUnits="userSpaceOnUse">
<stop stop-color="#498ADE" stop-opacity="0"/>
<stop offset="0.9957" stop-color="#498ADE" stop-opacity="0.996"/>
<stop offset="1" stop-color="#498ADE"/>
</linearGradient>
<linearGradient id="paint5_linear_3003_10886" x1="11.0032" y1="8.65062" x2="7.91063" y2="7.32522" gradientUnits="userSpaceOnUse">
<stop stop-color="#498ADE" stop-opacity="0"/>
<stop offset="0.9957" stop-color="#498ADE" stop-opacity="0.996"/>
<stop offset="1" stop-color="#498ADE"/>
</linearGradient>
<linearGradient id="paint6_linear_3003_10886" x1="9.05637" y1="8.65062" x2="12.149" y2="7.32522" gradientUnits="userSpaceOnUse">
<stop stop-color="#498ADE" stop-opacity="0"/>
<stop offset="0.9957" stop-color="#498ADE" stop-opacity="0.996"/>
<stop offset="1" stop-color="#498ADE"/>
</linearGradient>
<linearGradient id="paint7_linear_3003_10886" x1="9.12435" y1="8.80595" x2="11.1124" y2="5.61086" gradientUnits="userSpaceOnUse">
<stop stop-color="#498ADE" stop-opacity="0"/>
<stop offset="0.9957" stop-color="#498ADE" stop-opacity="0.996"/>
<stop offset="1" stop-color="#498ADE"/>
</linearGradient>
<linearGradient id="paint8_linear_3003_10886" x1="10.7859" y1="8.40248" x2="10.6202" y2="5.27837" gradientUnits="userSpaceOnUse">
<stop stop-color="#498ADE" stop-opacity="0"/>
<stop offset="0.9957" stop-color="#498ADE" stop-opacity="0.996"/>
<stop offset="1" stop-color="#498ADE"/>
</linearGradient>
<linearGradient id="paint9_linear_3003_10886" x1="10.0329" y1="9.16923" x2="10.0329" y2="12.6406" gradientUnits="userSpaceOnUse">
<stop stop-color="#498ADE" stop-opacity="0"/>
<stop offset="0.9957" stop-color="#498ADE" stop-opacity="0.996"/>
<stop offset="1" stop-color="#498ADE"/>
</linearGradient>
<linearGradient id="paint10_linear_3003_10886" x1="2.38791" y1="9.74236" x2="4.6238" y2="11.9783" gradientUnits="userSpaceOnUse">
<stop stop-color="#DEFFC4"/>
<stop offset="1" stop-color="#B9FF82"/>
</linearGradient>
<linearGradient id="paint11_linear_3003_10886" x1="4.96673" y1="10.352" x2="1.87641" y2="11.6295" gradientUnits="userSpaceOnUse">
<stop stop-color="#86DA44" stop-opacity="0"/>
<stop offset="0.9957" stop-color="#86DA44" stop-opacity="0.996"/>
<stop offset="1" stop-color="#86DA44"/>
</linearGradient>
<linearGradient id="paint12_linear_3003_10886" x1="4.16268" y1="11.4484" x2="2.47077" y2="10.7233" gradientUnits="userSpaceOnUse">
<stop stop-color="#86DA44" stop-opacity="0"/>
<stop offset="0.9957" stop-color="#86DA44" stop-opacity="0.996"/>
<stop offset="1" stop-color="#86DA44"/>
</linearGradient>
<linearGradient id="paint13_linear_3003_10886" x1="3.09505" y1="11.4484" x2="4.78691" y2="10.7233" gradientUnits="userSpaceOnUse">
<stop stop-color="#86DA44" stop-opacity="0"/>
<stop offset="0.9957" stop-color="#86DA44" stop-opacity="0.996"/>
<stop offset="1" stop-color="#86DA44"/>
</linearGradient>
<linearGradient id="paint14_linear_3003_10886" x1="3.13219" y1="11.5334" x2="4.21984" y2="9.78541" gradientUnits="userSpaceOnUse">
<stop stop-color="#86DA44" stop-opacity="0"/>
<stop offset="0.9957" stop-color="#86DA44" stop-opacity="0.996"/>
<stop offset="1" stop-color="#86DA44"/>
</linearGradient>
<linearGradient id="paint15_linear_3003_10886" x1="4.03871" y1="11.3127" x2="3.94808" y2="9.60351" gradientUnits="userSpaceOnUse">
<stop stop-color="#86DA44" stop-opacity="0"/>
<stop offset="0.9957" stop-color="#86DA44" stop-opacity="0.996"/>
<stop offset="1" stop-color="#86DA44"/>
</linearGradient>
<linearGradient id="paint16_linear_3003_10886" x1="3.62715" y1="11.7338" x2="3.62715" y2="13.633" gradientUnits="userSpaceOnUse">
<stop stop-color="#86DA44" stop-opacity="0"/>
<stop offset="0.9957" stop-color="#86DA44" stop-opacity="0.996"/>
<stop offset="1" stop-color="#86DA44"/>
</linearGradient>
<linearGradient id="paint17_linear_3003_10886" x1="15.1985" y1="9.74236" x2="17.4343" y2="11.9783" gradientUnits="userSpaceOnUse">
<stop stop-color="#DEFFC4"/>
<stop offset="1" stop-color="#B9FF82"/>
</linearGradient>
<linearGradient id="paint18_linear_3003_10886" x1="17.7772" y1="10.352" x2="14.6869" y2="11.6295" gradientUnits="userSpaceOnUse">
<stop stop-color="#86DA44" stop-opacity="0"/>
<stop offset="0.9957" stop-color="#86DA44" stop-opacity="0.996"/>
<stop offset="1" stop-color="#86DA44"/>
</linearGradient>
<linearGradient id="paint19_linear_3003_10886" x1="16.9732" y1="11.4484" x2="15.2813" y2="10.7233" gradientUnits="userSpaceOnUse">
<stop stop-color="#86DA44" stop-opacity="0"/>
<stop offset="0.9957" stop-color="#86DA44" stop-opacity="0.996"/>
<stop offset="1" stop-color="#86DA44"/>
</linearGradient>
<linearGradient id="paint20_linear_3003_10886" x1="15.9056" y1="11.4484" x2="17.5975" y2="10.7233" gradientUnits="userSpaceOnUse">
<stop stop-color="#86DA44" stop-opacity="0"/>
<stop offset="0.9957" stop-color="#86DA44" stop-opacity="0.996"/>
<stop offset="1" stop-color="#86DA44"/>
</linearGradient>
<linearGradient id="paint21_linear_3003_10886" x1="15.9427" y1="11.5334" x2="17.0303" y2="9.78541" gradientUnits="userSpaceOnUse">
<stop stop-color="#86DA44" stop-opacity="0"/>
<stop offset="0.9957" stop-color="#86DA44" stop-opacity="0.996"/>
<stop offset="1" stop-color="#86DA44"/>
</linearGradient>
<linearGradient id="paint22_linear_3003_10886" x1="16.8493" y1="11.3127" x2="16.7587" y2="9.60351" gradientUnits="userSpaceOnUse">
<stop stop-color="#86DA44" stop-opacity="0"/>
<stop offset="0.9957" stop-color="#86DA44" stop-opacity="0.996"/>
<stop offset="1" stop-color="#86DA44"/>
</linearGradient>
<linearGradient id="paint23_linear_3003_10886" x1="16.4396" y1="11.7338" x2="16.4396" y2="13.633" gradientUnits="userSpaceOnUse">
<stop stop-color="#86DA44" stop-opacity="0"/>
<stop offset="0.9957" stop-color="#86DA44" stop-opacity="0.996"/>
<stop offset="1" stop-color="#86DA44"/>
</linearGradient>
<clipPath id="clip0_3003_10886">
<rect width="20" height="20" fill="white"/>
</clipPath>
</defs>
</svg>
