<svg width="20" height="20" viewBox="0 0 20 20" fill="none" xmlns="http://www.w3.org/2000/svg">
<g clip-path="url(#clip0_3003_10954)">
<path d="M1.0918 2.77851V11.075C1.0918 11.2513 1.23474 11.3942 1.41101 11.3942C1.58733 11.3942 1.73023 11.2513 1.73023 11.075V2.77851C1.73023 2.60219 1.58733 2.45929 1.41101 2.45929C1.23474 2.45929 1.0918 2.60223 1.0918 2.77851Z" fill="url(#paint0_linear_3003_10954)"/>
<path d="M1.0918 2.77851V11.075C1.0918 11.2513 1.23474 11.3942 1.41101 11.3942C1.58733 11.3942 1.73023 11.2513 1.73023 11.075V2.77851C1.73023 2.60219 1.58733 2.45929 1.41101 2.45929C1.23474 2.45929 1.0918 2.60223 1.0918 2.77851Z" fill="url(#paint1_linear_3003_10954)"/>
<path d="M2.76455 15.0178H0.992196C0.444235 15.0178 0 14.5735 0 14.0256V11.1867C0 10.6387 0.444235 10.1945 0.992196 10.1945H2.76459L2.76455 15.0178Z" fill="url(#paint2_linear_3003_10954)"/>
<path d="M0 11.7785V14.0256C0 14.5736 0.444235 15.0178 0.992196 15.0178H2.76459V11.7785H0Z" fill="url(#paint3_linear_3003_10954)"/>
<path d="M18.7852 19.8765H3.61022C2.93881 19.8765 2.39453 19.3322 2.39453 18.6608V8.26866C2.39453 7.59725 2.93881 7.05298 3.61022 7.05298H18.7852C19.4566 7.05298 20.0009 7.59725 20.0009 8.26866V18.6608C20.0009 19.3322 19.4566 19.8765 18.7852 19.8765Z" fill="url(#paint4_linear_3003_10954)"/>
<path d="M3.60987 19.2883C3.26391 19.2883 2.98242 19.0068 2.98242 18.6608V8.26869C2.98242 7.92273 3.26391 7.64124 3.60987 7.64124H18.7849C19.1309 7.64124 19.4123 7.92273 19.4123 8.26869V18.6608C19.4123 19.0068 19.1309 19.2883 18.7849 19.2883H3.60987Z" fill="url(#paint5_linear_3003_10954)"/>
<path d="M2.39453 13.5432V18.6608C2.39453 19.3322 2.93881 19.8765 3.61022 19.8765H18.7852C19.4566 19.8765 20.0009 19.3322 20.0009 18.6608V13.5432H2.39453Z" fill="url(#paint6_linear_3003_10954)"/>
<path d="M8.66788 8.22943H4.12914C3.82051 8.22943 3.57031 8.47963 3.57031 8.78825V18.1412C3.57031 18.4498 3.82051 18.7 4.12914 18.7H8.66788V8.22943Z" fill="url(#paint7_linear_3003_10954)"/>
<path d="M8.66797 8.22943H13.7263V18.7H8.66797V8.22943Z" fill="url(#paint8_linear_3003_10954)"/>
<path d="M18.2653 8.22943H13.7266V18.7H18.2653C18.5739 18.7 18.8241 18.4498 18.8241 18.1412V8.78825C18.8241 8.47963 18.5739 8.22943 18.2653 8.22943Z" fill="url(#paint9_linear_3003_10954)"/>
<path d="M7.98197 11.9819C7.98197 12.1791 7.8606 12.4749 7.73926 12.7024L5.96444 16.1004C5.90377 16.2142 5.78997 16.2597 5.63071 16.2597C5.25907 16.2597 4.87981 16.0019 4.87981 15.6605C4.87981 15.5922 4.89495 15.5316 4.93291 15.4633L6.79875 12.2322V11.7013H5.44107V12.2095C5.44107 12.4142 5.15283 12.5735 4.84185 12.5735C4.5233 12.5735 4.25781 12.4142 4.25781 12.2095V11.0338C4.25781 10.8518 4.51573 10.6697 4.77358 10.6697H7.46617C7.69373 10.6697 7.98193 10.8517 7.98193 11.0338V11.9819H7.98197Z" fill="url(#paint10_linear_3003_10954)"/>
<path d="M13.0601 11.9819C13.0601 12.1791 12.9387 12.4749 12.8174 12.7024L11.0426 16.1004C10.9819 16.2142 10.8681 16.2597 10.7088 16.2597C10.3372 16.2597 9.95794 16.0019 9.95794 15.6605C9.95794 15.5922 9.97307 15.5316 10.011 15.4633L11.8769 12.2322V11.7013H10.5192V12.2095C10.5192 12.4142 10.231 12.5735 9.91998 12.5735C9.60143 12.5735 9.33594 12.4142 9.33594 12.2095V11.0338C9.33594 10.8518 9.59386 10.6697 9.8517 10.6697H12.5443C12.7719 10.6697 13.0601 10.8517 13.0601 11.0338V11.9819H13.0601Z" fill="url(#paint11_linear_3003_10954)"/>
<path d="M18.1382 11.9819C18.1382 12.1791 18.0168 12.4749 17.8955 12.7024L16.1207 16.1004C16.06 16.2142 15.9462 16.2597 15.787 16.2597C15.4153 16.2597 15.0361 16.0019 15.0361 15.6605C15.0361 15.5922 15.0512 15.5316 15.0892 15.4633L16.955 12.2322V11.7013H15.5973V12.2095C15.5973 12.4142 15.3091 12.5735 14.9981 12.5735C14.6796 12.5735 14.4141 12.4142 14.4141 12.2095V11.0338C14.4141 10.8518 14.672 10.6697 14.9298 10.6697H17.6224C17.85 10.6697 18.1382 10.8517 18.1382 11.0338V11.9819H18.1382Z" fill="url(#paint12_linear_3003_10954)"/>
<path d="M8.50977 11.7V18.7H4.05793C3.75519 18.7 3.50977 18.3604 3.50977 17.9415V11.7H8.50977Z" fill="url(#paint13_linear_3003_10954)"/>
<path d="M8.72656 11.7H13.7266V18.7H8.72656V11.7Z" fill="url(#paint14_linear_3003_10954)"/>
<path d="M18.9434 11.7V17.9415C18.9434 18.3604 18.698 18.7 18.3952 18.7H13.9434V11.7H18.9434Z" fill="url(#paint15_linear_3003_10954)"/>
<path d="M1.41131 3.60203C2.12603 3.60203 2.70542 3.02263 2.70542 2.30791C2.70542 1.59319 2.12603 1.01379 1.41131 1.01379C0.696584 1.01379 0.117188 1.59319 0.117188 2.30791C0.117188 3.02263 0.696584 3.60203 1.41131 3.60203Z" fill="url(#paint16_linear_3003_10954)"/>
<path d="M13.4982 1.65665L12.3309 1.37459C12.2223 1.34833 12.1274 1.2825 12.0648 1.19L11.3919 0.19532C11.3105 0.0750053 11.1859 0.0104714 11.0575 6.10352e-05C10.9292 0.0104714 10.8045 0.0750053 10.7231 0.19532L10.0502 1.19C9.98758 1.2825 9.8927 1.34838 9.78414 1.37459L8.61684 1.65665C8.30017 1.73315 8.16826 2.11108 8.36844 2.36807L9.10648 3.31541C9.17516 3.40357 9.20841 3.51414 9.19981 3.6255L9.10731 4.82284C9.08224 5.14763 9.40087 5.38992 9.70712 5.27893L10.8362 4.86971C10.9075 4.84387 10.9836 4.83719 11.0575 4.84863C11.1314 4.83719 11.2075 4.84387 11.2788 4.86971L12.4079 5.27893C12.7142 5.38992 13.0328 5.14763 13.0077 4.82284L12.9152 3.6255C12.9066 3.51409 12.9399 3.40351 13.0085 3.31541L13.7466 2.36807C13.9468 2.11108 13.8149 1.73315 13.4982 1.65665Z" fill="url(#paint17_linear_3003_10954)"/>
<path d="M11.278 4.86971L12.407 5.27893C12.7133 5.38992 13.032 5.14763 13.0068 4.82284L12.9143 3.6255C12.9057 3.51409 12.939 3.40351 13.0077 3.31541L13.7457 2.36807C13.9459 2.11113 13.8139 1.73315 13.4973 1.65665L12.33 1.37459C12.2214 1.34833 12.1265 1.2825 12.064 1.19L11.3911 0.19532C11.3096 0.0750053 11.185 0.0104714 11.0566 6.10352e-05V4.84869C11.1305 4.83719 11.2066 4.84387 11.278 4.86971Z" fill="url(#paint18_linear_3003_10954)"/>
<path d="M13.5002 1.65641L12.3329 1.37435C12.2931 1.36472 12.2551 1.34965 12.2198 1.33002L9.24414 5.17899C9.36088 5.2918 9.53698 5.3411 9.70919 5.27869L10.8383 4.86948C10.9096 4.84363 10.9857 4.83695 11.0596 4.8484C11.1334 4.83695 11.2095 4.84363 11.2809 4.86948L12.41 5.27869C12.7162 5.38968 13.0349 5.1474 13.0098 4.82261L12.9173 3.62526C12.9087 3.51386 12.942 3.40328 13.0106 3.31518L13.7487 2.36784C13.9488 2.11084 13.8169 1.73291 13.5002 1.65641Z" fill="url(#paint19_linear_3003_10954)"/>
<path d="M8.61685 1.65641L9.78416 1.37435C9.82398 1.36472 9.86195 1.34965 9.89722 1.33002L12.8729 5.17899C12.7562 5.2918 12.5801 5.3411 12.4079 5.27869L11.2788 4.86948C11.2075 4.84363 11.1314 4.83695 11.0575 4.8484C10.9836 4.83695 10.9075 4.84363 10.8362 4.86948L9.70709 5.27869C9.40084 5.38968 9.08216 5.1474 9.10728 4.82261L9.19978 3.62526C9.20838 3.51386 9.17507 3.40328 9.10645 3.31518L8.3684 2.36784C8.16827 2.11084 8.30019 1.73291 8.61685 1.65641Z" fill="url(#paint20_linear_3003_10954)"/>
<path d="M8.30569 1.92706C8.25016 2.06706 8.26348 2.23383 8.36799 2.36797L9.10604 3.31531C9.17472 3.40347 9.20797 3.51404 9.19937 3.6254L9.10687 4.82274C9.0818 5.14753 9.40043 5.38982 9.70668 5.27883L10.8358 4.86961C10.9071 4.84377 10.9832 4.83709 11.0571 4.84853C11.1309 4.83709 11.207 4.84377 11.2784 4.86961L12.4075 5.27883C12.7137 5.38982 13.0324 5.14753 13.0073 4.82274L12.9148 3.6254C12.91 3.56361 12.9186 3.50218 12.9385 3.44459L8.30569 1.92706Z" fill="url(#paint21_linear_3003_10954)"/>
<path d="M13.8084 1.92706C13.864 2.06706 13.8507 2.23383 13.7461 2.36797L13.0081 3.31531C12.9394 3.40347 12.9062 3.51404 12.9148 3.6254L13.0073 4.82274C13.0323 5.14753 12.7137 5.38982 12.4075 5.27883L11.2784 4.86961C11.2071 4.84377 11.131 4.83709 11.0571 4.84853C10.9832 4.83709 10.9071 4.84377 10.8358 4.86961L9.70667 5.27883C9.40042 5.38982 9.08174 5.14753 9.10686 4.82274L9.19936 3.6254C9.20413 3.56361 9.19558 3.50218 9.17564 3.44459L13.8084 1.92706Z" fill="url(#paint22_linear_3003_10954)"/>
<path d="M13.3753 2.84473H8.73828L9.10575 3.3164C9.17443 3.40455 9.20768 3.51513 9.19908 3.62649L9.10658 4.82383C9.08151 5.14862 9.40014 5.39091 9.70639 5.27992L10.8355 4.8707C10.9068 4.84486 10.9829 4.83818 11.0568 4.84962C11.1306 4.83818 11.2067 4.84486 11.2781 4.8707L12.4072 5.27992C12.7134 5.39091 13.0321 5.14862 13.007 4.82383L12.9145 3.62649C12.9059 3.51508 12.9392 3.4045 13.0078 3.3164L13.3753 2.84473Z" fill="url(#paint23_linear_3003_10954)"/>
<path d="M7.73591 3.8259L6.90953 3.62622C6.83265 3.60763 6.76547 3.56102 6.72118 3.49554L6.24482 2.79137C6.18718 2.70619 6.09892 2.66051 6.00806 2.65314C5.91724 2.66051 5.82895 2.70619 5.77131 2.79137L5.29495 3.49554C5.25062 3.56102 5.18344 3.60766 5.10659 3.62622L4.28021 3.8259C4.05604 3.88006 3.96265 4.14761 4.10436 4.32954L4.62685 5.0002C4.67547 5.06261 4.69901 5.14089 4.69293 5.21972L4.62744 6.06737C4.60969 6.2973 4.83526 6.46882 5.05207 6.39025L5.85139 6.10055C5.90188 6.08225 5.95574 6.07752 6.00806 6.08563C6.06035 6.07752 6.11421 6.08225 6.16474 6.10055L6.96406 6.39025C7.18086 6.46882 7.40647 6.2973 7.38869 6.06737L7.3232 5.21972C7.31711 5.14085 7.34069 5.06257 7.38927 5.0002L7.91176 4.32954C8.05351 4.14761 7.96009 3.88006 7.73591 3.8259Z" fill="url(#paint24_linear_3003_10954)"/>
<path d="M6.16449 6.10055L6.96381 6.39025C7.18061 6.46882 7.40622 6.2973 7.38844 6.06737L7.32295 5.21972C7.31686 5.14085 7.34044 5.06257 7.38902 5.0002L7.91151 4.32954C8.05323 4.14764 7.9598 3.88006 7.73566 3.8259L6.90928 3.62622C6.83239 3.60763 6.76522 3.56102 6.72093 3.49554L6.24457 2.79137C6.18693 2.70619 6.09867 2.66051 6.00781 2.65314V6.08566C6.06013 6.07752 6.114 6.08225 6.16449 6.10055Z" fill="url(#paint25_linear_3003_10954)"/>
<path d="M7.73764 3.82573L6.91126 3.62605C6.88306 3.61923 6.85619 3.60856 6.83122 3.59467L4.72461 6.3195C4.80725 6.39936 4.93192 6.43427 5.05383 6.39008L5.85315 6.10038C5.90364 6.08209 5.9575 6.07736 6.00983 6.08546C6.06211 6.07736 6.11597 6.08209 6.1665 6.10038L6.96582 6.39008C7.18263 6.46866 7.40823 6.29713 7.39045 6.0672L7.32496 5.21956C7.31888 5.14069 7.34245 5.06241 7.39104 5.00004L7.91353 4.32938C8.05524 4.14744 7.96182 3.87989 7.73764 3.82573Z" fill="url(#paint26_linear_3003_10954)"/>
<path d="M4.28022 3.82573L5.1066 3.62605C5.1348 3.61923 5.16168 3.60856 5.18665 3.59467L7.29325 6.3195C7.21061 6.39936 7.08595 6.43427 6.96403 6.39008L6.16471 6.10038C6.11422 6.08209 6.06036 6.07736 6.00804 6.08546C5.95575 6.07736 5.90189 6.08209 5.85136 6.10038L5.05204 6.39008C4.83524 6.46866 4.60963 6.29713 4.62742 6.0672L4.6929 5.21956C4.69899 5.14069 4.67541 5.06241 4.62683 5.00004L4.10434 4.32938C3.96266 4.14744 4.05605 3.87989 4.28022 3.82573Z" fill="url(#paint27_linear_3003_10954)"/>
<path d="M4.05994 4.01733C4.02063 4.11644 4.03006 4.23451 4.10405 4.32947L4.62654 5.00013C4.67516 5.06254 4.6987 5.14082 4.69261 5.21965L4.62713 6.06729C4.60938 6.29723 4.83495 6.46875 5.05176 6.39018L5.85107 6.10048C5.90156 6.08218 5.95543 6.07745 6.00775 6.08555C6.06003 6.07745 6.1139 6.08218 6.16442 6.10048L6.96374 6.39018C7.18055 6.46875 7.40615 6.29723 7.38837 6.06729L7.32288 5.21965C7.31951 5.17591 7.32556 5.13242 7.33968 5.09165L4.05994 4.01733Z" fill="url(#paint28_linear_3003_10954)"/>
<path d="M7.95442 4.01733C7.99372 4.11644 7.9843 4.23451 7.91031 4.32947L7.38782 5.00013C7.3392 5.06254 7.31566 5.14082 7.32175 5.21965L7.38723 6.06729C7.40498 6.29723 7.17941 6.46875 6.9626 6.39018L6.16328 6.10048C6.11279 6.08218 6.05893 6.07745 6.00661 6.08555C5.95432 6.07745 5.90046 6.08218 5.84994 6.10048L5.05062 6.39018C4.83381 6.46875 4.6082 6.29723 4.62599 6.06729L4.69147 5.21965C4.69485 5.17591 4.6888 5.13242 4.67468 5.09165L7.95442 4.01733Z" fill="url(#paint29_linear_3003_10954)"/>
<path d="M7.64798 4.66699H4.36523L4.62538 5.00091C4.674 5.06332 4.69754 5.1416 4.69145 5.22043L4.62597 6.06807C4.60822 6.29801 4.83379 6.46953 5.0506 6.39096L5.84991 6.10126C5.9004 6.08296 5.95427 6.07823 6.00659 6.08633C6.05887 6.07823 6.11274 6.08296 6.16326 6.10126L6.96258 6.39096C7.17939 6.46953 7.40499 6.29801 7.38721 6.06807L7.32172 5.22043C7.31564 5.14156 7.33921 5.06328 7.3878 5.00091L7.64798 4.66699Z" fill="url(#paint30_linear_3003_10954)"/>
<path d="M17.6988 3.8259L16.8724 3.62622C16.7955 3.60763 16.7284 3.56102 16.6841 3.49554L16.2077 2.79137C16.1501 2.70619 16.0618 2.66051 15.971 2.65314C15.8801 2.66051 15.7918 2.70619 15.7342 2.79137L15.2578 3.49554C15.2135 3.56102 15.1463 3.60766 15.0695 3.62622L14.2431 3.8259C14.0189 3.88006 13.9255 4.14761 14.0673 4.32954L14.5897 5.0002C14.6384 5.06261 14.6619 5.14089 14.6558 5.21972L14.5903 6.06737C14.5726 6.2973 14.7982 6.46882 15.015 6.39025L15.8143 6.10055C15.8648 6.08225 15.9186 6.07752 15.971 6.08563C16.0232 6.07752 16.0771 6.08225 16.1276 6.10055L16.9269 6.39025C17.1438 6.46882 17.3694 6.2973 17.3516 6.06737L17.2861 5.21972C17.28 5.14085 17.3036 5.06257 17.3522 5.0002L17.8747 4.32954C18.0164 4.14761 17.923 3.88006 17.6988 3.8259Z" fill="url(#paint31_linear_3003_10954)"/>
<path d="M16.1274 6.10055L16.9267 6.39025C17.1435 6.46882 17.3691 6.2973 17.3513 6.06737L17.2858 5.21972C17.2798 5.14085 17.3033 5.06257 17.3519 5.0002L17.8744 4.32954C18.0161 4.14764 17.9227 3.88006 17.6986 3.8259L16.8722 3.62622C16.7953 3.60763 16.7281 3.56102 16.6838 3.49554L16.2075 2.79137C16.1498 2.70619 16.0616 2.66051 15.9707 2.65314V6.08566C16.023 6.07752 16.0769 6.08225 16.1274 6.10055Z" fill="url(#paint32_linear_3003_10954)"/>
<path d="M17.7005 3.82573L16.8742 3.62605C16.846 3.61923 16.8191 3.60856 16.7941 3.59467L14.6875 6.3195C14.7701 6.39936 14.8948 6.43427 15.0167 6.39008L15.816 6.10038C15.8665 6.08209 15.9204 6.07736 15.9727 6.08546C16.025 6.07736 16.0789 6.08209 16.1294 6.10038L16.9287 6.39008C17.1455 6.46866 17.3711 6.29713 17.3533 6.0672L17.2879 5.21956C17.2818 5.14069 17.3053 5.06241 17.3539 5.00004L17.8764 4.32938C18.0181 4.14744 17.9247 3.87989 17.7005 3.82573Z" fill="url(#paint33_linear_3003_10954)"/>
<path d="M14.2431 3.82573L15.0695 3.62605C15.0977 3.61923 15.1246 3.60856 15.1495 3.59467L17.2561 6.3195C17.1735 6.39936 17.0488 6.43427 16.9269 6.39008L16.1276 6.10038C16.0771 6.08209 16.0233 6.07736 15.9709 6.08546C15.9186 6.07736 15.8648 6.08209 15.8143 6.10038L15.0149 6.39008C14.7981 6.46866 14.5725 6.29713 14.5903 6.0672L14.6558 5.21956C14.6619 5.14069 14.6383 5.06241 14.5897 5.00004L14.0672 4.32938C13.9256 4.14744 14.0189 3.87989 14.2431 3.82573Z" fill="url(#paint34_linear_3003_10954)"/>
<path d="M14.0228 4.01733C13.9835 4.11644 13.9929 4.23451 14.0669 4.32947L14.5894 5.00013C14.638 5.06254 14.6616 5.14082 14.6555 5.21965L14.59 6.06729C14.5723 6.29723 14.7978 6.46875 15.0146 6.39018L15.814 6.10048C15.8645 6.08218 15.9183 6.07745 15.9706 6.08555C16.0229 6.07745 16.0768 6.08218 16.1273 6.10048L16.9266 6.39018C17.1434 6.46875 17.369 6.29723 17.3513 6.06729L17.2858 5.21965C17.2824 5.17591 17.2885 5.13242 17.3026 5.09165L14.0228 4.01733Z" fill="url(#paint35_linear_3003_10954)"/>
<path d="M17.9173 4.01733C17.9566 4.11644 17.9472 4.23451 17.8732 4.32947L17.3507 5.00013C17.3021 5.06254 17.2786 5.14082 17.2846 5.21965L17.3501 6.06729C17.3679 6.29723 17.1423 6.46875 16.9255 6.39018L16.1262 6.10048C16.0757 6.08218 16.0218 6.07745 15.9695 6.08555C15.9172 6.07745 15.8634 6.08218 15.8128 6.10048L15.0135 6.39018C14.7967 6.46875 14.5711 6.29723 14.5889 6.06729L14.6544 5.21965C14.6577 5.17591 14.6517 5.13242 14.6376 5.09165L17.9173 4.01733Z" fill="url(#paint36_linear_3003_10954)"/>
<path d="M17.6109 4.66699H14.3281L14.5883 5.00091C14.6369 5.06332 14.6604 5.1416 14.6543 5.22043L14.5889 6.06807C14.5711 6.29801 14.7967 6.46953 15.0135 6.39096L15.8128 6.10126C15.8633 6.08296 15.9172 6.07823 15.9695 6.08633C16.0218 6.07823 16.0756 6.08296 16.1262 6.10126L16.9255 6.39096C17.1423 6.46953 17.3679 6.29801 17.3501 6.06807L17.2846 5.22043C17.2785 5.14156 17.3021 5.06328 17.3507 5.00091L17.6109 4.66699Z" fill="url(#paint37_linear_3003_10954)"/>
</g>
<defs>
<linearGradient id="paint0_linear_3003_10954" x1="1.17576" y1="6.92674" x2="1.92188" y2="6.92674" gradientUnits="userSpaceOnUse">
<stop stop-color="#5A5A5A"/>
<stop offset="1" stop-color="#444444"/>
</linearGradient>
<linearGradient id="paint1_linear_3003_10954" x1="1.41105" y1="4.60203" x2="1.41105" y2="3.48439" gradientUnits="userSpaceOnUse">
<stop stop-color="#433F43" stop-opacity="0"/>
<stop offset="1" stop-color="#1A1A1A"/>
</linearGradient>
<linearGradient id="paint2_linear_3003_10954" x1="0.516745" y1="11.8994" x2="2.08537" y2="12.8014" gradientUnits="userSpaceOnUse">
<stop stop-color="#D4E7FF"/>
<stop offset="1" stop-color="#BFDBFF"/>
</linearGradient>
<linearGradient id="paint3_linear_3003_10954" x1="1.38227" y1="13.3863" x2="1.38227" y2="14.9158" gradientUnits="userSpaceOnUse">
<stop stop-color="#BFDBFF" stop-opacity="0"/>
<stop offset="1" stop-color="#70A9F3"/>
</linearGradient>
<linearGradient id="paint4_linear_3003_10954" x1="6.85057" y1="9.11761" x2="17.4199" y2="19.687" gradientUnits="userSpaceOnUse">
<stop stop-color="#BFDBFF"/>
<stop offset="1" stop-color="#4991ED"/>
</linearGradient>
<linearGradient id="paint5_linear_3003_10954" x1="18.4632" y1="20.7306" x2="3.24293" y2="5.51033" gradientUnits="userSpaceOnUse">
<stop stop-color="#BFDBFF"/>
<stop offset="1" stop-color="#4991ED"/>
</linearGradient>
<linearGradient id="paint6_linear_3003_10954" x1="11.1977" y1="16.5628" x2="11.1977" y2="19.8198" gradientUnits="userSpaceOnUse">
<stop stop-color="#4991ED" stop-opacity="0"/>
<stop offset="0.9957" stop-color="#4991ED" stop-opacity="0.996"/>
<stop offset="1" stop-color="#4991ED"/>
</linearGradient>
<linearGradient id="paint7_linear_3003_10954" x1="3.27267" y1="10.782" x2="8.65059" y2="16.1599" gradientUnits="userSpaceOnUse">
<stop stop-color="#DAEAFF"/>
<stop offset="1" stop-color="#BFDBFF"/>
</linearGradient>
<linearGradient id="paint8_linear_3003_10954" x1="8.37261" y1="10.782" x2="13.7504" y2="16.1183" gradientUnits="userSpaceOnUse">
<stop stop-color="#DAEAFF"/>
<stop offset="1" stop-color="#BFDBFF"/>
</linearGradient>
<linearGradient id="paint9_linear_3003_10954" x1="13.4289" y1="10.782" x2="18.8068" y2="16.1599" gradientUnits="userSpaceOnUse">
<stop stop-color="#DAEAFF"/>
<stop offset="1" stop-color="#BFDBFF"/>
</linearGradient>
<linearGradient id="paint10_linear_3003_10954" x1="4.23491" y1="11.2056" x2="8.20954" y2="15.1802" gradientUnits="userSpaceOnUse">
<stop stop-color="#C5DFFF"/>
<stop offset="1" stop-color="#4991ED"/>
</linearGradient>
<linearGradient id="paint11_linear_3003_10954" x1="9.31304" y1="11.2056" x2="13.2877" y2="15.1802" gradientUnits="userSpaceOnUse">
<stop stop-color="#C5DFFF"/>
<stop offset="1" stop-color="#4991ED"/>
</linearGradient>
<linearGradient id="paint12_linear_3003_10954" x1="14.3912" y1="11.2056" x2="18.3658" y2="15.1802" gradientUnits="userSpaceOnUse">
<stop stop-color="#C5DFFF"/>
<stop offset="1" stop-color="#4991ED"/>
</linearGradient>
<linearGradient id="paint13_linear_3003_10954" x1="6.00977" y1="14.7608" x2="6.00977" y2="18.9827" gradientUnits="userSpaceOnUse">
<stop stop-color="#BFDBFF" stop-opacity="0"/>
<stop offset="1" stop-color="#498ADE"/>
</linearGradient>
<linearGradient id="paint14_linear_3003_10954" x1="11.2266" y1="14.7608" x2="11.2266" y2="18.9827" gradientUnits="userSpaceOnUse">
<stop stop-color="#BFDBFF" stop-opacity="0"/>
<stop offset="1" stop-color="#498ADE"/>
</linearGradient>
<linearGradient id="paint15_linear_3003_10954" x1="16.4434" y1="14.7608" x2="16.4434" y2="18.9827" gradientUnits="userSpaceOnUse">
<stop stop-color="#BFDBFF" stop-opacity="0"/>
<stop offset="1" stop-color="#498ADE"/>
</linearGradient>
<linearGradient id="paint16_linear_3003_10954" x1="0.798286" y1="1.69493" x2="1.89656" y2="2.79317" gradientUnits="userSpaceOnUse">
<stop stop-color="#DEFFC4"/>
<stop offset="1" stop-color="#8DEC42"/>
</linearGradient>
<linearGradient id="paint17_linear_3003_10954" x1="9.8176" y1="1.81866" x2="12.0535" y2="4.05455" gradientUnits="userSpaceOnUse">
<stop stop-color="#DEFFC4"/>
<stop offset="1" stop-color="#B9FF82"/>
</linearGradient>
<linearGradient id="paint18_linear_3003_10954" x1="12.3964" y1="2.42826" x2="9.3061" y2="3.70578" gradientUnits="userSpaceOnUse">
<stop stop-color="#86DA44" stop-opacity="0"/>
<stop offset="0.9957" stop-color="#86DA44" stop-opacity="0.996"/>
<stop offset="1" stop-color="#86DA44"/>
</linearGradient>
<linearGradient id="paint19_linear_3003_10954" x1="11.5924" y1="3.52473" x2="9.90046" y2="2.79963" gradientUnits="userSpaceOnUse">
<stop stop-color="#86DA44" stop-opacity="0"/>
<stop offset="0.9957" stop-color="#86DA44" stop-opacity="0.996"/>
<stop offset="1" stop-color="#86DA44"/>
</linearGradient>
<linearGradient id="paint20_linear_3003_10954" x1="10.5247" y1="3.52473" x2="12.2166" y2="2.79963" gradientUnits="userSpaceOnUse">
<stop stop-color="#86DA44" stop-opacity="0"/>
<stop offset="0.9957" stop-color="#86DA44" stop-opacity="0.996"/>
<stop offset="1" stop-color="#86DA44"/>
</linearGradient>
<linearGradient id="paint21_linear_3003_10954" x1="10.5619" y1="3.6097" x2="11.6495" y2="1.8617" gradientUnits="userSpaceOnUse">
<stop stop-color="#86DA44" stop-opacity="0"/>
<stop offset="0.9957" stop-color="#86DA44" stop-opacity="0.996"/>
<stop offset="1" stop-color="#86DA44"/>
</linearGradient>
<linearGradient id="paint22_linear_3003_10954" x1="11.4684" y1="3.38896" x2="11.3778" y2="1.6798" gradientUnits="userSpaceOnUse">
<stop stop-color="#86DA44" stop-opacity="0"/>
<stop offset="0.9957" stop-color="#86DA44" stop-opacity="0.996"/>
<stop offset="1" stop-color="#86DA44"/>
</linearGradient>
<linearGradient id="paint23_linear_3003_10954" x1="11.0568" y1="3.81014" x2="11.0568" y2="5.70928" gradientUnits="userSpaceOnUse">
<stop stop-color="#86DA44" stop-opacity="0"/>
<stop offset="0.9957" stop-color="#86DA44" stop-opacity="0.996"/>
<stop offset="1" stop-color="#86DA44"/>
</linearGradient>
<linearGradient id="paint24_linear_3003_10954" x1="5.13028" y1="3.94059" x2="6.71315" y2="5.52346" gradientUnits="userSpaceOnUse">
<stop stop-color="#DEFFC4"/>
<stop offset="1" stop-color="#B9FF82"/>
</linearGradient>
<linearGradient id="paint25_linear_3003_10954" x1="6.95629" y1="4.37215" x2="4.76854" y2="5.27655" gradientUnits="userSpaceOnUse">
<stop stop-color="#86DA44" stop-opacity="0"/>
<stop offset="0.9957" stop-color="#86DA44" stop-opacity="0.996"/>
<stop offset="1" stop-color="#86DA44"/>
</linearGradient>
<linearGradient id="paint26_linear_3003_10954" x1="6.38701" y1="5.14839" x2="5.18924" y2="4.63506" gradientUnits="userSpaceOnUse">
<stop stop-color="#86DA44" stop-opacity="0"/>
<stop offset="0.9957" stop-color="#86DA44" stop-opacity="0.996"/>
<stop offset="1" stop-color="#86DA44"/>
</linearGradient>
<linearGradient id="paint27_linear_3003_10954" x1="5.63089" y1="5.14839" x2="6.82862" y2="4.63506" gradientUnits="userSpaceOnUse">
<stop stop-color="#86DA44" stop-opacity="0"/>
<stop offset="0.9957" stop-color="#86DA44" stop-opacity="0.996"/>
<stop offset="1" stop-color="#86DA44"/>
</linearGradient>
<linearGradient id="paint28_linear_3003_10954" x1="5.65718" y1="5.20854" x2="6.42717" y2="3.97106" gradientUnits="userSpaceOnUse">
<stop stop-color="#86DA44" stop-opacity="0"/>
<stop offset="0.9957" stop-color="#86DA44" stop-opacity="0.996"/>
<stop offset="1" stop-color="#86DA44"/>
</linearGradient>
<linearGradient id="paint29_linear_3003_10954" x1="6.29781" y1="5.05227" x2="6.23365" y2="3.84229" gradientUnits="userSpaceOnUse">
<stop stop-color="#86DA44" stop-opacity="0"/>
<stop offset="0.9957" stop-color="#86DA44" stop-opacity="0.996"/>
<stop offset="1" stop-color="#86DA44"/>
</linearGradient>
<linearGradient id="paint30_linear_3003_10954" x1="6.00663" y1="5.35045" x2="6.00663" y2="6.69492" gradientUnits="userSpaceOnUse">
<stop stop-color="#86DA44" stop-opacity="0"/>
<stop offset="0.9957" stop-color="#86DA44" stop-opacity="0.996"/>
<stop offset="1" stop-color="#86DA44"/>
</linearGradient>
<linearGradient id="paint31_linear_3003_10954" x1="15.0932" y1="3.94059" x2="16.676" y2="5.52346" gradientUnits="userSpaceOnUse">
<stop stop-color="#DEFFC4"/>
<stop offset="1" stop-color="#B9FF82"/>
</linearGradient>
<linearGradient id="paint32_linear_3003_10954" x1="16.9192" y1="4.37215" x2="14.7314" y2="5.27655" gradientUnits="userSpaceOnUse">
<stop stop-color="#86DA44" stop-opacity="0"/>
<stop offset="0.9957" stop-color="#86DA44" stop-opacity="0.996"/>
<stop offset="1" stop-color="#86DA44"/>
</linearGradient>
<linearGradient id="paint33_linear_3003_10954" x1="16.3499" y1="5.14839" x2="15.1521" y2="4.63506" gradientUnits="userSpaceOnUse">
<stop stop-color="#86DA44" stop-opacity="0"/>
<stop offset="0.9957" stop-color="#86DA44" stop-opacity="0.996"/>
<stop offset="1" stop-color="#86DA44"/>
</linearGradient>
<linearGradient id="paint34_linear_3003_10954" x1="15.5938" y1="5.14839" x2="16.7915" y2="4.63506" gradientUnits="userSpaceOnUse">
<stop stop-color="#86DA44" stop-opacity="0"/>
<stop offset="0.9957" stop-color="#86DA44" stop-opacity="0.996"/>
<stop offset="1" stop-color="#86DA44"/>
</linearGradient>
<linearGradient id="paint35_linear_3003_10954" x1="15.6201" y1="5.20854" x2="16.3901" y2="3.97106" gradientUnits="userSpaceOnUse">
<stop stop-color="#86DA44" stop-opacity="0"/>
<stop offset="0.9957" stop-color="#86DA44" stop-opacity="0.996"/>
<stop offset="1" stop-color="#86DA44"/>
</linearGradient>
<linearGradient id="paint36_linear_3003_10954" x1="16.2607" y1="5.05227" x2="16.1965" y2="3.84229" gradientUnits="userSpaceOnUse">
<stop stop-color="#86DA44" stop-opacity="0"/>
<stop offset="0.9957" stop-color="#86DA44" stop-opacity="0.996"/>
<stop offset="1" stop-color="#86DA44"/>
</linearGradient>
<linearGradient id="paint37_linear_3003_10954" x1="15.9695" y1="5.35045" x2="15.9695" y2="6.69492" gradientUnits="userSpaceOnUse">
<stop stop-color="#86DA44" stop-opacity="0"/>
<stop offset="0.9957" stop-color="#86DA44" stop-opacity="0.996"/>
<stop offset="1" stop-color="#86DA44"/>
</linearGradient>
<clipPath id="clip0_3003_10954">
<rect width="20" height="20" fill="white"/>
</clipPath>
</defs>
</svg>
