<svg width="20" height="20" viewBox="0 0 20 20" fill="none" xmlns="http://www.w3.org/2000/svg">
<g clip-path="url(#clip0_4058_203851)">
<g clip-path="url(#clip1_4058_203851)">
<path d="M1.37829 9.22499L0.385186 9.96292C-0.0381733 10.2814 -0.12588 10.8815 0.188634 11.3077L1.37829 12.9077L3.57829 15.8629L5.92656 19.0215C6.24407 19.4465 6.84555 19.5344 7.27139 19.2181L11.7817 15.8629L18.6197 10.7767L19.6128 10.0388C20.0361 9.72034 20.1238 9.12024 19.8093 8.69396L18.6197 7.09396L16.4197 4.13878L14.0714 0.980163C13.7539 0.555226 13.1524 0.467318 12.7266 0.783611L8.21622 4.13878L1.37829 9.22499Z" fill="url(#paint0_linear_4058_203851)"/>
<path d="M17.5858 4.13867H2.41339C1.84206 4.13867 1.37891 4.60183 1.37891 5.17315V14.8283C1.37891 15.3997 1.84206 15.8628 2.41339 15.8628H17.5858C18.1571 15.8628 18.6203 15.3997 18.6203 14.8283V5.17315C18.6203 4.60183 18.1571 4.13867 17.5858 4.13867Z" fill="url(#paint1_linear_4058_203851)"/>
<path d="M12.3839 3.10465C12.2355 3.10465 12.1037 3.00967 12.0568 2.86887C12.0098 2.72806 12.0583 2.57302 12.177 2.48396L13.0115 1.86327C13.0849 1.80858 13.177 1.7853 13.2675 1.79856C13.3581 1.81182 13.4396 1.86053 13.4943 1.93396L13.9563 2.55465C14.039 2.65256 14.0605 2.78823 14.0123 2.90693C13.964 3.02563 13.8539 3.10779 13.7264 3.12026C13.5989 3.13274 13.4749 3.07347 13.4046 2.96637L13.1484 2.62155L12.5894 3.03568C12.5302 3.08035 12.4581 3.10455 12.3839 3.10465Z" fill="url(#paint2_linear_4058_203851)"/>
<path d="M6.7802 18.2087C6.67166 18.2087 6.56946 18.1576 6.50434 18.0708L6.04227 17.4501C5.95962 17.3522 5.93808 17.2165 5.98633 17.0978C6.03458 16.9791 6.14467 16.8969 6.2722 16.8845C6.39972 16.872 6.52365 16.9312 6.59399 17.0383L6.8502 17.3832L7.40813 16.9694C7.50604 16.8867 7.64171 16.8652 7.76041 16.9134C7.87911 16.9617 7.96127 17.0718 7.97374 17.1993C7.98622 17.3268 7.92695 17.4508 7.81985 17.5211L6.98537 18.1418C6.9259 18.1855 6.85398 18.2089 6.7802 18.2087Z" fill="url(#paint3_linear_4058_203851)"/>
<path fill-rule="evenodd" clip-rule="evenodd" d="M2.41123 7.93164H4.4802C4.67064 7.93164 4.82503 8.08603 4.82503 8.27647C4.82503 8.46691 4.67064 8.6213 4.4802 8.6213H3.79054V11.7247C3.79054 11.9152 3.63616 12.0696 3.44572 12.0696C3.25527 12.0696 3.10089 11.9152 3.10089 11.7247V8.6213H2.41123C2.22079 8.6213 2.06641 8.46691 2.06641 8.27647C2.06641 8.08603 2.22079 7.93164 2.41123 7.93164ZM5.16988 8.27647C5.16988 8.08603 5.32427 7.93164 5.51471 7.93164C5.70515 7.93164 5.85954 8.08603 5.85954 8.27647V11.7247C5.85954 11.9152 5.70515 12.0696 5.51471 12.0696C5.32427 12.0696 5.16988 11.9152 5.16988 11.7247V8.27647ZM7.75605 8.6213C8.04171 8.6213 8.27329 8.85287 8.27329 9.13854C8.27329 9.32898 8.42767 9.48336 8.61811 9.48336C8.80856 9.48336 8.96294 9.32898 8.96294 9.13854C8.96294 8.47199 8.4226 7.93164 7.75605 7.93164C7.0895 7.93164 6.54915 8.47199 6.54915 9.13854V10.8627C6.54915 11.5292 7.0895 12.0696 7.75605 12.0696C8.4226 12.0696 8.96294 11.5292 8.96294 10.8627C8.96294 10.6722 8.80856 10.5178 8.61811 10.5178C8.42767 10.5178 8.27329 10.6722 8.27329 10.8627C8.27329 11.1483 8.04171 11.3799 7.75605 11.3799C7.47038 11.3799 7.2388 11.1483 7.2388 10.8627V9.13854C7.2388 9.00136 7.2933 8.86979 7.3903 8.77279C7.4873 8.67579 7.61886 8.6213 7.75605 8.6213ZM11.0812 8.09888C11.1793 7.9357 11.3911 7.88291 11.5544 7.98095C11.7175 8.07905 11.7703 8.29084 11.6723 8.45405L10.7444 10.0006L11.6723 11.5472C11.7662 11.71 11.7123 11.9181 11.5512 12.015C11.39 12.1118 11.181 12.0617 11.0812 11.9023L10.3423 10.671V11.7247C10.3423 11.9152 10.1879 12.0696 9.99745 12.0696C9.80701 12.0696 9.65263 11.9152 9.65263 11.7247V8.27647C9.65263 8.08603 9.80701 7.93164 9.99745 7.93164C10.1879 7.93164 10.3423 8.08603 10.3423 8.27647V9.33026L11.0812 8.09888ZM14.1354 8.6213C14.3258 8.6213 14.4802 8.46691 14.4802 8.27647C14.4802 8.08603 14.3258 7.93164 14.1354 7.93164H12.7561C12.5656 7.93164 12.4112 8.08603 12.4112 8.27647V11.7247C12.4112 11.9152 12.5656 12.0696 12.7561 12.0696H14.1354C14.3258 12.0696 14.4802 11.9152 14.4802 11.7247C14.4802 11.5343 14.3258 11.3799 14.1354 11.3799H13.1009V10.3454H14.1354C14.3258 10.3454 14.4802 10.191 14.4802 10.0006C14.4802 9.81016 14.3258 9.65578 14.1354 9.65578H13.1009V8.6213H14.1354ZM15.5147 7.93164H17.5837C17.7741 7.93164 17.9285 8.08603 17.9285 8.27647C17.9285 8.46691 17.7741 8.6213 17.5837 8.6213H16.894V11.7247C16.894 11.9152 16.7396 12.0696 16.5492 12.0696C16.3588 12.0696 16.2044 11.9152 16.2044 11.7247V8.6213H15.5147C15.3243 8.6213 15.1699 8.46691 15.1699 8.27647C15.1699 8.08603 15.3243 7.93164 15.5147 7.93164Z" fill="url(#paint4_linear_4058_203851)"/>
<path fill-rule="evenodd" clip-rule="evenodd" d="M2.41406 6.20831C2.41406 6.39875 2.56845 6.55314 2.75889 6.55314C2.94933 6.55314 3.10372 6.39875 3.10372 6.20831V5.86348H3.44855C3.63899 5.86348 3.79337 5.7091 3.79337 5.51866C3.79337 5.32821 3.63899 5.17383 3.44855 5.17383H2.75889C2.56845 5.17383 2.41406 5.32821 2.41406 5.51866V6.20831ZM2.41406 14.4842C2.41406 14.6746 2.56845 14.829 2.75889 14.829H3.44855C3.63899 14.829 3.79337 14.6746 3.79337 14.4842C3.79337 14.2937 3.63899 14.1393 3.44855 14.1393H3.10372V13.7945C3.10372 13.6041 2.94933 13.4497 2.75889 13.4497C2.56845 13.4497 2.41406 13.6041 2.41406 13.7945V14.4842ZM17.2417 6.55314C17.0512 6.55314 16.8968 6.39875 16.8968 6.20831V5.86348H16.552C16.3616 5.86348 16.2072 5.7091 16.2072 5.51866C16.2072 5.32821 16.3616 5.17383 16.552 5.17383H17.2417C17.4321 5.17383 17.5865 5.32821 17.5865 5.51866V6.20831C17.5865 6.39875 17.4321 6.55314 17.2417 6.55314ZM16.2072 14.4842C16.2072 14.6746 16.3616 14.829 16.552 14.829H17.2417C17.4321 14.829 17.5865 14.6746 17.5865 14.4842V13.7945C17.5865 13.6041 17.4321 13.4497 17.2417 13.4497C17.0512 13.4497 16.8968 13.6041 16.8968 13.7945V14.1393H16.552C16.3616 14.1393 16.2072 14.2937 16.2072 14.4842ZM10.3451 5.86348H9.65541C9.46497 5.86348 9.31059 5.7091 9.31059 5.51866C9.31059 5.32821 9.46497 5.17383 9.65541 5.17383H10.3451C10.5355 5.17383 10.6899 5.32821 10.6899 5.51866C10.6899 5.7091 10.5355 5.86348 10.3451 5.86348ZM7.58645 5.86348H8.2761C8.46655 5.86348 8.62093 5.7091 8.62093 5.51866C8.62093 5.32821 8.46655 5.17383 8.2761 5.17383H7.58645C7.39601 5.17383 7.24162 5.32821 7.24162 5.51866C7.24162 5.7091 7.39601 5.86348 7.58645 5.86348ZM5.86232 5.86348H5.17267C4.98223 5.86348 4.82784 5.7091 4.82784 5.51866C4.82784 5.32821 4.98223 5.17383 5.17267 5.17383H5.86232C6.05277 5.17383 6.20715 5.32821 6.20715 5.51866C6.20715 5.7091 6.05277 5.86348 5.86232 5.86348ZM11.7244 5.86348H12.414C12.6045 5.86348 12.7589 5.7091 12.7589 5.51866C12.7589 5.32821 12.6045 5.17383 12.414 5.17383H11.7244C11.5339 5.17383 11.3795 5.32821 11.3795 5.51866C11.3795 5.7091 11.5339 5.86348 11.7244 5.86348ZM14.8279 5.86348H14.1382C13.9478 5.86348 13.7934 5.7091 13.7934 5.51866C13.7934 5.32821 13.9478 5.17383 14.1382 5.17383H14.8279C15.0183 5.17383 15.1727 5.32821 15.1727 5.51866C15.1727 5.7091 15.0183 5.86348 14.8279 5.86348ZM9.65541 14.829H10.3451C10.5355 14.829 10.6899 14.6746 10.6899 14.4842C10.6899 14.2937 10.5355 14.1393 10.3451 14.1393H9.65541C9.46497 14.1393 9.31059 14.2937 9.31059 14.4842C9.31059 14.6746 9.46497 14.829 9.65541 14.829ZM8.2761 14.829H7.58645C7.39601 14.829 7.24162 14.6746 7.24162 14.4842C7.24162 14.2937 7.39601 14.1393 7.58645 14.1393H8.2761C8.46655 14.1393 8.62093 14.2937 8.62093 14.4842C8.62093 14.6746 8.46655 14.829 8.2761 14.829ZM5.17267 14.829H5.86232C6.05277 14.829 6.20715 14.6746 6.20715 14.4842C6.20715 14.2937 6.05277 14.1393 5.86232 14.1393H5.17267C4.98223 14.1393 4.82784 14.2937 4.82784 14.4842C4.82784 14.6746 4.98223 14.829 5.17267 14.829ZM12.414 14.829H11.7244C11.5339 14.829 11.3795 14.6746 11.3795 14.4842C11.3795 14.2937 11.5339 14.1393 11.7244 14.1393H12.414C12.6045 14.1393 12.7589 14.2937 12.7589 14.4842C12.7589 14.6746 12.6045 14.829 12.414 14.829ZM14.1382 14.829H14.8279C15.0183 14.829 15.1727 14.6746 15.1727 14.4842C15.1727 14.2937 15.0183 14.1393 14.8279 14.1393H14.1382C13.9478 14.1393 13.7934 14.2937 13.7934 14.4842C13.7934 14.6746 13.9478 14.829 14.1382 14.829Z" fill="url(#paint5_linear_4058_203851)"/>
</g>
</g>
<defs>
<linearGradient id="paint0_linear_4058_203851" x1="7.6553" y1="8.52956" x2="23.3947" y2="33.6019" gradientUnits="userSpaceOnUse">
<stop stop-color="#E4F2FF"/>
<stop offset="1" stop-color="#B2CBFF"/>
</linearGradient>
<linearGradient id="paint1_linear_4058_203851" x1="7.50463" y1="3.58241" x2="14.9728" y2="16.4752" gradientUnits="userSpaceOnUse">
<stop stop-color="#D9E9FF"/>
<stop offset="0.1435" stop-color="#BFDBFF"/>
<stop offset="0.3928" stop-color="#A3CBFF"/>
<stop offset="0.7158" stop-color="#7EB3F7"/>
<stop offset="1" stop-color="#60A0F2"/>
</linearGradient>
<linearGradient id="paint2_linear_4058_203851" x1="12.9236" y1="1.89227" x2="12.9738" y2="3.17801" gradientUnits="userSpaceOnUse">
<stop stop-color="#89BAFA" stop-opacity="0"/>
<stop offset="1" stop-color="#89BAFA"/>
</linearGradient>
<linearGradient id="paint3_linear_4058_203851" x1="6.8525" y1="16.9801" x2="6.90218" y2="18.2648" gradientUnits="userSpaceOnUse">
<stop stop-color="#89BAFA" stop-opacity="0"/>
<stop offset="1" stop-color="#89BAFA"/>
</linearGradient>
<linearGradient id="paint4_linear_4058_203851" x1="9.99752" y1="8.79331" x2="9.99752" y2="13.0369" gradientUnits="userSpaceOnUse">
<stop stop-color="#EAF9FA"/>
<stop offset="1" stop-color="#B3DAFE"/>
</linearGradient>
<linearGradient id="paint5_linear_4058_203851" x1="6.40671" y1="7.71475" x2="10.1182" y2="13.5468" gradientUnits="userSpaceOnUse">
<stop stop-color="#EBFFDB"/>
<stop offset="1" stop-color="#95ED50"/>
</linearGradient>
<clipPath id="clip0_4058_203851">
<rect width="20" height="20" fill="white"/>
</clipPath>
<clipPath id="clip1_4058_203851">
<rect width="20" height="20" fill="white"/>
</clipPath>
</defs>
</svg>
