<svg width="20" height="20" viewBox="0 0 20 20" fill="none" xmlns="http://www.w3.org/2000/svg">
<g clip-path="url(#clip0_3003_11452)">
<path d="M17.4928 11.4107L16.7833 12.1328C16.5046 12.4165 16.3752 12.8145 16.434 13.2078L16.5836 14.2087C16.6858 14.8923 16.221 15.5316 15.5392 15.6453L14.5416 15.8117C14.1486 15.8772 13.8093 16.1238 13.6257 16.4774L13.1605 17.3733C12.8416 17.9875 12.0888 18.232 11.4699 17.9225L10.5668 17.4709C10.2101 17.2926 9.79041 17.2926 9.43379 17.4709L8.53069 17.9225C7.91175 18.232 7.15896 17.9875 6.84006 17.3733L6.37485 16.4773C6.19124 16.1238 5.85198 15.8772 5.459 15.8116L4.46135 15.6453C3.77955 15.5316 3.31477 14.8923 3.41692 14.2086L3.56649 13.2078C3.62528 12.8145 3.49594 12.4164 3.21724 12.1328L2.50771 11.4107C2.02347 10.918 2.02347 10.128 2.50771 9.63518L3.21724 8.9131C3.49594 8.62945 3.62528 8.23137 3.56649 7.83808L3.41692 6.83725C3.31473 6.15361 3.77951 5.51427 4.46135 5.40059L5.459 5.23423C5.85198 5.1687 6.19124 4.92212 6.37485 4.56855L6.84006 3.67259C7.15896 3.05843 7.91175 2.81388 8.53069 3.12337L9.43379 3.57494C9.79041 3.75325 10.2102 3.75325 10.5668 3.57494L11.4699 3.12337C12.0888 2.81388 12.8416 3.05843 13.1605 3.67259L13.6257 4.56855C13.8093 4.92212 14.1486 5.1687 14.5415 5.23423L15.5392 5.40059C16.221 5.51427 16.6857 6.15361 16.5836 6.83725L16.434 7.83808C16.3752 8.23137 16.5045 8.62945 16.7832 8.9131L17.4928 9.63518C17.977 10.128 17.977 10.9179 17.4928 11.4107Z" fill="url(#paint0_linear_3003_11452)"/>
<path d="M10.0001 16.1402C13.1024 16.1402 15.6173 13.6252 15.6173 10.5229C15.6173 7.42057 13.1024 4.90564 10.0001 4.90564C6.89774 4.90564 4.38281 7.42057 4.38281 10.5229C4.38281 13.6252 6.89774 16.1402 10.0001 16.1402Z" fill="url(#paint1_linear_3003_11452)"/>
<path d="M3.21724 12.1328C3.49594 12.4165 3.62528 12.8146 3.56649 13.2079L3.41692 14.2087C3.31473 14.8923 3.77951 15.5317 4.46135 15.6453L5.459 15.8117C5.85198 15.8772 6.19124 16.1238 6.37485 16.4774L6.84006 17.3733C7.15896 17.9875 7.91175 18.2321 8.53069 17.9226L9.43379 17.471C9.79041 17.2927 10.2101 17.2927 10.5668 17.471L11.4699 17.9226C12.0888 18.2321 12.8416 17.9875 13.1605 17.3733L13.6257 16.4774C13.8093 16.1239 14.1485 15.8772 14.5416 15.8117L15.5392 15.6454C16.221 15.5317 16.6858 14.8924 16.5836 14.2088L16.434 13.2079C16.3752 12.8146 16.5046 12.4166 16.7833 12.1329L17.4928 11.4108C17.7349 11.1644 17.856 10.8437 17.856 10.5231H2.14453C2.14453 10.8437 2.26559 11.1644 2.50771 11.4108L3.21724 12.1328Z" fill="url(#paint2_linear_3003_11452)"/>
<path d="M15.3863 15.6709L15.3754 15.6724L14.5427 15.8115C14.1497 15.8772 13.8105 16.1237 13.627 16.4773L13.5647 16.5967L13.1617 17.373C12.8425 17.9874 12.0898 18.232 11.4708 17.9224L10.5678 17.4708C10.4414 17.4078 10.3077 17.3668 10.1714 17.3486L5.76594 12.9437C5.64539 12.8888 5.54492 12.7957 5.54492 12.677V12.0306C5.54492 11.4997 6.08551 11.0839 6.61833 10.6921L5.8861 9.91229C5.72845 9.85394 5.62488 9.70751 5.62488 9.40535C5.62488 8.59237 6.37104 8.12598 7.13069 8.12598C7.62104 8.12598 8.11371 8.32229 8.40853 8.69323L15.3863 15.6709Z" fill="url(#paint3_linear_3003_11452)"/>
<path d="M15.542 15.645L15.3878 15.6709L15.3769 15.6724L14.5442 15.8115C14.1512 15.8772 13.812 16.1237 13.6285 16.4773L13.5662 16.5967L8.92364 11.9541C8.78764 11.9132 8.69141 11.7957 8.69141 11.611C8.69141 11.5576 8.70494 11.4842 8.74474 11.4112L9.5496 9.83272L10.2842 8.3926C10.3838 8.19939 10.5504 8.12598 10.7173 8.12598C10.8715 8.12598 11.1424 8.2388 11.2169 8.42198L16.5126 13.7177L16.586 14.2084C16.6884 14.8923 16.2236 15.5314 15.542 15.645Z" fill="url(#paint4_linear_3003_11452)"/>
<path d="M16.5841 14.2084C16.6865 14.8923 16.2216 15.5315 15.54 15.6451L15.3858 15.671L15.375 15.6725L12.6899 12.9877C12.5728 12.9657 12.4766 12.9047 12.4766 12.8034V10.2419C12.4766 10.109 12.6334 10.0526 12.7907 10.0526C12.8101 10.0526 12.8293 10.0534 12.8483 10.0553C12.9839 10.0677 13.1049 10.1252 13.1049 10.2419C13.1049 10.2419 13.8672 10.9479 13.9063 10.9827V10.2419C13.9063 10.109 14.0635 10.0526 14.2204 10.0526C14.3777 10.0526 14.5346 10.109 14.5346 10.2419L16.6246 12.3316C16.4581 12.5882 16.3886 12.8996 16.4345 13.2076L16.5106 13.7176L16.5841 14.2084Z" fill="url(#paint5_linear_3003_11452)"/>
<path d="M7.09174 8.08752C7.86468 8.08752 8.64425 8.57392 8.64425 9.46682C8.64425 10.9127 6.58531 11.3858 6.58531 11.9922V12.0522H8.33108C8.49766 12.0522 8.64425 12.2587 8.64425 12.4986C8.64425 12.7385 8.49766 12.9583 8.33108 12.9583H5.95896C5.77241 12.9583 5.50586 12.8318 5.50586 12.6385V11.9922C5.50586 10.9461 7.6048 10.3464 7.6048 9.50015C7.6048 9.28694 7.47155 9.02705 7.09837 9.02705C6.83186 9.02705 6.59864 9.16031 6.59864 9.52678C6.59864 9.72 6.39209 9.90658 6.05225 9.90658C5.78574 9.90658 5.58582 9.78666 5.58582 9.36686C5.58586 8.55396 6.33217 8.08752 7.09174 8.08752Z" fill="url(#paint6_linear_3003_11452)"/>
<path d="M10.5561 11.9322H8.9969C8.80368 11.9322 8.65039 11.8056 8.65039 11.5723C8.65039 11.5191 8.66372 11.4458 8.70372 11.3725L10.2429 8.35403C10.3429 8.16078 10.5094 8.08752 10.676 8.08752C10.8559 8.08752 11.1958 8.24078 11.1958 8.48066C11.1958 8.52062 11.1824 8.56062 11.1625 8.60725L9.98306 10.9727H10.5561V10.5063C10.5561 10.2864 10.816 10.1931 11.0758 10.1931C11.3357 10.1931 11.5956 10.2864 11.5956 10.5063V10.9727H11.8821C12.0953 10.9727 12.202 11.2126 12.202 11.4525C12.202 11.6923 12.042 11.9322 11.8821 11.9322H11.5956V12.6385C11.5956 12.8518 11.3357 12.9584 11.0758 12.9584C10.816 12.9584 10.5561 12.8518 10.5561 12.6385V11.9322H10.5561Z" fill="url(#paint7_linear_3003_11452)"/>
<path d="M13.8674 11.6734H13.0659V12.765C13.0659 12.8939 12.9088 12.9583 12.7517 12.9583C12.5946 12.9583 12.4375 12.8939 12.4375 12.765V10.2033C12.4375 10.0703 12.5946 10.0139 12.7517 10.0139C12.9088 10.0139 13.0659 10.0703 13.0659 10.2033V11.1901H13.8674V10.2033C13.8674 10.0703 14.0245 10.0139 14.1816 10.0139C14.3387 10.0139 14.4958 10.0703 14.4958 10.2033V12.765C14.4958 12.8939 14.3387 12.9583 14.1816 12.9583C14.0246 12.9583 13.8674 12.8939 13.8674 12.765V11.6734Z" fill="url(#paint8_linear_3003_11452)"/>
<path d="M18.0367 5.49721C17.12 4.03431 15.8231 2.8485 14.2861 2.06799C14.0483 1.94725 13.7576 2.04211 13.6368 2.27995C13.516 2.5178 13.6109 2.80854 13.8487 2.92929C16.7249 4.38988 18.5116 7.29956 18.5116 10.5229C18.5116 15.2159 14.6936 19.034 10.0005 19.034C5.30748 19.034 1.48944 15.2159 1.48944 10.5229C1.48944 6.27513 4.61744 2.74435 8.69097 2.11258V2.42894C8.69097 2.92894 9.24709 3.22819 9.66438 2.95278L11.0282 2.05266C11.4041 1.80458 11.4041 1.25305 11.0282 1.00493L9.66438 0.104856C9.24709 -0.170556 8.69097 0.128699 8.69097 0.628699V1.13568C6.65622 1.41525 4.77669 2.34411 3.2992 3.8216C1.5092 5.6116 0.523438 7.99152 0.523438 10.5229C0.523438 13.0543 1.5092 15.4343 3.2992 17.2243C5.0892 19.0142 7.46909 20 10.0005 20C12.532 20 14.9119 19.0142 16.7019 17.2242C18.4919 15.4342 19.4776 13.0543 19.4776 10.5229C19.4776 8.73937 18.9794 7.00152 18.0367 5.49721Z" fill="url(#paint9_linear_3003_11452)"/>
<path d="M8.69141 2.11255V2.4289C8.69141 2.9289 9.24752 3.22816 9.66482 2.95274L10.9378 2.11255H8.69141Z" fill="url(#paint10_linear_3003_11452)"/>
<path d="M11.0286 1.00497L9.66482 0.104856C9.24752 -0.170556 8.69141 0.128699 8.69141 0.628699V1.13568H11.1727C11.1331 1.08662 11.0852 1.04231 11.0286 1.00497Z" fill="url(#paint11_linear_3003_11452)"/>
</g>
<defs>
<linearGradient id="paint0_linear_3003_11452" x1="5.24249" y1="5.76517" x2="17.3194" y2="17.842" gradientUnits="userSpaceOnUse">
<stop stop-color="#9EC8FF"/>
<stop offset="1" stop-color="#498ADE"/>
</linearGradient>
<linearGradient id="paint1_linear_3003_11452" x1="15.8541" y1="16.3769" x2="5.51469" y2="6.03752" gradientUnits="userSpaceOnUse">
<stop stop-color="#9EC8FF"/>
<stop offset="1" stop-color="#498ADE"/>
</linearGradient>
<linearGradient id="paint2_linear_3003_11452" x1="10.0003" y1="12.4164" x2="10.0003" y2="19.759" gradientUnits="userSpaceOnUse">
<stop stop-color="#9EC8FF" stop-opacity="0"/>
<stop offset="1" stop-color="#498ADE"/>
</linearGradient>
<linearGradient id="paint3_linear_3003_11452" x1="12.8281" y1="15.5234" x2="2.93618" y2="8.43939" gradientUnits="userSpaceOnUse">
<stop stop-color="#9EC8FF" stop-opacity="0"/>
<stop offset="1" stop-color="#498ADE"/>
</linearGradient>
<linearGradient id="paint4_linear_3003_11452" x1="14.8889" y1="14.3134" x2="6.61984" y2="8.23398" gradientUnits="userSpaceOnUse">
<stop stop-color="#9EC8FF" stop-opacity="0"/>
<stop offset="1" stop-color="#498ADE"/>
</linearGradient>
<linearGradient id="paint5_linear_3003_11452" x1="18.1727" y1="14.9343" x2="10.2901" y2="9.98837" gradientUnits="userSpaceOnUse">
<stop stop-color="#9EC8FF" stop-opacity="0"/>
<stop offset="1" stop-color="#498ADE"/>
</linearGradient>
<linearGradient id="paint6_linear_3003_11452" x1="5.5059" y1="10.5229" x2="8.64429" y2="10.5229" gradientUnits="userSpaceOnUse">
<stop stop-color="#EAF6FF"/>
<stop offset="1" stop-color="#B3DAFE"/>
</linearGradient>
<linearGradient id="paint7_linear_3003_11452" x1="8.65043" y1="10.5229" x2="12.202" y2="10.5229" gradientUnits="userSpaceOnUse">
<stop stop-color="#EAF6FF"/>
<stop offset="1" stop-color="#B3DAFE"/>
</linearGradient>
<linearGradient id="paint8_linear_3003_11452" x1="12.4375" y1="11.4861" x2="14.4958" y2="11.4861" gradientUnits="userSpaceOnUse">
<stop stop-color="#EAF6FF"/>
<stop offset="1" stop-color="#B3DAFE"/>
</linearGradient>
<linearGradient id="paint9_linear_3003_11452" x1="4.2608" y1="3.68457" x2="17.7704" y2="16.886" gradientUnits="userSpaceOnUse">
<stop stop-color="#DFFFC6"/>
<stop offset="1" stop-color="#86DA44"/>
</linearGradient>
<linearGradient id="paint10_linear_3003_11452" x1="9.27968" y1="2.5851" x2="8.53086" y2="2.5851" gradientUnits="userSpaceOnUse">
<stop stop-color="#7BD237" stop-opacity="0"/>
<stop offset="0.2966" stop-color="#7BD237" stop-opacity="0.297"/>
<stop offset="0.6214" stop-color="#7BD237" stop-opacity="0.621"/>
<stop offset="0.9585" stop-color="#7BD237" stop-opacity="0.959"/>
<stop offset="1" stop-color="#7BD237"/>
</linearGradient>
<linearGradient id="paint11_linear_3003_11452" x1="9.27968" y1="0.567837" x2="8.53086" y2="0.567837" gradientUnits="userSpaceOnUse">
<stop stop-color="#7BD237" stop-opacity="0"/>
<stop offset="0.2966" stop-color="#7BD237" stop-opacity="0.297"/>
<stop offset="0.6214" stop-color="#7BD237" stop-opacity="0.621"/>
<stop offset="0.9585" stop-color="#7BD237" stop-opacity="0.959"/>
<stop offset="1" stop-color="#7BD237"/>
</linearGradient>
<clipPath id="clip0_3003_11452">
<rect width="20" height="20" fill="white"/>
</clipPath>
</defs>
</svg>
