<svg width="20" height="20" viewBox="0 0 20 20" fill="none" xmlns="http://www.w3.org/2000/svg">
<g clip-path="url(#clip0_3003_10613)">
<path d="M12.7376 0.82666H10.4805V19.1733H12.7376C16.7482 19.1734 19.9999 15.0662 19.9999 10C19.9999 4.93389 16.7482 0.82666 12.7376 0.82666Z" fill="url(#paint0_linear_3003_10613)"/>
<path d="M12.7376 0.82666H10.4805V19.1733H12.7376C16.7482 19.1734 19.9999 15.0662 19.9999 10C19.9999 4.93389 16.7482 0.82666 12.7376 0.82666Z" fill="url(#paint1_linear_3003_10613)"/>
<path d="M10.4805 19.1734H12.7376C16.7482 19.1734 20 15.0662 20 10C20 9.55148 19.974 9.11062 19.9247 8.67929H10.4805V19.1734Z" fill="url(#paint2_linear_3003_10613)"/>
<path d="M10.481 19.1733C14.4918 19.1733 17.7432 15.0663 17.7432 10C17.7432 4.93377 14.4918 0.826752 10.481 0.826752C6.47016 0.826752 3.21875 4.93377 3.21875 10C3.21875 15.0663 6.47016 19.1733 10.481 19.1733Z" fill="url(#paint3_linear_3003_10613)"/>
<path d="M10.5583 9.62012H3.22543C3.22137 9.74617 3.21875 9.87273 3.21875 10C3.21875 15.0663 6.47016 19.1733 10.481 19.1733C12.8905 19.1733 15.0256 17.6906 16.3467 15.4085L10.5583 9.62012Z" fill="url(#paint4_linear_3003_10613)"/>
<path d="M3.21875 10C3.21875 15.0663 6.47016 19.1733 10.481 19.1733C14.4918 19.1733 17.7432 15.0663 17.7432 10C17.7432 9.81656 17.7384 9.63449 17.73 9.45367H3.23195C3.22352 9.63449 3.21875 9.81656 3.21875 10Z" fill="url(#paint5_linear_3003_10613)"/>
<path d="M8.91637 9.45367H3.23191C3.22352 9.63449 3.21875 9.81656 3.21875 10C3.21875 14.3877 5.6577 18.0552 8.91637 18.9592V9.45367Z" fill="url(#paint6_linear_3003_10613)"/>
<path d="M10.4801 0.826752C10.0723 0.826752 9.67266 0.869877 9.2832 0.951478V19.0486C9.67266 19.1302 10.0724 19.1734 10.4801 19.1734C14.4909 19.1734 17.7423 15.0663 17.7423 10.0001C17.7423 4.93382 14.4909 0.826752 10.4801 0.826752Z" fill="url(#paint7_linear_3003_10613)"/>
<path d="M10.4814 2.46417C7.18676 2.46417 4.51562 5.83831 4.51562 10C4.51562 14.1618 7.18676 17.5359 10.4814 17.5359C13.7761 17.5359 16.4473 14.1618 16.4473 10C16.4473 5.83831 13.7762 2.46417 10.4814 2.46417ZM10.4814 16.029C7.84551 16.029 5.70859 13.3295 5.70859 10C5.70859 6.67058 7.84551 3.97109 10.4814 3.97109C13.1174 3.97109 15.2543 6.67054 15.2543 10C15.2543 13.3295 13.1174 16.029 10.4814 16.029Z" fill="url(#paint8_linear_3003_10613)"/>
<path d="M10.4804 5.60596C8.5591 5.60596 7.00195 7.57322 7.00195 10C7.00195 12.4268 8.5591 14.3941 10.4804 14.3941C12.4018 14.3941 13.9589 12.4268 13.9589 10C13.9589 7.57322 12.4018 5.60596 10.4804 5.60596ZM10.4804 12.633C9.3291 12.633 8.3959 11.4541 8.3959 10C8.3959 8.54592 9.32906 7.36709 10.4804 7.36709C11.6318 7.36709 12.565 8.54592 12.565 10C12.565 11.4541 11.6318 12.633 10.4804 12.633Z" fill="url(#paint9_linear_3003_10613)"/>
<path d="M12.2762 11.3383C11.9133 12.1133 11.2449 12.6329 10.4805 12.6329C9.3293 12.6329 8.39609 11.4539 8.39609 10C8.39609 9.87075 8.40352 9.74379 8.41758 9.61996H7.01523C7.00625 9.74536 7.00195 9.87192 7.00195 10C7.00195 12.427 8.55937 14.3942 10.4805 14.3942C11.6883 14.3942 12.752 13.6172 13.375 12.4372L12.2762 11.3383Z" fill="url(#paint10_linear_3003_10613)"/>
<path d="M14.393 13.4547C13.5301 15.0113 12.0996 16.0289 10.4812 16.0289C7.84531 16.0289 5.70859 13.3293 5.70859 10C5.70859 9.87228 5.71172 9.74572 5.71797 9.61993H4.52305C4.51797 9.74572 4.51562 9.87267 4.51562 10C4.51562 14.1617 7.18672 17.536 10.4812 17.536C12.4789 17.536 14.2469 16.2957 15.3301 14.3918L14.393 13.4547Z" fill="url(#paint11_linear_3003_10613)"/>
<path d="M7.17057 10H2.16745L0.0662762 7.00589C-0.102083 6.76605 0.0697918 6.43558 0.362761 6.43558H0.579948C0.792057 6.43558 0.990885 6.5387 1.11237 6.71253L1.59557 7.40081L1.4069 6.73909C1.36354 6.58714 1.4776 6.43558 1.63581 6.43558H2.49956C2.54096 6.43558 2.58085 6.45112 2.61132 6.47917L2.73581 6.59366C2.78956 6.64312 2.8694 6.65136 2.93214 6.61394C2.98233 6.58401 3.0446 6.58284 3.09589 6.61085L3.29077 6.71734C3.36733 6.75917 3.46241 6.74433 3.52257 6.68112C3.68397 6.51151 3.92553 6.44538 4.15143 6.50691C4.6001 6.62913 4.99839 6.90437 5.27174 7.29413L7.17057 10Z" fill="url(#paint12_linear_3003_10613)"/>
<path d="M2.16691 10H7.17004L5.68477 7.88354H0.681641L2.16691 10Z" fill="url(#paint13_linear_3003_10613)"/>
<path d="M5.27256 7.29417C4.99916 6.90441 4.60092 6.62917 4.15225 6.50694C3.92635 6.44542 3.68479 6.51155 3.52338 6.68116C3.46322 6.74437 3.36814 6.75921 3.29158 6.71737L3.0967 6.61089C3.04541 6.58284 2.98314 6.58401 2.93295 6.61394C2.87022 6.65132 2.79037 6.64308 2.73662 6.59366L2.61213 6.47917C2.58166 6.45112 2.54178 6.43558 2.50037 6.43558H1.63662C1.47842 6.43558 1.36436 6.58714 1.40771 6.73909L1.59252 7.38726L3.426 10H7.17135L5.27256 7.29417Z" fill="url(#paint14_linear_3003_10613)"/>
<path d="M5.27109 7.29417C4.9977 6.90441 4.59945 6.62917 4.15078 6.50694C3.92488 6.44542 3.68332 6.51155 3.52191 6.68116C3.46176 6.74437 3.36668 6.75921 3.29012 6.71737L3.09523 6.61089C3.04395 6.58284 2.98168 6.58401 2.93148 6.61394C2.86875 6.65132 2.78891 6.64308 2.73516 6.59366L2.61066 6.47917C2.5802 6.45112 2.54031 6.43558 2.49891 6.43558H1.63516C1.57793 6.43558 1.52664 6.45562 1.48633 6.48812C1.52066 6.49167 1.55496 6.49769 1.58891 6.50694C2.03758 6.62917 2.43586 6.90441 2.70922 7.29417L4.60805 10H7.16992L5.27109 7.29417Z" fill="url(#paint15_linear_3003_10613)"/>
<path d="M5.27199 7.29416C4.99859 6.90439 4.60035 6.62916 4.15168 6.50693C3.92578 6.44541 3.68422 6.51154 3.52281 6.68115C3.46266 6.74436 3.36758 6.7592 3.29102 6.71736L3.09613 6.61088C3.04484 6.58283 2.98258 6.584 2.93238 6.61393C2.89051 6.63889 2.84113 6.64307 2.79688 6.62869C3.1093 6.776 3.38313 7.00311 3.58727 7.29416L5.48609 10H7.17082L5.27199 7.29416Z" fill="url(#paint16_linear_3003_10613)"/>
<path d="M5.27199 7.29416C4.99859 6.90439 4.60035 6.62916 4.15168 6.50693C3.92578 6.44541 3.68422 6.51154 3.52281 6.68115C3.46266 6.74436 3.36758 6.7592 3.29102 6.71736L3.09613 6.61088C3.04484 6.58283 2.98258 6.584 2.93238 6.61393C2.89051 6.63889 2.84113 6.64307 2.79688 6.62869C3.1093 6.776 3.38313 7.00311 3.58727 7.29416L5.48609 10H7.17082L5.27199 7.29416Z" fill="url(#paint17_linear_3003_10613)"/>
<path d="M7.17057 10H2.16745L0.0662762 12.9942C-0.102083 13.234 0.0697918 13.5645 0.362761 13.5645H0.579948C0.792057 13.5645 0.990885 13.4614 1.11237 13.2875L1.59557 12.5992L1.4069 13.261C1.36354 13.4129 1.4776 13.5645 1.63581 13.5645H2.49956C2.54096 13.5645 2.58085 13.5489 2.61132 13.5209L2.73581 13.4064C2.78956 13.3569 2.8694 13.3487 2.93214 13.3861C2.98233 13.416 3.0446 13.4172 3.09589 13.3892L3.29077 13.2827C3.36733 13.2409 3.46241 13.2557 3.52257 13.3189C3.68397 13.4885 3.92553 13.5547 4.15143 13.4932C4.6001 13.3709 4.99839 13.0957 5.27174 12.7059L7.17057 10Z" fill="url(#paint18_linear_3003_10613)"/>
<path d="M0.995026 11.6707L0.0662762 12.9942C-0.102083 13.234 0.0697918 13.5645 0.362761 13.5645H0.579948C0.792057 13.5645 0.990885 13.4614 1.11237 13.2875L1.59557 12.5992L1.4069 13.261C1.36354 13.4129 1.4776 13.5645 1.63581 13.5645H2.49956C2.54096 13.5645 2.58085 13.5489 2.61132 13.5209L2.73581 13.4064C2.78956 13.3569 2.8694 13.3487 2.93214 13.3861C2.98233 13.416 3.0446 13.4172 3.09589 13.3892L3.29077 13.2827C3.36733 13.2409 3.46241 13.2557 3.52257 13.3189C3.68397 13.4885 3.92553 13.5547 4.15143 13.4932C4.6001 13.3709 4.99839 13.0957 5.27174 12.7059L5.99819 11.6707H0.995026V11.6707Z" fill="url(#paint19_linear_3003_10613)"/>
<path d="M5.27256 12.7059C4.99916 13.0957 4.60092 13.3709 4.15225 13.4931C3.92635 13.5546 3.68479 13.4885 3.52338 13.3189C3.46322 13.2557 3.36814 13.2409 3.29158 13.2827L3.0967 13.3892C3.04541 13.4172 2.98314 13.416 2.93295 13.3861C2.87022 13.3487 2.79037 13.357 2.73662 13.4064L2.61213 13.5209C2.58166 13.5489 2.54178 13.5645 2.50037 13.5645H1.63662C1.47842 13.5645 1.36436 13.4129 1.40771 13.261L1.59252 12.6128L3.426 10H7.17135L5.27256 12.7059Z" fill="url(#paint20_linear_3003_10613)"/>
<path d="M5.27109 12.7059C4.9977 13.0957 4.59945 13.3709 4.15078 13.4931C3.92488 13.5546 3.68332 13.4885 3.52191 13.3189C3.46176 13.2557 3.36668 13.2409 3.29012 13.2827L3.09523 13.3892C3.04395 13.4172 2.98168 13.416 2.93148 13.3861C2.86875 13.3487 2.78891 13.357 2.73516 13.4064L2.61066 13.5209C2.5802 13.5489 2.54031 13.5645 2.49891 13.5645H1.63516C1.57793 13.5645 1.52664 13.5444 1.48633 13.5119C1.52066 13.5084 1.55496 13.5024 1.58891 13.4931C2.03758 13.3709 2.43586 13.0957 2.70922 12.7059L4.60805 10H7.16992L5.27109 12.7059Z" fill="url(#paint21_linear_3003_10613)"/>
<path d="M5.27199 12.7059C4.99859 13.0957 4.60035 13.3709 4.15168 13.4931C3.92578 13.5546 3.68422 13.4885 3.52281 13.3189C3.46266 13.2557 3.36758 13.2409 3.29102 13.2827L3.09613 13.3892C3.04484 13.4172 2.98258 13.416 2.93238 13.3861C2.89051 13.3612 2.84113 13.357 2.79688 13.3714C3.1093 13.2241 3.38313 12.9969 3.58727 12.7059L5.48609 10H7.17082L5.27199 12.7059Z" fill="url(#paint22_linear_3003_10613)"/>
<path d="M5.27199 12.7059C4.99859 13.0957 4.60035 13.3709 4.15168 13.4931C3.92578 13.5546 3.68422 13.4885 3.52281 13.3189C3.46266 13.2557 3.36758 13.2409 3.29102 13.2827L3.09613 13.3892C3.04484 13.4172 2.98258 13.416 2.93238 13.3861C2.89051 13.3612 2.84113 13.357 2.79688 13.3714C3.1093 13.2241 3.38313 12.9969 3.58727 12.7059L5.48609 10H7.17082L5.27199 12.7059Z" fill="url(#paint23_linear_3003_10613)"/>
<path d="M10.7087 10V10.0056C10.7085 10.3044 10.4662 10.5465 10.1674 10.5465H0.546484C0.244687 10.5465 0 10.3018 0 10C0 9.69821 0.244687 9.45352 0.546484 9.45352H10.1674C10.4662 9.45352 10.7085 9.69559 10.7088 9.99438L10.7087 10Z" fill="url(#paint24_linear_3003_10613)"/>
</g>
<defs>
<linearGradient id="paint0_linear_3003_10613" x1="15.2402" y1="1.55529" x2="15.2402" y2="19.4335" gradientUnits="userSpaceOnUse">
<stop stop-color="#BFDBFF"/>
<stop offset="1" stop-color="#498ADE"/>
</linearGradient>
<linearGradient id="paint1_linear_3003_10613" x1="15.2138" y1="11.3085" x2="19.6221" y2="13.2372" gradientUnits="userSpaceOnUse">
<stop stop-color="#BFDBFF" stop-opacity="0"/>
<stop offset="0.2343" stop-color="#BFDBFF" stop-opacity="0.234"/>
<stop offset="0.5173" stop-color="#498ADE" stop-opacity="0.517"/>
<stop offset="0.8243" stop-color="#498ADE" stop-opacity="0.824"/>
<stop offset="1" stop-color="#498ADE"/>
</linearGradient>
<linearGradient id="paint2_linear_3003_10613" x1="15.2402" y1="10.5098" x2="15.2402" y2="18.6212" gradientUnits="userSpaceOnUse">
<stop stop-color="#498ADE" stop-opacity="0"/>
<stop offset="0.2343" stop-color="#498ADE" stop-opacity="0.234"/>
<stop offset="0.5173" stop-color="#498ADE" stop-opacity="0.517"/>
<stop offset="0.8243" stop-color="#498ADE" stop-opacity="0.824"/>
<stop offset="1" stop-color="#498ADE"/>
</linearGradient>
<linearGradient id="paint3_linear_3003_10613" x1="5.23305" y1="6.98105" x2="16.6214" y2="13.5324" gradientUnits="userSpaceOnUse">
<stop stop-color="#BFDBFF"/>
<stop offset="1" stop-color="#498ADE"/>
</linearGradient>
<linearGradient id="paint4_linear_3003_10613" x1="9.76855" y1="13.4982" x2="8.71039" y2="9.96172" gradientUnits="userSpaceOnUse">
<stop stop-color="#BFDBFF" stop-opacity="0"/>
<stop offset="0.2343" stop-color="#BFDBFF" stop-opacity="0.234"/>
<stop offset="0.5173" stop-color="#498ADE" stop-opacity="0.517"/>
<stop offset="0.8243" stop-color="#498ADE" stop-opacity="0.824"/>
<stop offset="1" stop-color="#498ADE"/>
</linearGradient>
<linearGradient id="paint5_linear_3003_10613" x1="10.481" y1="14.5968" x2="10.481" y2="19.8442" gradientUnits="userSpaceOnUse">
<stop stop-color="#CAB8FF" stop-opacity="0"/>
<stop offset="0.2343" stop-color="#CAB8FF" stop-opacity="0.234"/>
<stop offset="0.5173" stop-color="#498ADE" stop-opacity="0.517"/>
<stop offset="0.8243" stop-color="#498ADE" stop-opacity="0.824"/>
<stop offset="1" stop-color="#498ADE"/>
</linearGradient>
<linearGradient id="paint6_linear_3003_10613" x1="6.81395" y1="12.7477" x2="5.66297" y2="11.6896" gradientUnits="userSpaceOnUse">
<stop stop-color="#BFDBFF" stop-opacity="0"/>
<stop offset="0.2343" stop-color="#BFDBFF" stop-opacity="0.234"/>
<stop offset="0.5173" stop-color="#BFDBFF" stop-opacity="0.517"/>
<stop offset="0.8243" stop-color="#498ADE" stop-opacity="0.824"/>
<stop offset="1" stop-color="#498ADE"/>
</linearGradient>
<linearGradient id="paint7_linear_3003_10613" x1="13.1123" y1="11.7478" x2="16.9237" y2="15.0082" gradientUnits="userSpaceOnUse">
<stop stop-color="#BFDBFF" stop-opacity="0"/>
<stop offset="0.2343" stop-color="#BFDBFF" stop-opacity="0.234"/>
<stop offset="0.5173" stop-color="#498ADE" stop-opacity="0.517"/>
<stop offset="0.8243" stop-color="#498ADE" stop-opacity="0.824"/>
<stop offset="1" stop-color="#498ADE"/>
</linearGradient>
<linearGradient id="paint8_linear_3003_10613" x1="6.17035" y1="7.51999" x2="15.5257" y2="12.9018" gradientUnits="userSpaceOnUse">
<stop stop-color="#F5FBFF"/>
<stop offset="1" stop-color="#BFDBFF"/>
</linearGradient>
<linearGradient id="paint9_linear_3003_10613" x1="7.96668" y1="8.55393" x2="13.4217" y2="11.692" gradientUnits="userSpaceOnUse">
<stop stop-color="#F5FBFF"/>
<stop offset="1" stop-color="#BFDBFF"/>
</linearGradient>
<linearGradient id="paint10_linear_3003_10613" x1="10.1643" y1="11.5819" x2="9.53309" y2="9.65118" gradientUnits="userSpaceOnUse">
<stop stop-color="#BFDBFF" stop-opacity="0"/>
<stop offset="0.2853" stop-color="#BFDBFF" stop-opacity="0.285"/>
<stop offset="0.4739" stop-color="#BFDBFF" stop-opacity="0.474"/>
<stop offset="0.6346" stop-color="#BFDBFF" stop-opacity="0.635"/>
<stop offset="0.7795" stop-color="#498ADE" stop-opacity="0.78"/>
<stop offset="0.9126" stop-color="#498ADE" stop-opacity="0.913"/>
<stop offset="1" stop-color="#498ADE"/>
</linearGradient>
<linearGradient id="paint11_linear_3003_10613" x1="7.66879" y1="12.3543" x2="6.425" y2="11.3518" gradientUnits="userSpaceOnUse">
<stop stop-color="#BFDBFF" stop-opacity="0"/>
<stop offset="0.2853" stop-color="#BFDBFF" stop-opacity="0.285"/>
<stop offset="0.4739" stop-color="#BFDBFF" stop-opacity="0.474"/>
<stop offset="0.6346" stop-color="#BFDBFF" stop-opacity="0.635"/>
<stop offset="0.7795" stop-color="#498ADE" stop-opacity="0.78"/>
<stop offset="0.9126" stop-color="#498ADE" stop-opacity="0.913"/>
<stop offset="1" stop-color="#498ADE"/>
</linearGradient>
<linearGradient id="paint12_linear_3003_10613" x1="3.58526" y1="6.86944" x2="3.58526" y2="9.06597" gradientUnits="userSpaceOnUse">
<stop stop-color="#EBFFDB"/>
<stop offset="1" stop-color="#95ED50"/>
</linearGradient>
<linearGradient id="paint13_linear_3003_10613" x1="3.92582" y1="8.77464" x2="3.92582" y2="9.74964" gradientUnits="userSpaceOnUse">
<stop stop-color="#EBFFDB" stop-opacity="0"/>
<stop offset="0.2761" stop-color="#EBFFDB" stop-opacity="0.276"/>
<stop offset="0.5628" stop-color="#EBFFDB" stop-opacity="0.563"/>
<stop offset="0.8535" stop-color="#95ED50" stop-opacity="0.854"/>
<stop offset="1" stop-color="#95ED50"/>
</linearGradient>
<linearGradient id="paint14_linear_3003_10613" x1="3.72611" y1="8.80194" x2="2.79326" y2="9.66519" gradientUnits="userSpaceOnUse">
<stop stop-color="#EBFFDB" stop-opacity="0"/>
<stop offset="0.2761" stop-color="#EBFFDB" stop-opacity="0.276"/>
<stop offset="0.5628" stop-color="#EBFFDB" stop-opacity="0.563"/>
<stop offset="0.8535" stop-color="#95ED50" stop-opacity="0.854"/>
<stop offset="1" stop-color="#95ED50"/>
</linearGradient>
<linearGradient id="paint15_linear_3003_10613" x1="4.22055" y1="8.38937" x2="3.42691" y2="9.46148" gradientUnits="userSpaceOnUse">
<stop stop-color="#EBFFDB" stop-opacity="0"/>
<stop offset="0.2761" stop-color="#EBFFDB" stop-opacity="0.276"/>
<stop offset="0.5628" stop-color="#EBFFDB" stop-opacity="0.563"/>
<stop offset="0.8535" stop-color="#95ED50" stop-opacity="0.854"/>
<stop offset="1" stop-color="#95ED50"/>
</linearGradient>
<linearGradient id="paint16_linear_3003_10613" x1="4.61594" y1="8.46228" x2="3.26539" y2="9.00529" gradientUnits="userSpaceOnUse">
<stop stop-color="#EBFFDB" stop-opacity="0"/>
<stop offset="0.2761" stop-color="#EBFFDB" stop-opacity="0.276"/>
<stop offset="0.5628" stop-color="#EBFFDB" stop-opacity="0.563"/>
<stop offset="0.8535" stop-color="#95ED50" stop-opacity="0.854"/>
<stop offset="1" stop-color="#95ED50"/>
</linearGradient>
<linearGradient id="paint17_linear_3003_10613" x1="5.08066" y1="8.26123" x2="5.79074" y2="7.87135" gradientUnits="userSpaceOnUse">
<stop stop-color="#EBFFDB" stop-opacity="0"/>
<stop offset="0.2761" stop-color="#EBFFDB" stop-opacity="0.276"/>
<stop offset="0.5628" stop-color="#EBFFDB" stop-opacity="0.563"/>
<stop offset="0.8535" stop-color="#95ED50" stop-opacity="0.854"/>
<stop offset="1" stop-color="#95ED50"/>
</linearGradient>
<linearGradient id="paint18_linear_3003_10613" x1="2.79823" y1="10.4075" x2="4.23233" y2="12.677" gradientUnits="userSpaceOnUse">
<stop stop-color="#EBFFDB"/>
<stop offset="1" stop-color="#95ED50"/>
</linearGradient>
<linearGradient id="paint19_linear_3003_10613" x1="2.99909" y1="12.6035" x2="2.99909" y2="13.68" gradientUnits="userSpaceOnUse">
<stop stop-color="#EBFFDB" stop-opacity="0"/>
<stop offset="0.2761" stop-color="#EBFFDB" stop-opacity="0.276"/>
<stop offset="0.5628" stop-color="#EBFFDB" stop-opacity="0.563"/>
<stop offset="0.8535" stop-color="#95ED50" stop-opacity="0.854"/>
<stop offset="1" stop-color="#95ED50"/>
</linearGradient>
<linearGradient id="paint20_linear_3003_10613" x1="3.72611" y1="11.1981" x2="2.79326" y2="10.3349" gradientUnits="userSpaceOnUse">
<stop stop-color="#EBFFDB" stop-opacity="0"/>
<stop offset="0.2761" stop-color="#EBFFDB" stop-opacity="0.276"/>
<stop offset="0.5628" stop-color="#EBFFDB" stop-opacity="0.563"/>
<stop offset="0.8535" stop-color="#95ED50" stop-opacity="0.854"/>
<stop offset="1" stop-color="#95ED50"/>
</linearGradient>
<linearGradient id="paint21_linear_3003_10613" x1="4.22055" y1="11.6107" x2="3.42691" y2="10.5386" gradientUnits="userSpaceOnUse">
<stop stop-color="#EBFFDB" stop-opacity="0"/>
<stop offset="0.2761" stop-color="#EBFFDB" stop-opacity="0.276"/>
<stop offset="0.5628" stop-color="#EBFFDB" stop-opacity="0.563"/>
<stop offset="0.8535" stop-color="#95ED50" stop-opacity="0.854"/>
<stop offset="1" stop-color="#95ED50"/>
</linearGradient>
<linearGradient id="paint22_linear_3003_10613" x1="4.61594" y1="11.5378" x2="3.26539" y2="10.9948" gradientUnits="userSpaceOnUse">
<stop stop-color="#EBFFDB" stop-opacity="0"/>
<stop offset="0.2761" stop-color="#EBFFDB" stop-opacity="0.276"/>
<stop offset="0.5628" stop-color="#EBFFDB" stop-opacity="0.563"/>
<stop offset="0.8535" stop-color="#95ED50" stop-opacity="0.854"/>
<stop offset="1" stop-color="#95ED50"/>
</linearGradient>
<linearGradient id="paint23_linear_3003_10613" x1="5.08066" y1="11.7389" x2="5.79074" y2="12.1287" gradientUnits="userSpaceOnUse">
<stop stop-color="#EBFFDB" stop-opacity="0"/>
<stop offset="0.2761" stop-color="#EBFFDB" stop-opacity="0.276"/>
<stop offset="0.5628" stop-color="#95ED50" stop-opacity="0.563"/>
<stop offset="0.8535" stop-color="#95ED50" stop-opacity="0.854"/>
<stop offset="1" stop-color="#95ED50"/>
</linearGradient>
<linearGradient id="paint24_linear_3003_10613" x1="5.35438" y1="9.58657" x2="5.35438" y2="10.2601" gradientUnits="userSpaceOnUse">
<stop stop-color="#5A5A5A"/>
<stop offset="1" stop-color="#444444"/>
</linearGradient>
<clipPath id="clip0_3003_10613">
<rect width="20" height="20" fill="white"/>
</clipPath>
</defs>
</svg>
