<svg width="20" height="20" viewBox="0 0 20 20" fill="none" xmlns="http://www.w3.org/2000/svg">
<g clip-path="url(#clip0_3003_10565)">
<path d="M5.2649 3.2952L4.46623 4.29211C4.43325 4.33599 4.40086 4.38018 4.36905 4.42473C3.51145 5.62489 3.12223 7.0956 3.21556 8.56771C3.29364 9.79869 3.36403 10.2927 4.16533 11.9007C4.30525 12.1815 4.60168 12.2298 4.82348 12.0079C4.86364 11.9678 4.89592 11.9205 4.91901 11.8687C5.44505 10.6874 6.07635 9.55689 6.80482 8.49065C7.23235 7.86489 8.09407 7.71838 8.70686 8.16434C9.26462 8.57026 9.42372 9.33128 9.07831 9.92842C8.47866 10.965 8.09854 12.1172 7.96599 13.3124C7.94348 13.5152 7.9425 13.7198 7.95709 13.9233C8.00682 14.6175 8.12195 16.3867 8.04956 16.97C8.0489 16.9753 8.04823 16.9806 8.04756 16.9859C7.85839 18.4913 6.69905 19.6915 5.20176 19.9378L5.11262 19.9524C3.17866 20.2709 1.35239 18.9604 1.03427 17.0259L0.484974 13.6856L0.159288 11.5823C-0.325065 8.28187 0.516072 4.92356 2.49697 2.24893L3.01337 1.60105C3.47627 0.975752 4.3569 0.846733 4.9807 1.31265C5.60674 1.78011 5.73419 2.67046 5.2649 3.2952Z" fill="url(#paint0_linear_3003_10565)"/>
<path d="M4.43541 12.1363C4.32729 12.1092 4.22968 12.0299 4.16533 11.9007C3.36403 10.2926 3.2936 9.79866 3.21556 8.56768C3.12219 7.09556 3.51145 5.62485 4.36905 4.4247C4.4009 4.38015 4.43329 4.33595 4.46623 4.29207L5.2649 3.29517C5.73419 2.67042 5.60674 1.78007 4.9807 1.31258C4.3569 0.846656 3.47627 0.975676 3.01337 1.60097L2.49694 2.24885C0.516072 4.92352 -0.325065 8.28179 0.159288 11.5823L0.484935 13.6856L0.630386 14.57H4.43541V12.1363Z" fill="url(#paint1_linear_3003_10565)"/>
<path d="M8.70653 8.16427C9.26425 8.57019 9.42335 9.33121 9.07794 9.92831C8.42378 11.0592 8.03088 12.3275 7.93558 13.6393C7.93413 13.659 7.9326 13.6787 7.931 13.6984C7.74719 15.9148 4.54586 16.0345 4.1959 13.8382C4.17076 13.6804 4.19162 13.5186 4.25609 13.3723L4.8839 11.9472C5.4168 10.7375 6.0599 9.58047 6.80449 8.49063C7.23202 7.86482 8.09374 7.71831 8.70653 8.16427Z" fill="url(#paint2_linear_3003_10565)"/>
<path d="M17.2747 6.00823C16.9297 7.94521 15.7193 9.8065 13.6776 11.5402C12.1077 12.8734 10.4441 13.788 9.59194 14.2142C9.30979 14.3555 8.99418 14.43 8.6794 14.43C8.44273 14.43 8.20602 14.3881 7.983 14.3072C7.97414 14.1732 7.9661 14.0532 7.95885 13.953C7.94273 13.7263 7.94394 13.4985 7.9701 13.2731C8.10657 12.0916 8.48493 10.9537 9.07787 9.92846C9.20065 9.71591 9.25979 9.48285 9.25979 9.25262C9.25979 8.83478 9.06579 8.42583 8.7063 8.16419C8.09363 7.71819 7.23183 7.8647 6.80434 8.49066C6.07579 9.5567 5.44473 10.6874 4.91869 11.8686C4.89555 11.9205 4.86328 11.9678 4.82308 12.008C4.69791 12.1332 4.54814 12.1726 4.41692 12.132C4.34567 12.0776 4.27442 12.0225 4.20316 11.9661C4.02885 11.8296 3.85418 11.6876 3.68108 11.5402C1.98359 10.0988 0.860533 8.56956 0.332023 6.98156C0.224533 6.65952 0.141631 6.33509 0.0836701 6.00823C-0.184369 4.50356 0.198454 2.96748 1.13351 1.79411C1.99979 0.707285 3.22708 0.0720697 4.58967 0.00567758C4.66975 0.00203052 4.75108 3.05176e-05 4.8312 3.05176e-05C6.10763 3.05176e-05 7.31281 0.491913 8.22453 1.38513C8.38916 1.54654 8.54093 1.71803 8.6794 1.89756C8.81747 1.71803 8.96924 1.54654 9.13426 1.38513C10.0456 0.491913 11.2508 3.05176e-05 12.5276 3.05176e-05C12.6073 3.05176e-05 12.6886 0.00203052 12.7687 0.00567758C14.1313 0.072109 15.3586 0.707285 16.2248 1.79411C17.1603 2.96791 17.5427 4.50356 17.2747 6.00823Z" fill="url(#paint3_linear_3003_10565)"/>
<path d="M8.22451 1.38513C7.31275 0.491913 6.10757 3.05176e-05 4.83118 3.05176e-05C4.75106 3.05176e-05 4.66977 0.00203052 4.58965 0.00567758C3.22706 0.0720697 1.99977 0.707285 1.13349 1.79411C0.198435 2.96748 -0.184389 4.50356 0.0836899 6.00823C0.141651 6.33509 0.224592 6.65952 0.332043 6.98156C0.575611 7.71344 0.945847 8.43282 1.44004 9.13689L8.67934 1.89756C8.54091 1.71803 8.38914 1.54654 8.22451 1.38513Z" fill="url(#paint4_linear_3003_10565)"/>
<path d="M1.03306 17.0259C1.35118 18.9604 3.17746 20.2708 5.11142 19.9524L5.20055 19.9377C6.69785 19.6915 7.85722 18.4913 8.04636 16.9859C8.04703 16.9806 8.04769 16.9753 8.04836 16.97C8.09087 16.6275 8.06871 15.8764 8.0331 15.1739H0.728516L1.03306 17.0259Z" fill="url(#paint5_linear_3003_10565)"/>
<path d="M0.326172 6.96222C0.32829 6.96865 0.33029 6.97512 0.332446 6.98155C0.860956 8.56955 1.98402 10.0988 3.68151 11.5402C3.8546 11.6876 4.02927 11.8296 4.20358 11.9661C4.27484 12.0225 4.34609 12.0776 4.41735 12.1319C4.54856 12.1726 4.69833 12.1332 4.82351 12.008C4.8637 11.9678 4.89598 11.9205 4.91911 11.8686C5.44515 10.6874 6.07621 9.55669 6.80476 8.49065C7.23225 7.86473 8.09406 7.71818 8.70672 8.16418C9.06617 8.42583 9.26021 8.83481 9.26021 9.25261C9.26021 9.48285 9.20104 9.71591 9.07829 9.92845C8.48535 10.9537 8.10696 12.0917 7.97053 13.2731C7.94437 13.4985 7.94315 13.7263 7.95927 13.953C7.96653 14.0532 7.97457 14.1732 7.98343 14.3072C8.20641 14.3881 8.44311 14.43 8.67982 14.43C8.99461 14.43 9.31017 14.3555 9.59237 14.2142C10.4445 13.7879 12.1082 12.8734 13.6781 11.5402C15.3823 10.0931 16.5068 8.55696 17.0327 6.96222H0.326172Z" fill="url(#paint6_linear_3003_10565)"/>
<path d="M14.726 8.94777C14.6432 8.92067 14.568 8.87447 14.5064 8.81286L12.871 7.17749L12.648 7.48722C12.2544 8.03384 11.766 8.50557 11.206 8.88004L10.8633 9.10926L13.4688 11.7148C13.5387 11.6573 13.6085 11.5994 13.6781 11.5403C14.38 10.9442 14.9833 10.3331 15.4872 9.70902L14.726 8.94777Z" fill="url(#paint7_linear_3003_10565)"/>
<path d="M9.00289 8.45981C9.17164 8.69149 9.26073 8.96997 9.26073 9.25263C9.26073 9.48287 9.20156 9.71593 9.07881 9.92848C8.48587 10.9537 8.10748 12.0917 7.97105 13.2731C7.94489 13.4985 7.94367 13.7264 7.95979 13.953C7.96705 14.0532 7.97509 14.1732 7.98395 14.3072C8.20693 14.3881 8.44364 14.43 8.68034 14.43C8.99513 14.43 9.31069 14.3555 9.59289 14.2142C10.285 13.868 11.5123 13.1998 12.7899 12.2468L9.00289 8.45981Z" fill="url(#paint8_linear_3003_10565)"/>
<path d="M17.1345 6.62426C17.1908 6.41979 17.2379 6.21446 17.2747 6.00822C17.4064 5.26873 17.3807 4.52187 17.2098 3.81403H14.3242L17.1345 6.62426Z" fill="url(#paint9_linear_3003_10565)"/>
<path d="M16.9691 6.34234C16.4027 5.22693 15.4675 4.33042 14.3236 3.81403C14.1968 3.75681 14.1968 3.57544 14.3236 3.51822C15.4675 3.00183 16.4027 2.10532 16.9691 0.989907C17.0293 0.871162 17.1985 0.871162 17.2588 0.989907C17.8252 2.10532 18.7604 3.00183 19.9043 3.51822C20.0311 3.57544 20.0311 3.75681 19.9043 3.81403C18.7604 4.33042 17.8252 5.22693 17.2588 6.34234C17.1985 6.46108 17.0294 6.46108 16.9691 6.34234Z" fill="url(#paint10_linear_3003_10565)"/>
<path d="M12.6715 10.8386C12.2841 10.0756 11.6443 9.46241 10.8619 9.10915C10.7752 9.07002 10.7752 8.94598 10.8619 8.90684C11.6443 8.55362 12.284 7.94041 12.6715 7.17743C12.7127 7.09621 12.8284 7.09621 12.8697 7.17743C13.2571 7.94041 13.8968 8.55358 14.6792 8.90684C14.7659 8.94598 14.7659 9.07002 14.6792 9.10915C13.8968 9.46237 13.2571 10.0756 12.8697 10.8386C12.8285 10.9198 12.7127 10.9198 12.6715 10.8386Z" fill="url(#paint11_linear_3003_10565)"/>
<path d="M16.7516 15.27C16.3641 14.507 15.7244 13.8938 14.942 13.5405C14.8553 13.5014 14.8553 13.3774 14.942 13.3382C15.7244 12.985 16.3641 12.3718 16.7516 11.6088C16.7928 11.5276 16.9085 11.5276 16.9497 11.6088C17.3372 12.3718 17.9769 12.985 18.7593 13.3382C18.846 13.3774 18.846 13.5014 18.7593 13.5405C17.9769 13.8938 17.3372 14.507 16.9497 15.27C16.9085 15.3512 16.7928 15.3512 16.7516 15.27Z" fill="url(#paint12_linear_3003_10565)"/>
</g>
<defs>
<linearGradient id="paint0_linear_3003_10565" x1="5.00195" y1="14.0005" x2="9.00195" y2="9.50053" gradientUnits="userSpaceOnUse">
<stop stop-color="#FFF3EE"/>
<stop offset="1" stop-color="#FFDAC9"/>
</linearGradient>
<linearGradient id="paint1_linear_3003_10565" x1="1.47867" y1="4.59526" x2="5.76211" y2="7.50761" gradientUnits="userSpaceOnUse">
<stop stop-color="#FFDAC9"/>
<stop offset="1" stop-color="#FFF3EE"/>
</linearGradient>
<linearGradient id="paint2_linear_3003_10565" x1="6.98355" y1="11.6664" x2="10.1725" y2="11.3969" gradientUnits="userSpaceOnUse">
<stop stop-color="#FFF3EE" stop-opacity="0"/>
<stop offset="0.9972" stop-color="#FFDAC9"/>
</linearGradient>
<linearGradient id="paint3_linear_3003_10565" x1="5.93034" y1="2.65905" x2="13.6472" y2="10.3759" gradientUnits="userSpaceOnUse">
<stop stop-color="#E9F3FF"/>
<stop offset="1" stop-color="#498ADE"/>
</linearGradient>
<linearGradient id="paint4_linear_3003_10565" x1="6.03506" y1="2.86619" x2="11.5514" y2="0.147207" gradientUnits="userSpaceOnUse">
<stop stop-color="#BFDBFF" stop-opacity="0"/>
<stop offset="1" stop-color="#5693E2"/>
</linearGradient>
<linearGradient id="paint5_linear_3003_10565" x1="4.18076" y1="15.6243" x2="4.48147" y2="18.6218" gradientUnits="userSpaceOnUse">
<stop stop-color="#FFF3EE"/>
<stop offset="1" stop-color="#FFDAC9"/>
</linearGradient>
<linearGradient id="paint6_linear_3003_10565" x1="8.67939" y1="8.14296" x2="8.67939" y2="16.3186" gradientUnits="userSpaceOnUse">
<stop stop-color="white" stop-opacity="0"/>
<stop offset="1" stop-color="#5A93DA"/>
</linearGradient>
<linearGradient id="paint7_linear_3003_10565" x1="16.001" y1="12.2348" x2="11.2096" y2="7.44345" gradientUnits="userSpaceOnUse">
<stop stop-color="#498ADE" stop-opacity="0"/>
<stop offset="1" stop-color="#498ADE"/>
</linearGradient>
<linearGradient id="paint8_linear_3003_10565" x1="11.1698" y1="13.2778" x2="7.03716" y2="10.3528" gradientUnits="userSpaceOnUse">
<stop stop-color="#498ADE" stop-opacity="0"/>
<stop offset="1" stop-color="#5A93DA"/>
</linearGradient>
<linearGradient id="paint9_linear_3003_10565" x1="16.7946" y1="7.56042" x2="15.2161" y2="1.80552" gradientUnits="userSpaceOnUse">
<stop stop-color="#BFDBFF" stop-opacity="0"/>
<stop offset="1" stop-color="#5693E2"/>
</linearGradient>
<linearGradient id="paint10_linear_3003_10565" x1="15.7471" y1="2.3563" x2="18.0918" y2="4.80278" gradientUnits="userSpaceOnUse">
<stop stop-color="#EBFFDB"/>
<stop offset="1" stop-color="#95ED50"/>
</linearGradient>
<linearGradient id="paint11_linear_3003_10565" x1="11.8356" y1="8.11207" x2="13.4394" y2="9.7855" gradientUnits="userSpaceOnUse">
<stop stop-color="#EBFFDB"/>
<stop offset="1" stop-color="#95ED50"/>
</linearGradient>
<linearGradient id="paint12_linear_3003_10565" x1="15.9157" y1="12.5435" x2="17.5195" y2="14.2169" gradientUnits="userSpaceOnUse">
<stop stop-color="#EBFFDB"/>
<stop offset="1" stop-color="#95ED50"/>
</linearGradient>
<clipPath id="clip0_3003_10565">
<rect width="20" height="20" fill="white"/>
</clipPath>
</defs>
</svg>
