<svg width="20" height="20" viewBox="0 0 20 20" fill="none" xmlns="http://www.w3.org/2000/svg">
<path d="M18.7109 1.22659H1.28906C0.578125 1.22659 0 1.80472 0 2.51566V13.1602C0 13.8711 0.578125 14.4492 1.28906 14.4492H2.9375C3.31641 14.4492 3.66797 14.6407 3.87891 14.9532L6.16406 18.418C6.47656 18.8907 7.17188 18.8907 7.48828 18.418L9.77344 14.9532C9.98047 14.6367 10.3359 14.4492 10.7148 14.4492H18.7109C19.4219 14.4492 20 13.8711 20 13.1602V2.51566C20 1.80472 19.4219 1.22659 18.7109 1.22659Z" fill="url(#paint0_linear_3003_10689)"/>
<path d="M10.7109 14.4453H18.7109C19.4219 14.4453 20 13.8672 20 13.1563V10.6719H12.6992L9.77344 14.9492C9.98047 14.6367 10.332 14.4453 10.7109 14.4453Z" fill="url(#paint1_linear_3003_10689)"/>
<path d="M0 10.6719V13.1563C0 13.8672 0.578125 14.4453 1.28906 14.4453H2.9375C3.31641 14.4453 3.66797 14.6367 3.87891 14.9492L0.953125 10.6719H0Z" fill="url(#paint2_linear_3003_10689)"/>
<path d="M18.7109 1.22659H13.1406V14.4453H18.7109C19.4219 14.4453 20 13.8672 20 13.1563V2.51566C20 1.80472 19.4219 1.22659 18.7109 1.22659Z" fill="url(#paint3_linear_3003_10689)"/>
<path d="M17.1992 5.62503L12.6641 10.1407L16.9687 14.4453H18.7109C19.4219 14.4453 20 13.8672 20 13.1563V8.42581L17.1992 5.62503Z" fill="url(#paint4_linear_3003_10689)"/>
<path d="M9.60156 9.21487L3.38281 12.4571L8.22266 17.2969L9.76953 14.9532C9.97656 14.6367 10.332 14.4492 10.7109 14.4492H14.832L9.60156 9.21487Z" fill="url(#paint5_linear_3003_10689)"/>
<path d="M18.7109 14.4453C19.1172 14.4453 19.4766 14.2578 19.7148 13.9649L8.93359 3.18362L4.98828 6.90628L12.5312 14.4492H18.7109V14.4453Z" fill="url(#paint6_linear_3003_10689)"/>
<path d="M6.92187 7.68362C6.90625 7.68362 6.89062 7.68362 6.875 7.68362C5.39453 7.67972 4.19531 6.4805 4.19141 5.00003C4.19141 4.98441 4.19141 4.96878 4.19141 4.95316C4.19531 3.47269 5.39453 2.27347 6.875 2.26956H6.92187C8.40234 2.27347 9.60156 3.47269 9.60547 4.95316V5.00003C9.60156 6.4805 8.39844 7.67972 6.92187 7.68362Z" fill="url(#paint7_radial_3003_10689)"/>
<g opacity="0.35">
<path d="M6.92187 7.68362C6.90625 7.68362 6.89062 7.68362 6.875 7.68362C5.39453 7.67972 4.19531 6.4805 4.19141 5.00003C4.19141 4.98441 4.19141 4.96878 4.19141 4.95316C4.19531 3.47269 5.39453 2.27347 6.875 2.26956H6.92187C8.40234 2.27347 9.60156 3.47269 9.60547 4.95316V5.00003C9.60156 6.4805 8.39844 7.67972 6.92187 7.68362Z" fill="url(#paint8_linear_3003_10689)"/>
</g>
<path d="M3.14062 11.8672C3.14062 11.8438 3.14062 11.8242 3.14062 11.8008C3.14453 9.75003 4.8125 8.08206 6.86328 8.07816H6.92969C8.98047 8.08206 10.6484 9.75003 10.6523 11.8008V11.8672C10.6484 13.918 3.14453 13.918 3.14062 11.8672Z" fill="url(#paint9_radial_3003_10689)"/>
<g opacity="0.35">
<path d="M3.14062 11.8672C3.14062 11.8438 3.14062 11.8242 3.14062 11.8008C3.14453 9.75003 4.8125 8.08206 6.86328 8.07816H6.92969C8.98047 8.08206 10.6484 9.75003 10.6523 11.8008V11.8672C10.6484 13.918 3.14453 13.918 3.14062 11.8672Z" fill="url(#paint10_linear_3003_10689)"/>
</g>
<path d="M14.9141 11.0313C14.8945 11.0313 14.875 11.0313 14.8555 11.0313C13.1094 11.0274 11.6953 9.60941 11.6914 7.86722C11.6914 7.84769 11.6914 7.82816 11.6914 7.80862C11.6953 6.06253 13.1133 4.64847 14.8555 4.64456H14.9141C16.6602 4.64847 18.0742 6.06644 18.0781 7.80862V7.86722C18.0742 9.60941 16.6602 11.0274 14.9141 11.0313Z" fill="url(#paint11_radial_3003_10689)"/>
<g opacity="0.25">
<path d="M14.9141 11.0313C14.8945 11.0313 14.875 11.0313 14.8555 11.0313C13.1094 11.0274 11.6953 9.60941 11.6914 7.86722C11.6914 7.84769 11.6914 7.82816 11.6914 7.80862C11.6953 6.06253 13.1133 4.64847 14.8555 4.64456H14.9141C16.6602 4.64847 18.0742 6.06644 18.0781 7.80862V7.86722C18.0742 9.60941 16.6602 11.0274 14.9141 11.0313Z" fill="#CEFAAA"/>
<path d="M14.9141 11.0313C14.8945 11.0313 14.875 11.0313 14.8555 11.0313C13.1094 11.0274 11.6953 9.60941 11.6914 7.86722C11.6914 7.84769 11.6914 7.82816 11.6914 7.80862C11.6953 6.06253 13.1133 4.64847 14.8555 4.64456H14.9141C16.6602 4.64847 18.0742 6.06644 18.0781 7.80862V7.86722C18.0742 9.60941 16.6602 11.0274 14.9141 11.0313Z" fill="url(#paint12_radial_3003_10689)"/>
</g>
<path d="M16.3242 7.31253H15.4102V6.39847C15.4102 6.26175 15.3008 6.15237 15.1641 6.15237H14.6094C14.4727 6.15237 14.3633 6.26175 14.3633 6.39847V7.31253H13.4492C13.3125 7.31253 13.2031 7.42191 13.2031 7.55862V8.11722C13.2031 8.25394 13.3125 8.36331 13.4492 8.36331H14.3633V9.27737C14.3633 9.41409 14.4727 9.52347 14.6094 9.52347H15.168C15.3047 9.52347 15.4141 9.41409 15.4141 9.27737V8.35941H16.3281C16.4648 8.35941 16.5742 8.25003 16.5742 8.11331V7.55472C16.5703 7.42191 16.4609 7.31253 16.3242 7.31253Z" fill="white"/>
<defs>
<linearGradient id="paint0_linear_3003_10689" x1="8.48391" y1="3.4573" x2="12.8387" y2="16.0378" gradientUnits="userSpaceOnUse">
<stop stop-color="#BFDBFF"/>
<stop offset="1" stop-color="#498ADE"/>
</linearGradient>
<linearGradient id="paint1_linear_3003_10689" x1="14.8862" y1="12.609" x2="14.8862" y2="14.2887" gradientUnits="userSpaceOnUse">
<stop stop-color="#BFDBFF" stop-opacity="0"/>
<stop offset="0.1624" stop-color="#BFDBFF" stop-opacity="0.051"/>
<stop offset="0.3712" stop-color="#BFDBFF" stop-opacity="0.198"/>
<stop offset="0.6053" stop-color="#498ADE" stop-opacity="0.441"/>
<stop offset="0.8559" stop-color="#498ADE" stop-opacity="0.776"/>
<stop offset="1" stop-color="#498ADE"/>
</linearGradient>
<linearGradient id="paint2_linear_3003_10689" x1="1.93844" y1="13.2488" x2="1.93844" y2="14.5612" gradientUnits="userSpaceOnUse">
<stop stop-color="#BFDBFF" stop-opacity="0"/>
<stop offset="0.1624" stop-color="#BFDBFF" stop-opacity="0.051"/>
<stop offset="0.3712" stop-color="#BFDBFF" stop-opacity="0.198"/>
<stop offset="0.6053" stop-color="#498ADE" stop-opacity="0.441"/>
<stop offset="0.8559" stop-color="#498ADE" stop-opacity="0.776"/>
<stop offset="1" stop-color="#498ADE"/>
</linearGradient>
<linearGradient id="paint3_linear_3003_10689" x1="17.8355" y1="7.83714" x2="20.1096" y2="7.83714" gradientUnits="userSpaceOnUse">
<stop stop-color="#BFDBFF" stop-opacity="0"/>
<stop offset="0.1624" stop-color="#BFDBFF" stop-opacity="0.051"/>
<stop offset="0.3712" stop-color="#BFDBFF" stop-opacity="0.198"/>
<stop offset="0.6053" stop-color="#498ADE" stop-opacity="0.441"/>
<stop offset="0.8559" stop-color="#498ADE" stop-opacity="0.776"/>
<stop offset="1" stop-color="#498ADE"/>
</linearGradient>
<linearGradient id="paint4_linear_3003_10689" x1="18.8877" y1="11.7843" x2="14.5807" y2="7.60737" gradientUnits="userSpaceOnUse">
<stop stop-color="#498ADE" stop-opacity="0"/>
<stop offset="0.1624" stop-color="#498ADE" stop-opacity="0.051"/>
<stop offset="0.3712" stop-color="#498ADE" stop-opacity="0.198"/>
<stop offset="0.6053" stop-color="#498ADE" stop-opacity="0.441"/>
<stop offset="0.8559" stop-color="#498ADE" stop-opacity="0.776"/>
<stop offset="1" stop-color="#498ADE"/>
</linearGradient>
<linearGradient id="paint5_linear_3003_10689" x1="10.0557" y1="15.6644" x2="7.75371" y2="10.2807" gradientUnits="userSpaceOnUse">
<stop stop-color="#498ADE" stop-opacity="0"/>
<stop offset="0.1624" stop-color="#498ADE" stop-opacity="0.051"/>
<stop offset="0.3712" stop-color="#498ADE" stop-opacity="0.198"/>
<stop offset="0.6053" stop-color="#498ADE" stop-opacity="0.441"/>
<stop offset="0.8559" stop-color="#498ADE" stop-opacity="0.776"/>
<stop offset="1" stop-color="#498ADE"/>
</linearGradient>
<linearGradient id="paint6_linear_3003_10689" x1="10.0495" y1="7.53952" x2="7.24629" y2="4.0123" gradientUnits="userSpaceOnUse">
<stop stop-color="#498ADE" stop-opacity="0"/>
<stop offset="0.1624" stop-color="#498ADE" stop-opacity="0.051"/>
<stop offset="0.3712" stop-color="#498ADE" stop-opacity="0.198"/>
<stop offset="0.6053" stop-color="#498ADE" stop-opacity="0.441"/>
<stop offset="0.8559" stop-color="#498ADE" stop-opacity="0.776"/>
<stop offset="1" stop-color="#498ADE"/>
</linearGradient>
<radialGradient id="paint7_radial_3003_10689" cx="0" cy="0" r="1" gradientUnits="userSpaceOnUse" gradientTransform="translate(6.45434 4.28706) scale(2.89105)">
<stop stop-color="#F3FAFF"/>
<stop offset="1" stop-color="#D5DAF3"/>
</radialGradient>
<linearGradient id="paint8_linear_3003_10689" x1="6.89845" y1="4.04985" x2="6.89845" y2="7.3667" gradientUnits="userSpaceOnUse">
<stop stop-color="#FFFCF8"/>
<stop offset="0.1875" stop-color="#E4F2FF"/>
<stop offset="0.4041" stop-color="#E0EAFF"/>
<stop offset="0.6353" stop-color="#C9DAFF"/>
<stop offset="0.875" stop-color="#B2CBFF"/>
<stop offset="1" stop-color="#B2CBFF"/>
</linearGradient>
<radialGradient id="paint9_radial_3003_10689" cx="0" cy="0" r="1" gradientUnits="userSpaceOnUse" gradientTransform="translate(5.98848 9.27491) scale(3.78977)">
<stop stop-color="#F3FAFF"/>
<stop offset="1" stop-color="#D5DAF3"/>
</radialGradient>
<linearGradient id="paint10_linear_3003_10689" x1="6.8965" y1="9.82986" x2="6.8965" y2="13.0935" gradientUnits="userSpaceOnUse">
<stop stop-color="#FFFCF8"/>
<stop offset="0.1875" stop-color="#E4F2FF"/>
<stop offset="0.4041" stop-color="#E0EAFF"/>
<stop offset="0.6353" stop-color="#C9DAFF"/>
<stop offset="0.875" stop-color="#B2CBFF"/>
<stop offset="1" stop-color="#B2CBFF"/>
</linearGradient>
<radialGradient id="paint11_radial_3003_10689" cx="0" cy="0" r="1" gradientUnits="userSpaceOnUse" gradientTransform="translate(14.3648 7.02335) scale(3.41016)">
<stop stop-color="#B9FF82" stop-opacity="0.42"/>
<stop offset="1" stop-color="#B9FF82"/>
</radialGradient>
<radialGradient id="paint12_radial_3003_10689" cx="0" cy="0" r="1" gradientUnits="userSpaceOnUse" gradientTransform="translate(13.7831 7.03573) scale(4.62109)">
<stop stop-color="#CEFAAA" stop-opacity="0"/>
<stop offset="0.2872" stop-color="#CEFAAA" stop-opacity="0.03"/>
<stop offset="0.4349" stop-color="#CEFAAA" stop-opacity="0.132"/>
<stop offset="0.5509" stop-color="#CEFAAA" stop-opacity="0.308"/>
<stop offset="0.6504" stop-color="#CEFAAA" stop-opacity="0.557"/>
<stop offset="0.7384" stop-color="#B9FF82" stop-opacity="0.666667"/>
<stop offset="0.766" stop-color="#B9FF82"/>
<stop offset="0.8217" stop-color="#B9FF82" stop-opacity="0.951"/>
<stop offset="0.8745" stop-color="#B9FF82" stop-opacity="0.8"/>
<stop offset="0.9261" stop-color="#B9FF82" stop-opacity="0.548"/>
<stop offset="0.9767" stop-color="#B9FF82" stop-opacity="0.198"/>
<stop offset="1" stop-color="#B9FF82" stop-opacity="0"/>
</radialGradient>
</defs>
</svg>
