<svg width="20" height="20" viewBox="0 0 20 20" fill="none" xmlns="http://www.w3.org/2000/svg">
<path d="M10 19C14.9706 19 19 14.9706 19 10C19 5.02944 14.9706 1 10 1C5.02944 1 1 5.02944 1 10C1 14.9706 5.02944 19 10 19Z" fill="url(#paint0_radial_3003_10526)"/>
<path opacity="0.1" d="M8.84325 2.54185C13.8138 2.54185 17.8433 6.57129 17.8433 11.5418C17.8433 13.2196 17.3828 14.7891 16.5834 16.1336C18.0817 14.5262 18.9999 12.3708 18.9999 10C18.9999 5.02945 14.9704 1.00005 9.99985 1.00005C6.70708 1.00001 3.82869 2.76933 2.25977 5.40817C3.90273 3.64549 6.24353 2.54185 8.84325 2.54185Z" fill="#BFDBFF"/>
<path opacity="0.1" d="M9.44937 1.85109C14.4199 1.85109 18.4493 5.88053 18.4493 10.8511C18.4493 12.4644 18.0234 13.9774 17.2796 15.2864C18.36 13.802 18.9999 11.9765 18.9999 10C18.9999 5.02945 14.9704 1.00005 9.99985 1.00005C6.70708 1.00001 3.82869 2.76933 2.25977 5.40817C2.29785 5.36725 2.33821 5.32861 2.37705 5.28849C4.02477 3.19589 6.57925 1.85109 9.44937 1.85109Z" fill="#BFDBFF"/>
<path opacity="0.2" d="M14.1949 13.4698C9.22436 13.4698 5.19492 9.44039 5.19492 4.46987C5.19492 3.69275 5.2934 2.93867 5.4786 2.21931C2.80108 3.77867 1 6.67811 1 10C1 14.9706 5.02944 19 9.99996 19C14.1934 19 17.717 16.132 18.7162 12.2506C17.3874 13.0245 15.8436 13.4698 14.1949 13.4698Z" fill="url(#paint1_linear_3003_10526)"/>
<path opacity="0.2" d="M11.4988 15.7166C6.52828 15.7166 2.49884 11.6872 2.49884 6.71664C2.49884 6.02232 2.58008 5.3474 2.72892 4.69824C1.6426 6.18548 1 8.01728 1 10C1 14.9706 5.02944 19 9.99996 19C14.2762 19 17.8533 16.0166 18.7699 12.0184C17.1329 14.2595 14.4867 15.7166 11.4988 15.7166Z" fill="url(#paint2_linear_3003_10526)"/>
<path d="M3.96964 16.6803C4.18276 16.8729 4.40516 17.0553 4.63608 17.227C4.16072 16.0998 3.89748 14.8622 3.89748 13.564C3.89748 11.8349 4.36616 10.2141 5.17992 8.81805C5.83276 9.89805 6.65328 10.8648 7.60264 11.687C6.48888 13.0079 6.14188 14.7872 6.70368 16.3845C6.9434 17.0662 7.45452 17.9943 8.54224 18.8808C8.8254 18.9269 9.11304 18.9592 9.40436 18.9782C7.98404 18.033 7.37332 16.9812 7.11292 16.2407C6.60216 14.7885 6.91956 13.1692 7.93496 11.9655C9.98432 13.6151 12.5856 14.6055 15.4151 14.6055C16.26 14.6055 17.0843 14.5166 17.8798 14.3487C17.9713 14.1832 18.0578 14.0146 18.139 13.843C17.2652 14.0562 16.3537 14.1718 15.4151 14.1718C12.6979 14.1718 10.1992 13.2237 8.22736 11.644C10.8554 8.91625 13.3917 9.41949 15.6348 9.86661C16.8387 10.1066 18.0054 10.3376 18.9985 9.94641C18.9976 9.79377 18.9931 9.64197 18.9847 9.49125C18.104 9.91489 17.0166 9.69981 15.7196 9.44129C13.4767 8.99449 10.6946 8.44277 7.89376 11.3657C6.91916 10.523 6.08748 9.52069 5.43888 8.39881C7.1292 5.81741 10.045 4.10745 13.3542 4.10745C14.8579 4.10745 16.2786 4.46341 17.5417 5.09101C17.3823 4.84661 17.2115 4.61045 17.0297 4.38333C15.893 3.92621 14.6527 3.67377 13.3542 3.67377C9.97528 3.67377 6.988 5.37793 5.20312 7.97089C4.90104 7.39297 4.64556 6.78713 4.44396 6.15713C5.35016 4.99525 5.49924 3.90893 5.6414 2.85765C5.6776 2.58961 5.71368 2.32389 5.7628 2.05933C5.59744 2.14773 5.4354 2.24117 5.27644 2.33941C5.25324 2.49325 5.23228 2.64665 5.21164 2.79957C5.08244 3.75485 4.95796 4.66301 4.2906 5.63401C4.09472 4.90337 3.96864 4.14461 3.92036 3.36505C3.78152 3.49233 3.64788 3.62501 3.51724 3.76069C3.59104 4.55137 3.74068 5.32037 3.96084 6.05953C3.31048 6.81965 2.34036 7.41933 1.27112 7.80369C1.22904 7.97149 1.19268 8.14153 1.16016 8.31289C2.3054 7.94253 3.3628 7.33309 4.11604 6.54053C4.33724 7.18193 4.60936 7.79965 4.93164 8.38669C4.0018 9.89373 3.46384 11.667 3.46384 13.5642C3.46368 14.6528 3.64316 15.6998 3.96964 16.6803Z" fill="url(#paint3_linear_3003_10526)"/>
<g opacity="0.5">
<path d="M5.2285 2.70456C5.24506 2.58244 5.26237 2.4598 5.28025 2.33704C5.27901 2.33784 5.27761 2.33848 5.27637 2.33928C5.25317 2.49312 5.23222 2.64652 5.21158 2.79944C5.17994 3.03332 5.14846 3.26444 5.10938 3.49432C5.15654 3.23312 5.19254 2.97068 5.2285 2.70456Z" fill="#F0FFE4"/>
<path d="M3.9781 5.96452C3.76454 5.2474 3.61874 4.50172 3.54278 3.73584C3.53458 3.74428 3.52578 3.75212 3.51758 3.76056C3.58938 4.53032 3.73442 5.27892 3.9451 6.00004C3.95566 5.98796 3.9677 5.97672 3.9781 5.96452Z" fill="#F0FFE4"/>
<path d="M5.45508 8.30384C5.46248 8.31664 5.4706 8.32896 5.47804 8.34168C7.17388 5.79288 10.0691 4.10744 13.3534 4.10744C14.8571 4.10744 16.2778 4.4634 17.5409 5.091C17.5076 5.03992 17.4718 4.99076 17.4374 4.9404C16.2044 4.34904 14.8269 4.01256 13.3703 4.01256C10.0612 4.01252 7.14544 5.72248 5.45508 8.30384Z" fill="#F0FFE4"/>
<path d="M4.4779 6.11136C5.14658 5.23648 5.3911 4.40416 5.5313 3.5972C5.3857 4.3886 5.12966 5.20472 4.46094 6.06216C4.46626 6.07872 4.4725 6.09484 4.4779 6.11136Z" fill="#F0FFE4"/>
<path d="M4.91316 8.35115C4.92516 8.33143 4.93644 8.31123 4.94856 8.29167C4.62628 7.70463 4.35416 7.08691 4.13296 6.44551C3.3806 7.23715 2.3248 7.84595 1.18116 8.21643C1.17472 8.24875 1.16632 8.28035 1.16016 8.31275C2.3054 7.94239 3.3628 7.33295 4.11604 6.54039C4.33284 7.16911 4.59928 7.77459 4.91316 8.35115Z" fill="#F0FFE4"/>
<path d="M17.8962 14.2538C17.1007 14.4217 16.2764 14.5106 15.4315 14.5106C12.602 14.5106 10.0007 13.5202 7.95135 11.8706C7.42795 12.491 7.09167 13.2221 6.95703 13.9836C7.10223 13.2564 7.43279 12.5601 7.93439 11.9655C9.98375 13.6151 12.585 14.6055 15.4145 14.6055C16.2594 14.6055 17.0837 14.5166 17.8793 14.3487C17.9708 14.1832 18.0572 14.0146 18.1384 13.843C18.1267 13.8458 18.1146 13.8478 18.1029 13.8506C18.0364 13.9864 17.9692 14.1218 17.8962 14.2538Z" fill="#F0FFE4"/>
<path d="M15.6515 9.77168C13.4084 9.3246 10.8722 8.82131 8.24414 11.5491C8.25858 11.5606 8.27374 11.5714 8.28818 11.5829C10.8945 8.92571 13.4089 9.42299 15.6346 9.86659C16.8385 10.1066 18.0052 10.3376 18.9983 9.94639C18.9981 9.91688 18.9961 9.88784 18.9957 9.8584C18.0067 10.239 16.8477 10.0101 15.6515 9.77168Z" fill="#F0FFE4"/>
<path d="M3.98573 16.5854C3.65929 15.6049 3.47985 14.5579 3.47985 13.4692C3.47985 12.8926 3.53025 12.3277 3.62549 11.778C3.51917 12.3574 3.46289 12.9542 3.46289 13.564C3.46289 14.6528 3.64237 15.6998 3.96885 16.6803C4.18197 16.8729 4.40437 17.0553 4.63529 17.227C4.61361 17.1756 4.59469 17.1228 4.57393 17.071C4.37133 16.9168 4.17433 16.7558 3.98573 16.5854Z" fill="#F0FFE4"/>
<path d="M8.55924 18.7859C7.47156 17.8994 6.9604 16.9713 6.72068 16.2896C6.44752 15.513 6.39092 14.6935 6.53112 13.9044C6.36872 14.7225 6.4196 15.5767 6.70372 16.3844C6.94344 17.0661 7.45456 17.9943 8.54228 18.8808C8.82544 18.9268 9.11308 18.9591 9.4044 18.9782C9.34944 18.9416 9.29784 18.9046 9.24516 18.8676C9.01424 18.8482 8.78496 18.8226 8.55924 18.7859Z" fill="#F0FFE4"/>
<path d="M7.56912 11.6564C7.58644 11.6352 7.6022 11.6131 7.61996 11.5921C6.6706 10.7699 5.85008 9.80311 5.19724 8.72311C4.67492 9.61919 4.29712 10.6086 4.0918 11.659C4.30112 10.6437 4.6736 9.68723 5.18032 8.81799C5.82528 9.88495 6.6344 10.8408 7.56912 11.6564Z" fill="#F0FFE4"/>
</g>
<g opacity="0.5">
<path d="M5.3108 8.14697C7.09568 5.55409 10.083 3.84985 13.4618 3.84985C14.7604 3.84985 16.0006 4.10237 17.1374 4.55941C17.2725 4.72833 17.3995 4.90381 17.5224 5.08237C17.5284 5.08537 17.5348 5.08793 17.5409 5.09093C17.3815 4.84653 17.2107 4.61037 17.0289 4.38325C15.8922 3.92613 14.6519 3.67369 13.3534 3.67369C9.98208 3.67369 7.00112 5.37057 5.21484 7.95373C5.24704 8.01801 5.27756 8.08333 5.3108 8.14697Z" fill="white"/>
<path d="M7.89442 11.3656C7.0497 10.6352 6.31278 9.78456 5.70898 8.84036C6.33242 9.85476 7.10618 10.7666 8.00286 11.5418C10.8038 8.61892 13.5859 9.17072 15.8287 9.61744C17.0765 9.86616 18.1297 10.073 18.9921 9.7112C18.9898 9.63792 18.9895 9.56412 18.9854 9.49124C18.1047 9.91488 17.0173 9.6998 15.7203 9.44128C13.4774 8.99444 10.6953 8.44272 7.89442 11.3656Z" fill="white"/>
<path d="M7.58203 17.1885C7.90735 17.7438 8.42371 18.3688 9.23991 18.9636C9.29503 18.9682 9.34959 18.9746 9.40495 18.9782C8.51999 18.3893 7.94951 17.7591 7.58203 17.1885Z" fill="white"/>
<path d="M8.38846 11.7676C8.37094 11.7856 8.35342 11.802 8.33594 11.8202C10.3077 13.4 12.8065 14.3479 15.5237 14.3479C16.3832 14.3479 17.2185 14.2468 18.0244 14.0668C18.0625 13.9921 18.1032 13.919 18.1391 13.843C17.2653 14.0562 16.3538 14.1718 15.4153 14.1718C12.7707 14.1717 10.3347 13.2719 8.38846 11.7676Z" fill="white"/>
<path d="M6.81238 16.5607C6.25058 14.9634 6.59754 13.184 7.71126 11.8632C7.66222 11.8207 7.61494 11.7762 7.56662 11.7329C6.48274 13.049 6.14854 14.8053 6.70394 16.3844C6.81034 16.6869 6.9705 17.0379 7.21034 17.4122C7.02934 17.104 6.90186 16.8152 6.81238 16.5607Z" fill="white"/>
<path d="M3.57133 13.7402C3.57133 11.8431 4.10929 10.0698 5.03913 8.56272C4.71685 7.97572 4.44477 7.358 4.22349 6.7166C4.21337 6.72728 4.20177 6.73716 4.19149 6.7478C4.39849 7.31472 4.64353 7.8634 4.93069 8.38652C4.00085 9.89356 3.46289 11.6668 3.46289 13.564C3.46289 14.6528 3.64237 15.6998 3.96885 16.6803C3.99269 16.7018 4.01789 16.7219 4.04201 16.7432C3.73881 15.7954 3.57133 14.7874 3.57133 13.7402Z" fill="#F0FFE4"/>
<path d="M4.39825 5.81004C5.06553 4.83904 5.19005 3.93092 5.31921 2.9756C5.33993 2.82268 5.36081 2.66936 5.38405 2.51548C5.49337 2.44792 5.60625 2.3858 5.71857 2.32284C5.73245 2.23488 5.74573 2.14684 5.76197 2.0592C5.59661 2.1476 5.43457 2.24104 5.27561 2.33928C5.25241 2.49312 5.23145 2.64652 5.21081 2.79944C5.08485 3.7306 4.96189 4.61708 4.33789 5.56052C4.35821 5.64364 4.37617 5.72764 4.39825 5.81004Z" fill="white"/>
<path d="M1.37956 7.97977C2.4488 7.59545 3.41892 6.99577 4.06928 6.23565C3.84912 5.49649 3.69944 4.72749 3.62568 3.93681C3.72848 3.83001 3.83536 3.72725 3.94308 3.62529C3.93568 3.53841 3.92576 3.45229 3.92036 3.36493C3.78152 3.49221 3.64788 3.62489 3.51724 3.76057C3.59104 4.55125 3.74068 5.32025 3.96084 6.05941C3.31048 6.81953 2.34036 7.41921 1.27112 7.80357C1.22904 7.97137 1.19268 8.14141 1.16016 8.31277C1.21376 8.29545 1.26604 8.27501 1.3192 8.25669C1.339 8.16425 1.35664 8.07101 1.37956 7.97977Z" fill="white"/>
</g>
<path opacity="0.1" d="M10.5719 10.0248C13.2469 10.0248 15.4153 8.42232 15.4153 6.44552C15.4153 4.46871 13.2469 2.8662 10.5719 2.8662C7.89698 2.8662 5.72852 4.46871 5.72852 6.44552C5.72852 8.42232 7.89698 10.0248 10.5719 10.0248Z" fill="#BFDBFF"/>
<path opacity="0.1" d="M13.2378 6.00004C13.2378 7.09112 12.0443 7.97568 10.572 7.97568C9.09977 7.97568 7.90625 7.09112 7.90625 6.00004C7.90625 4.90892 9.09977 4.0244 10.572 4.0244C12.0443 4.0244 13.2378 4.90892 13.2378 6.00004Z" fill="#BFDBFF"/>
<path opacity="0.1" d="M17.939 14.2391C17.9426 14.2321 17.9462 14.2251 17.95 14.2181C17.9646 14.1904 17.979 14.1624 17.9935 14.1346C18.0002 14.1217 18.0069 14.1088 18.0136 14.0959C18.04 14.0444 18.0665 13.993 18.0918 13.941C18.1077 13.9086 18.123 13.8758 18.1384 13.8431C18.1385 13.843 18.1385 13.843 18.1385 13.843C18.1439 13.8317 18.1487 13.8201 18.154 13.8087C18.1619 13.792 18.1699 13.7752 18.1777 13.7584C18.1823 13.7484 18.1872 13.7385 18.1918 13.7284C18.2159 13.6754 18.2394 13.6222 18.2626 13.5687C18.2834 13.5205 18.3036 13.472 18.3236 13.4234C18.3563 13.344 18.3878 13.264 18.4182 13.1836C18.4366 13.1349 18.4551 13.0863 18.4727 13.0372C18.4967 12.9704 18.5193 12.903 18.5417 12.8356C18.5441 12.8282 18.5465 12.8208 18.5489 12.8135C18.5532 12.8004 18.5574 12.7873 18.5617 12.7742C18.5754 12.7316 18.5901 12.6893 18.6033 12.6464C18.6112 12.6209 18.6188 12.5953 18.6264 12.5696C18.6325 12.5492 18.6378 12.5285 18.6436 12.508C18.6438 12.5076 18.6439 12.5072 18.644 12.5068C18.649 12.4897 18.6535 12.4725 18.6584 12.4553C18.6777 12.3871 18.698 12.3193 18.7158 12.2505C18.721 12.2304 18.7248 12.2098 18.7299 12.1896C18.7442 12.1323 18.7568 12.0743 18.77 12.0166C18.7728 12.0044 18.7756 11.9922 18.7782 11.98C18.7941 11.9093 18.8107 11.8389 18.8249 11.7675C18.8353 11.7152 18.844 11.6624 18.8535 11.6098C18.8651 11.5458 18.8772 11.482 18.8874 11.4175C18.8916 11.3905 18.8961 11.3636 18.9001 11.3365C18.9062 11.2956 18.9108 11.2542 18.9164 11.2132C18.926 11.142 18.935 11.0708 18.9429 10.9991C18.9467 10.9653 18.9513 10.9318 18.9547 10.898C18.9574 10.8698 18.9592 10.8415 18.9618 10.8133C18.9694 10.7287 18.9753 10.6436 18.9805 10.5584C18.9826 10.5229 18.9863 10.4879 18.988 10.4524C18.9887 10.4378 18.9889 10.4232 18.9896 10.4088C18.9957 10.2732 18.9995 10.137 18.9995 9.99992C18.9995 9.82908 18.9937 9.65964 18.9843 9.49116V9.49108C18.8855 7.71844 18.2728 6.08392 17.2941 4.7312C17.2938 4.73088 17.2936 4.73052 17.2934 4.7302C17.2082 4.61244 17.1202 4.49688 17.0295 4.38348C17.0294 4.38336 17.0294 4.38324 17.0292 4.38316C15.38 2.3218 12.8447 1 9.9994 1C9.81364 1 9.6298 1.00744 9.44684 1.01852C9.39264 1.0218 9.33884 1.02656 9.28492 1.03084C9.15032 1.0414 9.01668 1.05484 8.88384 1.07128C8.8306 1.07788 8.77732 1.08404 8.72444 1.09156C8.55288 1.11592 8.38252 1.14388 8.21424 1.17776C8.20756 1.17912 8.20068 1.18004 8.19396 1.1814C8.01704 1.21744 7.8426 1.26 7.66964 1.30624C7.62392 1.31848 7.57888 1.332 7.53348 1.34492C7.40176 1.38236 7.27144 1.42264 7.14228 1.46584C7.0972 1.48096 7.05204 1.49572 7.00724 1.51152C6.84432 1.56896 6.68296 1.62972 6.52448 1.69612C6.52152 1.69736 6.51848 1.6984 6.51552 1.69964C6.34836 1.76992 6.18432 1.84608 6.0224 1.92596C5.99076 1.9416 5.95968 1.9582 5.9282 1.9742C5.87272 2.00236 5.81692 2.02996 5.76216 2.05924C5.68736 2.09924 5.61396 2.14136 5.5404 2.1834C5.50764 2.20216 5.47472 2.22072 5.4422 2.23988C5.38648 2.27264 5.33076 2.30532 5.27584 2.33928L5.27576 2.33932C5.0236 2.49516 4.78 2.6632 4.54524 2.84244C4.5288 2.85496 4.51292 2.86804 4.4966 2.88064C4.36888 2.97944 4.2442 3.08176 4.12212 3.18716C4.10128 3.20516 4.08036 3.22304 4.05964 3.24124C3.78372 3.48396 3.52248 3.74268 3.27808 4.01704C3.27352 4.02216 3.2692 4.0274 3.26464 4.03256C3.26232 4.03512 3.26012 4.0378 3.25788 4.04036C3.25308 4.0458 3.24836 4.05136 3.24364 4.05688C3.13488 4.18032 3.02976 4.30696 2.9278 4.43636C2.91728 4.44968 2.9066 4.46276 2.89616 4.47612C2.88808 4.48648 2.88008 4.49688 2.872 4.50732C2.82336 4.5704 2.77524 4.63384 2.72824 4.69824V4.69816C2.72812 4.69836 2.728 4.69848 2.72792 4.6986C2.55688 4.93276 2.39708 5.1754 2.24888 5.426C2.23592 5.44788 2.2236 5.47016 2.21084 5.49216C2.2056 5.50124 2.2004 5.51024 2.1952 5.51932C2.18352 5.53964 2.1718 5.55992 2.16016 5.58024C3.944 11.2842 10.205 16.0886 17.939 14.2391Z" fill="#BFDBFF"/>
<defs>
<radialGradient id="paint0_radial_3003_10526" cx="0" cy="0" r="1" gradientUnits="userSpaceOnUse" gradientTransform="translate(10 6.92772) scale(13.1574)">
<stop stop-color="#BCD7F9"/>
<stop offset="0.7915" stop-color="#498ADE"/>
<stop offset="1" stop-color="#BCD7F9"/>
</radialGradient>
<linearGradient id="paint1_linear_3003_10526" x1="1" y1="10.6096" x2="18.7162" y2="10.6096" gradientUnits="userSpaceOnUse">
<stop stop-color="#BCD7F9"/>
<stop offset="1" stop-color="#498ADE"/>
</linearGradient>
<linearGradient id="paint2_linear_3003_10526" x1="2.23716" y1="3.0866" x2="16.948" y2="21.3758" gradientUnits="userSpaceOnUse">
<stop stop-color="#BCD7F9"/>
<stop offset="1" stop-color="#498ADE"/>
</linearGradient>
<linearGradient id="paint3_linear_3003_10526" x1="9.91312" y1="1.91869" x2="10.4011" y2="23.0091" gradientUnits="userSpaceOnUse">
<stop stop-color="#F0FFE4"/>
<stop offset="0.7915" stop-color="#53B208"/>
</linearGradient>
</defs>
</svg>
