<svg width="20" height="20" viewBox="0 0 20 20" fill="none" xmlns="http://www.w3.org/2000/svg">
<path d="M17.4176 16.066L11.4466 14.7968C11.1874 14.7417 11.0219 14.4869 11.077 14.2277L13.0786 4.81097C13.1337 4.55173 13.3885 4.38625 13.6477 4.44138L19.6187 5.71056C19.878 5.76565 20.0435 6.02046 19.9884 6.2797L17.9868 15.6964C17.9316 15.9556 17.6768 16.1211 17.4176 16.066Z" fill="url(#paint0_linear_3003_11291)"/>
<path d="M13.3851 6.98366C13.3862 6.97856 13.3899 6.96958 13.3962 6.95668L14.2009 5.50246C14.2235 5.46289 14.2615 5.43673 14.3148 5.42407C14.3681 5.41144 14.4262 5.41179 14.4891 5.42513C14.5519 5.4385 14.6052 5.46179 14.6487 5.49504C14.6923 5.5283 14.7163 5.56763 14.7209 5.61296L14.8671 7.26929C14.8676 7.28364 14.8673 7.29333 14.8662 7.29842C14.8568 7.34266 14.821 7.37501 14.7589 7.39552C14.6968 7.41606 14.6361 7.42002 14.5766 7.40736C14.5035 7.39183 14.4654 7.35799 14.4623 7.3058L14.4433 6.96872L13.9054 6.85437L13.751 7.15459C13.7269 7.20102 13.6783 7.21643 13.6053 7.2009C13.5458 7.18823 13.4919 7.15992 13.4435 7.11589C13.3952 7.07197 13.3757 7.02785 13.3851 6.98366ZM14.0521 6.56592L14.4242 6.64501L14.3834 5.92227L14.0521 6.56592Z" fill="#498ADE"/>
<path d="M13.9306 4.87771C13.6714 4.82261 13.4166 4.98809 13.3615 5.24729L11.3599 14.664C11.3526 14.6984 11.3495 14.7326 11.3496 14.7664C11.3804 14.7803 11.413 14.7913 11.4473 14.7986L17.4183 16.0678C17.6776 16.1229 17.9324 15.9574 17.9875 15.6981L19.989 6.28147C19.9963 6.24708 19.9995 6.21284 19.9994 6.17908C19.9686 6.1652 19.936 6.15418 19.9016 6.14685L13.9306 4.87771Z" fill="url(#paint1_linear_3003_11291)"/>
<path d="M19.6187 5.71216L19.4893 5.68463L17.5152 14.9719C17.4601 15.2311 17.2053 15.3966 16.9461 15.3415L11.1045 14.0998L11.077 14.2293C11.0219 14.4885 11.1874 14.7433 11.4466 14.7984L17.4176 16.0676C17.6768 16.1227 17.9316 15.9572 17.9867 15.698L19.9883 6.2813C20.0434 6.02206 19.8779 5.76725 19.6187 5.71216Z" fill="url(#paint2_linear_3003_11291)"/>
<path d="M15.7303 8.18868L14.0513 9.77211C13.9641 9.85427 13.937 9.98183 13.9832 10.0923L14.873 12.2218C14.9506 12.4073 15.1896 12.4581 15.3358 12.3202L17.0149 10.7367C17.102 10.6546 17.1291 10.527 17.083 10.4165L16.1931 8.28707C16.1156 8.10159 15.8766 8.05077 15.7303 8.18868Z" fill="url(#paint3_radial_3003_11291)"/>
<path d="M16.2824 8.50009C16.2181 8.34621 16.0229 8.2863 15.8919 8.38947C15.8851 8.39484 15.8784 8.40056 15.872 8.40668L14.3095 9.88016C14.1522 10.0285 14.1033 10.2587 14.1867 10.4582L14.9767 12.3488C15.083 12.4212 15.2328 12.4186 15.3364 12.3209L17.0155 10.7374C17.1026 10.6553 17.1297 10.5277 17.0835 10.4172L16.2824 8.50009Z" fill="url(#paint4_linear_3003_11291)"/>
<path d="M15.7838 4.89542L13.6477 4.44137C13.3885 4.38627 13.1337 4.55175 13.0786 4.81095L11.077 14.2277C11.0219 14.4869 11.1874 14.7418 11.4466 14.7969L17.4176 16.066C17.6768 16.1211 17.9316 15.9556 17.9867 15.6964L19.4939 8.60558L15.7838 4.89542Z" fill="url(#paint5_linear_3003_11291)"/>
<path d="M14.2761 15.0912L8.20513 14.4532C7.94157 14.4255 7.75037 14.1893 7.77806 13.9258L8.78435 4.35143C8.81203 4.08788 9.04817 3.89667 9.31173 3.92436L15.3827 4.56243C15.6462 4.59012 15.8374 4.82626 15.8098 5.08981L14.8035 14.6642C14.7758 14.9278 14.5396 15.119 14.2761 15.0912Z" fill="url(#paint6_linear_3003_11291)"/>
<path d="M9.31504 6.48024C9.31559 6.47507 9.3183 6.46577 9.3232 6.45228L9.97147 4.92191C9.98982 4.88018 10.0249 4.85022 10.0766 4.83207C10.1282 4.81391 10.186 4.80819 10.25 4.81493C10.3139 4.82164 10.3693 4.83928 10.4161 4.86775C10.4629 4.89626 10.4909 4.93285 10.5002 4.97747L10.8187 6.60945C10.8207 6.62368 10.8214 6.63333 10.8209 6.63851C10.8162 6.68344 10.784 6.7194 10.7244 6.7463C10.6648 6.77324 10.6047 6.78352 10.5442 6.77716C10.4699 6.76936 10.4285 6.73968 10.42 6.68811L10.3659 6.35488L9.81901 6.29739L9.69682 6.61212C9.67769 6.66078 9.63102 6.68117 9.55675 6.67337C9.49625 6.66701 9.43966 6.64447 9.38696 6.60572C9.33429 6.56702 9.3103 6.52518 9.31504 6.48024ZM9.93469 5.99506L10.3131 6.03482L10.1969 5.32031L9.93469 5.99506Z" fill="#498ADE"/>
<path d="M9.63584 4.32688C9.37229 4.2992 9.13614 4.4904 9.10846 4.75396L8.10217 14.3283C8.09848 14.3632 8.09891 14.3976 8.1026 14.4312C8.13468 14.4418 8.16824 14.4494 8.20318 14.453L14.2741 15.0911C14.5377 15.1188 14.7738 14.9276 14.8015 14.664L15.8078 5.0897C15.8115 5.05476 15.8111 5.02037 15.8074 4.9868C15.7753 4.97622 15.7418 4.96865 15.7068 4.965L9.63584 4.32688Z" fill="url(#paint7_linear_3003_11291)"/>
<path d="M15.3827 4.56255L15.2511 4.54871L14.2586 13.9914C14.2309 14.255 13.9948 14.4462 13.7312 14.4185L7.7919 13.7943L7.77806 13.9259C7.75037 14.1894 7.94157 14.4256 8.20513 14.4532L14.2761 15.0913C14.5396 15.119 14.7758 14.9278 14.8035 14.6642L15.8098 5.08993C15.8375 4.82634 15.6463 4.59023 15.3827 4.56255Z" fill="url(#paint8_linear_3003_11291)"/>
<path d="M13.0413 8.86886C13.0625 8.79839 13.0776 8.72506 13.0856 8.64922C13.1547 7.99228 12.6781 7.40377 12.0211 7.33471C11.3642 7.26566 10.7757 7.74226 10.7066 8.3992C10.6987 8.47504 10.6983 8.54989 10.7043 8.62322C10.0975 8.62036 9.57534 9.0779 9.51056 9.69429C9.4415 10.3512 9.9181 10.9397 10.575 11.0088C10.8602 11.0388 11.1323 10.9659 11.3548 10.8201C11.2617 11.0508 11.1342 11.2458 10.9914 11.3767C10.9251 11.4375 10.9313 11.6154 10.9998 11.6226L12.1286 11.7413C12.1972 11.7485 12.2402 11.5757 12.188 11.5025C12.0737 11.3422 11.983 11.1198 11.9355 10.8693C12.1241 11.0653 12.3801 11.1985 12.6717 11.2292C13.3287 11.2982 13.9172 10.8216 13.9862 10.1647C14.0511 9.54834 13.6355 8.99222 13.0413 8.86886Z" fill="url(#paint9_linear_3003_11291)"/>
<path d="M13.9823 10.1636C13.9133 10.8207 13.3247 11.2972 12.668 11.2282C12.3761 11.1976 12.1203 11.0644 11.9317 10.8682C11.9792 11.1187 12.0697 11.3413 12.1841 11.5016C12.2362 11.5748 12.1931 11.7474 12.1246 11.7402L10.996 11.6215C10.9275 11.6143 10.9212 11.4366 10.9874 11.3758C11.0477 11.3205 11.1054 11.2539 11.1584 11.1778C11.2318 11.0738 11.2971 10.9524 11.3508 10.8193C11.1286 10.965 10.8561 11.0378 10.5709 11.0078C10.5681 11.0075 10.5653 11.0072 10.5624 11.0069C10.0163 10.9457 9.61536 10.4504 9.66885 9.90345C9.66912 9.90051 9.66944 9.89757 9.66975 9.89459C9.73453 9.27823 10.2567 8.82085 10.8632 8.82367C10.8573 8.75042 10.8576 8.67552 10.8656 8.59957C10.9346 7.94282 11.5232 7.46591 12.1803 7.53497C12.1985 7.53689 12.2165 7.5392 12.2344 7.54187C12.7438 7.61873 13.1171 8.07968 13.0862 8.59392C13.0852 8.61196 13.0837 8.63004 13.0818 8.64819C13.0738 8.72415 13.0585 8.79748 13.0375 8.8679C13.1052 8.88222 13.1709 8.90198 13.2333 8.92708C13.4688 9.01954 13.6652 9.18436 13.7982 9.39128C13.9412 9.61217 14.012 9.8818 13.9823 10.1636Z" fill="url(#paint10_linear_3003_11291)"/>
<path d="M8.20513 14.454L14.2761 15.0921C14.5396 15.1198 14.7758 14.9286 14.8035 14.6651L15.4566 8.45123L11.1381 4.13279C11.1342 4.12703 11.13 4.1215 11.1258 4.11593L10.0013 3.99774L8.87728 4.11589C8.82728 4.18279 8.79368 4.26325 8.78435 4.35235L7.77806 13.9267C7.75037 14.1902 7.94157 14.4264 8.20513 14.454Z" fill="url(#paint11_linear_3003_11291)"/>
<path d="M11.7969 14.4531L5.72595 15.0913C5.4624 15.119 5.22626 14.9278 5.19857 14.6642L4.19212 5.08989C4.1644 4.82634 4.3556 4.5902 4.6192 4.56251L10.6901 3.92436C10.9537 3.89667 11.1898 4.08784 11.2175 4.35143L12.2239 13.9257C12.2517 14.1893 12.0605 14.4254 11.7969 14.4531Z" fill="url(#paint12_linear_3003_11291)"/>
<path d="M5.15252 7.06155C5.15197 7.05638 5.15268 7.04673 5.15472 7.0325L5.47062 5.40079C5.47988 5.35617 5.50795 5.31958 5.55473 5.29107C5.60152 5.26257 5.65688 5.24496 5.72084 5.23825C5.78472 5.23155 5.8426 5.23724 5.89428 5.25539C5.94596 5.27355 5.98098 5.30351 5.99937 5.34523L6.65024 6.87533C6.65514 6.88882 6.65788 6.89811 6.65843 6.90329C6.66314 6.94823 6.63914 6.99007 6.58644 7.02877C6.53373 7.06752 6.47711 7.09006 6.41668 7.09642C6.34237 7.10422 6.29567 7.08383 6.27661 7.03516L6.15442 6.72044L5.60755 6.77793L5.55348 7.11116C5.54489 7.16276 5.50348 7.19241 5.42921 7.20021C5.36871 7.20657 5.30867 7.19629 5.24907 7.16935C5.18942 7.14241 5.15727 7.10649 5.15252 7.06155ZM5.65775 6.45814L6.03616 6.41838L5.77394 5.74364L5.65775 6.45814Z" fill="#498ADE"/>
<path d="M5.01958 4.88888C4.75603 4.91661 4.56482 5.15271 4.59251 5.41626L5.59896 14.9906C5.60264 15.0255 5.61021 15.0591 5.62076 15.0912C5.65433 15.0948 5.68872 15.0953 5.72365 15.0916L11.7946 14.4534C12.0582 14.4258 12.2494 14.1896 12.2217 13.9261L11.2152 4.35174C11.2116 4.3168 11.204 4.28323 11.1934 4.25116C11.1599 4.24747 11.1255 4.24704 11.0905 4.25073L5.01958 4.88888Z" fill="url(#paint13_linear_3003_11291)"/>
<path d="M8.65866 11.5569L10.3597 9.4882C10.8442 8.89894 10.7593 8.02853 10.1701 7.54397C9.58084 7.05945 8.71038 7.14435 8.22586 7.73356L8.03972 7.95994L7.81334 7.7738C7.22408 7.28928 6.35362 7.37417 5.8691 7.96339C5.38458 8.55261 5.46948 9.42307 6.0587 9.90759L8.12736 11.6086C8.28841 11.7411 8.52627 11.7179 8.65866 11.5569Z" fill="url(#paint14_radial_3003_11291)"/>
<path d="M6.26573 10.0723L8.16259 11.6321C8.32188 11.738 8.53865 11.7082 8.66276 11.5572L10.3638 9.48858C10.823 8.93014 10.7704 8.11929 10.2621 7.6236C9.67929 7.23695 8.88679 7.34632 8.43289 7.89829L8.24675 8.12466L8.04507 7.95883L8.04382 7.96036L7.96249 7.8935C7.37535 7.46004 6.54501 7.55788 6.07613 8.12811C5.59161 8.71733 5.67651 9.58779 6.26573 10.0723Z" fill="url(#paint15_linear_3003_11291)"/>
<path d="M10.689 3.92436L10.5574 3.93821L11.55 13.3809C11.5777 13.6445 11.3865 13.8806 11.1229 13.9083L5.18359 14.5327L5.19744 14.6643C5.22516 14.9278 5.46126 15.119 5.72482 15.0913L11.7958 14.4532C12.0593 14.4255 12.2505 14.1893 12.2228 13.9258L11.2164 4.35147C11.1887 4.08784 10.9526 3.89664 10.689 3.92436Z" fill="url(#paint16_linear_3003_11291)"/>
<path d="M6.35225 4.44136L4.21097 4.89651C4.19222 4.95685 4.18508 5.02187 4.1921 5.08873L5.19855 14.663C5.22628 14.9266 5.46238 15.1178 5.72593 15.0901L11.7969 14.452C12.0604 14.4242 12.2516 14.1881 12.224 13.9246L11.7673 9.58061L6.87853 4.69177C6.7821 4.50367 6.56894 4.39528 6.35225 4.44136Z" fill="url(#paint17_linear_3003_11291)"/>
<path d="M8.55229 14.7968L2.58129 16.066C2.32205 16.1211 2.06724 15.9556 2.01215 15.6964L0.0105825 6.27969C-0.0445121 6.02045 0.120968 5.76564 0.380168 5.71055L6.35117 4.44137C6.61041 4.38627 6.86522 4.55175 6.92032 4.81095L8.92188 14.2277C8.97701 14.4869 8.81153 14.7417 8.55229 14.7968Z" fill="url(#paint18_linear_3003_11291)"/>
<path d="M1.17298 8.14145C1.17189 8.13635 1.17161 8.12667 1.17212 8.11231L1.31576 6.45649C1.32031 6.41116 1.34439 6.37179 1.38795 6.33858C1.43152 6.30533 1.48473 6.28203 1.54763 6.26866C1.61049 6.25529 1.6686 6.25494 1.72189 6.2676C1.77522 6.28027 1.81314 6.30642 1.83581 6.34599L2.64301 7.79967C2.64929 7.81257 2.65301 7.82151 2.65407 7.82661C2.66348 7.87084 2.64395 7.91495 2.5956 7.95895C2.54721 8.00299 2.4933 8.03134 2.43385 8.04397C2.36076 8.05949 2.31217 8.04408 2.28813 7.99769L2.13371 7.69748L1.59582 7.81182L1.57688 8.1489C1.57374 8.20109 1.53563 8.23493 1.46257 8.25046C1.40305 8.26313 1.34227 8.25917 1.28019 8.23862C1.21812 8.21803 1.1824 8.18564 1.17298 8.14145ZM1.61237 7.48851L1.98454 7.40942L1.65323 6.76577L1.61237 7.48851Z" fill="url(#paint19_linear_3003_11291)"/>
<path d="M0.811847 5.99318C0.552608 6.04827 0.387128 6.30308 0.442223 6.56232L2.44383 15.979C2.45112 16.0134 2.46218 16.046 2.47602 16.0768C2.50978 16.0769 2.54402 16.0737 2.57841 16.0664L8.54941 14.7973C8.80865 14.7422 8.97413 14.4874 8.919 14.2281L6.91743 4.81145C6.91014 4.77706 6.89908 4.74447 6.88524 4.71369C6.85148 4.71353 6.8172 4.71671 6.78285 4.724L0.811847 5.99318Z" fill="url(#paint20_linear_3003_11291)"/>
<path d="M6.35284 4.44137L6.2234 4.4689L8.19748 13.7561C8.25257 14.0154 8.08709 14.2702 7.82789 14.3253L1.98633 15.5669L2.01386 15.6964C2.06895 15.9556 2.32376 16.1211 2.583 16.066L8.554 14.7968C8.81324 14.7417 8.97872 14.4869 8.92359 14.2276L6.92203 4.81095C6.86689 4.55175 6.61208 4.38627 6.35284 4.44137Z" fill="url(#paint21_linear_3003_11291)"/>
<path d="M6.22259 9.43012L4.24272 8.16545C4.08861 8.06703 3.88387 8.11212 3.78545 8.26623L2.52078 10.2461C2.16053 10.8101 2.3257 11.5592 2.88962 11.9195C3.39994 12.2455 4.06186 12.1412 4.45011 11.7006C4.42757 11.9237 4.36933 12.1252 4.28212 12.2795C4.23789 12.3577 4.29871 12.525 4.36616 12.5107L5.4764 12.2747C5.54385 12.2604 5.53134 12.0828 5.45911 12.0293C5.30987 11.9188 5.16356 11.7491 5.04459 11.5427C5.58957 11.806 6.25757 11.6263 6.59147 11.1035C6.95169 10.5395 6.78656 9.79037 6.22259 9.43012Z" fill="url(#paint22_linear_3003_11291)"/>
<path d="M6.75293 10.2006C6.81677 10.501 6.76732 10.8258 6.58894 11.1049C6.25492 11.6275 5.58685 11.8072 5.04198 11.5441C5.10158 11.6473 5.16773 11.7413 5.23789 11.8233C5.30804 11.9054 5.38215 11.9754 5.45662 12.0307C5.52877 12.0843 5.54108 12.2617 5.47375 12.276L4.3637 12.5119C4.29634 12.5262 4.23544 12.3591 4.27959 12.2809C4.31234 12.2232 4.341 12.159 4.36539 12.0892L4.36531 12.0888C4.40562 11.9726 4.43354 11.8416 4.44774 11.702C4.27206 11.9017 4.03976 12.0322 3.79131 12.085C3.5285 12.1409 3.24726 12.1099 2.99383 11.9818C2.993 11.9816 2.99265 11.9817 2.99293 11.9812C2.5199 11.5982 2.40053 10.9134 2.73561 10.3887L4.00008 8.40879C4.09851 8.25476 4.30312 8.20935 4.45754 8.3077L6.27637 9.46983C6.5293 9.6515 6.69231 9.91537 6.75293 10.2006Z" fill="url(#paint23_linear_3003_11291)"/>
<defs>
<linearGradient id="paint0_linear_3003_11291" x1="14.8924" y1="9.27215" x2="22.465" y2="20.9359" gradientUnits="userSpaceOnUse">
<stop stop-color="#E4F2FF"/>
<stop offset="1" stop-color="#B2CBFF"/>
</linearGradient>
<linearGradient id="paint1_linear_3003_11291" x1="15.7097" y1="10.5147" x2="10.2393" y2="4.52265" gradientUnits="userSpaceOnUse">
<stop stop-color="white" stop-opacity="0"/>
<stop offset="1" stop-color="white"/>
</linearGradient>
<linearGradient id="paint2_linear_3003_11291" x1="17.6938" y1="11.0745" x2="32.2999" y2="7.70485" gradientUnits="userSpaceOnUse">
<stop stop-color="#3F3CED" stop-opacity="0"/>
<stop offset="0.2796" stop-color="#3C3DE4" stop-opacity="0.28"/>
<stop offset="0.7305" stop-color="#3541CC" stop-opacity="0.731"/>
<stop offset="1" stop-color="#2F43BB"/>
</linearGradient>
<radialGradient id="paint3_radial_3003_11291" cx="0" cy="0" r="1" gradientUnits="userSpaceOnUse" gradientTransform="translate(14.6715 8.61296) rotate(-9.30889) scale(2.55996 3.94124)">
<stop stop-color="#CCF6AB"/>
<stop offset="0.474" stop-color="#C4F89B"/>
<stop offset="0.6447" stop-color="#C7FD9D"/>
<stop offset="0.7665" stop-color="#B7F884"/>
<stop offset="0.8649" stop-color="#A3F662"/>
<stop offset="0.9481" stop-color="#95EE4F"/>
<stop offset="1" stop-color="#8FEF44"/>
</radialGradient>
<linearGradient id="paint4_linear_3003_11291" x1="15.7054" y1="9.87995" x2="12.9124" y2="6.72141" gradientUnits="userSpaceOnUse">
<stop stop-color="#FFD9A9" stop-opacity="0"/>
<stop offset="1" stop-color="#FCDBCB"/>
</linearGradient>
<linearGradient id="paint5_linear_3003_11291" x1="17.1386" y1="10.7839" x2="11.4369" y2="9.26692" gradientUnits="userSpaceOnUse">
<stop stop-color="#498ADE" stop-opacity="0"/>
<stop offset="0.2796" stop-color="#498ADE" stop-opacity="0.28"/>
<stop offset="0.7305" stop-color="#498ADE" stop-opacity="0.731"/>
<stop offset="1" stop-color="#498ADE"/>
</linearGradient>
<linearGradient id="paint6_linear_3003_11291" x1="11.0581" y1="8.60786" x2="19.8106" y2="19.4255" gradientUnits="userSpaceOnUse">
<stop stop-color="#E4F2FF"/>
<stop offset="1" stop-color="#B2CBFF"/>
</linearGradient>
<linearGradient id="paint7_linear_3003_11291" x1="11.9981" y1="9.75735" x2="5.92918" y2="4.36476" gradientUnits="userSpaceOnUse">
<stop stop-color="white" stop-opacity="0"/>
<stop offset="1" stop-color="white"/>
</linearGradient>
<linearGradient id="paint8_linear_3003_11291" x1="14.0339" y1="10.1079" x2="28.2182" y2="5.23114" gradientUnits="userSpaceOnUse">
<stop stop-color="#3F3CED" stop-opacity="0"/>
<stop offset="0.2796" stop-color="#3C3DE4" stop-opacity="0.28"/>
<stop offset="0.7305" stop-color="#3541CC" stop-opacity="0.731"/>
<stop offset="1" stop-color="#2F43BB"/>
</linearGradient>
<linearGradient id="paint9_linear_3003_11291" x1="10.7309" y1="9.11296" x2="12.873" y2="10.7778" gradientUnits="userSpaceOnUse">
<stop stop-color="#E0EDFF"/>
<stop offset="0.3003" stop-color="#CEE3FF"/>
<stop offset="0.6716" stop-color="#BFDBFF"/>
<stop offset="1" stop-color="#498ADE"/>
</linearGradient>
<linearGradient id="paint10_linear_3003_11291" x1="11.5782" y1="7.83732" x2="11.8113" y2="11.9113" gradientUnits="userSpaceOnUse">
<stop stop-color="#498ADE" stop-opacity="0"/>
<stop offset="1" stop-color="#498ADE"/>
</linearGradient>
<linearGradient id="paint11_linear_3003_11291" x1="13.3492" y1="9.54152" x2="8.2452" y2="9.56195" gradientUnits="userSpaceOnUse">
<stop stop-color="#498ADE" stop-opacity="0"/>
<stop offset="0.2796" stop-color="#498ADE" stop-opacity="0.28"/>
<stop offset="0.7305" stop-color="#498ADE" stop-opacity="0.731"/>
<stop offset="1" stop-color="#498ADE"/>
</linearGradient>
<linearGradient id="paint12_linear_3003_11291" x1="7.30628" y1="8.77163" x2="18.1241" y2="17.5242" gradientUnits="userSpaceOnUse">
<stop stop-color="#E4F2FF"/>
<stop offset="1" stop-color="#B2CBFF"/>
</linearGradient>
<linearGradient id="paint13_linear_3003_11291" x1="8.46522" y1="9.69964" x2="1.40425" y2="5.6925" gradientUnits="userSpaceOnUse">
<stop stop-color="white" stop-opacity="0"/>
<stop offset="1" stop-color="white"/>
</linearGradient>
<radialGradient id="paint14_radial_3003_11291" cx="0" cy="0" r="1" gradientUnits="userSpaceOnUse" gradientTransform="translate(6.71159 7.75299) rotate(-5.98399) scale(4.13567)">
<stop stop-color="#CCF6AB"/>
<stop offset="0.474" stop-color="#C4F89B"/>
<stop offset="0.6447" stop-color="#C7FD9D"/>
<stop offset="0.7665" stop-color="#B7F884"/>
<stop offset="0.8649" stop-color="#A3F662"/>
<stop offset="0.9481" stop-color="#95EE4F"/>
<stop offset="1" stop-color="#8FEF44"/>
</radialGradient>
<linearGradient id="paint15_linear_3003_11291" x1="8.3516" y1="9.02714" x2="5.80191" y2="4.50389" gradientUnits="userSpaceOnUse">
<stop stop-color="#FFD9A9" stop-opacity="0"/>
<stop offset="1" stop-color="#FCDBCB"/>
</linearGradient>
<linearGradient id="paint16_linear_3003_11291" x1="10.5283" y1="9.6173" x2="23.3818" y2="1.88756" gradientUnits="userSpaceOnUse">
<stop stop-color="#3F3CED" stop-opacity="0"/>
<stop offset="0.2796" stop-color="#3C3DE4" stop-opacity="0.28"/>
<stop offset="0.7305" stop-color="#3541CC" stop-opacity="0.731"/>
<stop offset="1" stop-color="#2F43BB"/>
</linearGradient>
<linearGradient id="paint17_linear_3003_11291" x1="9.37696" y1="9.40941" x2="5.78687" y2="9.83969" gradientUnits="userSpaceOnUse">
<stop stop-color="#498ADE" stop-opacity="0"/>
<stop offset="0.2796" stop-color="#498ADE" stop-opacity="0.28"/>
<stop offset="0.7305" stop-color="#498ADE" stop-opacity="0.731"/>
<stop offset="1" stop-color="#498ADE"/>
</linearGradient>
<linearGradient id="paint18_linear_3003_11291" x1="3.48502" y1="9.6146" x2="15.1488" y2="17.1872" gradientUnits="userSpaceOnUse">
<stop stop-color="#E4F2FF"/>
<stop offset="1" stop-color="#B2CBFF"/>
</linearGradient>
<linearGradient id="paint19_linear_3003_11291" x1="1.82889" y1="6.40503" x2="1.98145" y2="8.33311" gradientUnits="userSpaceOnUse">
<stop stop-color="#498ADE" stop-opacity="0"/>
<stop offset="1" stop-color="#498ADE"/>
</linearGradient>
<linearGradient id="paint20_linear_3003_11291" x1="4.73289" y1="10.4162" x2="-2.7025" y2="7.16883" gradientUnits="userSpaceOnUse">
<stop stop-color="white" stop-opacity="0"/>
<stop offset="1" stop-color="white"/>
</linearGradient>
<linearGradient id="paint21_linear_3003_11291" x1="6.77843" y1="10.1194" x2="18.749" y2="1.09752" gradientUnits="userSpaceOnUse">
<stop stop-color="#3F3CED" stop-opacity="0"/>
<stop offset="0.2796" stop-color="#3C3DE4" stop-opacity="0.28"/>
<stop offset="0.7305" stop-color="#3541CC" stop-opacity="0.731"/>
<stop offset="1" stop-color="#2F43BB"/>
</linearGradient>
<linearGradient id="paint22_linear_3003_11291" x1="3.54701" y1="9.8921" x2="5.67914" y2="11.5413" gradientUnits="userSpaceOnUse">
<stop stop-color="#E0EDFF"/>
<stop offset="0.3003" stop-color="#CEE3FF"/>
<stop offset="0.6716" stop-color="#BFDBFF"/>
<stop offset="1" stop-color="#498ADE"/>
</linearGradient>
<linearGradient id="paint23_linear_3003_11291" x1="4.41911" y1="8.56804" x2="4.66225" y2="12.6847" gradientUnits="userSpaceOnUse">
<stop stop-color="#498ADE" stop-opacity="0"/>
<stop offset="1" stop-color="#498ADE"/>
</linearGradient>
</defs>
</svg>
