<svg width="20" height="20" viewBox="0 0 20 20" fill="none" xmlns="http://www.w3.org/2000/svg">
<g clip-path="url(#clip0_3003_10588)">
<path d="M17.01 10.0967C17.01 10.9021 16.8873 11.6793 16.6587 12.4094C16.634 12.4909 16.6073 12.5714 16.5787 12.6515C16.4885 12.9125 16.3837 13.1667 16.2663 13.4141C16.1678 13.6228 16.0601 13.826 15.9432 14.0235C15.7104 14.4198 15.4435 14.7934 15.1456 15.1403C14.8342 15.5036 14.4897 15.8379 14.1171 16.1387C12.7873 17.2094 11.0966 17.8508 9.25598 17.8508C4.97363 17.8508 1.50195 14.3791 1.50195 10.0967C1.50195 5.81439 4.97356 2.34271 9.25594 2.34271C13.5383 2.34271 17.01 5.81439 17.01 10.0967Z" fill="url(#paint0_linear_3003_10588)"/>
<path d="M9.25602 4.84348C8.95176 4.84348 8.70508 9.2416 8.70508 9.54586C8.70508 9.73973 8.80547 9.90992 8.95687 10.0081L14.6325 15.6837C15.59 14.7621 16.3109 13.5967 16.6958 12.2873C15.4284 11.0291 9.25602 4.84348 9.25602 4.84348Z" fill="url(#paint1_linear_3003_10588)"/>
<path d="M9.25656 10.5351C9.49858 10.5351 9.69477 10.3389 9.69477 10.0969C9.69477 9.85485 9.49858 9.65866 9.25656 9.65866C9.01455 9.65866 8.81836 9.85485 8.81836 10.0969C8.81836 10.3389 9.01455 10.5351 9.25656 10.5351Z" fill="url(#paint2_linear_3003_10588)"/>
<path d="M9.25715 3.93832C9.20395 3.93832 9.15578 3.95989 9.1209 3.99477C9.08605 4.02961 9.06445 4.07778 9.06445 4.13102V5.54379C9.06445 5.58368 9.07656 5.62075 9.09734 5.65149C9.11117 5.672 9.12887 5.68969 9.14938 5.70352C9.15961 5.71047 9.17059 5.71641 9.18211 5.72129C9.20516 5.73102 9.23051 5.73645 9.25707 5.73645C9.31027 5.73645 9.35844 5.71489 9.39332 5.68C9.42816 5.64512 9.44977 5.597 9.44977 5.54375V4.13098C9.44981 4.02457 9.36352 3.93832 9.25715 3.93832Z" fill="url(#paint3_linear_3003_10588)"/>
<path d="M9.25711 14.4572C9.1507 14.4572 9.06445 14.5434 9.06445 14.6498V16.0626C9.06445 16.0809 9.06781 16.0983 9.07262 16.1151C9.09559 16.1958 9.16906 16.2552 9.25707 16.2552C9.28367 16.2552 9.30902 16.2498 9.33203 16.2401C9.40117 16.2108 9.44973 16.1423 9.44973 16.0625V14.6498C9.44977 14.5434 9.36348 14.4572 9.25711 14.4572Z" fill="url(#paint4_linear_3003_10588)"/>
<path d="M15.2226 9.90414H13.8098C13.7034 9.90414 13.6172 9.99039 13.6172 10.0968C13.6172 10.2032 13.7034 10.2895 13.8098 10.2895H15.2226C15.329 10.2895 15.4153 10.2032 15.4153 10.0968C15.4153 9.99039 15.329 9.90414 15.2226 9.90414Z" fill="url(#paint5_linear_3003_10588)"/>
<path d="M4.89582 10.0967C4.89582 10.0569 4.88371 10.0197 4.86293 9.989C4.8491 9.9685 4.83141 9.9508 4.8109 9.93697C4.78016 9.91619 4.74309 9.90408 4.70316 9.90408H3.29035C3.23715 9.90408 3.18898 9.92565 3.1541 9.96053C3.11926 9.99541 3.09766 10.0435 3.09766 10.0968C3.09766 10.2032 3.18391 10.2894 3.29031 10.2894H4.70309C4.75629 10.2894 4.80445 10.2679 4.83934 10.233C4.87422 10.1981 4.89582 10.15 4.89582 10.0967Z" fill="url(#paint6_linear_3003_10588)"/>
<path d="M12.6121 7.01349L13.6111 6.01451C13.6863 5.93927 13.6863 5.81728 13.6111 5.74205C13.5359 5.66677 13.4139 5.66681 13.3386 5.74205L12.3397 6.74103C12.2644 6.81631 12.2644 6.93826 12.3397 7.01349C12.4149 7.08873 12.5369 7.08873 12.6121 7.01349Z" fill="url(#paint7_linear_3003_10588)"/>
<path d="M6.17337 13.18C6.09813 13.1048 5.97614 13.1048 5.90091 13.18L4.90192 14.179C4.83704 14.2439 4.82845 14.3434 4.87548 14.4179C4.88145 14.4274 4.8886 14.4362 4.89638 14.4447C4.89837 14.4469 4.89977 14.4494 4.90192 14.4515C4.93864 14.4882 4.98649 14.5067 5.03462 14.5076C5.03579 14.5076 5.03696 14.508 5.03813 14.508C5.08743 14.508 5.13673 14.4891 5.17438 14.4515L6.17337 13.4525C6.20157 13.4243 6.21923 13.3896 6.22626 13.3531C6.2286 13.341 6.22977 13.3287 6.22977 13.3163C6.22981 13.2669 6.21102 13.2176 6.17337 13.18Z" fill="url(#paint8_linear_3003_10588)"/>
<path d="M13.6111 14.179L12.6121 13.18C12.5886 13.1565 12.5603 13.1412 12.5305 13.1324C12.5019 13.1239 12.4719 13.1216 12.4426 13.1267C12.4049 13.1333 12.3688 13.1508 12.3397 13.1799C12.2644 13.2552 12.2644 13.3771 12.3397 13.4524L13.3386 14.4514C13.3499 14.4626 13.3625 14.4717 13.3756 14.4796C13.4496 14.5243 13.5472 14.5153 13.6111 14.4514C13.6418 14.4207 13.6593 14.3821 13.6649 14.3423C13.6731 14.2844 13.6556 14.2236 13.6111 14.179Z" fill="url(#paint9_linear_3003_10588)"/>
<path d="M5.17461 5.74211C5.13699 5.7045 5.08766 5.68567 5.03836 5.68567C5.02605 5.68567 5.01371 5.68684 5.00156 5.68918C4.96512 5.69625 4.93035 5.71383 4.90215 5.74208C4.86453 5.77969 4.8457 5.82903 4.8457 5.87832C4.8457 5.89063 4.84688 5.90297 4.84922 5.91512C4.85629 5.95157 4.87387 5.98633 4.90211 6.01454L5.90109 7.01352C5.90281 7.01524 5.90484 7.01637 5.90664 7.01801C5.92422 7.03434 5.94379 7.04727 5.96484 7.05583C5.98801 7.06524 6.0127 7.06993 6.03734 7.06993C6.08664 7.06993 6.13598 7.0511 6.17359 7.01348C6.2018 6.98528 6.21945 6.95047 6.22648 6.91407C6.22883 6.90192 6.23 6.88961 6.23 6.87727C6.23 6.82797 6.21117 6.77864 6.17355 6.74102L5.17461 5.74211Z" fill="url(#paint10_linear_3003_10588)"/>
<path d="M16.2665 13.4142C16.168 13.6228 16.0603 13.826 15.9434 14.0235C15.7106 14.4199 15.4437 14.7934 15.1459 15.1403C14.8344 15.5036 14.4899 15.8379 14.1173 16.1387L8.66234 10.6906C8.33391 10.3626 8.33391 9.83091 8.66234 9.50295C8.67687 9.48841 8.69145 9.47478 8.70695 9.4617C9.02129 9.1881 9.49094 9.1881 9.80531 9.4617C9.82086 9.47478 9.83539 9.48838 9.84992 9.50295C9.86445 9.51748 9.87902 9.53302 9.89164 9.54857H9.89211C9.9018 9.54904 9.91152 9.54955 9.92219 9.55002C9.94062 9.55146 9.96102 9.55244 9.98281 9.55388C10.0973 9.56115 10.254 9.5733 10.4359 9.58978C10.4903 9.59463 10.547 9.59998 10.6057 9.6058C10.6479 9.61013 10.6911 9.61404 10.7353 9.61888C10.7727 9.62275 10.8105 9.62666 10.8493 9.63052C10.8774 9.63341 10.906 9.63685 10.9346 9.63974C10.9803 9.64459 11.0259 9.64994 11.072 9.65529C11.2913 9.68052 11.5183 9.70912 11.7351 9.74119C11.7647 9.74552 11.7943 9.74994 11.8234 9.75474C11.8278 9.75521 11.8327 9.75572 11.837 9.7567C11.8709 9.76205 11.9045 9.76736 11.9374 9.77224C11.9704 9.77806 12.0029 9.78341 12.035 9.78873C12.0563 9.79259 12.0777 9.79603 12.099 9.7999C12.1315 9.80572 12.164 9.81154 12.196 9.81787C12.212 9.82076 12.228 9.82369 12.2436 9.82662C12.2765 9.83341 12.308 9.8397 12.3391 9.84603C12.3488 9.84798 12.3581 9.8499 12.3673 9.85185C12.3799 9.85474 12.3925 9.85771 12.4047 9.86009C12.4105 9.86107 12.4163 9.86252 12.4221 9.86396C12.4401 9.8683 12.458 9.8722 12.475 9.87607C12.4871 9.87896 12.4988 9.88193 12.5099 9.88431C12.555 9.89595 12.5973 9.90709 12.637 9.91826C12.6463 9.92115 12.6555 9.92408 12.6642 9.9265C12.6715 9.92845 12.6783 9.93084 12.6851 9.93283C12.6953 9.93623 12.705 9.93963 12.7147 9.94256C12.7181 9.94353 12.7215 9.94447 12.7249 9.94595C12.7443 9.95275 12.7623 9.95904 12.7792 9.96584C12.7807 9.96631 12.7821 9.96728 12.7841 9.96775C12.7933 9.97162 12.8025 9.97552 12.8113 9.97892C12.8321 9.98814 12.8505 9.99689 12.8671 10.0061C12.8744 10.0104 12.8806 10.0144 12.887 10.0182C12.9073 10.0313 12.9229 10.0444 12.933 10.0575C12.9364 10.0609 12.9389 10.0648 12.9408 10.0682C12.9413 10.0692 12.9418 10.0696 12.9418 10.0701C12.9442 10.0745 12.9461 10.0789 12.9471 10.0837C12.9486 10.088 12.9491 10.0924 12.9491 10.0968L16.2665 13.4142Z" fill="url(#paint11_linear_3003_10588)"/>
<path d="M9.8068 10.6477C9.50254 10.6477 9.25586 10.401 9.25586 10.0967C9.25586 9.79249 9.50254 9.54581 9.8068 9.54581C10.1111 9.54581 12.9486 9.79249 12.9486 10.0967C12.9486 10.401 10.1111 10.6477 9.8068 10.6477Z" fill="url(#paint12_linear_3003_10588)"/>
<path d="M9.80695 9.5458C9.80695 9.85005 9.56027 10.0967 9.25602 10.0967C8.95176 10.0967 8.70508 9.85005 8.70508 9.5458C8.70508 9.24154 8.95176 4.84341 9.25602 4.84341C9.56027 4.84345 9.80695 9.24154 9.80695 9.5458Z" fill="url(#paint13_linear_3003_10588)"/>
<path d="M9.25602 10.9369C9.71993 10.9369 10.096 10.5608 10.096 10.0969C10.096 9.63295 9.71993 9.25687 9.25602 9.25687C8.7921 9.25687 8.41602 9.63295 8.41602 10.0969C8.41602 10.5608 8.7921 10.9369 9.25602 10.9369Z" fill="url(#paint14_linear_3003_10588)"/>
<path d="M8.87047 16.7441C8.63129 17.0589 8.51172 17.381 8.51172 17.7105V17.8151C8.7566 17.8384 9.00473 17.8508 9.25578 17.8508C11.0964 17.8508 12.7871 17.2094 14.1169 16.1387C14.4895 15.838 14.834 15.5037 15.1454 15.1403C15.2713 14.9938 15.3912 14.8423 15.5057 14.6866L12.5524 11.7354C12.0943 11.3269 11.539 11.1227 10.8866 11.1227C10.2709 11.1227 9.74129 11.3041 9.29789 11.6669C8.85434 12.0297 8.6327 12.497 8.6327 13.0687C8.6327 13.3518 8.70859 13.5416 8.8593 13.6394L10.5325 15.321L9.75418 15.8876C9.40426 16.1439 9.10961 16.4294 8.87047 16.7441Z" fill="url(#paint15_linear_3003_10588)"/>
<path d="M8.51172 18.7757V17.7105C8.51172 17.381 8.63129 17.0589 8.87047 16.7441C9.10957 16.4294 9.40422 16.1439 9.75418 15.8876L10.8097 15.1193C11.1616 14.8633 11.4601 14.5816 11.7058 14.2742C11.9513 13.9671 12.0741 13.6597 12.0741 13.3523C12.0741 13.0452 11.9733 12.7763 11.7718 12.5457C11.5701 12.3154 11.2752 12.2001 10.8867 12.2001C10.5568 12.2001 10.2892 12.2912 10.0841 12.473C9.87875 12.655 9.77621 12.9242 9.77621 13.2807C9.77621 13.3972 9.71934 13.4992 9.60578 13.5865C9.49211 13.6738 9.34363 13.7175 9.16047 13.7175C8.80863 13.7175 8.63273 13.5013 8.63273 13.0687C8.63273 12.497 8.85437 12.0297 9.29793 11.6669C9.74133 11.3041 10.2709 11.1227 10.8867 11.1227C11.539 11.1227 12.0943 11.3268 12.5525 11.7354C13.0104 12.1439 13.2396 12.6718 13.2396 13.3195C13.2396 13.7586 13.1168 14.1701 12.8713 14.5542C12.6256 14.9383 12.3288 15.2639 11.9807 15.5309C11.6325 15.798 11.2843 16.0503 10.9362 16.2881C10.588 16.5259 10.2912 16.7655 10.0456 17.0069C9.79992 17.2485 9.6773 17.4826 9.6773 17.7094V18.1264H12.9098C13.0124 18.1264 13.1022 18.1759 13.1792 18.2748C13.2562 18.3738 13.2947 18.493 13.2947 18.6322C13.2947 18.7715 13.2564 18.8943 13.1799 19.0005C13.1035 19.1069 13.0143 19.16 12.9124 19.16H9.02496C8.90848 19.16 8.79371 19.1234 8.68105 19.0502C8.56809 18.977 8.51172 18.8856 8.51172 18.7757Z" fill="url(#paint16_linear_3003_10588)"/>
<path d="M13.3379 16.9212C13.3379 16.8408 13.3599 16.7603 13.4039 16.6797L16.0647 11.4411C16.1746 11.2288 16.3432 11.1227 16.5705 11.1227C16.695 11.1227 16.8234 11.1666 16.9553 11.2546C17.0872 11.3426 17.1532 11.4489 17.1532 11.5735C17.1532 11.6174 17.1348 11.6762 17.0982 11.7494L14.8332 16.2683H16.4495V14.7423C16.4495 14.4842 16.6436 14.3552 17.0322 14.3552C17.1934 14.3552 17.3308 14.3885 17.4445 14.4548C17.5581 14.5212 17.615 14.617 17.615 14.7423V16.2683H18.1537C18.2782 16.2683 18.3753 16.3228 18.445 16.4317C18.5146 16.5406 18.5495 16.6676 18.5495 16.8126C18.5495 16.9431 18.5091 17.0648 18.4285 17.1771C18.3478 17.2896 18.2562 17.3458 18.1537 17.3458H17.6149V18.7727C17.6149 18.8909 17.5562 18.9849 17.439 19.055C17.3216 19.1251 17.1861 19.16 17.0321 19.16C16.8709 19.16 16.7334 19.1251 16.6198 19.055C16.5061 18.9849 16.4494 18.8909 16.4494 18.7727V17.3458H13.7447C13.6273 17.3458 13.5303 17.3078 13.4534 17.2316C13.3764 17.1553 13.3379 17.0518 13.3379 16.9212Z" fill="url(#paint17_linear_3003_10588)"/>
<path d="M19.348 8.76928H18.4591H18.4179C17.772 4.29178 13.9102 0.840057 9.25676 0.840057C4.15254 0.840057 0 4.99256 0 10.0967C0 12.2029 0.726445 14.2642 2.04551 15.9011C3.34469 17.5133 5.16539 18.6556 7.17219 19.1176C7.22711 19.1303 7.28199 19.1363 7.33609 19.1363C7.66746 19.1363 7.96707 18.9085 8.04461 18.5718C8.13477 18.1801 7.89039 17.7895 7.49867 17.6994C5.80836 17.3102 4.27422 16.3472 3.17875 14.9879C2.05133 13.5889 1.45543 11.8976 1.45543 10.0968C1.45543 5.79514 4.95508 2.29553 9.25676 2.29553C13.106 2.29553 16.3125 5.09779 16.9446 8.76932H16.177C15.5972 8.76932 15.3069 9.47021 15.7168 9.8801L17.3024 11.4656C17.5565 11.7197 17.9685 11.7197 18.2226 11.4656L19.8082 9.8801C20.218 9.47017 19.9277 8.76928 19.348 8.76928Z" fill="url(#paint18_linear_3003_10588)"/>
</g>
<defs>
<linearGradient id="paint0_linear_3003_10588" x1="9.25601" y1="7.44217" x2="9.25601" y2="16.943" gradientUnits="userSpaceOnUse">
<stop stop-color="#FFFCF8"/>
<stop offset="0.1875" stop-color="#E4F2FF"/>
<stop offset="0.4041" stop-color="#E0EAFF"/>
<stop offset="0.6353" stop-color="#C9DAFF"/>
<stop offset="0.875" stop-color="#B2CBFF"/>
<stop offset="1" stop-color="#B2CBFF"/>
</linearGradient>
<linearGradient id="paint1_linear_3003_10588" x1="12.3954" y1="10.3145" x2="4.075" y2="9.38042" gradientUnits="userSpaceOnUse">
<stop stop-color="#498ADE" stop-opacity="0"/>
<stop offset="0.267" stop-color="#498ADE" stop-opacity="0.267"/>
<stop offset="0.542" stop-color="#498ADE" stop-opacity="0.392157"/>
<stop offset="0.794" stop-color="#498ADE" stop-opacity="0.794"/>
<stop offset="1" stop-color="#498ADE"/>
</linearGradient>
<linearGradient id="paint2_linear_3003_10588" x1="9.25635" y1="9.88259" x2="9.25635" y2="11.1904" gradientUnits="userSpaceOnUse">
<stop stop-color="#B9FF82"/>
<stop offset="1" stop-color="#53B208"/>
</linearGradient>
<linearGradient id="paint3_linear_3003_10588" x1="9.41154" y1="5.55808" x2="8.77158" y2="5.42094" gradientUnits="userSpaceOnUse">
<stop stop-color="#B9FF82"/>
<stop offset="1" stop-color="#53B208"/>
</linearGradient>
<linearGradient id="paint4_linear_3003_10588" x1="9.41151" y1="16.0769" x2="8.77161" y2="15.9398" gradientUnits="userSpaceOnUse">
<stop stop-color="#B9FF82"/>
<stop offset="1" stop-color="#53B208"/>
</linearGradient>
<linearGradient id="paint5_linear_3003_10588" x1="15.2369" y1="10.2512" x2="15.0998" y2="9.61127" gradientUnits="userSpaceOnUse">
<stop stop-color="#B9FF82"/>
<stop offset="1" stop-color="#53B208"/>
</linearGradient>
<linearGradient id="paint6_linear_3003_10588" x1="4.71745" y1="10.2512" x2="4.58029" y2="9.61119" gradientUnits="userSpaceOnUse">
<stop stop-color="#B9FF82"/>
<stop offset="1" stop-color="#53B208"/>
</linearGradient>
<linearGradient id="paint7_linear_3003_10588" x1="13.5302" y1="6.9326" x2="12.3278" y2="5.7302" gradientUnits="userSpaceOnUse">
<stop stop-color="#B9FF82"/>
<stop offset="1" stop-color="#53B208"/>
</linearGradient>
<linearGradient id="paint8_linear_3003_10588" x1="6.09248" y1="14.3706" x2="4.89006" y2="13.1685" gradientUnits="userSpaceOnUse">
<stop stop-color="#B9FF82"/>
<stop offset="1" stop-color="#53B208"/>
</linearGradient>
<linearGradient id="paint9_linear_3003_10588" x1="10.5466" y1="11.6847" x2="11.9301" y2="12.8988" gradientUnits="userSpaceOnUse">
<stop stop-color="#B9FF82" stop-opacity="0.666667"/>
<stop offset="1" stop-color="#B9FF82"/>
</linearGradient>
<linearGradient id="paint10_linear_3003_10588" x1="6.09268" y1="6.93261" x2="4.89035" y2="5.73024" gradientUnits="userSpaceOnUse">
<stop stop-color="#B9FF82"/>
<stop offset="1" stop-color="#53B208"/>
</linearGradient>
<linearGradient id="paint11_linear_3003_10588" x1="12.3169" y1="11.8915" x2="8.9295" y2="8.17078" gradientUnits="userSpaceOnUse">
<stop stop-color="#C3C3C3" stop-opacity="0"/>
<stop offset="0.267" stop-color="#A4A4A4" stop-opacity="0.267"/>
<stop offset="0.542" stop-color="#8B8B8B" stop-opacity="0.542"/>
<stop offset="0.794" stop-color="#7C7C7C" stop-opacity="0.794"/>
<stop offset="1" stop-color="#777777"/>
</linearGradient>
<linearGradient id="paint12_linear_3003_10588" x1="9.98398" y1="9.7488" x2="10.4851" y2="11.3593" gradientUnits="userSpaceOnUse">
<stop stop-color="#BFDBFF"/>
<stop offset="1" stop-color="#498ADE"/>
</linearGradient>
<linearGradient id="paint13_linear_3003_10588" x1="8.92234" y1="5.81123" x2="10.5504" y2="6.13871" gradientUnits="userSpaceOnUse">
<stop stop-color="#BFDBFF"/>
<stop offset="1" stop-color="#498ADE"/>
</linearGradient>
<linearGradient id="paint14_linear_3003_10588" x1="8.63672" y1="9.47757" x2="9.4381" y2="10.6411" gradientUnits="userSpaceOnUse">
<stop stop-color="#EBFFDB"/>
<stop offset="1" stop-color="#B9FF82"/>
</linearGradient>
<linearGradient id="paint15_linear_3003_10588" x1="12.078" y1="16.3205" x2="7.45734" y2="11.6998" gradientUnits="userSpaceOnUse">
<stop stop-color="#498ADE" stop-opacity="0"/>
<stop offset="0.267" stop-color="#498ADE" stop-opacity="0.267"/>
<stop offset="0.542" stop-color="#498ADE" stop-opacity="0.542"/>
<stop offset="0.794" stop-color="#498ADE" stop-opacity="0.794"/>
<stop offset="1" stop-color="#498ADE"/>
</linearGradient>
<linearGradient id="paint16_linear_3003_10588" x1="9.14007" y1="12.1785" x2="13.2001" y2="15.6864" gradientUnits="userSpaceOnUse">
<stop stop-color="#EBFFDB"/>
<stop offset="1" stop-color="#B9FF82"/>
</linearGradient>
<linearGradient id="paint17_linear_3003_10588" x1="14.0226" y1="12.1786" x2="18.1186" y2="16.0347" gradientUnits="userSpaceOnUse">
<stop stop-color="#EBFFDB"/>
<stop offset="1" stop-color="#B9FF82"/>
</linearGradient>
<linearGradient id="paint18_linear_3003_10588" x1="3.94358" y1="4.21076" x2="17.1032" y2="12.6209" gradientUnits="userSpaceOnUse">
<stop stop-color="#BFDBFF"/>
<stop offset="1" stop-color="#498ADE"/>
</linearGradient>
<clipPath id="clip0_3003_10588">
<rect width="20" height="20" fill="white"/>
</clipPath>
</defs>
</svg>
