<svg width="20" height="20" viewBox="0 0 20 20" fill="none" xmlns="http://www.w3.org/2000/svg">
<path d="M5.50827 5.99988C3.8771 5.99988 2.55469 7.32216 2.55469 8.95333V10.4142C2.55469 12.0454 3.8771 13.3678 5.50827 13.3678C8.09501 13.3678 10.6194 14.1615 12.7407 15.6419L13.5556 16.2106V3.15692L12.7407 3.72572C10.6194 5.20601 8.09501 5.99988 5.50827 5.99988Z" fill="url(#paint0_linear_3003_10927)"/>
<path d="M5.99979 12.3849H3.36328L3.77751 13.3611C4.05234 14.0088 4.19398 14.7052 4.19398 15.4088V16.3421C4.19398 17.0701 4.78417 17.6603 5.51217 17.6603C6.2403 17.6603 6.83049 17.0701 6.83049 16.3421V15.4088C6.83049 14.7052 6.68885 14.0088 6.41402 13.3611L5.99979 12.3849Z" fill="url(#paint1_linear_3003_10927)"/>
<path d="M5.82851 14.0889H4.97339C4.70543 14.0889 4.48828 14.3062 4.48828 14.5742V14.5795C4.48828 14.7253 4.55283 14.8557 4.65461 14.9447L6.67492 16.9649C6.77458 16.7794 6.83121 16.5674 6.83121 16.3421V15.4088C6.83121 15.2265 6.82144 15.0448 6.80257 14.8642L6.19377 14.2554C6.1048 14.1535 5.97438 14.0889 5.82851 14.0889Z" fill="url(#paint2_linear_3003_10927)"/>
<path d="M5.82851 15.0647H4.97339C4.70543 15.0647 4.48828 14.8474 4.48828 14.5795V14.5742C4.48828 14.3062 4.70543 14.0889 4.97339 14.0889H5.82851C6.09648 14.0889 6.31376 14.3062 6.31376 14.5742V14.5795C6.31376 14.8474 6.09648 15.0647 5.82851 15.0647Z" fill="url(#paint3_linear_3003_10927)"/>
<path d="M6.1939 15.8133C6.10493 15.7115 5.97451 15.647 5.82865 15.647H4.97353C4.70556 15.647 4.48828 15.8641 4.48828 16.1321V16.1375C4.48828 16.2832 4.55296 16.4136 4.65474 16.5026L5.78442 17.6323C6.34914 17.514 6.78079 17.0345 6.82686 16.4464L6.1939 15.8133Z" fill="url(#paint4_linear_3003_10927)"/>
<path d="M5.82851 16.6226H4.97339C4.70543 16.6226 4.48828 16.4055 4.48828 16.1375V16.1321C4.48828 15.8641 4.70543 15.647 4.97339 15.647H5.82851C6.09648 15.647 6.31376 15.8641 6.31376 16.1321V16.1375C6.31376 16.4055 6.09648 16.6226 5.82851 16.6226Z" fill="url(#paint5_linear_3003_10927)"/>
<path d="M6.83049 15.9367V15.4088C6.83049 14.7052 6.68885 14.0088 6.41402 13.3612L5.99979 12.3849H3.36328L3.42572 12.5321L6.83049 15.9367Z" fill="url(#paint6_linear_3003_10927)"/>
<path d="M4.11139 9.68387C4.11139 10.4465 3.49308 11.0648 2.7305 11.0648C1.96778 11.0648 1.34961 10.4465 1.34961 9.68387C1.34961 8.92128 1.96778 8.30298 2.7305 8.30298C3.49308 8.30298 4.11139 8.92128 4.11139 9.68387Z" fill="url(#paint7_linear_3003_10927)"/>
<path d="M6.13898 10.6146V8.753C6.13898 7.5775 6.67795 6.52808 7.52211 5.83783C6.85919 5.94488 6.18584 5.9998 5.50827 5.9998C3.8771 5.9998 2.55469 7.32221 2.55469 8.95338V10.4143C2.55469 12.0454 3.8771 13.3678 5.50827 13.3678C6.18584 13.3678 6.85919 13.4228 7.52211 13.5298C6.67795 12.8397 6.13898 11.7901 6.13898 10.6146Z" fill="url(#paint8_linear_3003_10927)"/>
<path d="M18.6515 9.70511C18.6515 5.63742 17.0708 2.33984 15.1207 2.33984C13.1707 2.33984 11.5898 5.63742 11.5898 9.70511C11.5898 13.7728 13.1707 17.0704 15.1207 17.0704C17.0708 17.0704 18.6515 13.7728 18.6515 9.70511Z" fill="url(#paint9_linear_3003_10927)"/>
<path d="M17.6609 9.70515C17.6609 6.44612 16.632 3.8042 15.3628 3.8042C14.0934 3.8042 13.0645 6.44612 13.0645 9.70515C13.0645 12.9642 14.0934 15.6061 15.3628 15.6061C16.632 15.6061 17.6609 12.9642 17.6609 9.70515Z" fill="url(#paint10_linear_3003_10927)"/>
<path d="M17.4943 11.923C17.4906 11.9495 17.4863 11.9758 17.4818 12.0019C17.4665 12.0966 17.45 12.1895 17.4323 12.2814C17.4254 12.3183 17.4186 12.355 17.4109 12.3912C17.3598 12.6494 17.3011 12.8963 17.2357 13.1306C17.2261 13.1661 17.2161 13.2011 17.206 13.2356C17.2052 13.2393 17.2041 13.2425 17.2031 13.2458C17.1931 13.28 17.1827 13.3142 17.1722 13.3481C17.1609 13.3851 17.1497 13.4222 17.1375 13.4583C17.1283 13.4878 17.119 13.5164 17.1094 13.5449C17.1053 13.5575 17.1014 13.5695 17.0969 13.582C17.0864 13.6126 17.0759 13.6429 17.0655 13.6726C17.0525 13.7097 17.0393 13.7468 17.0252 13.7833C17.0136 13.8151 17.0014 13.8465 16.9894 13.8776C16.983 13.8941 16.9765 13.911 16.9696 13.9275C16.9632 13.944 16.9567 13.9601 16.9498 13.9766C16.9366 14.0092 16.9233 14.041 16.9096 14.0729C16.9015 14.0918 16.8935 14.1103 16.885 14.1293C16.8762 14.1498 16.8673 14.17 16.8581 14.1896C16.8476 14.213 16.8371 14.236 16.8263 14.2585C16.7723 14.3732 16.7159 14.482 16.6576 14.5839C16.2891 15.2289 15.8442 15.6059 15.3646 15.6059C14.2761 15.6059 13.3641 13.6621 13.1269 11.0527C13.1237 11.0173 13.1204 10.9818 13.1176 10.946C13.1119 10.8812 13.1068 10.8156 13.1023 10.7495C13.1015 10.7394 13.1011 10.7294 13.1003 10.7193C13.0962 10.6558 13.0923 10.5916 13.089 10.5272C13.0866 10.4857 13.0846 10.4443 13.0826 10.4028C13.0821 10.394 13.0817 10.3855 13.0813 10.3766L13.0754 10.2269C13.0754 10.2224 13.0754 10.2179 13.0749 10.2139C13.0733 10.1644 13.0721 10.1153 13.0709 10.0657C13.0705 10.0569 13.0705 10.0484 13.0701 10.04V10.0363C13.0693 10.0013 13.0684 9.9663 13.0681 9.93119C13.0676 9.90664 13.0672 9.88209 13.0672 9.85714C13.0668 9.80632 13.0664 9.75563 13.0664 9.70494C13.0664 9.65412 13.0668 9.60343 13.0672 9.55274C13.0672 9.52858 13.0676 9.50442 13.0681 9.48013C13.0689 9.43987 13.0697 9.39961 13.0705 9.35935C13.0705 9.3509 13.0709 9.34246 13.0709 9.33401C13.0717 9.30536 13.0725 9.27725 13.0733 9.249C13.0741 9.21283 13.0753 9.17692 13.077 9.14115C13.0782 9.10089 13.0797 9.06063 13.0817 9.02023C13.0821 9.01509 13.0821 9.00941 13.0825 9.00413C13.0829 8.99014 13.0838 8.97601 13.0845 8.96229C13.0925 8.79279 13.1039 8.62528 13.118 8.46054C13.122 8.41143 13.1265 8.36273 13.1308 8.31402C13.1876 8.30676 13.2453 8.3028 13.304 8.3028C13.7087 8.3028 14.0723 8.47664 14.3248 8.75372L17.4943 11.923Z" fill="url(#paint11_linear_3003_10927)"/>
<path d="M7.29093 10.352H7.23615C7.00541 10.352 6.81836 10.1648 6.81836 9.9341V8.9054C6.81836 8.67466 7.00541 8.48761 7.23615 8.48761H7.29093C7.52181 8.48761 7.70886 8.67466 7.70886 8.9054V9.9341C7.70886 10.1648 7.52181 10.352 7.29093 10.352Z" fill="url(#paint12_linear_3003_10927)"/>
<path d="M8.52921 10.352H8.47443C8.24369 10.352 8.05664 10.1648 8.05664 9.9341V8.9054C8.05664 8.67466 8.24369 8.48761 8.47443 8.48761H8.52921C8.76009 8.48761 8.94714 8.67466 8.94714 8.9054V9.9341C8.94714 10.1648 8.76009 10.352 8.52921 10.352Z" fill="url(#paint13_linear_3003_10927)"/>
<path d="M6.14051 10.6146V8.96655H5.37409C5.17833 8.96655 5.01953 9.12535 5.01953 9.32111V9.51846C5.01953 9.62208 5.06428 9.71488 5.13503 9.77969L6.14486 10.7895C6.14222 10.7316 6.14051 10.6734 6.14051 10.6146Z" fill="url(#paint14_linear_3003_10927)"/>
<path d="M6.14051 8.96655H5.37409C5.17833 8.96655 5.01953 9.12535 5.01953 9.32111V9.51846C5.01953 9.71435 5.17833 9.87302 5.37409 9.87302H6.14051V8.96655Z" fill="url(#paint15_linear_3003_10927)"/>
<path d="M13.3023 8.30298C13.2436 8.30298 13.1858 8.30707 13.1289 8.3142C13.0869 8.76024 13.0645 9.22595 13.0645 9.70512C13.0645 10.1688 13.0854 10.62 13.1248 11.053C13.183 11.0604 13.2421 11.0646 13.3023 11.0646C14.0649 11.0646 14.6832 10.4465 14.6832 9.68387C14.6832 8.92115 14.0649 8.30298 13.3023 8.30298Z" fill="url(#paint16_linear_3003_10927)"/>
<defs>
<linearGradient id="paint0_linear_3003_10927" x1="8.05517" y1="7.44933" x2="8.05517" y2="15.4465" gradientUnits="userSpaceOnUse">
<stop stop-color="#FFFCF8"/>
<stop offset="0.1875" stop-color="#E4F2FF"/>
<stop offset="0.4041" stop-color="#E0EAFF"/>
<stop offset="0.6353" stop-color="#C9DAFF"/>
<stop offset="0.875" stop-color="#B2CBFF"/>
<stop offset="1" stop-color="#B2CBFF"/>
</linearGradient>
<linearGradient id="paint1_linear_3003_10927" x1="4.25409" y1="14.5985" x2="7.44932" y2="15.5637" gradientUnits="userSpaceOnUse">
<stop stop-color="#D2E5FF"/>
<stop offset="0.2277" stop-color="#BFDBFF"/>
<stop offset="0.4662" stop-color="#498ADE"/>
<stop offset="0.7098" stop-color="#498ADE"/>
<stop offset="0.9554" stop-color="#498ADE"/>
<stop offset="1" stop-color="#498ADE"/>
</linearGradient>
<linearGradient id="paint2_linear_3003_10927" x1="6.16174" y1="15.6922" x2="4.97743" y2="13.6134" gradientUnits="userSpaceOnUse">
<stop stop-color="#498ADE" stop-opacity="0"/>
<stop offset="0.2234" stop-color="#498ADE" stop-opacity="0.223529"/>
<stop offset="0.5034" stop-color="#498ADE" stop-opacity="0.501961"/>
<stop offset="0.7682" stop-color="#498ADE" stop-opacity="0.768627"/>
<stop offset="1" stop-color="#498ADE"/>
</linearGradient>
<linearGradient id="paint3_linear_3003_10927" x1="4.96866" y1="14.3457" x2="5.31294" y2="14.9898" gradientUnits="userSpaceOnUse">
<stop stop-color="#DEFFC4"/>
<stop offset="1" stop-color="#8DEC42"/>
</linearGradient>
<linearGradient id="paint4_linear_3003_10927" x1="5.96626" y1="17.0389" x2="5.12212" y2="15.1364" gradientUnits="userSpaceOnUse">
<stop stop-color="#498ADE" stop-opacity="0"/>
<stop offset="0.2234" stop-color="#498ADE" stop-opacity="0.223529"/>
<stop offset="0.5034" stop-color="#498ADE" stop-opacity="0.501961"/>
<stop offset="0.7682" stop-color="#498ADE" stop-opacity="0.768627"/>
<stop offset="1" stop-color="#498ADE"/>
</linearGradient>
<linearGradient id="paint5_linear_3003_10927" x1="4.96866" y1="15.9037" x2="5.31287" y2="16.5477" gradientUnits="userSpaceOnUse">
<stop stop-color="#DEFFC4"/>
<stop offset="1" stop-color="#8DEC42"/>
</linearGradient>
<linearGradient id="paint6_linear_3003_10927" x1="5.31241" y1="14.7953" x2="4.50665" y2="10.5206" gradientUnits="userSpaceOnUse">
<stop stop-color="#498ADE" stop-opacity="0"/>
<stop offset="0.2234" stop-color="#498ADE" stop-opacity="0.223529"/>
<stop offset="0.5034" stop-color="#498ADE" stop-opacity="0.501961"/>
<stop offset="0.7682" stop-color="#498ADE" stop-opacity="0.768627"/>
<stop offset="1" stop-color="#498ADE"/>
</linearGradient>
<linearGradient id="paint7_linear_3003_10927" x1="2.07638" y1="9.02979" x2="3.24829" y2="10.2017" gradientUnits="userSpaceOnUse">
<stop stop-color="#DEFFC4"/>
<stop offset="1" stop-color="#8DEC42"/>
</linearGradient>
<linearGradient id="paint8_linear_3003_10927" x1="5.66689" y1="5.47933" x2="5.03841" y2="13.0796" gradientUnits="userSpaceOnUse">
<stop stop-color="#DDECFF"/>
<stop offset="0.2277" stop-color="#DDECFF"/>
<stop offset="0.4662" stop-color="#BFDBFF"/>
<stop offset="0.7098" stop-color="#91C1FF"/>
<stop offset="0.836967" stop-color="#77AFF7"/>
<stop offset="1" stop-color="#498ADE"/>
</linearGradient>
<linearGradient id="paint9_linear_3003_10927" x1="12.5337" y1="4.33927" x2="17.5992" y2="13.9212" gradientUnits="userSpaceOnUse">
<stop offset="0.2343" stop-color="#BFDBFF"/>
<stop offset="1" stop-color="#498ADE"/>
</linearGradient>
<linearGradient id="paint10_linear_3003_10927" x1="16.3916" y1="9.70511" x2="9.97237" y2="9.70511" gradientUnits="userSpaceOnUse">
<stop stop-color="#FFFCF8"/>
<stop offset="0.1875" stop-color="#E4F2FF"/>
<stop offset="0.4041" stop-color="#E0EAFF"/>
<stop offset="0.6353" stop-color="#C9DAFF"/>
<stop offset="0.875" stop-color="#B2CBFF"/>
<stop offset="1" stop-color="#B2CBFF"/>
</linearGradient>
<linearGradient id="paint11_linear_3003_10927" x1="15.3747" y1="12.6563" x2="6.90139" y2="6.56771" gradientUnits="userSpaceOnUse">
<stop stop-color="#E4F2FF" stop-opacity="0"/>
<stop offset="0.6699" stop-color="#E4F2FF" stop-opacity="0.670588"/>
<stop offset="1" stop-color="#E4F2FF"/>
</linearGradient>
<linearGradient id="paint12_linear_3003_10927" x1="7.05269" y1="8.97826" x2="7.66804" y2="9.27216" gradientUnits="userSpaceOnUse">
<stop stop-color="#DEFFC4"/>
<stop offset="1" stop-color="#8DEC42"/>
</linearGradient>
<linearGradient id="paint13_linear_3003_10927" x1="8.29098" y1="8.97826" x2="8.90632" y2="9.27216" gradientUnits="userSpaceOnUse">
<stop stop-color="#DEFFC4"/>
<stop offset="1" stop-color="#8DEC42"/>
</linearGradient>
<linearGradient id="paint14_linear_3003_10927" x1="6.33171" y1="10.3297" x2="5.45309" y2="9.12623" gradientUnits="userSpaceOnUse">
<stop stop-color="#498ADE" stop-opacity="0"/>
<stop offset="0.2234" stop-color="#498ADE" stop-opacity="0.223529"/>
<stop offset="0.5034" stop-color="#498ADE" stop-opacity="0.501961"/>
<stop offset="0.7682" stop-color="#498ADE" stop-opacity="0.768627"/>
<stop offset="1" stop-color="#498ADE"/>
</linearGradient>
<linearGradient id="paint15_linear_3003_10927" x1="5.31452" y1="9.2051" x2="5.69065" y2="9.67023" gradientUnits="userSpaceOnUse">
<stop stop-color="#DEFFC4"/>
<stop offset="1" stop-color="#8DEC42"/>
</linearGradient>
<linearGradient id="paint16_linear_3003_10927" x1="13.4904" y1="9.02975" x2="14.5129" y2="9.62906" gradientUnits="userSpaceOnUse">
<stop stop-color="#DEFFC4"/>
<stop offset="1" stop-color="#8DEC42"/>
</linearGradient>
</defs>
</svg>
