<svg width="20" height="20" viewBox="0 0 20 20" fill="none" xmlns="http://www.w3.org/2000/svg">
<path fill-rule="evenodd" clip-rule="evenodd" d="M0 10C0 15.5228 4.47715 20 10 20C15.5228 20 20 15.5228 20 10C20 4.47715 15.5228 0 10 0C4.47715 0 0 4.47715 0 10ZM4.35547 6.75399L5.13807 4.66699H15.8314V11.9719L12.7011 15.101H10.3539L8.78959 16.667H7.22367V15.101H4.35547V6.75399Z" fill="white"/>
<path fill-rule="evenodd" clip-rule="evenodd" d="M6.17969 5.70996H14.7873V11.4492L12.961 13.2756H10.0924L8.52849 14.8394V13.2756H6.17969V5.70996ZM9.04904 10.9281H10.0924V7.79807H9.04904V10.9281ZM12.961 10.9281H11.9179V7.79807H12.961V10.9281Z" fill="white"/>
</svg>
