<svg width="20" height="20" viewBox="0 0 20 20" fill="none" xmlns="http://www.w3.org/2000/svg">
<path fill-rule="evenodd" clip-rule="evenodd" d="M10 0C4.47715 0 0 4.47715 0 10C0 15.5228 4.47715 20 10 20C15.5228 20 20 15.5228 20 10C20 4.47715 15.5228 0 10 0ZM7.80071 4.69921C8.36961 4.67333 8.55139 4.66699 9.99985 4.66699H9.99818C11.4471 4.66699 11.6282 4.67333 12.1971 4.69921C12.7649 4.72521 13.1527 4.8151 13.4927 4.947C13.8438 5.08311 14.1404 5.26533 14.4371 5.562C14.7338 5.85845 14.916 6.15601 15.0527 6.50679C15.1838 6.8459 15.2738 7.23346 15.3005 7.80125C15.326 8.37014 15.3327 8.55192 15.3327 10.0004C15.3327 11.4488 15.326 11.6302 15.3005 12.1991C15.2738 12.7666 15.1838 13.1543 15.0527 13.4935C14.916 13.8442 14.7338 14.1418 14.4371 14.4382C14.1408 14.7349 13.8437 14.9175 13.493 15.0538C13.1537 15.1857 12.7657 15.2755 12.1979 15.3015C11.629 15.3274 11.4478 15.3338 9.99918 15.3338C8.55083 15.3338 8.36916 15.3274 7.80027 15.3015C7.2326 15.2755 6.84493 15.1857 6.50559 15.0538C6.15503 14.9175 5.85747 14.7349 5.56114 14.4382C5.26458 14.1418 5.08235 13.8442 4.94602 13.4934C4.81424 13.1543 4.72435 12.7667 4.69824 12.199C4.67246 11.6301 4.66602 11.4488 4.66602 10.0004C4.66602 8.55192 4.67268 8.37003 4.69813 7.80114C4.72368 7.23357 4.81368 6.8459 4.94591 6.50668C5.08258 6.15601 5.2648 5.85845 5.56147 5.562C5.85792 5.26544 6.15548 5.08322 6.50626 4.947C6.84537 4.8151 7.23293 4.72521 7.80071 4.69921Z" fill="white"/>
<path fill-rule="evenodd" clip-rule="evenodd" d="M9.52272 5.62731C9.61563 5.62716 9.71557 5.62721 9.82342 5.62726L10.0012 5.62731C11.4252 5.62731 11.594 5.63242 12.1563 5.65798C12.6763 5.68175 12.9585 5.76864 13.1465 5.84165C13.3954 5.93831 13.5729 6.05387 13.7594 6.24054C13.9461 6.42721 14.0617 6.60499 14.1586 6.85388C14.2316 7.04166 14.3186 7.32388 14.3422 7.84389C14.3678 8.40612 14.3733 8.57501 14.3733 9.99836C14.3733 11.4217 14.3678 11.5906 14.3422 12.1528C14.3184 12.6728 14.2316 12.9551 14.1586 13.1428C14.0619 13.3917 13.9461 13.5689 13.7594 13.7555C13.5728 13.9422 13.3955 14.0577 13.1465 14.1544C12.9588 14.2277 12.6763 14.3144 12.1563 14.3382C11.5941 14.3637 11.4252 14.3693 10.0012 14.3693C8.57705 14.3693 8.40827 14.3637 7.84604 14.3382C7.32604 14.3142 7.04381 14.2273 6.8557 14.1543C6.60681 14.0576 6.42903 13.9421 6.24236 13.7554C6.05569 13.5687 5.94013 13.3914 5.84324 13.1424C5.77024 12.9546 5.68324 12.6724 5.65957 12.1524C5.63402 11.5901 5.62891 11.4213 5.62891 9.99702C5.62891 8.57278 5.63402 8.40478 5.65957 7.84256C5.68335 7.32255 5.77024 7.04032 5.84324 6.85232C5.93991 6.60343 6.05569 6.42565 6.24236 6.23898C6.42903 6.05231 6.60681 5.93676 6.8557 5.83987C7.0437 5.76653 7.32604 5.67987 7.84604 5.65598C8.33805 5.63375 8.52871 5.62709 9.52272 5.62598V5.62731ZM12.849 6.51292C12.4957 6.51292 12.209 6.79925 12.209 7.1527C12.209 7.50604 12.4957 7.79271 12.849 7.79271C13.2023 7.79271 13.489 7.50604 13.489 7.1527C13.489 6.79937 13.2023 6.5127 12.849 6.5127V6.51292ZM7.26172 9.99966C7.26172 8.48712 8.488 7.2608 10.0005 7.26074C11.5131 7.26074 12.7391 8.48709 12.7391 9.99966C12.7391 11.5122 11.5132 12.738 10.0006 12.738C8.48807 12.738 7.26172 11.5122 7.26172 9.99966Z" fill="white"/>
<path d="M10.0005 8.22266C10.9822 8.22266 11.7782 9.01855 11.7782 10.0005C11.7782 10.9822 10.9822 11.7782 10.0005 11.7782C9.01855 11.7782 8.22266 10.9822 8.22266 10.0005C8.22266 9.01855 9.01855 8.22266 10.0005 8.22266Z" fill="white"/>
</svg>
