<svg width="64" height="64" viewBox="0 0 64 64" fill="none" xmlns="http://www.w3.org/2000/svg">
<rect width="64" height="64" fill="#FADE66"/>
<path d="M29.0506 53.211C28.924 53.746 29.0436 54.0909 29.29 54.2317L26.3126 52.5001C26.0734 52.3663 25.9468 52.0214 26.0734 51.4794L28.7549 40.1257C28.8254 39.83 28.7549 39.6118 28.6142 39.5273L31.5844 41.2589C31.7322 41.3434 31.8026 41.5616 31.7322 41.8572L29.0506 53.211Z" fill="#FFD63C"/>
<path d="M29.29 54.5154C29.2424 54.5154 29.1942 54.5033 29.1494 54.4782C29.1473 54.4768 29.1452 54.4754 29.1425 54.474L26.1707 52.7455C25.7937 52.5349 25.653 52.0372 25.7985 51.4165L28.48 40.0624C28.5228 39.8828 28.4862 39.7853 28.4683 39.7701C28.3353 39.6902 28.2918 39.5182 28.3711 39.3848C28.449 39.251 28.6213 39.2062 28.7564 39.2848L31.7268 41.0164C31.9956 41.1702 32.1039 41.5183 32.0067 41.924L29.3258 53.277C29.2424 53.6282 29.2817 53.8998 29.4279 53.9867L29.432 53.9891C29.5664 54.0673 29.6126 54.2397 29.5347 54.3744C29.4823 54.4647 29.3872 54.5154 29.29 54.5154ZM29.0473 40.1079C29.0425 40.1358 29.0363 40.1641 29.0294 40.1923L26.3486 51.5457C26.2666 51.8959 26.3065 52.1744 26.4506 52.2551L28.7171 53.5734C28.7206 53.4476 28.7385 53.3063 28.7757 53.1474L31.4573 41.7937C31.5048 41.5962 31.4552 41.5128 31.4442 41.5055L29.0473 40.1079Z" fill="black"/>
<path d="M43.7699 27.4975C43.5939 27.3989 43.3477 27.406 43.059 27.5749L36.1191 31.5801C35.9501 31.6786 35.8093 31.6856 35.7038 31.6223L32.7266 29.8907C32.8321 29.9541 32.9728 29.947 33.1488 29.8485L40.0817 25.8433C40.3704 25.6744 40.6166 25.6674 40.7926 25.773L43.7699 27.4975Z" fill="#FFD63C"/>
<path d="M35.858 31.947C35.7243 31.947 35.623 31.9036 35.5595 31.8657L32.5933 30.141C32.5899 30.1389 32.5864 30.1368 32.583 30.1348C32.4492 30.0551 32.4058 29.8828 32.4844 29.7491C32.5637 29.615 32.7346 29.5702 32.8697 29.6484L32.8725 29.6502C32.8794 29.6515 32.9242 29.6526 33.0124 29.6036L39.9417 25.6006C40.4339 25.3135 40.7785 25.4355 40.9391 25.5327L43.9123 27.2547C44.0467 27.3326 44.0929 27.5042 44.0163 27.639C43.9384 27.7738 43.7661 27.8203 43.6331 27.7455C43.5359 27.6914 43.3787 27.7172 43.2029 27.8203L36.262 31.8264C36.1069 31.9164 35.9711 31.947 35.858 31.947ZM33.4646 29.9945L35.847 31.3797C35.8566 31.3842 35.9008 31.3825 35.9787 31.3377L42.9189 27.3319L40.6524 26.0191C40.5538 25.9601 40.4001 25.9863 40.2257 26.0887L33.4646 29.9945Z" fill="black"/>
<path d="M41.4606 11.5661C42.2291 11.1224 42.7171 11.7872 42.3507 12.7746L35.6054 30.8834C35.3909 31.4572 35.6756 31.8411 36.125 31.5817L43.0589 27.5781C43.9307 27.0747 44.397 27.9952 43.8149 29.0813L30.7628 53.3505C30.5495 53.7475 30.2849 54.0185 30.0264 54.1677C29.4058 54.5261 28.8182 54.1855 29.0475 53.2133L31.7295 41.8577C31.8496 41.3538 31.5652 41.0732 31.1698 41.3015L23.9122 45.4919C23.1977 45.9045 22.7101 45.3636 22.9686 44.4488L30.2148 18.799C30.3663 18.2667 30.7384 17.7569 31.1518 17.5183L41.4606 11.5661Z" fill="white"/>
<path d="M43.8183 29.0815L30.769 53.3516C30.5508 53.7458 30.2904 54.0133 30.0299 54.1681C29.4106 54.5271 28.8193 54.1822 29.0516 53.2108L30.2693 48.0443C32.6482 44.011 34.1334 38.2954 34.1334 31.9674C34.1334 26.4419 33.0072 21.3949 31.142 17.5235C31.1491 17.5235 31.1491 17.5165 31.1561 17.5165L41.4674 11.5616C42.2347 11.1181 42.7203 11.7868 42.3543 12.7723L35.6115 30.8834C35.3933 31.4536 35.6818 31.8407 36.1253 31.5803L43.0651 27.5751C43.9309 27.0753 44.4024 27.9904 43.8183 29.0815Z" fill="#E9EDF4"/>
<path d="M29.5638 54.5872C29.3818 54.5872 29.2123 54.5348 29.0709 54.4297C28.747 54.1884 28.6387 53.7211 28.7738 53.1468L31.4561 41.791C31.4995 41.6094 31.4623 41.5149 31.4443 41.5029C31.4381 41.4994 31.3926 41.4981 31.3127 41.5442L24.0546 45.7344C23.6514 45.9674 23.2557 45.9726 22.9682 45.7495C22.6291 45.4859 22.5284 44.9703 22.698 44.3702L29.9443 18.7203C30.1167 18.1154 30.5358 17.547 31.0121 17.272L41.3205 11.3199C41.7375 11.0793 42.1415 11.0814 42.4296 11.3247C42.7874 11.6266 42.8591 12.2188 42.6171 12.8709L35.8713 30.9801C35.7782 31.2297 35.8265 31.3634 35.8478 31.3793C35.8582 31.3831 35.903 31.382 35.985 31.3355L42.9191 27.3318C43.3526 27.0816 43.7814 27.0961 44.0654 27.3708C44.4542 27.7471 44.4542 28.4875 44.0654 29.213L31.0128 53.4825C30.7888 53.9003 30.4965 54.2212 30.1691 54.4104C29.965 54.5283 29.7575 54.5872 29.5638 54.5872ZM31.4347 40.9362C31.5615 40.9362 31.6801 40.9742 31.7821 41.05C32.011 41.2206 32.0951 41.5463 32.0055 41.9213L29.3239 53.2764C29.2447 53.6111 29.2771 53.8793 29.408 53.9765C29.5121 54.0533 29.6948 54.032 29.8864 53.9217C30.1201 53.7869 30.3435 53.536 30.5151 53.2154L43.5677 28.9459C43.8586 28.4024 43.8393 27.9377 43.6725 27.7764C43.5457 27.6527 43.3216 27.7516 43.2017 27.8209L36.2676 31.8242C35.9822 31.9893 35.6879 31.9842 35.4832 31.8101C35.2371 31.6019 35.1833 31.2083 35.3418 30.7826L42.0877 12.6741C42.2621 12.2039 42.1987 11.8686 42.0657 11.7562C41.9299 11.6418 41.6962 11.7548 41.6031 11.8086L31.2947 17.7607C30.9439 17.9634 30.6199 18.4107 30.4875 18.8747L23.2412 44.5239C23.1254 44.933 23.195 45.2105 23.315 45.3035C23.4108 45.3783 23.5783 45.3577 23.772 45.2456L31.03 41.0555C31.1672 40.9759 31.3058 40.9362 31.4347 40.9362Z" fill="black"/>
<path d="M27.2417 17.0636L19.9921 42.7134C19.8373 43.2624 19.95 43.6777 20.2174 43.8326L23.1946 45.5571C22.9272 45.4023 22.8145 44.994 22.9693 44.445L30.219 18.7951C30.2863 18.5511 30.4049 18.3162 30.5487 18.1065L27.5715 16.375C27.4277 16.5846 27.3091 16.8195 27.2417 17.0636Z" fill="#FFD63C"/>
<path d="M23.196 45.841C23.1478 45.841 23.0988 45.829 23.0547 45.8031C23.054 45.8028 23.0533 45.8024 23.0533 45.8024L20.0775 44.0784C19.6728 43.8444 19.537 43.2925 19.7218 42.638L26.9715 16.9881C27.0432 16.7289 27.1673 16.4694 27.3396 16.2171C27.4231 16.0947 27.585 16.0575 27.7146 16.1323L30.6919 17.8639C30.7594 17.9032 30.8077 17.9694 30.8256 18.0459C30.8429 18.1224 30.827 18.2027 30.7829 18.2675C30.6478 18.465 30.5471 18.6739 30.4927 18.872L23.2422 44.5234C23.1195 44.9576 23.2057 45.2379 23.3373 45.3144C23.4725 45.3926 23.5186 45.5653 23.4401 45.7004C23.3877 45.7907 23.2932 45.841 23.196 45.841ZM27.6698 16.7596C27.6023 16.8874 27.5499 17.016 27.5154 17.1404C27.5154 17.1408 27.5147 17.1411 27.5147 17.1418L20.265 42.7917C20.1409 43.2305 20.2277 43.5128 20.3601 43.5896L22.6184 44.898C22.6197 44.7336 22.6466 44.5558 22.699 44.3696L29.9488 18.7197C29.9964 18.5484 30.0667 18.3764 30.1583 18.2068L27.6698 16.7596Z" fill="black"/>
<path d="M39.1989 9.75853C39.0229 9.65292 38.7767 9.66702 38.488 9.83594L28.1767 15.7838C27.9509 15.914 27.7416 16.1265 27.5703 16.3763L30.5476 18.1079C30.7189 17.8581 30.9282 17.6455 31.154 17.5154L41.4652 11.5605C41.7469 11.3986 42.0002 11.3845 42.1761 11.4901L39.1989 9.75853Z" fill="#FFD63C"/>
<path d="M30.5489 18.3911C30.5006 18.3911 30.4517 18.3787 30.4069 18.3528L27.4296 16.6212C27.362 16.5816 27.3131 16.5157 27.2959 16.4389C27.2786 16.3623 27.2945 16.282 27.3393 16.2172C27.544 15.9194 27.7853 15.6854 28.0376 15.54L38.348 9.59235C38.8402 9.30455 39.1821 9.42071 39.3434 9.51618L42.3069 11.2402C42.3124 11.243 42.3172 11.2461 42.3228 11.2492C42.4558 11.3288 42.4992 11.5011 42.4206 11.6349C42.3407 11.7682 42.169 11.8127 42.0353 11.7352L42.027 11.7303C41.9353 11.6804 41.7789 11.7069 41.6072 11.8062L31.2968 17.7607C31.1169 17.8644 30.9383 18.0402 30.7819 18.2687C30.7274 18.348 30.6392 18.3911 30.5489 18.3911ZM27.9949 16.2969L30.4751 17.7393C30.6412 17.5404 30.8246 17.3808 31.0148 17.2716L41.3205 11.3195L39.058 10.0035C39.0567 10.0029 39.056 10.0022 39.0546 10.0015C38.9643 9.94736 38.8092 9.97666 38.632 10.0807L28.3195 16.0294C28.2092 16.0928 28.0996 16.1835 27.9949 16.2969Z" fill="black"/>
</svg>
