<svg width="17" height="16" viewBox="0 0 17 16" fill="none" xmlns="http://www.w3.org/2000/svg">
<path d="M8.67057 1.33301C4.99724 1.33301 2.00391 4.32634 2.00391 7.99967C2.00391 11.673 4.99724 14.6663 8.67057 14.6663C12.3439 14.6663 15.3372 11.673 15.3372 7.99967C15.3372 4.32634 12.3439 1.33301 8.67057 1.33301ZM10.9106 9.53301C11.1039 9.72634 11.1039 10.0463 10.9106 10.2397C10.8106 10.3397 10.6839 10.3863 10.5572 10.3863C10.4306 10.3863 10.3039 10.3397 10.2039 10.2397L8.67057 8.70634L7.13724 10.2397C7.03724 10.3397 6.91057 10.3863 6.78391 10.3863C6.65724 10.3863 6.53057 10.3397 6.43057 10.2397C6.23724 10.0463 6.23724 9.72634 6.43057 9.53301L7.96391 7.99967L6.43057 6.46634C6.23724 6.27301 6.23724 5.95301 6.43057 5.75967C6.62391 5.56634 6.94391 5.56634 7.13724 5.75967L8.67057 7.29301L10.2039 5.75967C10.3972 5.56634 10.7172 5.56634 10.9106 5.75967C11.1039 5.95301 11.1039 6.27301 10.9106 6.46634L9.37724 7.99967L10.9106 9.53301Z" fill="#FF3D4B"/>
</svg>
