<svg width="17" height="16" viewBox="0 0 17 16" fill="none" xmlns="http://www.w3.org/2000/svg">
<path d="M8.67057 1.33301C4.99724 1.33301 2.00391 4.32634 2.00391 7.99967C2.00391 11.673 4.99724 14.6663 8.67057 14.6663C12.3439 14.6663 15.3372 11.673 15.3372 7.99967C15.3372 4.32634 12.3439 1.33301 8.67057 1.33301ZM11.5706 10.3797C11.4772 10.5397 11.3106 10.6263 11.1372 10.6263C11.0506 10.6263 10.9639 10.6063 10.8839 10.553L8.81724 9.31967C8.30391 9.01301 7.92391 8.33967 7.92391 7.74634V5.01301C7.92391 4.73967 8.15057 4.51301 8.42391 4.51301C8.69724 4.51301 8.92391 4.73967 8.92391 5.01301V7.74634C8.92391 7.98634 9.12391 8.33967 9.33057 8.45967L11.3972 9.69301C11.6372 9.83301 11.7172 10.1397 11.5706 10.3797Z" fill="#FADE66"/>
</svg>
