<svg width="17" height="16" viewBox="0 0 17 16" fill="none" xmlns="http://www.w3.org/2000/svg">
<path d="M8.67057 1.33301C4.99724 1.33301 2.00391 4.32634 2.00391 7.99967C2.00391 11.673 4.99724 14.6663 8.67057 14.6663C12.3439 14.6663 15.3372 11.673 15.3372 7.99967C15.3372 4.32634 12.3439 1.33301 8.67057 1.33301ZM11.8572 6.46634L8.07724 10.2463C7.98391 10.3397 7.85724 10.393 7.72391 10.393C7.59057 10.393 7.46391 10.3397 7.37057 10.2463L5.48391 8.35967C5.29057 8.16634 5.29057 7.84634 5.48391 7.65301C5.67724 7.45967 5.99724 7.45967 6.19057 7.65301L7.72391 9.18634L11.1506 5.75967C11.3439 5.56634 11.6639 5.56634 11.8572 5.75967C12.0506 5.95301 12.0506 6.26634 11.8572 6.46634Z" fill="#D7FF82"/>
</svg>
