<svg width="14" height="14" viewBox="0 0 14 14" fill="none" xmlns="http://www.w3.org/2000/svg">
<path d="M7.0013 1.16638C3.78714 1.16638 1.16797 3.78555 1.16797 6.99971C1.16797 10.2139 3.78714 12.833 7.0013 12.833C10.2155 12.833 12.8346 10.2139 12.8346 6.99971C12.8346 3.78555 10.2155 1.16638 7.0013 1.16638ZM9.78964 5.65805L6.48214 8.96555C6.40047 9.04721 6.28964 9.09388 6.17297 9.09388C6.0563 9.09388 5.94547 9.04721 5.8638 8.96555L4.21297 7.31471C4.0438 7.14555 4.0438 6.86555 4.21297 6.69638C4.38214 6.52721 4.66214 6.52721 4.8313 6.69638L6.17297 8.03805L9.1713 5.03972C9.34047 4.87055 9.62047 4.87055 9.78964 5.03972C9.9588 5.20888 9.9588 5.48305 9.78964 5.65805Z" fill="#D7FF82"/>
</svg>
