<svg width="95" height="112" viewBox="0 0 95 112" fill="none" xmlns="http://www.w3.org/2000/svg">
<path d="M44.7188 43.4004L39.2736 43.6098L39.4996 73.6897L39.7388 102.215L45.4232 102.215L44.7188 43.4004Z" fill="#EE7835"/>
<path d="M42.815 44.9976C40.9108 43.1457 37.866 43.1882 36.0141 45.0923L11.9746 69.8114C10.1257 71.7126 10.1646 74.7517 12.0617 76.6048L36.9755 100.941C38.8816 102.803 41.9381 102.761 43.7915 100.846L67.8293 76.0179C69.6739 74.1126 69.6282 71.0737 67.727 69.2248L42.815 44.9976Z" fill="#FF3D4B"/>
<path d="M63.5668 81.5578L47.2926 100.792C46.3207 101.941 44.8674 102.569 43.3649 102.489L40.0797 102.313C38.8922 102.25 37.775 101.753 36.9329 100.913C27.77 91.7784 13.1615 77.6892 11.8836 76.4646C10.5131 75.1512 10.5112 73.6497 10.5811 73.0214L14.9792 73.7195L38.9695 75.5046C39.2371 75.5245 39.5058 75.522 39.7729 75.4971L59.4488 73.6627C63.7376 73.2628 66.349 78.2694 63.5668 81.5578Z" fill="#941F38"/>
<path d="M48.0025 44.9185C46.0983 43.0666 43.0535 43.1091 41.2016 45.0132L16.9556 69.9446C15.1037 71.8488 15.1462 74.8937 17.0503 76.7455L41.9817 100.992C43.8859 102.843 46.9308 102.801 48.7826 100.897L73.0287 75.9654C74.8805 74.0612 74.8381 71.0164 72.9339 69.1646L48.0025 44.9185Z" fill="#191916"/>
<mask id="path-5-outside-1_3296_41627" maskUnits="userSpaceOnUse" x="10.1343" y="37.9787" width="69.8154" height="69.8154" fill="black">
<rect fill="white" x="10.1343" y="37.9787" width="69.8154" height="69.8154"/>
<path fill-rule="evenodd" clip-rule="evenodd" d="M48.005 44.9185C46.1008 43.0667 43.056 43.1091 41.2041 45.0133L16.958 69.9447C15.1062 71.8488 15.1486 74.8937 17.0528 76.7455L41.9842 100.992C43.8884 102.843 46.9332 102.801 48.7851 100.897L73.0312 75.9654C74.883 74.0613 74.8406 71.0164 72.9364 69.1646L48.005 44.9185ZM51.8348 69.2362C51.8348 72.7041 54.6461 75.5153 58.114 75.5153C61.5818 75.5153 64.3931 72.7041 64.3931 69.2362C64.3931 65.7683 61.5818 62.9571 58.114 62.9571C54.6461 62.9571 51.8348 65.7683 51.8348 69.2362ZM42.6843 75.5153C39.2164 75.5153 36.4051 72.7041 36.4051 69.2362C36.4051 65.7683 39.2164 62.9571 42.6843 62.9571C46.1522 62.9571 48.9634 65.7683 48.9634 69.2362C48.9634 72.7041 46.1521 75.5153 42.6843 75.5153ZM51.2212 57.628L59.5986 59.2095L59.1895 61.3768L50.8121 59.7952L51.2212 57.628ZM37.586 60.0113L45.9634 58.4297L46.3726 60.5969L37.9952 62.1785L37.586 60.0113Z"/>
</mask>
<path fill-rule="evenodd" clip-rule="evenodd" d="M48.005 44.9185C46.1008 43.0667 43.056 43.1091 41.2041 45.0133L16.958 69.9447C15.1062 71.8488 15.1486 74.8937 17.0528 76.7455L41.9842 100.992C43.8884 102.843 46.9332 102.801 48.7851 100.897L73.0312 75.9654C74.883 74.0613 74.8406 71.0164 72.9364 69.1646L48.005 44.9185ZM51.8348 69.2362C51.8348 72.7041 54.6461 75.5153 58.114 75.5153C61.5818 75.5153 64.3931 72.7041 64.3931 69.2362C64.3931 65.7683 61.5818 62.9571 58.114 62.9571C54.6461 62.9571 51.8348 65.7683 51.8348 69.2362ZM42.6843 75.5153C39.2164 75.5153 36.4051 72.7041 36.4051 69.2362C36.4051 65.7683 39.2164 62.9571 42.6843 62.9571C46.1522 62.9571 48.9634 65.7683 48.9634 69.2362C48.9634 72.7041 46.1521 75.5153 42.6843 75.5153ZM51.2212 57.628L59.5986 59.2095L59.1895 61.3768L50.8121 59.7952L51.2212 57.628ZM37.586 60.0113L45.9634 58.4297L46.3726 60.5969L37.9952 62.1785L37.586 60.0113Z" fill="#F9F9F9"/>
<path d="M41.2041 45.0133L41.3478 45.153L41.3478 45.153L41.2041 45.0133ZM48.005 44.9185L47.8653 45.0622L47.8653 45.0622L48.005 44.9185ZM16.958 69.9447L17.1017 70.0844L17.1017 70.0844L16.958 69.9447ZM17.0528 76.7455L16.9131 76.8892L16.9131 76.8892L17.0528 76.7455ZM41.9842 100.992L42.1239 100.848L42.1239 100.848L41.9842 100.992ZM48.7851 100.897L48.9287 101.037L48.9287 101.037L48.7851 100.897ZM73.0312 75.9654L72.8875 75.8257L72.8875 75.8257L73.0312 75.9654ZM72.9364 69.1646L73.0761 69.0209L73.0761 69.0209L72.9364 69.1646ZM58.114 75.5153L58.114 75.3149L58.114 75.3149L58.114 75.5153ZM51.8348 69.2362L52.0352 69.2362V69.2362L51.8348 69.2362ZM36.4051 69.2362L36.2048 69.2362L36.2048 69.2362L36.4051 69.2362ZM42.6843 75.5153L42.6843 75.3149H42.6843L42.6843 75.5153ZM48.9634 69.2362L49.1638 69.2362V69.2362L48.9634 69.2362ZM59.5986 59.2095L59.6358 59.0126L59.8327 59.0498L59.7955 59.2467L59.5986 59.2095ZM51.2212 57.628L51.0243 57.5908L51.0615 57.3939L51.2584 57.431L51.2212 57.628ZM59.1895 61.3768L59.3864 61.414L59.3492 61.6109L59.1523 61.5737L59.1895 61.3768ZM50.8121 59.7952L50.7749 59.9921L50.578 59.9549L50.6152 59.758L50.8121 59.7952ZM45.9634 58.4297L45.9262 58.2328L46.1232 58.1956L46.1603 58.3925L45.9634 58.4297ZM37.586 60.0113L37.3891 60.0485L37.3519 59.8516L37.5488 59.8144L37.586 60.0113ZM46.3726 60.5969L46.5695 60.5598L46.6067 60.7567L46.4097 60.7939L46.3726 60.5969ZM37.9952 62.1785L38.0324 62.3754L37.8354 62.4126L37.7983 62.2157L37.9952 62.1785ZM41.0605 44.8736C42.9895 42.89 46.1612 42.8458 48.1447 44.7748L47.8653 45.0622C46.0404 43.2875 43.1225 43.3281 41.3478 45.153L41.0605 44.8736ZM16.8144 69.805L41.0605 44.8736L41.3478 45.153L17.1017 70.0844L16.8144 69.805ZM16.9131 76.8892C14.9296 74.9602 14.8854 71.7885 16.8144 69.805L17.1017 70.0844C15.327 71.9092 15.3677 74.8272 17.1925 76.6019L16.9131 76.8892ZM41.8445 101.135L16.9131 76.8892L17.1925 76.6019L42.1239 100.848L41.8445 101.135ZM48.9287 101.037C46.9997 103.02 43.828 103.064 41.8445 101.135L42.1239 100.848C43.9488 102.623 46.8667 102.582 48.6414 100.757L48.9287 101.037ZM73.1748 76.1051L48.9287 101.037L48.6414 100.757L72.8875 75.8257L73.1748 76.1051ZM73.0761 69.0209C75.0596 70.9499 75.1038 74.1216 73.1748 76.1051L72.8875 75.8257C74.6622 74.0009 74.6215 71.0829 72.7967 69.3082L73.0761 69.0209ZM48.1447 44.7748L73.0761 69.0209L72.7967 69.3082L47.8653 45.0622L48.1447 44.7748ZM58.114 75.7157C54.5354 75.7157 51.6344 72.8147 51.6344 69.2362L52.0352 69.2362C52.0352 72.5934 54.7568 75.3149 58.114 75.3149L58.114 75.7157ZM64.5935 69.2362C64.5935 72.8147 61.6925 75.7157 58.114 75.7157L58.114 75.3149C61.4712 75.3149 64.1927 72.5934 64.1927 69.2362L64.5935 69.2362ZM58.114 62.7567C61.6925 62.7567 64.5935 65.6576 64.5935 69.2362L64.1927 69.2362C64.1927 65.879 61.4712 63.1574 58.114 63.1574L58.114 62.7567ZM51.6344 69.2362C51.6344 65.6576 54.5354 62.7567 58.114 62.7567L58.114 63.1574C54.7568 63.1574 52.0352 65.879 52.0352 69.2362L51.6344 69.2362ZM36.6055 69.2362C36.6055 72.5934 39.3271 75.3149 42.6843 75.3149L42.6843 75.7157C39.1057 75.7157 36.2048 72.8147 36.2048 69.2362L36.6055 69.2362ZM42.6843 63.1574C39.3271 63.1574 36.6055 65.879 36.6055 69.2362L36.2048 69.2362C36.2048 65.6577 39.1057 62.7567 42.6843 62.7567L42.6843 63.1574ZM48.763 69.2362C48.763 65.879 46.0415 63.1574 42.6843 63.1574L42.6843 62.7567C46.2628 62.7567 49.1638 65.6576 49.1638 69.2362L48.763 69.2362ZM42.6843 75.3149C46.0415 75.3149 48.763 72.5934 48.763 69.2362L49.1638 69.2362C49.1638 72.8147 46.2628 75.7157 42.6843 75.7157L42.6843 75.3149ZM59.5614 59.4065L51.1841 57.8249L51.2584 57.431L59.6358 59.0126L59.5614 59.4065ZM58.9926 61.3396L59.4017 59.1724L59.7955 59.2467L59.3864 61.414L58.9926 61.3396ZM50.8492 59.5983L59.2266 61.1799L59.1523 61.5737L50.7749 59.9921L50.8492 59.5983ZM51.4181 57.6651L51.009 59.8324L50.6152 59.758L51.0243 57.5908L51.4181 57.6651ZM46.0006 58.6266L37.6232 60.2082L37.5488 59.8144L45.9262 58.2328L46.0006 58.6266ZM46.1757 60.6341L45.7665 58.4669L46.1603 58.3925L46.5695 60.5598L46.1757 60.6341ZM37.958 61.9816L46.3354 60.4L46.4097 60.7939L38.0324 62.3754L37.958 61.9816ZM37.7829 59.9741L38.1921 62.1414L37.7983 62.2157L37.3891 60.0485L37.7829 59.9741Z" fill="#191916" mask="url(#path-5-outside-1_3296_41627)"/>
<ellipse cx="2.07968" cy="2.71958" rx="2.07968" ry="2.71958" transform="matrix(-0.988722 0.149765 0.149765 0.988722 49.2383 81.3232)" fill="#191916"/>
<path d="M48.5742 90.9038C49.476 91.0079 51.4599 90.7165 52.1813 88.7178" stroke="#191916" stroke-width="0.200391" stroke-linecap="round"/>
<path d="M51.7769 84.9924C50.6402 90.1288 46.8666 89.2724 45.0431 88.1605C45.0251 88.1495 45.0054 88.1702 45.0167 88.1879C45.5933 89.0872 47.0904 90.3052 49.5382 89.8353C52.0051 89.3619 52.153 86.5803 51.816 84.9892C51.8116 84.9682 51.7815 84.9714 51.7769 84.9924Z" fill="#191916" stroke="#191916" stroke-width="0.200391"/>
<path d="M46.5405 80.2917C45.1395 80.5147 44.6312 81.6068 44.5732 82.1608C44.5708 82.1838 44.532 82.1892 44.5249 82.1672C44.3018 81.4687 44.2311 80.6815 44.9499 80.1095C45.5072 79.6661 48.4492 79.988 46.5405 80.2917Z" fill="#191916" stroke="#191916" stroke-width="0.200391"/>
<ellipse cx="3.03961" cy="2.19813" rx="3.03961" ry="2.19813" transform="matrix(-0.611093 -0.791559 -0.791559 0.611093 64.2031 68.9141)" fill="#F9F9F9"/>
<circle cx="0.700609" cy="0.700609" r="0.700609" transform="matrix(-0.611093 -0.791559 -0.791559 0.611093 57.5781 72.8643)" fill="#F9F9F9"/>
<ellipse cx="3.03961" cy="2.19813" rx="3.03961" ry="2.19813" transform="matrix(-0.611093 -0.791559 -0.791559 0.611093 48.5703 68.9141)" fill="#F9F9F9"/>
<circle cx="0.700609" cy="0.700609" r="0.700609" transform="matrix(-0.611093 -0.791559 -0.791559 0.611093 41.9453 72.8643)" fill="#F9F9F9"/>
<path fill-rule="evenodd" clip-rule="evenodd" d="M72.5 47C84.9264 47 95 36.9264 95 24.5C95 12.0736 84.9264 2 72.5 2C60.0736 2 50 12.0736 50 24.5C50 31.6342 53.3203 37.9929 58.5 42.115V51.3258C58.5 52.0825 59.3079 52.565 59.9741 52.2063L69.6637 46.9888C69.739 46.9482 69.8062 46.9006 69.8652 46.8474C70.7295 46.9482 71.6087 47 72.5 47Z" fill="#941F38"/>
<mask id="path-16-inside-2_3296_41627" fill="white">
<path fill-rule="evenodd" clip-rule="evenodd" d="M70.5 45C82.9264 45 93 34.9264 93 22.5C93 10.0736 82.9264 0 70.5 0C58.0736 0 48 10.0736 48 22.5C48 29.6342 51.3203 35.9929 56.5 40.115V49.3258C56.5 50.0825 57.3079 50.565 57.9741 50.2063L67.6637 44.9888C67.739 44.9482 67.8062 44.9006 67.8652 44.8474C68.7295 44.9482 69.6087 45 70.5 45Z"/>
</mask>
<path fill-rule="evenodd" clip-rule="evenodd" d="M70.5 45C82.9264 45 93 34.9264 93 22.5C93 10.0736 82.9264 0 70.5 0C58.0736 0 48 10.0736 48 22.5C48 29.6342 51.3203 35.9929 56.5 40.115V49.3258C56.5 50.0825 57.3079 50.565 57.9741 50.2063L67.6637 44.9888C67.739 44.9482 67.8062 44.9006 67.8652 44.8474C68.7295 44.9482 69.6087 45 70.5 45Z" fill="#FF3D4B"/>
<path d="M56.5 40.115H57V39.8739L56.8114 39.7238L56.5 40.115ZM57.9741 50.2063L57.7371 49.766L57.737 49.766L57.9741 50.2063ZM67.6637 44.9888L67.4266 44.5486L67.4266 44.5486L67.6637 44.9888ZM67.8652 44.8474L67.9232 44.3507L67.6985 44.3245L67.5305 44.4759L67.8652 44.8474ZM92.5 22.5C92.5 34.6503 82.6503 44.5 70.5 44.5V45.5C83.2025 45.5 93.5 35.2025 93.5 22.5H92.5ZM70.5 0.5C82.6503 0.5 92.5 10.3497 92.5 22.5H93.5C93.5 9.79745 83.2025 -0.5 70.5 -0.5V0.5ZM48.5 22.5C48.5 10.3497 58.3497 0.5 70.5 0.5V-0.5C57.7975 -0.5 47.5 9.79745 47.5 22.5H48.5ZM56.8114 39.7238C51.7458 35.6924 48.5 29.4754 48.5 22.5H47.5C47.5 29.793 50.8949 36.2933 56.1886 40.5063L56.8114 39.7238ZM57 49.3258V40.115H56V49.3258H57ZM57.737 49.766C57.4039 49.9454 57 49.7041 57 49.3258H56C56 50.4608 57.2118 51.1846 58.2112 50.6465L57.737 49.766ZM67.4266 44.5486L57.7371 49.766L58.2112 50.6465L67.9007 45.429L67.4266 44.5486ZM67.5305 44.4759C67.5015 44.5021 67.4671 44.5267 67.4266 44.5486L67.9007 45.429C68.0109 45.3697 68.111 45.299 68.1999 45.2188L67.5305 44.4759ZM70.5 44.5C69.6281 44.5 68.7682 44.4493 67.9232 44.3507L67.8073 45.344C68.6907 45.447 69.5893 45.5 70.5 45.5V44.5Z" fill="black" mask="url(#path-16-inside-2_3296_41627)"/>
<path d="M77 17L65 29M65 17L77 29" stroke="white" stroke-width="2.5" stroke-linecap="round" stroke-linejoin="round"/>
</svg>
