<svg width="85" height="116" viewBox="0 0 85 116" fill="none" xmlns="http://www.w3.org/2000/svg">
<path d="M35.1643 50.7797L30.8626 46.4779C30.606 46.2213 30.2849 46.0685 29.9514 46.0194L35.1324 46.4779L35.1643 50.7797Z" fill="#008A17"/>
<path fill-rule="evenodd" clip-rule="evenodd" d="M1.79525 81.2457C1.48918 76.7482 3.01767 72.1493 6.38073 68.6653L6.37884 68.6635L28.5644 46.4779C28.8989 46.1434 29.3431 45.9852 29.7813 46.0034C29.8382 46.0057 29.895 46.0111 29.9514 46.0194C30.2849 46.0685 30.606 46.2213 30.8626 46.4779L35.1643 50.7797V82.1598H7.23341L1.79525 81.2457Z" fill="#008A17"/>
<path d="M25.9118 94.7358C19.6885 97.9984 11.8194 97.0145 6.58883 91.7839C3.65437 88.8495 2.05651 85.0845 1.79525 81.2457L7.23341 82.1598H35.1643V50.7797L53.0481 68.6635L53.0421 68.6695C53.1132 68.7381 53.1839 68.8076 53.2541 68.8778C59.6966 75.3203 59.6966 85.7656 53.2541 92.2082C47.9707 97.4915 39.9954 98.4421 33.7433 95.06C34.9175 97.346 36.8547 100.296 38.4461 102.332H21.0093C22.6704 100.206 24.7812 97.1263 25.9118 94.7358Z" fill="#003B0A"/>
<path d="M53.231 68.6635L53.2263 68.6682C53.2662 68.7073 53.3059 68.7467 53.3455 68.7863C59.8385 75.2793 59.8385 85.8066 53.3455 92.2996C48.1238 97.5214 40.2931 98.5436 34.0499 95.3669C35.2313 97.5868 37.0446 100.329 38.5481 102.253L38.7114 102.462H38.4461H21.0093H20.744L20.9073 102.253C22.4868 100.231 24.4701 97.3499 25.627 95.026C19.4115 98.1009 11.673 97.051 6.49737 91.8754C3.56593 88.944 1.95789 85.1899 1.67345 81.3564L1.67313 81.3563L1.6662 81.2545L1.65508 81.0909L1.65589 81.0911C1.39732 76.6502 2.91187 72.1249 6.19974 68.6673L6.19591 68.6635L6.28737 68.572L28.4729 46.3865C28.8341 46.0253 29.3138 45.8545 29.7866 45.8741C29.8468 45.8766 29.9068 45.8822 29.9665 45.8908L35.1438 46.3491L35.2609 46.3594L35.2618 46.477L35.2933 50.7257L35.2937 50.7261L53.1396 68.572L53.231 68.6635Z" stroke="black" stroke-width="0.258697"/>
<mask id="path-3-inside-1_3261_51628" fill="white">
<path fill-rule="evenodd" clip-rule="evenodd" d="M11.9322 68.8647C11.8424 68.9505 11.7534 69.0376 11.6652 69.1258C5.22269 75.5683 5.22269 86.0137 11.6652 92.4562C16.8961 97.6871 24.7658 98.6708 30.9892 95.4075C29.8586 97.7983 28.4613 100.276 26.7999 102.402L43 102.402C41.4083 100.365 39.9941 98.0177 38.8198 95.7313C45.072 99.1141 53.0479 98.1637 58.3315 92.88C64.774 86.4375 64.774 75.9922 58.3315 69.5496C58.2622 69.4803 58.1924 69.4118 58.1222 69.3439L58.1302 69.3359L36.0761 47.2818C35.3689 46.5746 34.2223 46.5746 33.5151 47.2818L11.9322 68.8647Z"/>
</mask>
<path fill-rule="evenodd" clip-rule="evenodd" d="M11.9322 68.8647C11.8424 68.9505 11.7534 69.0376 11.6652 69.1258C5.22269 75.5683 5.22269 86.0137 11.6652 92.4562C16.8961 97.6871 24.7658 98.6708 30.9892 95.4075C29.8586 97.7983 28.4613 100.276 26.7999 102.402L43 102.402C41.4083 100.365 39.9941 98.0177 38.8198 95.7313C45.072 99.1141 53.0479 98.1637 58.3315 92.88C64.774 86.4375 64.774 75.9922 58.3315 69.5496C58.2622 69.4803 58.1924 69.4118 58.1222 69.3439L58.1302 69.3359L36.0761 47.2818C35.3689 46.5746 34.2223 46.5746 33.5151 47.2818L11.9322 68.8647Z" fill="#131311"/>
<path d="M11.9322 68.8647L12.1152 69.0477L12.111 69.0516L11.9322 68.8647ZM30.9892 95.4075L30.8691 95.1784L31.5534 94.8195L31.2231 95.5181L30.9892 95.4075ZM26.7999 102.402L26.7999 102.661L26.2695 102.661L26.5961 102.243L26.7999 102.402ZM43 102.402L43.2038 102.243L43.5305 102.661L43 102.661V102.402ZM38.8198 95.7313L38.5897 95.8495L38.2079 95.1061L38.9429 95.5038L38.8198 95.7313ZM58.1222 69.3439L57.9425 69.53L57.7531 69.3472L57.9393 69.161L58.1222 69.3439ZM58.1302 69.3359L58.3131 69.153L58.496 69.3359L58.3131 69.5189L58.1302 69.3359ZM36.0761 47.2818L36.259 47.0989L36.0761 47.2818ZM33.5151 47.2818L33.698 47.4647L33.5151 47.2818ZM11.4823 68.9429C11.5719 68.8533 11.6622 68.7649 11.7534 68.6777L12.111 69.0516C12.0227 69.1361 11.935 69.2218 11.8481 69.3087L11.4823 68.9429ZM11.4823 92.6391C4.93873 86.0956 4.93873 75.4864 11.4823 68.9429L11.8481 69.3087C5.50664 75.6502 5.50664 85.9318 11.8481 92.2733L11.4823 92.6391ZM31.1093 95.6366C24.7885 98.951 16.7954 97.9523 11.4823 92.6391L11.8481 92.2733C16.9967 97.4219 24.743 98.3907 30.8691 95.1784L31.1093 95.6366ZM31.2231 95.5181C30.0874 97.9195 28.6807 100.415 27.0038 102.561L26.5961 102.243C28.2418 100.137 29.6297 97.6771 30.7553 95.2969L31.2231 95.5181ZM26.7999 102.143L43 102.143V102.661L26.7999 102.661L26.7999 102.143ZM42.7962 102.561C41.1917 100.508 39.7691 98.1459 38.5897 95.8495L39.0499 95.6131C40.2191 97.8896 41.6248 100.222 43.2038 102.243L42.7962 102.561ZM58.5145 93.063C53.1477 98.4297 45.0468 99.3946 38.6967 95.9589L38.9429 95.5038C45.0972 98.8336 52.9481 97.8976 58.1486 92.6971L58.5145 93.063ZM58.5145 69.3667C65.058 75.9103 65.058 86.5194 58.5145 93.063L58.1486 92.6971C64.4901 86.3556 64.4901 76.0741 58.1486 69.7326L58.5145 69.3667ZM58.3019 69.1578C58.3732 69.2267 58.4441 69.2963 58.5145 69.3667L58.1486 69.7326C58.0803 69.6643 58.0116 69.5968 57.9425 69.53L58.3019 69.1578ZM58.3131 69.5189L58.3051 69.5269L57.9393 69.161L57.9473 69.153L58.3131 69.5189ZM36.259 47.0989L58.3131 69.153L57.9473 69.5189L35.8931 47.4647L36.259 47.0989ZM33.3322 47.0989C34.1404 46.2906 35.4508 46.2906 36.259 47.0989L35.8931 47.4647C35.287 46.8586 34.3042 46.8586 33.698 47.4647L33.3322 47.0989ZM11.7493 68.6818L33.3322 47.0989L33.698 47.4647L12.1151 69.0476L11.7493 68.6818Z" fill="black" mask="url(#path-3-inside-1_3261_51628)"/>
<path fill-rule="evenodd" clip-rule="evenodd" d="M12.2844 68.7806C12.1947 68.8664 12.1057 68.9534 12.0174 69.0417C5.57491 75.4842 5.57491 85.9296 12.0174 92.3721C17.2483 97.6029 25.118 98.5867 31.3414 95.3234C30.2108 97.7142 28.8135 100.192 27.1521 102.318L43.3522 102.318C41.7605 100.281 40.3463 97.9336 39.172 95.6472C45.4242 99.0299 53.4001 98.0795 58.6837 92.7959C65.1263 86.3534 65.1263 75.908 58.6837 69.4655C58.6144 69.3962 58.5446 69.3276 58.4744 69.2598L58.4824 69.2518L36.6112 47.3806C35.803 46.5724 34.4926 46.5724 33.6844 47.3806L12.2844 68.7806ZM40.3225 76.3585C40.3225 79.8282 42.9422 82.686 46.3116 83.0619C46.8229 82.169 47.7963 81.3772 49.0439 80.9501C50.1373 80.5758 51.2358 80.5518 52.1309 80.8156C53.178 79.627 53.8132 78.0669 53.8132 76.3585C53.8132 72.6331 50.7932 69.6131 47.0678 69.6131C43.3425 69.6131 40.3225 72.6331 40.3225 76.3585ZM50.0036 78.2654C48.4649 78.2654 47.2175 77.0181 47.2175 75.4793C47.2175 73.9406 48.4649 72.6932 50.0036 72.6932C51.5423 72.6932 52.7897 73.9406 52.7897 75.4793C52.7897 77.0181 51.5423 78.2654 50.0036 78.2654ZM29.8976 83.0619C26.5282 82.686 23.9084 79.8282 23.9084 76.3585C23.9084 72.6331 26.9284 69.6131 30.6538 69.6131C34.3791 69.6131 37.3991 72.6331 37.3991 76.3585C37.3991 78.0669 36.7639 79.627 35.7169 80.8156C34.8217 80.5518 33.7232 80.5758 32.6299 80.9501C31.3822 81.3772 30.4088 82.169 29.8976 83.0619ZM30.8034 75.4793C30.8034 77.0181 32.0508 78.2654 33.5895 78.2654C35.1283 78.2654 36.3757 77.0181 36.3757 75.4793C36.3757 73.9406 35.1283 72.6932 33.5895 72.6932C32.0508 72.6932 30.8034 73.9406 30.8034 75.4793ZM52.7897 65.3426L41.0823 62.8667L40.3617 66.2744L52.0691 68.7503L52.7897 65.3426ZM32.4649 62.9279L21.1257 66.7508L22.2433 70.0658L33.5825 66.2429L32.4649 62.9279ZM52.6401 83.103C52.6401 83.4269 52.9027 83.6895 53.2266 83.6895C53.5505 83.6895 53.8132 83.4269 53.8132 83.103C53.8132 82.7791 53.5505 82.5164 53.2266 82.5164C52.9027 82.5164 52.6401 82.7791 52.6401 83.103ZM51.1719 83.6895C50.848 83.6895 50.5854 83.4269 50.5854 83.103C50.5854 82.7791 50.848 82.5164 51.1719 82.5164C51.4959 82.5164 51.7585 82.7791 51.7585 83.103C51.7585 83.4269 51.4959 83.6895 51.1719 83.6895ZM51.4682 84.7143C51.4682 85.0383 51.7308 85.3009 52.0547 85.3009C52.3787 85.3009 52.6413 85.0383 52.6413 84.7143C52.6413 84.3904 52.3787 84.1278 52.0547 84.1278C51.7308 84.1278 51.4682 84.3904 51.4682 84.7143ZM36.6641 83.6895C36.3402 83.6895 36.0776 83.4269 36.0776 83.103C36.0776 82.7791 36.3402 82.5164 36.6641 82.5164C36.9881 82.5164 37.2507 82.7791 37.2507 83.103C37.2507 83.4269 36.9881 83.6895 36.6641 83.6895ZM34.0229 83.103C34.0229 83.4269 34.2855 83.6895 34.6094 83.6895C34.9334 83.6895 35.196 83.4269 35.196 83.103C35.196 82.7791 34.9334 82.5164 34.6094 82.5164C34.2855 82.5164 34.0229 82.7791 34.0229 83.103ZM35.4922 85.3009C35.1683 85.3009 34.9057 85.0383 34.9057 84.7143C34.9057 84.3904 35.1683 84.1278 35.4922 84.1278C35.8162 84.1278 36.0788 84.3904 36.0788 84.7143C36.0788 85.0383 35.8162 85.3009 35.4922 85.3009Z" fill="#F9F9F9"/>
<path d="M35.875 87.6543C37.1339 89.4536 40.4043 91.9422 43.415 87.5017" stroke="#191720" stroke-width="1.75"/>
<path fill-rule="evenodd" clip-rule="evenodd" d="M62.5 47C74.9264 47 85 36.9264 85 24.5C85 12.0736 74.9264 2 62.5 2C50.0736 2 40 12.0736 40 24.5C40 31.6342 43.3203 37.9929 48.5 42.115V51.3258C48.5 52.0825 49.3079 52.565 49.9741 52.2063L59.6637 46.9888C59.739 46.9482 59.8062 46.9006 59.8652 46.8474C60.7295 46.9482 61.6087 47 62.5 47Z" fill="#003B0A"/>
<mask id="path-8-inside-2_3261_51628" fill="white">
<path fill-rule="evenodd" clip-rule="evenodd" d="M60.5 45C72.9264 45 83 34.9264 83 22.5C83 10.0736 72.9264 0 60.5 0C48.0736 0 38 10.0736 38 22.5C38 29.6342 41.3203 35.9929 46.5 40.115V49.3258C46.5 50.0825 47.3079 50.565 47.9741 50.2063L57.6637 44.9888C57.739 44.9482 57.8062 44.9006 57.8652 44.8474C58.7295 44.9482 59.6087 45 60.5 45Z"/>
</mask>
<path fill-rule="evenodd" clip-rule="evenodd" d="M60.5 45C72.9264 45 83 34.9264 83 22.5C83 10.0736 72.9264 0 60.5 0C48.0736 0 38 10.0736 38 22.5C38 29.6342 41.3203 35.9929 46.5 40.115V49.3258C46.5 50.0825 47.3079 50.565 47.9741 50.2063L57.6637 44.9888C57.739 44.9482 57.8062 44.9006 57.8652 44.8474C58.7295 44.9482 59.6087 45 60.5 45Z" fill="#478A14"/>
<path d="M46.5 40.115H47V39.8739L46.8114 39.7238L46.5 40.115ZM47.9741 50.2063L47.7371 49.766H47.737L47.9741 50.2063ZM57.6637 44.9888L57.4266 44.5486L57.6637 44.9888ZM57.8652 44.8474L57.9232 44.3507L57.6985 44.3245L57.5305 44.4759L57.8652 44.8474ZM82.5 22.5C82.5 34.6503 72.6503 44.5 60.5 44.5V45.5C73.2025 45.5 83.5 35.2025 83.5 22.5H82.5ZM60.5 0.5C72.6503 0.5 82.5 10.3497 82.5 22.5H83.5C83.5 9.79745 73.2025 -0.5 60.5 -0.5V0.5ZM38.5 22.5C38.5 10.3497 48.3497 0.5 60.5 0.5V-0.5C47.7975 -0.5 37.5 9.79745 37.5 22.5H38.5ZM46.8114 39.7238C41.7458 35.6924 38.5 29.4754 38.5 22.5H37.5C37.5 29.793 40.8949 36.2933 46.1886 40.5063L46.8114 39.7238ZM47 49.3258V40.115H46V49.3258H47ZM47.737 49.766C47.4039 49.9454 47 49.7041 47 49.3258H46C46 50.4608 47.2118 51.1846 48.2112 50.6465L47.737 49.766ZM57.4266 44.5486L47.7371 49.766L48.2112 50.6465L57.9007 45.429L57.4266 44.5486ZM57.5305 44.4759C57.5015 44.5021 57.4671 44.5267 57.4266 44.5486L57.9007 45.429C58.0109 45.3697 58.111 45.299 58.1999 45.2188L57.5305 44.4759ZM60.5 44.5C59.6281 44.5 58.7682 44.4493 57.9232 44.3507L57.8073 45.344C58.6907 45.447 59.5893 45.5 60.5 45.5V44.5Z" fill="black" mask="url(#path-8-inside-2_3261_51628)"/>
<path d="M69 17L58 28L53 23" stroke="white" stroke-width="2.5" stroke-linecap="round" stroke-linejoin="round"/>
</svg>
