<svg width="119" height="40" viewBox="0 0 119 40" fill="none" xmlns="http://www.w3.org/2000/svg">
<rect width="118" height="40" transform="matrix(1 0 0.000410954 1 0 0)" fill="#D7FF82"/>
<path d="M11.1816 22.1908C11.1356 22.1508 11.1024 22.1003 11.0855 22.0445C11.0686 21.9887 11.0687 21.9296 11.0856 21.8733L11.3865 20.8762C11.3912 20.859 11.3896 20.8409 11.3819 20.8248C11.3742 20.8086 11.3608 20.7952 11.3439 20.7867C11.3269 20.7781 11.3072 20.7748 11.2878 20.7773C11.2684 20.7798 11.2503 20.788 11.2363 20.8005L10.4416 21.5487C10.3968 21.5909 10.3405 21.6216 10.2785 21.6377C10.2165 21.6538 10.1511 21.6546 10.0892 21.6401L8.99051 21.3826C8.97149 21.3785 8.95142 21.3802 8.93336 21.3873C8.91531 21.3945 8.90026 21.4068 8.89052 21.4223C8.88078 21.4378 8.87688 21.4557 8.87941 21.4733C8.88194 21.4909 8.89076 21.5071 8.90454 21.5195L9.72083 22.227C9.76687 22.267 9.80005 22.3175 9.81693 22.3733C9.83381 22.4291 9.83376 22.4882 9.8168 22.5445L9.51581 23.5415C9.51094 23.5588 9.51245 23.577 9.52012 23.5933C9.52779 23.6095 9.54119 23.623 9.55827 23.6316C9.57535 23.6402 9.59516 23.6435 9.61467 23.6409C9.63417 23.6383 9.6523 23.6301 9.66626 23.6173L10.4607 22.869C10.5055 22.8268 10.5619 22.7961 10.6239 22.78C10.6859 22.764 10.7513 22.7631 10.8133 22.7777L11.9119 23.0352C11.931 23.0393 11.951 23.0376 11.9691 23.0305C11.9871 23.0233 12.0022 23.011 12.0119 22.9955C12.0217 22.98 12.0256 22.9621 12.023 22.9445C12.0205 22.9269 12.0117 22.9107 11.9979 22.8983L11.1816 22.1908Z" fill="#478A14"/>
<path d="M102.57 30.6617C102.46 30.5455 102.387 30.4042 102.358 30.2527C102.329 30.1012 102.346 29.9449 102.407 29.8001L103.483 27.2335C103.5 27.1891 103.501 27.1409 103.485 27.0964C103.469 27.0519 103.438 27.0135 103.396 26.9869C103.353 26.9603 103.302 26.9471 103.25 26.9492C103.199 26.9514 103.149 26.9687 103.108 26.9987L100.801 28.7926C100.671 28.8938 100.513 28.962 100.345 28.9901C100.178 29.0183 100.005 29.0054 99.8457 28.9527L97.022 28.0172C96.973 28.002 96.9197 28.0018 96.87 28.0165C96.8204 28.0313 96.7772 28.0603 96.7472 28.0991C96.7171 28.1379 96.7017 28.1843 96.7034 28.2313C96.7051 28.2783 96.7238 28.3233 96.7565 28.3594L98.7081 30.4191C98.8182 30.5353 98.8914 30.6765 98.92 30.828C98.9487 30.9796 98.9318 31.1358 98.8712 31.2806L97.795 33.847C97.7772 33.8916 97.776 33.94 97.7916 33.9849C97.8072 34.0297 97.8388 34.0684 97.8813 34.0951C97.9239 34.1219 97.9752 34.1351 98.0274 34.1328C98.0796 34.1305 98.1297 34.1128 98.1701 34.0824L100.477 32.288C100.607 32.1868 100.764 32.1185 100.932 32.0904C101.1 32.0623 101.273 32.0753 101.432 32.1281L104.256 33.0636C104.305 33.0788 104.358 33.079 104.408 33.0642C104.458 33.0494 104.501 33.0204 104.531 32.9817C104.561 32.9429 104.576 32.8964 104.575 32.8494C104.573 32.8024 104.554 32.7575 104.521 32.7214L102.57 30.6617Z" fill="#478A14"/>
<path d="M29.9045 7.39231C29.9183 7.29997 29.9591 7.21228 30.0227 7.13838C30.0863 7.06447 30.1704 7.00704 30.2663 6.97206L31.9659 6.35216C31.9948 6.34089 32.019 6.32145 32.0348 6.29679C32.0506 6.27214 32.0571 6.24362 32.0534 6.21556C32.0497 6.18749 32.036 6.16142 32.0143 6.1413C31.9926 6.12118 31.9641 6.1081 31.9332 6.10405L30.1258 5.90766C30.0239 5.89661 29.9275 5.86103 29.8466 5.80462C29.7658 5.74822 29.7035 5.67305 29.6662 5.58693L29.0051 4.05928C28.9931 4.0332 28.9719 4.0115 28.9448 3.99749C28.9177 3.98348 28.8862 3.97794 28.855 3.98171C28.8238 3.98548 28.7947 3.99835 28.7721 4.01836C28.7495 4.03837 28.7347 4.06443 28.7298 4.09254L28.4869 5.72943C28.4731 5.82177 28.4323 5.90945 28.3687 5.98336C28.3051 6.05727 28.221 6.1147 28.1251 6.14968L26.4254 6.76931C26.3963 6.78046 26.3718 6.7999 26.3558 6.82465C26.3399 6.84939 26.3332 6.87808 26.3369 6.9063C26.3407 6.93453 26.3546 6.96073 26.3765 6.9809C26.3984 7.00107 26.4271 7.01408 26.4583 7.01794L28.2656 7.21382C28.3675 7.22489 28.464 7.2605 28.5448 7.31696C28.6256 7.37341 28.6879 7.44863 28.7252 7.5348L29.3863 9.06245C29.3983 9.08854 29.4195 9.11024 29.4466 9.12424C29.4737 9.13825 29.5052 9.14379 29.5364 9.14002C29.5676 9.13626 29.5967 9.12338 29.6193 9.10337C29.6419 9.08336 29.6567 9.05731 29.6616 9.02919L29.9045 7.39231Z" fill="#478A14"/>
<ellipse opacity="0.4" cx="0.684629" cy="0.576081" rx="0.684629" ry="0.576081" transform="matrix(-0.772049 0.635563 0.637687 0.770296 20.0566 22)" fill="#478A14"/>
<ellipse opacity="0.4" cx="1.02694" cy="0.864121" rx="1.02694" ry="0.864121" transform="matrix(-0.772049 0.635563 0.637687 0.770296 17.7227 34.3543)" fill="#478A14"/>
<ellipse opacity="0.4" cx="0.684629" cy="0.576081" rx="0.684629" ry="0.576081" transform="matrix(-0.772049 0.635563 0.637687 0.770296 14.0566 15)" fill="#478A14"/>
<ellipse opacity="0.4" cx="0.684629" cy="0.576081" rx="0.684629" ry="0.576081" transform="matrix(-0.772049 0.635563 0.637687 0.770296 17.0566 7)" fill="#478A14"/>
</svg>
