<svg width="68" height="64" viewBox="0 0 68 64" fill="none" xmlns="http://www.w3.org/2000/svg">
<rect width="68" height="64" fill="#D7FF82"/>
<path d="M60.5815 34.124C60.4714 34.0078 60.3983 33.8666 60.3696 33.7151C60.3409 33.5636 60.3578 33.4073 60.4185 33.2625L61.4943 30.6959C61.5116 30.6514 61.5124 30.6033 61.4967 30.5588C61.481 30.5143 61.4496 30.4758 61.4073 30.4493C61.3649 30.4227 61.314 30.4095 61.2621 30.4116C61.2102 30.4137 61.1603 30.4311 61.1199 30.461L58.8124 32.2549C58.6823 32.3561 58.5251 32.4243 58.3572 32.4525C58.1892 32.4806 58.0167 32.4677 57.8574 32.4151L55.0338 31.4795C54.9848 31.4643 54.9314 31.4641 54.8817 31.4789C54.8321 31.4937 54.789 31.5227 54.7589 31.5615C54.7288 31.6002 54.7134 31.6467 54.7151 31.6937C54.7168 31.7407 54.7355 31.7857 54.7683 31.8218L56.7198 33.8814C56.8299 33.9977 56.9031 34.1389 56.9318 34.2904C56.9604 34.4419 56.9435 34.5982 56.8829 34.743L55.8067 37.3094C55.7889 37.354 55.7878 37.4024 55.8034 37.4472C55.819 37.492 55.8505 37.5308 55.8931 37.5575C55.9357 37.5842 55.987 37.5974 56.0391 37.5951C56.0913 37.5928 56.1414 37.5751 56.1818 37.5447L58.4885 35.7503C58.6187 35.6491 58.776 35.5809 58.944 35.5528C59.112 35.5247 59.2846 35.5376 59.4439 35.5904L62.2676 36.5259C62.3166 36.5412 62.37 36.5414 62.4196 36.5266C62.4692 36.5118 62.5124 36.4828 62.5425 36.444C62.5725 36.4052 62.5879 36.3588 62.5862 36.3118C62.5845 36.2648 62.5659 36.2198 62.5331 36.1837L60.5815 34.124Z" fill="#478A14"/>
<path d="M8.77341 21.6843C8.72738 21.6473 8.69419 21.6005 8.67731 21.5487C8.66044 21.4969 8.66048 21.4421 8.67744 21.3899L8.97827 20.465C8.98298 20.4491 8.98136 20.4323 8.97367 20.4173C8.96598 20.4023 8.95263 20.3899 8.93565 20.382C8.91867 20.374 8.89899 20.371 8.87959 20.3733C8.86018 20.3757 8.84212 20.3832 8.82814 20.3948L8.03338 21.0888C7.98857 21.1279 7.93226 21.1564 7.87028 21.1713C7.80831 21.1863 7.74295 21.187 7.68098 21.1736L6.58231 20.9347C6.56328 20.9309 6.54321 20.9325 6.52516 20.9391C6.50711 20.9458 6.49206 20.9572 6.48232 20.9716C6.47258 20.986 6.46867 21.0026 6.4712 21.0189C6.47373 21.0351 6.48256 21.0502 6.49633 21.0618L7.31262 21.718C7.35866 21.755 7.39185 21.8018 7.40872 21.8536C7.4256 21.9054 7.42556 21.9602 7.40859 22.0124L7.10761 22.9372C7.10273 22.9532 7.10425 22.9701 7.11191 22.9852C7.11958 23.0003 7.13298 23.0128 7.15006 23.0208C7.16714 23.0288 7.18696 23.0318 7.20646 23.0294C7.22597 23.027 7.24409 23.0193 7.25805 23.0075L8.0525 22.3135C8.09733 22.2743 8.15368 22.2458 8.21568 22.2309C8.27768 22.216 8.34308 22.2152 8.40506 22.2287L9.50373 22.4676C9.52275 22.4714 9.54282 22.4698 9.56088 22.4632C9.57893 22.4565 9.59398 22.4451 9.60372 22.4307C9.61346 22.4163 9.61736 22.3997 9.61483 22.3834C9.6123 22.3672 9.60348 22.3521 9.5897 22.3406L8.77341 21.6843Z" fill="#478A14"/>
<path d="M27.4963 7.95641C27.5101 7.87076 27.5509 7.78943 27.6145 7.72088C27.6781 7.65233 27.7622 7.59906 27.8581 7.56662L29.5577 6.99164C29.5866 6.98118 29.6108 6.96315 29.6266 6.94028C29.6424 6.91742 29.6489 6.89096 29.6452 6.86493C29.6415 6.8389 29.6278 6.81472 29.6061 6.79606C29.5844 6.77739 29.5559 6.76526 29.525 6.76151L27.7176 6.57935C27.6157 6.56909 27.5193 6.53609 27.4384 6.48378C27.3576 6.43146 27.2953 6.36174 27.2579 6.28186L26.5969 4.86491C26.5849 4.84072 26.5637 4.82059 26.5366 4.8076C26.5095 4.79461 26.478 4.78947 26.4468 4.79296C26.4156 4.79646 26.3865 4.8084 26.3639 4.82696C26.3413 4.84552 26.3264 4.86968 26.3216 4.89576L26.0787 6.41403C26.0649 6.49968 26.0241 6.58101 25.9605 6.64956C25.8969 6.71811 25.8128 6.77138 25.7169 6.80383L24.0172 7.37856C23.9881 7.3889 23.9636 7.40693 23.9476 7.42989C23.9316 7.45284 23.925 7.47945 23.9287 7.50563C23.9325 7.53181 23.9463 7.55611 23.9683 7.57482C23.9902 7.59352 24.0189 7.60559 24.0501 7.60917L25.8574 7.79085C25.9593 7.80113 26.0558 7.83416 26.1366 7.88652C26.2174 7.93888 26.2797 8.00866 26.317 8.08858L26.9781 9.50553C26.9901 9.52973 27.0113 9.54986 27.0384 9.56285C27.0655 9.57584 27.097 9.58098 27.1282 9.57748C27.1594 9.57399 27.1885 9.56205 27.2111 9.54349C27.2337 9.52493 27.2485 9.50076 27.2534 9.47468L27.4963 7.95641Z" fill="#478A14"/>
<ellipse opacity="0.4" cx="0.684629" cy="0.576081" rx="0.684629" ry="0.576081" transform="matrix(-0.772049 0.635563 0.637687 0.770296 17.6484 23.1875)" fill="#478A14"/>
<ellipse opacity="0.4" cx="1.02694" cy="0.864121" rx="1.02694" ry="0.864121" transform="matrix(-0.772049 0.635563 0.637687 0.770296 15.3125 35.5391)" fill="#478A14"/>
<ellipse opacity="0.4" cx="0.684629" cy="0.576081" rx="0.684629" ry="0.576081" transform="matrix(-0.772049 0.635563 0.637687 0.770296 11.6484 16.1875)" fill="#478A14"/>
<ellipse opacity="0.4" cx="0.684629" cy="0.576081" rx="0.684629" ry="0.576081" transform="matrix(-0.772049 0.635563 0.637687 0.770296 14.6484 8.1875)" fill="#478A14"/>
</svg>
