<svg width="16" height="16" viewBox="0 0 16 16" fill="none" xmlns="http://www.w3.org/2000/svg">
<path d="M8.0026 1.33203C4.32927 1.33203 1.33594 4.32536 1.33594 7.9987C1.33594 11.672 4.32927 14.6654 8.0026 14.6654C11.6759 14.6654 14.6693 11.672 14.6693 7.9987C14.6693 4.32536 11.6759 1.33203 8.0026 1.33203ZM11.1893 6.46536L7.40927 10.2454C7.31594 10.3387 7.18927 10.392 7.05594 10.392C6.9226 10.392 6.79594 10.3387 6.7026 10.2454L4.81594 8.3587C4.6226 8.16536 4.6226 7.84536 4.81594 7.65203C5.00927 7.4587 5.32927 7.4587 5.5226 7.65203L7.05594 9.18536L10.4826 5.7587C10.6759 5.56536 10.9959 5.56536 11.1893 5.7587C11.3826 5.95203 11.3826 6.26536 11.1893 6.46536Z" fill="#D7FF82"/>
</svg>
