<svg width="131" height="56" viewBox="0 0 131 56" fill="none" xmlns="http://www.w3.org/2000/svg">
<path d="M17.998 18.027H21.998L19.998 13.0137L17.998 18.027Z" fill="#212121"/>
<path d="M39.9961 35.0713V37.0766H46.9952V40.0846H39.9961V43.0925H47.995L50.9946 39.0819L47.995 35.0713H39.9961Z" fill="#212121"/>
<path d="M92.9883 13.0137L90.9883 18.027H94.9883L92.9883 13.0137Z" fill="#212121"/>
<path d="M58.9941 44.0959V34.0693L53.9941 39.0826L58.9941 44.0959Z" fill="#212121"/>
<path d="M67.9922 37.0766C67.8045 36.0739 67.1176 35.0713 65.9922 35.0713H61.9922V38.0793H65.9922C67.1168 38.0795 67.9922 38.079 67.9922 37.0766Z" fill="#212121"/>
<path d="M80.9902 38.0794C81.3722 37.9009 81.9902 37.6099 81.9902 37.0767C82.1814 36.365 81.3722 35.2496 80.9902 35.0714C80.6093 34.8932 80.5623 35.0714 79.9902 35.0714H75.9902V38.0794H79.9902C80.5623 38.0794 80.6091 38.2576 80.9902 38.0794Z" fill="#212121"/>
<path d="M107.987 8V10.0053L106.987 8H97.9881V10.0053L96.9882 8H84.9898C82.9644 8 81.4629 8.27355 79.9904 9.00266V8H71.9915V8V9.00266C71.071 8.27381 69.4653 8 67.992 8H37.996L35.9963 13.0133L33.9966 8H27.9973H24.9977V10.0053L23.9979 8V8H15.9989L11.9995 17.0239L8 26.0478V26.0478V26.0478H16.9988H17.9987V26.0478L18.9985 23.0399H20.9983L21.9981 26.0478H32.9967V26.0478V24.0425L33.9966 26.0478H38.9959L39.9958 24.0425V26.0478V26.0478H43.9952H65.9923V26.0478V21.0345V21.0345C66.3601 21.0345 65.9923 21.49 65.9923 22.0372V26.0478H79.9904V25.0452C81.0953 25.5929 82.7798 26.0478 84.9898 26.0478H89.9891L90.989 23.0399H93.9886L94.9885 26.0478H105.987V24.0425V23.0399L106.987 26.0478H107.987V26.0478H115.986V8H107.987V8ZM44.9951 23.0399H42.9954H41.9955V22.0372V13.0133V14.0159V14.0159L37.996 23.0399V23.0399H36.9962H34.9964L30.9969 13.0133V23.0399H23.9979L22.998 21.0345H16.9988L15.9989 23.0399H11.9995L17.9987 11.008H21.9981L27.9973 23.0399V11.008H28.9972H31.9968H32.9967V11.008L34.9964 16.0213L36.9962 19.0292V19.0292L39.9958 11.008H44.9951V23.0399V23.0399ZM57.9934 13.0133H50.9943V16.0213H57.9934V18.0266H50.9943V21.0345H57.9934V23.0399H47.9947V11.008H57.9934V13.0133ZM70.9916 18.0266C70.9964 18.0308 70.9858 18.0226 70.9916 18.0266C71.0613 18.0995 70.9408 17.9566 70.9916 18.0266C71.3444 18.4843 71.9772 19.0335 71.9915 20.0319C71.9926 20.0492 71.9904 20.0146 71.9915 20.0319C71.9915 20.0419 71.9915 20.0217 71.9915 20.0319C71.9915 20.0377 71.9915 20.0264 71.9915 20.0319C71.9957 20.1323 71.9915 20.9236 71.9915 21.0345V23.0399H68.9919V22.0372C68.9919 21.3081 69.5451 19.7583 68.9919 19.0292C68.8179 18.857 68.1838 19.11 67.992 19.0292C67.7161 18.8523 66.8604 19.0292 65.9923 19.0292H62.9927V23.0399H59.9931V11.008H66.9922C68.6484 11.008 70.0706 10.4611 70.9916 11.008C71.8939 11.5444 71.9709 12.6073 71.9915 14.0159C71.9489 15.956 70.8962 16.665 69.9918 17.0239C69.9918 17.0239 70.4408 17.459 70.9916 18.0266ZM76.9908 23.0399H73.9912V11.008H76.9908V23.0399ZM112.986 23.0399H108.987L102.987 14.0159V22.0372V22.0372V23.0399H99.9878V23.0399H96.9882L95.9883 21.0345H88.9893L87.9894 23.0399H84.9898C83.5176 23.0399 81.0948 23.131 79.9904 22.0372C78.8856 20.9434 78.9906 19.3935 78.9906 17.0239C78.9906 15.201 78.7015 13.4686 79.9904 12.0106C80.9104 10.9161 82.9647 11.008 84.9898 11.008H87.9894V13.0133H84.9898C83.8849 13.0133 83.7281 13.468 82.99 14.0159C82.4387 14.5626 81.9902 15.7479 81.9902 17.0239C81.9902 18.4827 82.2544 19.3028 82.99 20.0319C83.5438 20.5796 84.0693 21.0345 84.9898 21.0345H85.9897L89.9891 11.008H91.9889H94.9885L99.9878 23.0399V22.0372V18.0266V18.0266V11.008H104.987L109.986 20.0319V11.008H112.986V23.0399V23.0399V23.0399Z" fill="#212121"/>
<path d="M68.9922 16.0204C69.047 15.9649 68.9501 15.09 68.9922 15.0178C69.1623 14.7624 69.0972 14.6429 68.9922 14.0151C68.9879 13.9575 69.0051 14.0666 68.9922 14.0151C68.9887 14.0008 68.9962 14.0295 68.9922 14.0151V14.0151C68.8988 13.7101 68.2301 13.1262 67.9922 13.0125C67.6158 12.835 67.5552 13.0125 66.9922 13.0125H62.9922V16.0204H66.9922C67.5552 16.0204 67.616 16.199 67.9922 16.0204C68.0486 15.9933 68.9439 16.0622 68.9922 16.0204V16.0204C68.9922 16.0204 68.9668 16.0481 68.9922 16.0204Z" fill="#212121"/>
<path d="M123.984 41.0876C123.984 39.7803 123.534 39.0132 122.984 38.0796V30.0583V30.0583V29.0557C122.984 29.0557 115.129 29.0557 113.985 29.0557C112.843 29.0557 111.986 30.0583 111.986 30.0583V29.0557H102.987C101.703 29.0557 100.721 29.3119 99.9873 30.0583V29.0557H84.9893V30.0583V30.0583C83.8905 29.1252 81.9055 29.0557 80.9899 29.0557H70.9912V30.0583V30.0583C70.075 29.1252 67.092 29.0557 65.9918 29.0557H54.9933L52.9936 32.0636L49.994 29.0557V29.0557H47.9942H33.9961V30.0583V31.061V48.1062H49.994L52.9936 45.0982L54.9933 48.1062V48.1062H64.992V48.1062V48.1062V48.1062V46.1008V44.0955H65.9918C67.2736 44.0955 68.7085 43.654 69.9913 43.0929V48.1062V48.1062H78.9901V48.1062V43.0929V43.0929C79.5407 43.0929 79.99 43.5353 79.99 44.0955V48.1062V48.1062H104.987C106.637 48.1062 108.07 47.8504 108.986 47.1035V48.1062V48.1062H116.985C118.633 48.1062 119.885 47.851 120.985 47.1035C122.672 46.0718 123.826 44.2682 123.984 42.0902C123.992 42.0258 123.978 42.1549 123.984 42.0902V42.0902C123.991 41.9693 123.984 41.2095 123.984 41.0876ZM65.9918 40.0849H62.9922V41.0876V42.0902V43.0929V45.0982H56.993L52.9936 41.0876V41.0876V41.0876L48.9941 45.0982H36.9957V32.0636H48.9941L51.9937 36.0743L52.9936 37.0769V36.0743L56.993 32.0636H66.9917C68.8768 32.0636 70.1912 33.1171 70.9912 35.0716C71.0874 35.4586 71.9911 35.5854 71.9911 36.0743C71.9911 39.8093 68.7398 40.0849 65.9918 40.0849ZM84.9893 40.0849C85.3554 40.6438 84.9893 41.9718 84.9893 43.0929V45.0982H81.9897V44.0955C81.9897 43.3472 81.5405 41.6486 80.9899 41.0876C80.6243 40.5286 80.0889 40.0849 78.9901 40.0849H75.9905V45.0982H72.9909V32.0636H79.99C81.4552 32.0636 82.0716 32.5066 82.9896 33.0663C83.9052 33.6271 84.9893 34.5801 84.9893 36.0743C84.9893 38.1282 83.9063 38.7081 82.9896 39.0822C83.9063 39.4542 84.8061 39.7113 84.9893 40.0849ZM96.9877 35.0716H89.9887V37.0769H96.9877V40.0849H89.9887V42.0902H96.9877V45.0982H86.9891V32.0636H96.9877V35.0716ZM104.987 45.0982H98.9875V42.0902H104.987C105.535 42.0902 105.619 42.4641 105.987 42.0902C106.17 41.903 106.986 41.4614 106.986 41.0876C106.986 40.7131 106.17 40.2721 105.987 40.0849C105.803 39.8982 105.536 40.0849 104.987 40.0849C102.054 39.898 98.9875 40.1826 98.9875 36.0743C98.9875 34.2065 99.6878 32.0636 102.987 32.0636H108.986V35.0716H102.987C102.437 35.0716 102.354 34.8847 101.987 35.0716C101.621 35.2588 101.987 35.7012 101.987 36.0743C101.987 36.6348 102.62 36.8916 102.987 37.0769C103.354 37.2641 103.621 37.0769 103.987 37.0769H104.987C106.636 37.0769 108.253 37.3324 108.986 38.0796C109.536 38.6401 109.986 39.7806 109.986 41.0876C109.986 43.8881 108.102 45.0982 104.987 45.0982ZM120.985 44.0955C120.252 44.8435 118.818 45.0982 116.985 45.0982H110.986V42.0902H116.985C117.535 42.0902 117.619 42.4641 117.985 42.0902C118.168 41.903 118.985 41.4614 118.985 41.0876C118.985 40.7131 118.168 40.2721 117.985 40.0849C117.802 39.8982 117.535 40.0849 116.985 40.0849C114.054 39.898 110.986 40.1823 110.986 36.0743C110.986 34.2992 111.528 32.5398 113.985 32.0636C114.279 32.0223 114.645 32.0636 114.985 32.0636H120.985V35.0716H116.985H115.985H114.985C114.435 35.0716 114.352 34.8847 113.985 35.0716C113.801 35.2588 113.985 35.7012 113.985 36.0743C113.985 36.6348 113.435 36.8916 113.985 37.0769C114.352 37.2641 115.618 37.0769 115.985 37.0769V37.0769H116.985C117.786 37.0769 118.431 36.8784 118.985 37.0769C119.492 37.2641 121.609 38.0853 121.984 40.0849C122.017 40.2944 121.984 40.8456 121.984 41.0876C121.984 42.2084 121.717 43.3494 120.985 44.0955Z" fill="#212121"/>
</svg>
