<svg width="131" height="56" viewBox="0 0 131 56" fill="none" xmlns="http://www.w3.org/2000/svg">
<path fill-rule="evenodd" clip-rule="evenodd" d="M66 49.4485C72.1139 44.3122 76 36.6099 76 28C76 19.3901 72.1139 11.6878 66 6.55155C70.8671 2.46272 77.1459 0 84 0C99.464 0 112 12.536 112 28C112 43.464 99.464 56 84 56C77.1459 56 70.8671 53.5373 66 49.4485ZM66 49.4485C61.1329 53.5373 54.8541 56 48 56C32.536 56 20 43.464 20 28C20 12.536 32.536 0 48 0C54.8541 0 61.1329 2.46272 66 6.55155C59.8861 11.6878 56 19.3901 56 28C56 36.6099 59.8861 44.3122 66 49.4485Z" fill="#212121"/>
</svg>
