<svg width="131" height="56" viewBox="0 0 131 56" fill="none" xmlns="http://www.w3.org/2000/svg">
<path d="M111 12H104C101.985 12 100.93 13.0245 100 15L87 43H96C96 43 97.69 38.9118 98 38C98.93 38 107.76 38 109 38C109.31 39.0637 110 43 110 43H118L111 12ZM100 32C100.775 30.1765 104 23 104 23C104 23.152 104.69 21.0637 105 20V23C105 23 106.69 30.4804 107 32H100V32Z" fill="#212121"/>
<path d="M87 33C87 39.4 80.8855 44 72 44C68.2349 44 64.9578 42.9143 63 42L64 35L65 36C67.7108 37.219 69.6867 37 73 37C75.4096 37 78 36.1333 78 34C78 32.6286 77.3133 32.5238 74 31C70.8373 29.4762 66 26.419 66 22C66 15.9048 71.7169 12 80 12C83.1627 12 86.3434 12.2381 88 13L87 20L86 19C84.494 18.3905 82.8614 18 80 18C76.8373 18.1524 75 19.781 75 21C75 22.3714 77.1386 23.6286 80 25C84.8193 27.2857 87 29.3429 87 33Z" fill="#212121"/>
<path d="M13 13V12H26C27.8462 12 29.5385 13.0561 30 15L33 28C30.0769 20.8224 23.3077 15.3925 13 13Z" fill="#212121"/>
<path d="M51 12L38 43H29L21 17C26.5102 20.4951 31.3163 26.201 33 30L34 33L42 12H51V12Z" fill="#212121"/>
<path d="M55 12H64L59 43H50L55 12Z" fill="#212121"/>
</svg>
