<svg width="131" height="56" viewBox="0 0 131 56" fill="none" xmlns="http://www.w3.org/2000/svg">
<path fill-rule="evenodd" clip-rule="evenodd" d="M122 29C122 20.7971 118.373 14 111 14C103.596 14 99 20.8611 99 29C99 38.6449 104.409 43 112 43C115.702 43 117.884 42.2176 120 41V35C117.884 36.0895 116.08 37 113 37C109.982 37 107.342 35.781 107 32H122C122 31.5834 122 29.769 122 29ZM107 26C107 22.3792 109.04 21 111 21C112.898 21 115 22.3792 115 26H107ZM87 14C83.9511 14 82.0889 15.9746 81 17L80 15H74V52L81 50V41C82.12 41.8331 84.2622 43 87 43C92.5689 43 97 38.1575 97 28C96.9689 18.7076 92.4444 14 87 14ZM85 36C83.1644 36 81.7467 35.8331 81 35V23C81.8089 22.0708 83.2267 21 85 21C87.8311 21 90 24.8024 90 29C90 33.2937 87.8622 36 85 36ZM63 12L71 11V4L63 6V12ZM63 15H71V43H63V15ZM54 17V15H47V43H55V24C56.8356 21.5327 60.0356 21.6475 61 22V15C60.0044 14.6155 55.8356 13.5394 54 17ZM39 8L31 9V35C31 39.7423 34.3956 43 39 43C41.5511 43 43.9733 42.5768 45 42V36C44.0044 36.4166 39 37.7423 39 33V21H45V15H39V8ZM18 23C18 21.7503 19.3511 21 21 21C23.3644 21 25.6356 21.6862 28 23V16C25.4178 14.9426 23.5822 14 21 14C14.6844 14 10 17.3284 10 23C10 31.8438 22 30.1869 22 34C22 35.474 20.7422 36 19 36C16.4178 36 12.6133 35.474 10 34V41C12.8933 42.2817 16.3244 43 19 43C25.4711 43 30 39.7356 30 34C29.9689 24.4513 18 26.5888 18 23Z" fill="#212121"/>
</svg>
