<svg width="131" height="56" viewBox="0 0 131 56" fill="none" xmlns="http://www.w3.org/2000/svg">
<path d="M81 28.0002C81.012 25.1812 80.127 22.1277 78 20.0002C75.8683 17.8684 72.8247 16.9833 70 17.0002C69.9865 17.0002 70.014 17.0002 70 17.0002C63.8661 17.0002 59 21.8643 59 28.0002C59 34.0756 63.926 39.0002 70 39.0002C76.1357 39.0002 81 34.1344 81 28.0002C81 27.9801 81 28.0201 81 28.0002Z" fill="#212121"/>
<path d="M56 33C54.3872 34.6458 52.6033 34.9652 51 35C47.094 34.9643 44 32.2041 44 28C44 25.8838 44.7548 24.4817 46 23C47.1677 21.8699 49.2701 21 51 21C52.8673 21 54.341 21.3077 56 23V18C54.3413 17.1543 52.867 17 51 17C48.3622 17.1922 45.9078 18.2939 44 20C43.4502 20.5043 42.4468 21.3629 42 22C40.6065 23.8412 40 25.5664 40 28C40 34.1336 44.9825 39 51 39C51.0293 39 50.9716 39.0003 51 39C51.0405 39.0006 50.9598 39 51 39C52.6598 39 54.1327 38.8463 56 38V33C55.93 33.0714 56.0694 32.9324 56 33V33Z" fill="#212121"/>
<path d="M95 20L90 32L84 18H80L89 39H91L100 18H96L95 20Z" fill="#212121"/>
<path d="M101 27V38H113V38V35H109H105V31V29H113V26H105V21H113V18H101V27Z" fill="#212121"/>
<path d="M6 18H0V38H6C9.14761 38 11.1111 37.4286 13 36C15.3082 34.1634 17 31.0606 17 28C17.0003 22.0803 12.7146 18 6 18ZM11 33C9.74067 34.0199 7.51867 35 5 35H4V21H5C7.51867 21 8.74038 21.7761 10 23C11.4689 24.2237 13 26.1628 13 28C13.2098 29.8366 12.4695 31.7744 11 33Z" fill="#212121"/>
<path d="M23 18H19V38H23V18Z" fill="#212121"/>
<path d="M33 26C30.5297 25.1846 30 25.019 30 24C30 22.7765 31.3528 21 33 21C34.2355 21 34.9704 21.7765 36 23L38 20C36.3523 18.5721 34.265 18 32 18C28.4989 18 26 20.7388 26 24C26 26.8552 27.2945 27.5727 31 29C32.6472 29.6107 33.5874 29.5923 34 30C34.822 30.4072 35 31.1854 35 32C35 33.6315 33.8542 35 32 35C30.1453 35 27.8237 34.6315 27 33L25 35C26.8539 37.6505 29.1174 39 32 39C36.1175 39 39 35.8745 39 32C39.0006 28.5346 37.5298 27.6315 33 26Z" fill="#212121"/>
<path d="M125 30C128.124 29.3887 129 27.0603 129 24C129 20.3273 126.583 18 122 18H116V38H120V30H121L126 38H131L125 30ZM121 27H120V21H121C123.5 21 125 21.9579 125 24C125 26.0398 123.5 27 121 27Z" fill="#212121"/>
</svg>
