<svg width="216" height="100" viewBox="0 0 216 100" fill="none" xmlns="http://www.w3.org/2000/svg">
<g clip-path="url(#clip0_3261_51499)">
<path d="M39.8594 80.2373L35.7536 79.9724V26.9951H39.8594V80.2373Z" fill="#986F50"/>
<path d="M61.891 27.4105C69.1028 34.6223 69.1813 46.2661 62.1266 53.5744L62.1287 53.5765L39.8087 80.2316L35.7202 79.9851L9.31162 53.5765L9.31851 53.5696C9.23806 53.492 9.15812 53.4134 9.07873 53.334C1.78754 46.0429 1.78754 34.2215 9.07873 26.9303C16.3699 19.6391 28.1913 19.6391 35.4825 26.9303C35.5619 27.0097 35.6404 27.0896 35.7181 27.1701L35.7202 27.168L35.727 27.1748C43.0354 20.1201 54.6792 20.1987 61.891 27.4105Z" fill="#FEE425"/>
<path d="M61.891 27.4105C69.1028 34.6223 69.1813 46.2661 62.1266 53.5744L62.1287 53.5765L39.8087 80.2316L35.7202 79.9851L9.31162 53.5765L9.31851 53.5696C9.23806 53.492 9.15812 53.4134 9.07873 53.334C6.84527 51.1006 5.29597 48.4421 4.43083 45.6189L8.68043 46.2349H35.7181V27.1701L35.7202 27.168L35.727 27.1748C43.0354 20.1201 54.6792 20.1987 61.891 27.4105Z" fill="#544A00"/>
<mask id="path-4-outside-1_3261_51499" maskUnits="userSpaceOnUse" x="-0.684315" y="-0.398911" width="81.3173" height="81.3173" fill="black">
<rect fill="white" x="-0.684315" y="-0.398911" width="81.3173" height="81.3173"/>
<path fill-rule="evenodd" clip-rule="evenodd" d="M66.0169 53.8152C65.9312 53.9008 65.8449 53.9855 65.758 54.0692L39.8414 79.9857L13.4329 53.5771L13.4432 53.5669C13.3639 53.4903 13.2851 53.4129 13.2069 53.3347C5.91568 46.0435 5.91568 34.2221 13.2069 26.9309C20.4981 19.6397 32.3194 19.6397 39.6106 26.9309C39.692 27.0123 39.7724 27.0942 39.852 27.1767C47.1602 20.1211 58.8048 20.1993 66.0169 27.4114C73.3081 34.7026 73.3081 46.524 66.0169 53.8152Z"/>
</mask>
<path fill-rule="evenodd" clip-rule="evenodd" d="M66.0169 53.8152C65.9312 53.9008 65.8449 53.9855 65.758 54.0692L39.8414 79.9857L13.4329 53.5771L13.4432 53.5669C13.3639 53.4903 13.2851 53.4129 13.2069 53.3347C5.91568 46.0435 5.91568 34.2221 13.2069 26.9309C20.4981 19.6397 32.3194 19.6397 39.6106 26.9309C39.692 27.0123 39.7724 27.0942 39.852 27.1767C47.1602 20.1211 58.8048 20.1993 66.0169 27.4114C73.3081 34.7026 73.3081 46.524 66.0169 53.8152Z" fill="#F9F9F9"/>
<path d="M65.758 54.0692L65.601 53.9122L65.604 53.9093L65.758 54.0692ZM39.8414 79.9857L39.9984 80.1427L39.8414 80.2996L39.6845 80.1427L39.8414 79.9857ZM13.4329 53.5771L13.2759 53.7341L13.119 53.5771L13.2759 53.4202L13.4329 53.5771ZM13.4432 53.5669L13.5974 53.4072L13.7598 53.5641L13.6001 53.7239L13.4432 53.5669ZM39.852 27.1767L40.0062 27.3364L39.8464 27.4907L39.6922 27.3308L39.852 27.1767ZM65.604 53.9093C65.6899 53.8266 65.7752 53.7429 65.8599 53.6582L66.1738 53.9721C66.0872 54.0588 65.9998 54.1445 65.9119 54.2291L65.604 53.9093ZM39.6845 79.8287L65.601 53.9122L65.9149 54.2261L39.9984 80.1427L39.6845 79.8287ZM13.5899 53.4202L39.9984 79.8287L39.6845 80.1427L13.2759 53.7341L13.5899 53.4202ZM13.6001 53.7239L13.5899 53.7341L13.2759 53.4202L13.2862 53.4099L13.6001 53.7239ZM13.3638 53.1777C13.4412 53.2551 13.519 53.3316 13.5974 53.4072L13.2889 53.7266C13.2087 53.6491 13.1291 53.5708 13.0499 53.4916L13.3638 53.1777ZM13.3638 27.0879C6.15932 34.2924 6.15933 45.9732 13.3638 53.1777L13.0499 53.4916C5.67204 46.1138 5.67203 34.1519 13.0499 26.774L13.3638 27.0879ZM39.4537 27.0879C32.2492 19.8834 20.5683 19.8834 13.3638 27.0879L13.0499 26.774C20.4278 19.3961 32.3897 19.3961 39.7676 26.774L39.4537 27.0879ZM39.6922 27.3308C39.6136 27.2493 39.5341 27.1683 39.4537 27.0879L39.7676 26.774C39.8499 26.8563 39.9313 26.9392 40.0118 27.0226L39.6922 27.3308ZM65.8599 27.5684C58.7336 20.442 47.2275 20.3647 40.0062 27.3364L39.6978 27.017C47.093 19.8774 58.876 19.9566 66.1738 27.2544L65.8599 27.5684ZM65.8599 53.6582C73.0644 46.4537 73.0644 34.7729 65.8599 27.5684L66.1738 27.2544C73.5517 34.6323 73.5517 46.5942 66.1738 53.9721L65.8599 53.6582Z" fill="black" mask="url(#path-4-outside-1_3261_51499)"/>
<path fill-rule="evenodd" clip-rule="evenodd" d="M53.4881 34.3089C53.7011 34.2919 53.9165 34.2832 54.1339 34.2832C58.5473 34.2832 62.125 37.8609 62.125 42.2743C62.125 45.2298 60.5205 47.8106 58.135 49.1931L58.1029 49.1098L53.4881 34.3089ZM55.9299 50.0628C55.4641 50.1698 54.9827 50.236 54.4898 50.2576L54.1342 49.3344L49.8326 35.5384C50.2172 35.2923 50.6243 35.0782 51.05 34.9L55.9299 50.0628ZM52.1911 34.521L53.128 34.3459C52.8095 34.3859 52.4968 34.4447 52.1911 34.521ZM46.1428 42.2743C46.1428 45.893 48.5481 48.9499 51.8472 49.9334L47.8099 37.3885C46.7647 38.7394 46.1428 40.4342 46.1428 42.2743Z" fill="#191916"/>
<path fill-rule="evenodd" clip-rule="evenodd" d="M33.5278 34.4251C34.0175 34.3313 34.5231 34.2822 35.0401 34.2822C39.4535 34.2822 43.0312 37.86 43.0312 42.2733C43.0312 45.3715 41.2682 48.0578 38.6906 49.3838L33.5278 34.4251ZM36.4448 50.1414L31.1852 35.2719C30.5216 35.638 29.9156 36.0957 29.3843 36.628L33.4844 49.7777V50.0425H33.1623C33.7645 50.1876 34.3934 50.2644 35.0401 50.2644C35.5194 50.2644 35.9888 50.2222 36.4448 50.1414ZM27.049 42.2733C27.049 45.1041 28.5209 47.5911 30.7411 49.0107L27.6246 39.2899C27.2534 40.2117 27.049 41.2187 27.049 42.2733Z" fill="#191916"/>
<path d="M44.4845 38.2783C45.6962 38.2783 47.1982 39.2345 47.7031 39.7126V42.9398C47.5769 42.2226 46.5863 40.8833 44.4845 40.8833C42.3606 40.8833 41.5183 42.321 41.2658 42.9398V39.7126C41.897 39.2345 43.2728 38.2783 44.4845 38.2783Z" fill="#191916"/>
<ellipse cx="2.30368" cy="3.0125" rx="2.30368" ry="3.0125" transform="matrix(-0.988722 0.149765 0.149765 0.988722 40.6719 57.3994)" fill="#191916"/>
<path d="M39.9375 68.0123C40.9364 68.1276 43.1339 67.8048 43.9331 65.5908" stroke="#191916" stroke-width="0.221975" stroke-linecap="round"/>
<path d="M43.4746 61.4641C42.2155 67.1538 38.0354 66.2052 36.0155 64.9734C35.9956 64.9613 35.9737 64.9841 35.9863 65.0038C36.625 66 38.2834 67.3491 40.9948 66.8287C43.7274 66.3042 43.8912 63.223 43.5179 61.4606C43.513 61.4373 43.4798 61.4409 43.4746 61.4641Z" fill="#191916" stroke="#191916" stroke-width="0.221975"/>
<path d="M37.6765 56.2567C36.1246 56.5036 35.5615 57.7134 35.4973 58.3271C35.4946 58.3525 35.4516 58.3585 35.4439 58.3342C35.1967 57.5605 35.1183 56.6884 35.9146 56.0549C36.5319 55.5637 39.7908 55.9203 37.6765 56.2567Z" fill="#191916" stroke="#191916" stroke-width="0.221975"/>
</g>
<path d="M104.117 17.665L98.005 17.9001L98.2587 51.665L98.5272 83.6851L104.908 83.6851L104.117 17.665Z" fill="#EE7835"/>
<path d="M101.987 19.4572C99.8499 17.3785 96.4321 17.4261 94.3534 19.5636L67.3688 47.3108C65.2934 49.4449 65.3371 52.8563 67.4666 54.9365L95.4325 82.2544C97.5721 84.3444 101.003 84.2965 103.083 82.1476L130.066 54.2777C132.137 52.139 132.085 48.7278 129.951 46.6524L101.987 19.4572Z" fill="#EE7835"/>
<path d="M125.282 60.4972L107.014 82.0882C105.923 83.3775 104.291 84.082 102.605 83.9921L98.9172 83.7954C97.5843 83.7243 96.3302 83.1662 95.385 82.2238C85.0995 71.9699 68.7014 56.1547 67.267 54.7801C65.7285 53.3057 65.7265 51.6203 65.8048 50.915L70.7418 51.6987L97.6711 53.7025C97.9714 53.7248 98.273 53.722 98.5729 53.694L120.659 51.6349C125.473 51.186 128.405 56.806 125.282 60.4972Z" fill="#693517"/>
<path d="M107.808 19.3693C105.67 17.2906 102.252 17.3382 100.174 19.4757L72.9573 47.4613C70.8786 49.5988 70.9262 53.0166 73.0637 55.0953L101.049 82.3117C103.187 84.3904 106.605 84.3428 108.683 82.2054L135.9 54.2197C137.978 52.0822 137.931 48.6644 135.793 46.5857L107.808 19.3693Z" fill="#191916"/>
<mask id="path-17-outside-2_3261_51499" maskUnits="userSpaceOnUse" x="65.5454" y="11.7209" width="77.9605" height="77.9605" fill="black">
<rect fill="white" x="65.5454" y="11.7209" width="77.9605" height="77.9605"/>
<path fill-rule="evenodd" clip-rule="evenodd" d="M107.809 19.3683C105.672 17.2896 102.254 17.3372 100.175 19.4747L72.9588 47.4604C70.8802 49.5978 70.9278 53.0157 73.0652 55.0944L101.051 82.3108C103.188 84.3895 106.606 84.3418 108.685 82.2044L135.901 54.2187C137.98 52.0813 137.932 48.6634 135.795 46.5847L107.809 19.3683ZM112.108 46.6665C112.108 50.5593 115.264 53.7149 119.156 53.7149C123.049 53.7149 126.205 50.5592 126.205 46.6665C126.205 42.7738 123.049 39.6182 119.156 39.6182C115.264 39.6182 112.108 42.7738 112.108 46.6665ZM101.844 53.7149C97.9511 53.7149 94.7954 50.5592 94.7954 46.6665C94.7954 42.7738 97.9511 39.6182 101.844 39.6182C105.737 39.6182 108.892 42.7738 108.892 46.6665C108.892 50.5592 105.737 53.7149 101.844 53.7149ZM111.416 33.6348L120.819 35.4101L120.36 37.8428L110.956 36.0675L111.416 33.6348ZM96.1135 36.3105L105.517 34.5352L105.976 36.9679L96.5728 38.7432L96.1135 36.3105Z"/>
</mask>
<path fill-rule="evenodd" clip-rule="evenodd" d="M107.809 19.3683C105.672 17.2896 102.254 17.3372 100.175 19.4747L72.9588 47.4604C70.8802 49.5978 70.9278 53.0157 73.0652 55.0944L101.051 82.3108C103.188 84.3895 106.606 84.3418 108.685 82.2044L135.901 54.2187C137.98 52.0813 137.932 48.6634 135.795 46.5847L107.809 19.3683ZM112.108 46.6665C112.108 50.5593 115.264 53.7149 119.156 53.7149C123.049 53.7149 126.205 50.5592 126.205 46.6665C126.205 42.7738 123.049 39.6182 119.156 39.6182C115.264 39.6182 112.108 42.7738 112.108 46.6665ZM101.844 53.7149C97.9511 53.7149 94.7954 50.5592 94.7954 46.6665C94.7954 42.7738 97.9511 39.6182 101.844 39.6182C105.737 39.6182 108.892 42.7738 108.892 46.6665C108.892 50.5592 105.737 53.7149 101.844 53.7149ZM111.416 33.6348L120.819 35.4101L120.36 37.8428L110.956 36.0675L111.416 33.6348ZM96.1135 36.3105L105.517 34.5352L105.976 36.9679L96.5728 38.7432L96.1135 36.3105Z" fill="#F9F9F9"/>
<path d="M100.175 19.4747L100.337 19.6315L100.175 19.4747ZM107.809 19.3683L107.652 19.5296L107.809 19.3683ZM72.9588 47.4604L73.1201 47.6172L72.9588 47.4604ZM73.0652 55.0944L73.2221 54.9331L73.0652 55.0944ZM101.051 82.3108L100.894 82.472L101.051 82.3108ZM108.685 82.2044L108.524 82.0476L108.685 82.2044ZM135.901 54.2187L136.063 54.3755L136.063 54.3755L135.901 54.2187ZM135.795 46.5847L135.638 46.746L135.795 46.5847ZM119.156 53.7149L119.156 53.9399L119.156 53.7149ZM112.108 46.6665L111.883 46.6665L112.108 46.6665ZM126.205 46.6665L126.43 46.6665L126.205 46.6665ZM119.156 39.6182L119.156 39.8431L119.156 39.6182ZM94.7954 46.6665L95.0204 46.6665L94.7954 46.6665ZM101.844 53.7149L101.844 53.49L101.844 53.7149ZM101.844 39.6182L101.844 39.8431L101.844 39.6182ZM108.892 46.6665L108.667 46.6665L108.892 46.6665ZM120.819 35.4101L120.861 35.1891L121.082 35.2308L121.04 35.4518L120.819 35.4101ZM111.416 33.6348L111.195 33.593L111.236 33.372L111.457 33.4137L111.416 33.6348ZM120.36 37.8428L120.581 37.8846L120.539 38.1056L120.318 38.0639L120.36 37.8428ZM110.956 36.0675L110.915 36.2885L110.694 36.2468L110.735 36.0258L110.956 36.0675ZM105.517 34.5352L105.475 34.3141L105.696 34.2724L105.738 34.4934L105.517 34.5352ZM96.1135 36.3105L95.8925 36.3522L95.8507 36.1312L96.0718 36.0895L96.1135 36.3105ZM105.976 36.9679L106.198 36.9262L106.239 37.1472L106.018 37.1889L105.976 36.9679ZM96.5728 38.7432L96.6145 38.9643L96.3935 39.006L96.3517 38.785L96.5728 38.7432ZM100.014 19.3179C102.179 17.0914 105.74 17.0417 107.966 19.207L107.652 19.5296C105.604 17.5375 102.329 17.5831 100.337 19.6315L100.014 19.3179ZM72.7976 47.3035L100.014 19.3179L100.337 19.6315L73.1201 47.6172L72.7976 47.3035ZM72.9084 55.2556C70.6819 53.0903 70.6323 49.53 72.7976 47.3035L73.1201 47.6172C71.128 49.6656 71.1737 52.941 73.2221 54.9331L72.9084 55.2556ZM100.894 82.472L72.9084 55.2556L73.2221 54.9331L101.208 82.1495L100.894 82.472ZM108.846 82.3612C106.681 84.5877 103.121 84.6373 100.894 82.472L101.208 82.1495C103.256 84.1416 106.532 84.0959 108.524 82.0476L108.846 82.3612ZM136.063 54.3755L108.846 82.3612L108.524 82.0476L135.74 54.0619L136.063 54.3755ZM135.952 46.4234C138.178 48.5888 138.228 52.149 136.063 54.3755L135.74 54.0619C137.732 52.0135 137.686 48.738 135.638 46.746L135.952 46.4234ZM107.966 19.207L135.952 46.4234L135.638 46.746L107.652 19.5296L107.966 19.207ZM119.156 53.9399C115.139 53.9399 111.883 50.6835 111.883 46.6665L112.333 46.6665C112.333 50.435 115.388 53.49 119.156 53.49L119.156 53.9399ZM126.43 46.6665C126.43 50.6835 123.173 53.9399 119.156 53.9399L119.156 53.49C122.925 53.49 125.98 50.435 125.98 46.6665L126.43 46.6665ZM119.156 39.3932C123.173 39.3932 126.43 42.6496 126.43 46.6665L125.98 46.6665C125.98 42.8981 122.925 39.8431 119.156 39.8431L119.156 39.3932ZM111.883 46.6665C111.883 42.6496 115.139 39.3932 119.156 39.3932L119.156 39.8431C115.388 39.8431 112.333 42.8981 112.333 46.6665L111.883 46.6665ZM95.0204 46.6665C95.0204 50.435 98.0753 53.49 101.844 53.49L101.844 53.9399C97.8269 53.9399 94.5705 50.6835 94.5705 46.6665L95.0204 46.6665ZM101.844 39.8431C98.0753 39.8431 95.0204 42.8981 95.0204 46.6665L94.5705 46.6665C94.5705 42.6496 97.8269 39.3932 101.844 39.3932L101.844 39.8431ZM108.667 46.6665C108.667 42.8981 105.612 39.8431 101.844 39.8431L101.844 39.3932C105.861 39.3932 109.117 42.6496 109.117 46.6665L108.667 46.6665ZM101.844 53.49C105.612 53.49 108.667 50.435 108.667 46.6665L109.117 46.6665C109.117 50.6835 105.861 53.9399 101.844 53.9399L101.844 53.49ZM120.778 35.6312L111.374 33.8558L111.457 33.4137L120.861 35.1891L120.778 35.6312ZM120.139 37.8011L120.598 35.3684L121.04 35.4518L120.581 37.8846L120.139 37.8011ZM110.998 35.8465L120.402 37.6218L120.318 38.0639L110.915 36.2885L110.998 35.8465ZM111.637 33.6765L111.177 36.1092L110.735 36.0258L111.195 33.593L111.637 33.6765ZM105.559 34.7562L96.1552 36.5315L96.0718 36.0895L105.475 34.3141L105.559 34.7562ZM105.755 37.0096L105.296 34.5769L105.738 34.4934L106.198 36.9262L105.755 37.0096ZM96.5311 38.5222L105.935 36.7468L106.018 37.1889L96.6145 38.9643L96.5311 38.5222ZM96.3345 36.2688L96.7938 38.7015L96.3517 38.785L95.8925 36.3522L96.3345 36.2688Z" fill="#191916" mask="url(#path-17-outside-2_3261_51499)"/>
<ellipse cx="3.41199" cy="2.46742" rx="3.41199" ry="2.46742" transform="matrix(-0.611093 -0.791559 -0.791559 0.611093 126 46.3037)" fill="#F9F9F9"/>
<circle cx="0.786438" cy="0.786438" r="0.786438" transform="matrix(-0.611093 -0.791559 -0.791559 0.611093 118.562 50.7383)" fill="#F9F9F9"/>
<ellipse cx="3.41199" cy="2.46742" rx="3.41199" ry="2.46742" transform="matrix(-0.611093 -0.791559 -0.791559 0.611093 108.453 46.3037)" fill="#F9F9F9"/>
<circle cx="0.786438" cy="0.786438" r="0.786438" transform="matrix(-0.611093 -0.791559 -0.791559 0.611093 101.016 50.7383)" fill="#F9F9F9"/>
<path d="M100.515 70.3941C101.207 69.5764 103.05 67.7616 103.97 66.9914L99.8698 65.04C99.2731 65.3555 97.9117 66.4242 97.24 68.1747C96.4004 70.3629 99.6791 71.3818 100.515 70.3941Z" fill="#191916" stroke="#191916" stroke-width="0.899763" stroke-linecap="round"/>
<mask id="mask0_3261_51499" style="mask-type:alpha" maskUnits="userSpaceOnUse" x="96" y="64" width="9" height="8">
<path d="M100.515 70.3941C101.207 69.5764 103.05 67.7616 103.97 66.9914L99.8698 65.04C99.2731 65.3555 97.9117 66.4242 97.24 68.1747C96.4004 70.3629 99.6791 71.3818 100.515 70.3941Z" fill="black" stroke="black" stroke-width="0.899763" stroke-linecap="round"/>
</mask>
<g mask="url(#mask0_3261_51499)">
<path d="M101.357 68.2399C101.8 67.7315 102.98 66.6034 103.569 66.1246L100.943 64.9106C100.56 65.1067 99.6884 65.771 99.2584 66.8594C98.7209 68.2198 100.821 68.8539 101.357 68.2399Z" fill="white"/>
</g>
<path d="M117.156 63.9551C114.119 66.4923 106.343 70.0177 98.0511 63.8099" stroke="#191916" stroke-width="1.34964" stroke-linecap="round"/>
<path d="M121.277 63.6933C120.448 64.3728 118.466 65.3453 117.161 63.7992C115.856 62.2531 116.637 60.5949 117.19 59.959" stroke="#191916" stroke-width="1.34964" stroke-linecap="round"/>
<path d="M93.8 63.4843C94.6177 64.1763 96.5852 65.1788 97.9135 63.6527C99.2418 62.1266 98.4864 60.4567 97.9427 59.8125" stroke="#191916" stroke-width="1.34964" stroke-linecap="round"/>
<circle cx="0.499496" cy="0.499496" r="0.499496" transform="matrix(-0.999971 -0.00759612 -0.00759612 0.999971 96.3281 60.05)" fill="#191916"/>
<circle cx="0.499496" cy="0.499496" r="0.499496" transform="matrix(-0.999971 -0.00759612 -0.00759612 0.999971 96.8125 61.802)" fill="#191916"/>
<circle cx="0.499496" cy="0.499496" r="0.499496" transform="matrix(-0.999971 -0.00759612 -0.00759612 0.999971 95.0703 61.2893)" fill="#191916"/>
<circle cx="119.058" cy="60.723" r="0.499496" transform="rotate(0.43523 119.058 60.723)" fill="#191916"/>
<circle cx="118.543" cy="62.4671" r="0.499496" transform="rotate(0.43523 118.543 62.4671)" fill="#191916"/>
<circle cx="120.293" cy="61.9808" r="0.499496" transform="rotate(0.43523 120.293 61.9808)" fill="#191916"/>
<path fill-rule="evenodd" clip-rule="evenodd" d="M168.733 78.6218C165.208 75.3727 162.96 70.748 162.854 65.5764C162.802 63.0895 163.251 60.7084 164.107 58.5294L156.931 58.6776C157.877 60.8195 158.423 63.18 158.475 65.667C158.582 70.8396 156.526 75.5541 153.137 78.9462L153.145 79.3522L168.742 79.03L168.733 78.6218Z" fill="#464F5D"/>
<path fill-rule="evenodd" clip-rule="evenodd" d="M142.92 37.4324C142.94 38.3955 143.039 39.3384 143.21 40.255C143.235 40.3869 143.125 40.506 142.991 40.4917C142.269 40.4144 141.534 40.3821 140.789 40.3975C131.315 40.5932 123.794 48.4317 123.99 57.9051C124.186 67.3785 132.024 74.8996 141.498 74.7038C149.007 74.5487 155.289 69.5917 157.474 62.8249C157.5 62.7446 157.574 62.689 157.658 62.6873L163.542 62.5657C163.626 62.564 163.702 62.6165 163.732 62.6956C166.194 69.3667 172.676 74.0602 180.185 73.905C189.659 73.7093 197.18 65.8708 196.984 56.3974C196.788 46.9239 188.95 39.4029 179.476 39.5986C178.732 39.614 177.999 39.6766 177.281 39.7836C177.148 39.8034 177.034 39.6889 177.053 39.5561C177.186 38.633 177.246 37.6867 177.226 36.7235C177.031 27.2501 169.192 19.729 159.719 19.9248C150.245 20.1206 142.724 27.959 142.92 37.4324Z" fill="#464F5D"/>
<circle cx="17.1569" cy="17.1569" r="17.1569" transform="matrix(-0.999787 0.0206594 0.0206594 0.999787 176.871 19.5693)" fill="#8595AE"/>
<path fill-rule="evenodd" clip-rule="evenodd" d="M172.53 78.5427C169.005 75.2936 166.757 70.6689 166.65 65.4973C166.599 63.0104 167.048 60.6293 167.904 58.4503L160.728 58.5985C161.674 60.7404 162.22 63.1009 162.272 65.5879C162.378 70.7605 160.323 75.475 156.934 78.8671L156.942 79.2731L172.539 78.9509L172.53 78.5427Z" fill="#F9F9F9"/>
<path fill-rule="evenodd" clip-rule="evenodd" d="M146.717 37.3524C146.737 38.3154 146.836 39.2583 147.007 40.1749C147.032 40.3068 146.922 40.4259 146.788 40.4116C146.066 40.3343 145.331 40.302 144.586 40.3174C135.112 40.5131 127.591 48.3516 127.787 57.825C127.983 67.2985 135.821 74.8195 145.295 74.6238C152.804 74.4686 159.086 69.5117 161.271 62.7448C161.297 62.6646 161.371 62.6089 161.455 62.6072L167.339 62.4856C167.423 62.4839 167.499 62.5364 167.528 62.6155C169.991 69.2866 176.473 73.9801 183.982 73.8249C193.456 73.6292 200.977 65.7907 200.781 56.3173C200.585 46.8439 192.747 39.3228 183.273 39.5186C182.529 39.5339 181.796 39.5966 181.078 39.7035C180.945 39.7233 180.83 39.6088 180.85 39.476C180.983 38.553 181.043 37.6067 181.023 36.6435C180.827 27.17 172.989 19.649 163.516 19.8447C154.042 20.0405 146.521 27.8789 146.717 37.3524Z" fill="#F9F9F9"/>
<circle cx="6.59514" cy="6.59514" r="6.49694" transform="matrix(-1 0 0 1 178.613 39.3203)" fill="#F9F9F9" stroke="black" stroke-width="0.196407"/>
<path d="M165.644 45.9153C165.644 45.0781 165.809 44.2491 166.129 43.4756C166.45 42.7021 166.919 41.9993 167.511 41.4073C168.103 40.8153 168.806 40.3457 169.58 40.0253C170.353 39.7049 171.182 39.54 172.019 39.54C172.856 39.54 173.685 39.7049 174.459 40.0253C175.232 40.3457 175.935 40.8153 176.527 41.4073C177.119 41.9993 177.589 42.7021 177.909 43.4756C178.23 44.2491 178.395 45.0781 178.395 45.9153L172.019 45.9153H165.644Z" fill="#191916"/>
<path fill-rule="evenodd" clip-rule="evenodd" d="M170.339 48.0247C170.147 47.6095 170.04 47.1471 170.04 46.6598C170.04 44.8592 171.5 43.3995 173.3 43.3995C175.101 43.3995 176.561 44.8592 176.561 46.6598C176.561 48.4604 175.101 49.9201 173.3 49.9201C172.812 49.9201 172.349 49.8128 171.933 49.6203C172.156 49.4141 172.295 49.1192 172.295 48.7917C172.295 48.1684 171.79 47.6631 171.167 47.6631C170.839 47.6631 170.545 47.8023 170.339 48.0247Z" fill="#191916"/>
<circle cx="6.59514" cy="6.59514" r="6.49694" transform="matrix(-1 0 0 1 163.207 39.3203)" fill="#F9F9F9" stroke="#191916" stroke-width="0.196407"/>
<path d="M150.238 45.9153C150.238 45.0781 150.403 44.2491 150.723 43.4756C151.043 42.7021 151.513 41.9993 152.105 41.4073C152.697 40.8153 153.4 40.3457 154.173 40.0253C154.947 39.7049 155.776 39.54 156.613 39.54C157.45 39.54 158.279 39.7049 159.053 40.0253C159.826 40.3457 160.529 40.8153 161.121 41.4073C161.713 41.9993 162.183 42.7021 162.503 43.4756C162.823 44.2491 162.988 45.0781 162.988 45.9153L156.613 45.9153H150.238Z" fill="#191916"/>
<path fill-rule="evenodd" clip-rule="evenodd" d="M154.956 48.0247C154.764 47.6095 154.657 47.1471 154.657 46.6598C154.657 44.8592 156.117 43.3995 157.918 43.3995C159.718 43.3995 161.178 44.8592 161.178 46.6598C161.178 48.4604 159.718 49.9201 157.918 49.9201C157.429 49.9201 156.966 49.8128 156.55 49.6203C156.773 49.4141 156.912 49.1192 156.912 48.7917C156.912 48.1684 156.407 47.6631 155.784 47.6631C155.457 47.6631 155.162 47.8023 154.956 48.0247Z" fill="#191916"/>
<rect width="10.3324" height="2.41822" transform="matrix(-0.998753 -0.0499246 -0.0499246 0.998753 176.684 34.7314)" fill="#191916"/>
<rect x="152.816" y="35.4902" width="10.3324" height="1.6581" transform="rotate(-2.86166 152.816 35.4902)" fill="#191916"/>
<path d="M159.923 59.3755C160.307 57.4264 158.198 56.769 157.178 56.6975C157.178 55.9477 155.278 52.9483 153.8 54.5552C152.111 56.3916 154.471 58.1608 155.278 59.0541C156.439 60.3395 159.5 61.5178 159.923 59.3755Z" fill="#191916" stroke="#191916" stroke-width="0.196407"/>
<mask id="mask1_3261_51499" style="mask-type:alpha" maskUnits="userSpaceOnUse" x="153" y="54" width="7" height="7">
<path d="M159.923 59.3765C160.307 57.4274 158.198 56.7699 157.178 56.6985C157.178 55.9487 155.278 52.9493 153.8 54.5561C152.111 56.3926 154.471 58.1618 155.278 59.0551C156.439 60.3405 159.5 61.5188 159.923 59.3765Z" fill="black"/>
</mask>
<g mask="url(#mask1_3261_51499)">
<ellipse cx="2.20549" cy="1.61736" rx="2.20549" ry="1.61736" transform="matrix(-0.822471 -0.568806 -0.568806 0.822471 157.617 59.5388)" fill="#F9F9F9"/>
</g>
<defs>
<clipPath id="clip0_3261_51499">
<rect width="79.2208" height="67.8328" fill="white" transform="matrix(-1 0 0 1 79.2188 12.6475)"/>
</clipPath>
</defs>
</svg>
