<svg width="41" height="41" viewBox="0 0 41 41" fill="none" xmlns="http://www.w3.org/2000/svg">
<path d="M22.0454 5.01341C29.9359 0.457858 36.3455 4.1106 36.3712 13.1774C36.3969 22.2441 30.0289 33.2787 22.1385 37.8343C14.2479 42.3899 7.83828 38.7324 7.81258 29.6657C7.78687 20.5989 14.1549 9.56903 22.0454 5.01341Z" fill="white"/>
<path d="M36.3737 13.1801C36.3995 22.246 30.0271 33.2772 22.1403 37.8327C16.3348 41.1833 11.3411 40.0944 9.08594 35.6806C16.5346 38.0195 25.4522 34.5852 30.549 26.8402C35.781 18.889 35.2461 9.01768 29.7436 3.15417C33.7191 3.77917 36.3545 7.36171 36.3737 13.1801Z" fill="#E9EDF4"/>
<path d="M32.2106 4.01791C29.6141 2.51017 26.0186 2.72281 22.043 5.01667C14.1561 9.57217 7.79011 20.5969 7.8159 29.6692C7.8288 34.1732 9.41386 37.3434 11.9783 38.8317L8.80177 36.9825C6.23714 35.494 4.64579 32.3239 4.63289 27.82C4.60709 18.754 10.9796 7.72287 18.8663 3.16741C22.8356 0.873551 26.4309 0.660907 29.0276 2.16865L32.2106 4.01791Z" fill="#BFDBFF"/>
<path d="M15.7289 40.0412C14.3258 40.0412 13.0281 39.7138 11.8822 39.0546C9.11484 37.4619 7.58334 34.1277 7.57039 29.6663C7.54448 20.5418 13.9837 9.38889 21.9238 4.80472C25.8311 2.54869 29.5171 2.18952 32.3022 3.79226C35.0684 5.3844 36.5987 8.71706 36.6117 13.1767C36.6376 22.3036 30.1989 33.4588 22.2583 38.043C19.9589 39.3705 17.7362 40.0412 15.7289 40.0412ZM28.4549 3.28853C26.5312 3.28853 24.3903 3.93769 22.1652 5.22218C14.3582 9.72981 8.02731 20.6946 8.05321 29.6651C8.06499 33.947 9.51052 37.133 12.1231 38.6363C14.7533 40.1504 18.2667 39.7912 22.0168 37.6256C29.8239 33.1179 36.1548 22.151 36.1288 13.1779C36.1171 8.89783 34.6727 5.71295 32.0613 4.21031C30.9915 3.59442 29.7744 3.28853 28.4549 3.28853Z" fill="#101012"/>
<path d="M11.9775 39.0726C11.9363 39.0726 11.8945 39.0623 11.8562 39.0399C11.8509 39.0369 11.845 39.0334 11.8397 39.0302L8.67959 37.1907C5.92691 35.5933 4.40366 32.2653 4.3907 27.8201C4.3648 18.6983 10.804 7.54504 18.7447 2.95821C22.6621 0.694235 26.3568 0.338888 29.1478 1.95988L32.328 3.80727C32.3285 3.80786 32.3297 3.80845 32.3309 3.80904C32.4457 3.87587 32.4852 4.02337 32.418 4.13848C32.3509 4.25418 32.2043 4.29333 32.0883 4.22592L32.0842 4.22356C29.4522 2.69766 25.9282 3.05242 22.1627 5.22542C14.3587 9.73276 8.03072 20.6979 8.05663 29.6684C8.06841 33.9281 9.49863 37.1042 12.0829 38.6139L12.0988 38.623C12.2136 38.6901 12.2531 38.8376 12.186 38.9527C12.1412 39.0296 12.0605 39.0726 11.9775 39.0726ZM25.2734 1.44114C23.3504 1.44114 21.2101 2.0903 18.9861 3.37567C11.1785 7.88566 4.84762 18.8508 4.87353 27.8189C4.8853 32.0855 6.32318 35.2656 8.92218 36.7736L9.84838 37.3129C8.37636 35.5 7.58323 32.8756 7.57381 29.6696C7.5479 20.5454 13.9842 9.39213 21.9213 4.80766C24.7659 3.16576 27.4909 2.52897 29.8396 2.91964L28.9052 2.37676C27.8283 1.75144 26.603 1.44114 25.2734 1.44114Z" fill="#101012"/>
<path d="M22.9243 17.1284L20.7969 15.8921C20.8619 15.9299 20.9462 15.9188 21.0306 15.8701C21.1307 15.8123 21.2308 15.7012 21.298 15.556C21.4438 15.2322 21.6127 14.9041 21.801 14.578C22.7393 12.9526 23.9698 11.7008 25.2016 10.9897C26.4423 10.2732 27.6841 10.1053 28.6312 10.6556L30.7586 11.892C29.8116 11.3416 28.5697 11.5096 27.329 12.226C26.0973 12.9372 24.8668 14.1889 23.9284 15.8143C23.7402 16.1404 23.5713 16.4686 23.4255 16.7924C23.3583 16.9376 23.2582 17.0486 23.158 17.1065C23.0737 17.1552 22.9893 17.1662 22.9243 17.1284Z" fill="#464F5D"/>
<path d="M20.2744 15.4821L22.4019 16.7185C22.3964 16.7153 22.3908 16.7121 22.3853 16.7089L20.2578 15.4726C20.2634 15.4758 20.2689 15.4789 20.2744 15.4821Z" fill="white"/>
<path d="M18.9719 17.0535C20.2052 16.3414 21.4397 16.1709 22.3839 16.7089C22.5734 16.8169 22.7436 16.9493 22.8946 17.1017C22.9624 17.169 23.0627 17.1643 23.163 17.1065C23.2631 17.0486 23.3633 16.9376 23.4304 16.7924C23.5762 16.4686 23.7452 16.1404 23.9334 15.8143C24.8718 14.1889 26.1023 12.9372 27.334 12.226C28.5934 11.4987 29.854 11.3367 30.8062 11.9173C32.6586 13.0482 32.5299 16.6716 30.659 19.9123L23.8203 31.7573C23.6513 32.0479 23.4308 32.2716 23.2102 32.399C22.9895 32.5264 22.7686 32.5575 22.5984 32.4627L15.5952 28.4674C13.708 27.3965 13.6943 23.8908 15.573 20.6412C16.5098 19.0163 17.7402 17.7646 18.9719 17.0535Z" fill="white"/>
<path d="M30.6609 19.9137L23.8244 31.7567C23.6505 32.0467 23.4314 32.2722 23.2123 32.4011C22.9933 32.5235 22.7677 32.5557 22.6002 32.4655L15.5963 28.4706C15.3449 28.3289 15.1322 28.142 14.9453 27.9229C15.957 28.3224 17.0394 28.535 18.1607 28.535C24.0113 28.535 28.7537 22.6844 28.7537 15.4677C28.7537 14.1855 28.6055 12.9484 28.322 11.7757C29.2369 11.4664 30.1067 11.4922 30.8091 11.9174C32.6584 13.0515 32.5294 16.6727 30.6609 19.9137Z" fill="#E9EDF4"/>
<path d="M23.0176 17.3927C22.944 17.3927 22.8728 17.3741 22.8092 17.3368L20.683 16.1011C20.6824 16.1011 20.6824 16.1008 20.6824 16.1008C20.5676 16.034 20.5281 15.8862 20.5953 15.7711C20.6624 15.6563 20.8096 15.6163 20.925 15.684C20.9656 15.6336 21.0351 15.5647 21.0857 15.4549C21.2318 15.1296 21.4049 14.7931 21.5986 14.4575C22.5271 12.8497 23.766 11.544 25.0873 10.7812C26.461 9.98812 27.7652 9.86888 28.7591 10.4474L30.8865 11.6839C31.0013 11.7507 31.0407 11.8985 30.9736 12.0136C30.9065 12.1284 30.7599 12.1685 30.6439 12.1008L30.6409 12.099C29.8025 11.6135 28.672 11.7334 27.4567 12.4349C26.2072 13.1565 25.0308 14.3995 24.144 15.9354C23.9591 16.2554 23.7937 16.5772 23.6518 16.8919C23.567 17.0762 23.4339 17.2299 23.2855 17.3156C23.1966 17.3668 23.1054 17.3927 23.0176 17.3927ZM21.3442 15.9274L23.0259 16.9049C23.0989 16.8636 23.1648 16.7959 23.2131 16.6914C23.3609 16.3646 23.5334 16.0284 23.726 15.6943C24.6545 14.0862 25.894 12.7805 27.2152 12.0175C27.9465 11.5953 28.6584 11.3642 29.3138 11.3277L28.5165 10.8643C27.6786 10.377 26.5452 10.4969 25.3287 11.1987C24.0792 11.9203 22.9034 13.1633 22.0166 14.6989C21.8306 15.0204 21.6651 15.3419 21.525 15.6551C21.4773 15.7576 21.4155 15.8506 21.3442 15.9274Z" fill="#101012"/>
<path d="M22.2795 16.9272L20.1356 15.6813C20.1339 15.6801 20.1321 15.6792 20.1309 15.6786C20.0185 15.6097 19.9819 15.4628 20.0497 15.3495C20.118 15.2356 20.264 15.1976 20.3782 15.2644L22.5221 16.5103L22.2795 16.9272Z" fill="#101012"/>
<path d="M22.8253 32.7605C22.704 32.7605 22.5891 32.7317 22.4861 32.6743L15.4804 28.6777C14.8221 28.3041 14.3487 27.6449 14.1115 26.7714C13.6469 25.0618 14.1285 22.6668 15.3686 20.5212C16.2954 18.9141 17.5342 17.6087 18.8561 16.8456C20.2198 16.058 21.5163 15.9356 22.5085 16.4999C22.7134 16.6174 22.9024 16.7628 23.0708 16.9327C23.0955 16.8703 23.1656 16.8014 23.2162 16.6919C23.364 16.3651 23.5365 16.0289 23.7291 15.6947C24.6576 14.0867 25.8971 12.781 27.2184 12.0179C28.615 11.2113 29.9369 11.1017 30.9367 11.7123C32.8692 12.892 32.8409 16.6248 30.8731 20.0337L24.0341 31.8788C23.8492 32.1961 23.6013 32.4552 23.3357 32.6086C23.1603 32.7096 22.9872 32.7605 22.8253 32.7605ZM21.1371 16.6333C20.5165 16.6333 19.8217 16.845 19.0975 17.263C17.8475 17.9846 16.6716 19.2273 15.7866 20.7623C14.6084 22.8008 14.145 25.0548 14.5772 26.6451C14.7798 27.3917 15.1748 27.9496 15.7189 28.2582L22.7228 32.2538C22.8088 32.3027 22.9442 32.2783 23.0949 32.1908C23.2857 32.0807 23.4759 31.8788 23.6166 31.6368L30.455 19.7923C32.2933 16.6086 32.3964 13.1685 30.6859 12.1239C29.8433 11.6108 28.6974 11.7209 27.4598 12.4354C26.2103 13.157 25.0339 14.4 24.1471 15.9359C23.9622 16.2559 23.7968 16.5777 23.6549 16.8924C23.5701 17.0767 23.437 17.2304 23.2886 17.316C23.0855 17.4326 22.8718 17.4155 22.7293 17.2733C22.5903 17.1332 22.436 17.0143 22.2694 16.9189C21.9344 16.7281 21.5522 16.6333 21.1371 16.6333Z" fill="#101012"/>
<path d="M22.3886 16.7067C21.4407 16.1694 20.2091 16.3385 18.9775 17.0508C17.7459 17.7632 16.5145 19.0189 15.5787 20.6429C13.695 23.8909 13.7132 27.3984 15.5968 28.467L13.4717 27.2295C11.582 26.1609 11.57 22.6533 13.4476 19.4053C14.3833 17.7813 15.6148 16.5256 16.8464 15.8192C18.078 15.1069 19.3156 14.9318 20.2574 15.4751L22.3886 16.7067Z" fill="#BFDBFF"/>
<path d="M15.6018 28.7082C15.5612 28.7082 15.5206 28.6982 15.4829 28.677C15.4664 28.6675 15.4505 28.6584 15.4346 28.6487L13.3555 27.4381C12.699 27.0669 12.225 26.4086 11.9871 25.536C11.5214 23.8266 12.003 21.4314 13.2437 19.2849C14.1728 17.6721 15.4116 16.367 16.7312 15.6101C18.099 14.8187 19.3955 14.6972 20.383 15.2662L22.5145 16.498C22.6293 16.5643 22.6693 16.7112 22.6034 16.8266C22.5368 16.942 22.3902 16.9817 22.2748 16.9167C21.4346 16.44 20.3094 16.5622 19.1029 17.2597C17.8534 17.9827 16.6776 19.2272 15.7926 20.7634C14.6126 22.798 14.1481 25.0505 14.5797 26.6429C14.7769 27.3719 15.1573 27.9206 15.6801 28.2336L15.7231 28.2586C15.8379 28.3254 15.8768 28.4724 15.8109 28.5872C15.7661 28.6649 15.6854 28.7082 15.6018 28.7082ZM19.0116 15.3961C18.3928 15.3961 17.698 15.6083 16.972 16.0282C15.7243 16.7436 14.549 17.9857 13.6617 19.526C12.4829 21.5653 12.0195 23.8196 12.4529 25.4094C12.656 26.1548 13.0511 26.7118 13.5958 27.0198L14.3801 27.4764C14.2723 27.26 14.1828 27.0236 14.1139 26.7689C13.6499 25.057 14.1333 22.6632 15.3751 20.522C16.3013 18.9142 17.5396 17.607 18.8615 16.8422C19.5893 16.4215 20.2994 16.1907 20.9541 16.1536L20.1416 15.684C19.8077 15.4918 19.4267 15.3961 19.0116 15.3961Z" fill="#101012"/>
</svg>
