<svg width="41" height="41" viewBox="0 0 41 41" fill="none" xmlns="http://www.w3.org/2000/svg">
<path d="M32.1167 3.85888C29.5071 2.34058 25.8944 2.55749 21.9088 4.85529C13.9852 9.43054 7.57989 20.5196 7.60703 29.6294C7.6206 34.1504 9.21336 37.3293 11.7891 38.8273L8.89325 37.1432C6.32431 35.6452 4.72459 32.4663 4.71102 27.9452C4.68405 18.8354 11.0894 7.74637 19.013 3.17791C22.9984 0.873327 26.6112 0.656421 29.2209 2.17476L32.1167 3.85888Z" fill="#D7FF82"/>
<path d="M11.7883 39.0682C11.7471 39.0682 11.7053 39.0579 11.667 39.0355C11.6641 39.0337 11.6611 39.0322 11.6582 39.0305L8.77127 37.3512C6.01034 35.7414 4.48238 32.4011 4.46883 27.9456C4.44175 18.7745 10.9122 7.56979 18.8917 2.96854C22.8285 0.692199 26.5398 0.335675 29.3413 1.96609L32.2306 3.64626C32.233 3.64773 32.2347 3.64891 32.2371 3.65009C32.3519 3.71692 32.3914 3.86471 32.3242 3.97982C32.2577 4.09523 32.1099 4.13468 31.9945 4.06696C29.3508 2.52899 25.812 2.88287 22.0289 5.06411C14.1824 9.59441 7.82034 20.614 7.84742 29.6284C7.85979 33.9073 9.3012 37.0989 11.9049 38.616L11.9096 38.6186C12.0244 38.6854 12.0639 38.8332 11.9968 38.9483C11.952 39.0252 11.8714 39.0682 11.7883 39.0682ZM25.4499 1.44087C23.518 1.44087 21.3683 2.09386 19.1331 3.3863C11.2867 7.91071 4.92457 18.927 4.95166 27.9444C4.96402 32.2215 6.4072 35.4143 9.01386 36.9343L9.65684 37.3085C8.17421 35.487 7.37461 32.8503 7.3646 29.6295C7.33752 20.4615 13.8074 9.25379 21.7875 4.64635C24.645 2.99916 27.3824 2.3603 29.7394 2.75568L29.0987 2.38297C28.0171 1.75353 26.7853 1.44087 25.4499 1.44087Z" fill="#101012"/>
<path d="M21.9088 4.85671C29.8326 0.281938 36.2758 3.9536 36.3016 13.0637C36.3274 22.1638 29.9261 33.2513 22.0023 37.8261C14.0784 42.4009 7.63525 38.7293 7.60945 29.6291C7.58363 20.519 13.985 9.43156 21.9088 4.85671Z" fill="white"/>
<path d="M36.2999 13.0625C36.3301 22.1609 29.9268 33.249 22.0042 37.8253C15.8059 41.4068 10.5121 39.9356 8.49219 34.7684C8.53443 34.7925 8.58272 34.8106 8.63085 34.8347C17.0299 38.6332 27.2558 34.1473 31.4764 24.8199C35.1182 16.7645 33.0983 7.73246 27.0688 2.97532C32.4531 2.25175 36.2818 6.04427 36.2999 13.0625Z" fill="#E9EDF4"/>
<path d="M15.5557 40.0407C14.1455 40.0407 12.8413 39.7119 11.6896 39.0489C8.91038 37.4497 7.37241 34.1041 7.35945 29.6288C7.33354 20.4596 13.8022 9.25277 21.7794 4.6471C25.7032 2.38195 29.4045 2.02189 32.2025 3.63199C34.9829 5.23238 36.5214 8.58123 36.5344 13.0624C36.5603 22.2257 30.0916 33.4281 22.1144 38.0341C19.8051 39.3674 17.5724 40.0407 15.5557 40.0407ZM22.0208 5.06457C14.1767 9.5934 7.81637 20.6121 7.84228 29.6276C7.85405 33.9236 9.30606 37.1211 11.9298 38.6308C14.5753 40.1526 18.1052 39.7917 21.873 37.6166C29.7171 33.0875 36.0775 22.0732 36.0516 13.0635C36.0398 8.762 34.5872 5.56093 31.9623 4.05034C29.3185 2.52886 25.788 2.88921 22.0208 5.06457Z" fill="#101012"/>
<path d="M21.9286 10.967C26.9151 8.088 30.9699 10.3986 30.9861 16.1318C31.0024 21.8586 26.9739 28.8361 21.9874 31.7151C17.0008 34.5941 12.946 32.2835 12.9297 26.5566C12.9135 20.8235 16.9419 13.846 21.9286 10.967Z" fill="white"/>
<path d="M17.9344 33.199C17.0318 33.199 16.1957 32.9879 15.4567 32.5627C13.6791 31.5394 12.6958 29.4067 12.6875 26.5572C12.6711 20.7583 16.7621 13.6708 21.807 10.7582C24.3054 9.31595 26.6653 9.08955 28.4559 10.1194C30.2341 11.143 31.2186 13.2778 31.2268 16.1311C31.2427 21.9268 27.1517 29.0116 22.1073 31.9239C20.64 32.7712 19.2198 33.199 17.9344 33.199ZM25.9776 9.96629C24.7776 9.96629 23.4398 10.3723 22.0484 11.1757C17.1366 14.0114 13.1539 20.9111 13.1704 26.556C13.1774 29.226 14.0754 31.2108 15.6975 32.1444C17.3327 33.0862 19.5236 32.8589 21.8659 31.5064C26.7772 28.671 30.7599 21.7743 30.744 16.1323C30.7363 13.4585 29.8384 11.4716 28.2151 10.5374C27.5515 10.1559 26.7966 9.96629 25.9776 9.96629Z" fill="#101012"/>
<path d="M21.9384 16.9409C24.0532 15.72 25.7718 16.7017 25.7787 19.1317C25.7815 20.1294 25.4947 21.2171 25.0092 22.2369C24.5941 23.1087 24.0337 23.931 23.3847 24.6053C22.9456 25.0616 22.4661 25.45 21.9633 25.7403C21.4363 26.0446 20.9341 26.2119 20.4769 26.2542C19.8317 26.3139 19.276 26.1244 18.8671 25.7189C18.4029 25.2585 18.1278 24.5197 18.125 23.5506C18.1181 21.1206 19.8236 18.1619 21.9384 16.9409Z" fill="white"/>
<path d="M25.7754 19.1321C25.7788 20.129 25.4935 21.2186 25.0054 22.2361C24.5928 23.1091 24.0326 23.9307 23.3829 24.6044C22.943 25.0616 22.4651 25.45 21.9599 25.7422C21.4339 26.0446 20.9321 26.2131 20.4749 26.2544C19.8287 26.3162 19.2753 26.1237 18.8662 25.7181C18.6909 25.5462 18.5431 25.3365 18.4297 25.089C18.8182 25.1819 19.2272 25.2334 19.6465 25.2334C22.417 25.2334 24.6582 23.0645 24.6582 20.3868C24.6582 18.8365 23.9088 17.4581 22.7401 16.5747C24.4691 16.0041 25.7685 17.0216 25.7754 19.1321Z" fill="#E9EDF4"/>
<path d="M20.2445 26.5065C19.6369 26.5065 19.1058 26.296 18.6972 25.8906C18.1678 25.366 17.8864 24.5573 17.8828 23.5516C17.8764 21.0477 19.6416 17.9885 21.8173 16.7326C22.9201 16.0964 23.9694 15.9998 24.7743 16.4617C25.5733 16.9216 26.0155 17.8696 26.0196 19.1314C26.0225 20.1356 25.7482 21.2455 25.2265 22.3407C24.796 23.2448 24.219 24.0859 23.5578 24.7728C23.0903 25.2585 22.5939 25.6545 22.0834 25.9492C21.5382 26.2642 21.0053 26.4476 20.4989 26.4947C20.4124 26.5027 20.3276 26.5065 20.2445 26.5065ZM23.6538 16.6563C23.1698 16.6563 22.6269 16.8221 22.0587 17.15C20.0161 18.3294 18.3592 21.2005 18.3657 23.5504C18.368 24.4248 18.6 25.1155 19.0363 25.5479C19.3967 25.9053 19.8836 26.0667 20.4542 26.0143C20.8905 25.9739 21.3574 25.8114 21.842 25.5317C22.3136 25.2594 22.7741 24.8914 23.2104 24.4383C23.8357 23.7883 24.3827 22.9913 24.7907 22.1334C25.2818 21.1027 25.5397 20.0652 25.5368 19.1326C25.5338 18.0503 25.1776 17.2501 24.5334 16.8798C24.2738 16.7305 23.977 16.6563 23.6538 16.6563Z" fill="#101012"/>
<path d="M21.9367 18.7068C22.3493 18.4686 22.6921 18.6552 22.6935 19.1351C22.6948 19.6092 22.3542 20.1903 21.9416 20.4285C21.5316 20.6653 21.1888 20.4786 21.1875 20.0046C21.1861 19.5247 21.5267 18.9435 21.9367 18.7068Z" fill="#101012"/>
<path d="M21.946 20.9552C22.8926 20.4087 23.677 20.7599 23.809 21.7323C23.8297 21.8806 23.7188 22.0903 23.5771 22.1721L20.3297 24.047C20.188 24.1288 20.0762 24.0477 20.096 23.876C20.2221 22.7545 21.002 21.5003 21.946 20.9552Z" fill="#101012"/>
<path d="M21.915 9.19725C22.4848 8.86831 22.9483 9.13237 22.9501 9.78262L22.9593 13.0339C22.9612 13.6841 22.5007 14.4817 21.931 14.8106C21.3651 15.1373 20.9017 14.8732 20.8998 14.2229L20.8906 10.9717C20.8888 10.3214 21.3492 9.52397 21.915 9.19725Z" fill="#D7FF82"/>
<path d="M21.4704 15.1931C21.3309 15.1931 21.1996 15.1593 21.0812 15.0912C20.8098 14.9349 20.659 14.6267 20.6579 14.2233L20.6484 10.9722C20.6467 10.2318 21.1495 9.36036 21.7937 8.98853C22.1487 8.78304 22.4944 8.75772 22.7682 8.91552C23.0396 9.07155 23.1897 9.3795 23.1909 9.78195L23.1998 13.0334C23.2021 13.7735 22.6975 14.6461 22.051 15.0194C21.8514 15.1348 21.6535 15.1931 21.4704 15.1931ZM22.0351 9.406C21.5434 9.6901 21.1295 10.4067 21.1313 10.9711L21.1407 14.2222C21.1413 14.4427 21.2072 14.6072 21.322 14.6732C21.4392 14.7409 21.6164 14.7135 21.8096 14.6019C22.3036 14.3167 22.7193 13.5989 22.7169 13.0348L22.7081 9.78313C22.7075 9.56321 22.6416 9.39922 22.5273 9.33357C22.4119 9.26674 22.2318 9.29236 22.0351 9.406Z" fill="#101012"/>
<path d="M21.9697 27.8737C22.5395 27.5448 23.003 27.8089 23.0048 28.4636L23.014 31.7103C23.0159 32.3606 22.5554 33.1581 21.9856 33.4871C21.4197 33.8138 20.9564 33.5496 20.9545 32.8994L20.9453 29.6526C20.9435 28.9979 21.4038 28.2005 21.9697 27.8737Z" fill="#D7FF82"/>
<path d="M21.5251 33.869C21.3856 33.869 21.2543 33.8352 21.1359 33.7671C20.8639 33.6108 20.7137 33.3026 20.7126 32.8995L20.7031 29.6528C20.7014 28.9101 21.2042 28.0366 21.8484 27.6647C22.2022 27.4604 22.5485 27.4345 22.8217 27.5914C23.0937 27.748 23.2444 28.0575 23.2456 28.4626L23.2544 31.7095C23.2562 32.4497 22.7516 33.3223 22.1057 33.6956C21.9061 33.811 21.7082 33.869 21.5251 33.869ZM22.0898 28.0822C21.5981 28.3663 21.1842 29.0849 21.186 29.6517L21.1954 32.8984C21.196 33.1189 21.2619 33.2831 21.3767 33.3491C21.4915 33.4165 21.6711 33.3903 21.8643 33.2778C22.3577 32.9929 22.7734 32.2751 22.7716 31.7107L22.7628 28.4637C22.7622 28.2415 22.6963 28.0757 22.5814 28.0095C22.4643 27.9429 22.2853 27.9697 22.0898 28.0822Z" fill="#101012"/>
<path d="M31.4829 14.6511C32.0526 14.3221 32.5161 14.5862 32.518 15.2409C32.5198 15.8911 32.0594 16.6887 31.4896 17.0176L28.664 18.649C28.0982 18.9757 27.6347 18.7116 27.6328 18.0614C27.631 17.4067 28.0914 16.6091 28.6573 16.2824L31.4829 14.6511Z" fill="#D7FF82"/>
<path d="M28.2032 19.0308C28.0636 19.0308 27.9323 18.9969 27.814 18.9289C27.542 18.7726 27.3918 18.4644 27.3906 18.0613C27.3889 17.3185 27.8917 16.445 28.5359 16.0732L31.3616 14.4419C31.7166 14.2373 32.0622 14.2123 32.3343 14.3686C32.6063 14.5252 32.757 14.8346 32.7582 15.2397C32.7606 15.9802 32.256 16.8528 31.6095 17.2261L28.7838 18.8571C28.5836 18.9725 28.3863 19.0308 28.2032 19.0308ZM31.9445 14.7504C31.8456 14.7504 31.7278 14.7875 31.603 14.8594L28.7773 16.4907C28.2856 16.7748 27.8717 17.4934 27.8735 18.0601C27.874 18.2807 27.94 18.4449 28.0548 18.5109C28.1696 18.5777 28.3486 18.5518 28.5423 18.4396L31.368 16.8083C31.8621 16.5231 32.2778 15.8056 32.2754 15.2412C32.2748 15.0184 32.2089 14.8529 32.094 14.7867C32.0516 14.7625 32.001 14.7504 31.9445 14.7504Z" fill="#101012"/>
<path d="M15.2328 24.0347C15.8025 23.7058 16.266 23.9698 16.2679 24.6245C16.2697 25.2748 15.8092 26.0723 15.2395 26.4012L12.4139 28.0326C11.8442 28.3615 11.3847 28.0951 11.3828 27.4449C11.381 26.7902 11.8375 25.995 12.4072 25.666L15.2328 24.0347Z" fill="#D7FF82"/>
<path d="M11.9514 28.4157C11.8125 28.4157 11.6812 28.3822 11.5634 28.3144C11.292 28.1584 11.1418 27.8496 11.1406 27.4454C11.1389 26.7026 11.6417 25.8291 12.2859 25.4572L15.1116 23.826C15.4666 23.6208 15.8117 23.596 16.0843 23.7526C16.3563 23.9093 16.507 24.2187 16.5082 24.6238C16.5106 25.3642 16.006 26.2368 15.3595 26.6101L12.5338 28.2414C12.333 28.3574 12.1351 28.4157 11.9514 28.4157ZM15.6945 24.1345C15.5956 24.1345 15.4778 24.1716 15.353 24.2434L12.5273 25.8747C12.0356 26.1588 11.6217 26.8775 11.6235 27.4442C11.624 27.6659 11.69 27.8307 11.8042 27.8964C11.9196 27.9626 12.098 27.9355 12.2923 27.824L15.118 26.1924C15.6121 25.9071 16.0278 25.1896 16.0254 24.6253C16.0248 24.4024 15.9589 24.2369 15.844 24.1707C15.8016 24.1466 15.751 24.1345 15.6945 24.1345Z" fill="#101012"/>
</svg>
