<svg width="48" height="48" viewBox="0 0 48 48" fill="none" xmlns="http://www.w3.org/2000/svg">
<path d="M28.5171 3.23272C29.5948 2.6105 30.4694 3.10899 30.4729 4.34732L30.5121 18.1962C30.5157 19.4392 29.6468 20.9443 28.569 21.5665L7.36588 33.8909C6.28817 34.5132 5.40217 33.9385 5.39865 32.6955L5.35939 18.8466C5.35587 17.6083 6.22896 16.1008 7.30666 15.4786L28.5171 3.23272Z" fill="white"/>
<path d="M30.5143 18.1943C30.5143 19.4378 29.6453 20.9427 28.5714 21.5645L7.36805 33.8935C6.2872 34.5152 5.40403 33.9359 5.39696 32.6924L5.38281 26.5031C7.1633 27.0401 9.07091 27.3298 11.0563 27.3298C20.8488 27.3298 28.7902 20.3139 28.7902 11.6588C28.7902 8.98815 28.0342 6.47991 26.6989 4.2826L28.5148 3.22987C29.5958 2.60811 30.4719 3.10977 30.4719 4.3462L30.5143 18.1943Z" fill="#E9EDF4"/>
<path d="M45.3105 29.6632L45.3043 32.7546C45.2978 33.1591 45.0324 33.5637 44.5014 33.8735L23.4309 46.1188C22.3562 46.7447 20.6178 46.7447 19.5366 46.1188L7.48108 39.1648C6.94367 38.8487 6.67188 38.4378 6.67188 38.0332L6.6782 34.9355C6.6782 35.3465 6.95 35.7574 7.49374 36.0735L19.5431 43.0275C20.6241 43.6533 22.3687 43.6533 23.4372 43.0275L44.5076 30.7822C45.045 30.4724 45.3105 30.0678 45.3105 29.6632Z" fill="#FADE66"/>
<path d="M21.4564 43.4947C20.7644 43.4891 20.0737 43.3347 19.5431 43.0275L7.49374 36.0735C6.95 35.7574 6.6782 35.3465 6.6782 34.9355L6.67188 38.0332C6.67188 38.4378 6.94367 38.8487 7.48108 39.1648L19.5366 46.1188C20.0695 46.4273 20.7624 46.5822 21.4564 46.5865V43.4947Z" fill="#544A00"/>
<path d="M44.4961 28.5273C45.5779 29.1519 45.5795 30.1609 44.5088 30.7831L23.4362 43.0291C22.3655 43.6513 20.6236 43.6537 19.5418 43.0292L7.48961 36.0708C6.41201 35.4487 6.41031 34.4396 7.48099 33.8174L28.5536 21.5713C29.6242 20.9491 31.3663 20.9468 32.4439 21.569L44.4961 28.5273Z" fill="white"/>
<path d="M44.5137 30.785L23.4377 43.0293C22.3639 43.6511 20.6257 43.6511 19.5449 43.0293L7.49134 36.0699C6.41032 35.4482 6.41032 34.4378 7.48427 33.8161L8.29671 33.3427C11.8013 37.921 18.8666 40.2738 26.3063 38.8113C33.9298 37.3134 39.688 32.2546 41.0235 26.5176L44.4996 28.5241C45.5806 29.1529 45.5806 30.1633 44.5137 30.785Z" fill="#E9EDF4"/>
<path d="M2.68753 17.2918L2.7255 31.1428C2.7255 31.756 2.94667 32.1922 3.2944 32.3945L5.9992 34.0041C5.65303 33.8106 5.3996 33.3112 5.3996 32.698L5.36163 18.847C5.35885 18.3006 5.53372 17.7053 5.81524 17.1538L3.14423 15.5967C2.86132 16.1488 2.68475 16.7447 2.68753 17.2918Z" fill="#544A00"/>
<path d="M27.2314 1.54403C26.8774 1.33544 26.3843 1.36705 25.8407 1.67681L4.63109 13.9221C4.03086 14.2716 3.49854 14.8981 3.14062 15.5965L5.81164 17.1536C6.16863 16.4544 6.70095 15.8271 7.30519 15.4773L28.5148 3.23198C29.0584 2.92222 29.5452 2.89058 29.8992 3.09921L27.2314 1.54403Z" fill="#FADE66"/>
<path d="M6.52988 34.4277C6.29275 34.4277 6.06871 34.3698 5.86743 34.254C5.39316 33.981 5.11949 33.413 5.11743 32.6961L5.07813 18.8473C5.07469 17.4996 5.9922 15.9121 7.16683 15.2338L28.3771 2.98837C28.9913 2.63405 29.582 2.58511 30.0432 2.84982C30.5009 3.11314 30.7546 3.64462 30.7567 4.34706L30.796 18.1959C30.7994 19.5463 29.884 21.1345 28.7114 21.8114L7.50943 34.1354C7.17234 34.3298 6.83939 34.4277 6.52988 34.4277ZM29.3932 3.24688C29.1746 3.24688 28.9251 3.32408 28.6597 3.4778L7.44946 15.7232C6.44992 16.3002 5.63995 17.7009 5.64339 18.8459L5.68268 32.6947C5.68406 33.2048 5.85433 33.595 6.14937 33.7646C6.42993 33.9266 6.8132 33.8845 7.22611 33.6467L28.4281 21.3227C29.4256 20.7464 30.2342 19.345 30.2307 18.1972L30.1914 4.34844C30.19 3.85625 30.0377 3.4978 29.7613 3.33925C29.6537 3.27721 29.5297 3.24688 29.3932 3.24688Z" fill="#101012"/>
<path d="M21.4878 46.8728C20.7364 46.8728 19.9844 46.7032 19.3971 46.3627L7.34122 39.4094C6.72771 39.0481 6.39062 38.5601 6.39062 38.0334L6.39752 34.9349C6.39821 34.7791 6.52436 34.6529 6.68015 34.6529C6.83594 34.6536 6.96278 34.7798 6.96278 34.9355C6.96278 35.2588 7.20198 35.5766 7.63764 35.8296L19.6859 42.783C20.6875 43.3627 22.3068 43.3641 23.296 42.7844L44.367 30.5383C44.7937 30.2922 45.028 29.9827 45.0294 29.6662V29.6628C45.0301 29.507 45.1562 29.3809 45.312 29.3809C45.4678 29.3815 45.5947 29.5077 45.5947 29.6635V29.6676L45.5885 32.7552C45.5802 33.2853 45.2452 33.7678 44.6455 34.1173L23.5744 46.3627C22.9906 46.7032 22.2392 46.8728 21.4878 46.8728ZM6.96002 36.0392L6.95588 38.0341C6.95588 38.3471 7.19991 38.6711 7.62592 38.9213L19.6797 45.874C20.6778 46.453 22.2978 46.4523 23.2904 45.8747L44.3614 33.6293C44.7833 33.3832 45.0184 33.0709 45.0232 32.7503L45.0273 30.763C44.917 30.8574 44.7909 30.9457 44.6503 31.027L23.5807 43.2717C22.415 43.9542 20.58 43.9542 19.4033 43.2717L7.35432 36.3184C7.2068 36.2322 7.07514 36.1391 6.96002 36.0392Z" fill="#101012"/>
<path d="M21.4582 46.869C21.4575 46.869 21.4568 46.869 21.4561 46.869C20.682 46.8635 19.9506 46.6836 19.3971 46.3624L7.34122 39.409C6.72771 39.0478 6.39062 38.5598 6.39062 38.0331L6.39752 34.9345C6.39821 34.7787 6.52436 34.6526 6.68015 34.6526C6.83594 34.6533 6.96278 34.7794 6.96278 34.9352C6.96278 35.2585 7.20198 35.5763 7.63764 35.8293L19.6859 42.7826C20.1553 43.0542 20.7854 43.2066 21.4602 43.2114C21.6153 43.2128 21.7408 43.3389 21.7408 43.494V46.5864C21.7408 46.6615 21.7105 46.7339 21.6574 46.787C21.6043 46.8394 21.5326 46.869 21.4582 46.869ZM6.96002 36.0388L6.95588 38.0338C6.95588 38.3468 7.19991 38.6707 7.62592 38.921L19.6797 45.8736C20.0836 46.108 20.6068 46.2535 21.1756 46.2934V43.7663C20.5097 43.7243 19.8886 43.5519 19.4033 43.2721L7.35432 36.318C7.2068 36.2319 7.07514 36.1388 6.96002 36.0388Z" fill="#101012"/>
<path d="M21.4929 43.7822C20.7415 43.7822 19.9894 43.6126 19.4014 43.2734L7.34973 36.3153C6.7369 35.9616 6.39913 35.4743 6.39844 34.9428C6.39775 34.4127 6.73208 33.9267 7.34007 33.5731L28.4125 21.327C29.5802 20.648 31.4145 20.648 32.5864 21.3242L44.6388 28.2824C45.2537 28.6374 45.5921 29.1262 45.5928 29.6583C45.5935 30.1877 45.2592 30.6737 44.6519 31.0267L23.5795 43.2727C22.9956 43.6119 22.2449 43.7822 21.4929 43.7822ZM30.5005 21.3821C29.847 21.3821 29.1935 21.5262 28.6965 21.815L7.62408 34.0611C7.19738 34.3093 6.96301 34.6222 6.96301 34.9421C6.9637 35.2633 7.20152 35.577 7.63235 35.8258L19.6841 42.784C20.6829 43.361 22.3035 43.3617 23.2955 42.7847L44.3679 30.5386C44.7946 30.2911 45.0289 29.9789 45.0283 29.659C45.0283 29.3371 44.7891 29.0214 44.3562 28.7718L32.3038 21.8136C31.8061 21.5262 31.1533 21.3821 30.5005 21.3821Z" fill="#101012"/>
<path d="M6.00049 34.287C5.95362 34.287 5.90674 34.2753 5.86263 34.2511C5.84746 34.2422 5.83161 34.2332 5.81644 34.2236L3.15215 32.6374C2.70339 32.3768 2.4442 31.8323 2.4442 31.1436L2.40628 17.2927C2.40353 16.7268 2.57241 16.096 2.89502 15.4681C2.93018 15.3991 2.99222 15.3474 3.06667 15.3261C3.14043 15.304 3.22108 15.3136 3.28795 15.3529L5.95844 16.9101C6.08804 16.986 6.13629 17.1494 6.06805 17.2824C5.793 17.8215 5.64273 18.3771 5.64548 18.8458L5.6834 32.6981C5.6834 33.2337 5.89433 33.6025 6.11217 33.7424L6.14456 33.7617C6.27761 33.841 6.32241 34.0113 6.24521 34.1457C6.19282 34.236 6.09768 34.287 6.00049 34.287ZM3.26933 15.9961C3.07425 16.4483 2.96947 16.8991 2.97154 17.2907L3.00944 31.1429C3.00944 31.6255 3.16524 31.9922 3.43822 32.1507L5.16777 33.1799C5.13537 33.0269 5.11814 32.8649 5.11814 32.6988L5.08023 18.8479C5.07816 18.3557 5.205 17.8132 5.44971 17.2672L3.26933 15.9961Z" fill="#101012"/>
<path d="M5.82022 17.4365C5.77059 17.4365 5.72165 17.4234 5.67822 17.3979L3.00772 15.8407C2.87813 15.7649 2.82987 15.6015 2.89812 15.4678C3.29656 14.6902 3.87974 14.0381 4.49807 13.6782L25.7083 1.43215C26.3308 1.07852 26.9264 1.03095 27.3827 1.30117L30.0387 2.84943C30.0429 2.85149 30.047 2.85425 30.0512 2.85632C30.1856 2.93559 30.2304 3.10862 30.1511 3.24235C30.0718 3.37677 29.9002 3.42227 29.7658 3.34368L29.7568 3.33886C29.4838 3.18238 29.0957 3.23063 28.6635 3.4781L7.45533 15.7221C6.92592 16.0289 6.42133 16.5976 6.07183 17.2821C6.03668 17.3517 5.97395 17.4027 5.8995 17.4248C5.8733 17.4324 5.84711 17.4365 5.82022 17.4365ZM3.52955 15.4912L5.712 16.7637C6.10078 16.1013 6.62192 15.5526 7.17271 15.2334L28.3823 2.98798C28.5284 2.90457 28.6732 2.8384 28.8145 2.78945L27.098 1.78853C27.0973 1.78784 27.0967 1.78784 27.0967 1.78784C26.8244 1.62585 26.4204 1.67617 25.9896 1.92227L4.78139 14.167C4.31609 14.4372 3.86871 14.9128 3.52955 15.4912Z" fill="#101012"/>
<path d="M7.78871 17.3154C8.0705 17.1527 8.29701 17.2872 8.29792 17.6073C8.29884 17.9312 8.07381 18.3228 7.79203 18.4855C7.51184 18.6472 7.28217 18.5182 7.28125 18.1943C7.28035 17.8742 7.50853 17.4771 7.78871 17.3154Z" fill="#101012"/>
<path d="M9.67933 16.2216C9.96112 16.0589 10.1876 16.1935 10.1885 16.5136C10.1895 16.8375 9.96444 17.229 9.68265 17.3917C9.40247 17.5535 9.1728 17.4245 9.17188 17.1006C9.17097 16.7805 9.39915 16.3834 9.67933 16.2216Z" fill="#101012"/>
<path d="M11.57 15.1288C11.8517 14.9661 12.0783 15.1007 12.0792 15.4208C12.0801 15.7447 11.8551 16.1363 11.5733 16.299C11.2931 16.4607 11.0634 16.3317 11.0625 16.0078C11.0616 15.6877 11.2898 15.2906 11.57 15.1288Z" fill="#101012"/>
<path d="M25.0678 38.4664C24.9078 38.4664 24.8048 38.4307 24.7813 38.4186L20.0865 35.7082C19.857 35.5757 19.8565 35.2446 20.0856 35.1114L29.5892 29.5882C29.6106 29.5775 29.7124 29.543 29.8699 29.543C30.0287 29.543 30.131 29.5779 30.1545 29.59L34.8504 32.3016C35.0799 32.4341 35.0804 32.7652 34.8513 32.8983L25.3476 38.4212C25.3263 38.4322 25.2248 38.4664 25.0678 38.4664Z" fill="white"/>
<path d="M34.8594 32.8979L25.3566 38.423C25.3354 38.4301 25.2293 38.4654 25.0739 38.4654C24.9114 38.4654 24.8125 38.4301 24.7842 38.416L20.0927 35.7099C20.0151 35.6675 19.9585 35.5969 19.9375 35.5192C21.1879 35.9855 22.6151 36.2469 24.1414 36.2469C28.536 36.2469 32.1816 34.0354 32.8457 31.1387L34.8594 32.3045C35.0856 32.4316 35.0856 32.7637 34.8594 32.8979Z" fill="#E9EDF4"/>
<path d="M25.0689 38.7487C24.8732 38.7487 24.725 38.7067 24.6505 38.6674L19.9465 35.9528C19.75 35.8384 19.6328 35.6357 19.6328 35.4089C19.6328 35.1828 19.75 34.9801 19.9458 34.8671L29.4483 29.3434C29.6275 29.2545 30.1349 29.2634 30.2817 29.3372L34.9933 32.0566C35.1891 32.1697 35.3063 32.3724 35.3063 32.5985C35.307 32.8246 35.1905 33.0279 34.9947 33.1417L25.4908 38.6646C25.4095 38.7067 25.2613 38.7487 25.0689 38.7487ZM24.92 38.1697C24.9283 38.1697 24.9841 38.1835 25.0689 38.1835C25.1744 38.1835 25.2344 38.1628 25.2351 38.1628L34.7107 32.6536V32.5461L30.0198 29.837C30.0253 29.8404 29.9667 29.8253 29.8716 29.8253C29.764 29.8253 29.702 29.8466 29.7013 29.8466L20.2291 35.3551L20.0878 35.7081L20.2291 35.4634L24.9193 38.1711C24.9187 38.1704 24.9193 38.1697 24.92 38.1697Z" fill="#101012"/>
<path d="M40.3606 29.8637C40.1771 30.4006 39.3595 30.5265 38.9853 30.1345C39.2963 30.6084 39.17 31.3104 38.7564 31.7107C38.3 32.1442 37.6016 32.2547 36.9866 32.1241C36.3716 31.9993 35.8258 31.6691 35.3073 31.3175L35.3002 31.3104C35.5898 32.2001 34.864 33.2608 33.9308 33.3154C33.5089 33.3439 33.0942 33.1919 32.6937 33.0398C30.552 32.2416 28.4175 31.4423 26.283 30.637C26.2818 30.637 26.2794 30.637 26.2782 30.6358C26.2615 30.6595 26.2436 30.6821 26.2257 30.7023C25.979 30.979 25.5631 31.0182 25.1651 30.966C25.0685 30.9588 24.9779 30.9458 24.8885 30.9244C24.5977 30.8626 24.3141 30.7937 24.0304 30.7118C23.8517 30.6631 23.6789 30.6084 23.506 30.5455C23.4846 30.5455 23.4715 30.5395 23.4501 30.5324C23.257 30.4635 23.0627 30.3875 22.8768 30.3115C22.8279 30.2913 22.7862 30.2771 22.7385 30.2497C22.5371 30.1666 22.344 30.0775 22.151 29.9813C19.9449 28.9135 18.0642 27.1425 16.9166 24.9724C16.6686 24.4961 16.4398 23.9866 16.385 23.4556C16.2944 22.6087 16.6198 21.7262 16.3707 20.9138C16.3016 20.7 16.205 20.5076 16.0942 20.3211C15.8797 19.9624 15.6103 19.6393 15.3886 19.2948C15.2849 19.1357 15.1884 18.9706 15.1193 18.7912C15.0776 18.695 15.0502 18.5917 15.0299 18.4812C15.0228 18.4266 15.0156 18.3707 15.0156 18.309C15.0776 16.4489 16.385 14.2575 17.982 13.3274C18.417 13.0863 18.8389 12.9485 19.2048 12.9414H19.2263C19.2882 12.9414 19.3502 12.9485 19.4122 12.9557C19.4194 12.9557 19.4336 12.9557 19.4408 12.9628C19.9795 13.0032 20.4979 13.2098 21.0032 13.4106C22.5586 14.0306 24.121 14.6577 25.5309 15.5605C27.8824 17.0689 29.6927 19.3008 32.0096 20.8722C33.938 22.1883 36.1917 23.0292 37.9341 24.5721C38.3905 24.9784 38.8399 25.5022 38.8184 26.1151C38.7981 26.6116 38.2654 27.0665 37.8232 26.9905C38.5765 27.3622 39.2618 27.8659 39.835 28.4716C40.1878 28.8505 40.5263 29.3672 40.3606 29.8637Z" fill="white"/>
<path d="M40.3615 29.8621C40.1798 30.4004 39.3587 30.5253 38.9872 30.1334C39.2982 30.6072 39.1686 31.3092 38.758 31.7097C38.3001 32.1447 37.6042 32.2524 36.9863 32.1232C36.3727 31.9983 35.8281 31.671 35.3096 31.3178L35.3008 31.3092C35.5905 32.2008 34.8644 33.2603 33.9309 33.3162C33.5118 33.3421 33.0969 33.1913 32.6949 33.0406C30.5515 32.2395 28.4167 31.4427 26.2818 30.6373C26.2818 30.6373 26.2818 30.6373 26.2774 30.6373C26.2601 30.6588 26.2428 30.6804 26.2255 30.7019C25.9792 30.9776 25.5644 31.0164 25.1668 30.9646C25.0675 30.9603 24.9767 30.9474 24.8902 30.9259C24.5965 30.8613 24.3154 30.7924 24.0303 30.7105C23.8531 30.6632 23.6803 30.6072 23.5074 30.5469C23.4857 30.5469 23.4728 30.5382 23.4511 30.5339C23.2567 30.4651 23.0622 30.3875 22.8763 30.31C22.8288 30.2928 22.7856 30.2755 22.7381 30.2497C22.5393 30.1679 22.345 30.0774 22.1504 29.9826C19.9464 28.9145 18.0665 27.1444 16.9171 24.9737C16.6706 24.4956 16.4417 23.9874 16.3855 23.4533C16.2948 22.6092 16.6189 21.7262 16.3724 20.9122C16.3032 20.7012 16.2041 20.5073 16.096 20.3222C15.8799 19.9604 15.6119 19.6373 15.3914 19.2928C15.2878 19.1335 15.1884 18.9698 15.1192 18.7889C15.0804 18.6941 15.05 18.5908 15.0327 18.4788C15.0241 18.4271 15.0156 18.3711 15.0156 18.3109C15.0804 16.4502 16.3855 14.258 17.9844 13.3277C18.1184 13.2502 18.2568 13.1855 18.3864 13.1339C15.8149 18.2118 18.4467 24.9866 24.4711 28.514C29.6743 31.5633 35.7675 31.2231 39.3934 28.0445C39.5489 28.178 39.6959 28.3202 39.8342 28.4709C40.1887 28.85 40.5256 29.3668 40.3615 29.8621Z" fill="#E9EDF4"/>
<path d="M33.827 33.601C33.3796 33.601 32.9474 33.4376 32.5951 33.3039C30.5133 32.5277 28.4363 31.7501 26.3608 30.967C26.0788 31.22 25.6556 31.3138 25.1296 31.2455C25.0338 31.2393 24.9283 31.2242 24.8242 31.1986C24.5333 31.1373 24.2438 31.0663 23.9529 30.9829C23.7771 30.9353 23.6027 30.8795 23.4283 30.8168C23.4014 30.8112 23.3759 30.805 23.3614 30.8002C23.1588 30.7278 22.9609 30.6499 22.7714 30.5727C22.6893 30.5396 22.6459 30.5217 22.5983 30.4935C22.4246 30.4245 22.2254 30.3328 22.0269 30.2343C19.7341 29.1244 17.8302 27.3018 16.668 25.1035C16.4239 24.6348 16.1668 24.0764 16.1055 23.4843C16.0641 23.1003 16.102 22.7177 16.1379 22.3475C16.1854 21.8671 16.2295 21.4128 16.102 20.9964C16.0476 20.8289 15.9676 20.6587 15.8525 20.4656C15.7374 20.2726 15.605 20.0906 15.4733 19.9087C15.3631 19.7556 15.2528 19.6033 15.1521 19.4468C15.0597 19.3055 14.9419 19.1132 14.8571 18.8926C14.8143 18.794 14.7792 18.6727 14.7537 18.5314C14.7426 18.4535 14.7344 18.3845 14.7344 18.3087C14.7999 16.351 16.1641 14.0596 17.8412 13.0828C18.33 12.8126 18.798 12.6672 19.2006 12.6582C19.295 12.6582 19.3626 12.6658 19.4295 12.6727C19.4446 12.6747 19.4612 12.6782 19.4784 12.6823C20.0519 12.7278 20.5848 12.9395 21.1004 13.1442C22.648 13.7618 24.239 14.3967 25.6845 15.3225C26.9274 16.1201 28.0317 17.1251 29.0995 18.0978C30.0701 18.9815 31.0738 19.8956 32.1691 20.638C32.9295 21.1571 33.7587 21.6106 34.5611 22.0497C35.7861 22.7205 37.0524 23.4133 38.1229 24.3604C38.5565 24.7464 39.1294 25.3489 39.1018 26.1244C39.0887 26.4519 38.9108 26.7827 38.6268 27.0123C38.602 27.0323 38.5772 27.0509 38.5517 27.0688C39.1004 27.4059 39.5995 27.8105 40.0414 28.2779C40.7397 29.0265 40.7466 29.6021 40.6301 29.953C40.6294 29.953 40.6294 29.9537 40.6294 29.9544C40.5163 30.2853 40.222 30.5321 39.8421 30.6162C39.7063 30.6458 39.5692 30.6534 39.4389 30.6389C39.4713 31.0939 39.3017 31.5771 38.9543 31.9128C38.4662 32.3767 37.6893 32.5608 36.929 32.4002C36.4651 32.3057 36.0384 32.1037 35.6413 31.8666C35.6144 32.183 35.5014 32.5015 35.3091 32.7834C34.9823 33.2618 34.4736 33.5658 33.9483 33.5969C33.9076 33.5996 33.8676 33.601 33.827 33.601ZM26.2842 30.3542C26.318 30.3542 26.3518 30.3604 26.3842 30.3728C28.5177 31.178 30.6526 31.9769 32.7937 32.7752C33.1452 32.9089 33.5375 33.0605 33.9125 33.033C34.2675 33.0123 34.6142 32.8 34.8431 32.4657C35.0705 32.1313 35.1415 31.7322 35.0333 31.3979C34.9926 31.2738 35.0423 31.138 35.154 31.0697C35.2649 31.0008 35.409 31.018 35.5014 31.1104C36.0267 31.4634 36.5092 31.7384 37.0434 31.8473C37.6321 31.9714 38.2112 31.8404 38.5634 31.5054C38.8895 31.1904 38.9756 30.6327 38.7509 30.2894C38.6703 30.1674 38.6965 30.004 38.8109 29.913C38.9239 29.8227 39.0894 29.8331 39.1907 29.9392C39.3072 30.0612 39.514 30.1095 39.7208 30.0647C39.9062 30.024 40.0455 29.9151 40.0944 29.7731C40.2178 29.4009 39.9097 28.9645 39.6291 28.6639C39.0784 28.0815 38.429 27.6031 37.6997 27.2432C37.5735 27.1812 37.5129 27.0364 37.5556 26.9027C37.599 26.769 37.7348 26.6862 37.872 26.7117C37.9933 26.7304 38.1388 26.68 38.2725 26.5732C38.429 26.4463 38.531 26.2657 38.5379 26.1031C38.5517 25.695 38.3008 25.2752 37.7479 24.783C36.7256 23.8786 35.4876 23.2009 34.2902 22.5454C33.4754 22.0994 32.6337 21.6389 31.8513 21.1047C30.7236 20.3402 29.7047 19.4123 28.719 18.5148C27.6691 17.5587 26.5827 16.5695 25.3798 15.7981C23.9798 14.9013 22.4143 14.2768 20.8998 13.6722C20.4111 13.4785 19.9141 13.2814 19.4212 13.2441C19.3991 13.2428 19.3778 13.2386 19.3571 13.2324C19.2992 13.2269 19.2633 13.2235 19.2275 13.2235C18.9007 13.2297 18.523 13.351 18.1197 13.5736C16.5997 14.4594 15.3582 16.5447 15.2989 18.3184C15.2996 18.357 15.3051 18.3997 15.3114 18.4424C15.3272 18.5293 15.35 18.6106 15.3796 18.6803C15.4499 18.8609 15.5478 19.0201 15.6264 19.1401C15.7222 19.2896 15.8263 19.4337 15.9311 19.5778C16.0724 19.7729 16.2137 19.9686 16.3378 20.1761C16.475 20.4064 16.5715 20.6132 16.6404 20.8262C16.8031 21.3556 16.7507 21.8878 16.7004 22.4027C16.6652 22.7605 16.6321 23.0982 16.6666 23.4257C16.7183 23.9241 16.9492 24.4211 17.1677 24.8416C18.2734 26.9323 20.0878 28.6681 22.275 29.7269C22.4653 29.8213 22.6521 29.9075 22.8479 29.9889C22.9037 30.0178 22.9244 30.0254 22.9458 30.0344C23.1664 30.1247 23.3573 30.1984 23.5462 30.266C23.7688 30.3397 23.9343 30.3928 24.1052 30.439C24.3872 30.5203 24.6643 30.5872 24.9483 30.6479C25.0303 30.6672 25.1055 30.6782 25.1861 30.6837C25.4736 30.7216 25.8341 30.7202 26.0161 30.5141C26.0636 30.4452 26.1546 30.3811 26.2381 30.3735C26.2532 30.3721 26.2684 30.3714 26.2842 30.3714V30.3542Z" fill="#101012"/>
<path d="M38.9849 30.4172C38.8994 30.4172 38.8153 30.3786 38.7594 30.3048C38.745 30.2855 37.2022 28.3506 30.2868 25.8138C30.1406 25.76 30.0655 25.5973 30.1186 25.4512C30.1717 25.3044 30.3357 25.2292 30.4812 25.283C37.6082 27.8984 39.1489 29.8823 39.211 29.9657C39.3047 30.0904 39.2785 30.2676 39.1537 30.3607C39.1034 30.3986 39.0441 30.4172 38.9849 30.4172Z" fill="#101012"/>
<path d="M35.301 31.5974C35.2073 31.5974 35.1156 31.5505 35.0618 31.465C35.0398 31.4306 33.6397 29.3433 27.8024 27.2015C27.6563 27.1477 27.5811 26.985 27.6342 26.8389C27.688 26.6921 27.8514 26.6169 27.9968 26.6707C34.0768 28.9021 35.4837 31.0742 35.5409 31.1652C35.623 31.2975 35.583 31.4719 35.4506 31.5547C35.4037 31.5836 35.352 31.5974 35.301 31.5974Z" fill="#101012"/>
<path d="M37.8352 27.2784C37.7725 27.2784 37.7104 27.2577 37.6581 27.2157C37.6291 27.1922 34.7229 24.8706 31.6753 24.1137C31.5243 24.0757 31.432 23.9227 31.4692 23.7711C31.5071 23.6208 31.6587 23.527 31.8118 23.5649C34.9827 24.3529 37.8904 26.6773 38.0124 26.7759C38.1337 26.8738 38.153 27.0516 38.0551 27.1729C37.9993 27.2419 37.9173 27.2784 37.8352 27.2784Z" fill="#101012"/>
<path d="M26.2284 30.9853C26.163 30.9853 26.0968 30.9626 26.0437 30.9164C25.9258 30.8137 25.9127 30.6358 26.0147 30.518C26.0175 30.5138 26.0203 30.5104 26.023 30.5069C26.0954 30.0795 26.0478 29.5398 25.8934 29.0779C25.7314 28.6264 25.4481 28.1887 25.0531 27.782C24.6705 27.3787 24.2169 27.0733 23.7834 26.8031C23.7013 26.7624 23.5979 26.7073 23.4959 26.6528C23.3532 26.5763 23.2112 26.4998 23.0644 26.4316C22.3295 26.1131 21.8091 25.6133 21.543 25.0005C21.31 24.4876 21.299 24.0037 21.5085 23.6322C21.5857 23.495 21.7601 23.4488 21.8932 23.5246C22.029 23.6011 22.0772 23.7735 22.0007 23.9093C21.8339 24.2043 21.9828 24.6034 22.0545 24.7613C22.2703 25.2569 22.6859 25.6526 23.2333 25.8897C23.2353 25.8911 23.3008 25.9187 23.3029 25.9201C23.4594 25.9924 23.6103 26.0731 23.7627 26.1551C23.8606 26.2075 23.9591 26.2606 24.0598 26.3109C24.5251 26.5998 25.0359 26.943 25.4605 27.3911C25.9093 27.8537 26.2353 28.3596 26.427 28.8925C26.6248 29.486 26.6744 30.1574 26.5621 30.6951C26.5497 30.7537 26.5193 30.8054 26.478 30.844C26.4663 30.8592 26.4539 30.8737 26.4421 30.8874C26.3863 30.9522 26.307 30.9853 26.2284 30.9853Z" fill="#101012"/>
<path d="M25.1621 30.9684C25.0701 30.9614 24.9781 30.9473 24.8862 30.9261C23.9382 30.7287 23.0186 30.4114 22.1484 29.9814C22.1838 29.8685 22.2404 29.7699 22.2899 29.6641C22.3465 29.5442 22.4173 29.4244 22.5163 29.3327C22.5941 29.2552 22.6861 29.2058 22.7781 29.1635C23.2379 28.9661 23.7755 29.0507 24.2495 29.2129C24.4334 29.2763 24.6103 29.3468 24.773 29.4596C24.9286 29.5724 25.063 29.7276 25.1196 29.9108C25.155 30.0166 25.155 30.1364 25.1621 30.2493C25.1762 30.489 25.1904 30.7287 25.1621 30.9684Z" fill="white"/>
<path d="M25.1633 31.2513C25.1565 31.2513 25.1496 31.2506 25.142 31.2499C25.0372 31.2423 24.931 31.2258 24.8256 31.2023C23.8584 31.0004 22.9147 30.6743 22.0248 30.2345C21.8993 30.1732 21.838 30.0284 21.8807 29.896C21.911 29.7995 21.9538 29.7113 21.9979 29.6231L22.0358 29.5445C22.122 29.3618 22.2144 29.2288 22.326 29.1254C22.4329 29.0192 22.5625 28.9523 22.6624 28.9068C23.1257 28.7083 23.6889 28.7228 24.3423 28.9455C24.534 29.0123 24.7387 29.0916 24.9352 29.2274C25.0972 29.3446 25.3026 29.541 25.3908 29.8278C25.4308 29.9464 25.437 30.0698 25.4425 30.178C25.4591 30.4675 25.4756 30.7329 25.4439 31.0017C25.4267 31.1451 25.3053 31.2513 25.1633 31.2513ZM22.5177 29.845C23.278 30.198 24.0776 30.4654 24.8973 30.6398C24.8966 30.5151 24.889 30.3896 24.8814 30.2669C24.8745 30.127 24.8704 30.0518 24.8531 30.0008C24.818 29.8864 24.7318 29.7775 24.6084 29.6886C24.474 29.5955 24.312 29.5328 24.159 29.4797C23.6413 29.3025 23.2146 29.2839 22.8913 29.4232C22.8093 29.4611 22.7569 29.4935 22.7162 29.5335C22.6521 29.5927 22.6011 29.6706 22.5473 29.7851L22.5177 29.845Z" fill="#101012"/>
<path d="M35.4181 24.0238L35.4149 25.8565C35.413 26.5242 34.9755 27.1908 34.1016 27.7003C32.3423 28.7262 29.4807 28.7268 27.7087 27.7004C26.8179 27.1843 26.3731 26.507 26.375 25.8307L26.3782 23.998C26.3762 24.6744 26.821 25.3517 27.7119 25.8677C29.4838 26.8942 32.3454 26.8935 34.1048 25.8677C34.9787 25.3582 35.4162 24.6915 35.4181 24.0238Z" fill="#FADE66"/>
<path d="M30.9109 28.7463C29.7018 28.7463 28.492 28.4789 27.5689 27.9439C26.6156 27.3925 26.0917 26.6418 26.0938 25.8297L26.0972 24.0016C26.0972 23.9995 26.0972 23.9982 26.0972 23.9968C26.0979 23.841 26.224 23.7148 26.3798 23.7148C26.5356 23.7155 26.6625 23.8424 26.6625 23.9982V24.0044C26.6631 24.6034 27.0864 25.1776 27.8543 25.6236C29.5439 26.6018 32.284 26.6032 33.9639 25.6236C34.7188 25.1831 35.1358 24.6144 35.1365 24.023C35.1372 23.8672 35.2633 23.741 35.4191 23.741C35.5749 23.7417 35.7018 23.8679 35.7018 24.0244L35.699 25.8566C35.6962 26.6576 35.1799 27.3987 34.2452 27.9439C33.3277 28.4789 32.12 28.7463 30.9109 28.7463ZM26.6597 25.3844L26.659 25.8311C26.6569 26.4329 27.0802 27.0092 27.8516 27.4552C29.5418 28.4354 32.2819 28.4347 33.9612 27.4559C34.7153 27.0161 35.1324 26.4474 35.1337 25.8552L35.1344 25.4044C34.9049 25.6636 34.6071 25.9021 34.2479 26.1117C32.4136 27.1815 29.4184 27.1815 27.5717 26.1117C27.2008 25.8966 26.8948 25.6519 26.6597 25.3844Z" fill="#101012"/>
<path d="M34.7147 25.4223C34.5427 25.5796 34.3363 25.732 34.1005 25.8696C33.8597 26.0122 33.5943 26.1302 33.3142 26.2285C31.5746 26.8724 29.2354 26.7495 27.7072 25.8696C26.1789 24.9799 25.9627 23.6183 27.0733 22.6008C27.2452 22.4435 27.4517 22.2911 27.6876 22.1535C27.9283 22.0109 28.1937 21.893 28.4737 21.7947C30.2133 21.1458 32.5524 21.2687 34.0808 22.1535C35.609 23.0432 35.8253 24.4048 34.7147 25.4223Z" fill="white"/>
<path d="M30.9047 26.9199C29.6942 26.9199 28.4913 26.6456 27.5676 26.1141C26.7024 25.6102 26.1834 24.9298 26.1041 24.1977C26.0352 23.5573 26.3123 22.9162 26.8837 22.3923C27.0754 22.2166 27.2987 22.0539 27.5469 21.9091C27.7875 21.7664 28.0687 21.6375 28.381 21.5279C30.2353 20.8351 32.6397 20.9909 34.2231 21.9091C35.0876 22.4116 35.6073 23.092 35.6859 23.8248C35.7548 24.4652 35.4784 25.1063 34.9069 25.6302C34.9063 25.6302 34.9063 25.6302 34.9063 25.6308C34.7126 25.8073 34.4899 25.9693 34.2445 26.1134C33.9963 26.2588 33.7151 26.3877 33.4083 26.4946C32.6363 26.78 31.7684 26.9199 30.9047 26.9199ZM30.8819 21.6678C30.0809 21.6678 29.2771 21.7961 28.5733 22.0587C28.2914 22.158 28.0439 22.271 27.833 22.3958C27.6179 22.5212 27.4276 22.6598 27.2656 22.808C26.8231 23.214 26.6163 23.6731 26.6659 24.1371C26.7252 24.6865 27.1457 25.2152 27.8502 25.6253C29.2744 26.445 31.5306 26.5876 33.2174 25.9631C33.4938 25.8666 33.742 25.7535 33.9584 25.626C34.1707 25.5019 34.361 25.3634 34.5251 25.2138C34.9676 24.8085 35.1744 24.3494 35.1248 23.8848C35.0655 23.3354 34.6443 22.8073 33.9398 22.3972C33.1105 21.9167 31.9986 21.6678 30.8819 21.6678Z" fill="#101012"/>
<path d="M36.1915 20.6223L36.1884 22.455C36.1865 23.1227 35.749 23.7893 34.8751 24.2988C33.1157 25.3247 30.2541 25.3253 28.4822 24.2989C27.5913 23.7828 27.1465 23.1055 27.1484 22.4292L27.1516 20.5966C27.1497 21.2729 27.5945 21.9502 28.4853 22.4663C30.2572 23.4927 33.1189 23.492 34.8782 22.4662C35.7521 21.9567 36.1896 21.2901 36.1915 20.6223Z" fill="#FADE66"/>
<path d="M31.6843 25.3448C30.4759 25.3448 29.2654 25.0774 28.3424 24.5424C27.3897 23.991 26.8658 23.2403 26.8672 22.4282L26.8706 20.6001C26.8706 20.5981 26.8706 20.5967 26.8706 20.5953C26.8713 20.4395 26.9975 20.3134 27.1533 20.3134C27.3091 20.314 27.4359 20.4409 27.4359 20.5967V20.5981C27.4345 21.1985 27.8585 21.7754 28.6284 22.2221C30.3187 23.201 33.0588 23.201 34.7381 22.2221C35.4922 21.7823 35.9092 21.2136 35.9106 20.6215C35.9113 20.4657 36.0375 20.3395 36.1932 20.3395C36.349 20.3402 36.4759 20.4671 36.4759 20.6229L36.4724 22.4551C36.4704 23.2561 35.954 23.9972 35.0186 24.5424C34.1011 25.0774 32.8934 25.3448 31.6843 25.3448ZM27.4331 21.9829L27.4324 22.4296C27.4311 23.0307 27.8543 23.6077 28.625 24.0544C30.3153 25.0326 33.0554 25.0339 34.7346 24.0544C35.4894 23.6146 35.9065 23.0459 35.9072 22.4537L35.9086 22.0036C35.6783 22.2628 35.3812 22.5006 35.0221 22.7102C33.187 23.78 30.1919 23.78 28.3458 22.7102C27.9743 22.4951 27.6682 22.2504 27.4331 21.9829Z" fill="#101012"/>
<path d="M35.496 22.0208C35.3239 22.1781 35.1176 22.3305 34.8817 22.4682C34.6409 22.6107 34.3755 22.7287 34.0954 22.827C32.3558 23.4709 30.0167 23.3481 28.4885 22.4682C26.9601 21.5784 26.744 20.2168 27.8545 19.1993C28.0265 19.042 28.2329 18.8896 28.4688 18.752C28.7096 18.6094 28.975 18.4915 29.255 18.3932C30.9946 17.7443 33.3337 17.8672 34.862 18.752C36.3902 19.6417 36.6066 21.0033 35.496 22.0208Z" fill="white"/>
<path d="M31.6852 23.5185C30.4754 23.5185 29.2725 23.2441 28.3488 22.7127C27.483 22.2088 26.964 21.5284 26.8854 20.7956C26.8164 20.1552 27.0929 19.5141 27.6643 18.9909C27.858 18.8138 28.0814 18.6511 28.3275 18.5077C28.5687 18.3643 28.85 18.2361 29.1623 18.1265C31.0152 17.433 33.421 17.5902 35.0044 18.5077C35.8688 19.0102 36.3879 19.6906 36.4665 20.4227C36.5361 21.0638 36.259 21.7049 35.6875 22.2288C35.4959 22.4045 35.2725 22.5665 35.0251 22.712C34.7817 22.8561 34.5005 22.9843 34.1889 23.0932C33.4169 23.3786 32.549 23.5185 31.6852 23.5185ZM31.6625 18.2664C30.8615 18.2664 30.0584 18.3947 29.3546 18.6573C29.0726 18.7566 28.8245 18.8696 28.6135 18.9944C28.4005 19.1185 28.2103 19.257 28.0462 19.4073C27.6043 19.8119 27.3969 20.2717 27.4465 20.7356C27.5058 21.285 27.9263 21.8138 28.6315 22.2239C30.0543 23.0436 32.3125 23.1862 33.998 22.5617C34.2785 22.4638 34.526 22.3508 34.7383 22.2253C34.9534 22.0992 35.1436 21.9606 35.3056 21.8124C35.7482 21.4071 35.9557 20.9473 35.9054 20.4833C35.8461 19.9339 35.4256 19.4059 34.7211 18.9958C33.8918 18.5153 32.7799 18.2664 31.6625 18.2664Z" fill="#101012"/>
</svg>
