<svg width="40" height="40" viewBox="0 0 40 40" fill="none" xmlns="http://www.w3.org/2000/svg">
<path d="M29.0018 1.51136L32.3789 3.47395C31.4781 2.95042 30.2311 3.02364 28.8545 3.81842C28.0235 4.2982 27.249 4.97998 26.5568 5.7964L23.1797 3.83381C23.8719 3.0174 24.6463 2.33561 25.4773 1.85583C26.854 1.06105 28.1009 0.98783 29.0018 1.51136Z" fill="#544A00"/>
<path d="M26.5579 6.03211C26.5171 6.03211 26.4769 6.02177 26.4395 6.00023L23.0623 4.03762C23.002 4.00258 22.9607 3.94284 22.9486 3.87419C22.9371 3.80555 22.9561 3.73518 23.0014 3.68204C23.7367 2.81462 24.5306 2.13189 25.3601 1.6528C26.7675 0.839955 28.1025 0.717023 29.121 1.30842L32.4982 3.27102C32.6102 3.33622 32.6487 3.48041 32.5832 3.59271C32.5178 3.70473 32.3736 3.74351 32.2616 3.67773C31.3964 3.17509 30.2292 3.29802 28.9728 4.02269C28.1899 4.47478 27.4379 5.12304 26.7371 5.9491C26.6911 6.00339 26.6251 6.03211 26.5579 6.03211ZM23.5449 3.77395L26.5073 5.49529C27.2064 4.69853 27.9555 4.06663 28.7373 3.61512C29.5036 3.17279 30.2487 2.93497 30.9323 2.9051L28.8844 1.71513C28.0192 1.21306 26.852 1.33542 25.5957 2.06008C24.881 2.47282 24.1923 3.04842 23.5449 3.77395Z" fill="#101012"/>
<path d="M7.70493 33.5998L4.32776 31.6372C3.24248 31.0065 2.56793 29.6672 2.56253 27.7622C2.55712 25.8521 3.22013 23.7322 4.30775 21.8485L7.6849 23.8111C6.59728 25.6948 5.93427 27.8147 5.93969 29.7248C5.94509 31.6298 6.61963 32.9691 7.70493 33.5998Z" fill="#FADE66"/>
<path d="M18.4672 7.08807C17.2453 6.69695 15.712 6.93638 14.0428 7.90267C10.0497 10.203 6.81551 15.8011 6.8315 20.4009C6.8315 21.8067 7.14287 22.9566 7.68587 23.811L4.30775 21.8464C3.76475 20.9921 3.46118 19.8499 3.45318 18.4363C3.43739 13.8443 6.67162 8.24622 10.6647 5.93811C12.3419 4.97182 13.8671 4.7324 15.089 5.12351L18.4672 7.08807Z" fill="#FADE66"/>
<path d="M21.9781 2.52538L25.3553 4.48798C24.2601 3.85152 22.739 3.94322 21.0541 4.91601C20.121 5.45472 19.2499 6.19233 18.4709 7.08814L15.0938 5.12555C15.8727 4.22974 16.7439 3.49213 17.6769 2.95342C19.3619 1.98063 20.8829 1.88893 21.9781 2.52538Z" fill="#FADE66"/>
<path d="M7.70615 33.8343C7.66594 33.8343 7.62515 33.8242 7.58782 33.8024L4.21063 31.8401C3.00199 31.1381 2.33391 29.6896 2.32816 27.7621C2.32242 25.8658 2.95374 23.7237 4.10493 21.7301C4.13653 21.6761 4.18765 21.6364 4.24855 21.6203C4.30771 21.6045 4.3732 21.6129 4.4272 21.6445L7.80437 23.6071C7.9164 23.6723 7.95489 23.8159 7.88998 23.9282C6.77957 25.8506 6.17065 27.9088 6.17639 29.7235C6.18099 31.477 6.76635 32.781 7.82449 33.3957C7.93651 33.4609 7.97499 33.6048 7.90951 33.7171C7.86585 33.7923 7.78715 33.8343 7.70615 33.8343ZM4.39618 22.1707C3.35987 24.0339 2.79347 26.0106 2.79921 27.7609C2.80381 29.5144 3.38917 30.8187 4.4473 31.4334L6.36137 32.5455C5.93513 31.8019 5.70879 30.8443 5.70535 29.7247C5.70018 27.893 6.28841 25.8316 7.36665 23.8969L4.39618 22.1707Z" fill="#101012"/>
<path d="M7.68687 24.046C7.64608 24.046 7.6053 24.0356 7.56853 24.0141L4.1902 22.0495C4.15746 22.0305 4.12988 22.0041 4.10978 21.9722C3.52671 21.0545 3.22743 19.8651 3.21881 18.4373C3.20272 13.7774 6.49029 8.07917 10.5482 5.73427C12.2348 4.76173 13.8294 4.47192 15.1616 4.89902L18.5865 6.88432C18.6904 6.94464 18.7318 7.0736 18.683 7.18332C18.6347 7.29246 18.5135 7.34933 18.3963 7.31171C17.1905 6.92539 15.7263 7.20055 14.1615 8.10588C10.234 10.3683 7.0521 15.8833 7.06819 20.3997C7.06819 21.7071 7.35082 22.8428 7.88563 23.6846C7.94365 23.7763 7.93158 23.8958 7.85633 23.9739C7.81095 24.0213 7.74891 24.046 7.68687 24.046ZM4.47685 21.6721L7.1061 23.201C6.77177 22.403 6.59714 21.4506 6.59714 20.4005C6.58106 15.7346 9.86862 10.036 13.9265 7.69831C15.103 7.0173 16.2375 6.67149 17.2704 6.67149H17.2842L14.9715 5.32641C13.8162 4.96336 12.3525 5.23766 10.7837 6.14184C6.85622 8.4112 3.67377 13.9262 3.68986 18.435C3.69732 19.7474 3.96215 20.8362 4.47685 21.6721Z" fill="#101012"/>
<path d="M18.464 7.3232C18.4232 7.3232 18.383 7.31286 18.3457 7.29132L14.9685 5.329C14.9082 5.29396 14.8662 5.23335 14.8547 5.16413C14.8432 5.09491 14.8633 5.02426 14.9093 4.97112C15.7147 4.04482 16.6039 3.29746 17.5523 2.74973C19.2579 1.76455 20.8692 1.61261 22.0899 2.32205L25.4654 4.2835C25.4659 4.28379 25.4665 4.28408 25.4671 4.28465C25.5791 4.34985 25.6176 4.49375 25.5521 4.60634C25.4866 4.71836 25.3436 4.75742 25.2304 4.69136L25.227 4.68935C24.1585 4.07096 22.7161 4.22405 21.165 5.11961C20.262 5.64121 19.413 6.35554 18.6415 7.24249C18.5955 7.29534 18.5301 7.3232 18.464 7.3232ZM15.4539 5.06705L18.4152 6.78753C19.1866 5.92844 20.0317 5.23077 20.9295 4.71233C21.9279 4.13558 22.8941 3.84463 23.7684 3.84463H23.7736L21.8532 2.72876C20.7848 2.10749 19.34 2.26087 17.7879 3.15701C16.9584 3.63639 16.1742 4.27805 15.4539 5.06705Z" fill="#101012"/>
<path d="M14.0369 7.89985C15.7094 6.93422 17.2409 6.69573 18.4625 7.08789C19.2415 6.19208 20.1127 5.45448 21.0457 4.91576C23.4984 3.49974 25.6038 3.95062 26.5539 5.7967C27.2461 4.98029 28.0206 4.2985 28.8516 3.81872C31.5897 2.23788 33.8149 3.51171 33.8239 6.65799C33.8242 6.78101 33.8246 6.90402 33.8046 7.03878C35.8969 6.49395 37.4277 7.81662 37.4352 10.4416C37.444 13.5761 35.2435 17.4052 32.5054 18.986C32.1485 19.1921 31.8119 19.3514 31.4854 19.4517C30.5911 21.1184 29.2929 22.5779 27.8398 23.4169C26.3203 24.2942 24.9516 24.2865 24.0353 23.5655C23.107 25.809 21.4582 27.8877 19.5716 28.977C18.1235 29.813 16.8113 29.9074 15.8548 29.3682C14.8122 30.9676 13.4729 32.3337 12.0044 33.1816C8.67486 35.1039 5.94841 33.5619 5.93753 29.7242C5.93212 27.8142 6.59513 25.6942 7.68275 23.8106C7.1389 22.9567 6.82919 21.8091 6.82519 20.3971C6.81217 15.8035 10.0446 10.2048 14.0369 7.89985Z" fill="white"/>
<path d="M37.4375 10.4398C37.4442 13.5769 35.2448 17.4091 32.5056 18.9877C32.1482 19.1903 31.8175 19.352 31.4871 19.4532C30.5965 21.1197 29.2944 22.5771 27.8438 23.4204C26.3258 24.2974 24.9562 24.2839 24.0388 23.5687C23.1076 25.8088 21.4615 27.8865 19.5724 28.9795C18.1287 29.8162 16.8131 29.9104 15.855 29.3708C14.8162 30.9699 13.4734 32.3327 12.0095 33.1826C8.67667 35.1055 5.95101 33.5605 5.9375 29.7217C5.9375 28.4465 6.23431 27.0701 6.76057 25.7412C12.0702 26.7127 18.3377 25.2889 23.735 21.3895C29.8475 16.9841 33.3019 10.5274 33.3827 4.56348C33.6662 5.11658 33.8281 5.82517 33.8281 6.66159C33.8281 6.78314 33.8281 6.90437 33.8079 7.03944C35.8994 6.49292 37.4307 7.81523 37.4375 10.4398Z" fill="#E9EDF4"/>
<path d="M9.29748 34.2469C8.6788 34.2469 8.10493 34.1018 7.59711 33.8094C6.38158 33.1098 5.7089 31.6593 5.70316 29.7248C5.69799 27.8673 6.30346 25.7738 7.41042 23.8152C6.87044 22.9078 6.5947 21.7592 6.59068 20.3978C6.57747 15.735 9.86561 10.037 13.9201 7.69616C15.544 6.75895 17.0836 6.45765 18.3864 6.81927C19.1654 5.94553 20.0201 5.23695 20.9289 4.71219C22.3214 3.90825 23.6495 3.65779 24.7731 3.98695C25.5302 4.20955 26.1547 4.69266 26.5953 5.39291C27.2685 4.6444 27.9866 4.04698 28.7345 3.61499C30.1379 2.80502 31.4706 2.68123 32.4857 3.26544C33.4967 3.84736 34.0556 5.05198 34.0602 6.65756V6.74172C34.9564 6.57771 35.7577 6.74631 36.3902 7.23373C37.2122 7.86763 37.6672 9.00677 37.6718 10.4412C37.6804 13.6529 35.4159 17.5775 32.6241 19.1897C32.3507 19.3477 32.1031 19.4709 31.867 19.5657C31.7228 19.624 31.6091 19.7194 31.5396 19.8414C30.5986 21.4884 29.3274 22.8306 27.9584 23.6207C26.7734 24.3052 25.598 24.4994 24.6513 24.167C24.3457 24.0605 24.0252 24.1828 23.8885 24.4583C22.8671 26.5088 21.3373 28.2301 19.6904 29.1808C18.4904 29.873 17.3421 30.0976 16.3689 29.8314C16.0938 29.7558 15.8267 29.8366 15.6848 30.035C14.6479 31.4801 13.4163 32.6387 12.1232 33.3852C11.1317 33.9577 10.1701 34.2466 9.29748 34.2469ZM14.1556 8.10345C10.231 10.3694 7.04852 15.8841 7.06173 20.3966C7.06518 21.7291 7.34148 22.8352 7.88204 23.6842C7.92972 23.7583 7.93144 23.8522 7.88779 23.9284C6.77738 25.8507 6.16846 27.909 6.17421 29.7237C6.1788 31.4829 6.76761 32.7892 7.83206 33.4016C8.90398 34.0188 10.3447 33.8686 11.8877 32.9779C13.1239 32.2642 14.3044 31.1518 15.3022 29.7607C15.5607 29.4003 16.0266 29.2495 16.4936 29.3776C17.3432 29.6102 18.3669 29.4011 19.4549 28.7733C21.0237 27.8676 22.4862 26.2184 23.4668 24.2486C23.711 23.7577 24.2762 23.5363 24.8064 23.723C25.6245 24.0091 26.6596 23.8275 27.7229 23.2132C29.0206 22.4641 30.231 21.1839 31.1305 19.6082C31.2535 19.3931 31.4476 19.2274 31.6912 19.1291C31.9066 19.0427 32.1347 18.9292 32.3886 18.7824C35.0506 17.2452 37.2094 13.5041 37.2007 10.4423C37.1973 9.1567 36.8072 8.1494 36.103 7.60655C35.5165 7.15532 34.7421 7.03784 33.8649 7.26647C33.7891 7.28687 33.7075 7.26676 33.6489 7.21391C33.5903 7.16135 33.5616 7.08294 33.5731 7.00481C33.5909 6.88246 33.5898 6.77101 33.5892 6.65928C33.5857 5.22804 33.1101 4.1679 32.2513 3.6733C31.3856 3.17583 30.2212 3.30048 28.97 4.02228C28.1871 4.47465 27.4351 5.12292 26.7343 5.94898C26.6837 6.00843 26.6119 6.03945 26.5281 6.03055C26.4505 6.02164 26.3816 5.97425 26.346 5.90446C25.9634 5.16112 25.3734 4.65417 24.6404 4.43846C23.6432 4.14578 22.4432 4.38131 21.1644 5.11947C20.2614 5.64107 19.4124 6.3554 18.6409 7.24235C18.5794 7.31358 18.4806 7.33943 18.3916 7.31186C17.1864 6.9241 15.7221 7.19926 14.1556 8.10345Z" fill="#101012"/>
<path d="M28.5624 12.7041L28.5137 29.7388C28.5137 29.9136 28.3918 30.0842 28.152 30.2062L17.6719 35.5783L17.7207 18.5435L28.2008 13.1714C28.4405 13.0495 28.5624 12.8788 28.5624 12.7041Z" fill="#FADE66"/>
<path d="M17.673 35.8135C17.6305 35.8135 17.5874 35.802 17.5501 35.7787C17.48 35.7359 17.4375 35.6595 17.4375 35.5777L17.4863 18.543C17.4869 18.4548 17.5363 18.3744 17.6144 18.3342L28.0947 12.9619C28.2406 12.8878 28.3273 12.7922 28.3279 12.7051V12.7034C28.3285 12.5736 28.4336 12.4688 28.5634 12.4688C28.6932 12.4688 28.7989 12.5742 28.7989 12.704V12.7086L28.7501 29.7395C28.7501 30.0107 28.5715 30.2574 28.2601 30.416L17.7804 35.7876C17.7466 35.8049 17.7098 35.8135 17.673 35.8135ZM17.9568 18.6874L17.9097 35.1928L28.0458 29.9969C28.1923 29.9222 28.2791 29.826 28.2791 29.739L28.3262 13.3721C28.3204 13.3749 28.3147 13.3781 28.3089 13.381L17.9568 18.6874Z" fill="#101012"/>
<path d="M17.7172 18.5419L17.6689 35.5758C17.6009 35.6227 17.57 35.6772 17.5703 35.7356L17.6186 18.7016C17.6183 18.6432 17.6491 18.5888 17.7172 18.5419Z" fill="white"/>
<path d="M17.5715 35.9707C17.4416 35.9707 17.3359 35.8653 17.3359 35.7355L17.3848 18.7011C17.3842 18.6232 17.4089 18.4696 17.5847 18.3483C17.6565 18.2989 17.7507 18.2926 17.8282 18.3337C17.9058 18.3745 17.954 18.4549 17.954 18.5425L17.9058 35.5763C17.9052 35.6533 17.8679 35.7251 17.8047 35.7691C17.7886 35.8831 17.6898 35.9707 17.5715 35.9707Z" fill="#101012"/>
<path d="M32.2091 14.8086L32.1603 31.8433C32.1603 31.9896 32.0749 32.1359 31.8962 32.2538L22.6392 38.3573L22.5946 38.3858C22.0947 38.6784 21.4242 38.8246 20.7659 38.8246C20.1076 38.8246 19.4412 38.6784 18.9414 38.3898L16.1821 36.7969C15.6701 36.5003 15.4141 36.1142 15.4141 35.7363L15.4629 18.7016C15.4629 19.0835 15.7188 19.4696 16.2309 19.7622L18.9901 21.3551C19.4899 21.6436 20.1564 21.7899 20.8146 21.7899C21.473 21.7899 22.1394 21.6436 22.6433 21.351L22.688 21.3226L31.945 15.2231C32.1197 15.1012 32.2091 14.9549 32.2091 14.8086Z" fill="white"/>
<path d="M32.2091 14.8086L32.1603 31.8433C32.1603 31.9896 32.0749 32.1359 31.8962 32.2538L22.6392 38.3573L22.5946 38.3858C22.0947 38.6784 21.4242 38.8246 20.7659 38.8246C20.1076 38.8246 19.4412 38.6784 18.9414 38.3898L16.1821 36.7969C15.6701 36.5003 15.4141 36.1142 15.4141 35.7363V35.1552C16.8811 35.9923 18.5594 36.4677 20.3392 36.4677C26.1502 36.4677 30.864 31.4044 30.864 25.1586C30.864 22.2897 29.8684 19.6687 28.2267 17.6734L31.945 15.2231C32.1197 15.1012 32.2091 14.9549 32.2091 14.8086Z" fill="#E9EDF4"/>
<path d="M20.7668 39.0597C20.0349 39.0597 19.3456 38.8942 18.8246 38.5932L16.0655 37.0003C15.4945 36.6697 15.1797 36.2208 15.1797 35.7362L15.2285 18.7009C15.2291 18.5711 15.3342 18.4663 15.464 18.4663C15.5939 18.4663 15.6996 18.5717 15.6996 18.7015C15.6996 19.01 15.9362 19.3222 16.3487 19.5574L19.1089 21.1513C19.9959 21.6637 21.6353 21.6639 22.5257 21.1475L31.8169 15.0265C31.9151 14.9578 31.9743 14.8774 31.9748 14.8093V14.8079C31.9754 14.6781 32.0805 14.5732 32.2104 14.5732C32.3402 14.5732 32.4459 14.6787 32.4459 14.8085V14.8105L32.3971 31.8438C32.3971 32.0773 32.2655 32.2927 32.0265 32.4501L22.7693 38.5536C22.7659 38.5559 22.7182 38.5866 22.7147 38.5886C22.2035 38.8879 21.4935 39.0597 20.7668 39.0597ZM15.6967 19.6652L15.6507 35.7368C15.6507 36.0412 15.8874 36.3535 16.301 36.593L19.0601 38.1859C19.9505 38.7001 21.598 38.6978 22.4769 38.1825L31.768 32.0572C31.8697 31.9899 31.926 31.9138 31.926 31.8432L31.9731 15.4869L22.8181 21.5189C22.8147 21.5215 22.7659 21.5522 22.7624 21.5542C21.7181 22.1611 19.9166 22.1614 18.8734 21.5585L16.1143 19.9656C15.9546 19.8745 15.815 19.7737 15.6967 19.6652Z" fill="#101012"/>
<path d="M20.6359 21.7806C20.0372 21.7565 19.4446 21.618 18.9901 21.3557L16.2309 19.7627C15.7188 19.4702 15.4629 19.0841 15.4629 18.7021L15.4141 35.7369C15.4141 36.1148 15.6701 36.5008 16.1821 36.7975L18.9414 38.3904C19.4082 38.6599 20.0207 38.8 20.6359 38.818V21.7806Z" fill="#FADE66"/>
<path d="M20.6359 38.106V38.8171C20.0223 38.8008 19.4086 38.6586 18.9414 38.3904L16.1821 36.7975C15.6701 36.5008 15.4141 36.1148 15.4141 35.7369L15.4629 18.7021C15.4629 19.0841 15.7188 19.4702 16.2309 19.7627L17.8198 20.6811C16.7064 22.5545 16.0155 25.1674 16.0155 28.0607C16.0155 32.9573 17.9904 37.0576 20.6359 38.106Z" fill="#544A00"/>
<path d="M20.6369 39.0528C20.6347 39.0528 20.6324 39.0528 20.6301 39.0528C19.9436 39.0327 19.3025 38.8695 18.8246 38.5935L16.0655 37.0006C15.4945 36.67 15.1797 36.221 15.1797 35.7365L15.2285 18.7012C15.2291 18.5714 15.3342 18.4666 15.464 18.4666C15.5939 18.4666 15.6996 18.572 15.6996 18.7018C15.6996 19.0103 15.9362 19.3225 16.3487 19.5577L19.1089 21.1515C19.507 21.3813 20.0527 21.5212 20.6467 21.545C20.7725 21.5502 20.8725 21.6539 20.8725 21.7803V38.8175C20.8725 38.881 20.8466 38.9419 20.8007 38.9864C20.757 39.0289 20.6978 39.0528 20.6369 39.0528ZM15.6967 19.6654L15.6507 35.7371C15.6507 36.0415 15.8874 36.3537 16.301 36.5933L19.0601 38.1862C19.4162 38.3919 19.8861 38.5249 20.4014 38.5685V22.0011C19.8195 21.9503 19.2835 21.7961 18.8734 21.5588L16.1143 19.9659C15.9546 19.8748 15.815 19.774 15.6967 19.6654Z" fill="#101012"/>
<path d="M31.8965 14.3642C32.2978 14.5959 32.3238 14.9711 31.9478 15.2212L22.6929 21.3217L22.6473 21.3507C22.1454 21.6424 21.4769 21.7902 20.8185 21.7902C20.1614 21.7915 19.4949 21.6452 18.9927 21.3553L16.2334 19.7622C15.7233 19.4677 15.4687 19.0821 15.4688 18.7015C15.4666 18.3201 15.7195 17.9324 16.2214 17.6407L16.2714 17.6142L26.773 12.2336C27.2016 12.0137 27.8512 12.0286 28.2507 12.2593C28.2666 12.2685 28.2821 12.278 28.2971 12.2878C28.6932 12.5467 28.6518 12.9432 28.2062 13.1718L17.7256 18.5417C17.6576 18.5886 17.6267 18.643 17.627 18.7015C17.6296 18.7684 17.667 18.8278 17.7544 18.8783L20.5059 20.4668C20.5912 20.5161 20.6959 20.5388 20.8115 20.5401C20.9123 20.5389 21.0075 20.5201 21.0908 20.4799L30.3234 14.3941C30.7165 14.1352 31.3987 14.1087 31.8469 14.3373C31.8641 14.3461 31.8806 14.355 31.8965 14.3642Z" fill="white"/>
<path d="M20.8111 22.0259C20.0845 22.0259 19.398 21.8604 18.8764 21.5594L16.1167 19.9662C15.548 19.6376 15.2344 19.1887 15.2344 18.7018C15.2327 18.2213 15.5498 17.76 16.1047 17.4377C16.1075 17.436 16.1604 17.4082 16.1633 17.4067L26.6671 12.0244C27.1651 11.7697 27.897 11.7826 28.3697 12.056C28.3732 12.058 28.4237 12.0888 28.4272 12.0911C28.6839 12.2588 28.8178 12.4877 28.8052 12.735C28.7914 12.9929 28.6133 13.2285 28.3151 13.3816L17.9033 18.7162L20.625 20.2635C20.671 20.2899 20.7364 20.3042 20.8151 20.3051C20.8806 20.3042 20.941 20.2919 20.9898 20.2683L30.1953 14.1979C30.6589 13.8922 31.4321 13.8624 31.9549 14.1281C31.9583 14.1298 32.0117 14.1582 32.0146 14.1602C32.0152 14.1602 32.0152 14.1605 32.0157 14.1608C32.2886 14.3185 32.4431 14.5419 32.4506 14.7904C32.4581 15.0305 32.3265 15.2531 32.0795 15.4174L22.8234 21.5183C22.82 21.5206 22.7706 21.5525 22.7671 21.5545C22.2438 21.8584 21.5522 22.0259 20.8197 22.0259C20.8169 22.0259 20.814 22.0259 20.8111 22.0259ZM27.4759 12.3145C27.2599 12.3145 27.0485 12.3579 26.8819 12.4432L16.3804 17.8241C15.9358 18.08 15.7037 18.3922 15.7054 18.7007C15.7054 19.0089 15.941 19.3214 16.3523 19.5589L19.1119 21.1521C19.556 21.4083 20.1752 21.5554 20.8123 21.5554H20.8192C21.4608 21.5554 22.0847 21.4069 22.5305 21.1478L31.8199 15.0251C31.9238 14.9558 31.9824 14.8754 31.9801 14.805C31.9778 14.7278 31.9032 14.6393 31.7802 14.5681L31.898 14.3644L31.7429 14.5483C31.3678 14.3564 30.7784 14.3768 30.4538 14.5908L21.2213 20.6768C21.0828 20.746 20.9553 20.7741 20.8157 20.7756C20.6491 20.7741 20.5072 20.7388 20.3895 20.671L17.6379 19.0821C17.4426 18.9698 17.3972 18.8176 17.3937 18.7099C17.3926 18.6234 17.4173 18.4697 17.5931 18.3485L28.1003 12.9628C28.2428 12.8895 28.3307 12.7953 28.3353 12.7106C28.3387 12.6385 28.2784 12.5564 28.1698 12.4851C27.9728 12.3705 27.7212 12.3145 27.4759 12.3145Z" fill="#101012"/>
<path d="M29.823 19.7695C30.1473 19.5822 30.4102 19.7351 30.4112 20.1077L30.4184 22.6179C30.4194 22.9906 30.1583 23.446 29.8339 23.6332L23.973 27.017C23.6487 27.2043 23.3832 27.053 23.3821 26.6803L23.375 24.1701C23.3739 23.7974 23.6377 23.3406 23.962 23.1533L29.823 19.7695Z" fill="white"/>
<path d="M30.4173 22.6184C30.4214 22.9882 30.1572 23.4433 29.8361 23.6343L23.9723 27.0152C23.6472 27.2021 23.3831 27.0518 23.3831 26.6779L23.375 24.5364C23.9318 24.7152 24.5534 24.8127 25.2036 24.8127C27.6865 24.8127 29.7021 23.3783 29.7021 21.6106C29.7021 21.0783 29.5193 20.5744 29.1941 20.1314L29.824 19.7698C30.149 19.5828 30.4092 19.7332 30.4132 20.107L30.4173 22.6184Z" fill="#E9EDF4"/>
<path d="M23.7093 27.332C23.6123 27.332 23.5203 27.3085 23.4388 27.2616C23.2549 27.1557 23.1487 26.944 23.1475 26.6809L23.1406 24.1702C23.1395 23.7144 23.4491 23.1779 23.8455 22.949L29.706 19.5655C29.9358 19.4328 30.1725 19.4184 30.3569 19.5244C30.5412 19.6307 30.6469 19.8429 30.6475 20.1072L30.655 22.6169C30.6561 23.0725 30.3477 23.6084 29.953 23.8365L24.0919 27.2203C23.9632 27.2944 23.8323 27.332 23.7093 27.332ZM29.9415 19.9728L24.081 23.3565C23.83 23.5016 23.6105 23.881 23.6117 24.1688L23.6186 26.6794C23.6186 26.7849 23.6484 26.8391 23.6737 26.8538C23.7007 26.8696 23.7639 26.8661 23.8564 26.8127L29.7175 23.4292C29.9668 23.285 30.1851 22.9059 30.1839 22.6184L30.1765 20.108C30.1765 20.0081 30.1489 19.9478 30.1219 19.932C30.0943 19.9165 30.0283 19.9219 29.9415 19.9728Z" fill="#101012"/>
<path d="M23.9698 29.4756C23.8888 29.4756 23.8096 29.4333 23.7659 29.3581C23.701 29.2455 23.7395 29.1016 23.8521 29.0367L29.7132 25.6529C29.8263 25.5877 29.9694 25.6259 30.0349 25.7388C30.0998 25.8514 30.0613 25.9953 29.9487 26.0602L24.0876 29.444C24.0503 29.4655 24.0101 29.4756 23.9698 29.4756Z" fill="#101012"/>
<path d="M23.9698 31.5698C23.8888 31.5698 23.8096 31.5276 23.7659 31.4523C23.701 31.3397 23.7395 31.1958 23.8521 31.1309L27.1465 29.2289C27.2591 29.164 27.4033 29.2019 27.4682 29.3148C27.5331 29.4274 27.4947 29.5713 27.3821 29.6362L24.0876 31.5382C24.0503 31.5598 24.0101 31.5698 23.9698 31.5698Z" fill="#101012"/>
<path d="M28.5636 28.9218C28.4826 28.9218 28.4033 28.8796 28.3597 28.8041C28.2947 28.6918 28.3332 28.5479 28.4458 28.4827L29.7205 27.7471C29.8337 27.6828 29.9767 27.7207 30.0422 27.8335C30.1071 27.9458 30.0686 28.0897 29.9561 28.1549L28.6814 28.8905C28.644 28.9118 28.6038 28.9218 28.5636 28.9218Z" fill="#101012"/>
</svg>
