<svg width="45" height="45" viewBox="0 0 45 45" fill="none" xmlns="http://www.w3.org/2000/svg">
<path d="M17.4967 28.9212C16.6695 28.4446 15.6039 28.3852 14.4063 28.8219C14.0489 28.9476 13.6849 29.1197 13.3143 29.3315C10.0584 31.2109 7.43124 35.7638 7.44449 39.5028C7.44449 41.3623 8.09963 42.666 9.15836 43.2815L6.55767 41.766C5.49878 41.1572 4.85026 39.8469 4.8438 37.9939C4.83055 34.255 7.45774 29.7021 10.7136 27.8226C11.0842 27.6043 11.4482 27.4322 11.8054 27.3064C13.0032 26.8763 14.0688 26.9359 14.896 27.4123L17.4967 28.9212Z" fill="#FF3D4B"/>
<path d="M9.15721 43.5457C9.1123 43.5457 9.06641 43.5343 9.02441 43.5098C9.02247 43.5088 9.02021 43.5075 9.01859 43.5062L6.42356 41.9943C5.24059 41.3141 4.58464 39.8934 4.57818 37.9947C4.5646 34.1772 7.25722 29.5113 10.5803 27.5932C10.9612 27.3686 11.3441 27.1877 11.7167 27.0562C12.9627 26.6102 14.1075 26.6535 15.0271 27.1825L17.6286 28.6918C17.755 28.7652 17.798 28.9271 17.7249 29.0534C17.6516 29.1801 17.49 29.2221 17.3637 29.1503C16.5811 28.6993 15.5894 28.6711 14.4962 29.0702C14.1631 29.1872 13.8102 29.352 13.4445 29.5607C10.2691 31.3941 7.69539 35.8536 7.70831 39.5014C7.70831 41.1956 8.26829 42.4548 9.28485 43.049L9.29066 43.0522C9.41701 43.1259 9.45966 43.2878 9.38631 43.4141C9.3372 43.4985 9.24834 43.5457 9.15721 43.5457ZM13.3466 27.2804C12.8919 27.2804 12.4043 27.3718 11.8941 27.5551C11.5522 27.6756 11.2007 27.842 10.8472 28.0504C7.66857 29.8851 5.09453 34.3446 5.10746 37.9927C5.1136 39.695 5.67487 40.9532 6.68852 41.5361L7.75452 42.1572C7.37743 41.4434 7.17903 40.5441 7.17903 39.5024C7.16546 35.6862 9.85775 31.0203 13.1808 29.1019C13.5753 28.8766 13.9573 28.6983 14.3176 28.5716C14.843 28.38 15.3512 28.2769 15.8327 28.2621L14.7622 27.641C14.3453 27.4009 13.8678 27.2804 13.3466 27.2804Z" fill="#101012"/>
<path d="M38.4342 16.8304C37.3688 16.2149 35.8865 16.3011 34.2519 17.2407C33.7954 17.5054 33.3452 17.8231 32.9218 18.187C31.585 19.3054 30.4335 20.8539 29.6196 22.5216C28.8386 24.1231 28.3754 25.8437 28.382 27.4187C28.382 29.2716 29.0372 30.5753 30.096 31.1908L27.4953 29.6819C26.4365 29.0664 25.7879 27.7628 25.7813 25.9033C25.7747 24.3282 26.2379 22.6142 27.0187 21.0127C27.8327 19.3385 28.9908 17.7967 30.3211 16.6716C30.7446 16.3143 31.1945 15.9966 31.6511 15.7319C33.2858 14.7856 34.768 14.6996 35.8335 15.3217L38.4342 16.8304Z" fill="#FF3D4B"/>
<path d="M30.0947 31.4557C30.0498 31.4557 30.0039 31.4444 29.9623 31.4202C29.9619 31.4199 29.961 31.4192 29.9603 31.4189L27.3614 29.9115C26.1778 29.2233 25.5222 27.8002 25.5157 25.9047C25.5089 24.3389 25.9461 22.6072 26.7798 20.8972C27.6196 19.1695 28.8164 17.5971 30.149 16.4701C30.5852 16.102 31.0454 15.7766 31.5171 15.5033C33.1858 14.5381 34.7659 14.3927 35.966 15.0932L38.5658 16.6019C38.6922 16.6753 38.7352 16.8371 38.6621 16.9635C38.5885 17.0901 38.4269 17.1338 38.3006 17.0601L38.2993 17.0595C37.2682 16.4646 35.8781 16.6113 34.3826 17.4705C33.9303 17.7332 33.496 18.0421 33.0934 18.3881C31.8251 19.4493 30.6764 20.9577 29.8563 22.6379C29.0581 24.2749 28.6394 25.928 28.6455 27.4183C28.6455 29.1108 29.2074 30.3691 30.2279 30.962C30.2275 30.962 30.2279 30.9623 30.2279 30.962C30.3542 31.0354 30.3975 31.1976 30.3238 31.3239C30.2747 31.4086 30.1862 31.4557 30.0947 31.4557ZM34.286 15.1863C33.5244 15.1863 32.672 15.4464 31.7824 15.9615C31.3378 16.2193 30.9029 16.5266 30.4906 16.8743C29.2132 17.9548 28.0642 19.4658 27.2557 21.1289C26.4573 22.7668 26.0385 24.4174 26.045 25.9025C26.0508 27.6028 26.6127 28.8639 27.6273 29.4536L28.6937 30.0721C28.3153 29.3593 28.1162 28.4604 28.1162 27.4192C28.1098 25.8495 28.547 24.1156 29.3806 22.4059C30.2327 20.6601 31.4296 19.09 32.7508 17.9846C33.1754 17.6194 33.6362 17.2915 34.118 17.012C35.0457 16.4788 35.9463 16.197 36.7693 16.1718L35.6997 15.5511C35.2819 15.3071 34.805 15.1863 34.286 15.1863Z" fill="#101012"/>
<path d="M34.2451 17.244C37.4999 15.3648 40.139 16.8778 40.1496 20.6178C40.1602 24.3533 37.5382 28.8993 34.2835 30.7784C31.0287 32.6576 28.3856 31.1514 28.375 27.4159C28.3706 25.8419 28.8333 24.1238 29.613 22.5219C30.4258 20.8521 31.5832 19.3083 32.9161 18.1846C33.343 17.8247 33.7878 17.508 34.2451 17.244Z" fill="white"/>
<path d="M40.1529 20.6161C40.1661 24.355 37.5389 28.9013 34.2897 30.7807C31.7088 32.2697 29.5116 31.6344 28.7109 29.4439C28.8037 29.4903 28.9029 29.53 29.0021 29.5697C32.5161 30.8866 36.5728 28.6896 38.0748 24.6726C39.2132 21.6219 38.5581 18.3925 36.6256 16.4469C38.697 16.3014 40.1463 17.8499 40.1529 20.6161Z" fill="#E9EDF4"/>
<path d="M31.637 31.8546C31.0298 31.8546 30.4669 31.7125 29.9687 31.4255C28.7751 30.7389 28.1149 29.3152 28.1094 27.4165C28.1049 25.8474 28.5424 24.1148 29.3741 22.4057C30.2162 20.6757 31.4131 19.1047 32.7447 17.9821C33.1896 17.607 33.6498 17.2813 34.1118 17.0147C35.7743 16.055 37.3509 15.9064 38.5513 16.5979C39.7468 17.2858 40.408 18.713 40.4135 20.6172C40.4244 24.4308 37.7334 29.0919 34.4149 31.0074C33.44 31.5703 32.4942 31.8546 31.637 31.8546ZM36.8833 16.699C36.1207 16.699 35.267 16.9591 34.3768 17.4729C33.9415 17.724 33.5069 18.0316 33.0859 18.3867C31.8099 19.4627 30.6605 20.9724 29.8504 22.6374C29.0533 24.2744 28.6345 25.9262 28.6387 27.4152C28.6435 29.1168 29.2097 30.3783 30.2327 30.9667C31.2644 31.5603 32.6548 31.412 34.15 30.5492C37.3221 28.7177 39.8945 24.2631 39.8842 20.6185C39.8793 18.9114 39.3122 17.6464 38.2873 17.0567C37.8721 16.8176 37.3984 16.699 36.8833 16.699Z" fill="#101012"/>
<path d="M26.5067 18.6012L23.9062 17.09C25.1557 15.7918 26.2347 14.2087 27.0337 12.5303L29.6342 14.0415C28.8351 15.7199 27.7562 17.303 26.5067 18.6012Z" fill="white"/>
<path d="M26.5058 18.8653C26.4602 18.8653 26.4143 18.8537 26.3727 18.8295L23.7721 17.3185C23.702 17.2778 23.6545 17.207 23.6432 17.1266C23.6319 17.0458 23.6581 16.9647 23.7146 16.9062C24.9338 15.6395 25.9985 14.0869 26.7937 12.416C26.8257 12.3491 26.8839 12.2987 26.9546 12.2768C27.0244 12.2545 27.101 12.2632 27.1659 12.301L29.7665 13.8123C29.8854 13.8814 29.9316 14.0304 29.8725 14.1548C29.0524 15.877 27.9544 17.4778 26.6964 18.7842C26.6451 18.8375 26.5759 18.8653 26.5058 18.8653ZM24.3266 17.0283L26.458 18.2666C27.564 17.0855 28.537 15.6689 29.2879 14.1464L27.1462 12.902C26.3937 14.4197 25.4262 15.8357 24.3266 17.0283Z" fill="#101012"/>
<path d="M29.6163 22.5214L27.0158 21.0102L23.9062 17.0889L26.5067 18.6001L29.6163 22.5214Z" fill="#FF3D4B"/>
<path d="M29.6156 22.7861C29.57 22.7861 29.5241 22.7744 29.4824 22.7502L26.8819 21.2389C26.8535 21.2224 26.8283 21.2005 26.8076 21.1746L23.6978 17.2535C23.619 17.154 23.6219 17.0121 23.7052 16.9158C23.7889 16.8192 23.9282 16.7962 24.0384 16.8602L26.6389 18.3712C26.6673 18.3877 26.6925 18.4096 26.7132 18.4355L29.823 22.3569C29.9022 22.4565 29.8989 22.5983 29.8156 22.6946C29.7639 22.7544 29.6902 22.7861 29.6156 22.7861ZM27.1915 20.8066L28.5386 21.5895L26.3293 18.8035L24.9822 18.0209L27.1915 20.8066Z" fill="#101012"/>
<path d="M29.6353 14.0402L32.9205 18.184C31.5876 19.3077 30.4301 20.8515 29.6174 22.5213L26.5078 18.5999C27.7573 17.3017 28.8362 15.7185 29.6353 14.0402Z" fill="white"/>
<path d="M29.6168 22.7859C29.5363 22.7859 29.4597 22.7494 29.4093 22.6857L26.2995 18.7642C26.2171 18.6605 26.2242 18.5116 26.3163 18.4162C27.5348 17.1502 28.5999 15.5976 29.3954 13.9264C29.4348 13.8437 29.514 13.7874 29.6048 13.7771C29.6959 13.7668 29.7854 13.8039 29.842 13.8756L33.1272 18.0194C33.2161 18.1316 33.1999 18.2941 33.0904 18.3862C31.8143 19.4622 30.665 20.9718 29.8549 22.6369C29.8148 22.719 29.736 22.7746 29.6455 22.7843C29.6358 22.7856 29.6261 22.7859 29.6168 22.7859ZM26.8572 18.6153L29.567 22.0324C30.3509 20.5337 31.3969 19.174 32.5546 18.1497L29.6875 14.5332C28.9272 16.0383 27.9565 17.4388 26.8572 18.6153Z" fill="#101012"/>
<path d="M15.2083 27.6217C15.1093 27.545 15.0059 27.4754 14.8984 27.4129L17.4989 28.9241C17.6064 28.9866 17.7097 29.0562 17.8087 29.1329C17.0286 28.6795 15.9566 28.1258 15.2083 27.6217Z" fill="white"/>
<path d="M17.8078 29.3975C17.7626 29.3975 17.717 29.3859 17.675 29.3616C17.4259 29.2169 17.147 29.0618 16.8581 28.9015C16.2283 28.5515 15.5772 28.1896 15.0596 27.841C15.0547 27.8378 15.0502 27.8345 15.0454 27.831C14.9578 27.7628 14.866 27.7008 14.7704 27.6452L14.7646 27.6416C14.6382 27.5683 14.5953 27.4064 14.6686 27.28C14.7416 27.1537 14.9019 27.1091 15.0305 27.1838L15.0325 27.185C15.0331 27.1854 15.0337 27.1857 15.0344 27.186L17.6314 28.6953C17.7483 28.7635 17.8614 28.8398 17.97 28.9235C18.0802 29.0085 18.1057 29.1648 18.0278 29.2805C17.9768 29.3561 17.8934 29.3975 17.8078 29.3975Z" fill="#101012"/>
<path d="M18.5379 21.2993L15.9375 19.7881C16.6128 20.1805 17.4191 20.3472 18.3152 20.2644L20.9156 21.7756C20.0196 21.8584 19.2132 21.6917 18.5379 21.2993Z" fill="white"/>
<path d="M20.4669 22.061C19.7063 22.061 19.0141 21.8826 18.4041 21.5278L15.8035 20.0165C15.6772 19.9432 15.6342 19.7813 15.7079 19.6546C15.7812 19.5286 15.9418 19.484 16.0695 19.559C16.7064 19.929 17.4528 20.0779 18.29 20.0004C18.3443 19.9968 18.3999 20.0078 18.4474 20.0353L21.0479 21.5465C21.1474 21.6044 21.1982 21.7201 21.1733 21.8325C21.1484 21.945 21.0537 22.0283 20.939 22.039C20.7791 22.0535 20.6214 22.061 20.4669 22.061ZM17.7733 20.5487L18.6703 21.0703C19.0439 21.2874 19.4552 21.4283 19.9005 21.4919L18.2535 20.5348C18.0903 20.5471 17.9297 20.5516 17.7733 20.5487Z" fill="#101012"/>
<path d="M17.8119 20.7451C18.5991 21.5259 19.6688 21.8905 20.911 21.7757L17.8072 29.1334C16.9487 28.4684 15.7583 28.3311 14.4062 28.8192L17.8119 20.7451Z" fill="white"/>
<path d="M17.8065 29.3977C17.7484 29.3977 17.6912 29.3787 17.6443 29.3425C16.8426 28.7214 15.7246 28.6235 14.4951 29.0681C14.3962 29.1027 14.2851 29.0775 14.2134 29.0012C14.141 28.925 14.1206 28.8129 14.1613 28.7162L17.5671 20.6419C17.6013 20.5608 17.6734 20.502 17.7597 20.4849C17.8456 20.4694 17.9351 20.4949 17.9975 20.5566C18.7342 21.2879 19.7333 21.6191 20.8859 21.5118C20.98 21.506 21.0691 21.5441 21.1238 21.6191C21.1787 21.694 21.1903 21.7926 21.1541 21.8782L18.0505 29.2358C18.0185 29.3118 17.9532 29.3683 17.8737 29.389C17.8514 29.3948 17.8288 29.3977 17.8065 29.3977ZM15.9495 28.2632C16.5909 28.2632 17.1806 28.4203 17.6889 28.7308L20.5024 22.0608C19.4994 22.0737 18.6237 21.7716 17.9106 21.19L14.8687 28.4015C15.2409 28.3091 15.6028 28.2632 15.9495 28.2632Z" fill="#101012"/>
<path d="M14.4051 28.8177L11.8047 27.3065L15.2103 19.2324L17.8108 20.7436L14.4051 28.8177Z" fill="#FF3D4B"/>
<path d="M14.404 29.0828C14.3578 29.0828 14.3119 29.0708 14.2709 29.0469L11.6707 27.5357C11.5557 27.4688 11.5082 27.3266 11.5599 27.2041L14.9653 19.1298C14.995 19.0597 15.0532 19.0057 15.1253 18.9815C15.1973 18.9573 15.2762 18.9654 15.3424 19.0038L17.9429 20.5151C18.058 20.582 18.1055 20.7241 18.0538 20.8466L14.648 28.9209C14.6183 28.991 14.5601 29.045 14.488 29.0692C14.4606 29.0783 14.4321 29.0828 14.404 29.0828ZM12.1383 27.1951L14.277 28.4382L17.4754 20.8556L15.3363 19.6126L12.1383 27.1951Z" fill="#101012"/>
<path d="M13.3154 29.3324C13.689 29.1167 14.0547 28.9461 14.4091 28.8182C15.7612 28.3301 16.9516 28.4673 17.8101 29.1324C18.6849 29.8101 19.2153 31.0354 19.22 32.7061C19.2306 36.4416 16.6047 40.9899 13.3538 42.8668C10.099 44.7459 7.45593 43.2397 7.44534 39.5043C7.43474 35.7642 10.0606 31.2115 13.3154 29.3324Z" fill="white"/>
<path d="M19.2174 32.7061C19.2306 36.4451 16.6034 40.9914 13.3542 42.8642C11.091 44.1745 9.119 43.8436 8.13281 42.262C8.44398 42.2951 8.75499 42.315 9.07263 42.315C13.8108 42.315 17.6557 38.3973 17.6557 33.5664C17.6557 31.6937 17.0799 29.9598 16.094 28.537C16.749 28.5569 17.3248 28.762 17.8079 29.1326C18.6815 29.8076 19.2109 31.0385 19.2174 32.7061Z" fill="#E9EDF4"/>
<path d="M10.6995 43.9434C10.0923 43.9434 9.52945 43.8009 9.03118 43.5143C7.83755 42.8273 7.1774 41.4036 7.17191 39.5052C7.16092 35.6865 9.85386 31.0202 13.1743 29.1034C13.5527 28.8847 13.9346 28.705 14.3104 28.5696C15.7164 28.0617 17.014 28.1874 17.9637 28.9231C18.9341 29.6754 19.4711 31.0186 19.476 32.7057C19.4869 36.5189 16.7959 41.1803 13.4774 43.0961C12.5025 43.659 11.5571 43.9434 10.6995 43.9434ZM15.9416 28.7932C15.4863 28.7932 14.9977 28.884 14.4901 29.0676C14.144 29.1926 13.7905 29.3587 13.4393 29.5616C10.2649 31.3944 7.69085 35.8542 7.70119 39.5039C7.70604 41.2055 8.27216 42.4667 9.29518 43.0554C10.326 43.6484 11.718 43.5007 13.2125 42.6379C16.3846 40.8061 18.957 36.3515 18.9467 32.7069C18.9421 31.187 18.4778 29.9917 17.6393 29.3416C17.1688 28.9774 16.5888 28.7932 15.9416 28.7932Z" fill="#101012"/>
<path d="M28.9623 3.33039C27.6255 2.55618 25.7725 2.662 23.721 3.84659C19.6512 6.19589 16.3689 11.8937 16.3821 16.5723C16.3888 18.4385 16.9182 19.8613 17.8115 20.7415C18.0299 20.9598 18.2681 21.1451 18.5329 21.2973L15.932 19.7886C15.6674 19.6363 15.4292 19.4511 15.2108 19.2326C14.3174 18.3459 13.7879 16.9231 13.7813 15.0568C13.768 10.3782 17.0505 4.68704 21.1203 2.33112C23.1719 1.15316 25.0248 1.04071 26.3614 1.82155L28.9623 3.33039Z" fill="#FF3D4B"/>
<path d="M18.5316 21.562C18.487 21.562 18.4414 21.5507 18.4001 21.5268C18.3997 21.5268 18.3994 21.5265 18.3991 21.5265C18.3913 21.522 18.3839 21.5178 18.3765 21.5133L15.7982 20.0175C15.5165 19.8553 15.2625 19.6598 15.0227 19.4197C14.044 18.4484 13.5225 16.9397 13.5157 15.0578C13.5021 10.3065 16.8539 4.49478 20.987 2.10203C23.0618 0.911301 25.0174 0.730027 26.4941 1.5931L29.0943 3.10113C29.2206 3.17448 29.2639 3.33637 29.1906 3.46304C29.1169 3.58906 28.9553 3.63268 28.8287 3.55933L28.8254 3.55739C27.5119 2.79901 25.7457 2.98287 23.8525 4.07569C19.8658 6.377 16.6329 11.9826 16.6458 16.5717C16.6523 18.3117 17.1192 19.6886 17.9965 20.5526C18.1988 20.7552 18.4101 20.9193 18.6427 21.0557L18.6647 21.0683C18.791 21.1417 18.834 21.3035 18.761 21.4299C18.7122 21.5145 18.623 21.562 18.5316 21.562ZM24.4251 1.58534C23.4599 1.58534 22.3794 1.91267 21.2513 2.56054C17.2652 4.86832 14.032 10.4739 14.0449 15.0562C14.0514 16.7943 14.5187 18.1737 15.3963 19.0449C15.6037 19.252 15.8215 19.42 16.0629 19.559L16.9599 20.0792C16.4106 19.1641 16.1217 17.9731 16.1165 16.5733C16.1029 11.8149 19.4544 6.00314 23.5875 3.61749C24.8313 2.89918 26.031 2.53825 27.12 2.56797L26.2278 2.05065C25.6959 1.7398 25.0875 1.58534 24.4251 1.58534Z" fill="#101012"/>
<path d="M23.7244 3.84457C27.7958 1.49392 31.1046 3.38401 31.1178 8.06235C31.1233 9.98313 30.5711 12.0771 29.6364 14.0404C28.8373 15.7188 27.7584 17.3019 26.5089 18.6001C25.6635 19.4786 24.7403 20.2264 23.7724 20.7852C22.7577 21.371 21.7909 21.6932 20.9107 21.7746C19.6685 21.8895 18.5987 21.5248 17.8116 20.744C16.9179 19.8577 16.3881 18.4353 16.3829 16.5696C16.3696 11.8913 19.6529 6.19522 23.7244 3.84457Z" fill="white"/>
<path d="M31.1107 8.06226C31.1174 9.9814 30.568 12.0791 29.6284 14.038C28.8341 15.7188 27.7555 17.3006 26.5047 18.5976C25.6578 19.4777 24.7379 20.2255 23.7651 20.788C22.7526 21.3703 21.7864 21.6946 20.9062 21.7741C19.6622 21.8932 18.5967 21.5225 17.8092 20.7417C17.4717 20.4108 17.1872 20.0071 16.9688 19.5306C17.7166 19.7093 18.5041 19.8086 19.3114 19.8086C24.6453 19.8086 28.96 15.6329 28.96 10.4777C28.96 7.49316 27.5172 4.83947 25.2673 3.13869C28.596 2.04022 31.0975 3.99902 31.1107 8.06226Z" fill="#E9EDF4"/>
<path d="M20.4649 22.0606C19.3475 22.0606 18.3727 21.6751 17.624 20.9323C16.6433 19.9597 16.1224 18.4516 16.1172 16.5704C16.1033 11.8143 19.4561 6.00282 23.5908 3.61588C25.6508 2.42645 27.6025 2.24129 29.0847 3.09467C30.5591 3.9432 31.375 5.70716 31.3814 8.06211C31.3869 9.96533 30.8657 12.0721 29.8744 14.1544C29.0543 15.8763 27.9563 17.4771 26.6984 18.7841C25.8117 19.7054 24.8714 20.456 23.9036 21.0147C22.8783 21.6066 21.8792 21.9511 20.9338 22.0387C20.7751 22.0532 20.6184 22.0606 20.4649 22.0606ZM27.0279 3.09629C26.0608 3.09629 24.9806 3.42459 23.8558 4.07407C19.8671 6.37668 16.6333 11.982 16.6465 16.5691C16.6514 18.3062 17.1183 19.685 17.9969 20.5561C18.7336 21.2874 19.7327 21.6186 20.8853 21.5113C21.7539 21.4312 22.6803 21.1097 23.6387 20.5565C24.5638 20.0223 25.4647 19.3024 26.3171 18.417C27.5359 17.1507 28.6006 15.5981 29.3961 13.9269C30.3539 11.9154 30.8573 9.8881 30.8522 8.0634C30.846 5.90556 30.1245 4.30381 28.8207 3.55351C28.2898 3.24816 27.6849 3.09629 27.0279 3.09629Z" fill="#101012"/>
<path d="M23.7237 7.24277C24.518 6.78419 25.1779 7.14349 25.1806 8.06735C25.1831 8.98001 24.5274 10.0989 23.7331 10.5575C22.9437 11.0133 22.2838 10.6539 22.2813 9.74126C22.2786 8.8174 22.9343 7.69853 23.7237 7.24277Z" fill="#101012"/>
<path d="M23.7379 11.571C25.5603 10.5188 27.0704 11.1949 27.3246 13.0671C27.3645 13.3526 27.1509 13.7563 26.878 13.9139L20.6262 17.5234C20.3533 17.6809 20.1381 17.5247 20.1763 17.1942C20.4191 15.035 21.9204 12.6203 23.7379 11.571Z" fill="#101012"/>
<path d="M34.2514 20.2434C34.8415 19.9027 35.3318 20.1697 35.3338 20.8561C35.3357 21.5341 34.8485 22.3654 34.2583 22.7062C33.6719 23.0448 33.1816 22.7778 33.1797 22.0997C33.1777 21.4133 33.6649 20.582 34.2514 20.2434Z" fill="#101012"/>
<path d="M34.2588 23.4588C35.6128 22.6771 36.7347 23.1794 36.9236 24.5704C36.9532 24.7825 36.7945 25.0824 36.5918 25.1995L31.9469 27.8812C31.7442 27.9982 31.5843 27.8822 31.6126 27.6367C31.793 26.0325 32.9084 24.2384 34.2588 23.4588Z" fill="#101012"/>
<path d="M13.3139 32.3332C13.904 31.9925 14.3943 32.2594 14.3963 32.9458C14.3982 33.6239 13.911 34.4552 13.3208 34.7959C12.7344 35.1346 12.2441 34.8676 12.2422 34.1895C12.2402 33.5031 12.7274 32.6718 13.3139 32.3332Z" fill="#101012"/>
<path d="M13.3213 35.5486C14.6753 34.7669 15.7972 35.2692 15.9861 36.6602C16.0157 36.8722 15.857 37.1722 15.6543 37.2892L11.0094 39.971C10.8067 40.088 10.6468 39.972 10.6751 39.7264C10.8555 38.1223 11.9709 36.3282 13.3213 35.5486Z" fill="#101012"/>
</svg>
