<svg width="101" height="101" viewBox="0 0 101 101" fill="none" xmlns="http://www.w3.org/2000/svg">
<path d="M65.116 21.7219L71.2939 19.8196C71.6625 19.7061 72.0401 19.7218 72.3778 19.8408L67.2811 17.7062L65.116 21.7219Z" fill="#BFDBFF"/>
<path fill-rule="evenodd" clip-rule="evenodd" d="M81.3544 66.7897C83.8743 62.7263 84.7205 57.6598 83.2892 52.7303L83.2919 52.7294L73.4538 20.9571C73.3054 20.478 72.9665 20.1099 72.5457 19.9101C72.491 19.8841 72.435 19.861 72.3778 19.8408C72.0401 19.7218 71.6625 19.7061 71.2939 19.8196L65.116 21.7219L49.5406 51.1301L75.7899 64.9547L81.3544 66.7897Z" fill="#BFDBFF"/>
<path d="M51.994 67.4954C56.2232 73.6333 64.1069 76.6061 71.6187 74.2931C75.833 72.9955 79.2034 70.258 81.3544 66.7897L75.7899 64.9547L49.5406 51.1301L65.116 21.7219L39.4324 29.6302L39.435 29.6388C39.3341 29.6679 39.2332 29.698 39.1324 29.7291C29.8801 32.578 24.6956 42.367 27.5525 51.5934C29.8954 59.1598 36.9187 63.9981 44.4731 63.923C42.2349 65.4842 39.7413 66.9836 37.2348 68.1045L52.4595 76.1228C51.9535 73.3085 51.87 70.2954 51.994 67.4954Z" fill="#5288CD"/>
<path d="M27.0743 51.7415C29.3225 59.0021 35.7601 63.8192 42.9216 64.3704C41.0474 65.6015 39.0404 66.75 37.0306 67.6487L36.0927 68.0681L37.0008 68.5464L52.2255 76.5647L53.1335 77.0429L52.9521 76.034C52.5386 73.7342 52.411 71.291 52.4504 68.9364C56.9545 74.4562 64.5272 76.9992 71.7657 74.7704C76.1 73.4358 79.5675 70.6195 81.7798 67.0522C84.2906 63.0036 85.1863 57.985 83.9006 53.0648L83.9181 53.0595L83.77 52.5814L73.9319 20.8091C73.7406 20.1911 73.3028 19.7161 72.7612 19.459C72.6954 19.4277 72.6281 19.3997 72.5595 19.375L67.4753 17.2456L67.0561 17.07L66.8405 17.4699L64.7727 21.305L64.7707 21.3056L39.2854 29.1529L38.8063 29.3004L38.8084 29.3073C29.4026 32.3074 24.154 42.3103 27.0743 51.7415Z" stroke="#141414"/>
<mask id="path-3-inside-1_3545_172411" fill="white">
<path fill-rule="evenodd" clip-rule="evenodd" d="M78.1789 50.8486C80.8318 59.9857 75.6599 69.5932 66.5084 72.4111C58.9971 74.7239 51.1141 71.7518 46.8847 65.6149C46.7607 68.4144 46.8443 71.4269 47.3502 74.2407L32.1255 66.2224C34.632 65.1015 37.1256 63.6021 39.3638 62.0408C31.8091 62.1164 24.7852 57.278 22.4422 49.7113C19.5853 40.4848 24.7698 30.6958 34.0221 27.8469C34.1227 27.816 34.2233 27.7859 34.3239 27.7569L34.3214 27.7487L66.4054 17.8697C67.194 17.6269 68.0306 18.0675 68.2741 18.8539L78.0418 50.3988C78.0575 50.448 78.073 50.4973 78.0883 50.5467C78.1036 50.5962 78.1187 50.6456 78.1336 50.6951L78.1809 50.848L78.1789 50.8486Z"/>
</mask>
<path fill-rule="evenodd" clip-rule="evenodd" d="M78.1789 50.8486C80.8318 59.9857 75.6599 69.5932 66.5084 72.4111C58.9971 74.7239 51.1141 71.7518 46.8847 65.6149C46.7607 68.4144 46.8443 71.4269 47.3502 74.2407L32.1255 66.2224C34.632 65.1015 37.1256 63.6021 39.3638 62.0408C31.8091 62.1164 24.7852 57.278 22.4422 49.7113C19.5853 40.4848 24.7698 30.6958 34.0221 27.8469C34.1227 27.816 34.2233 27.7859 34.3239 27.7569L34.3214 27.7487L66.4054 17.8697C67.194 17.6269 68.0306 18.0675 68.2741 18.8539L78.0418 50.3988C78.0575 50.448 78.073 50.4973 78.0883 50.5467C78.1036 50.5962 78.1187 50.6456 78.1336 50.6951L78.1809 50.848L78.1789 50.8486Z" fill="#191720"/>
<path d="M78.1789 50.8486L77.8834 49.8945L76.9434 50.1839L77.217 51.1263L78.1789 50.8486ZM46.8847 65.6149L47.71 65.0493L46.0161 62.5916L45.8842 65.5709L46.8847 65.6149ZM47.3502 74.2407L46.8825 75.1237L48.6983 76.08L48.3359 74.0645L47.3502 74.2407ZM32.1255 66.2224L31.7157 65.3112L29.8421 66.1491L31.6578 67.1054L32.1255 66.2224ZM39.3638 62.0408L39.9378 62.8591L42.5887 61.0099L39.3538 61.0423L39.3638 62.0408ZM34.3239 27.7569L34.6025 28.7161L35.5814 28.4334L35.2808 27.4623L34.3239 27.7569ZM34.3214 27.7487L34.026 26.7946L33.0691 27.0892L33.3646 28.0434L34.3214 27.7487ZM66.4054 17.8697L66.1099 16.9155L66.4054 17.8697ZM78.0418 50.3988L77.085 50.6934L77.0876 50.7017L78.0418 50.3988ZM78.1336 50.6951L77.1742 50.9814L77.1767 50.9897L78.1336 50.6951ZM78.1809 50.848L78.4763 51.8021L79.4332 51.5075L79.1377 50.5534L78.1809 50.848ZM66.8038 73.3652C76.4781 70.3864 81.9453 60.2302 79.1408 50.5709L77.217 51.1263C79.7182 59.7412 74.8417 68.8001 66.2129 71.457L66.8038 73.3652ZM46.0594 66.1805C50.5298 72.6672 58.8621 75.8106 66.8038 73.3652L66.2129 71.457C59.1321 73.6372 51.6983 70.8365 47.71 65.0493L46.0594 66.1805ZM45.8842 65.5709C45.7583 68.4155 45.8413 71.5069 46.3645 74.417L48.3359 74.0645C47.8473 71.3469 47.7631 68.4133 47.8851 65.659L45.8842 65.5709ZM47.8179 73.3577L32.5931 65.3394L31.6578 67.1054L46.8825 75.1237L47.8179 73.3577ZM32.5352 67.1336C35.1148 65.98 37.664 64.4452 39.9378 62.8591L38.7898 61.2226C36.5873 62.7589 34.1492 64.223 31.7157 65.3112L32.5352 67.1336ZM21.4854 50.0059C23.9626 58.0062 31.3884 63.1192 39.3739 63.0394L39.3538 61.0423C32.2298 61.1135 25.6077 56.5498 23.399 49.4166L21.4854 50.0059ZM33.7267 26.8928C23.9459 29.9044 18.4653 40.2525 21.4854 50.0059L23.399 49.4166C20.7053 40.7172 25.5937 31.4873 34.3176 28.8011L33.7267 26.8928ZM34.0454 26.7977C33.9391 26.8284 33.8329 26.8601 33.7267 26.8928L34.3176 28.8011C34.4125 28.7718 34.5075 28.7435 34.6025 28.7161L34.0454 26.7977ZM33.3646 28.0434L33.3671 28.0515L35.2808 27.4623L35.2782 27.4541L33.3646 28.0434ZM66.1099 16.9155L34.026 26.7946L34.6169 28.7029L66.7008 18.8238L66.1099 16.9155ZM69.2309 18.5593C68.8243 17.2459 67.4269 16.51 66.1099 16.9155L66.7008 18.8238C66.961 18.7437 67.237 18.8891 67.3173 19.1485L69.2309 18.5593ZM78.9986 50.1042L69.2309 18.5593L67.3173 19.1485L77.085 50.6934L78.9986 50.1042ZM79.0452 50.2521C79.029 50.1999 79.0126 50.1479 78.996 50.0959L77.0876 50.7017C77.1024 50.7481 77.1171 50.7947 77.1315 50.8414L79.0452 50.2521ZM79.0929 50.4088C79.0772 50.3565 79.0613 50.3043 79.0452 50.2521L77.1315 50.8414C77.146 50.888 77.1602 50.9347 77.1742 50.9814L79.0929 50.4088ZM79.1377 50.5534L79.0904 50.4005L77.1767 50.9897L77.2241 51.1426L79.1377 50.5534ZM78.4743 51.8028L78.4763 51.8021L77.8855 49.8938L77.8834 49.8945L78.4743 51.8028Z" fill="#141414" mask="url(#path-3-inside-1_3545_172411)"/>
<path fill-rule="evenodd" clip-rule="evenodd" d="M77.8894 50.5892C80.5427 59.7265 75.3708 69.3344 66.2191 72.1523C58.7062 74.4656 50.8214 71.4918 46.5927 65.3522C46.4685 68.1526 46.5519 71.1663 47.0581 73.9812L31.8333 65.9629C34.3395 64.8422 36.8327 63.3431 39.0706 61.7821C31.5173 61.8559 24.4955 57.0179 22.1529 49.4525C19.296 40.226 24.4805 30.437 33.7329 27.5881C33.8335 27.5572 33.9341 27.5271 34.0349 27.498L34.0321 27.4892L65.9121 17.673C66.8133 17.3955 67.7695 17.8991 68.0478 18.7978L77.7606 50.1653C77.7735 50.2061 77.7864 50.247 77.799 50.288C77.8096 50.322 77.82 50.3561 77.8304 50.3902L77.8366 50.4109L77.8916 50.5885L77.8894 50.5892ZM36.9869 40.1836C38.1069 38.249 39.9261 36.8226 42.0441 36.2181C44.1622 35.6136 46.4057 35.8806 48.281 36.9603C50.1563 38.04 51.5099 39.8439 52.044 41.9753C52.578 44.1067 52.2488 46.391 51.1288 48.3255L44.0578 44.2546L36.9869 40.1836ZM59.6103 46.3562C57.4821 46.9244 55.6387 48.3195 54.4855 50.2346L61.4853 54.426L68.4851 58.6174C69.6383 56.7023 70.0068 54.424 69.5095 52.2838C69.0122 50.1436 67.6899 48.3167 65.8334 47.2051C63.977 46.0934 61.7384 45.7881 59.6103 46.3562ZM45.0722 29.894L57.3036 33.3684L56.3965 36.5441L44.1651 33.0698L45.0722 29.894ZM63.8501 38.0474L73.6237 46.1624L71.3794 48.8504L61.6057 40.7354L63.8501 38.0474Z" fill="#F9F9F9"/>
<path d="M55.8814 51.1322C56.3811 50.3023 57.191 49.7043 58.1328 49.4699C59.0746 49.2354 60.0713 49.3837 60.9035 49.882C61.7357 50.3803 62.3353 51.1879 62.5704 52.1271C62.8055 53.0663 62.6569 54.0601 62.1571 54.89L59.0193 53.0111L55.8814 51.1322Z" fill="#F9F9F9"/>
<path d="M38.5138 42.0275C39.0005 41.1868 39.8021 40.5734 40.7423 40.3222C41.6826 40.071 42.6844 40.2025 43.5274 40.6878C44.3703 41.1732 44.9855 41.9726 45.2374 42.9102C45.4893 43.8477 45.3574 44.8467 44.8707 45.6874L41.6923 43.8574L38.5138 42.0275Z" fill="#F9F9F9"/>
<path d="M22.9429 37.1128L75.7776 64.939L74.8375 66.2791L73.6995 67.5058L72.4661 68.6822L71.1875 69.7132L68.6918 71.1986L65.8195 72.2424L63.7323 72.7257L61.7964 72.9235L57.7499 72.4965L47.5365 67.1175L37.3232 61.7385L29.4463 57.7152C21.9041 53.8629 18.9791 44.5969 22.9429 37.1128V37.1128Z" fill="url(#paint0_linear_3545_172411)"/>
<circle cx="59.4524" cy="59.7991" r="1.22241" fill="#191720"/>
<circle cx="63.7302" cy="59.7991" r="1.22241" fill="#191720"/>
<circle cx="61.8967" cy="63.1609" r="1.22241" fill="#191720"/>
<circle cx="33.1321" cy="45.1775" r="1.22241" fill="#191720"/>
<circle cx="37.4099" cy="45.1775" r="1.22241" fill="#191720"/>
<circle cx="35.5764" cy="48.5393" r="1.22241" fill="#191720"/>
<path d="M43.1958 54.9219C43.4368 57.0392 45.0744 60.6754 49.6975 58.2813" stroke="#191720" stroke-width="2"/>
<path d="M49.4556 57.1143L50.9163 59.673" stroke="#191720" stroke-width="2"/>
<path d="M44.144 54.3635L41.4129 55.4687" stroke="#191720" stroke-width="2"/>
<circle cx="61.4099" cy="48.9819" r="1.46213" fill="white"/>
<circle cx="43.8645" cy="39.478" r="1.46213" fill="white"/>
<defs>
<linearGradient id="paint0_linear_3545_172411" x1="18.9669" y1="44.62" x2="71.7368" y2="72.5684" gradientUnits="userSpaceOnUse">
<stop stop-color="#F3F3F3" stop-opacity="0"/>
<stop offset="1" stop-color="#F3F3F3"/>
</linearGradient>
</defs>
</svg>
