<svg width="165" height="136" viewBox="0 0 165 136" fill="none" xmlns="http://www.w3.org/2000/svg">
<path d="M100.234 122.04L18.6846 135.022C18.176 135.103 3.71261 129.172 3.28613 129C2.00866 128.484 1.23636 127.001 1.78778 125.561L45.2991 54.3131C46.353 51.561 49.3895 50.4756 51.8392 51.4659C52.5831 51.7667 53.2729 52.2588 53.8367 52.9539L63.3321 64.6606L129.343 8.46256C132.86 5.60965 137.501 5.07107 141.423 6.65447C143.248 7.39156 144.918 8.58847 146.246 10.2258L161.602 29.1586C165.783 34.3133 164.994 41.8807 159.839 46.0617L93.8292 102.26L103.324 113.966C105.746 116.951 104.029 121.436 100.234 122.04Z" fill="#97BA4A" stroke="black" stroke-linejoin="round"/>
<path d="M37.3507 46.1513L37.3508 46.1513L48.7267 50.7475C47.1938 51.0983 45.8025 52.096 45.0351 53.667L31.6643 48.2649C32.7533 46.125 35.2808 45.3145 37.3507 46.1513Z" fill="black" stroke="black" stroke-linejoin="round"/>
<path fill-rule="evenodd" clip-rule="evenodd" d="M30.7981 48.0765C30.9211 48.0229 31.0605 48.0211 31.1849 48.0713L45.486 53.8493L45.1114 54.7765L31.2825 49.1893L1.93387 125.828L1 125.47L30.5307 48.3561C30.5787 48.2308 30.675 48.13 30.7981 48.0765Z" fill="#FEE425"/>
<path d="M31.1849 48.0713L30.9976 48.5349V48.5349L31.1849 48.0713ZM30.7981 48.0765L30.9976 48.5349L30.9976 48.5349L30.7981 48.0765ZM45.486 53.8493L45.9496 54.0366C46.053 53.7806 45.9293 53.4892 45.6733 53.3857L45.486 53.8493ZM45.1114 54.7765L44.9241 55.2401C45.047 55.2898 45.1847 55.2886 45.3068 55.2368C45.4288 55.1849 45.5253 55.0868 45.575 54.9638L45.1114 54.7765ZM31.2825 49.1893L31.4698 48.7257C31.3453 48.6754 31.2059 48.6772 31.0829 48.7308C30.9599 48.7844 30.8635 48.8851 30.8155 49.0104L31.2825 49.1893ZM1.93387 125.828L1.75506 126.294C2.01294 126.393 2.30204 126.264 2.4008 126.006L1.93387 125.828ZM1 125.47L0.533067 125.291C0.485643 125.415 0.489356 125.553 0.54339 125.674C0.597423 125.795 0.697351 125.889 0.82119 125.937L1 125.47ZM30.5307 48.3561L30.9976 48.5349V48.5349L30.5307 48.3561ZM31.3722 47.6077C31.1234 47.5072 30.8446 47.5109 30.5985 47.618L30.9976 48.5349L30.9976 48.5349L31.3722 47.6077ZM45.6733 53.3857L31.3722 47.6077L30.9976 48.5349L45.2987 54.3129L45.6733 53.3857ZM45.575 54.9638L45.9496 54.0366L45.0224 53.662L44.6478 54.5892L45.575 54.9638ZM31.0952 49.6528L44.9241 55.2401L45.2987 54.3129L31.4698 48.7257L31.0952 49.6528ZM2.4008 126.006L31.7494 49.3681L30.8155 49.0104L1.46693 125.649L2.4008 126.006ZM0.82119 125.937L1.75506 126.294L2.11268 125.361L1.17881 125.003L0.82119 125.937ZM30.0638 48.1773L0.533067 125.291L1.46693 125.649L30.9976 48.5349L30.0638 48.1773ZM30.5985 47.618C30.3524 47.7251 30.1597 47.9267 30.0638 48.1773L30.9976 48.5349V48.5349L30.5985 47.618Z" fill="black"/>
<mask id="path-5-inside-1_1606_36718" fill="white">
<path d="M2.96484 129.088C3.39132 129.261 3.8741 129.325 4.38272 129.244L18.6838 135.022C18.1752 135.103 17.6924 135.039 17.2659 134.866L2.96484 129.088Z"/>
</mask>
<path d="M2.96484 129.088C3.39132 129.261 3.8741 129.325 4.38272 129.244L18.6838 135.022C18.1752 135.103 17.6924 135.039 17.2659 134.866L2.96484 129.088Z" fill="black"/>
<path d="M4.38272 129.244L4.75732 128.317C4.58892 128.249 4.40516 128.228 4.22577 128.257L4.38272 129.244ZM2.96484 129.088L3.33932 128.161C2.82724 127.954 2.24447 128.202 2.03763 128.714C1.83079 129.226 2.07819 129.809 2.59024 130.016L2.96484 129.088ZM17.2659 134.866L16.8913 135.794L16.8914 135.794L17.2659 134.866ZM18.6838 135.022L18.8407 136.01C19.2844 135.939 19.6266 135.582 19.6774 135.135C19.7281 134.689 19.4749 134.263 19.0584 134.095L18.6838 135.022ZM4.22577 128.257C3.89963 128.308 3.6004 128.267 3.33932 128.161L2.59037 130.016C3.18224 130.255 3.84856 130.342 4.53966 130.232L4.22577 128.257ZM2.59024 130.016L16.8913 135.794L17.6405 133.939L3.33945 128.161L2.59024 130.016ZM16.8914 135.794C17.4833 136.033 18.1496 136.12 18.8407 136.01L18.5268 134.035C18.2007 134.086 17.9015 134.045 17.6404 133.939L16.8914 135.794ZM19.0584 134.095L4.75732 128.317L4.00811 130.171L18.3092 135.949L19.0584 134.095Z" fill="black" mask="url(#path-5-inside-1_1606_36718)"/>
<mask id="path-7-inside-2_1606_36718" fill="white">
<path d="M39.5346 47.1757C38.9709 46.4806 38.281 45.9885 37.5371 45.6877L51.8382 51.4657C52.5821 51.7665 53.2719 52.2586 53.8357 52.9537L39.5346 47.1757Z"/>
</mask>
<path d="M39.5346 47.1757C38.9709 46.4806 38.281 45.9885 37.5371 45.6877L51.8382 51.4657C52.5821 51.7665 53.2719 52.2586 53.8357 52.9537L39.5346 47.1757Z" fill="black"/>
<path d="M37.5371 45.6877L37.9117 44.7606C37.3997 44.5537 36.8169 44.801 36.61 45.313C36.403 45.8251 36.6503 46.4079 37.1623 46.6149L37.5371 45.6877ZM39.5346 47.1757L38.758 47.8056C38.8647 47.9372 39.003 48.0394 39.16 48.1029L39.5346 47.1757ZM53.8357 52.9537L53.4611 53.8809C53.8839 54.0517 54.3687 53.9149 54.6398 53.5482C54.9109 53.1815 54.8996 52.6779 54.6123 52.3238L53.8357 52.9537ZM51.8382 51.4657L52.213 50.5386L52.2128 50.5386L51.8382 51.4657ZM37.1623 46.6149C37.7515 46.853 38.3024 47.2439 38.758 47.8056L40.3113 46.5457C39.6394 45.7174 38.8106 45.1239 37.9119 44.7606L37.1623 46.6149ZM39.16 48.1029L53.4611 53.8809L54.2103 52.0265L39.9092 46.2485L39.16 48.1029ZM54.6123 52.3238C53.9404 51.4954 53.1116 50.9019 52.213 50.5386L51.4634 52.3929C52.0526 52.631 52.6034 53.0219 53.0591 53.5836L54.6123 52.3238ZM52.2128 50.5386L37.9117 44.7606L37.1625 46.6149L51.4636 52.3929L52.2128 50.5386Z" fill="black" mask="url(#path-7-inside-2_1606_36718)"/>
<path d="M49.0306 58.8825L39.5352 47.1758L53.8362 52.9538L63.3317 64.6605L49.0306 58.8825Z" fill="#97BA4A" stroke="black" stroke-linejoin="round"/>
<path d="M128.391 8.61695L63.2388 64.0835L49.9839 58.7282L115.136 3.26162L128.391 8.61695Z" fill="black" stroke="black" stroke-linejoin="round"/>
<path d="M126.934 1.34003L136.685 5.27998C134.08 5.32539 131.47 6.1811 129.26 7.88995L116.049 2.5523C119.32 0.278804 123.426 -0.0761573 126.933 1.33999C126.934 1.34 126.934 1.34002 126.934 1.34003Z" fill="black" stroke="black" stroke-linejoin="round"/>
<path d="M89.0226 108.188L79.5273 96.4817L93.8284 102.26L103.324 113.966L89.0226 108.188Z" fill="#97BA4A" stroke="black" stroke-linejoin="round"/>
<path fill-rule="evenodd" clip-rule="evenodd" d="M127.126 0.878528C128.95 1.61578 130.618 2.81199 131.944 4.4478L131.946 4.44834L147.301 23.3806L161.602 29.1586L146.246 10.2258L146.245 10.2252C144.917 8.5882 143.248 7.39147 141.422 6.65447L127.126 0.878528ZM145.537 40.2837C150.692 36.1027 151.481 28.5353 147.3 23.3806L161.601 29.1586C165.782 34.3133 164.993 41.8807 159.838 46.0617L145.537 40.2837Z" fill="#97BA4A"/>
<path d="M131.944 4.4478L131.556 4.76277C131.609 4.82854 131.679 4.87968 131.757 4.9114L131.944 4.4478ZM127.126 0.878528L127.314 0.414936C127.057 0.3115 126.766 0.435169 126.663 0.691171C126.559 0.947174 126.683 1.23858 126.939 1.34208L127.126 0.878528ZM131.946 4.44834L132.334 4.13338C132.281 4.0676 132.212 4.01646 132.133 3.98474L131.946 4.44834ZM147.301 23.3806L146.913 23.6955C146.966 23.7613 147.035 23.8125 147.114 23.8442L147.301 23.3806ZM161.602 29.1586L161.415 29.6222C161.626 29.7076 161.869 29.6392 162.004 29.4558C162.14 29.2725 162.134 29.0207 161.991 28.8436L161.602 29.1586ZM146.246 10.2258L146.635 9.91083C146.581 9.84506 146.512 9.79391 146.434 9.76219L146.246 10.2258ZM146.245 10.2252L145.857 10.5402C145.91 10.606 145.979 10.6571 146.058 10.6888L146.245 10.2252ZM141.422 6.65447L141.235 7.11806L141.235 7.11811L141.422 6.65447ZM147.3 23.3806L147.488 22.917C147.276 22.8316 147.034 22.9 146.898 23.0833C146.763 23.2667 146.768 23.5185 146.912 23.6956L147.3 23.3806ZM145.537 40.2837L145.222 39.8954C145.085 40.0069 145.016 40.1827 145.043 40.3578C145.069 40.5328 145.186 40.681 145.35 40.7473L145.537 40.2837ZM161.601 29.1586L161.99 28.8436C161.936 28.7779 161.867 28.7267 161.789 28.695L161.601 29.1586ZM159.838 46.0617L159.651 46.5253C159.82 46.5934 160.012 46.5646 160.153 46.45L159.838 46.0617ZM132.333 4.13283C130.951 2.42963 129.214 1.18315 127.314 0.414979L126.939 1.34208C128.686 2.04842 130.284 3.19434 131.556 4.76277L132.333 4.13283ZM132.133 3.98474L132.132 3.9842L131.757 4.9114L131.758 4.91194L132.133 3.98474ZM131.557 4.76331L146.913 23.6955L147.69 23.0656L132.334 4.13338L131.557 4.76331ZM147.114 23.8442L161.415 29.6222L161.79 28.695L147.489 22.917L147.114 23.8442ZM161.991 28.8436L146.635 9.91083L145.858 10.5408L161.214 29.4736L161.991 28.8436ZM146.434 9.76219L146.432 9.76165L146.058 10.6888L146.059 10.6894L146.434 9.76219ZM141.235 7.11811C142.984 7.8242 144.583 8.97063 145.857 10.5402L146.633 9.91026C145.251 8.20577 143.511 6.95874 141.609 6.19084L141.235 7.11811ZM126.939 1.34212L141.235 7.11806L141.609 6.19088L127.314 0.414936L126.939 1.34212ZM146.912 23.6956C150.919 28.6357 150.162 35.8883 145.222 39.8954L145.852 40.672C151.221 36.3171 152.044 28.4348 147.689 23.0656L146.912 23.6956ZM161.789 28.695L147.488 22.917L147.113 23.8442L161.414 29.6222L161.789 28.695ZM160.153 46.45C165.522 42.0951 166.345 34.2128 161.99 28.8436L161.213 29.4736C165.22 34.4138 164.463 41.6663 159.523 45.6734L160.153 46.45ZM145.35 40.7473L159.651 46.5253L160.025 45.5981L145.724 39.8201L145.35 40.7473ZM126.934 1.34006L126.939 1.34212L127.314 0.414936L127.308 0.412873L126.934 1.34006Z" fill="black"/>
<path d="M79.5273 96.4817L145.537 40.2837L159.838 46.0617L93.8284 102.26L79.5273 96.4817Z" fill="#97BA4A" stroke="black" stroke-linejoin="round"/>
</svg>
