<svg width="20" height="20" viewBox="0 0 20 20" fill="none" xmlns="http://www.w3.org/2000/svg">
<path d="M4.3208 11.0543C5.50327 11.207 6.53488 11.6872 7.26531 12.3487C7.41829 12.4873 7.36131 12.9284 7.17817 13.0235C6.30366 13.4778 5.1839 13.6802 4.00143 13.5275C2.81896 13.3748 1.78735 12.8946 1.05692 12.233C0.903939 12.0945 0.960919 11.6534 1.14406 11.5583C2.01857 11.104 3.13833 10.9016 4.3208 11.0543Z" fill="url(#paint0_linear_1812_126504)"/>
<path d="M4.3208 11.0543C5.50327 11.207 6.53488 11.6872 7.26531 12.3487C7.41829 12.4873 7.36131 12.9284 7.17817 13.0235C6.30366 13.4778 5.1839 13.6802 4.00143 13.5275C2.81896 13.3748 1.78735 12.8946 1.05692 12.233C0.903939 12.0945 0.960919 11.6534 1.14406 11.5583C2.01857 11.104 3.13833 10.9016 4.3208 11.0543Z" fill="url(#paint1_linear_1812_126504)"/>
<path d="M4.45521 9.39823C5.7198 9.94646 6.71191 10.8103 7.31144 11.779C7.43697 11.9818 7.23246 12.4536 6.99858 12.5006C5.88172 12.7252 4.57305 12.5915 3.3085 12.0432C2.04391 11.495 1.0518 10.6312 0.452266 9.6625C0.326737 9.45964 0.531247 8.98791 0.765129 8.94085C1.88199 8.71626 3.19062 8.84999 4.45521 9.39823Z" fill="url(#paint2_linear_1812_126504)"/>
<path d="M4.45521 9.39823C5.7198 9.94646 6.71191 10.8103 7.31144 11.779C7.43697 11.9818 7.23246 12.4536 6.99858 12.5006C5.88172 12.7252 4.57305 12.5915 3.3085 12.0432C2.04391 11.495 1.0518 10.6312 0.452266 9.6625C0.326737 9.45964 0.531247 8.98791 0.765129 8.94085C1.88199 8.71626 3.19062 8.84999 4.45521 9.39823Z" fill="url(#paint3_linear_1812_126504)"/>
<path d="M6.72988 6.74C7.23639 8.02184 7.32718 9.3342 7.06608 10.4431C7.01141 10.6753 6.53321 10.8643 6.33459 10.7322C5.386 10.1012 4.55521 9.08129 4.0487 7.79945C3.54219 6.51761 3.45141 5.20525 3.71251 4.09635C3.76718 3.86412 4.24537 3.67518 4.444 3.80729C5.39259 4.4382 6.22337 5.45812 6.72988 6.74Z" fill="url(#paint4_linear_1812_126504)"/>
<path d="M6.72988 6.74C7.23639 8.02184 7.32718 9.3342 7.06608 10.4431C7.01141 10.6753 6.53321 10.8643 6.33459 10.7322C5.386 10.1012 4.55521 9.08129 4.0487 7.79945C3.54219 6.51761 3.45141 5.20525 3.71251 4.09635C3.76718 3.86412 4.24537 3.67518 4.444 3.80729C5.39259 4.4382 6.22337 5.45812 6.72988 6.74Z" fill="url(#paint5_linear_1812_126504)"/>
<path d="M4.88787 6.78861C6.17728 7.94782 7.01568 9.37461 7.34376 10.7697C7.41246 11.0619 6.98003 11.5429 6.68223 11.5055C5.26019 11.3272 3.75258 10.6449 2.46317 9.48562C1.17375 8.32641 0.335363 6.89962 0.00728412 5.50453C-0.0614218 5.21237 0.37101 4.73135 0.668814 4.76868C2.09081 4.947 3.59846 5.62939 4.88787 6.78861Z" fill="url(#paint6_linear_1812_126504)"/>
<path d="M0.59375 7.08932C1.03238 7.94332 1.65873 8.76583 2.45897 9.48528C3.74838 10.6445 5.25599 11.3269 6.67803 11.5052C6.97583 11.5425 7.40826 11.0616 7.33955 10.7694C7.01148 9.37426 6.17308 7.94747 4.88367 6.78826C4.12442 6.10563 3.28944 5.58857 2.44089 5.24222L0.59375 7.08932Z" fill="url(#paint7_linear_1812_126504)"/>
<path d="M15.6811 11.0542C14.4986 11.2069 13.467 11.6871 12.7366 12.3487C12.5836 12.4873 12.6406 12.9284 12.8237 13.0235C13.6983 13.4778 14.818 13.6802 16.0005 13.5275C17.183 13.3748 18.2146 12.8946 18.945 12.233C19.098 12.0945 19.041 11.6534 18.8579 11.5582C17.9834 11.1039 16.8636 10.9015 15.6811 11.0542Z" fill="url(#paint8_linear_1812_126504)"/>
<path d="M15.6811 11.0542C14.4986 11.2069 13.467 11.6871 12.7366 12.3487C12.5836 12.4873 12.6406 12.9284 12.8237 13.0235C13.6983 13.4778 14.818 13.6802 16.0005 13.5275C17.183 13.3748 18.2146 12.8946 18.945 12.233C19.098 12.0945 19.041 11.6534 18.8579 11.5582C17.9834 11.1039 16.8636 10.9015 15.6811 11.0542Z" fill="url(#paint9_linear_1812_126504)"/>
<path d="M15.5429 9.39814C14.2783 9.94637 13.2862 10.8102 12.6866 11.7789C12.5611 11.9817 12.7656 12.4535 12.9995 12.5005C14.1164 12.7252 15.425 12.5914 16.6896 12.0432C17.9542 11.4949 18.9463 10.6312 19.5458 9.66241C19.6713 9.45955 19.4668 8.98782 19.233 8.94076C18.1161 8.71617 16.8075 8.8499 15.5429 9.39814Z" fill="url(#paint10_linear_1812_126504)"/>
<path d="M15.5429 9.39814C14.2783 9.94637 13.2862 10.8102 12.6866 11.7789C12.5611 11.9817 12.7656 12.4535 12.9995 12.5005C14.1164 12.7252 15.425 12.5914 16.6896 12.0432C17.9542 11.4949 18.9463 10.6312 19.5458 9.66241C19.6713 9.45955 19.4668 8.98782 19.233 8.94076C18.1161 8.71617 16.8075 8.8499 15.5429 9.39814Z" fill="url(#paint11_linear_1812_126504)"/>
<path d="M13.2675 6.73997C12.7609 8.02181 12.6702 9.33417 12.9313 10.4431C12.9859 10.6753 13.4641 10.8642 13.6627 10.7321C14.6113 10.1012 15.4421 9.08126 15.9486 7.79942C16.4551 6.51758 16.5459 5.20522 16.2848 4.09632C16.2302 3.86409 15.752 3.67515 15.5533 3.80726C14.6047 4.43816 13.774 5.45809 13.2675 6.73997Z" fill="url(#paint12_linear_1812_126504)"/>
<path d="M13.2675 6.73997C12.7609 8.02181 12.6702 9.33417 12.9313 10.4431C12.9859 10.6753 13.4641 10.8642 13.6627 10.7321C14.6113 10.1012 15.4421 9.08126 15.9486 7.79942C16.4551 6.51758 16.5459 5.20522 16.2848 4.09632C16.2302 3.86409 15.752 3.67515 15.5533 3.80726C14.6047 4.43816 13.774 5.45809 13.2675 6.73997Z" fill="url(#paint13_linear_1812_126504)"/>
<path d="M15.1116 6.78857C13.8222 7.94779 12.9838 9.37457 12.6557 10.7697C12.587 11.0618 13.0194 11.5428 13.3173 11.5055C14.7393 11.3272 16.2469 10.6448 17.5363 9.48559C18.8257 8.32638 19.6641 6.89959 19.9922 5.5045C20.0609 5.21234 19.6285 4.73132 19.3307 4.76865C17.9087 4.94697 16.401 5.62936 15.1116 6.78857Z" fill="url(#paint14_linear_1812_126504)"/>
<path d="M19.4015 7.08926C18.9629 7.94326 18.3365 8.76576 17.5363 9.48522C16.2469 10.6444 14.7393 11.3268 13.3173 11.5051C13.0194 11.5425 12.587 11.0615 12.6557 10.7693C12.9838 9.3742 13.8222 7.94741 15.1116 6.7882C15.8709 6.10557 16.7058 5.58851 17.5544 5.24216L19.4015 7.08926Z" fill="url(#paint15_linear_1812_126504)"/>
<path d="M10.0019 16.2363C13.4462 16.2363 16.2383 13.4442 16.2383 9.99999C16.2383 6.55576 13.4462 3.76367 10.0019 3.76367C6.55772 3.76367 3.76562 6.55576 3.76562 9.99999C3.76562 13.4442 6.55772 16.2363 10.0019 16.2363Z" fill="url(#paint16_linear_1812_126504)"/>
<path d="M10.002 14.9708C12.7473 14.9708 14.9728 12.7453 14.9728 9.99999C14.9728 7.2547 12.7473 5.02921 10.002 5.02921C7.25675 5.02921 5.03125 7.2547 5.03125 9.99999C5.03125 12.7453 7.25675 14.9708 10.002 14.9708Z" fill="url(#paint17_linear_1812_126504)"/>
<path d="M10.0018 14.2674C12.3587 14.2674 14.2693 12.3568 14.2693 9.99999C14.2693 7.64315 12.3587 5.73254 10.0018 5.73254C7.64498 5.73254 5.73438 7.64315 5.73438 9.99999C5.73438 12.3568 7.64498 14.2674 10.0018 14.2674Z" fill="url(#paint18_linear_1812_126504)"/>
<path d="M3.76562 9.99997C3.76562 13.4442 6.5577 16.2363 10.0019 16.2363C13.4462 16.2363 16.2383 13.4442 16.2383 9.99997C16.2383 9.97578 16.2376 9.95174 16.2374 9.92758H3.76653C3.76625 9.95174 3.76562 9.97578 3.76562 9.99997Z" fill="url(#paint19_linear_1812_126504)"/>
<path d="M11.7455 15.9877C13.7105 15.4146 15.2742 13.9007 15.9163 11.9661L12.8789 8.92873L12.1942 8.96234L10.3461 7.11426L8.09375 12.336L11.7455 15.9877Z" fill="url(#paint20_linear_1812_126504)"/>
<path d="M12.5523 8.64483L11.3293 8.34934C11.2155 8.32185 11.1161 8.25287 11.0505 8.15592L10.3455 7.11377C10.2602 6.98773 10.1295 6.92008 9.9951 6.90918C9.86067 6.92008 9.73 6.98773 9.64475 7.11377L8.93973 8.15592C8.87416 8.25287 8.77475 8.32185 8.66094 8.34934L7.43792 8.64483C7.10616 8.72498 6.96792 9.12094 7.17765 9.3902L7.95094 10.3827C8.02286 10.4751 8.05777 10.5909 8.04875 10.7077L7.95184 11.9621C7.92557 12.3024 8.25941 12.5563 8.58032 12.44L9.76326 12.0113C9.838 11.9842 9.91773 11.9772 9.9951 11.9892C10.0725 11.9772 10.1522 11.9842 10.2269 12.0113L11.4099 12.44C11.7307 12.5562 12.0646 12.3024 12.0384 11.9621L11.9415 10.7077C11.9324 10.5909 11.9673 10.4751 12.0393 10.3827L12.8126 9.3902C13.0223 9.12094 12.884 8.72498 12.5523 8.64483Z" fill="url(#paint21_linear_1812_126504)"/>
<path d="M10.224 12.0113L11.407 12.44C11.7278 12.5562 12.0617 12.3024 12.0354 11.9621L11.9385 10.7077C11.9295 10.5909 11.9644 10.4751 12.0363 10.3827L12.8096 9.3902C13.0194 9.12098 12.8811 8.72498 12.5494 8.64483L11.3263 8.34934C11.2126 8.32185 11.1132 8.25287 11.0476 8.15592L10.3425 7.11377C10.2572 6.98773 10.1266 6.92008 9.99219 6.90918V11.9892C10.0696 11.9772 10.1493 11.9842 10.224 12.0113Z" fill="url(#paint22_linear_1812_126504)"/>
<path d="M12.5529 8.6447L11.3299 8.3492C11.2881 8.33913 11.2484 8.32332 11.2115 8.30273L8.09375 12.3354C8.21606 12.4536 8.40057 12.5052 8.58097 12.4399L9.76391 12.0112C9.83865 11.9841 9.91838 11.9771 9.99575 11.9891C10.0732 11.9771 10.1528 11.9841 10.2276 12.0112L11.4105 12.4399C11.7314 12.5561 12.0653 12.3023 12.039 11.962L11.9421 10.7076C11.9331 10.5909 11.968 10.475 12.0399 10.3827L12.8132 9.39011C13.0229 9.12081 12.8847 8.72485 12.5529 8.6447Z" fill="url(#paint23_linear_1812_126504)"/>
<path d="M7.43792 8.64482L8.66094 8.34933C8.70271 8.33925 8.74247 8.32344 8.77937 8.30286L11.8971 12.3355C11.7748 12.4537 11.5903 12.5054 11.4099 12.44L10.2269 12.0113C10.1522 11.9842 10.0725 11.9772 9.9951 11.9892C9.91769 11.9772 9.838 11.9842 9.76326 12.0113L8.58032 12.44C8.25945 12.5563 7.92557 12.3024 7.95184 11.9621L8.04875 10.7077C8.05777 10.591 8.02286 10.4751 7.95094 10.3828L7.17765 9.39023C6.96792 9.12093 7.10616 8.72497 7.43792 8.64482Z" fill="url(#paint24_linear_1812_126504)"/>
<path d="M7.1119 8.92871C7.05374 9.07538 7.0677 9.25016 7.17715 9.39067L7.95045 10.3832C8.02237 10.4756 8.05727 10.5914 8.04825 10.7081L7.95135 11.9626C7.92508 12.3029 8.25892 12.5568 8.57982 12.4404L9.76276 12.0117C9.83751 11.9846 9.91723 11.9777 9.99461 11.9897C10.072 11.9777 10.1517 11.9847 10.2264 12.0117L11.4094 12.4404C11.7303 12.5567 12.0641 12.3029 12.0379 11.9626L11.941 10.7081C11.9359 10.6434 11.9449 10.579 11.9658 10.5187L7.1119 8.92871Z" fill="url(#paint25_linear_1812_126504)"/>
<path d="M12.8805 8.92871C12.9387 9.07538 12.9248 9.25016 12.8153 9.39067L12.042 10.3832C11.9701 10.4756 11.9352 10.5914 11.9442 10.7081L12.0411 11.9626C12.0674 12.3029 11.7335 12.5568 11.4126 12.4404L10.2297 12.0117C10.1549 11.9846 10.0752 11.9777 9.99784 11.9897C9.92042 11.9777 9.84074 11.9847 9.76599 12.0117L8.58305 12.4404C8.26219 12.5567 7.92831 12.3029 7.95458 11.9626L8.05148 10.7081C8.0565 10.6434 8.04752 10.579 8.02666 10.5187L12.8805 8.92871Z" fill="url(#paint26_linear_1812_126504)"/>
<path d="M10.0007 3.76367C9.97486 3.76367 9.94917 3.76434 9.92337 3.76465L8.96094 4.72708L15.9869 11.753C16.1494 11.1968 16.2371 10.6087 16.2371 9.99995C16.2371 6.55575 13.445 3.76367 10.0007 3.76367Z" fill="url(#paint27_linear_1812_126504)"/>
<defs>
<linearGradient id="paint0_linear_1812_126504" x1="2.85421" y1="10.489" x2="4.14833" y2="12.2733" gradientUnits="userSpaceOnUse">
<stop stop-color="#FEF0AE"/>
<stop offset="1" stop-color="#FBC56D"/>
</linearGradient>
<linearGradient id="paint1_linear_1812_126504" x1="2.73637" y1="11.6333" x2="4.77559" y2="12.5745" gradientUnits="userSpaceOnUse">
<stop stop-color="#DC8758" stop-opacity="0"/>
<stop offset="0.9957" stop-color="#DC8758" stop-opacity="0.996"/>
<stop offset="1" stop-color="#DC8758"/>
</linearGradient>
<linearGradient id="paint2_linear_1812_126504" x1="1.52297" y1="8.96783" x2="3.66023" y2="10.5561" gradientUnits="userSpaceOnUse">
<stop stop-color="#FEF0AE"/>
<stop offset="1" stop-color="#FBC56D"/>
</linearGradient>
<linearGradient id="paint3_linear_1812_126504" x1="2.41897" y1="10.7443" x2="4.03987" y2="10.7182" gradientUnits="userSpaceOnUse">
<stop stop-color="#DC8758" stop-opacity="0"/>
<stop offset="0.9957" stop-color="#DC8758" stop-opacity="0.996"/>
<stop offset="1" stop-color="#DC8758"/>
</linearGradient>
<linearGradient id="paint4_linear_1812_126504" x1="5.81439" y1="5.31423" x2="5.32419" y2="7.56914" gradientUnits="userSpaceOnUse">
<stop stop-color="#FEF0AE"/>
<stop offset="1" stop-color="#FBC56D"/>
</linearGradient>
<linearGradient id="paint5_linear_1812_126504" x1="3.69619" y1="5.54133" x2="4.9511" y2="6.82235" gradientUnits="userSpaceOnUse">
<stop stop-color="#DC8758" stop-opacity="0"/>
<stop offset="0.9957" stop-color="#DC8758" stop-opacity="0.996"/>
<stop offset="1" stop-color="#DC8758"/>
</linearGradient>
<linearGradient id="paint6_linear_1812_126504" x1="2.94619" y1="5.85625" x2="4.02462" y2="9.2288" gradientUnits="userSpaceOnUse">
<stop stop-color="#FEF0AE"/>
<stop offset="1" stop-color="#FBC56D"/>
</linearGradient>
<linearGradient id="paint7_linear_1812_126504" x1="3.15924" y1="7.69234" x2="4.54485" y2="8.89496" gradientUnits="userSpaceOnUse">
<stop stop-color="#DC8758" stop-opacity="0"/>
<stop offset="0.9957" stop-color="#DC8758" stop-opacity="0.996"/>
<stop offset="1" stop-color="#DC8758"/>
</linearGradient>
<linearGradient id="paint8_linear_1812_126504" x1="17.1477" y1="10.4889" x2="15.8535" y2="12.2733" gradientUnits="userSpaceOnUse">
<stop stop-color="#FEF0AE"/>
<stop offset="1" stop-color="#FBC56D"/>
</linearGradient>
<linearGradient id="paint9_linear_1812_126504" x1="17.2655" y1="11.6333" x2="15.2263" y2="12.5745" gradientUnits="userSpaceOnUse">
<stop stop-color="#DC8758" stop-opacity="0"/>
<stop offset="0.9957" stop-color="#DC8758" stop-opacity="0.996"/>
<stop offset="1" stop-color="#DC8758"/>
</linearGradient>
<linearGradient id="paint10_linear_1812_126504" x1="18.4751" y1="8.96774" x2="16.3379" y2="10.556" gradientUnits="userSpaceOnUse">
<stop stop-color="#FEF0AE"/>
<stop offset="1" stop-color="#FBC56D"/>
</linearGradient>
<linearGradient id="paint11_linear_1812_126504" x1="17.5791" y1="10.7443" x2="15.9582" y2="10.7181" gradientUnits="userSpaceOnUse">
<stop stop-color="#DC8758" stop-opacity="0"/>
<stop offset="0.9957" stop-color="#DC8758" stop-opacity="0.996"/>
<stop offset="1" stop-color="#DC8758"/>
</linearGradient>
<linearGradient id="paint12_linear_1812_126504" x1="14.1829" y1="5.3142" x2="14.6731" y2="7.56911" gradientUnits="userSpaceOnUse">
<stop stop-color="#FEF0AE"/>
<stop offset="1" stop-color="#FBC56D"/>
</linearGradient>
<linearGradient id="paint13_linear_1812_126504" x1="16.3011" y1="5.5413" x2="15.0462" y2="6.82232" gradientUnits="userSpaceOnUse">
<stop stop-color="#DC8758" stop-opacity="0"/>
<stop offset="0.9957" stop-color="#DC8758" stop-opacity="0.996"/>
<stop offset="1" stop-color="#DC8758"/>
</linearGradient>
<linearGradient id="paint14_linear_1812_126504" x1="17.0533" y1="5.85622" x2="15.9749" y2="9.22877" gradientUnits="userSpaceOnUse">
<stop stop-color="#FEF0AE"/>
<stop offset="1" stop-color="#FBC56D"/>
</linearGradient>
<linearGradient id="paint15_linear_1812_126504" x1="16.836" y1="7.69227" x2="15.4504" y2="8.8949" gradientUnits="userSpaceOnUse">
<stop stop-color="#DC8758" stop-opacity="0"/>
<stop offset="0.9957" stop-color="#DC8758" stop-opacity="0.996"/>
<stop offset="1" stop-color="#DC8758"/>
</linearGradient>
<linearGradient id="paint16_linear_1812_126504" x1="6.157" y1="6.15504" x2="12.7341" y2="12.7321" gradientUnits="userSpaceOnUse">
<stop stop-color="#FEF0AE"/>
<stop offset="1" stop-color="#FBC56D"/>
</linearGradient>
<linearGradient id="paint17_linear_1812_126504" x1="13.2305" y1="13.2285" x2="6.67937" y2="6.67732" gradientUnits="userSpaceOnUse">
<stop stop-color="#FEF0AE"/>
<stop offset="1" stop-color="#FBC56D"/>
</linearGradient>
<linearGradient id="paint18_linear_1812_126504" x1="6.89951" y1="6.89768" x2="12.0061" y2="12.0042" gradientUnits="userSpaceOnUse">
<stop stop-color="#FEF0AE"/>
<stop offset="1" stop-color="#FBC56D"/>
</linearGradient>
<linearGradient id="paint19_linear_1812_126504" x1="10.0019" y1="11.8246" x2="10.0019" y2="15.9179" gradientUnits="userSpaceOnUse">
<stop stop-color="#DC8758" stop-opacity="0"/>
<stop offset="0.9957" stop-color="#DC8758" stop-opacity="0.996"/>
<stop offset="1" stop-color="#DC8758"/>
</linearGradient>
<linearGradient id="paint20_linear_1812_126504" x1="13.7314" y1="13.2415" x2="8.58108" y2="9.99963" gradientUnits="userSpaceOnUse">
<stop stop-color="#DC8758" stop-opacity="0"/>
<stop offset="0.9957" stop-color="#DC8758" stop-opacity="0.996"/>
<stop offset="1" stop-color="#DC8758"/>
</linearGradient>
<linearGradient id="paint21_linear_1812_126504" x1="8.69604" y1="8.81455" x2="11.0386" y2="11.1571" gradientUnits="userSpaceOnUse">
<stop stop-color="#FBC56D"/>
<stop offset="1" stop-color="#C5715A"/>
</linearGradient>
<linearGradient id="paint22_linear_1812_126504" x1="11.3958" y1="9.45326" x2="8.15807" y2="10.7918" gradientUnits="userSpaceOnUse">
<stop stop-color="#8C3D27" stop-opacity="0"/>
<stop offset="1" stop-color="#8C3D27"/>
</linearGradient>
<linearGradient id="paint23_linear_1812_126504" x1="10.554" y1="10.6021" x2="8.7814" y2="9.84242" gradientUnits="userSpaceOnUse">
<stop stop-color="#8C3D27" stop-opacity="0"/>
<stop offset="1" stop-color="#8C3D27"/>
</linearGradient>
<linearGradient id="paint24_linear_1812_126504" x1="9.43683" y1="10.6023" x2="11.2095" y2="9.84254" gradientUnits="userSpaceOnUse">
<stop stop-color="#8C3D27" stop-opacity="0"/>
<stop offset="1" stop-color="#8C3D27"/>
</linearGradient>
<linearGradient id="paint25_linear_1812_126504" x1="9.47574" y1="10.6917" x2="10.6153" y2="8.86024" gradientUnits="userSpaceOnUse">
<stop stop-color="#8C3D27" stop-opacity="0"/>
<stop offset="1" stop-color="#8C3D27"/>
</linearGradient>
<linearGradient id="paint26_linear_1812_126504" x1="10.4289" y1="10.4604" x2="10.3339" y2="8.66965" gradientUnits="userSpaceOnUse">
<stop stop-color="#8C3D27" stop-opacity="0"/>
<stop offset="1" stop-color="#8C3D27"/>
</linearGradient>
<linearGradient id="paint27_linear_1812_126504" x1="13.0738" y1="7.3654" x2="10.6686" y2="3.15626" gradientUnits="userSpaceOnUse">
<stop stop-color="#DC8758" stop-opacity="0"/>
<stop offset="0.9957" stop-color="#DC8758" stop-opacity="0.996"/>
<stop offset="1" stop-color="#DC8758"/>
</linearGradient>
</defs>
</svg>
