<svg width="36" height="36" viewBox="0 0 36 36" fill="none" xmlns="http://www.w3.org/2000/svg">
<path d="M7.77588 19.8976C9.90433 20.1725 11.7612 21.0368 13.076 22.2276C13.3514 22.477 13.2488 23.271 12.9192 23.4423C11.345 24.26 9.32946 24.6243 7.20101 24.3495C5.07256 24.0746 3.21567 23.2102 1.90089 22.0194C1.62553 21.77 1.72809 20.976 2.05774 20.8048C3.63186 19.987 5.64743 19.6227 7.77588 19.8976Z" fill="url(#paint0_linear_3016_67792)"/>
<path d="M7.77588 19.8976C9.90433 20.1725 11.7612 21.0368 13.076 22.2276C13.3514 22.477 13.2488 23.271 12.9192 23.4423C11.345 24.26 9.32946 24.6243 7.20101 24.3495C5.07256 24.0746 3.21567 23.2102 1.90089 22.0194C1.62553 21.77 1.72809 20.976 2.05774 20.8048C3.63186 19.987 5.64743 19.6227 7.77588 19.8976Z" fill="url(#paint1_linear_3016_67792)"/>
<path d="M8.02015 16.9171C10.2964 17.9039 12.0822 19.4588 13.1614 21.2024C13.3873 21.5676 13.0192 22.4167 12.5982 22.5014C10.5879 22.9057 8.23227 22.665 5.95608 21.6781C3.67983 20.6913 1.89401 19.1365 0.814861 17.3928C0.588908 17.0276 0.957026 16.1785 1.37801 16.0938C3.38837 15.6896 5.7439 15.9303 8.02015 16.9171Z" fill="url(#paint2_linear_3016_67792)"/>
<path d="M8.02015 16.9171C10.2964 17.9039 12.0822 19.4588 13.1614 21.2024C13.3873 21.5676 13.0192 22.4167 12.5982 22.5014C10.5879 22.9057 8.23227 22.665 5.95608 21.6781C3.67983 20.6913 1.89401 19.1365 0.814861 17.3928C0.588908 17.0276 0.957026 16.1785 1.37801 16.0938C3.38837 15.6896 5.7439 15.9303 8.02015 16.9171Z" fill="url(#paint3_linear_3016_67792)"/>
<path d="M12.1228 12.132C13.0345 14.4393 13.1979 16.8016 12.7279 18.7976C12.6295 19.2156 11.7688 19.5557 11.4112 19.3179C9.70378 18.1822 8.20837 16.3464 7.29665 14.039C6.38493 11.7317 6.22152 9.36949 6.6915 7.37347C6.7899 6.95544 7.65065 6.61535 8.00818 6.85316C9.71564 7.98878 11.2111 9.82464 12.1228 12.132Z" fill="url(#paint4_linear_3016_67792)"/>
<path d="M12.1228 12.132C13.0345 14.4393 13.1979 16.8016 12.7279 18.7976C12.6295 19.2156 11.7688 19.5557 11.4112 19.3179C9.70378 18.1822 8.20837 16.3464 7.29665 14.039C6.38493 11.7317 6.22152 9.36949 6.6915 7.37347C6.7899 6.95544 7.65065 6.61535 8.00818 6.85316C9.71564 7.98878 11.2111 9.82464 12.1228 12.132Z" fill="url(#paint5_linear_3016_67792)"/>
<path d="M8.79817 12.22C11.1191 14.3066 12.6282 16.8748 13.2188 19.386C13.3424 19.9119 12.5641 20.7777 12.028 20.7105C9.46833 20.3895 6.75464 19.1613 4.4337 17.0746C2.11276 14.988 0.603653 12.4198 0.0131114 9.90865C-0.110559 9.38277 0.667817 8.51694 1.20386 8.58414C3.76346 8.9051 6.47723 10.1334 8.79817 12.22Z" fill="url(#paint6_linear_3016_67792)"/>
<path d="M1.07422 12.7607C1.86375 14.2979 2.99118 15.7784 4.43161 17.0734C6.75255 19.16 9.46624 20.3883 12.0259 20.7093C12.562 20.7765 13.3403 19.9107 13.2167 19.3848C12.6261 16.8736 11.117 14.3054 8.79608 12.2188C7.42942 10.9901 5.92645 10.0593 4.39907 9.43591L1.07422 12.7607Z" fill="url(#paint7_linear_3016_67792)"/>
<path d="M28.2225 19.8976C26.094 20.1725 24.2372 21.0368 22.9224 22.2276C22.647 22.477 22.7496 23.271 23.0792 23.4422C24.6533 24.26 26.6689 24.6243 28.7974 24.3495C30.9258 24.0746 32.7827 23.2102 34.0975 22.0194C34.3728 21.77 34.2703 20.976 33.9406 20.8048C32.3665 19.987 30.3509 19.6227 28.2225 19.8976Z" fill="url(#paint8_linear_3016_67792)"/>
<path d="M28.2225 19.8976C26.094 20.1725 24.2372 21.0368 22.9224 22.2276C22.647 22.477 22.7496 23.271 23.0792 23.4422C24.6533 24.26 26.6689 24.6243 28.7974 24.3495C30.9258 24.0746 32.7827 23.2102 34.0975 22.0194C34.3728 21.77 34.2703 20.976 33.9406 20.8048C32.3665 19.987 30.3509 19.6227 28.2225 19.8976Z" fill="url(#paint9_linear_3016_67792)"/>
<path d="M27.9737 16.9171C25.6974 17.9039 23.9116 19.4588 22.8324 21.2024C22.6065 21.5676 22.9746 22.4167 23.3956 22.5014C25.4059 22.9057 27.7615 22.665 30.0377 21.6781C32.314 20.6913 34.0998 19.1365 35.179 17.3928C35.4049 17.0276 35.0368 16.1785 34.6158 16.0938C32.6055 15.6896 30.2499 15.9303 27.9737 16.9171Z" fill="url(#paint10_linear_3016_67792)"/>
<path d="M27.9737 16.9171C25.6974 17.9039 23.9116 19.4588 22.8324 21.2024C22.6065 21.5676 22.9746 22.4167 23.3956 22.5014C25.4059 22.9057 27.7615 22.665 30.0377 21.6781C32.314 20.6913 34.0998 19.1365 35.179 17.3928C35.4049 17.0276 35.0368 16.1785 34.6158 16.0938C32.6055 15.6896 30.2499 15.9303 27.9737 16.9171Z" fill="url(#paint11_linear_3016_67792)"/>
<path d="M23.8767 12.132C22.965 14.4393 22.8016 16.8016 23.2716 18.7976C23.37 19.2156 24.2307 19.5557 24.5883 19.3179C26.2957 18.1822 27.7911 16.3463 28.7028 14.039C29.6146 11.7317 29.778 9.36947 29.308 7.37345C29.2096 6.95543 28.3488 6.61533 27.9913 6.85314C26.2839 7.98877 24.7884 9.82463 23.8767 12.132Z" fill="url(#paint12_linear_3016_67792)"/>
<path d="M23.8767 12.132C22.965 14.4393 22.8016 16.8016 23.2716 18.7976C23.37 19.2156 24.2307 19.5557 24.5883 19.3179C26.2957 18.1822 27.7911 16.3463 28.7028 14.039C29.6146 11.7317 29.778 9.36947 29.308 7.37345C29.2096 6.95543 28.3488 6.61533 27.9913 6.85314C26.2839 7.98877 24.7884 9.82463 23.8767 12.132Z" fill="url(#paint13_linear_3016_67792)"/>
<path d="M27.1974 12.22C24.8764 14.3066 23.3673 16.8748 22.7768 19.386C22.6531 19.9118 23.4315 20.7777 23.9675 20.7105C26.5272 20.3895 29.2409 19.1613 31.5618 17.0746C33.8828 14.988 35.3919 12.4198 35.9824 9.90865C36.1061 9.38276 35.3277 8.51693 34.7917 8.58413C32.2321 8.90509 29.5183 10.1334 27.1974 12.22Z" fill="url(#paint14_linear_3016_67792)"/>
<path d="M34.9192 12.7607C34.1297 14.2979 33.0023 15.7784 31.5618 17.0734C29.2409 19.16 26.5272 20.3883 23.9675 20.7093C23.4315 20.7765 22.6531 19.9107 22.7768 19.3848C23.3673 16.8736 24.8764 14.3054 27.1974 12.2188C28.564 10.99 30.067 10.0593 31.5944 9.43591L34.9192 12.7607Z" fill="url(#paint15_linear_3016_67792)"/>
<path d="M17.9988 29.2254C24.1984 29.2254 29.2242 24.1996 29.2242 18C29.2242 11.8004 24.1984 6.77468 17.9988 6.77468C11.7992 6.77468 6.77344 11.8004 6.77344 18C6.77344 24.1996 11.7992 29.2254 17.9988 29.2254Z" fill="url(#paint16_linear_3016_67792)"/>
<path d="M18.0001 26.9483C22.9417 26.9483 26.9476 22.9424 26.9476 18.0009C26.9476 13.0593 22.9417 9.05344 18.0001 9.05344C13.0586 9.05344 9.05273 13.0593 9.05273 18.0009C9.05273 22.9424 13.0586 26.9483 18.0001 26.9483Z" fill="url(#paint17_linear_3016_67792)"/>
<path d="M17.9998 25.6819C22.2421 25.6819 25.6812 22.2428 25.6812 18.0005C25.6812 13.7582 22.2421 10.3191 17.9998 10.3191C13.7574 10.3191 10.3184 13.7582 10.3184 18.0005C10.3184 22.2428 13.7574 25.6819 17.9998 25.6819Z" fill="url(#paint18_linear_3016_67792)"/>
<path d="M6.77344 18.0005C6.77344 24.2001 11.7992 29.2259 17.9988 29.2259C24.1984 29.2259 29.2242 24.2001 29.2242 18.0005C29.2242 17.957 29.223 17.9137 29.2225 17.8702H6.77506C6.77457 17.9137 6.77344 17.957 6.77344 18.0005Z" fill="url(#paint19_linear_3016_67792)"/>
<path d="M21.1473 28.7767C24.6844 27.7451 27.4991 25.0201 28.6548 21.5377L23.1875 16.0705L21.955 16.131L18.6285 12.8044L14.5742 22.2036L21.1473 28.7767Z" fill="url(#paint20_linear_3016_67792)"/>
<path d="M22.6035 15.5613L20.402 15.0294C20.1973 14.9799 20.0183 14.8558 19.9002 14.6813L18.6312 12.8054C18.4777 12.5785 18.2425 12.4568 18.0006 12.4371C17.7586 12.4568 17.5234 12.5785 17.3699 12.8054L16.1009 14.6813C15.9829 14.8558 15.8039 14.9799 15.5991 15.0294L13.3976 15.5613C12.8005 15.7056 12.5516 16.4183 12.9291 16.903L14.3211 18.6896C14.4505 18.8558 14.5134 19.0643 14.4971 19.2744L14.3227 21.5324C14.2754 22.1449 14.8763 22.6019 15.4539 22.3926L17.5832 21.6209C17.7178 21.5721 17.8613 21.5596 18.0006 21.5812C18.1399 21.5596 18.2833 21.5722 18.4179 21.6209L20.5472 22.3926C21.1247 22.6019 21.7257 22.1449 21.6784 21.5324L21.504 19.2744C21.4878 19.0643 21.5506 18.8558 21.68 18.6896L23.072 16.903C23.4495 16.4183 23.2006 15.7056 22.6035 15.5613Z" fill="url(#paint21_linear_3016_67792)"/>
<path d="M18.4212 21.6209L20.5505 22.3926C21.1281 22.6019 21.7291 22.1449 21.6818 21.5324L21.5073 19.2744C21.4911 19.0643 21.5539 18.8558 21.6834 18.6896L23.0753 16.903C23.4529 16.4184 23.204 15.7056 22.6068 15.5613L20.4054 15.0294C20.2006 14.9799 20.0217 14.8558 19.9036 14.6813L18.6345 12.8054C18.481 12.5785 18.2459 12.4568 18.0039 12.4371V21.5812C18.1432 21.5596 18.2868 21.5721 18.4212 21.6209Z" fill="url(#paint22_linear_3016_67792)"/>
<path d="M22.6046 15.5616L20.4032 15.0297C20.328 15.0115 20.2565 14.9831 20.19 14.946L14.5781 22.2048C14.7983 22.4176 15.1304 22.5105 15.4551 22.3929L17.5844 21.6212C17.7189 21.5724 17.8625 21.5599 18.0017 21.5815C18.1411 21.5599 18.2845 21.5725 18.419 21.6212L20.5483 22.3929C21.1259 22.6022 21.7269 22.1453 21.6796 21.5328L21.5052 19.2747C21.4889 19.0646 21.5518 18.8561 21.6812 18.6899L23.0731 16.9033C23.4506 16.4186 23.2018 15.7058 22.6046 15.5616Z" fill="url(#paint23_linear_3016_67792)"/>
<path d="M13.3976 15.5616L15.5991 15.0297C15.6742 15.0115 15.7458 14.9831 15.8122 14.946L21.4242 22.2048C21.204 22.4176 20.8719 22.5105 20.5472 22.3929L18.4179 21.6212C18.2833 21.5724 18.1398 21.5599 18.0006 21.5815C17.8612 21.5599 17.7178 21.5725 17.5832 21.6212L15.4539 22.3929C14.8764 22.6022 14.2754 22.1453 14.3227 21.5328L14.4971 19.2747C14.5134 19.0646 14.4505 18.8561 14.3211 18.6899L12.9291 16.9033C12.5516 16.4186 12.8005 15.7058 13.3976 15.5616Z" fill="url(#paint24_linear_3016_67792)"/>
<path d="M12.8108 16.071C12.7061 16.335 12.7312 16.6496 12.9283 16.9026L14.3202 18.6891C14.4496 18.8554 14.5125 19.0639 14.4962 19.274L14.3218 21.532C14.2745 22.1445 14.8754 22.6015 15.4531 22.3921L17.5823 21.6205C17.7169 21.5717 17.8604 21.5591 17.9997 21.5807C18.139 21.5592 18.2824 21.5718 18.417 21.6205L20.5463 22.3921C21.1238 22.6014 21.7248 22.1445 21.6775 21.532L21.5031 19.274C21.4941 19.1574 21.5102 19.0416 21.5478 18.933L12.8108 16.071Z" fill="url(#paint25_linear_3016_67792)"/>
<path d="M23.1877 16.071C23.2924 16.335 23.2673 16.6496 23.0703 16.9026L21.6783 18.6891C21.5489 18.8554 21.486 19.0639 21.5023 19.274L21.6767 21.532C21.724 22.1445 21.123 22.6015 20.5455 22.3921L18.4162 21.6205C18.2816 21.5717 18.1381 21.5591 17.9988 21.5807C17.8595 21.5592 17.7161 21.5718 17.5815 21.6205L15.4522 22.3921C14.8747 22.6014 14.2737 22.1445 14.321 21.532L14.4954 19.274C14.5044 19.1574 14.4883 19.0416 14.4507 18.933L23.1877 16.071Z" fill="url(#paint26_linear_3016_67792)"/>
<path d="M18.0006 6.7746C17.954 6.7746 17.9077 6.7758 17.8613 6.77636L16.1289 8.50874L28.7756 21.1554C29.0682 20.1543 29.2259 19.0956 29.2259 17.9999C29.2259 11.8003 24.2002 6.7746 18.0006 6.7746Z" fill="url(#paint27_linear_3016_67792)"/>
<defs>
<linearGradient id="paint0_linear_3016_67792" x1="5.13602" y1="18.8801" x2="7.46543" y2="22.0918" gradientUnits="userSpaceOnUse">
<stop stop-color="#FEF0AE"/>
<stop offset="1" stop-color="#FBC56D"/>
</linearGradient>
<linearGradient id="paint1_linear_3016_67792" x1="3.73214" y1="21.5667" x2="7.48627" y2="25.5859" gradientUnits="userSpaceOnUse">
<stop stop-color="#FFDFCF"/>
<stop offset="1" stop-color="#FFA78F"/>
</linearGradient>
<linearGradient id="paint2_linear_3016_67792" x1="2.74213" y1="16.1424" x2="6.58919" y2="19.0012" gradientUnits="userSpaceOnUse">
<stop stop-color="#FEF0AE"/>
<stop offset="1" stop-color="#FBC56D"/>
</linearGradient>
<linearGradient id="paint3_linear_3016_67792" x1="7.65293" y1="19.0444" x2="3.07688" y2="14.596" gradientUnits="userSpaceOnUse">
<stop stop-color="#FFA78F"/>
<stop offset="1" stop-color="#FFDFCF"/>
</linearGradient>
<linearGradient id="paint4_linear_3016_67792" x1="10.4749" y1="9.56565" x2="9.59253" y2="13.6245" gradientUnits="userSpaceOnUse">
<stop stop-color="#FEF0AE"/>
<stop offset="1" stop-color="#FBC56D"/>
</linearGradient>
<linearGradient id="paint5_linear_3016_67792" x1="11.4208" y1="13.0855" x2="12.0152" y2="8.01962" gradientUnits="userSpaceOnUse">
<stop stop-color="#FFA78F"/>
<stop offset="1" stop-color="#FFDFCF"/>
</linearGradient>
<linearGradient id="paint6_linear_3016_67792" x1="10.0735" y1="14.6473" x2="6.79385" y2="14.3234" gradientUnits="userSpaceOnUse">
<stop stop-color="#FFA78F"/>
<stop offset="1" stop-color="#FFDFCF"/>
</linearGradient>
<linearGradient id="paint7_linear_3016_67792" x1="8.29295" y1="14.0792" x2="4.83869" y2="9.68541" gradientUnits="userSpaceOnUse">
<stop stop-color="#FF8F71"/>
<stop offset="1" stop-color="#FFDFCF"/>
</linearGradient>
<linearGradient id="paint8_linear_3016_67792" x1="30.8623" y1="18.8801" x2="28.5329" y2="22.0918" gradientUnits="userSpaceOnUse">
<stop stop-color="#FEF0AE"/>
<stop offset="1" stop-color="#FBC56D"/>
</linearGradient>
<linearGradient id="paint9_linear_3016_67792" x1="31.513" y1="22.1235" x2="28.7748" y2="21.5084" gradientUnits="userSpaceOnUse">
<stop stop-color="#FFDFCF"/>
<stop offset="1" stop-color="#FFA78F"/>
</linearGradient>
<linearGradient id="paint10_linear_3016_67792" x1="33.2517" y1="16.1424" x2="29.4046" y2="19.0012" gradientUnits="userSpaceOnUse">
<stop stop-color="#FEF0AE"/>
<stop offset="1" stop-color="#FBC56D"/>
</linearGradient>
<linearGradient id="paint11_linear_3016_67792" x1="33.8752" y1="17.7231" x2="29.2211" y2="17.6523" gradientUnits="userSpaceOnUse">
<stop stop-color="#FFDFCF"/>
<stop offset="1" stop-color="#FFA78F"/>
</linearGradient>
<linearGradient id="paint12_linear_3016_67792" x1="25.5246" y1="9.56564" x2="26.407" y2="13.6245" gradientUnits="userSpaceOnUse">
<stop stop-color="#FEF0AE"/>
<stop offset="1" stop-color="#FBC56D"/>
</linearGradient>
<linearGradient id="paint13_linear_3016_67792" x1="28.376" y1="8.74514" x2="26.242" y2="10.3667" gradientUnits="userSpaceOnUse">
<stop stop-color="#FFDFCF"/>
<stop offset="1" stop-color="#FFA78F"/>
</linearGradient>
<linearGradient id="paint14_linear_3016_67792" x1="31.74" y1="12.1884" x2="27.1197" y2="12.4342" gradientUnits="userSpaceOnUse">
<stop stop-color="#FFDFCF"/>
<stop offset="1" stop-color="#FFA78F"/>
</linearGradient>
<linearGradient id="paint15_linear_3016_67792" x1="32.7141" y1="11.1964" x2="30.9354" y2="14.4677" gradientUnits="userSpaceOnUse">
<stop stop-color="#FFDFCF"/>
<stop offset="1" stop-color="#FF8F71"/>
</linearGradient>
<linearGradient id="paint16_linear_3016_67792" x1="11.1951" y1="11.1964" x2="27.9605" y2="27.9617" gradientUnits="userSpaceOnUse">
<stop stop-color="#FFDFCF"/>
<stop offset="1" stop-color="#FFA78F"/>
</linearGradient>
<linearGradient id="paint17_linear_3016_67792" x1="12.5771" y1="12.5778" x2="25.9403" y2="25.941" gradientUnits="userSpaceOnUse">
<stop stop-color="#FFA78F"/>
<stop offset="1" stop-color="#FFDFCF"/>
</linearGradient>
<linearGradient id="paint18_linear_3016_67792" x1="13.3441" y1="13.3448" x2="24.8165" y2="24.8172" gradientUnits="userSpaceOnUse">
<stop stop-color="#FFDFCF"/>
<stop offset="1" stop-color="#FFA78F"/>
</linearGradient>
<linearGradient id="paint19_linear_3016_67792" x1="17.9988" y1="21.2848" x2="17.9988" y2="28.6528" gradientUnits="userSpaceOnUse">
<stop stop-color="#F99478" stop-opacity="0"/>
<stop offset="0.9957" stop-color="#A95842" stop-opacity="0.996"/>
<stop offset="1" stop-color="#A95842"/>
</linearGradient>
<linearGradient id="paint20_linear_3016_67792" x1="24.7221" y1="23.8334" x2="15.4514" y2="17.9981" gradientUnits="userSpaceOnUse">
<stop stop-color="#F99478" stop-opacity="0"/>
<stop offset="0.9957" stop-color="#F99478" stop-opacity="0.996"/>
<stop offset="1" stop-color="#F99478"/>
</linearGradient>
<linearGradient id="paint21_linear_3016_67792" x1="15.6622" y1="15.8668" x2="19.8789" y2="20.0834" gradientUnits="userSpaceOnUse">
<stop stop-color="#FFDFCF"/>
<stop offset="1" stop-color="#C5715A"/>
</linearGradient>
<linearGradient id="paint22_linear_3016_67792" x1="20.5305" y1="17.0165" x2="14.7025" y2="19.4258" gradientUnits="userSpaceOnUse">
<stop stop-color="#8C3D27" stop-opacity="0"/>
<stop offset="1" stop-color="#8C3D27"/>
</linearGradient>
<linearGradient id="paint23_linear_3016_67792" x1="19.0066" y1="19.085" x2="15.8159" y2="17.7175" gradientUnits="userSpaceOnUse">
<stop stop-color="#8C3D27" stop-opacity="0"/>
<stop offset="1" stop-color="#8C3D27"/>
</linearGradient>
<linearGradient id="paint24_linear_3016_67792" x1="16.9957" y1="19.085" x2="20.1864" y2="17.7175" gradientUnits="userSpaceOnUse">
<stop stop-color="#8C3D27" stop-opacity="0"/>
<stop offset="1" stop-color="#8C3D27"/>
</linearGradient>
<linearGradient id="paint25_linear_3016_67792" x1="17.0657" y1="19.2443" x2="19.1169" y2="15.9478" gradientUnits="userSpaceOnUse">
<stop stop-color="#8C3D27" stop-opacity="0"/>
<stop offset="1" stop-color="#8C3D27"/>
</linearGradient>
<linearGradient id="paint26_linear_3016_67792" x1="18.7747" y1="18.828" x2="18.6038" y2="15.6047" gradientUnits="userSpaceOnUse">
<stop stop-color="#8C3D27" stop-opacity="0"/>
<stop offset="1" stop-color="#8C3D27"/>
</linearGradient>
<linearGradient id="paint27_linear_3016_67792" x1="23.5321" y1="13.2577" x2="19.2027" y2="5.68126" gradientUnits="userSpaceOnUse">
<stop stop-color="#F99478" stop-opacity="0"/>
<stop offset="0.9957" stop-color="#F99478" stop-opacity="0.996"/>
<stop offset="1" stop-color="#F99478"/>
</linearGradient>
</defs>
</svg>
